G04 (created by PCBnew (20090216-final)) date Thu 28 Jan 2010 06:02:19 PM PST*
G01*
G70*
G90*
%MOIN*%
G04 Gerber Fmt 3.4, Leading zero omitted, Abs format*
%FSLAX34Y34*%
G04 APERTURE LIST*
%ADD10C,0.009000*%
%ADD11C,0.060000*%
%ADD12C,0.073000*%
%ADD13R,0.073000X0.073000*%
%ADD14C,0.053000*%
%ADD15R,0.055000X0.035000*%
%ADD16C,0.080000*%
%ADD17R,0.102000X0.063000*%
%ADD18C,0.140000*%
%ADD19C,0.150000*%
%ADD20C,0.020000*%
%ADD21C,0.012000*%
%ADD22C,0.010000*%
%ADD23R,0.070000X0.070000*%
%ADD24C,0.152000*%
%ADD25R,0.045000X0.012000*%
%ADD26R,0.035000X0.055000*%
%ADD27R,0.100000X0.050000*%
%ADD28R,0.098000X0.055000*%
%ADD29R,0.048000X0.028000*%
%ADD30R,0.035000X0.085000*%
%ADD31C,0.005000*%
%ADD32C,0.015000*%
%ADD33C,0.009000*%
G04 APERTURE END LIST*
G54D10*
X71500Y-31000D02*
X41500Y-31000D01*
X71500Y-61000D02*
X71500Y-31000D01*
X41500Y-61000D02*
X71500Y-61000D01*
X41500Y-31000D02*
X41500Y-61000D01*
G54D31*
X66850Y-31850D02*
X66849Y-31859D01*
X66849Y-31859D02*
X66846Y-31869D01*
X66846Y-31869D02*
X66841Y-31877D01*
X66841Y-31877D02*
X66835Y-31885D01*
X66835Y-31885D02*
X66827Y-31891D01*
X66827Y-31891D02*
X66819Y-31896D01*
X66819Y-31896D02*
X66810Y-31898D01*
X66810Y-31898D02*
X66800Y-31899D01*
X66800Y-31899D02*
X66791Y-31899D01*
X66791Y-31899D02*
X66782Y-31896D01*
X66782Y-31896D02*
X66773Y-31891D01*
X66773Y-31891D02*
X66766Y-31885D01*
X66766Y-31885D02*
X66759Y-31878D01*
X66759Y-31878D02*
X66755Y-31869D01*
X66755Y-31869D02*
X66752Y-31860D01*
X66752Y-31860D02*
X66751Y-31850D01*
X66751Y-31850D02*
X66751Y-31841D01*
X66751Y-31841D02*
X66754Y-31832D01*
X66754Y-31832D02*
X66758Y-31823D01*
X66758Y-31823D02*
X66765Y-31816D01*
X66765Y-31816D02*
X66772Y-31809D01*
X66772Y-31809D02*
X66780Y-31805D01*
X66780Y-31805D02*
X66790Y-31802D01*
X66790Y-31802D02*
X66799Y-31801D01*
X66799Y-31801D02*
X66808Y-31801D01*
X66808Y-31801D02*
X66818Y-31804D01*
X66818Y-31804D02*
X66826Y-31808D01*
X66826Y-31808D02*
X66834Y-31814D01*
X66834Y-31814D02*
X66840Y-31822D01*
X66840Y-31822D02*
X66845Y-31830D01*
X66845Y-31830D02*
X66848Y-31839D01*
X66848Y-31839D02*
X66849Y-31849D01*
X66849Y-31849D02*
X66850Y-31850D01*
X66800Y-32300D02*
X66800Y-31900D01*
X66800Y-31900D02*
X66200Y-31900D01*
X66200Y-31900D02*
X66200Y-32300D01*
X66200Y-32700D02*
X66200Y-33100D01*
X66200Y-33100D02*
X66800Y-33100D01*
X66800Y-33100D02*
X66800Y-32700D01*
X56850Y-31850D02*
X56849Y-31859D01*
X56849Y-31859D02*
X56846Y-31869D01*
X56846Y-31869D02*
X56841Y-31877D01*
X56841Y-31877D02*
X56835Y-31885D01*
X56835Y-31885D02*
X56827Y-31891D01*
X56827Y-31891D02*
X56819Y-31896D01*
X56819Y-31896D02*
X56810Y-31898D01*
X56810Y-31898D02*
X56800Y-31899D01*
X56800Y-31899D02*
X56791Y-31899D01*
X56791Y-31899D02*
X56782Y-31896D01*
X56782Y-31896D02*
X56773Y-31891D01*
X56773Y-31891D02*
X56766Y-31885D01*
X56766Y-31885D02*
X56759Y-31878D01*
X56759Y-31878D02*
X56755Y-31869D01*
X56755Y-31869D02*
X56752Y-31860D01*
X56752Y-31860D02*
X56751Y-31850D01*
X56751Y-31850D02*
X56751Y-31841D01*
X56751Y-31841D02*
X56754Y-31832D01*
X56754Y-31832D02*
X56758Y-31823D01*
X56758Y-31823D02*
X56765Y-31816D01*
X56765Y-31816D02*
X56772Y-31809D01*
X56772Y-31809D02*
X56780Y-31805D01*
X56780Y-31805D02*
X56790Y-31802D01*
X56790Y-31802D02*
X56799Y-31801D01*
X56799Y-31801D02*
X56808Y-31801D01*
X56808Y-31801D02*
X56818Y-31804D01*
X56818Y-31804D02*
X56826Y-31808D01*
X56826Y-31808D02*
X56834Y-31814D01*
X56834Y-31814D02*
X56840Y-31822D01*
X56840Y-31822D02*
X56845Y-31830D01*
X56845Y-31830D02*
X56848Y-31839D01*
X56848Y-31839D02*
X56849Y-31849D01*
X56849Y-31849D02*
X56850Y-31850D01*
X56800Y-32300D02*
X56800Y-31900D01*
X56800Y-31900D02*
X56200Y-31900D01*
X56200Y-31900D02*
X56200Y-32300D01*
X56200Y-32700D02*
X56200Y-33100D01*
X56200Y-33100D02*
X56800Y-33100D01*
X56800Y-33100D02*
X56800Y-32700D01*
X46850Y-31850D02*
X46849Y-31859D01*
X46849Y-31859D02*
X46846Y-31869D01*
X46846Y-31869D02*
X46841Y-31877D01*
X46841Y-31877D02*
X46835Y-31885D01*
X46835Y-31885D02*
X46827Y-31891D01*
X46827Y-31891D02*
X46819Y-31896D01*
X46819Y-31896D02*
X46810Y-31898D01*
X46810Y-31898D02*
X46800Y-31899D01*
X46800Y-31899D02*
X46791Y-31899D01*
X46791Y-31899D02*
X46782Y-31896D01*
X46782Y-31896D02*
X46773Y-31891D01*
X46773Y-31891D02*
X46766Y-31885D01*
X46766Y-31885D02*
X46759Y-31878D01*
X46759Y-31878D02*
X46755Y-31869D01*
X46755Y-31869D02*
X46752Y-31860D01*
X46752Y-31860D02*
X46751Y-31850D01*
X46751Y-31850D02*
X46751Y-31841D01*
X46751Y-31841D02*
X46754Y-31832D01*
X46754Y-31832D02*
X46758Y-31823D01*
X46758Y-31823D02*
X46765Y-31816D01*
X46765Y-31816D02*
X46772Y-31809D01*
X46772Y-31809D02*
X46780Y-31805D01*
X46780Y-31805D02*
X46790Y-31802D01*
X46790Y-31802D02*
X46799Y-31801D01*
X46799Y-31801D02*
X46808Y-31801D01*
X46808Y-31801D02*
X46818Y-31804D01*
X46818Y-31804D02*
X46826Y-31808D01*
X46826Y-31808D02*
X46834Y-31814D01*
X46834Y-31814D02*
X46840Y-31822D01*
X46840Y-31822D02*
X46845Y-31830D01*
X46845Y-31830D02*
X46848Y-31839D01*
X46848Y-31839D02*
X46849Y-31849D01*
X46849Y-31849D02*
X46850Y-31850D01*
X46800Y-32300D02*
X46800Y-31900D01*
X46800Y-31900D02*
X46200Y-31900D01*
X46200Y-31900D02*
X46200Y-32300D01*
X46200Y-32700D02*
X46200Y-33100D01*
X46200Y-33100D02*
X46800Y-33100D01*
X46800Y-33100D02*
X46800Y-32700D01*
G54D32*
X67500Y-57500D02*
X67250Y-57750D01*
X67500Y-57250D02*
X67000Y-57750D01*
X66500Y-54500D02*
X66500Y-54250D01*
X67000Y-55000D02*
X66000Y-55000D01*
X66000Y-54500D02*
X67000Y-54500D01*
X67000Y-54500D02*
X66500Y-55000D01*
X66500Y-55000D02*
X66000Y-54500D01*
X67500Y-57000D02*
X66750Y-57750D01*
X67500Y-54250D02*
X67500Y-57750D01*
X67500Y-57750D02*
X65500Y-57750D01*
X65500Y-57750D02*
X65500Y-54250D01*
X65500Y-54250D02*
X67500Y-54250D01*
X67500Y-47500D02*
X67250Y-47750D01*
X67500Y-47250D02*
X67000Y-47750D01*
X66500Y-44500D02*
X66500Y-44250D01*
X67000Y-45000D02*
X66000Y-45000D01*
X66000Y-44500D02*
X67000Y-44500D01*
X67000Y-44500D02*
X66500Y-45000D01*
X66500Y-45000D02*
X66000Y-44500D01*
X67500Y-47000D02*
X66750Y-47750D01*
X67500Y-44250D02*
X67500Y-47750D01*
X67500Y-47750D02*
X65500Y-47750D01*
X65500Y-47750D02*
X65500Y-44250D01*
X65500Y-44250D02*
X67500Y-44250D01*
X67500Y-37500D02*
X67250Y-37750D01*
X67500Y-37250D02*
X67000Y-37750D01*
X66500Y-34500D02*
X66500Y-34250D01*
X67000Y-35000D02*
X66000Y-35000D01*
X66000Y-34500D02*
X67000Y-34500D01*
X67000Y-34500D02*
X66500Y-35000D01*
X66500Y-35000D02*
X66000Y-34500D01*
X67500Y-37000D02*
X66750Y-37750D01*
X67500Y-34250D02*
X67500Y-37750D01*
X67500Y-37750D02*
X65500Y-37750D01*
X65500Y-37750D02*
X65500Y-34250D01*
X65500Y-34250D02*
X67500Y-34250D01*
X57500Y-57500D02*
X57250Y-57750D01*
X57500Y-57250D02*
X57000Y-57750D01*
X56500Y-54500D02*
X56500Y-54250D01*
X57000Y-55000D02*
X56000Y-55000D01*
X56000Y-54500D02*
X57000Y-54500D01*
X57000Y-54500D02*
X56500Y-55000D01*
X56500Y-55000D02*
X56000Y-54500D01*
X57500Y-57000D02*
X56750Y-57750D01*
X57500Y-54250D02*
X57500Y-57750D01*
X57500Y-57750D02*
X55500Y-57750D01*
X55500Y-57750D02*
X55500Y-54250D01*
X55500Y-54250D02*
X57500Y-54250D01*
X57500Y-47500D02*
X57250Y-47750D01*
X57500Y-47250D02*
X57000Y-47750D01*
X56500Y-44500D02*
X56500Y-44250D01*
X57000Y-45000D02*
X56000Y-45000D01*
X56000Y-44500D02*
X57000Y-44500D01*
X57000Y-44500D02*
X56500Y-45000D01*
X56500Y-45000D02*
X56000Y-44500D01*
X57500Y-47000D02*
X56750Y-47750D01*
X57500Y-44250D02*
X57500Y-47750D01*
X57500Y-47750D02*
X55500Y-47750D01*
X55500Y-47750D02*
X55500Y-44250D01*
X55500Y-44250D02*
X57500Y-44250D01*
X57500Y-37500D02*
X57250Y-37750D01*
X57500Y-37250D02*
X57000Y-37750D01*
X56500Y-34500D02*
X56500Y-34250D01*
X57000Y-35000D02*
X56000Y-35000D01*
X56000Y-34500D02*
X57000Y-34500D01*
X57000Y-34500D02*
X56500Y-35000D01*
X56500Y-35000D02*
X56000Y-34500D01*
X57500Y-37000D02*
X56750Y-37750D01*
X57500Y-34250D02*
X57500Y-37750D01*
X57500Y-37750D02*
X55500Y-37750D01*
X55500Y-37750D02*
X55500Y-34250D01*
X55500Y-34250D02*
X57500Y-34250D01*
X47500Y-57500D02*
X47250Y-57750D01*
X47500Y-57250D02*
X47000Y-57750D01*
X46500Y-54500D02*
X46500Y-54250D01*
X47000Y-55000D02*
X46000Y-55000D01*
X46000Y-54500D02*
X47000Y-54500D01*
X47000Y-54500D02*
X46500Y-55000D01*
X46500Y-55000D02*
X46000Y-54500D01*
X47500Y-57000D02*
X46750Y-57750D01*
X47500Y-54250D02*
X47500Y-57750D01*
X47500Y-57750D02*
X45500Y-57750D01*
X45500Y-57750D02*
X45500Y-54250D01*
X45500Y-54250D02*
X47500Y-54250D01*
X47500Y-47500D02*
X47250Y-47750D01*
X47500Y-47250D02*
X47000Y-47750D01*
X46500Y-44500D02*
X46500Y-44250D01*
X47000Y-45000D02*
X46000Y-45000D01*
X46000Y-44500D02*
X47000Y-44500D01*
X47000Y-44500D02*
X46500Y-45000D01*
X46500Y-45000D02*
X46000Y-44500D01*
X47500Y-47000D02*
X46750Y-47750D01*
X47500Y-44250D02*
X47500Y-47750D01*
X47500Y-47750D02*
X45500Y-47750D01*
X45500Y-47750D02*
X45500Y-44250D01*
X45500Y-44250D02*
X47500Y-44250D01*
X47500Y-37500D02*
X47250Y-37750D01*
X47500Y-37250D02*
X47000Y-37750D01*
X46500Y-34500D02*
X46500Y-34250D01*
X47000Y-35000D02*
X46000Y-35000D01*
X46000Y-34500D02*
X47000Y-34500D01*
X47000Y-34500D02*
X46500Y-35000D01*
X46500Y-35000D02*
X46000Y-34500D01*
X47500Y-37000D02*
X46750Y-37750D01*
X47500Y-34250D02*
X47500Y-37750D01*
X47500Y-37750D02*
X45500Y-37750D01*
X45500Y-37750D02*
X45500Y-34250D01*
X45500Y-34250D02*
X47500Y-34250D01*
G54D31*
X66125Y-32200D02*
X65875Y-32200D01*
X65875Y-32200D02*
X65875Y-32367D01*
X65875Y-32367D02*
X65903Y-32395D01*
X65903Y-32395D02*
X65987Y-32395D01*
X65987Y-32395D02*
X66014Y-32367D01*
X66014Y-32367D02*
X66014Y-32200D01*
X66014Y-32284D02*
X66125Y-32395D01*
X66125Y-32555D02*
X66098Y-32527D01*
X66098Y-32527D02*
X66014Y-32527D01*
X66014Y-32527D02*
X65987Y-32555D01*
X65987Y-32555D02*
X65987Y-32694D01*
X65987Y-32694D02*
X65959Y-32722D01*
X65959Y-32722D02*
X65903Y-32722D01*
X65903Y-32722D02*
X65875Y-32694D01*
X65875Y-32694D02*
X65875Y-32555D01*
X65875Y-32555D02*
X65903Y-32527D01*
X65903Y-32527D02*
X65959Y-32527D01*
X65959Y-32527D02*
X65987Y-32555D01*
X65987Y-32694D02*
X66014Y-32722D01*
X66014Y-32722D02*
X66098Y-32722D01*
X66098Y-32722D02*
X66125Y-32694D01*
X66125Y-32694D02*
X66125Y-32555D01*
X67125Y-32256D02*
X67125Y-32367D01*
X67125Y-32311D02*
X66875Y-32311D01*
X66903Y-32311D02*
X66959Y-32256D01*
X67125Y-32527D02*
X66875Y-32722D01*
X67098Y-32527D02*
X66903Y-32527D01*
X66903Y-32527D02*
X66875Y-32555D01*
X66875Y-32555D02*
X66875Y-32694D01*
X66875Y-32694D02*
X66903Y-32722D01*
X66903Y-32722D02*
X67098Y-32722D01*
X67098Y-32722D02*
X67125Y-32694D01*
X67125Y-32694D02*
X67125Y-32555D01*
X67125Y-32555D02*
X67098Y-32527D01*
X56125Y-32200D02*
X55875Y-32200D01*
X55875Y-32200D02*
X55875Y-32367D01*
X55875Y-32367D02*
X55903Y-32395D01*
X55903Y-32395D02*
X55987Y-32395D01*
X55987Y-32395D02*
X56014Y-32367D01*
X56014Y-32367D02*
X56014Y-32200D01*
X56014Y-32284D02*
X56125Y-32395D01*
X55875Y-32527D02*
X55875Y-32722D01*
X55875Y-32722D02*
X56125Y-32527D01*
X57125Y-32256D02*
X57125Y-32367D01*
X57125Y-32311D02*
X56875Y-32311D01*
X56903Y-32311D02*
X56959Y-32256D01*
X57125Y-32527D02*
X56875Y-32722D01*
X57098Y-32527D02*
X56903Y-32527D01*
X56903Y-32527D02*
X56875Y-32555D01*
X56875Y-32555D02*
X56875Y-32694D01*
X56875Y-32694D02*
X56903Y-32722D01*
X56903Y-32722D02*
X57098Y-32722D01*
X57098Y-32722D02*
X57125Y-32694D01*
X57125Y-32694D02*
X57125Y-32555D01*
X57125Y-32555D02*
X57098Y-32527D01*
X46125Y-32200D02*
X45875Y-32200D01*
X45875Y-32200D02*
X45875Y-32367D01*
X45875Y-32367D02*
X45903Y-32395D01*
X45903Y-32395D02*
X45987Y-32395D01*
X45987Y-32395D02*
X46014Y-32367D01*
X46014Y-32367D02*
X46014Y-32200D01*
X46014Y-32284D02*
X46125Y-32395D01*
X45903Y-32722D02*
X45875Y-32694D01*
X45875Y-32694D02*
X45875Y-32555D01*
X45875Y-32555D02*
X45903Y-32527D01*
X45903Y-32527D02*
X46098Y-32527D01*
X46098Y-32527D02*
X46125Y-32555D01*
X46125Y-32555D02*
X46125Y-32694D01*
X46125Y-32694D02*
X46098Y-32722D01*
X46098Y-32722D02*
X46014Y-32722D01*
X46014Y-32722D02*
X45987Y-32694D01*
X45987Y-32694D02*
X45987Y-32555D01*
X45987Y-32555D02*
X46014Y-32527D01*
X47125Y-32256D02*
X47125Y-32367D01*
X47125Y-32311D02*
X46875Y-32311D01*
X46903Y-32311D02*
X46959Y-32256D01*
X47125Y-32527D02*
X46875Y-32722D01*
X47098Y-32527D02*
X46903Y-32527D01*
X46903Y-32527D02*
X46875Y-32555D01*
X46875Y-32555D02*
X46875Y-32694D01*
X46875Y-32694D02*
X46903Y-32722D01*
X46903Y-32722D02*
X47098Y-32722D01*
X47098Y-32722D02*
X47125Y-32694D01*
X47125Y-32694D02*
X47125Y-32555D01*
X47125Y-32555D02*
X47098Y-32527D01*
G54D21*
X67546Y-54050D02*
X67546Y-53450D01*
X67613Y-53450D02*
X67213Y-53450D01*
X67213Y-53450D02*
X67146Y-53517D01*
X67146Y-53517D02*
X67146Y-53984D01*
X67146Y-53984D02*
X67213Y-54050D01*
X67213Y-54050D02*
X67613Y-54050D01*
X66693Y-54050D02*
X66427Y-54050D01*
X66560Y-54050D02*
X66560Y-53450D01*
X66560Y-53517D02*
X66693Y-53650D01*
X65574Y-54050D02*
X66041Y-54050D01*
X66041Y-54050D02*
X66041Y-53850D01*
X66041Y-53850D02*
X65974Y-53784D01*
X65974Y-53784D02*
X65641Y-53784D01*
X65641Y-53784D02*
X65574Y-53717D01*
X65574Y-53717D02*
X65574Y-53517D01*
X65574Y-53517D02*
X65641Y-53450D01*
X65641Y-53450D02*
X65974Y-53450D01*
X65974Y-53450D02*
X66041Y-53517D01*
X67613Y-57950D02*
X67613Y-58550D01*
X67613Y-58550D02*
X67079Y-58550D01*
X66360Y-58550D02*
X66827Y-58550D01*
X66827Y-58550D02*
X66827Y-57950D01*
X66827Y-57950D02*
X66360Y-57950D01*
X66827Y-58217D02*
X66560Y-58217D01*
X65974Y-58550D02*
X65974Y-57950D01*
X66041Y-57950D02*
X65641Y-57950D01*
X65641Y-57950D02*
X65574Y-58017D01*
X65574Y-58017D02*
X65574Y-58484D01*
X65574Y-58484D02*
X65641Y-58550D01*
X65641Y-58550D02*
X66041Y-58550D01*
X67546Y-44050D02*
X67546Y-43450D01*
X67613Y-43450D02*
X67213Y-43450D01*
X67213Y-43450D02*
X67146Y-43517D01*
X67146Y-43517D02*
X67146Y-43984D01*
X67146Y-43984D02*
X67213Y-44050D01*
X67213Y-44050D02*
X67613Y-44050D01*
X66693Y-44050D02*
X66427Y-44050D01*
X66560Y-44050D02*
X66560Y-43450D01*
X66560Y-43517D02*
X66693Y-43650D01*
X65907Y-44050D02*
X65641Y-44050D01*
X65774Y-44050D02*
X65774Y-43450D01*
X65774Y-43517D02*
X65907Y-43650D01*
X67613Y-47950D02*
X67613Y-48550D01*
X67613Y-48550D02*
X67079Y-48550D01*
X66360Y-48550D02*
X66827Y-48550D01*
X66827Y-48550D02*
X66827Y-47950D01*
X66827Y-47950D02*
X66360Y-47950D01*
X66827Y-48217D02*
X66560Y-48217D01*
X65974Y-48550D02*
X65974Y-47950D01*
X66041Y-47950D02*
X65641Y-47950D01*
X65641Y-47950D02*
X65574Y-48017D01*
X65574Y-48017D02*
X65574Y-48484D01*
X65574Y-48484D02*
X65641Y-48550D01*
X65641Y-48550D02*
X66041Y-48550D01*
X67546Y-34050D02*
X67546Y-33450D01*
X67613Y-33450D02*
X67213Y-33450D01*
X67213Y-33450D02*
X67146Y-33517D01*
X67146Y-33517D02*
X67146Y-33984D01*
X67146Y-33984D02*
X67213Y-34050D01*
X67213Y-34050D02*
X67613Y-34050D01*
X66693Y-34050D02*
X66427Y-34050D01*
X66560Y-34050D02*
X66560Y-33450D01*
X66560Y-33517D02*
X66693Y-33650D01*
X66041Y-34050D02*
X65574Y-33450D01*
X66041Y-33984D02*
X66041Y-33517D01*
X66041Y-33517D02*
X65974Y-33450D01*
X65974Y-33450D02*
X65641Y-33450D01*
X65641Y-33450D02*
X65574Y-33517D01*
X65574Y-33517D02*
X65574Y-33984D01*
X65574Y-33984D02*
X65641Y-34050D01*
X65641Y-34050D02*
X65974Y-34050D01*
X65974Y-34050D02*
X66041Y-33984D01*
X67613Y-37950D02*
X67613Y-38550D01*
X67613Y-38550D02*
X67079Y-38550D01*
X66360Y-38550D02*
X66827Y-38550D01*
X66827Y-38550D02*
X66827Y-37950D01*
X66827Y-37950D02*
X66360Y-37950D01*
X66827Y-38217D02*
X66560Y-38217D01*
X65974Y-38550D02*
X65974Y-37950D01*
X66041Y-37950D02*
X65641Y-37950D01*
X65641Y-37950D02*
X65574Y-38017D01*
X65574Y-38017D02*
X65574Y-38484D01*
X65574Y-38484D02*
X65641Y-38550D01*
X65641Y-38550D02*
X66041Y-38550D01*
X57153Y-54050D02*
X57153Y-53450D01*
X57220Y-53450D02*
X56820Y-53450D01*
X56820Y-53450D02*
X56753Y-53517D01*
X56753Y-53517D02*
X56753Y-53984D01*
X56753Y-53984D02*
X56820Y-54050D01*
X56820Y-54050D02*
X57220Y-54050D01*
X56367Y-54050D02*
X56034Y-54050D01*
X56034Y-54050D02*
X55967Y-53984D01*
X55967Y-53984D02*
X55967Y-53517D01*
X55967Y-53517D02*
X56034Y-53450D01*
X56034Y-53450D02*
X56367Y-53450D01*
X56367Y-53450D02*
X56434Y-53517D01*
X56434Y-53517D02*
X56434Y-53717D01*
X56434Y-53717D02*
X56367Y-53784D01*
X56367Y-53784D02*
X56034Y-53784D01*
X56034Y-53784D02*
X55967Y-53717D01*
X57613Y-57950D02*
X57613Y-58550D01*
X57613Y-58550D02*
X57079Y-58550D01*
X56360Y-58550D02*
X56827Y-58550D01*
X56827Y-58550D02*
X56827Y-57950D01*
X56827Y-57950D02*
X56360Y-57950D01*
X56827Y-58217D02*
X56560Y-58217D01*
X55974Y-58550D02*
X55974Y-57950D01*
X56041Y-57950D02*
X55641Y-57950D01*
X55641Y-57950D02*
X55574Y-58017D01*
X55574Y-58017D02*
X55574Y-58484D01*
X55574Y-58484D02*
X55641Y-58550D01*
X55641Y-58550D02*
X56041Y-58550D01*
X57153Y-44050D02*
X57153Y-43450D01*
X57220Y-43450D02*
X56820Y-43450D01*
X56820Y-43450D02*
X56753Y-43517D01*
X56753Y-43517D02*
X56753Y-43984D01*
X56753Y-43984D02*
X56820Y-44050D01*
X56820Y-44050D02*
X57220Y-44050D01*
X56367Y-44050D02*
X56434Y-43984D01*
X56434Y-43984D02*
X56434Y-43784D01*
X56434Y-43784D02*
X56367Y-43717D01*
X56367Y-43717D02*
X56034Y-43717D01*
X56034Y-43717D02*
X55967Y-43650D01*
X55967Y-43650D02*
X55967Y-43517D01*
X55967Y-43517D02*
X56034Y-43450D01*
X56034Y-43450D02*
X56367Y-43450D01*
X56367Y-43450D02*
X56434Y-43517D01*
X56434Y-43517D02*
X56434Y-43650D01*
X56434Y-43650D02*
X56367Y-43717D01*
X56034Y-43717D02*
X55967Y-43784D01*
X55967Y-43784D02*
X55967Y-43984D01*
X55967Y-43984D02*
X56034Y-44050D01*
X56034Y-44050D02*
X56367Y-44050D01*
X57613Y-47950D02*
X57613Y-48550D01*
X57613Y-48550D02*
X57079Y-48550D01*
X56360Y-48550D02*
X56827Y-48550D01*
X56827Y-48550D02*
X56827Y-47950D01*
X56827Y-47950D02*
X56360Y-47950D01*
X56827Y-48217D02*
X56560Y-48217D01*
X55974Y-48550D02*
X55974Y-47950D01*
X56041Y-47950D02*
X55641Y-47950D01*
X55641Y-47950D02*
X55574Y-48017D01*
X55574Y-48017D02*
X55574Y-48484D01*
X55574Y-48484D02*
X55641Y-48550D01*
X55641Y-48550D02*
X56041Y-48550D01*
X57153Y-34050D02*
X57153Y-33450D01*
X57220Y-33450D02*
X56820Y-33450D01*
X56820Y-33450D02*
X56753Y-33517D01*
X56753Y-33517D02*
X56753Y-33984D01*
X56753Y-33984D02*
X56820Y-34050D01*
X56820Y-34050D02*
X57220Y-34050D01*
X56434Y-33450D02*
X55967Y-33450D01*
X55967Y-33450D02*
X56434Y-34050D01*
X57613Y-37950D02*
X57613Y-38550D01*
X57613Y-38550D02*
X57079Y-38550D01*
X56360Y-38550D02*
X56827Y-38550D01*
X56827Y-38550D02*
X56827Y-37950D01*
X56827Y-37950D02*
X56360Y-37950D01*
X56827Y-38217D02*
X56560Y-38217D01*
X55974Y-38550D02*
X55974Y-37950D01*
X56041Y-37950D02*
X55641Y-37950D01*
X55641Y-37950D02*
X55574Y-38017D01*
X55574Y-38017D02*
X55574Y-38484D01*
X55574Y-38484D02*
X55641Y-38550D01*
X55641Y-38550D02*
X56041Y-38550D01*
X47153Y-54050D02*
X47153Y-53450D01*
X47220Y-53450D02*
X46820Y-53450D01*
X46820Y-53450D02*
X46753Y-53517D01*
X46753Y-53517D02*
X46753Y-53984D01*
X46753Y-53984D02*
X46820Y-54050D01*
X46820Y-54050D02*
X47220Y-54050D01*
X45967Y-53517D02*
X46034Y-53450D01*
X46034Y-53450D02*
X46367Y-53450D01*
X46367Y-53450D02*
X46434Y-53517D01*
X46434Y-53517D02*
X46434Y-53984D01*
X46434Y-53984D02*
X46367Y-54050D01*
X46367Y-54050D02*
X46034Y-54050D01*
X46034Y-54050D02*
X45967Y-53984D01*
X45967Y-53984D02*
X45967Y-53784D01*
X45967Y-53784D02*
X46034Y-53717D01*
X46034Y-53717D02*
X46367Y-53717D01*
X46367Y-53717D02*
X46434Y-53784D01*
X47613Y-57950D02*
X47613Y-58550D01*
X47613Y-58550D02*
X47079Y-58550D01*
X46360Y-58550D02*
X46827Y-58550D01*
X46827Y-58550D02*
X46827Y-57950D01*
X46827Y-57950D02*
X46360Y-57950D01*
X46827Y-58217D02*
X46560Y-58217D01*
X45974Y-58550D02*
X45974Y-57950D01*
X46041Y-57950D02*
X45641Y-57950D01*
X45641Y-57950D02*
X45574Y-58017D01*
X45574Y-58017D02*
X45574Y-58484D01*
X45574Y-58484D02*
X45641Y-58550D01*
X45641Y-58550D02*
X46041Y-58550D01*
X47153Y-44050D02*
X47153Y-43450D01*
X47220Y-43450D02*
X46820Y-43450D01*
X46820Y-43450D02*
X46753Y-43517D01*
X46753Y-43517D02*
X46753Y-43984D01*
X46753Y-43984D02*
X46820Y-44050D01*
X46820Y-44050D02*
X47220Y-44050D01*
X46434Y-43917D02*
X46434Y-43984D01*
X46434Y-43984D02*
X46367Y-44050D01*
X46367Y-44050D02*
X46034Y-44050D01*
X46034Y-44050D02*
X45967Y-43984D01*
X45967Y-43984D02*
X45967Y-43784D01*
X45967Y-43784D02*
X46100Y-43650D01*
X46100Y-43650D02*
X46434Y-43650D01*
X46434Y-43650D02*
X46434Y-43450D01*
X46434Y-43450D02*
X45967Y-43450D01*
X47613Y-47950D02*
X47613Y-48550D01*
X47613Y-48550D02*
X47079Y-48550D01*
X46360Y-48550D02*
X46827Y-48550D01*
X46827Y-48550D02*
X46827Y-47950D01*
X46827Y-47950D02*
X46360Y-47950D01*
X46827Y-48217D02*
X46560Y-48217D01*
X45974Y-48550D02*
X45974Y-47950D01*
X46041Y-47950D02*
X45641Y-47950D01*
X45641Y-47950D02*
X45574Y-48017D01*
X45574Y-48017D02*
X45574Y-48484D01*
X45574Y-48484D02*
X45641Y-48550D01*
X45641Y-48550D02*
X46041Y-48550D01*
X47153Y-34050D02*
X47153Y-33450D01*
X47220Y-33450D02*
X46820Y-33450D01*
X46820Y-33450D02*
X46753Y-33517D01*
X46753Y-33517D02*
X46753Y-33984D01*
X46753Y-33984D02*
X46820Y-34050D01*
X46820Y-34050D02*
X47220Y-34050D01*
X46100Y-34050D02*
X46100Y-33450D01*
X46100Y-33450D02*
X46434Y-33917D01*
X46434Y-33917D02*
X45967Y-33917D01*
X47613Y-37950D02*
X47613Y-38550D01*
X47613Y-38550D02*
X47079Y-38550D01*
X46360Y-38550D02*
X46827Y-38550D01*
X46827Y-38550D02*
X46827Y-37950D01*
X46827Y-37950D02*
X46360Y-37950D01*
X46827Y-38217D02*
X46560Y-38217D01*
X45974Y-38550D02*
X45974Y-37950D01*
X46041Y-37950D02*
X45641Y-37950D01*
X45641Y-37950D02*
X45574Y-38017D01*
X45574Y-38017D02*
X45574Y-38484D01*
X45574Y-38484D02*
X45641Y-38550D01*
X45641Y-38550D02*
X46041Y-38550D01*
M02*
