G04 (created by PCBnew (20090216-final)) date Thu 28 Jan 2010 06:02:19 PM PST*
G01*
G70*
G90*
%MOIN*%
G04 Gerber Fmt 3.4, Leading zero omitted, Abs format*
%FSLAX34Y34*%
G04 APERTURE LIST*
%ADD10C,0.009000*%
%ADD11C,0.060000*%
%ADD12C,0.073000*%
%ADD13R,0.073000X0.073000*%
%ADD14C,0.053000*%
%ADD15R,0.055000X0.035000*%
%ADD16C,0.080000*%
%ADD17R,0.102000X0.063000*%
%ADD18C,0.140000*%
%ADD19C,0.150000*%
%ADD20C,0.020000*%
%ADD21C,0.012000*%
%ADD22C,0.010000*%
%ADD23R,0.070000X0.070000*%
%ADD24C,0.152000*%
%ADD25R,0.045000X0.012000*%
%ADD26R,0.035000X0.055000*%
%ADD27R,0.100000X0.050000*%
%ADD28R,0.098000X0.055000*%
%ADD29R,0.048000X0.028000*%
%ADD30R,0.035000X0.085000*%
%ADD31C,0.005000*%
%ADD32C,0.015000*%
%ADD33C,0.009000*%
%ADD34C,0.066000*%
%ADD35C,0.079000*%
%ADD36R,0.079000X0.079000*%
%ADD37C,0.059000*%
%ADD38R,0.061000X0.041000*%
%ADD39C,0.086000*%
%ADD40R,0.108000X0.069000*%
%ADD41C,0.146000*%
%ADD42C,0.156000*%
%ADD43R,0.076000X0.076000*%
%ADD44C,0.158000*%
%ADD45R,0.051000X0.018000*%
%ADD46R,0.041000X0.061000*%
%ADD47R,0.106000X0.056000*%
%ADD48R,0.104000X0.061000*%
%ADD49R,0.054000X0.034000*%
%ADD50R,0.041000X0.091000*%
G04 APERTURE END LIST*
G54D10*
X71500Y-31000D02*
X41500Y-31000D01*
X71500Y-61000D02*
X71500Y-31000D01*
X41500Y-61000D02*
X71500Y-61000D01*
X41500Y-31000D02*
X41500Y-61000D01*
G54D43*
X62895Y-46963D03*
X62895Y-45463D03*
G54D44*
X62910Y-51090D03*
X60090Y-53910D03*
G54D45*
X55645Y-46000D03*
X55645Y-45803D03*
X55645Y-45606D03*
X55645Y-46197D03*
X55645Y-46394D03*
X57355Y-46394D03*
X57355Y-46197D03*
X57355Y-46000D03*
X57355Y-45803D03*
X57355Y-45606D03*
G54D34*
X61000Y-41000D03*
X62000Y-41000D03*
X51000Y-41000D03*
X52000Y-41000D03*
X56000Y-41000D03*
X57000Y-41000D03*
G54D35*
X57000Y-59000D03*
G54D36*
X56000Y-59000D03*
G54D37*
X56000Y-60000D03*
X57000Y-60000D03*
G54D46*
X46525Y-52000D03*
X47275Y-52000D03*
G54D38*
X53100Y-45325D03*
X53100Y-46075D03*
X51200Y-47825D03*
X51200Y-48575D03*
X51200Y-45325D03*
X51200Y-46075D03*
X58700Y-45675D03*
X58700Y-44925D03*
G54D46*
X56875Y-48500D03*
X56125Y-48500D03*
G54D47*
X60245Y-43915D03*
X60245Y-45115D03*
G54D48*
X46500Y-43040D03*
X46500Y-44960D03*
G54D49*
X47928Y-48600D03*
X46472Y-48600D03*
G54D50*
X56000Y-52000D03*
X56000Y-54500D03*
X57000Y-52000D03*
X57000Y-54500D03*
G54D39*
X61500Y-57250D03*
X61500Y-59250D03*
X50020Y-59680D03*
X51500Y-59680D03*
X52980Y-59680D03*
G54D41*
X48940Y-58500D03*
X54060Y-58500D03*
X49330Y-55740D03*
X53670Y-55740D03*
G54D42*
X44000Y-33500D03*
X69000Y-33500D03*
X44000Y-58500D03*
X69000Y-58500D03*
M02*
