M48
;DRILL file {PCBnew (20090216-final)} date Thu 28 Jan 2010 05:44:03 PM PST
;FORMAT={2:4/ absolute / inch / suppress trailing zeros}
R,T
VER,1
FMAT,2
INCH,LZ
TCST,OFF
ICI,OFF
ATC,ON
T1C0.040
T2C0.043
T3C0.051
T4C0.100
T5C0.129
%
M47
G05
M72
T1
X051Y-041
X052Y-041
X056Y-041
X057Y-041
X061Y-041
X062Y-041
T2
X056Y-059
X056Y-06
X057Y-059
X057Y-06
X0615Y-05725
X0615Y-05925
T3
X05002Y-05968
X0515Y-05968
X05298Y-05968
T4
X04894Y-0585
X04933Y-05574
X05367Y-05574
X05406Y-0585
T5
X044Y-0335
X044Y-0585
X069Y-0335
X069Y-0585
T0
M30
