G04 (created by PCBnew (20090216-final)) date Thu 28 Jan 2010 06:02:19 PM PST*
G01*
G70*
G90*
%MOIN*%
G04 Gerber Fmt 3.4, Leading zero omitted, Abs format*
%FSLAX34Y34*%
G04 APERTURE LIST*
%ADD10C,0.009000*%
%ADD11C,0.060000*%
%ADD12C,0.073000*%
%ADD13R,0.073000X0.073000*%
%ADD14C,0.053000*%
%ADD15R,0.055000X0.035000*%
%ADD16C,0.080000*%
%ADD17R,0.102000X0.063000*%
%ADD18C,0.140000*%
%ADD19C,0.150000*%
%ADD20C,0.020000*%
%ADD21C,0.012000*%
%ADD22C,0.010000*%
%ADD23R,0.070000X0.070000*%
%ADD24C,0.152000*%
%ADD25R,0.045000X0.012000*%
%ADD26R,0.035000X0.055000*%
%ADD27R,0.100000X0.050000*%
%ADD28R,0.098000X0.055000*%
%ADD29R,0.048000X0.028000*%
%ADD30R,0.035000X0.085000*%
%ADD31C,0.005000*%
%ADD32C,0.015000*%
%ADD33C,0.009000*%
G04 APERTURE END LIST*
G54D10*
X71500Y-31000D02*
X41500Y-31000D01*
X71500Y-61000D02*
X71500Y-31000D01*
X41500Y-61000D02*
X71500Y-61000D01*
X41500Y-31000D02*
X41500Y-61000D01*
G54D23*
X62895Y-46963D03*
X62895Y-45463D03*
G54D24*
X62910Y-51090D03*
X60090Y-53910D03*
G54D25*
X55645Y-46000D03*
X55645Y-45803D03*
X55645Y-45606D03*
X55645Y-46197D03*
X55645Y-46394D03*
X57355Y-46394D03*
X57355Y-46197D03*
X57355Y-46000D03*
X57355Y-45803D03*
X57355Y-45606D03*
G54D11*
X61000Y-41000D03*
X62000Y-41000D03*
X51000Y-41000D03*
X52000Y-41000D03*
X56000Y-41000D03*
X57000Y-41000D03*
G54D12*
X57000Y-59000D03*
G54D13*
X56000Y-59000D03*
G54D14*
X56000Y-60000D03*
X57000Y-60000D03*
G54D26*
X46525Y-52000D03*
X47275Y-52000D03*
G54D15*
X53100Y-45325D03*
X53100Y-46075D03*
X51200Y-47825D03*
X51200Y-48575D03*
X51200Y-45325D03*
X51200Y-46075D03*
X58700Y-45675D03*
X58700Y-44925D03*
G54D26*
X56875Y-48500D03*
X56125Y-48500D03*
G54D27*
X60245Y-43915D03*
X60245Y-45115D03*
G54D28*
X46500Y-43040D03*
X46500Y-44960D03*
G54D29*
X47928Y-48600D03*
X46472Y-48600D03*
G54D30*
X56000Y-52000D03*
X56000Y-54500D03*
X57000Y-52000D03*
X57000Y-54500D03*
G54D16*
X61500Y-57250D03*
X61500Y-59250D03*
X50020Y-59680D03*
X51500Y-59680D03*
X52980Y-59680D03*
G54D18*
X48940Y-58500D03*
X54060Y-58500D03*
X49330Y-55740D03*
X53670Y-55740D03*
G54D19*
X44000Y-33500D03*
X69000Y-33500D03*
X44000Y-58500D03*
X69000Y-58500D03*
G54D21*
X58466Y-46963D02*
X62895Y-46963D01*
X57700Y-46197D02*
X58466Y-46963D01*
X57355Y-46197D02*
X57700Y-46197D01*
X62895Y-51075D02*
X62895Y-46963D01*
X62910Y-51090D02*
X62895Y-51075D01*
X53570Y-46000D02*
X55645Y-46000D01*
X53495Y-46075D02*
X53570Y-46000D01*
X53100Y-46075D02*
X53495Y-46075D01*
X56172Y-46000D02*
X55645Y-46000D01*
X57767Y-44405D02*
X56172Y-46000D01*
X60245Y-44405D02*
X57767Y-44405D01*
X60245Y-44405D02*
X60245Y-43915D01*
X61367Y-44405D02*
X60245Y-44405D01*
X62425Y-45463D02*
X61367Y-44405D01*
X62895Y-45463D02*
X62425Y-45463D01*
X58725Y-52545D02*
X60090Y-53910D01*
X57000Y-52545D02*
X58725Y-52545D01*
X57000Y-52000D02*
X57000Y-52545D01*
X57355Y-45803D02*
X57700Y-45803D01*
X56875Y-51330D02*
X56875Y-48500D01*
X57000Y-51455D02*
X56875Y-51330D01*
X57000Y-52000D02*
X57000Y-51455D01*
X48960Y-43040D02*
X51000Y-41000D01*
X46500Y-43040D02*
X48960Y-43040D01*
X56875Y-46135D02*
X56875Y-48500D01*
X57010Y-46000D02*
X56875Y-46135D01*
X57355Y-46000D02*
X57010Y-46000D01*
X52000Y-41000D02*
X51000Y-41000D01*
X57655Y-46000D02*
X57355Y-46000D01*
X57700Y-45955D02*
X57655Y-46000D01*
X57700Y-45803D02*
X57700Y-45955D01*
X52802Y-39798D02*
X52000Y-41000D01*
X62926Y-39798D02*
X52802Y-39798D01*
X64767Y-41439D02*
X62926Y-39798D01*
X64767Y-45856D02*
X64767Y-41439D01*
X64319Y-46226D02*
X64767Y-45856D01*
X58323Y-46226D02*
X64319Y-46226D01*
X57700Y-45803D02*
X58323Y-46226D01*
X60340Y-41000D02*
X56284Y-45056D01*
X61000Y-41000D02*
X60340Y-41000D01*
X56284Y-45497D02*
X55990Y-45803D01*
X56284Y-45056D02*
X56284Y-45497D01*
X55645Y-45803D02*
X55990Y-45803D01*
X51200Y-45325D02*
X53100Y-45325D01*
X55953Y-45325D02*
X56284Y-45056D01*
X53100Y-45325D02*
X55953Y-45325D01*
X51200Y-46075D02*
X51200Y-47825D01*
X55300Y-45606D02*
X55645Y-45606D01*
X55126Y-45680D02*
X55300Y-45606D01*
X51200Y-45680D02*
X55126Y-45680D01*
X51200Y-46075D02*
X51200Y-45680D01*
X54419Y-46197D02*
X55645Y-46197D01*
X51500Y-49116D02*
X54419Y-46197D01*
X51500Y-59680D02*
X51500Y-49116D01*
X56125Y-52147D02*
X56125Y-48500D01*
X56000Y-52272D02*
X56125Y-52147D01*
X56125Y-46394D02*
X55645Y-46394D01*
X57000Y-41000D02*
X56000Y-41000D01*
X56125Y-48500D02*
X56125Y-46394D01*
X54447Y-41000D02*
X56000Y-41000D01*
X50311Y-44636D02*
X54447Y-41000D01*
X50311Y-48442D02*
X50311Y-44636D01*
X50850Y-48442D02*
X50311Y-48442D01*
X50983Y-48575D02*
X50850Y-48442D01*
X51200Y-48575D02*
X50983Y-48575D01*
X48288Y-48600D02*
X47928Y-48600D01*
X48446Y-48442D02*
X48288Y-48600D01*
X50311Y-48442D02*
X48446Y-48442D01*
X51200Y-48870D02*
X51200Y-48575D01*
X50707Y-49063D02*
X51200Y-48870D01*
X50707Y-59968D02*
X50707Y-49063D01*
X51407Y-60368D02*
X50707Y-59968D01*
X52292Y-60368D02*
X51407Y-60368D01*
X52980Y-59680D02*
X52292Y-60368D01*
X58736Y-45115D02*
X60245Y-45115D01*
X57316Y-45115D02*
X58736Y-45115D01*
X56125Y-46306D02*
X57316Y-45115D01*
X56125Y-46394D02*
X56125Y-46306D01*
X58736Y-45115D02*
X58700Y-44925D01*
X56000Y-52545D02*
X56000Y-52272D01*
X55305Y-53040D02*
X56000Y-52545D01*
X55305Y-55514D02*
X55305Y-53040D01*
X52980Y-58039D02*
X55305Y-55514D01*
X52980Y-59680D02*
X52980Y-58039D01*
X56000Y-52272D02*
X56000Y-52000D01*
X58631Y-45606D02*
X58700Y-45675D01*
X57355Y-45606D02*
X58631Y-45606D01*
X56000Y-54500D02*
X56000Y-59000D01*
X46500Y-45355D02*
X46500Y-44960D01*
X46472Y-45383D02*
X46500Y-45355D01*
X46472Y-48600D02*
X46472Y-45383D01*
X46525Y-48913D02*
X46525Y-52000D01*
X46472Y-48860D02*
X46525Y-48913D01*
X46472Y-48600D02*
X46472Y-48860D01*
X47275Y-55281D02*
X47275Y-52000D01*
X50020Y-58026D02*
X47275Y-55281D01*
X50020Y-59680D02*
X50020Y-58026D01*
X57295Y-55045D02*
X61500Y-59250D01*
X57000Y-55045D02*
X57295Y-55045D01*
X57000Y-54500D02*
X57000Y-55045D01*
G54D22*
X59217Y-45914D02*
X62317Y-45914D01*
X59224Y-45834D02*
X62296Y-45834D01*
X59224Y-45754D02*
X62296Y-45754D01*
X59224Y-45674D02*
X62198Y-45674D01*
X60842Y-45594D02*
X62118Y-45594D01*
X60154Y-45594D02*
X60336Y-45594D01*
X59224Y-45594D02*
X59647Y-45594D01*
X60948Y-45514D02*
X62038Y-45514D01*
X60195Y-45514D02*
X60295Y-45514D01*
X59224Y-45514D02*
X59542Y-45514D01*
X60985Y-45434D02*
X61958Y-45434D01*
X60195Y-45434D02*
X60295Y-45434D01*
X59217Y-45434D02*
X59504Y-45434D01*
X60994Y-45354D02*
X61878Y-45354D01*
X60195Y-45354D02*
X60295Y-45354D01*
X59181Y-45354D02*
X59495Y-45354D01*
X60994Y-45274D02*
X61798Y-45274D01*
X60195Y-45274D02*
X60295Y-45274D01*
X59151Y-45274D02*
X59495Y-45274D01*
X57336Y-45274D02*
X58247Y-45274D01*
X60962Y-45194D02*
X61718Y-45194D01*
X60195Y-45194D02*
X60295Y-45194D01*
X59205Y-45194D02*
X59528Y-45194D01*
X57416Y-45194D02*
X58194Y-45194D01*
X59224Y-45114D02*
X61638Y-45114D01*
X57496Y-45114D02*
X58175Y-45114D01*
X60964Y-45034D02*
X61558Y-45034D01*
X59222Y-45034D02*
X59526Y-45034D01*
X57576Y-45034D02*
X58178Y-45034D01*
X60995Y-44954D02*
X61478Y-44954D01*
X57656Y-44954D02*
X59496Y-44954D01*
X60995Y-44874D02*
X61398Y-44874D01*
X59164Y-44874D02*
X59496Y-44874D01*
X57736Y-44874D02*
X58236Y-44874D01*
X60985Y-44794D02*
X61318Y-44794D01*
X59225Y-44794D02*
X59506Y-44794D01*
X57816Y-44794D02*
X58175Y-44794D01*
X60946Y-44714D02*
X61239Y-44714D01*
X59225Y-44714D02*
X59543Y-44714D01*
X58175Y-44714D02*
X58175Y-44714D01*
X41745Y-60685D02*
X71255Y-60685D01*
X41745Y-60605D02*
X71255Y-60605D01*
X41745Y-60525D02*
X71255Y-60525D01*
X57271Y-60445D02*
X71255Y-60445D01*
X56271Y-60445D02*
X56729Y-60445D01*
X41745Y-60445D02*
X55729Y-60445D01*
X57363Y-60365D02*
X71255Y-60365D01*
X56363Y-60365D02*
X56637Y-60365D01*
X41745Y-60365D02*
X55637Y-60365D01*
X57438Y-60285D02*
X71255Y-60285D01*
X56438Y-60285D02*
X56560Y-60285D01*
X53194Y-60285D02*
X55560Y-60285D01*
X51735Y-60285D02*
X52778Y-60285D01*
X50255Y-60285D02*
X51264Y-60285D01*
X41745Y-60285D02*
X49784Y-60285D01*
X57472Y-60205D02*
X71255Y-60205D01*
X56472Y-60205D02*
X56527Y-60205D01*
X53330Y-60205D02*
X55527Y-60205D01*
X51893Y-60205D02*
X52629Y-60205D01*
X50413Y-60205D02*
X51107Y-60205D01*
X41745Y-60205D02*
X49627Y-60205D01*
X57505Y-60125D02*
X71255Y-60125D01*
X53354Y-60125D02*
X55494Y-60125D01*
X51973Y-60125D02*
X52606Y-60125D01*
X50493Y-60125D02*
X51027Y-60125D01*
X41745Y-60125D02*
X49547Y-60125D01*
X57515Y-60045D02*
X71255Y-60045D01*
X53464Y-60045D02*
X55485Y-60045D01*
X53274Y-60045D02*
X53416Y-60045D01*
X52544Y-60045D02*
X52686Y-60045D01*
X52051Y-60045D02*
X52495Y-60045D01*
X50571Y-60045D02*
X50948Y-60045D01*
X41745Y-60045D02*
X49468Y-60045D01*
X57515Y-59965D02*
X71255Y-59965D01*
X53554Y-59965D02*
X55485Y-59965D01*
X53194Y-59965D02*
X53336Y-59965D01*
X52624Y-59965D02*
X52766Y-59965D01*
X52084Y-59965D02*
X52403Y-59965D01*
X50604Y-59965D02*
X50915Y-59965D01*
X41745Y-59965D02*
X49435Y-59965D01*
X61662Y-59885D02*
X71255Y-59885D01*
X57510Y-59885D02*
X61337Y-59885D01*
X53583Y-59885D02*
X55491Y-59885D01*
X53114Y-59885D02*
X53256Y-59885D01*
X52704Y-59885D02*
X52846Y-59885D01*
X52117Y-59885D02*
X52371Y-59885D01*
X50637Y-59885D02*
X50882Y-59885D01*
X41745Y-59885D02*
X49402Y-59885D01*
X61855Y-59805D02*
X71255Y-59805D01*
X57477Y-59805D02*
X61144Y-59805D01*
X53612Y-59805D02*
X55524Y-59805D01*
X53034Y-59805D02*
X53176Y-59805D01*
X52784Y-59805D02*
X52926Y-59805D01*
X52149Y-59805D02*
X52347Y-59805D01*
X50669Y-59805D02*
X50851Y-59805D01*
X41745Y-59805D02*
X49371Y-59805D01*
X61943Y-59725D02*
X71255Y-59725D01*
X57444Y-59725D02*
X61057Y-59725D01*
X53619Y-59725D02*
X55557Y-59725D01*
X52864Y-59725D02*
X53096Y-59725D01*
X52149Y-59725D02*
X52344Y-59725D01*
X50669Y-59725D02*
X50851Y-59725D01*
X41745Y-59725D02*
X49371Y-59725D01*
X62023Y-59645D02*
X71255Y-59645D01*
X57373Y-59645D02*
X60977Y-59645D01*
X53616Y-59645D02*
X55627Y-59645D01*
X53085Y-59645D02*
X53086Y-59645D01*
X52874Y-59645D02*
X53016Y-59645D01*
X52149Y-59645D02*
X52341Y-59645D01*
X50669Y-59645D02*
X50851Y-59645D01*
X41745Y-59645D02*
X49371Y-59645D01*
X62071Y-59565D02*
X71255Y-59565D01*
X57293Y-59565D02*
X60928Y-59565D01*
X53613Y-59565D02*
X55483Y-59565D01*
X53165Y-59565D02*
X53166Y-59565D01*
X53024Y-59565D02*
X53025Y-59565D01*
X52794Y-59565D02*
X52936Y-59565D01*
X52149Y-59565D02*
X52344Y-59565D01*
X50669Y-59565D02*
X50851Y-59565D01*
X41745Y-59565D02*
X49371Y-59565D01*
X69234Y-59485D02*
X71255Y-59485D01*
X62105Y-59485D02*
X68764Y-59485D01*
X57384Y-59485D02*
X60894Y-59485D01*
X53594Y-59485D02*
X55415Y-59485D01*
X53245Y-59485D02*
X53246Y-59485D01*
X53104Y-59485D02*
X53105Y-59485D01*
X52714Y-59485D02*
X52856Y-59485D01*
X52122Y-59485D02*
X52373Y-59485D01*
X50642Y-59485D02*
X50879Y-59485D01*
X44234Y-59485D02*
X49399Y-59485D01*
X41745Y-59485D02*
X43764Y-59485D01*
X69428Y-59405D02*
X71255Y-59405D01*
X62138Y-59405D02*
X68572Y-59405D01*
X57464Y-59405D02*
X60861Y-59405D01*
X54357Y-59405D02*
X55386Y-59405D01*
X53561Y-59405D02*
X53761Y-59405D01*
X53325Y-59405D02*
X53326Y-59405D01*
X53184Y-59405D02*
X53185Y-59405D01*
X52634Y-59405D02*
X52776Y-59405D01*
X52089Y-59405D02*
X52403Y-59405D01*
X50609Y-59405D02*
X50912Y-59405D01*
X49236Y-59405D02*
X49432Y-59405D01*
X44428Y-59405D02*
X48641Y-59405D01*
X41745Y-59405D02*
X43572Y-59405D01*
X69589Y-59325D02*
X71255Y-59325D01*
X62149Y-59325D02*
X68411Y-59325D01*
X57530Y-59325D02*
X60851Y-59325D01*
X54550Y-59325D02*
X55386Y-59325D01*
X53493Y-59325D02*
X53569Y-59325D01*
X53405Y-59325D02*
X53406Y-59325D01*
X53264Y-59325D02*
X53265Y-59325D01*
X52554Y-59325D02*
X52696Y-59325D01*
X52056Y-59325D02*
X52468Y-59325D01*
X50576Y-59325D02*
X50945Y-59325D01*
X49429Y-59325D02*
X49465Y-59325D01*
X44589Y-59325D02*
X48449Y-59325D01*
X41745Y-59325D02*
X43411Y-59325D01*
X69669Y-59245D02*
X71255Y-59245D01*
X62149Y-59245D02*
X68331Y-59245D01*
X57564Y-59245D02*
X60851Y-59245D01*
X54658Y-59245D02*
X55386Y-59245D01*
X53409Y-59245D02*
X53461Y-59245D01*
X53344Y-59245D02*
X53345Y-59245D01*
X51983Y-59245D02*
X52616Y-59245D01*
X50503Y-59245D02*
X51017Y-59245D01*
X44669Y-59245D02*
X48341Y-59245D01*
X41745Y-59245D02*
X43331Y-59245D01*
X69749Y-59165D02*
X71255Y-59165D01*
X62149Y-59165D02*
X68251Y-59165D01*
X57597Y-59165D02*
X60851Y-59165D01*
X54738Y-59165D02*
X55386Y-59165D01*
X53335Y-59165D02*
X53381Y-59165D01*
X51903Y-59165D02*
X52626Y-59165D01*
X50423Y-59165D02*
X51097Y-59165D01*
X44749Y-59165D02*
X48261Y-59165D01*
X41745Y-59165D02*
X43251Y-59165D01*
X69829Y-59085D02*
X71255Y-59085D01*
X62135Y-59085D02*
X68171Y-59085D01*
X57615Y-59085D02*
X60866Y-59085D01*
X54818Y-59085D02*
X55386Y-59085D01*
X53209Y-59085D02*
X53301Y-59085D01*
X51810Y-59085D02*
X52741Y-59085D01*
X50330Y-59085D02*
X51190Y-59085D01*
X44829Y-59085D02*
X48181Y-59085D01*
X41745Y-59085D02*
X43171Y-59085D01*
X69872Y-59005D02*
X71255Y-59005D01*
X62101Y-59005D02*
X68126Y-59005D01*
X57615Y-59005D02*
X60816Y-59005D01*
X54879Y-59005D02*
X55386Y-59005D01*
X51810Y-59005D02*
X53240Y-59005D01*
X50330Y-59005D02*
X51190Y-59005D01*
X44872Y-59005D02*
X48120Y-59005D01*
X41745Y-59005D02*
X43126Y-59005D01*
X69906Y-58925D02*
X71255Y-58925D01*
X62068Y-58925D02*
X68093Y-58925D01*
X57615Y-58925D02*
X60736Y-58925D01*
X54912Y-58925D02*
X55386Y-58925D01*
X51810Y-58925D02*
X53207Y-58925D01*
X50330Y-58925D02*
X51190Y-58925D01*
X44906Y-58925D02*
X48087Y-58925D01*
X41745Y-58925D02*
X43093Y-58925D01*
X69939Y-58845D02*
X71255Y-58845D01*
X62013Y-58845D02*
X68060Y-58845D01*
X57602Y-58845D02*
X60656Y-58845D01*
X54945Y-58845D02*
X55386Y-58845D01*
X51810Y-58845D02*
X53174Y-58845D01*
X50330Y-58845D02*
X51190Y-58845D01*
X44939Y-58845D02*
X48054Y-58845D01*
X41745Y-58845D02*
X43060Y-58845D01*
X69972Y-58765D02*
X71255Y-58765D01*
X61933Y-58765D02*
X68027Y-58765D01*
X57568Y-58765D02*
X60576Y-58765D01*
X54978Y-58765D02*
X55386Y-58765D01*
X51810Y-58765D02*
X53141Y-58765D01*
X50330Y-58765D02*
X51190Y-58765D01*
X44972Y-58765D02*
X48021Y-58765D01*
X41745Y-58765D02*
X43027Y-58765D01*
X70000Y-58685D02*
X71255Y-58685D01*
X61832Y-58685D02*
X68000Y-58685D01*
X57535Y-58685D02*
X60496Y-58685D01*
X55010Y-58685D02*
X55386Y-58685D01*
X51810Y-58685D02*
X53110Y-58685D01*
X50330Y-58685D02*
X51190Y-58685D01*
X45000Y-58685D02*
X47990Y-58685D01*
X41745Y-58685D02*
X43000Y-58685D01*
X70000Y-58605D02*
X71255Y-58605D01*
X61639Y-58605D02*
X68000Y-58605D01*
X61294Y-58605D02*
X61361Y-58605D01*
X57475Y-58605D02*
X60416Y-58605D01*
X55010Y-58605D02*
X55386Y-58605D01*
X51810Y-58605D02*
X53110Y-58605D01*
X50330Y-58605D02*
X51190Y-58605D01*
X45000Y-58605D02*
X47990Y-58605D01*
X41745Y-58605D02*
X43000Y-58605D01*
X70000Y-58525D02*
X71255Y-58525D01*
X61214Y-58525D02*
X68000Y-58525D01*
X57395Y-58525D02*
X60336Y-58525D01*
X56589Y-58525D02*
X56605Y-58525D01*
X55010Y-58525D02*
X55412Y-58525D01*
X51810Y-58525D02*
X53110Y-58525D01*
X50330Y-58525D02*
X51190Y-58525D01*
X45000Y-58525D02*
X47990Y-58525D01*
X41745Y-58525D02*
X43000Y-58525D01*
X70000Y-58445D02*
X71255Y-58445D01*
X61134Y-58445D02*
X68000Y-58445D01*
X57268Y-58445D02*
X60256Y-58445D01*
X56527Y-58445D02*
X56734Y-58445D01*
X55010Y-58445D02*
X55473Y-58445D01*
X51810Y-58445D02*
X53110Y-58445D01*
X50330Y-58445D02*
X51190Y-58445D01*
X45000Y-58445D02*
X47990Y-58445D01*
X41745Y-58445D02*
X43000Y-58445D01*
X70000Y-58365D02*
X71255Y-58365D01*
X61054Y-58365D02*
X68000Y-58365D01*
X56310Y-58365D02*
X60176Y-58365D01*
X55010Y-58365D02*
X55690Y-58365D01*
X51810Y-58365D02*
X53110Y-58365D01*
X50330Y-58365D02*
X51190Y-58365D01*
X45000Y-58365D02*
X47990Y-58365D01*
X41745Y-58365D02*
X43000Y-58365D01*
X69993Y-58285D02*
X71255Y-58285D01*
X60974Y-58285D02*
X68007Y-58285D01*
X56310Y-58285D02*
X60096Y-58285D01*
X54999Y-58285D02*
X55690Y-58285D01*
X51810Y-58285D02*
X53121Y-58285D01*
X50330Y-58285D02*
X51190Y-58285D01*
X44993Y-58285D02*
X48001Y-58285D01*
X41745Y-58285D02*
X43007Y-58285D01*
X69960Y-58205D02*
X71255Y-58205D01*
X60894Y-58205D02*
X68040Y-58205D01*
X56310Y-58205D02*
X60016Y-58205D01*
X54966Y-58205D02*
X55690Y-58205D01*
X51810Y-58205D02*
X53154Y-58205D01*
X50330Y-58205D02*
X51190Y-58205D01*
X44960Y-58205D02*
X48034Y-58205D01*
X41745Y-58205D02*
X43040Y-58205D01*
X69927Y-58125D02*
X71255Y-58125D01*
X60814Y-58125D02*
X68073Y-58125D01*
X56310Y-58125D02*
X59936Y-58125D01*
X54933Y-58125D02*
X55690Y-58125D01*
X51810Y-58125D02*
X53187Y-58125D01*
X50330Y-58125D02*
X51190Y-58125D01*
X44927Y-58125D02*
X48067Y-58125D01*
X41745Y-58125D02*
X43073Y-58125D01*
X69894Y-58045D02*
X71255Y-58045D01*
X60734Y-58045D02*
X68107Y-58045D01*
X56310Y-58045D02*
X59856Y-58045D01*
X54900Y-58045D02*
X55690Y-58045D01*
X51810Y-58045D02*
X53221Y-58045D01*
X50330Y-58045D02*
X51190Y-58045D01*
X44894Y-58045D02*
X48101Y-58045D01*
X41745Y-58045D02*
X43107Y-58045D01*
X69861Y-57965D02*
X71255Y-57965D01*
X60654Y-57965D02*
X68140Y-57965D01*
X56310Y-57965D02*
X59776Y-57965D01*
X54867Y-57965D02*
X55690Y-57965D01*
X51810Y-57965D02*
X53254Y-57965D01*
X50318Y-57965D02*
X51190Y-57965D01*
X44861Y-57965D02*
X48134Y-57965D01*
X41745Y-57965D02*
X43140Y-57965D01*
X69799Y-57885D02*
X71255Y-57885D01*
X61662Y-57885D02*
X68201Y-57885D01*
X60574Y-57885D02*
X61337Y-57885D01*
X56310Y-57885D02*
X59696Y-57885D01*
X54789Y-57885D02*
X55690Y-57885D01*
X51810Y-57885D02*
X53331Y-57885D01*
X50292Y-57885D02*
X51190Y-57885D01*
X44799Y-57885D02*
X48212Y-57885D01*
X41745Y-57885D02*
X43201Y-57885D01*
X69719Y-57805D02*
X71255Y-57805D01*
X61855Y-57805D02*
X68281Y-57805D01*
X60494Y-57805D02*
X61144Y-57805D01*
X56310Y-57805D02*
X59616Y-57805D01*
X54709Y-57805D02*
X55690Y-57805D01*
X51810Y-57805D02*
X53411Y-57805D01*
X50237Y-57805D02*
X51190Y-57805D01*
X44719Y-57805D02*
X48292Y-57805D01*
X41745Y-57805D02*
X43281Y-57805D01*
X69639Y-57725D02*
X71255Y-57725D01*
X61943Y-57725D02*
X68361Y-57725D01*
X60414Y-57725D02*
X61057Y-57725D01*
X56310Y-57725D02*
X59536Y-57725D01*
X54629Y-57725D02*
X55690Y-57725D01*
X51810Y-57725D02*
X53492Y-57725D01*
X50157Y-57725D02*
X51190Y-57725D01*
X44639Y-57725D02*
X48372Y-57725D01*
X41745Y-57725D02*
X43361Y-57725D01*
X69548Y-57645D02*
X71255Y-57645D01*
X62023Y-57645D02*
X68451Y-57645D01*
X60334Y-57645D02*
X60977Y-57645D01*
X56310Y-57645D02*
X59456Y-57645D01*
X54479Y-57645D02*
X55690Y-57645D01*
X51810Y-57645D02*
X53642Y-57645D01*
X50077Y-57645D02*
X51190Y-57645D01*
X44548Y-57645D02*
X48522Y-57645D01*
X41745Y-57645D02*
X43451Y-57645D01*
X69356Y-57565D02*
X71255Y-57565D01*
X62071Y-57565D02*
X68644Y-57565D01*
X60254Y-57565D02*
X60928Y-57565D01*
X56310Y-57565D02*
X59376Y-57565D01*
X54287Y-57565D02*
X55690Y-57565D01*
X51810Y-57565D02*
X53836Y-57565D01*
X49997Y-57565D02*
X51190Y-57565D01*
X44356Y-57565D02*
X48716Y-57565D01*
X41745Y-57565D02*
X43644Y-57565D01*
X62105Y-57485D02*
X71255Y-57485D01*
X60174Y-57485D02*
X60894Y-57485D01*
X56310Y-57485D02*
X59296Y-57485D01*
X51810Y-57485D02*
X55690Y-57485D01*
X49917Y-57485D02*
X51190Y-57485D01*
X41745Y-57485D02*
X49040Y-57485D01*
X62138Y-57405D02*
X71255Y-57405D01*
X60094Y-57405D02*
X60861Y-57405D01*
X56310Y-57405D02*
X59216Y-57405D01*
X51810Y-57405D02*
X55690Y-57405D01*
X49837Y-57405D02*
X51190Y-57405D01*
X41745Y-57405D02*
X48960Y-57405D01*
X62149Y-57325D02*
X71255Y-57325D01*
X60014Y-57325D02*
X60851Y-57325D01*
X56310Y-57325D02*
X59136Y-57325D01*
X51810Y-57325D02*
X55690Y-57325D01*
X49757Y-57325D02*
X51190Y-57325D01*
X41745Y-57325D02*
X48880Y-57325D01*
X62149Y-57245D02*
X71255Y-57245D01*
X59934Y-57245D02*
X60851Y-57245D01*
X56310Y-57245D02*
X59056Y-57245D01*
X51810Y-57245D02*
X55690Y-57245D01*
X49677Y-57245D02*
X51190Y-57245D01*
X41745Y-57245D02*
X48800Y-57245D01*
X62149Y-57165D02*
X71255Y-57165D01*
X59854Y-57165D02*
X60851Y-57165D01*
X56310Y-57165D02*
X58976Y-57165D01*
X51810Y-57165D02*
X55690Y-57165D01*
X49597Y-57165D02*
X51190Y-57165D01*
X41745Y-57165D02*
X48720Y-57165D01*
X62135Y-57085D02*
X71255Y-57085D01*
X59774Y-57085D02*
X60866Y-57085D01*
X56310Y-57085D02*
X58896Y-57085D01*
X51810Y-57085D02*
X55690Y-57085D01*
X49517Y-57085D02*
X51190Y-57085D01*
X41745Y-57085D02*
X48640Y-57085D01*
X62101Y-57005D02*
X71255Y-57005D01*
X59694Y-57005D02*
X60900Y-57005D01*
X56310Y-57005D02*
X58816Y-57005D01*
X51810Y-57005D02*
X55690Y-57005D01*
X49437Y-57005D02*
X51190Y-57005D01*
X41745Y-57005D02*
X48560Y-57005D01*
X62068Y-56925D02*
X71255Y-56925D01*
X59614Y-56925D02*
X60933Y-56925D01*
X56310Y-56925D02*
X58736Y-56925D01*
X51810Y-56925D02*
X55690Y-56925D01*
X49357Y-56925D02*
X51190Y-56925D01*
X41745Y-56925D02*
X48480Y-56925D01*
X62013Y-56845D02*
X71255Y-56845D01*
X59534Y-56845D02*
X60987Y-56845D01*
X56310Y-56845D02*
X58656Y-56845D01*
X51810Y-56845D02*
X55690Y-56845D01*
X49277Y-56845D02*
X51190Y-56845D01*
X41745Y-56845D02*
X48400Y-56845D01*
X61933Y-56765D02*
X71255Y-56765D01*
X59454Y-56765D02*
X61067Y-56765D01*
X56310Y-56765D02*
X58576Y-56765D01*
X51810Y-56765D02*
X55690Y-56765D01*
X49197Y-56765D02*
X51190Y-56765D01*
X41745Y-56765D02*
X48320Y-56765D01*
X61832Y-56685D02*
X71255Y-56685D01*
X59374Y-56685D02*
X61169Y-56685D01*
X56310Y-56685D02*
X58496Y-56685D01*
X53870Y-56685D02*
X55690Y-56685D01*
X51810Y-56685D02*
X53467Y-56685D01*
X49530Y-56685D02*
X51190Y-56685D01*
X49117Y-56685D02*
X49128Y-56685D01*
X41745Y-56685D02*
X48240Y-56685D01*
X61639Y-56605D02*
X71255Y-56605D01*
X59294Y-56605D02*
X61362Y-56605D01*
X56310Y-56605D02*
X58416Y-56605D01*
X54064Y-56605D02*
X55690Y-56605D01*
X51810Y-56605D02*
X53275Y-56605D01*
X49724Y-56605D02*
X51190Y-56605D01*
X41745Y-56605D02*
X48160Y-56605D01*
X59214Y-56525D02*
X71255Y-56525D01*
X56310Y-56525D02*
X58336Y-56525D01*
X54228Y-56525D02*
X55690Y-56525D01*
X51810Y-56525D02*
X53111Y-56525D01*
X49888Y-56525D02*
X51190Y-56525D01*
X41745Y-56525D02*
X48080Y-56525D01*
X59134Y-56445D02*
X71255Y-56445D01*
X56310Y-56445D02*
X58256Y-56445D01*
X54308Y-56445D02*
X55690Y-56445D01*
X51810Y-56445D02*
X53031Y-56445D01*
X49968Y-56445D02*
X51190Y-56445D01*
X41745Y-56445D02*
X48000Y-56445D01*
X59054Y-56365D02*
X71255Y-56365D01*
X56310Y-56365D02*
X58176Y-56365D01*
X54388Y-56365D02*
X55690Y-56365D01*
X51810Y-56365D02*
X52951Y-56365D01*
X50048Y-56365D02*
X51190Y-56365D01*
X41745Y-56365D02*
X47920Y-56365D01*
X58974Y-56285D02*
X71255Y-56285D01*
X56310Y-56285D02*
X58096Y-56285D01*
X54468Y-56285D02*
X55690Y-56285D01*
X51810Y-56285D02*
X52871Y-56285D01*
X50128Y-56285D02*
X51190Y-56285D01*
X41745Y-56285D02*
X47840Y-56285D01*
X58894Y-56205D02*
X71255Y-56205D01*
X56310Y-56205D02*
X58016Y-56205D01*
X54505Y-56205D02*
X55690Y-56205D01*
X51810Y-56205D02*
X52834Y-56205D01*
X50165Y-56205D02*
X51190Y-56205D01*
X41745Y-56205D02*
X47760Y-56205D01*
X58814Y-56125D02*
X71255Y-56125D01*
X56310Y-56125D02*
X57936Y-56125D01*
X54538Y-56125D02*
X55690Y-56125D01*
X51810Y-56125D02*
X52801Y-56125D01*
X50198Y-56125D02*
X51190Y-56125D01*
X41745Y-56125D02*
X47680Y-56125D01*
X58734Y-56045D02*
X71255Y-56045D01*
X56310Y-56045D02*
X57856Y-56045D01*
X54572Y-56045D02*
X55690Y-56045D01*
X51810Y-56045D02*
X52768Y-56045D01*
X50232Y-56045D02*
X51190Y-56045D01*
X41745Y-56045D02*
X47600Y-56045D01*
X58654Y-55965D02*
X71255Y-55965D01*
X56310Y-55965D02*
X57776Y-55965D01*
X54605Y-55965D02*
X55690Y-55965D01*
X51810Y-55965D02*
X52735Y-55965D01*
X50265Y-55965D02*
X51190Y-55965D01*
X41745Y-55965D02*
X47520Y-55965D01*
X58574Y-55885D02*
X71255Y-55885D01*
X56310Y-55885D02*
X57696Y-55885D01*
X54620Y-55885D02*
X55690Y-55885D01*
X51810Y-55885D02*
X52720Y-55885D01*
X50280Y-55885D02*
X51190Y-55885D01*
X48318Y-55885D02*
X48380Y-55885D01*
X41745Y-55885D02*
X47440Y-55885D01*
X58494Y-55805D02*
X71255Y-55805D01*
X56310Y-55805D02*
X57616Y-55805D01*
X54620Y-55805D02*
X55690Y-55805D01*
X51810Y-55805D02*
X52720Y-55805D01*
X50280Y-55805D02*
X51190Y-55805D01*
X48238Y-55805D02*
X48380Y-55805D01*
X41745Y-55805D02*
X47360Y-55805D01*
X58414Y-55725D02*
X71255Y-55725D01*
X56310Y-55725D02*
X57536Y-55725D01*
X54620Y-55725D02*
X55690Y-55725D01*
X51810Y-55725D02*
X52720Y-55725D01*
X50280Y-55725D02*
X51190Y-55725D01*
X48158Y-55725D02*
X48380Y-55725D01*
X41745Y-55725D02*
X47280Y-55725D01*
X58334Y-55645D02*
X71255Y-55645D01*
X56310Y-55645D02*
X57456Y-55645D01*
X54620Y-55645D02*
X55690Y-55645D01*
X51810Y-55645D02*
X52720Y-55645D01*
X50280Y-55645D02*
X51190Y-55645D01*
X48078Y-55645D02*
X48380Y-55645D01*
X41745Y-55645D02*
X47200Y-55645D01*
X58254Y-55565D02*
X71255Y-55565D01*
X56310Y-55565D02*
X57376Y-55565D01*
X54620Y-55565D02*
X55690Y-55565D01*
X51810Y-55565D02*
X52720Y-55565D01*
X50280Y-55565D02*
X51190Y-55565D01*
X47998Y-55565D02*
X48380Y-55565D01*
X41745Y-55565D02*
X47120Y-55565D01*
X58174Y-55485D02*
X71255Y-55485D01*
X56310Y-55485D02*
X57296Y-55485D01*
X54593Y-55485D02*
X55690Y-55485D01*
X51810Y-55485D02*
X52748Y-55485D01*
X50253Y-55485D02*
X51190Y-55485D01*
X47918Y-55485D02*
X48408Y-55485D01*
X41745Y-55485D02*
X47045Y-55485D01*
X58094Y-55405D02*
X71255Y-55405D01*
X56310Y-55405D02*
X57216Y-55405D01*
X54560Y-55405D02*
X55690Y-55405D01*
X51810Y-55405D02*
X52781Y-55405D01*
X50220Y-55405D02*
X51190Y-55405D01*
X47838Y-55405D02*
X48441Y-55405D01*
X41745Y-55405D02*
X46992Y-55405D01*
X58014Y-55325D02*
X71255Y-55325D01*
X56310Y-55325D02*
X56872Y-55325D01*
X54527Y-55325D02*
X55690Y-55325D01*
X51810Y-55325D02*
X52814Y-55325D01*
X50187Y-55325D02*
X51190Y-55325D01*
X47758Y-55325D02*
X48474Y-55325D01*
X41745Y-55325D02*
X46973Y-55325D01*
X57934Y-55245D02*
X71255Y-55245D01*
X56310Y-55245D02*
X56768Y-55245D01*
X54494Y-55245D02*
X55690Y-55245D01*
X51810Y-55245D02*
X52847Y-55245D01*
X50154Y-55245D02*
X51190Y-55245D01*
X47678Y-55245D02*
X48507Y-55245D01*
X41745Y-55245D02*
X46965Y-55245D01*
X57854Y-55165D02*
X71255Y-55165D01*
X56310Y-55165D02*
X56714Y-55165D01*
X54439Y-55165D02*
X55690Y-55165D01*
X51810Y-55165D02*
X52902Y-55165D01*
X50099Y-55165D02*
X51190Y-55165D01*
X47598Y-55165D02*
X48562Y-55165D01*
X41745Y-55165D02*
X46965Y-55165D01*
X57774Y-55085D02*
X71255Y-55085D01*
X56367Y-55085D02*
X56633Y-55085D01*
X54359Y-55085D02*
X55633Y-55085D01*
X51810Y-55085D02*
X52982Y-55085D01*
X50019Y-55085D02*
X51190Y-55085D01*
X47585Y-55085D02*
X48642Y-55085D01*
X41745Y-55085D02*
X46965Y-55085D01*
X57694Y-55005D02*
X71255Y-55005D01*
X56411Y-55005D02*
X56588Y-55005D01*
X54279Y-55005D02*
X55588Y-55005D01*
X51810Y-55005D02*
X53062Y-55005D01*
X49939Y-55005D02*
X51190Y-55005D01*
X47585Y-55005D02*
X48722Y-55005D01*
X41745Y-55005D02*
X46965Y-55005D01*
X57614Y-54925D02*
X71255Y-54925D01*
X56424Y-54925D02*
X56576Y-54925D01*
X54185Y-54925D02*
X55576Y-54925D01*
X51810Y-54925D02*
X53155Y-54925D01*
X49845Y-54925D02*
X51190Y-54925D01*
X47585Y-54925D02*
X48815Y-54925D01*
X41745Y-54925D02*
X46965Y-54925D01*
X60469Y-54845D02*
X71255Y-54845D01*
X57534Y-54845D02*
X59710Y-54845D01*
X56424Y-54845D02*
X56576Y-54845D01*
X53993Y-54845D02*
X55576Y-54845D01*
X51810Y-54845D02*
X53349Y-54845D01*
X49653Y-54845D02*
X51190Y-54845D01*
X47585Y-54845D02*
X49009Y-54845D01*
X41745Y-54845D02*
X46965Y-54845D01*
X60662Y-54765D02*
X71255Y-54765D01*
X57424Y-54765D02*
X59518Y-54765D01*
X56424Y-54765D02*
X56576Y-54765D01*
X51810Y-54765D02*
X55576Y-54765D01*
X47585Y-54765D02*
X51190Y-54765D01*
X41745Y-54765D02*
X46965Y-54765D01*
X60742Y-54685D02*
X71255Y-54685D01*
X57424Y-54685D02*
X59438Y-54685D01*
X56424Y-54685D02*
X56576Y-54685D01*
X51810Y-54685D02*
X55576Y-54685D01*
X47585Y-54685D02*
X51190Y-54685D01*
X41745Y-54685D02*
X46965Y-54685D01*
X60822Y-54605D02*
X71255Y-54605D01*
X57424Y-54605D02*
X59358Y-54605D01*
X56424Y-54605D02*
X56576Y-54605D01*
X51810Y-54605D02*
X55576Y-54605D01*
X47585Y-54605D02*
X51190Y-54605D01*
X41745Y-54605D02*
X46965Y-54605D01*
X60902Y-54525D02*
X71255Y-54525D01*
X57424Y-54525D02*
X59278Y-54525D01*
X56424Y-54525D02*
X56576Y-54525D01*
X51810Y-54525D02*
X55576Y-54525D01*
X47585Y-54525D02*
X51190Y-54525D01*
X41745Y-54525D02*
X46965Y-54525D01*
X60960Y-54445D02*
X71255Y-54445D01*
X57424Y-54445D02*
X59219Y-54445D01*
X56424Y-54445D02*
X56576Y-54445D01*
X51810Y-54445D02*
X55576Y-54445D01*
X47585Y-54445D02*
X51190Y-54445D01*
X41745Y-54445D02*
X46965Y-54445D01*
X60993Y-54365D02*
X71255Y-54365D01*
X57424Y-54365D02*
X59186Y-54365D01*
X56424Y-54365D02*
X56576Y-54365D01*
X51810Y-54365D02*
X55576Y-54365D01*
X47585Y-54365D02*
X51190Y-54365D01*
X41745Y-54365D02*
X46965Y-54365D01*
X61026Y-54285D02*
X71255Y-54285D01*
X57424Y-54285D02*
X59153Y-54285D01*
X56424Y-54285D02*
X56576Y-54285D01*
X51810Y-54285D02*
X55576Y-54285D01*
X47585Y-54285D02*
X51190Y-54285D01*
X41745Y-54285D02*
X46965Y-54285D01*
X61059Y-54205D02*
X71255Y-54205D01*
X57424Y-54205D02*
X59120Y-54205D01*
X56424Y-54205D02*
X56576Y-54205D01*
X51810Y-54205D02*
X55576Y-54205D01*
X47585Y-54205D02*
X51190Y-54205D01*
X41745Y-54205D02*
X46965Y-54205D01*
X61093Y-54125D02*
X71255Y-54125D01*
X57424Y-54125D02*
X59087Y-54125D01*
X56424Y-54125D02*
X56576Y-54125D01*
X51810Y-54125D02*
X55576Y-54125D01*
X47585Y-54125D02*
X51190Y-54125D01*
X41745Y-54125D02*
X46965Y-54125D01*
X61099Y-54045D02*
X71255Y-54045D01*
X57424Y-54045D02*
X59081Y-54045D01*
X56424Y-54045D02*
X56576Y-54045D01*
X51810Y-54045D02*
X55576Y-54045D01*
X47585Y-54045D02*
X51190Y-54045D01*
X41745Y-54045D02*
X46965Y-54045D01*
X61099Y-53965D02*
X71255Y-53965D01*
X57399Y-53965D02*
X59081Y-53965D01*
X56399Y-53965D02*
X56602Y-53965D01*
X51810Y-53965D02*
X55602Y-53965D01*
X47585Y-53965D02*
X51190Y-53965D01*
X41745Y-53965D02*
X46965Y-53965D01*
X61099Y-53885D02*
X71255Y-53885D01*
X57337Y-53885D02*
X59081Y-53885D01*
X56337Y-53885D02*
X56663Y-53885D01*
X51810Y-53885D02*
X55663Y-53885D01*
X47585Y-53885D02*
X51190Y-53885D01*
X41745Y-53885D02*
X46965Y-53885D01*
X61099Y-53805D02*
X71255Y-53805D01*
X51810Y-53805D02*
X59081Y-53805D01*
X47585Y-53805D02*
X51190Y-53805D01*
X41745Y-53805D02*
X46965Y-53805D01*
X61099Y-53725D02*
X71255Y-53725D01*
X51810Y-53725D02*
X59081Y-53725D01*
X47585Y-53725D02*
X51190Y-53725D01*
X41745Y-53725D02*
X46965Y-53725D01*
X61073Y-53645D02*
X71255Y-53645D01*
X51810Y-53645D02*
X59108Y-53645D01*
X47585Y-53645D02*
X51190Y-53645D01*
X41745Y-53645D02*
X46965Y-53645D01*
X61040Y-53565D02*
X71255Y-53565D01*
X51810Y-53565D02*
X59141Y-53565D01*
X47585Y-53565D02*
X51190Y-53565D01*
X41745Y-53565D02*
X46965Y-53565D01*
X61007Y-53485D02*
X71255Y-53485D01*
X51810Y-53485D02*
X59174Y-53485D01*
X47585Y-53485D02*
X51190Y-53485D01*
X41745Y-53485D02*
X46965Y-53485D01*
X60974Y-53405D02*
X71255Y-53405D01*
X51810Y-53405D02*
X59147Y-53405D01*
X47585Y-53405D02*
X51190Y-53405D01*
X41745Y-53405D02*
X46965Y-53405D01*
X60932Y-53325D02*
X71255Y-53325D01*
X51810Y-53325D02*
X59067Y-53325D01*
X47585Y-53325D02*
X51190Y-53325D01*
X41745Y-53325D02*
X46965Y-53325D01*
X60852Y-53245D02*
X71255Y-53245D01*
X51810Y-53245D02*
X58987Y-53245D01*
X47585Y-53245D02*
X51190Y-53245D01*
X41745Y-53245D02*
X46965Y-53245D01*
X60772Y-53165D02*
X71255Y-53165D01*
X51810Y-53165D02*
X58907Y-53165D01*
X47585Y-53165D02*
X51190Y-53165D01*
X41745Y-53165D02*
X46965Y-53165D01*
X60692Y-53085D02*
X71255Y-53085D01*
X51810Y-53085D02*
X58827Y-53085D01*
X47585Y-53085D02*
X51190Y-53085D01*
X41745Y-53085D02*
X46965Y-53085D01*
X60542Y-53005D02*
X71255Y-53005D01*
X59623Y-53005D02*
X59637Y-53005D01*
X51810Y-53005D02*
X58747Y-53005D01*
X47585Y-53005D02*
X51190Y-53005D01*
X41745Y-53005D02*
X46965Y-53005D01*
X60349Y-52925D02*
X71255Y-52925D01*
X59543Y-52925D02*
X59832Y-52925D01*
X51810Y-52925D02*
X58667Y-52925D01*
X47585Y-52925D02*
X51190Y-52925D01*
X41745Y-52925D02*
X46965Y-52925D01*
X59463Y-52845D02*
X71255Y-52845D01*
X51810Y-52845D02*
X56950Y-52845D01*
X47585Y-52845D02*
X51190Y-52845D01*
X41745Y-52845D02*
X46965Y-52845D01*
X59383Y-52765D02*
X71255Y-52765D01*
X51810Y-52765D02*
X56782Y-52765D01*
X47585Y-52765D02*
X51190Y-52765D01*
X41745Y-52765D02*
X46965Y-52765D01*
X59303Y-52685D02*
X71255Y-52685D01*
X51810Y-52685D02*
X56728Y-52685D01*
X47585Y-52685D02*
X51190Y-52685D01*
X41745Y-52685D02*
X46965Y-52685D01*
X59223Y-52605D02*
X71255Y-52605D01*
X56347Y-52605D02*
X56653Y-52605D01*
X55950Y-52605D02*
X56050Y-52605D01*
X51810Y-52605D02*
X55653Y-52605D01*
X47585Y-52605D02*
X51190Y-52605D01*
X41745Y-52605D02*
X46965Y-52605D01*
X59143Y-52525D02*
X71255Y-52525D01*
X56402Y-52525D02*
X56597Y-52525D01*
X55950Y-52525D02*
X56050Y-52525D01*
X51810Y-52525D02*
X55597Y-52525D01*
X47585Y-52525D02*
X51190Y-52525D01*
X41745Y-52525D02*
X46965Y-52525D01*
X59063Y-52445D02*
X71255Y-52445D01*
X56424Y-52445D02*
X56576Y-52445D01*
X55950Y-52445D02*
X56050Y-52445D01*
X51810Y-52445D02*
X55575Y-52445D01*
X47632Y-52445D02*
X51190Y-52445D01*
X46882Y-52445D02*
X46918Y-52445D01*
X41745Y-52445D02*
X46168Y-52445D01*
X58983Y-52365D02*
X71255Y-52365D01*
X56424Y-52365D02*
X56576Y-52365D01*
X55950Y-52365D02*
X56050Y-52365D01*
X51810Y-52365D02*
X55575Y-52365D01*
X47682Y-52365D02*
X51190Y-52365D01*
X41745Y-52365D02*
X46117Y-52365D01*
X58883Y-52285D02*
X71255Y-52285D01*
X56424Y-52285D02*
X56576Y-52285D01*
X55950Y-52285D02*
X56050Y-52285D01*
X51810Y-52285D02*
X55575Y-52285D01*
X47699Y-52285D02*
X51190Y-52285D01*
X41745Y-52285D02*
X46101Y-52285D01*
X57424Y-52205D02*
X71255Y-52205D01*
X56424Y-52205D02*
X56576Y-52205D01*
X55950Y-52205D02*
X56050Y-52205D01*
X51810Y-52205D02*
X55575Y-52205D01*
X47699Y-52205D02*
X51190Y-52205D01*
X41745Y-52205D02*
X46101Y-52205D01*
X57424Y-52125D02*
X71255Y-52125D01*
X56424Y-52125D02*
X56576Y-52125D01*
X55950Y-52125D02*
X56050Y-52125D01*
X51810Y-52125D02*
X55575Y-52125D01*
X47699Y-52125D02*
X51190Y-52125D01*
X41745Y-52125D02*
X46101Y-52125D01*
X63240Y-52045D02*
X71255Y-52045D01*
X57424Y-52045D02*
X62578Y-52045D01*
X51810Y-52045D02*
X56576Y-52045D01*
X47699Y-52045D02*
X51190Y-52045D01*
X41745Y-52045D02*
X46101Y-52045D01*
X63434Y-51965D02*
X71255Y-51965D01*
X57424Y-51965D02*
X62386Y-51965D01*
X51810Y-51965D02*
X56576Y-51965D01*
X47699Y-51965D02*
X51190Y-51965D01*
X41745Y-51965D02*
X46101Y-51965D01*
X63542Y-51885D02*
X71255Y-51885D01*
X57424Y-51885D02*
X62278Y-51885D01*
X56425Y-51885D02*
X56576Y-51885D01*
X55950Y-51885D02*
X56050Y-51885D01*
X51810Y-51885D02*
X55576Y-51885D01*
X47699Y-51885D02*
X51190Y-51885D01*
X41745Y-51885D02*
X46101Y-51885D01*
X63622Y-51805D02*
X71255Y-51805D01*
X57424Y-51805D02*
X62198Y-51805D01*
X56425Y-51805D02*
X56576Y-51805D01*
X55950Y-51805D02*
X56050Y-51805D01*
X51810Y-51805D02*
X55576Y-51805D01*
X47699Y-51805D02*
X51190Y-51805D01*
X41745Y-51805D02*
X46101Y-51805D01*
X63702Y-51725D02*
X71255Y-51725D01*
X57424Y-51725D02*
X62118Y-51725D01*
X56425Y-51725D02*
X56576Y-51725D01*
X55950Y-51725D02*
X56050Y-51725D01*
X51810Y-51725D02*
X55576Y-51725D01*
X47699Y-51725D02*
X51190Y-51725D01*
X41745Y-51725D02*
X46101Y-51725D01*
X63772Y-51645D02*
X71255Y-51645D01*
X57424Y-51645D02*
X62047Y-51645D01*
X56425Y-51645D02*
X56576Y-51645D01*
X55950Y-51645D02*
X56050Y-51645D01*
X51810Y-51645D02*
X55576Y-51645D01*
X47687Y-51645D02*
X51190Y-51645D01*
X41745Y-51645D02*
X46114Y-51645D01*
X63805Y-51565D02*
X71255Y-51565D01*
X57424Y-51565D02*
X62014Y-51565D01*
X56425Y-51565D02*
X56576Y-51565D01*
X55950Y-51565D02*
X56050Y-51565D01*
X51810Y-51565D02*
X55576Y-51565D01*
X47642Y-51565D02*
X51190Y-51565D01*
X46892Y-51565D02*
X46907Y-51565D01*
X41745Y-51565D02*
X46158Y-51565D01*
X63838Y-51485D02*
X71255Y-51485D01*
X57408Y-51485D02*
X61981Y-51485D01*
X56408Y-51485D02*
X56593Y-51485D01*
X55950Y-51485D02*
X56050Y-51485D01*
X51810Y-51485D02*
X55593Y-51485D01*
X47522Y-51485D02*
X51190Y-51485D01*
X46835Y-51485D02*
X47030Y-51485D01*
X41745Y-51485D02*
X46215Y-51485D01*
X63871Y-51405D02*
X71255Y-51405D01*
X57357Y-51405D02*
X61948Y-51405D01*
X56357Y-51405D02*
X56580Y-51405D01*
X55950Y-51405D02*
X56050Y-51405D01*
X51810Y-51405D02*
X55643Y-51405D01*
X46835Y-51405D02*
X51190Y-51405D01*
X41745Y-51405D02*
X46215Y-51405D01*
X63904Y-51325D02*
X71255Y-51325D01*
X57279Y-51325D02*
X61915Y-51325D01*
X56112Y-51325D02*
X56565Y-51325D01*
X55888Y-51325D02*
X56112Y-51325D01*
X51810Y-51325D02*
X55888Y-51325D01*
X46835Y-51325D02*
X51190Y-51325D01*
X41745Y-51325D02*
X46215Y-51325D01*
X63919Y-51245D02*
X71255Y-51245D01*
X57226Y-51245D02*
X61901Y-51245D01*
X51810Y-51245D02*
X56565Y-51245D01*
X46835Y-51245D02*
X51190Y-51245D01*
X41745Y-51245D02*
X46215Y-51245D01*
X63919Y-51165D02*
X71255Y-51165D01*
X57185Y-51165D02*
X61901Y-51165D01*
X51810Y-51165D02*
X56565Y-51165D01*
X46835Y-51165D02*
X51190Y-51165D01*
X41745Y-51165D02*
X46215Y-51165D01*
X63919Y-51085D02*
X71255Y-51085D01*
X57185Y-51085D02*
X61901Y-51085D01*
X51810Y-51085D02*
X56565Y-51085D01*
X46835Y-51085D02*
X51190Y-51085D01*
X41745Y-51085D02*
X46215Y-51085D01*
X63919Y-51005D02*
X71255Y-51005D01*
X57185Y-51005D02*
X61901Y-51005D01*
X51810Y-51005D02*
X56565Y-51005D01*
X46835Y-51005D02*
X51190Y-51005D01*
X41745Y-51005D02*
X46215Y-51005D01*
X63919Y-50925D02*
X71255Y-50925D01*
X57185Y-50925D02*
X61901Y-50925D01*
X51810Y-50925D02*
X56565Y-50925D01*
X46835Y-50925D02*
X51190Y-50925D01*
X41745Y-50925D02*
X46215Y-50925D01*
X63901Y-50845D02*
X71255Y-50845D01*
X57185Y-50845D02*
X61920Y-50845D01*
X51810Y-50845D02*
X56565Y-50845D01*
X46835Y-50845D02*
X51190Y-50845D01*
X41745Y-50845D02*
X46215Y-50845D01*
X63868Y-50765D02*
X71255Y-50765D01*
X57185Y-50765D02*
X61953Y-50765D01*
X51810Y-50765D02*
X56565Y-50765D01*
X46835Y-50765D02*
X51190Y-50765D01*
X41745Y-50765D02*
X46215Y-50765D01*
X63835Y-50685D02*
X71255Y-50685D01*
X57185Y-50685D02*
X61986Y-50685D01*
X51810Y-50685D02*
X56565Y-50685D01*
X46835Y-50685D02*
X51190Y-50685D01*
X41745Y-50685D02*
X46215Y-50685D01*
X63802Y-50605D02*
X71255Y-50605D01*
X57185Y-50605D02*
X62019Y-50605D01*
X51810Y-50605D02*
X56565Y-50605D01*
X46835Y-50605D02*
X51190Y-50605D01*
X41745Y-50605D02*
X46215Y-50605D01*
X63769Y-50525D02*
X71255Y-50525D01*
X57185Y-50525D02*
X62053Y-50525D01*
X51810Y-50525D02*
X56565Y-50525D01*
X46835Y-50525D02*
X51190Y-50525D01*
X41745Y-50525D02*
X46215Y-50525D01*
X63692Y-50445D02*
X71255Y-50445D01*
X57185Y-50445D02*
X62128Y-50445D01*
X51810Y-50445D02*
X56565Y-50445D01*
X46835Y-50445D02*
X51190Y-50445D01*
X41745Y-50445D02*
X46215Y-50445D01*
X63612Y-50365D02*
X71255Y-50365D01*
X57185Y-50365D02*
X62208Y-50365D01*
X51810Y-50365D02*
X56565Y-50365D01*
X46835Y-50365D02*
X51190Y-50365D01*
X41745Y-50365D02*
X46215Y-50365D01*
X63532Y-50285D02*
X71255Y-50285D01*
X57185Y-50285D02*
X62288Y-50285D01*
X51810Y-50285D02*
X56565Y-50285D01*
X46835Y-50285D02*
X51190Y-50285D01*
X41745Y-50285D02*
X46215Y-50285D01*
X63410Y-50205D02*
X71255Y-50205D01*
X57185Y-50205D02*
X62409Y-50205D01*
X51810Y-50205D02*
X56565Y-50205D01*
X46835Y-50205D02*
X51190Y-50205D01*
X41745Y-50205D02*
X46215Y-50205D01*
X63218Y-50125D02*
X71255Y-50125D01*
X57185Y-50125D02*
X62585Y-50125D01*
X51810Y-50125D02*
X56565Y-50125D01*
X46835Y-50125D02*
X51190Y-50125D01*
X41745Y-50125D02*
X46215Y-50125D01*
X63205Y-50045D02*
X71255Y-50045D01*
X57185Y-50045D02*
X62585Y-50045D01*
X51810Y-50045D02*
X56565Y-50045D01*
X46835Y-50045D02*
X51190Y-50045D01*
X41745Y-50045D02*
X46215Y-50045D01*
X63205Y-49965D02*
X71255Y-49965D01*
X57185Y-49965D02*
X62585Y-49965D01*
X51810Y-49965D02*
X56565Y-49965D01*
X46835Y-49965D02*
X51190Y-49965D01*
X41745Y-49965D02*
X46215Y-49965D01*
X63205Y-49885D02*
X71255Y-49885D01*
X57185Y-49885D02*
X62585Y-49885D01*
X51810Y-49885D02*
X56565Y-49885D01*
X46835Y-49885D02*
X51190Y-49885D01*
X41745Y-49885D02*
X46215Y-49885D01*
X63205Y-49805D02*
X71255Y-49805D01*
X57185Y-49805D02*
X62585Y-49805D01*
X51810Y-49805D02*
X56565Y-49805D01*
X46835Y-49805D02*
X51190Y-49805D01*
X41745Y-49805D02*
X46215Y-49805D01*
X63205Y-49725D02*
X71255Y-49725D01*
X57185Y-49725D02*
X62585Y-49725D01*
X51810Y-49725D02*
X56565Y-49725D01*
X46835Y-49725D02*
X51190Y-49725D01*
X41745Y-49725D02*
X46215Y-49725D01*
X63205Y-49645D02*
X71255Y-49645D01*
X57185Y-49645D02*
X62585Y-49645D01*
X51810Y-49645D02*
X56565Y-49645D01*
X46835Y-49645D02*
X51190Y-49645D01*
X41745Y-49645D02*
X46215Y-49645D01*
X63205Y-49565D02*
X71255Y-49565D01*
X57185Y-49565D02*
X62585Y-49565D01*
X51810Y-49565D02*
X56565Y-49565D01*
X46835Y-49565D02*
X51190Y-49565D01*
X41745Y-49565D02*
X46215Y-49565D01*
X63205Y-49485D02*
X71255Y-49485D01*
X57185Y-49485D02*
X62585Y-49485D01*
X51810Y-49485D02*
X56565Y-49485D01*
X46835Y-49485D02*
X51190Y-49485D01*
X41745Y-49485D02*
X46215Y-49485D01*
X63205Y-49405D02*
X71255Y-49405D01*
X57185Y-49405D02*
X62585Y-49405D01*
X51810Y-49405D02*
X56565Y-49405D01*
X46835Y-49405D02*
X51190Y-49405D01*
X41745Y-49405D02*
X46215Y-49405D01*
X63205Y-49325D02*
X71255Y-49325D01*
X57185Y-49325D02*
X62585Y-49325D01*
X51810Y-49325D02*
X56565Y-49325D01*
X46835Y-49325D02*
X51190Y-49325D01*
X41745Y-49325D02*
X46215Y-49325D01*
X63205Y-49245D02*
X71255Y-49245D01*
X57185Y-49245D02*
X62585Y-49245D01*
X51810Y-49245D02*
X56565Y-49245D01*
X46835Y-49245D02*
X51190Y-49245D01*
X41745Y-49245D02*
X46215Y-49245D01*
X63205Y-49165D02*
X71255Y-49165D01*
X57185Y-49165D02*
X62585Y-49165D01*
X51888Y-49165D02*
X56565Y-49165D01*
X46835Y-49165D02*
X51190Y-49165D01*
X41745Y-49165D02*
X46215Y-49165D01*
X63205Y-49085D02*
X71255Y-49085D01*
X57185Y-49085D02*
X62585Y-49085D01*
X51968Y-49085D02*
X56565Y-49085D01*
X46835Y-49085D02*
X51197Y-49085D01*
X41745Y-49085D02*
X46215Y-49085D01*
X63205Y-49005D02*
X71255Y-49005D01*
X57185Y-49005D02*
X62585Y-49005D01*
X56395Y-49005D02*
X56565Y-49005D01*
X56033Y-49005D02*
X56217Y-49005D01*
X52048Y-49005D02*
X55855Y-49005D01*
X46835Y-49005D02*
X51213Y-49005D01*
X41745Y-49005D02*
X46203Y-49005D01*
X63205Y-48925D02*
X71255Y-48925D01*
X57252Y-48925D02*
X62585Y-48925D01*
X56075Y-48925D02*
X56175Y-48925D01*
X52128Y-48925D02*
X55748Y-48925D01*
X51150Y-48925D02*
X51250Y-48925D01*
X48335Y-48925D02*
X50748Y-48925D01*
X47878Y-48925D02*
X47978Y-48925D01*
X46879Y-48925D02*
X47521Y-48925D01*
X41745Y-48925D02*
X46065Y-48925D01*
X63205Y-48845D02*
X71255Y-48845D01*
X57290Y-48845D02*
X62585Y-48845D01*
X56075Y-48845D02*
X56175Y-48845D01*
X52208Y-48845D02*
X55709Y-48845D01*
X51150Y-48845D02*
X51250Y-48845D01*
X48394Y-48845D02*
X50695Y-48845D01*
X47878Y-48845D02*
X47978Y-48845D01*
X46938Y-48845D02*
X47461Y-48845D01*
X41745Y-48845D02*
X46006Y-48845D01*
X63205Y-48765D02*
X71255Y-48765D01*
X57299Y-48765D02*
X62585Y-48765D01*
X56075Y-48765D02*
X56175Y-48765D01*
X52288Y-48765D02*
X55700Y-48765D01*
X51150Y-48765D02*
X51250Y-48765D01*
X48417Y-48765D02*
X50675Y-48765D01*
X47878Y-48765D02*
X47978Y-48765D01*
X46961Y-48765D02*
X47438Y-48765D01*
X41745Y-48765D02*
X45983Y-48765D01*
X63205Y-48685D02*
X71255Y-48685D01*
X57299Y-48685D02*
X62585Y-48685D01*
X56075Y-48685D02*
X56175Y-48685D01*
X52368Y-48685D02*
X55700Y-48685D01*
X51150Y-48685D02*
X51250Y-48685D01*
X48391Y-48685D02*
X50677Y-48685D01*
X47878Y-48685D02*
X47978Y-48685D01*
X46961Y-48685D02*
X47465Y-48685D01*
X41745Y-48685D02*
X45983Y-48685D01*
X63205Y-48605D02*
X71255Y-48605D01*
X57299Y-48605D02*
X62585Y-48605D01*
X56075Y-48605D02*
X56175Y-48605D01*
X52448Y-48605D02*
X55707Y-48605D01*
X46961Y-48605D02*
X51250Y-48605D01*
X41745Y-48605D02*
X45983Y-48605D01*
X63205Y-48525D02*
X71255Y-48525D01*
X57299Y-48525D02*
X62585Y-48525D01*
X52528Y-48525D02*
X56175Y-48525D01*
X48381Y-48525D02*
X51250Y-48525D01*
X47878Y-48525D02*
X47978Y-48525D01*
X46961Y-48525D02*
X47475Y-48525D01*
X41745Y-48525D02*
X45983Y-48525D01*
X63205Y-48445D02*
X71255Y-48445D01*
X57299Y-48445D02*
X62585Y-48445D01*
X56075Y-48445D02*
X56175Y-48445D01*
X52608Y-48445D02*
X55757Y-48445D01*
X48418Y-48445D02*
X50676Y-48445D01*
X47878Y-48445D02*
X47978Y-48445D01*
X46961Y-48445D02*
X47439Y-48445D01*
X41745Y-48445D02*
X45983Y-48445D01*
X63205Y-48365D02*
X71255Y-48365D01*
X57299Y-48365D02*
X62585Y-48365D01*
X56075Y-48365D02*
X56175Y-48365D01*
X52688Y-48365D02*
X55701Y-48365D01*
X48399Y-48365D02*
X50676Y-48365D01*
X47878Y-48365D02*
X47978Y-48365D01*
X46942Y-48365D02*
X47458Y-48365D01*
X41745Y-48365D02*
X46002Y-48365D01*
X63205Y-48285D02*
X71255Y-48285D01*
X57299Y-48285D02*
X62585Y-48285D01*
X56075Y-48285D02*
X56175Y-48285D01*
X52768Y-48285D02*
X55701Y-48285D01*
X48345Y-48285D02*
X50704Y-48285D01*
X47878Y-48285D02*
X47978Y-48285D01*
X46889Y-48285D02*
X47511Y-48285D01*
X41745Y-48285D02*
X46055Y-48285D01*
X63205Y-48205D02*
X71255Y-48205D01*
X57299Y-48205D02*
X62585Y-48205D01*
X56075Y-48205D02*
X56175Y-48205D01*
X52848Y-48205D02*
X55701Y-48205D01*
X46782Y-48205D02*
X50768Y-48205D01*
X41745Y-48205D02*
X46162Y-48205D01*
X63205Y-48125D02*
X71255Y-48125D01*
X57278Y-48125D02*
X62585Y-48125D01*
X56075Y-48125D02*
X56175Y-48125D01*
X52928Y-48125D02*
X55722Y-48125D01*
X46782Y-48125D02*
X50707Y-48125D01*
X41745Y-48125D02*
X46162Y-48125D01*
X63205Y-48045D02*
X71255Y-48045D01*
X57222Y-48045D02*
X62585Y-48045D01*
X56472Y-48045D02*
X56527Y-48045D01*
X56075Y-48045D02*
X56175Y-48045D01*
X53008Y-48045D02*
X55778Y-48045D01*
X46782Y-48045D02*
X50676Y-48045D01*
X41745Y-48045D02*
X46162Y-48045D01*
X63205Y-47965D02*
X71255Y-47965D01*
X57185Y-47965D02*
X62585Y-47965D01*
X53088Y-47965D02*
X56565Y-47965D01*
X46782Y-47965D02*
X50676Y-47965D01*
X41745Y-47965D02*
X46162Y-47965D01*
X63205Y-47885D02*
X71255Y-47885D01*
X57185Y-47885D02*
X62585Y-47885D01*
X53168Y-47885D02*
X56565Y-47885D01*
X46782Y-47885D02*
X50676Y-47885D01*
X41745Y-47885D02*
X46162Y-47885D01*
X63205Y-47805D02*
X71255Y-47805D01*
X57185Y-47805D02*
X62585Y-47805D01*
X53248Y-47805D02*
X56565Y-47805D01*
X46782Y-47805D02*
X50676Y-47805D01*
X41745Y-47805D02*
X46162Y-47805D01*
X63205Y-47725D02*
X71255Y-47725D01*
X57185Y-47725D02*
X62585Y-47725D01*
X53328Y-47725D02*
X56565Y-47725D01*
X46782Y-47725D02*
X50676Y-47725D01*
X41745Y-47725D02*
X46162Y-47725D01*
X63205Y-47645D02*
X71255Y-47645D01*
X57185Y-47645D02*
X62585Y-47645D01*
X53408Y-47645D02*
X56565Y-47645D01*
X46782Y-47645D02*
X50676Y-47645D01*
X41745Y-47645D02*
X46162Y-47645D01*
X63205Y-47565D02*
X71255Y-47565D01*
X57185Y-47565D02*
X62585Y-47565D01*
X53488Y-47565D02*
X56565Y-47565D01*
X46782Y-47565D02*
X50691Y-47565D01*
X41745Y-47565D02*
X46162Y-47565D01*
X63425Y-47485D02*
X71255Y-47485D01*
X57185Y-47485D02*
X62365Y-47485D01*
X53568Y-47485D02*
X56565Y-47485D01*
X46782Y-47485D02*
X50738Y-47485D01*
X41745Y-47485D02*
X46162Y-47485D01*
X63476Y-47405D02*
X71255Y-47405D01*
X57185Y-47405D02*
X62313Y-47405D01*
X53648Y-47405D02*
X56565Y-47405D01*
X46782Y-47405D02*
X50867Y-47405D01*
X41745Y-47405D02*
X46162Y-47405D01*
X63494Y-47325D02*
X71255Y-47325D01*
X57185Y-47325D02*
X62296Y-47325D01*
X53728Y-47325D02*
X56565Y-47325D01*
X46782Y-47325D02*
X50890Y-47325D01*
X41745Y-47325D02*
X46162Y-47325D01*
X63494Y-47245D02*
X71255Y-47245D01*
X57185Y-47245D02*
X58341Y-47245D01*
X53808Y-47245D02*
X56565Y-47245D01*
X46782Y-47245D02*
X50890Y-47245D01*
X41745Y-47245D02*
X46162Y-47245D01*
X63494Y-47165D02*
X71255Y-47165D01*
X57185Y-47165D02*
X58230Y-47165D01*
X53888Y-47165D02*
X56565Y-47165D01*
X46782Y-47165D02*
X50890Y-47165D01*
X41745Y-47165D02*
X46162Y-47165D01*
X63494Y-47085D02*
X71255Y-47085D01*
X57185Y-47085D02*
X58150Y-47085D01*
X53968Y-47085D02*
X56565Y-47085D01*
X46782Y-47085D02*
X50890Y-47085D01*
X41745Y-47085D02*
X46162Y-47085D01*
X63494Y-47005D02*
X71255Y-47005D01*
X57185Y-47005D02*
X58070Y-47005D01*
X54048Y-47005D02*
X56565Y-47005D01*
X46782Y-47005D02*
X50890Y-47005D01*
X41745Y-47005D02*
X46162Y-47005D01*
X63494Y-46925D02*
X71255Y-46925D01*
X57185Y-46925D02*
X57990Y-46925D01*
X54128Y-46925D02*
X56565Y-46925D01*
X46782Y-46925D02*
X50890Y-46925D01*
X41745Y-46925D02*
X46162Y-46925D01*
X63494Y-46845D02*
X71255Y-46845D01*
X57185Y-46845D02*
X57910Y-46845D01*
X54208Y-46845D02*
X56565Y-46845D01*
X46782Y-46845D02*
X50890Y-46845D01*
X41745Y-46845D02*
X46162Y-46845D01*
X63494Y-46765D02*
X71255Y-46765D01*
X57185Y-46765D02*
X57830Y-46765D01*
X54288Y-46765D02*
X56565Y-46765D01*
X46782Y-46765D02*
X50890Y-46765D01*
X41745Y-46765D02*
X46162Y-46765D01*
X63494Y-46685D02*
X71255Y-46685D01*
X57672Y-46685D02*
X57750Y-46685D01*
X55962Y-46685D02*
X56565Y-46685D01*
X55552Y-46685D02*
X55738Y-46685D01*
X54368Y-46685D02*
X55327Y-46685D01*
X46782Y-46685D02*
X50890Y-46685D01*
X41745Y-46685D02*
X46162Y-46685D01*
X63494Y-46605D02*
X71255Y-46605D01*
X56071Y-46605D02*
X56565Y-46605D01*
X55595Y-46605D02*
X55695Y-46605D01*
X54448Y-46605D02*
X55219Y-46605D01*
X46782Y-46605D02*
X50890Y-46605D01*
X41745Y-46605D02*
X46162Y-46605D01*
X64377Y-46525D02*
X71255Y-46525D01*
X56110Y-46525D02*
X56565Y-46525D01*
X55595Y-46525D02*
X55695Y-46525D01*
X54528Y-46525D02*
X55179Y-46525D01*
X46782Y-46525D02*
X50890Y-46525D01*
X41745Y-46525D02*
X46162Y-46525D01*
X64541Y-46445D02*
X71255Y-46445D01*
X56079Y-46445D02*
X56565Y-46445D01*
X46782Y-46445D02*
X50768Y-46445D01*
X41745Y-46445D02*
X46162Y-46445D01*
X64637Y-46365D02*
X71255Y-46365D01*
X56094Y-46365D02*
X56565Y-46365D01*
X46782Y-46365D02*
X50703Y-46365D01*
X41745Y-46365D02*
X46162Y-46365D01*
X64734Y-46285D02*
X71255Y-46285D01*
X56292Y-46285D02*
X56565Y-46285D01*
X46782Y-46285D02*
X50676Y-46285D01*
X41745Y-46285D02*
X46162Y-46285D01*
X64831Y-46205D02*
X71255Y-46205D01*
X56404Y-46205D02*
X56565Y-46205D01*
X46782Y-46205D02*
X50676Y-46205D01*
X41745Y-46205D02*
X46162Y-46205D01*
X64927Y-46125D02*
X71255Y-46125D01*
X56483Y-46125D02*
X56567Y-46125D01*
X46782Y-46125D02*
X50676Y-46125D01*
X41745Y-46125D02*
X46162Y-46125D01*
X65005Y-46045D02*
X71255Y-46045D01*
X56561Y-46045D02*
X56581Y-46045D01*
X46782Y-46045D02*
X50676Y-46045D01*
X41745Y-46045D02*
X46162Y-46045D01*
X65054Y-45965D02*
X71255Y-45965D01*
X46782Y-45965D02*
X50676Y-45965D01*
X41745Y-45965D02*
X46162Y-45965D01*
X65075Y-45885D02*
X71255Y-45885D01*
X63484Y-45885D02*
X64244Y-45885D01*
X46782Y-45885D02*
X50676Y-45885D01*
X41745Y-45885D02*
X46162Y-45885D01*
X65077Y-45805D02*
X71255Y-45805D01*
X63494Y-45805D02*
X64341Y-45805D01*
X46782Y-45805D02*
X50695Y-45805D01*
X41745Y-45805D02*
X46162Y-45805D01*
X65077Y-45725D02*
X71255Y-45725D01*
X63494Y-45725D02*
X64438Y-45725D01*
X46782Y-45725D02*
X50748Y-45725D01*
X41745Y-45725D02*
X46162Y-45725D01*
X65077Y-45645D02*
X71255Y-45645D01*
X63494Y-45645D02*
X64457Y-45645D01*
X46782Y-45645D02*
X50718Y-45645D01*
X41745Y-45645D02*
X46162Y-45645D01*
X65077Y-45565D02*
X71255Y-45565D01*
X63494Y-45565D02*
X64457Y-45565D01*
X46782Y-45565D02*
X50682Y-45565D01*
X41745Y-45565D02*
X46162Y-45565D01*
X65077Y-45485D02*
X71255Y-45485D01*
X63494Y-45485D02*
X64457Y-45485D01*
X46782Y-45485D02*
X50676Y-45485D01*
X41745Y-45485D02*
X46162Y-45485D01*
X65077Y-45405D02*
X71255Y-45405D01*
X63494Y-45405D02*
X64457Y-45405D01*
X47172Y-45405D02*
X50676Y-45405D01*
X41745Y-45405D02*
X45828Y-45405D01*
X65077Y-45325D02*
X71255Y-45325D01*
X63494Y-45325D02*
X64457Y-45325D01*
X47222Y-45325D02*
X50676Y-45325D01*
X41745Y-45325D02*
X45777Y-45325D01*
X65077Y-45245D02*
X71255Y-45245D01*
X63494Y-45245D02*
X64457Y-45245D01*
X47239Y-45245D02*
X50676Y-45245D01*
X41745Y-45245D02*
X45761Y-45245D01*
X65077Y-45165D02*
X71255Y-45165D01*
X63494Y-45165D02*
X64457Y-45165D01*
X47239Y-45165D02*
X50676Y-45165D01*
X41745Y-45165D02*
X45761Y-45165D01*
X65077Y-45085D02*
X71255Y-45085D01*
X63494Y-45085D02*
X64457Y-45085D01*
X47239Y-45085D02*
X50683Y-45085D01*
X41745Y-45085D02*
X45761Y-45085D01*
X65077Y-45005D02*
X71255Y-45005D01*
X63470Y-45005D02*
X64457Y-45005D01*
X53582Y-45005D02*
X55855Y-45005D01*
X51682Y-45005D02*
X52618Y-45005D01*
X47239Y-45005D02*
X50718Y-45005D01*
X41745Y-45005D02*
X45761Y-45005D01*
X65077Y-44925D02*
X71255Y-44925D01*
X63409Y-44925D02*
X64457Y-44925D01*
X62325Y-44925D02*
X62381Y-44925D01*
X53483Y-44925D02*
X55952Y-44925D01*
X51583Y-44925D02*
X52718Y-44925D01*
X47239Y-44925D02*
X50818Y-44925D01*
X41745Y-44925D02*
X45761Y-44925D01*
X65077Y-44845D02*
X71255Y-44845D01*
X62245Y-44845D02*
X64457Y-44845D01*
X47239Y-44845D02*
X56051Y-44845D01*
X41745Y-44845D02*
X45761Y-44845D01*
X65077Y-44765D02*
X71255Y-44765D01*
X62165Y-44765D02*
X64457Y-44765D01*
X47239Y-44765D02*
X56136Y-44765D01*
X41745Y-44765D02*
X45761Y-44765D01*
X65077Y-44685D02*
X71255Y-44685D01*
X62085Y-44685D02*
X64457Y-44685D01*
X47239Y-44685D02*
X56216Y-44685D01*
X41745Y-44685D02*
X45761Y-44685D01*
X65077Y-44605D02*
X71255Y-44605D01*
X62005Y-44605D02*
X64457Y-44605D01*
X47227Y-44605D02*
X56296Y-44605D01*
X41745Y-44605D02*
X45774Y-44605D01*
X65077Y-44525D02*
X71255Y-44525D01*
X61925Y-44525D02*
X64457Y-44525D01*
X47182Y-44525D02*
X56376Y-44525D01*
X41745Y-44525D02*
X45818Y-44525D01*
X65077Y-44445D02*
X71255Y-44445D01*
X61845Y-44445D02*
X64457Y-44445D01*
X47062Y-44445D02*
X56456Y-44445D01*
X41745Y-44445D02*
X45940Y-44445D01*
X65077Y-44365D02*
X71255Y-44365D01*
X61765Y-44365D02*
X64457Y-44365D01*
X41745Y-44365D02*
X56536Y-44365D01*
X65077Y-44285D02*
X71255Y-44285D01*
X61685Y-44285D02*
X64457Y-44285D01*
X41745Y-44285D02*
X56616Y-44285D01*
X65077Y-44205D02*
X71255Y-44205D01*
X61605Y-44205D02*
X64457Y-44205D01*
X41745Y-44205D02*
X56696Y-44205D01*
X65077Y-44125D02*
X71255Y-44125D01*
X61495Y-44125D02*
X64457Y-44125D01*
X41745Y-44125D02*
X56776Y-44125D01*
X65077Y-44045D02*
X71255Y-44045D01*
X60994Y-44045D02*
X64457Y-44045D01*
X57732Y-44045D02*
X59496Y-44045D01*
X41745Y-44045D02*
X56856Y-44045D01*
X65077Y-43965D02*
X71255Y-43965D01*
X60994Y-43965D02*
X64457Y-43965D01*
X57812Y-43965D02*
X59496Y-43965D01*
X41745Y-43965D02*
X56936Y-43965D01*
X65077Y-43885D02*
X71255Y-43885D01*
X60994Y-43885D02*
X64457Y-43885D01*
X57892Y-43885D02*
X59496Y-43885D01*
X41745Y-43885D02*
X57016Y-43885D01*
X65077Y-43805D02*
X71255Y-43805D01*
X60994Y-43805D02*
X64457Y-43805D01*
X57972Y-43805D02*
X59496Y-43805D01*
X41745Y-43805D02*
X57096Y-43805D01*
X65077Y-43725D02*
X71255Y-43725D01*
X60994Y-43725D02*
X64457Y-43725D01*
X58052Y-43725D02*
X59496Y-43725D01*
X41745Y-43725D02*
X57176Y-43725D01*
X65077Y-43645D02*
X71255Y-43645D01*
X60994Y-43645D02*
X64457Y-43645D01*
X58132Y-43645D02*
X59496Y-43645D01*
X41745Y-43645D02*
X57256Y-43645D01*
X65077Y-43565D02*
X71255Y-43565D01*
X60973Y-43565D02*
X64457Y-43565D01*
X58212Y-43565D02*
X59517Y-43565D01*
X41745Y-43565D02*
X57336Y-43565D01*
X65077Y-43485D02*
X71255Y-43485D01*
X60917Y-43485D02*
X64457Y-43485D01*
X58292Y-43485D02*
X59573Y-43485D01*
X47172Y-43485D02*
X57417Y-43485D01*
X41745Y-43485D02*
X45828Y-43485D01*
X65077Y-43405D02*
X71255Y-43405D01*
X58372Y-43405D02*
X64457Y-43405D01*
X47222Y-43405D02*
X57497Y-43405D01*
X41745Y-43405D02*
X45777Y-43405D01*
X65077Y-43325D02*
X71255Y-43325D01*
X58452Y-43325D02*
X64457Y-43325D01*
X49080Y-43325D02*
X57577Y-43325D01*
X41745Y-43325D02*
X45761Y-43325D01*
X65077Y-43245D02*
X71255Y-43245D01*
X58532Y-43245D02*
X64457Y-43245D01*
X49192Y-43245D02*
X57657Y-43245D01*
X41745Y-43245D02*
X45761Y-43245D01*
X65077Y-43165D02*
X71255Y-43165D01*
X58612Y-43165D02*
X64457Y-43165D01*
X49272Y-43165D02*
X57737Y-43165D01*
X41745Y-43165D02*
X45761Y-43165D01*
X65077Y-43085D02*
X71255Y-43085D01*
X58692Y-43085D02*
X64457Y-43085D01*
X49352Y-43085D02*
X57817Y-43085D01*
X41745Y-43085D02*
X45761Y-43085D01*
X65077Y-43005D02*
X71255Y-43005D01*
X58772Y-43005D02*
X64457Y-43005D01*
X49432Y-43005D02*
X57897Y-43005D01*
X41745Y-43005D02*
X45761Y-43005D01*
X65077Y-42925D02*
X71255Y-42925D01*
X58852Y-42925D02*
X64457Y-42925D01*
X49512Y-42925D02*
X57977Y-42925D01*
X41745Y-42925D02*
X45761Y-42925D01*
X65077Y-42845D02*
X71255Y-42845D01*
X58932Y-42845D02*
X64457Y-42845D01*
X49592Y-42845D02*
X58057Y-42845D01*
X41745Y-42845D02*
X45761Y-42845D01*
X65077Y-42765D02*
X71255Y-42765D01*
X59012Y-42765D02*
X64457Y-42765D01*
X49672Y-42765D02*
X58137Y-42765D01*
X41745Y-42765D02*
X45761Y-42765D01*
X65077Y-42685D02*
X71255Y-42685D01*
X59092Y-42685D02*
X64457Y-42685D01*
X49752Y-42685D02*
X58217Y-42685D01*
X47227Y-42685D02*
X48877Y-42685D01*
X41745Y-42685D02*
X45774Y-42685D01*
X65077Y-42605D02*
X71255Y-42605D01*
X59172Y-42605D02*
X64457Y-42605D01*
X49832Y-42605D02*
X58297Y-42605D01*
X47182Y-42605D02*
X48957Y-42605D01*
X41745Y-42605D02*
X45818Y-42605D01*
X65077Y-42525D02*
X71255Y-42525D01*
X59252Y-42525D02*
X64457Y-42525D01*
X49912Y-42525D02*
X58377Y-42525D01*
X47062Y-42525D02*
X49037Y-42525D01*
X41745Y-42525D02*
X45940Y-42525D01*
X65077Y-42445D02*
X71255Y-42445D01*
X59332Y-42445D02*
X64457Y-42445D01*
X49992Y-42445D02*
X58457Y-42445D01*
X41745Y-42445D02*
X49117Y-42445D01*
X65077Y-42365D02*
X71255Y-42365D01*
X59412Y-42365D02*
X64457Y-42365D01*
X50072Y-42365D02*
X58537Y-42365D01*
X41745Y-42365D02*
X49197Y-42365D01*
X65077Y-42285D02*
X71255Y-42285D01*
X59492Y-42285D02*
X64457Y-42285D01*
X50152Y-42285D02*
X58617Y-42285D01*
X41745Y-42285D02*
X49277Y-42285D01*
X65077Y-42205D02*
X71255Y-42205D01*
X59572Y-42205D02*
X64457Y-42205D01*
X50232Y-42205D02*
X58697Y-42205D01*
X41745Y-42205D02*
X49357Y-42205D01*
X65077Y-42125D02*
X71255Y-42125D01*
X59652Y-42125D02*
X64457Y-42125D01*
X50312Y-42125D02*
X58777Y-42125D01*
X41745Y-42125D02*
X49437Y-42125D01*
X65077Y-42045D02*
X71255Y-42045D01*
X59732Y-42045D02*
X64457Y-42045D01*
X50392Y-42045D02*
X58857Y-42045D01*
X41745Y-42045D02*
X49517Y-42045D01*
X65077Y-41965D02*
X71255Y-41965D01*
X59812Y-41965D02*
X64457Y-41965D01*
X50472Y-41965D02*
X58937Y-41965D01*
X41745Y-41965D02*
X49597Y-41965D01*
X65077Y-41885D02*
X71255Y-41885D01*
X59892Y-41885D02*
X64457Y-41885D01*
X50552Y-41885D02*
X59017Y-41885D01*
X41745Y-41885D02*
X49676Y-41885D01*
X65077Y-41805D02*
X71255Y-41805D01*
X59972Y-41805D02*
X64457Y-41805D01*
X50632Y-41805D02*
X59097Y-41805D01*
X41745Y-41805D02*
X49756Y-41805D01*
X65077Y-41725D02*
X71255Y-41725D01*
X60052Y-41725D02*
X64457Y-41725D01*
X50712Y-41725D02*
X59177Y-41725D01*
X41745Y-41725D02*
X49836Y-41725D01*
X65077Y-41645D02*
X71255Y-41645D01*
X60132Y-41645D02*
X64457Y-41645D01*
X50792Y-41645D02*
X59257Y-41645D01*
X41745Y-41645D02*
X49916Y-41645D01*
X65077Y-41565D02*
X71255Y-41565D01*
X60212Y-41565D02*
X64443Y-41565D01*
X50872Y-41565D02*
X59337Y-41565D01*
X41745Y-41565D02*
X49996Y-41565D01*
X65077Y-41485D02*
X71255Y-41485D01*
X62262Y-41485D02*
X64353Y-41485D01*
X61262Y-41485D02*
X61737Y-41485D01*
X60292Y-41485D02*
X60737Y-41485D01*
X57249Y-41485D02*
X59417Y-41485D01*
X56249Y-41485D02*
X56755Y-41485D01*
X52262Y-41485D02*
X55755Y-41485D01*
X51262Y-41485D02*
X51737Y-41485D01*
X41745Y-41485D02*
X50076Y-41485D01*
X65072Y-41405D02*
X71255Y-41405D01*
X62371Y-41405D02*
X64263Y-41405D01*
X61371Y-41405D02*
X61629Y-41405D01*
X60372Y-41405D02*
X60629Y-41405D01*
X57300Y-41405D02*
X59497Y-41405D01*
X56300Y-41405D02*
X56699Y-41405D01*
X52371Y-41405D02*
X55699Y-41405D01*
X51371Y-41405D02*
X51629Y-41405D01*
X41745Y-41405D02*
X50156Y-41405D01*
X65054Y-41325D02*
X71255Y-41325D01*
X62451Y-41325D02*
X64174Y-41325D01*
X61451Y-41325D02*
X61549Y-41325D01*
X60452Y-41325D02*
X60549Y-41325D01*
X57255Y-41325D02*
X59577Y-41325D01*
X56255Y-41325D02*
X56746Y-41325D01*
X52451Y-41325D02*
X55746Y-41325D01*
X51451Y-41325D02*
X51549Y-41325D01*
X41745Y-41325D02*
X50236Y-41325D01*
X65004Y-41245D02*
X71255Y-41245D01*
X62492Y-41245D02*
X64084Y-41245D01*
X61492Y-41245D02*
X61507Y-41245D01*
X57484Y-41245D02*
X59657Y-41245D01*
X57175Y-41245D02*
X57315Y-41245D01*
X56684Y-41245D02*
X56826Y-41245D01*
X56484Y-41245D02*
X56512Y-41245D01*
X56175Y-41245D02*
X56315Y-41245D01*
X55684Y-41245D02*
X55826Y-41245D01*
X52492Y-41245D02*
X55513Y-41245D01*
X41745Y-41245D02*
X50316Y-41245D01*
X64926Y-41165D02*
X71255Y-41165D01*
X62525Y-41165D02*
X63994Y-41165D01*
X57512Y-41165D02*
X59737Y-41165D01*
X57095Y-41165D02*
X57235Y-41165D01*
X56764Y-41165D02*
X56906Y-41165D01*
X56095Y-41165D02*
X56235Y-41165D01*
X55764Y-41165D02*
X55906Y-41165D01*
X52525Y-41165D02*
X55480Y-41165D01*
X41745Y-41165D02*
X50396Y-41165D01*
X64837Y-41085D02*
X71255Y-41085D01*
X62549Y-41085D02*
X63904Y-41085D01*
X57540Y-41085D02*
X59817Y-41085D01*
X57015Y-41085D02*
X57155Y-41085D01*
X56844Y-41085D02*
X56986Y-41085D01*
X56015Y-41085D02*
X56155Y-41085D01*
X55844Y-41085D02*
X55986Y-41085D01*
X52549Y-41085D02*
X55465Y-41085D01*
X41745Y-41085D02*
X50451Y-41085D01*
X64747Y-41005D02*
X71255Y-41005D01*
X62549Y-41005D02*
X63814Y-41005D01*
X57540Y-41005D02*
X59897Y-41005D01*
X56924Y-41005D02*
X57075Y-41005D01*
X55924Y-41005D02*
X56075Y-41005D01*
X52549Y-41005D02*
X55461Y-41005D01*
X41745Y-41005D02*
X50451Y-41005D01*
X64657Y-40925D02*
X71255Y-40925D01*
X62549Y-40925D02*
X63725Y-40925D01*
X57536Y-40925D02*
X59977Y-40925D01*
X57004Y-40925D02*
X57146Y-40925D01*
X56855Y-40925D02*
X56995Y-40925D01*
X56004Y-40925D02*
X56146Y-40925D01*
X55855Y-40925D02*
X55995Y-40925D01*
X52549Y-40925D02*
X55457Y-40925D01*
X41745Y-40925D02*
X50451Y-40925D01*
X64567Y-40845D02*
X71255Y-40845D01*
X62530Y-40845D02*
X63635Y-40845D01*
X57524Y-40845D02*
X60057Y-40845D01*
X57084Y-40845D02*
X57226Y-40845D01*
X56775Y-40845D02*
X56915Y-40845D01*
X56084Y-40845D02*
X56226Y-40845D01*
X55775Y-40845D02*
X55915Y-40845D01*
X52530Y-40845D02*
X55484Y-40845D01*
X41745Y-40845D02*
X50471Y-40845D01*
X64477Y-40765D02*
X71255Y-40765D01*
X62497Y-40765D02*
X63545Y-40765D01*
X61496Y-40765D02*
X61503Y-40765D01*
X57491Y-40765D02*
X60145Y-40765D01*
X57164Y-40765D02*
X57306Y-40765D01*
X56695Y-40765D02*
X56835Y-40765D01*
X56491Y-40765D02*
X56512Y-40765D01*
X56164Y-40765D02*
X56306Y-40765D01*
X55695Y-40765D02*
X55835Y-40765D01*
X52529Y-40765D02*
X55512Y-40765D01*
X41745Y-40765D02*
X50504Y-40765D01*
X64388Y-40685D02*
X71255Y-40685D01*
X62461Y-40685D02*
X63455Y-40685D01*
X61461Y-40685D02*
X61539Y-40685D01*
X57244Y-40685D02*
X60539Y-40685D01*
X56244Y-40685D02*
X56755Y-40685D01*
X52582Y-40685D02*
X55755Y-40685D01*
X51461Y-40685D02*
X51539Y-40685D01*
X41745Y-40685D02*
X50539Y-40685D01*
X64298Y-40605D02*
X71255Y-40605D01*
X62381Y-40605D02*
X63365Y-40605D01*
X61381Y-40605D02*
X61619Y-40605D01*
X57304Y-40605D02*
X60619Y-40605D01*
X56304Y-40605D02*
X56697Y-40605D01*
X52635Y-40605D02*
X55697Y-40605D01*
X51381Y-40605D02*
X51619Y-40605D01*
X41745Y-40605D02*
X50619Y-40605D01*
X64208Y-40525D02*
X71255Y-40525D01*
X62287Y-40525D02*
X63276Y-40525D01*
X61287Y-40525D02*
X61714Y-40525D01*
X57273Y-40525D02*
X60714Y-40525D01*
X56273Y-40525D02*
X56727Y-40525D01*
X52689Y-40525D02*
X55727Y-40525D01*
X51287Y-40525D02*
X51714Y-40525D01*
X41745Y-40525D02*
X50714Y-40525D01*
X64118Y-40445D02*
X71255Y-40445D01*
X52742Y-40445D02*
X63186Y-40445D01*
X41745Y-40445D02*
X51998Y-40445D01*
X64028Y-40365D02*
X71255Y-40365D01*
X52795Y-40365D02*
X63096Y-40365D01*
X41745Y-40365D02*
X52051Y-40365D01*
X63938Y-40285D02*
X71255Y-40285D01*
X52849Y-40285D02*
X63006Y-40285D01*
X41745Y-40285D02*
X52104Y-40285D01*
X63849Y-40205D02*
X71255Y-40205D01*
X52902Y-40205D02*
X62916Y-40205D01*
X41745Y-40205D02*
X52158Y-40205D01*
X63759Y-40125D02*
X71255Y-40125D01*
X52955Y-40125D02*
X62827Y-40125D01*
X41745Y-40125D02*
X52211Y-40125D01*
X63669Y-40045D02*
X71255Y-40045D01*
X41745Y-40045D02*
X52264Y-40045D01*
X63579Y-39965D02*
X71255Y-39965D01*
X41745Y-39965D02*
X52318Y-39965D01*
X63489Y-39885D02*
X71255Y-39885D01*
X41745Y-39885D02*
X52371Y-39885D01*
X63400Y-39805D02*
X71255Y-39805D01*
X41745Y-39805D02*
X52425Y-39805D01*
X63310Y-39725D02*
X71255Y-39725D01*
X41745Y-39725D02*
X52478Y-39725D01*
X63220Y-39645D02*
X71255Y-39645D01*
X41745Y-39645D02*
X52531Y-39645D01*
X63129Y-39565D02*
X71255Y-39565D01*
X41745Y-39565D02*
X52603Y-39565D01*
X41745Y-39485D02*
X71255Y-39485D01*
X41745Y-39405D02*
X71255Y-39405D01*
X41745Y-39325D02*
X71255Y-39325D01*
X41745Y-39245D02*
X71255Y-39245D01*
X41745Y-39165D02*
X71255Y-39165D01*
X41745Y-39085D02*
X71255Y-39085D01*
X41745Y-39005D02*
X71255Y-39005D01*
X41745Y-38925D02*
X71255Y-38925D01*
X41745Y-38845D02*
X71255Y-38845D01*
X41745Y-38765D02*
X71255Y-38765D01*
X41745Y-38685D02*
X71255Y-38685D01*
X41745Y-38605D02*
X71255Y-38605D01*
X41745Y-38525D02*
X71255Y-38525D01*
X41745Y-38445D02*
X71255Y-38445D01*
X41745Y-38365D02*
X71255Y-38365D01*
X41745Y-38285D02*
X71255Y-38285D01*
X41745Y-38205D02*
X71255Y-38205D01*
X41745Y-38125D02*
X71255Y-38125D01*
X41745Y-38045D02*
X71255Y-38045D01*
X41745Y-37965D02*
X71255Y-37965D01*
X41745Y-37885D02*
X71255Y-37885D01*
X41745Y-37805D02*
X71255Y-37805D01*
X41745Y-37725D02*
X71255Y-37725D01*
X41745Y-37645D02*
X71255Y-37645D01*
X41745Y-37565D02*
X71255Y-37565D01*
X41745Y-37485D02*
X71255Y-37485D01*
X41745Y-37405D02*
X71255Y-37405D01*
X41745Y-37325D02*
X71255Y-37325D01*
X41745Y-37245D02*
X71255Y-37245D01*
X41745Y-37165D02*
X71255Y-37165D01*
X41745Y-37085D02*
X71255Y-37085D01*
X41745Y-37005D02*
X71255Y-37005D01*
X41745Y-36925D02*
X71255Y-36925D01*
X41745Y-36845D02*
X71255Y-36845D01*
X41745Y-36765D02*
X71255Y-36765D01*
X41745Y-36685D02*
X71255Y-36685D01*
X41745Y-36605D02*
X71255Y-36605D01*
X41745Y-36525D02*
X71255Y-36525D01*
X41745Y-36445D02*
X71255Y-36445D01*
X41745Y-36365D02*
X71255Y-36365D01*
X41745Y-36285D02*
X71255Y-36285D01*
X41745Y-36205D02*
X71255Y-36205D01*
X41745Y-36125D02*
X71255Y-36125D01*
X41745Y-36045D02*
X71255Y-36045D01*
X41745Y-35965D02*
X71255Y-35965D01*
X41745Y-35885D02*
X71255Y-35885D01*
X41745Y-35805D02*
X71255Y-35805D01*
X41745Y-35725D02*
X71255Y-35725D01*
X41745Y-35645D02*
X71255Y-35645D01*
X41745Y-35565D02*
X71255Y-35565D01*
X41745Y-35485D02*
X71255Y-35485D01*
X41745Y-35405D02*
X71255Y-35405D01*
X41745Y-35325D02*
X71255Y-35325D01*
X41745Y-35245D02*
X71255Y-35245D01*
X41745Y-35165D02*
X71255Y-35165D01*
X41745Y-35085D02*
X71255Y-35085D01*
X41745Y-35005D02*
X71255Y-35005D01*
X41745Y-34925D02*
X71255Y-34925D01*
X41745Y-34845D02*
X71255Y-34845D01*
X41745Y-34765D02*
X71255Y-34765D01*
X41745Y-34685D02*
X71255Y-34685D01*
X41745Y-34605D02*
X71255Y-34605D01*
X41745Y-34525D02*
X71255Y-34525D01*
X69331Y-34445D02*
X71255Y-34445D01*
X44331Y-34445D02*
X68668Y-34445D01*
X41745Y-34445D02*
X43668Y-34445D01*
X69524Y-34365D02*
X71255Y-34365D01*
X44524Y-34365D02*
X68476Y-34365D01*
X41745Y-34365D02*
X43476Y-34365D01*
X69629Y-34285D02*
X71255Y-34285D01*
X44629Y-34285D02*
X68371Y-34285D01*
X41745Y-34285D02*
X43371Y-34285D01*
X69709Y-34205D02*
X71255Y-34205D01*
X44709Y-34205D02*
X68291Y-34205D01*
X41745Y-34205D02*
X43291Y-34205D01*
X69789Y-34125D02*
X71255Y-34125D01*
X44789Y-34125D02*
X68211Y-34125D01*
X41745Y-34125D02*
X43211Y-34125D01*
X69856Y-34045D02*
X71255Y-34045D01*
X44856Y-34045D02*
X68143Y-34045D01*
X41745Y-34045D02*
X43143Y-34045D01*
X69889Y-33965D02*
X71255Y-33965D01*
X44889Y-33965D02*
X68110Y-33965D01*
X41745Y-33965D02*
X43110Y-33965D01*
X69922Y-33885D02*
X71255Y-33885D01*
X44922Y-33885D02*
X68077Y-33885D01*
X41745Y-33885D02*
X43077Y-33885D01*
X69956Y-33805D02*
X71255Y-33805D01*
X44956Y-33805D02*
X68044Y-33805D01*
X41745Y-33805D02*
X43044Y-33805D01*
X69989Y-33725D02*
X71255Y-33725D01*
X44989Y-33725D02*
X68011Y-33725D01*
X41745Y-33725D02*
X43011Y-33725D01*
X70000Y-33645D02*
X71255Y-33645D01*
X45000Y-33645D02*
X68000Y-33645D01*
X41745Y-33645D02*
X43000Y-33645D01*
X70000Y-33565D02*
X71255Y-33565D01*
X45000Y-33565D02*
X68000Y-33565D01*
X41745Y-33565D02*
X43000Y-33565D01*
X70000Y-33485D02*
X71255Y-33485D01*
X45000Y-33485D02*
X68000Y-33485D01*
X41745Y-33485D02*
X43000Y-33485D01*
X70000Y-33405D02*
X71255Y-33405D01*
X45000Y-33405D02*
X68000Y-33405D01*
X41745Y-33405D02*
X43000Y-33405D01*
X70000Y-33325D02*
X71255Y-33325D01*
X45000Y-33325D02*
X68000Y-33325D01*
X41745Y-33325D02*
X43000Y-33325D01*
X69977Y-33245D02*
X71255Y-33245D01*
X44977Y-33245D02*
X68023Y-33245D01*
X41745Y-33245D02*
X43023Y-33245D01*
X69944Y-33165D02*
X71255Y-33165D01*
X44944Y-33165D02*
X68057Y-33165D01*
X41745Y-33165D02*
X43057Y-33165D01*
X69911Y-33085D02*
X71255Y-33085D01*
X44911Y-33085D02*
X68090Y-33085D01*
X41745Y-33085D02*
X43090Y-33085D01*
X69878Y-33005D02*
X71255Y-33005D01*
X44878Y-33005D02*
X68123Y-33005D01*
X41745Y-33005D02*
X43123Y-33005D01*
X69839Y-32925D02*
X71255Y-32925D01*
X44839Y-32925D02*
X68161Y-32925D01*
X41745Y-32925D02*
X43161Y-32925D01*
X69759Y-32845D02*
X71255Y-32845D01*
X44759Y-32845D02*
X68241Y-32845D01*
X41745Y-32845D02*
X43241Y-32845D01*
X69679Y-32765D02*
X71255Y-32765D01*
X44679Y-32765D02*
X68321Y-32765D01*
X41745Y-32765D02*
X43321Y-32765D01*
X69599Y-32685D02*
X71255Y-32685D01*
X44599Y-32685D02*
X68401Y-32685D01*
X41745Y-32685D02*
X43401Y-32685D01*
X69452Y-32605D02*
X71255Y-32605D01*
X44452Y-32605D02*
X68548Y-32605D01*
X41745Y-32605D02*
X43548Y-32605D01*
X69260Y-32525D02*
X71255Y-32525D01*
X44260Y-32525D02*
X68742Y-32525D01*
X41745Y-32525D02*
X43742Y-32525D01*
X41745Y-32445D02*
X71255Y-32445D01*
X41745Y-32365D02*
X71255Y-32365D01*
X41745Y-32285D02*
X71255Y-32285D01*
X41745Y-32205D02*
X71255Y-32205D01*
X41745Y-32125D02*
X71255Y-32125D01*
X41745Y-32045D02*
X71255Y-32045D01*
X41745Y-31965D02*
X71255Y-31965D01*
X41745Y-31885D02*
X71255Y-31885D01*
X41745Y-31805D02*
X71255Y-31805D01*
X41745Y-31725D02*
X71255Y-31725D01*
X41745Y-31645D02*
X71255Y-31645D01*
X41745Y-31565D02*
X71255Y-31565D01*
X41745Y-31485D02*
X71255Y-31485D01*
X41745Y-31405D02*
X71255Y-31405D01*
X41745Y-31325D02*
X71255Y-31325D01*
X41745Y-31245D02*
X71255Y-31245D01*
X71255Y-60755D02*
X71255Y-31245D01*
X71255Y-31245D02*
X41745Y-31245D01*
X41745Y-31245D02*
X41745Y-60755D01*
X41745Y-60755D02*
X43800Y-60755D01*
X43800Y-60755D02*
X43800Y-59500D01*
X43800Y-59500D02*
X43433Y-59347D01*
X43433Y-59347D02*
X43152Y-59066D01*
X43152Y-59066D02*
X43000Y-58698D01*
X43000Y-58698D02*
X43000Y-58300D01*
X43000Y-58300D02*
X43153Y-57933D01*
X43153Y-57933D02*
X43434Y-57652D01*
X43434Y-57652D02*
X43800Y-57500D01*
X43800Y-57500D02*
X43800Y-34500D01*
X43800Y-34500D02*
X43433Y-34347D01*
X43433Y-34347D02*
X43152Y-34066D01*
X43152Y-34066D02*
X43000Y-33698D01*
X43000Y-33698D02*
X43000Y-33300D01*
X43000Y-33300D02*
X43153Y-32933D01*
X43153Y-32933D02*
X43434Y-32652D01*
X43434Y-32652D02*
X43802Y-32500D01*
X43802Y-32500D02*
X44200Y-32500D01*
X44200Y-32500D02*
X44567Y-32653D01*
X44567Y-32653D02*
X44848Y-32934D01*
X44848Y-32934D02*
X45000Y-33302D01*
X45000Y-33302D02*
X45000Y-33700D01*
X45000Y-33700D02*
X44847Y-34067D01*
X44847Y-34067D02*
X44566Y-34348D01*
X44566Y-34348D02*
X44198Y-34500D01*
X44198Y-34500D02*
X43800Y-34500D01*
X43800Y-34500D02*
X43800Y-57500D01*
X43800Y-57500D02*
X44200Y-57500D01*
X44200Y-57500D02*
X44567Y-57653D01*
X44567Y-57653D02*
X44848Y-57934D01*
X44848Y-57934D02*
X45000Y-58302D01*
X45000Y-58302D02*
X45000Y-58700D01*
X45000Y-58700D02*
X44847Y-59067D01*
X44847Y-59067D02*
X44566Y-59348D01*
X44566Y-59348D02*
X44198Y-59500D01*
X44198Y-59500D02*
X43800Y-59500D01*
X43800Y-59500D02*
X43800Y-60755D01*
X43800Y-60755D02*
X49891Y-60755D01*
X49891Y-60755D02*
X49891Y-60329D01*
X49891Y-60329D02*
X49652Y-60230D01*
X49652Y-60230D02*
X49470Y-60048D01*
X49470Y-60048D02*
X49371Y-59809D01*
X49371Y-59809D02*
X49371Y-59551D01*
X49371Y-59551D02*
X49470Y-59312D01*
X49470Y-59312D02*
X49475Y-59306D01*
X49475Y-59306D02*
X49128Y-59450D01*
X49128Y-59450D02*
X48750Y-59450D01*
X48750Y-59450D02*
X48401Y-59305D01*
X48401Y-59305D02*
X48134Y-59037D01*
X48134Y-59037D02*
X47990Y-58688D01*
X47990Y-58688D02*
X47990Y-58310D01*
X47990Y-58310D02*
X48135Y-57961D01*
X48135Y-57961D02*
X48403Y-57694D01*
X48403Y-57694D02*
X48752Y-57550D01*
X48752Y-57550D02*
X49105Y-57550D01*
X49105Y-57550D02*
X47056Y-55500D01*
X47056Y-55500D02*
X46989Y-55400D01*
X46989Y-55400D02*
X46965Y-55281D01*
X46965Y-55281D02*
X46965Y-52488D01*
X46965Y-52488D02*
X46959Y-52486D01*
X46959Y-52486D02*
X46900Y-52427D01*
X46900Y-52427D02*
X46841Y-52486D01*
X46841Y-52486D02*
X46749Y-52524D01*
X46749Y-52524D02*
X46300Y-52524D01*
X46300Y-52524D02*
X46209Y-52486D01*
X46209Y-52486D02*
X46139Y-52416D01*
X46139Y-52416D02*
X46101Y-52324D01*
X46101Y-52324D02*
X46101Y-51675D01*
X46101Y-51675D02*
X46139Y-51584D01*
X46139Y-51584D02*
X46209Y-51514D01*
X46209Y-51514D02*
X46215Y-51511D01*
X46215Y-51511D02*
X46215Y-49022D01*
X46215Y-49022D02*
X46192Y-48989D01*
X46192Y-48989D02*
X46182Y-48989D01*
X46182Y-48989D02*
X46091Y-48951D01*
X46091Y-48951D02*
X46021Y-48881D01*
X46021Y-48881D02*
X45983Y-48789D01*
X45983Y-48789D02*
X45983Y-48410D01*
X45983Y-48410D02*
X46021Y-48319D01*
X46021Y-48319D02*
X46091Y-48249D01*
X46091Y-48249D02*
X46162Y-48219D01*
X46162Y-48219D02*
X46162Y-45484D01*
X46162Y-45484D02*
X45960Y-45484D01*
X45960Y-45484D02*
X45869Y-45446D01*
X45869Y-45446D02*
X45799Y-45376D01*
X45799Y-45376D02*
X45761Y-45284D01*
X45761Y-45284D02*
X45761Y-44635D01*
X45761Y-44635D02*
X45799Y-44544D01*
X45799Y-44544D02*
X45869Y-44474D01*
X45869Y-44474D02*
X45961Y-44436D01*
X45961Y-44436D02*
X47040Y-44436D01*
X47040Y-44436D02*
X47131Y-44474D01*
X47131Y-44474D02*
X47201Y-44544D01*
X47201Y-44544D02*
X47239Y-44636D01*
X47239Y-44636D02*
X47239Y-45285D01*
X47239Y-45285D02*
X47201Y-45376D01*
X47201Y-45376D02*
X47131Y-45446D01*
X47131Y-45446D02*
X47039Y-45484D01*
X47039Y-45484D02*
X46782Y-45484D01*
X46782Y-45484D02*
X46782Y-48219D01*
X46782Y-48219D02*
X46853Y-48249D01*
X46853Y-48249D02*
X46923Y-48319D01*
X46923Y-48319D02*
X46961Y-48411D01*
X46961Y-48411D02*
X46961Y-48790D01*
X46961Y-48790D02*
X46923Y-48881D01*
X46923Y-48881D02*
X46853Y-48951D01*
X46853Y-48951D02*
X46835Y-48958D01*
X46835Y-48958D02*
X46835Y-51511D01*
X46835Y-51511D02*
X46841Y-51514D01*
X46841Y-51514D02*
X46899Y-51572D01*
X46899Y-51572D02*
X46959Y-51514D01*
X46959Y-51514D02*
X47051Y-51476D01*
X47051Y-51476D02*
X47500Y-51476D01*
X47500Y-51476D02*
X47591Y-51514D01*
X47591Y-51514D02*
X47661Y-51584D01*
X47661Y-51584D02*
X47699Y-51676D01*
X47699Y-51676D02*
X47699Y-52325D01*
X47699Y-52325D02*
X47661Y-52416D01*
X47661Y-52416D02*
X47591Y-52486D01*
X47591Y-52486D02*
X47585Y-52488D01*
X47585Y-52488D02*
X47585Y-55153D01*
X47585Y-55153D02*
X47816Y-55383D01*
X47816Y-55383D02*
X47816Y-48990D01*
X47816Y-48990D02*
X47639Y-48989D01*
X47639Y-48989D02*
X47547Y-48951D01*
X47547Y-48951D02*
X47477Y-48881D01*
X47477Y-48881D02*
X47439Y-48790D01*
X47439Y-48790D02*
X47438Y-48712D01*
X47438Y-48712D02*
X47500Y-48650D01*
X47500Y-48650D02*
X47500Y-48550D01*
X47500Y-48550D02*
X47438Y-48488D01*
X47438Y-48488D02*
X47439Y-48410D01*
X47439Y-48410D02*
X47477Y-48319D01*
X47477Y-48319D02*
X47547Y-48249D01*
X47547Y-48249D02*
X47639Y-48211D01*
X47639Y-48211D02*
X47816Y-48210D01*
X47816Y-48210D02*
X47878Y-48272D01*
X47878Y-48272D02*
X47878Y-48550D01*
X47878Y-48550D02*
X47500Y-48550D01*
X47500Y-48550D02*
X47500Y-48650D01*
X47500Y-48650D02*
X47878Y-48650D01*
X47878Y-48650D02*
X47878Y-48928D01*
X47878Y-48928D02*
X47816Y-48990D01*
X47816Y-48990D02*
X47816Y-55383D01*
X47816Y-55383D02*
X48040Y-55607D01*
X48040Y-55607D02*
X48040Y-48990D01*
X48040Y-48990D02*
X47978Y-48928D01*
X47978Y-48928D02*
X47978Y-48650D01*
X47978Y-48650D02*
X47978Y-48550D01*
X47978Y-48550D02*
X47978Y-48272D01*
X47978Y-48272D02*
X48040Y-48210D01*
X48040Y-48210D02*
X48217Y-48211D01*
X48217Y-48211D02*
X48309Y-48249D01*
X48309Y-48249D02*
X48379Y-48319D01*
X48379Y-48319D02*
X48417Y-48410D01*
X48417Y-48410D02*
X48418Y-48488D01*
X48418Y-48488D02*
X48356Y-48550D01*
X48356Y-48550D02*
X47978Y-48550D01*
X47978Y-48550D02*
X47978Y-48650D01*
X47978Y-48650D02*
X48356Y-48650D01*
X48356Y-48650D02*
X48418Y-48712D01*
X48418Y-48712D02*
X48417Y-48790D01*
X48417Y-48790D02*
X48379Y-48881D01*
X48379Y-48881D02*
X48309Y-48951D01*
X48309Y-48951D02*
X48217Y-48989D01*
X48217Y-48989D02*
X48040Y-48990D01*
X48040Y-48990D02*
X48040Y-55607D01*
X48040Y-55607D02*
X48393Y-55961D01*
X48393Y-55961D02*
X48380Y-55928D01*
X48380Y-55928D02*
X48380Y-55550D01*
X48380Y-55550D02*
X48525Y-55201D01*
X48525Y-55201D02*
X48793Y-54934D01*
X48793Y-54934D02*
X49142Y-54790D01*
X49142Y-54790D02*
X49520Y-54790D01*
X49520Y-54790D02*
X49869Y-54935D01*
X49869Y-54935D02*
X50136Y-55203D01*
X50136Y-55203D02*
X50280Y-55552D01*
X50280Y-55552D02*
X50280Y-55930D01*
X50280Y-55930D02*
X50135Y-56279D01*
X50135Y-56279D02*
X49867Y-56546D01*
X49867Y-56546D02*
X49518Y-56690D01*
X49518Y-56690D02*
X49140Y-56690D01*
X49140Y-56690D02*
X49109Y-56677D01*
X49109Y-56677D02*
X50239Y-57807D01*
X50239Y-57807D02*
X50306Y-57907D01*
X50306Y-57907D02*
X50330Y-58026D01*
X50330Y-58026D02*
X50330Y-59105D01*
X50330Y-59105D02*
X50388Y-59130D01*
X50388Y-59130D02*
X50570Y-59312D01*
X50570Y-59312D02*
X50669Y-59551D01*
X50669Y-59551D02*
X50669Y-59809D01*
X50669Y-59809D02*
X50570Y-60048D01*
X50570Y-60048D02*
X50388Y-60230D01*
X50388Y-60230D02*
X50149Y-60329D01*
X50149Y-60329D02*
X49891Y-60329D01*
X49891Y-60329D02*
X49891Y-60755D01*
X49891Y-60755D02*
X51371Y-60755D01*
X51371Y-60755D02*
X51371Y-60329D01*
X51371Y-60329D02*
X51132Y-60230D01*
X51132Y-60230D02*
X50950Y-60048D01*
X50950Y-60048D02*
X50851Y-59809D01*
X50851Y-59809D02*
X50851Y-59551D01*
X50851Y-59551D02*
X50950Y-59312D01*
X50950Y-59312D02*
X51088Y-59174D01*
X51088Y-59174D02*
X51088Y-49000D01*
X51088Y-49000D02*
X50875Y-48999D01*
X50875Y-48999D02*
X50784Y-48961D01*
X50784Y-48961D02*
X50714Y-48891D01*
X50714Y-48891D02*
X50676Y-48799D01*
X50676Y-48799D02*
X50675Y-48687D01*
X50675Y-48687D02*
X50737Y-48625D01*
X50737Y-48625D02*
X51150Y-48625D01*
X51150Y-48625D02*
X51150Y-48938D01*
X51150Y-48938D02*
X51088Y-49000D01*
X51088Y-49000D02*
X51088Y-59174D01*
X51088Y-59174D02*
X51132Y-59130D01*
X51132Y-59130D02*
X51190Y-59105D01*
X51190Y-59105D02*
X51190Y-49116D01*
X51190Y-49116D02*
X51214Y-48997D01*
X51214Y-48997D02*
X51252Y-48940D01*
X51252Y-48940D02*
X51250Y-48938D01*
X51250Y-48938D02*
X51250Y-48625D01*
X51250Y-48625D02*
X51250Y-48525D01*
X51250Y-48525D02*
X51150Y-48525D01*
X51150Y-48525D02*
X50737Y-48525D01*
X50737Y-48525D02*
X50675Y-48463D01*
X50675Y-48463D02*
X50676Y-48351D01*
X50676Y-48351D02*
X50714Y-48259D01*
X50714Y-48259D02*
X50773Y-48200D01*
X50773Y-48200D02*
X50714Y-48141D01*
X50714Y-48141D02*
X50676Y-48049D01*
X50676Y-48049D02*
X50676Y-47600D01*
X50676Y-47600D02*
X50714Y-47509D01*
X50714Y-47509D02*
X50784Y-47439D01*
X50784Y-47439D02*
X50876Y-47401D01*
X50876Y-47401D02*
X50890Y-47401D01*
X50890Y-47401D02*
X50890Y-46499D01*
X50890Y-46499D02*
X50875Y-46499D01*
X50875Y-46499D02*
X50784Y-46461D01*
X50784Y-46461D02*
X50714Y-46391D01*
X50714Y-46391D02*
X50676Y-46299D01*
X50676Y-46299D02*
X50676Y-45850D01*
X50676Y-45850D02*
X50714Y-45759D01*
X50714Y-45759D02*
X50773Y-45700D01*
X50773Y-45700D02*
X50714Y-45641D01*
X50714Y-45641D02*
X50676Y-45549D01*
X50676Y-45549D02*
X50676Y-45100D01*
X50676Y-45100D02*
X50714Y-45009D01*
X50714Y-45009D02*
X50784Y-44939D01*
X50784Y-44939D02*
X50876Y-44901D01*
X50876Y-44901D02*
X51525Y-44901D01*
X51525Y-44901D02*
X51616Y-44939D01*
X51616Y-44939D02*
X51686Y-45009D01*
X51686Y-45009D02*
X51688Y-45015D01*
X51688Y-45015D02*
X52611Y-45015D01*
X52611Y-45015D02*
X52614Y-45009D01*
X52614Y-45009D02*
X52684Y-44939D01*
X52684Y-44939D02*
X52776Y-44901D01*
X52776Y-44901D02*
X53425Y-44901D01*
X53425Y-44901D02*
X53516Y-44939D01*
X53516Y-44939D02*
X53586Y-45009D01*
X53586Y-45009D02*
X53588Y-45015D01*
X53588Y-45015D02*
X55622Y-45015D01*
X55622Y-45015D02*
X55622Y-41308D01*
X55622Y-41308D02*
X55528Y-41281D01*
X55528Y-41281D02*
X55468Y-41134D01*
X55468Y-41134D02*
X55457Y-40921D01*
X55457Y-40921D02*
X55528Y-40719D01*
X55528Y-40719D02*
X55622Y-40692D01*
X55622Y-40692D02*
X55929Y-41000D01*
X55929Y-41000D02*
X55622Y-41308D01*
X55622Y-41308D02*
X55622Y-45015D01*
X55622Y-45015D02*
X55842Y-45015D01*
X55842Y-45015D02*
X55921Y-44950D01*
X55921Y-44950D02*
X55921Y-41543D01*
X55921Y-41543D02*
X55719Y-41472D01*
X55719Y-41472D02*
X55692Y-41378D01*
X55692Y-41378D02*
X56000Y-41071D01*
X56000Y-41071D02*
X56000Y-40929D01*
X56000Y-40929D02*
X55692Y-40622D01*
X55692Y-40622D02*
X55719Y-40528D01*
X55719Y-40528D02*
X55866Y-40468D01*
X55866Y-40468D02*
X56079Y-40457D01*
X56079Y-40457D02*
X56281Y-40528D01*
X56281Y-40528D02*
X56308Y-40622D01*
X56308Y-40622D02*
X56000Y-40929D01*
X56000Y-40929D02*
X56000Y-41071D01*
X56000Y-41071D02*
X56308Y-41378D01*
X56308Y-41378D02*
X56281Y-41472D01*
X56281Y-41472D02*
X56134Y-41532D01*
X56134Y-41532D02*
X55921Y-41543D01*
X55921Y-41543D02*
X55921Y-44950D01*
X55921Y-44950D02*
X56077Y-44824D01*
X56077Y-44824D02*
X56622Y-44279D01*
X56622Y-44279D02*
X56622Y-41308D01*
X56622Y-41308D02*
X56528Y-41281D01*
X56528Y-41281D02*
X56497Y-41207D01*
X56497Y-41207D02*
X56472Y-41281D01*
X56472Y-41281D02*
X56378Y-41308D01*
X56378Y-41308D02*
X56071Y-41000D01*
X56071Y-41000D02*
X56378Y-40692D01*
X56378Y-40692D02*
X56472Y-40719D01*
X56472Y-40719D02*
X56502Y-40792D01*
X56502Y-40792D02*
X56528Y-40719D01*
X56528Y-40719D02*
X56622Y-40692D01*
X56622Y-40692D02*
X56929Y-41000D01*
X56929Y-41000D02*
X56622Y-41308D01*
X56622Y-41308D02*
X56622Y-44279D01*
X56622Y-44279D02*
X56921Y-43980D01*
X56921Y-43980D02*
X56921Y-41543D01*
X56921Y-41543D02*
X56719Y-41472D01*
X56719Y-41472D02*
X56692Y-41378D01*
X56692Y-41378D02*
X57000Y-41071D01*
X57000Y-41071D02*
X57000Y-40929D01*
X57000Y-40929D02*
X56692Y-40622D01*
X56692Y-40622D02*
X56719Y-40528D01*
X56719Y-40528D02*
X56866Y-40468D01*
X56866Y-40468D02*
X57079Y-40457D01*
X57079Y-40457D02*
X57281Y-40528D01*
X57281Y-40528D02*
X57308Y-40622D01*
X57308Y-40622D02*
X57000Y-40929D01*
X57000Y-40929D02*
X57000Y-41071D01*
X57000Y-41071D02*
X57308Y-41378D01*
X57308Y-41378D02*
X57281Y-41472D01*
X57281Y-41472D02*
X57134Y-41532D01*
X57134Y-41532D02*
X56921Y-41543D01*
X56921Y-41543D02*
X56921Y-43980D01*
X56921Y-43980D02*
X57378Y-43523D01*
X57378Y-43523D02*
X57378Y-41308D01*
X57378Y-41308D02*
X57071Y-41000D01*
X57071Y-41000D02*
X57378Y-40692D01*
X57378Y-40692D02*
X57472Y-40719D01*
X57472Y-40719D02*
X57532Y-40866D01*
X57532Y-40866D02*
X57543Y-41079D01*
X57543Y-41079D02*
X57472Y-41281D01*
X57472Y-41281D02*
X57378Y-41308D01*
X57378Y-41308D02*
X57378Y-43523D01*
X57378Y-43523D02*
X60121Y-40781D01*
X60121Y-40781D02*
X60221Y-40714D01*
X60221Y-40714D02*
X60340Y-40690D01*
X60340Y-40690D02*
X60535Y-40689D01*
X60535Y-40689D02*
X60689Y-40535D01*
X60689Y-40535D02*
X60891Y-40451D01*
X60891Y-40451D02*
X61109Y-40451D01*
X61109Y-40451D02*
X61311Y-40535D01*
X61311Y-40535D02*
X61465Y-40689D01*
X61465Y-40689D02*
X61499Y-40773D01*
X61499Y-40773D02*
X61535Y-40689D01*
X61535Y-40689D02*
X61689Y-40535D01*
X61689Y-40535D02*
X61891Y-40451D01*
X61891Y-40451D02*
X62109Y-40451D01*
X62109Y-40451D02*
X62311Y-40535D01*
X62311Y-40535D02*
X62465Y-40689D01*
X62465Y-40689D02*
X62549Y-40891D01*
X62549Y-40891D02*
X62549Y-41109D01*
X62549Y-41109D02*
X62465Y-41311D01*
X62465Y-41311D02*
X62311Y-41465D01*
X62311Y-41465D02*
X62109Y-41549D01*
X62109Y-41549D02*
X61891Y-41549D01*
X61891Y-41549D02*
X61689Y-41465D01*
X61689Y-41465D02*
X61535Y-41311D01*
X61535Y-41311D02*
X61500Y-41226D01*
X61500Y-41226D02*
X61465Y-41311D01*
X61465Y-41311D02*
X61311Y-41465D01*
X61311Y-41465D02*
X61109Y-41549D01*
X61109Y-41549D02*
X60891Y-41549D01*
X60891Y-41549D02*
X60689Y-41465D01*
X60689Y-41465D02*
X60534Y-41310D01*
X60534Y-41310D02*
X60467Y-41310D01*
X60467Y-41310D02*
X57661Y-44116D01*
X57661Y-44116D02*
X57767Y-44095D01*
X57767Y-44095D02*
X59496Y-44095D01*
X59496Y-44095D02*
X59496Y-43615D01*
X59496Y-43615D02*
X59534Y-43524D01*
X59534Y-43524D02*
X59604Y-43454D01*
X59604Y-43454D02*
X59696Y-43416D01*
X59696Y-43416D02*
X60795Y-43416D01*
X60795Y-43416D02*
X60886Y-43454D01*
X60886Y-43454D02*
X60956Y-43524D01*
X60956Y-43524D02*
X60994Y-43616D01*
X60994Y-43616D02*
X60994Y-44095D01*
X60994Y-44095D02*
X61367Y-44095D01*
X61367Y-44095D02*
X61486Y-44119D01*
X61486Y-44119D02*
X61586Y-44186D01*
X61586Y-44186D02*
X62352Y-44952D01*
X62352Y-44952D02*
X62404Y-44902D01*
X62404Y-44902D02*
X62496Y-44864D01*
X62496Y-44864D02*
X63295Y-44864D01*
X63295Y-44864D02*
X63386Y-44902D01*
X63386Y-44902D02*
X63456Y-44972D01*
X63456Y-44972D02*
X63494Y-45064D01*
X63494Y-45064D02*
X63494Y-45863D01*
X63494Y-45863D02*
X63471Y-45916D01*
X63471Y-45916D02*
X64206Y-45916D01*
X64206Y-45916D02*
X64457Y-45709D01*
X64457Y-45709D02*
X64457Y-41577D01*
X64457Y-41577D02*
X62808Y-40108D01*
X62808Y-40108D02*
X52967Y-40108D01*
X52967Y-40108D02*
X52509Y-40795D01*
X52509Y-40795D02*
X52549Y-40891D01*
X52549Y-40891D02*
X52549Y-41109D01*
X52549Y-41109D02*
X52465Y-41311D01*
X52465Y-41311D02*
X52311Y-41465D01*
X52311Y-41465D02*
X52109Y-41549D01*
X52109Y-41549D02*
X51891Y-41549D01*
X51891Y-41549D02*
X51689Y-41465D01*
X51689Y-41465D02*
X51534Y-41310D01*
X51534Y-41310D02*
X51465Y-41311D01*
X51465Y-41311D02*
X51311Y-41465D01*
X51311Y-41465D02*
X51109Y-41549D01*
X51109Y-41549D02*
X50889Y-41548D01*
X50889Y-41548D02*
X49179Y-43259D01*
X49179Y-43259D02*
X49079Y-43326D01*
X49079Y-43326D02*
X48960Y-43350D01*
X48960Y-43350D02*
X47239Y-43350D01*
X47239Y-43350D02*
X47239Y-43365D01*
X47239Y-43365D02*
X47201Y-43456D01*
X47201Y-43456D02*
X47131Y-43526D01*
X47131Y-43526D02*
X47039Y-43564D01*
X47039Y-43564D02*
X45960Y-43564D01*
X45960Y-43564D02*
X45869Y-43526D01*
X45869Y-43526D02*
X45799Y-43456D01*
X45799Y-43456D02*
X45761Y-43364D01*
X45761Y-43364D02*
X45761Y-42715D01*
X45761Y-42715D02*
X45799Y-42624D01*
X45799Y-42624D02*
X45869Y-42554D01*
X45869Y-42554D02*
X45961Y-42516D01*
X45961Y-42516D02*
X47040Y-42516D01*
X47040Y-42516D02*
X47131Y-42554D01*
X47131Y-42554D02*
X47201Y-42624D01*
X47201Y-42624D02*
X47239Y-42716D01*
X47239Y-42716D02*
X47239Y-42730D01*
X47239Y-42730D02*
X48832Y-42730D01*
X48832Y-42730D02*
X50451Y-41109D01*
X50451Y-41109D02*
X50451Y-40891D01*
X50451Y-40891D02*
X50535Y-40689D01*
X50535Y-40689D02*
X50689Y-40535D01*
X50689Y-40535D02*
X50891Y-40451D01*
X50891Y-40451D02*
X51109Y-40451D01*
X51109Y-40451D02*
X51311Y-40535D01*
X51311Y-40535D02*
X51465Y-40690D01*
X51465Y-40690D02*
X51535Y-40689D01*
X51535Y-40689D02*
X51689Y-40535D01*
X51689Y-40535D02*
X51891Y-40451D01*
X51891Y-40451D02*
X51993Y-40451D01*
X51993Y-40451D02*
X52543Y-39627D01*
X52543Y-39627D02*
X52566Y-39603D01*
X52566Y-39603D02*
X52583Y-39579D01*
X52583Y-39579D02*
X52607Y-39562D01*
X52607Y-39562D02*
X52629Y-39541D01*
X52629Y-39541D02*
X52656Y-39529D01*
X52656Y-39529D02*
X52683Y-39512D01*
X52683Y-39512D02*
X52715Y-39505D01*
X52715Y-39505D02*
X52741Y-39495D01*
X52741Y-39495D02*
X52767Y-39494D01*
X52767Y-39494D02*
X52802Y-39488D01*
X52802Y-39488D02*
X62926Y-39488D01*
X62926Y-39488D02*
X62976Y-39498D01*
X62976Y-39498D02*
X63027Y-39505D01*
X63027Y-39505D02*
X63035Y-39510D01*
X63035Y-39510D02*
X63045Y-39512D01*
X63045Y-39512D02*
X63090Y-39542D01*
X63090Y-39542D02*
X63132Y-39567D01*
X63132Y-39567D02*
X64973Y-41207D01*
X64973Y-41207D02*
X64979Y-41215D01*
X64979Y-41215D02*
X64986Y-41220D01*
X64986Y-41220D02*
X65046Y-41304D01*
X65046Y-41304D02*
X65048Y-41312D01*
X65048Y-41312D02*
X65053Y-41320D01*
X65053Y-41320D02*
X65063Y-41372D01*
X65063Y-41372D02*
X65076Y-41421D01*
X65076Y-41421D02*
X65074Y-41428D01*
X65074Y-41428D02*
X65077Y-41439D01*
X65077Y-41439D02*
X65077Y-45856D01*
X65077Y-45856D02*
X65073Y-45872D01*
X65073Y-45872D02*
X65075Y-45885D01*
X65075Y-45885D02*
X65062Y-45925D01*
X65062Y-45925D02*
X65053Y-45975D01*
X65053Y-45975D02*
X65044Y-45987D01*
X65044Y-45987D02*
X65041Y-46000D01*
X65041Y-46000D02*
X65013Y-46033D01*
X65013Y-46033D02*
X64986Y-46075D01*
X64986Y-46075D02*
X64973Y-46083D01*
X64973Y-46083D02*
X64964Y-46095D01*
X64964Y-46095D02*
X64517Y-46465D01*
X64517Y-46465D02*
X64473Y-46488D01*
X64473Y-46488D02*
X64438Y-46512D01*
X64438Y-46512D02*
X64423Y-46514D01*
X64423Y-46514D02*
X64410Y-46522D01*
X64410Y-46522D02*
X64367Y-46526D01*
X64367Y-46526D02*
X64319Y-46536D01*
X64319Y-46536D02*
X63482Y-46536D01*
X63482Y-46536D02*
X63494Y-46564D01*
X63494Y-46564D02*
X63494Y-47363D01*
X63494Y-47363D02*
X63456Y-47454D01*
X63456Y-47454D02*
X63386Y-47524D01*
X63386Y-47524D02*
X63294Y-47562D01*
X63294Y-47562D02*
X63205Y-47562D01*
X63205Y-47562D02*
X63205Y-50120D01*
X63205Y-50120D02*
X63482Y-50235D01*
X63482Y-50235D02*
X63766Y-50519D01*
X63766Y-50519D02*
X63919Y-50890D01*
X63919Y-50890D02*
X63919Y-51291D01*
X63919Y-51291D02*
X63765Y-51662D01*
X63765Y-51662D02*
X63481Y-51946D01*
X63481Y-51946D02*
X63110Y-52099D01*
X63110Y-52099D02*
X62709Y-52099D01*
X62709Y-52099D02*
X62338Y-51945D01*
X62338Y-51945D02*
X62054Y-51661D01*
X62054Y-51661D02*
X61901Y-51290D01*
X61901Y-51290D02*
X61901Y-50889D01*
X61901Y-50889D02*
X62055Y-50518D01*
X62055Y-50518D02*
X62339Y-50234D01*
X62339Y-50234D02*
X62585Y-50132D01*
X62585Y-50132D02*
X62585Y-47562D01*
X62585Y-47562D02*
X62495Y-47562D01*
X62495Y-47562D02*
X62404Y-47524D01*
X62404Y-47524D02*
X62334Y-47454D01*
X62334Y-47454D02*
X62296Y-47362D01*
X62296Y-47362D02*
X62296Y-47273D01*
X62296Y-47273D02*
X58466Y-47273D01*
X58466Y-47273D02*
X58347Y-47249D01*
X58347Y-47249D02*
X58246Y-47181D01*
X58246Y-47181D02*
X57725Y-46660D01*
X57725Y-46660D02*
X57721Y-46665D01*
X57721Y-46665D02*
X57629Y-46703D01*
X57629Y-46703D02*
X57185Y-46703D01*
X57185Y-46703D02*
X57185Y-48011D01*
X57185Y-48011D02*
X57191Y-48014D01*
X57191Y-48014D02*
X57261Y-48084D01*
X57261Y-48084D02*
X57299Y-48176D01*
X57299Y-48176D02*
X57299Y-48825D01*
X57299Y-48825D02*
X57261Y-48916D01*
X57261Y-48916D02*
X57191Y-48986D01*
X57191Y-48986D02*
X57185Y-48988D01*
X57185Y-48988D02*
X57185Y-51201D01*
X57185Y-51201D02*
X57219Y-51235D01*
X57219Y-51235D02*
X57286Y-51336D01*
X57286Y-51336D02*
X57289Y-51352D01*
X57289Y-51352D02*
X57316Y-51364D01*
X57316Y-51364D02*
X57386Y-51434D01*
X57386Y-51434D02*
X57424Y-51526D01*
X57424Y-51526D02*
X57424Y-52235D01*
X57424Y-52235D02*
X58725Y-52235D01*
X58725Y-52235D02*
X58844Y-52259D01*
X58844Y-52259D02*
X58944Y-52326D01*
X58944Y-52326D02*
X59627Y-53009D01*
X59627Y-53009D02*
X59890Y-52901D01*
X59890Y-52901D02*
X60291Y-52901D01*
X60291Y-52901D02*
X60662Y-53055D01*
X60662Y-53055D02*
X60946Y-53339D01*
X60946Y-53339D02*
X61099Y-53710D01*
X61099Y-53710D02*
X61099Y-54111D01*
X61099Y-54111D02*
X60945Y-54482D01*
X60945Y-54482D02*
X60661Y-54766D01*
X60661Y-54766D02*
X60290Y-54919D01*
X60290Y-54919D02*
X59889Y-54919D01*
X59889Y-54919D02*
X59518Y-54765D01*
X59518Y-54765D02*
X59234Y-54481D01*
X59234Y-54481D02*
X59081Y-54110D01*
X59081Y-54110D02*
X59081Y-53709D01*
X59081Y-53709D02*
X59189Y-53447D01*
X59189Y-53447D02*
X58597Y-52854D01*
X58597Y-52854D02*
X57000Y-52855D01*
X57000Y-52855D02*
X56881Y-52831D01*
X56881Y-52831D02*
X56781Y-52764D01*
X56781Y-52764D02*
X56714Y-52664D01*
X56714Y-52664D02*
X56710Y-52647D01*
X56710Y-52647D02*
X56684Y-52636D01*
X56684Y-52636D02*
X56614Y-52566D01*
X56614Y-52566D02*
X56576Y-52474D01*
X56576Y-52474D02*
X56576Y-51525D01*
X56576Y-51525D02*
X56600Y-51466D01*
X56600Y-51466D02*
X56589Y-51449D01*
X56589Y-51449D02*
X56565Y-51330D01*
X56565Y-51330D02*
X56565Y-48988D01*
X56565Y-48988D02*
X56559Y-48986D01*
X56559Y-48986D02*
X56500Y-48927D01*
X56500Y-48927D02*
X56441Y-48986D01*
X56441Y-48986D02*
X56349Y-49024D01*
X56349Y-49024D02*
X56237Y-49025D01*
X56237Y-49025D02*
X56175Y-48963D01*
X56175Y-48963D02*
X56175Y-48550D01*
X56175Y-48550D02*
X56175Y-48450D01*
X56175Y-48450D02*
X56175Y-48037D01*
X56175Y-48037D02*
X56237Y-47975D01*
X56237Y-47975D02*
X56349Y-47976D01*
X56349Y-47976D02*
X56441Y-48014D01*
X56441Y-48014D02*
X56499Y-48072D01*
X56499Y-48072D02*
X56559Y-48014D01*
X56559Y-48014D02*
X56565Y-48011D01*
X56565Y-48011D02*
X56565Y-46135D01*
X56565Y-46135D02*
X56585Y-46021D01*
X56585Y-46021D02*
X56391Y-46219D01*
X56391Y-46219D02*
X56291Y-46286D01*
X56291Y-46286D02*
X56172Y-46310D01*
X56172Y-46310D02*
X56117Y-46310D01*
X56117Y-46310D02*
X56081Y-46398D01*
X56081Y-46398D02*
X56054Y-46424D01*
X56054Y-46424D02*
X56058Y-46424D01*
X56058Y-46424D02*
X56120Y-46486D01*
X56120Y-46486D02*
X56119Y-46504D01*
X56119Y-46504D02*
X56081Y-46595D01*
X56081Y-46595D02*
X56011Y-46665D01*
X56011Y-46665D02*
X55919Y-46703D01*
X55919Y-46703D02*
X55757Y-46704D01*
X55757Y-46704D02*
X55695Y-46642D01*
X55695Y-46642D02*
X55695Y-46505D01*
X55695Y-46505D02*
X55649Y-46505D01*
X55649Y-46505D02*
X55645Y-46507D01*
X55645Y-46507D02*
X55595Y-46507D01*
X55595Y-46507D02*
X55595Y-46642D01*
X55595Y-46642D02*
X55533Y-46704D01*
X55533Y-46704D02*
X55371Y-46703D01*
X55371Y-46703D02*
X55279Y-46665D01*
X55279Y-46665D02*
X55209Y-46595D01*
X55209Y-46595D02*
X55172Y-46507D01*
X55172Y-46507D02*
X54546Y-46507D01*
X54546Y-46507D02*
X51810Y-49244D01*
X51810Y-49244D02*
X51810Y-59105D01*
X51810Y-59105D02*
X51868Y-59130D01*
X51868Y-59130D02*
X52050Y-59312D01*
X52050Y-59312D02*
X52149Y-59551D01*
X52149Y-59551D02*
X52149Y-59809D01*
X52149Y-59809D02*
X52050Y-60048D01*
X52050Y-60048D02*
X51868Y-60230D01*
X51868Y-60230D02*
X51629Y-60329D01*
X51629Y-60329D02*
X51371Y-60329D01*
X51371Y-60329D02*
X51371Y-60755D01*
X51371Y-60755D02*
X52531Y-60755D01*
X52531Y-60755D02*
X52531Y-60058D01*
X52531Y-60058D02*
X52426Y-60020D01*
X52426Y-60020D02*
X52349Y-59831D01*
X52349Y-59831D02*
X52339Y-59577D01*
X52339Y-59577D02*
X52426Y-59340D01*
X52426Y-59340D02*
X52531Y-59302D01*
X52531Y-59302D02*
X52909Y-59680D01*
X52909Y-59680D02*
X52531Y-60058D01*
X52531Y-60058D02*
X52531Y-60755D01*
X52531Y-60755D02*
X52877Y-60755D01*
X52877Y-60755D02*
X52877Y-60321D01*
X52877Y-60321D02*
X52640Y-60234D01*
X52640Y-60234D02*
X52602Y-60129D01*
X52602Y-60129D02*
X52980Y-59751D01*
X52980Y-59751D02*
X53358Y-60129D01*
X53358Y-60129D02*
X53320Y-60234D01*
X53320Y-60234D02*
X53131Y-60311D01*
X53131Y-60311D02*
X52877Y-60321D01*
X52877Y-60321D02*
X52877Y-60755D01*
X52877Y-60755D02*
X53429Y-60755D01*
X53429Y-60755D02*
X53429Y-60058D01*
X53429Y-60058D02*
X53051Y-59680D01*
X53051Y-59680D02*
X52980Y-59609D01*
X52980Y-59609D02*
X52602Y-59231D01*
X52602Y-59231D02*
X52640Y-59126D01*
X52640Y-59126D02*
X52829Y-59049D01*
X52829Y-59049D02*
X53083Y-59039D01*
X53083Y-59039D02*
X53320Y-59126D01*
X53320Y-59126D02*
X53358Y-59231D01*
X53358Y-59231D02*
X52980Y-59609D01*
X52980Y-59609D02*
X53377Y-59213D01*
X53377Y-59213D02*
X53447Y-59283D01*
X53447Y-59283D02*
X53051Y-59680D01*
X53051Y-59680D02*
X53429Y-59302D01*
X53429Y-59302D02*
X53534Y-59340D01*
X53534Y-59340D02*
X53611Y-59529D01*
X53611Y-59529D02*
X53621Y-59783D01*
X53621Y-59783D02*
X53534Y-60020D01*
X53534Y-60020D02*
X53429Y-60058D01*
X53429Y-60058D02*
X53429Y-60755D01*
X53429Y-60755D02*
X53870Y-60755D01*
X53870Y-60755D02*
X53870Y-59450D01*
X53870Y-59450D02*
X53521Y-59305D01*
X53521Y-59305D02*
X53254Y-59037D01*
X53254Y-59037D02*
X53110Y-58688D01*
X53110Y-58688D02*
X53110Y-58310D01*
X53110Y-58310D02*
X53255Y-57961D01*
X53255Y-57961D02*
X53480Y-57736D01*
X53480Y-57736D02*
X53480Y-56690D01*
X53480Y-56690D02*
X53131Y-56545D01*
X53131Y-56545D02*
X52864Y-56277D01*
X52864Y-56277D02*
X52720Y-55928D01*
X52720Y-55928D02*
X52720Y-55550D01*
X52720Y-55550D02*
X52865Y-55201D01*
X52865Y-55201D02*
X53133Y-54934D01*
X53133Y-54934D02*
X53482Y-54790D01*
X53482Y-54790D02*
X53860Y-54790D01*
X53860Y-54790D02*
X54209Y-54935D01*
X54209Y-54935D02*
X54476Y-55203D01*
X54476Y-55203D02*
X54620Y-55552D01*
X54620Y-55552D02*
X54620Y-55930D01*
X54620Y-55930D02*
X54475Y-56279D01*
X54475Y-56279D02*
X54207Y-56546D01*
X54207Y-56546D02*
X53858Y-56690D01*
X53858Y-56690D02*
X53480Y-56690D01*
X53480Y-56690D02*
X53480Y-57736D01*
X53480Y-57736D02*
X53523Y-57694D01*
X53523Y-57694D02*
X53872Y-57550D01*
X53872Y-57550D02*
X54250Y-57550D01*
X54250Y-57550D02*
X54599Y-57695D01*
X54599Y-57695D02*
X54866Y-57963D01*
X54866Y-57963D02*
X55010Y-58312D01*
X55010Y-58312D02*
X55010Y-58690D01*
X55010Y-58690D02*
X54865Y-59039D01*
X54865Y-59039D02*
X54597Y-59306D01*
X54597Y-59306D02*
X54248Y-59450D01*
X54248Y-59450D02*
X53870Y-59450D01*
X53870Y-59450D02*
X53870Y-60755D01*
X53870Y-60755D02*
X56897Y-60755D01*
X56897Y-60755D02*
X56897Y-60515D01*
X56897Y-60515D02*
X56708Y-60436D01*
X56708Y-60436D02*
X56563Y-60291D01*
X56563Y-60291D02*
X56500Y-60138D01*
X56500Y-60138D02*
X56436Y-60292D01*
X56436Y-60292D02*
X56291Y-60437D01*
X56291Y-60437D02*
X56102Y-60515D01*
X56102Y-60515D02*
X55897Y-60515D01*
X55897Y-60515D02*
X55708Y-60436D01*
X55708Y-60436D02*
X55563Y-60291D01*
X55563Y-60291D02*
X55485Y-60102D01*
X55485Y-60102D02*
X55485Y-59897D01*
X55485Y-59897D02*
X55564Y-59708D01*
X55564Y-59708D02*
X55658Y-59614D01*
X55658Y-59614D02*
X55585Y-59614D01*
X55585Y-59614D02*
X55494Y-59576D01*
X55494Y-59576D02*
X55424Y-59506D01*
X55424Y-59506D02*
X55386Y-59414D01*
X55386Y-59414D02*
X55386Y-58585D01*
X55386Y-58585D02*
X55424Y-58494D01*
X55424Y-58494D02*
X55494Y-58424D01*
X55494Y-58424D02*
X55586Y-58386D01*
X55586Y-58386D02*
X55690Y-58386D01*
X55690Y-58386D02*
X55690Y-55138D01*
X55690Y-55138D02*
X55684Y-55136D01*
X55684Y-55136D02*
X55614Y-55066D01*
X55614Y-55066D02*
X55576Y-54974D01*
X55576Y-54974D02*
X55576Y-54025D01*
X55576Y-54025D02*
X55614Y-53934D01*
X55614Y-53934D02*
X55684Y-53864D01*
X55684Y-53864D02*
X55776Y-53826D01*
X55776Y-53826D02*
X55888Y-53826D01*
X55888Y-53826D02*
X55888Y-52675D01*
X55888Y-52675D02*
X55775Y-52674D01*
X55775Y-52674D02*
X55684Y-52636D01*
X55684Y-52636D02*
X55614Y-52566D01*
X55614Y-52566D02*
X55576Y-52474D01*
X55576Y-52474D02*
X55575Y-52112D01*
X55575Y-52112D02*
X55637Y-52050D01*
X55637Y-52050D02*
X55637Y-51950D01*
X55637Y-51950D02*
X55575Y-51888D01*
X55575Y-51888D02*
X55576Y-51526D01*
X55576Y-51526D02*
X55614Y-51434D01*
X55614Y-51434D02*
X55684Y-51364D01*
X55684Y-51364D02*
X55775Y-51326D01*
X55775Y-51326D02*
X55888Y-51325D01*
X55888Y-51325D02*
X55950Y-51387D01*
X55950Y-51387D02*
X55950Y-51950D01*
X55950Y-51950D02*
X55637Y-51950D01*
X55637Y-51950D02*
X55637Y-52050D01*
X55637Y-52050D02*
X55950Y-52050D01*
X55950Y-52050D02*
X55950Y-52613D01*
X55950Y-52613D02*
X55888Y-52675D01*
X55888Y-52675D02*
X55888Y-53826D01*
X55888Y-53826D02*
X56013Y-53826D01*
X56013Y-53826D02*
X56013Y-49025D01*
X56013Y-49025D02*
X55901Y-49024D01*
X55901Y-49024D02*
X55809Y-48986D01*
X55809Y-48986D02*
X55739Y-48916D01*
X55739Y-48916D02*
X55701Y-48825D01*
X55701Y-48825D02*
X55700Y-48612D01*
X55700Y-48612D02*
X55762Y-48550D01*
X55762Y-48550D02*
X55762Y-48450D01*
X55762Y-48450D02*
X55700Y-48388D01*
X55700Y-48388D02*
X55701Y-48175D01*
X55701Y-48175D02*
X55739Y-48084D01*
X55739Y-48084D02*
X55809Y-48014D01*
X55809Y-48014D02*
X55901Y-47976D01*
X55901Y-47976D02*
X56013Y-47975D01*
X56013Y-47975D02*
X56075Y-48037D01*
X56075Y-48037D02*
X56075Y-48450D01*
X56075Y-48450D02*
X55762Y-48450D01*
X55762Y-48450D02*
X55762Y-48550D01*
X55762Y-48550D02*
X56075Y-48550D01*
X56075Y-48550D02*
X56075Y-48963D01*
X56075Y-48963D02*
X56013Y-49025D01*
X56013Y-49025D02*
X56013Y-53826D01*
X56013Y-53826D02*
X56112Y-53826D01*
X56112Y-53826D02*
X56112Y-52675D01*
X56112Y-52675D02*
X56050Y-52613D01*
X56050Y-52613D02*
X56050Y-52050D01*
X56050Y-52050D02*
X56050Y-51950D01*
X56050Y-51950D02*
X56050Y-51387D01*
X56050Y-51387D02*
X56112Y-51325D01*
X56112Y-51325D02*
X56225Y-51326D01*
X56225Y-51326D02*
X56316Y-51364D01*
X56316Y-51364D02*
X56386Y-51434D01*
X56386Y-51434D02*
X56424Y-51526D01*
X56424Y-51526D02*
X56425Y-51888D01*
X56425Y-51888D02*
X56363Y-51950D01*
X56363Y-51950D02*
X56050Y-51950D01*
X56050Y-51950D02*
X56050Y-52050D01*
X56050Y-52050D02*
X56363Y-52050D01*
X56363Y-52050D02*
X56425Y-52112D01*
X56425Y-52112D02*
X56424Y-52474D01*
X56424Y-52474D02*
X56386Y-52566D01*
X56386Y-52566D02*
X56316Y-52636D01*
X56316Y-52636D02*
X56225Y-52674D01*
X56225Y-52674D02*
X56112Y-52675D01*
X56112Y-52675D02*
X56112Y-53826D01*
X56112Y-53826D02*
X56225Y-53826D01*
X56225Y-53826D02*
X56316Y-53864D01*
X56316Y-53864D02*
X56386Y-53934D01*
X56386Y-53934D02*
X56424Y-54026D01*
X56424Y-54026D02*
X56424Y-54975D01*
X56424Y-54975D02*
X56386Y-55066D01*
X56386Y-55066D02*
X56316Y-55136D01*
X56316Y-55136D02*
X56310Y-55138D01*
X56310Y-55138D02*
X56310Y-58386D01*
X56310Y-58386D02*
X56415Y-58386D01*
X56415Y-58386D02*
X56506Y-58424D01*
X56506Y-58424D02*
X56576Y-58494D01*
X56576Y-58494D02*
X56593Y-58536D01*
X56593Y-58536D02*
X56652Y-58479D01*
X56652Y-58479D02*
X56878Y-58385D01*
X56878Y-58385D02*
X57123Y-58385D01*
X57123Y-58385D02*
X57349Y-58479D01*
X57349Y-58479D02*
X57521Y-58652D01*
X57521Y-58652D02*
X57615Y-58878D01*
X57615Y-58878D02*
X57615Y-59123D01*
X57615Y-59123D02*
X57521Y-59349D01*
X57521Y-59349D02*
X57348Y-59521D01*
X57348Y-59521D02*
X57268Y-59554D01*
X57268Y-59554D02*
X57292Y-59564D01*
X57292Y-59564D02*
X57437Y-59709D01*
X57437Y-59709D02*
X57515Y-59898D01*
X57515Y-59898D02*
X57515Y-60103D01*
X57515Y-60103D02*
X57436Y-60292D01*
X57436Y-60292D02*
X57291Y-60437D01*
X57291Y-60437D02*
X57102Y-60515D01*
X57102Y-60515D02*
X56897Y-60515D01*
X56897Y-60515D02*
X56897Y-60755D01*
X56897Y-60755D02*
X61371Y-60755D01*
X61371Y-60755D02*
X61371Y-59899D01*
X61371Y-59899D02*
X61132Y-59800D01*
X61132Y-59800D02*
X60950Y-59618D01*
X60950Y-59618D02*
X60851Y-59379D01*
X60851Y-59379D02*
X60851Y-59121D01*
X60851Y-59121D02*
X60874Y-59063D01*
X60874Y-59063D02*
X57166Y-55355D01*
X57166Y-55355D02*
X57000Y-55355D01*
X57000Y-55355D02*
X56881Y-55331D01*
X56881Y-55331D02*
X56781Y-55264D01*
X56781Y-55264D02*
X56714Y-55164D01*
X56714Y-55164D02*
X56710Y-55147D01*
X56710Y-55147D02*
X56684Y-55136D01*
X56684Y-55136D02*
X56614Y-55066D01*
X56614Y-55066D02*
X56576Y-54974D01*
X56576Y-54974D02*
X56576Y-54025D01*
X56576Y-54025D02*
X56614Y-53934D01*
X56614Y-53934D02*
X56684Y-53864D01*
X56684Y-53864D02*
X56776Y-53826D01*
X56776Y-53826D02*
X57225Y-53826D01*
X57225Y-53826D02*
X57316Y-53864D01*
X57316Y-53864D02*
X57386Y-53934D01*
X57386Y-53934D02*
X57424Y-54026D01*
X57424Y-54026D02*
X57424Y-54765D01*
X57424Y-54765D02*
X57514Y-54826D01*
X57514Y-54826D02*
X61313Y-58624D01*
X61313Y-58624D02*
X61371Y-58601D01*
X61371Y-58601D02*
X61371Y-57899D01*
X61371Y-57899D02*
X61132Y-57800D01*
X61132Y-57800D02*
X60950Y-57618D01*
X60950Y-57618D02*
X60851Y-57379D01*
X60851Y-57379D02*
X60851Y-57121D01*
X60851Y-57121D02*
X60950Y-56882D01*
X60950Y-56882D02*
X61132Y-56700D01*
X61132Y-56700D02*
X61371Y-56601D01*
X61371Y-56601D02*
X61629Y-56601D01*
X61629Y-56601D02*
X61868Y-56700D01*
X61868Y-56700D02*
X62050Y-56882D01*
X62050Y-56882D02*
X62149Y-57121D01*
X62149Y-57121D02*
X62149Y-57379D01*
X62149Y-57379D02*
X62050Y-57618D01*
X62050Y-57618D02*
X61868Y-57800D01*
X61868Y-57800D02*
X61629Y-57899D01*
X61629Y-57899D02*
X61371Y-57899D01*
X61371Y-57899D02*
X61371Y-58601D01*
X61371Y-58601D02*
X61629Y-58601D01*
X61629Y-58601D02*
X61868Y-58700D01*
X61868Y-58700D02*
X62050Y-58882D01*
X62050Y-58882D02*
X62149Y-59121D01*
X62149Y-59121D02*
X62149Y-59379D01*
X62149Y-59379D02*
X62050Y-59618D01*
X62050Y-59618D02*
X61868Y-59800D01*
X61868Y-59800D02*
X61629Y-59899D01*
X61629Y-59899D02*
X61371Y-59899D01*
X61371Y-59899D02*
X61371Y-60755D01*
X61371Y-60755D02*
X68800Y-60755D01*
X68800Y-60755D02*
X68800Y-59500D01*
X68800Y-59500D02*
X68433Y-59347D01*
X68433Y-59347D02*
X68152Y-59066D01*
X68152Y-59066D02*
X68000Y-58698D01*
X68000Y-58698D02*
X68000Y-58300D01*
X68000Y-58300D02*
X68153Y-57933D01*
X68153Y-57933D02*
X68434Y-57652D01*
X68434Y-57652D02*
X68800Y-57500D01*
X68800Y-57500D02*
X68800Y-34500D01*
X68800Y-34500D02*
X68433Y-34347D01*
X68433Y-34347D02*
X68152Y-34066D01*
X68152Y-34066D02*
X68000Y-33698D01*
X68000Y-33698D02*
X68000Y-33300D01*
X68000Y-33300D02*
X68153Y-32933D01*
X68153Y-32933D02*
X68434Y-32652D01*
X68434Y-32652D02*
X68802Y-32500D01*
X68802Y-32500D02*
X69200Y-32500D01*
X69200Y-32500D02*
X69567Y-32653D01*
X69567Y-32653D02*
X69848Y-32934D01*
X69848Y-32934D02*
X70000Y-33302D01*
X70000Y-33302D02*
X70000Y-33700D01*
X70000Y-33700D02*
X69847Y-34067D01*
X69847Y-34067D02*
X69566Y-34348D01*
X69566Y-34348D02*
X69198Y-34500D01*
X69198Y-34500D02*
X68800Y-34500D01*
X68800Y-34500D02*
X68800Y-57500D01*
X68800Y-57500D02*
X69200Y-57500D01*
X69200Y-57500D02*
X69567Y-57653D01*
X69567Y-57653D02*
X69848Y-57934D01*
X69848Y-57934D02*
X70000Y-58302D01*
X70000Y-58302D02*
X70000Y-58700D01*
X70000Y-58700D02*
X69847Y-59067D01*
X69847Y-59067D02*
X69566Y-59348D01*
X69566Y-59348D02*
X69198Y-59500D01*
X69198Y-59500D02*
X68800Y-59500D01*
X68800Y-59500D02*
X68800Y-60755D01*
X68800Y-60755D02*
X71255Y-60755D01*
X62318Y-45916D02*
X62296Y-45862D01*
X62296Y-45862D02*
X62296Y-45742D01*
X62296Y-45742D02*
X62205Y-45681D01*
X62205Y-45681D02*
X61239Y-44714D01*
X61239Y-44714D02*
X60946Y-44714D01*
X60946Y-44714D02*
X60956Y-44724D01*
X60956Y-44724D02*
X60994Y-44816D01*
X60994Y-44816D02*
X60995Y-45003D01*
X60995Y-45003D02*
X60933Y-45065D01*
X60933Y-45065D02*
X60295Y-45065D01*
X60295Y-45065D02*
X60195Y-45065D01*
X60195Y-45065D02*
X59557Y-45065D01*
X59557Y-45065D02*
X59495Y-45003D01*
X59495Y-45003D02*
X59496Y-44816D01*
X59496Y-44816D02*
X59534Y-44724D01*
X59534Y-44724D02*
X59543Y-44714D01*
X59543Y-44714D02*
X59224Y-44714D01*
X59224Y-44714D02*
X59225Y-44813D01*
X59225Y-44813D02*
X59163Y-44875D01*
X59163Y-44875D02*
X58750Y-44875D01*
X58750Y-44875D02*
X58650Y-44875D01*
X58650Y-44875D02*
X58237Y-44875D01*
X58237Y-44875D02*
X58175Y-44813D01*
X58175Y-44813D02*
X58175Y-44714D01*
X58175Y-44714D02*
X57895Y-44715D01*
X57895Y-44715D02*
X57313Y-45297D01*
X57313Y-45297D02*
X58269Y-45296D01*
X58269Y-45296D02*
X58214Y-45241D01*
X58214Y-45241D02*
X58176Y-45149D01*
X58176Y-45149D02*
X58175Y-45037D01*
X58175Y-45037D02*
X58237Y-44975D01*
X58237Y-44975D02*
X58650Y-44975D01*
X58650Y-44975D02*
X58750Y-44975D01*
X58750Y-44975D02*
X59163Y-44975D01*
X59163Y-44975D02*
X59225Y-45037D01*
X59225Y-45037D02*
X59224Y-45149D01*
X59224Y-45149D02*
X59186Y-45241D01*
X59186Y-45241D02*
X59126Y-45299D01*
X59126Y-45299D02*
X59186Y-45359D01*
X59186Y-45359D02*
X59224Y-45451D01*
X59224Y-45451D02*
X59224Y-45900D01*
X59224Y-45900D02*
X59217Y-45916D01*
X59217Y-45916D02*
X60133Y-45916D01*
X60133Y-45916D02*
X60133Y-45615D01*
X60133Y-45615D02*
X59695Y-45614D01*
X59695Y-45614D02*
X59604Y-45576D01*
X59604Y-45576D02*
X59534Y-45506D01*
X59534Y-45506D02*
X59496Y-45414D01*
X59496Y-45414D02*
X59495Y-45227D01*
X59495Y-45227D02*
X59557Y-45165D01*
X59557Y-45165D02*
X60195Y-45165D01*
X60195Y-45165D02*
X60195Y-45553D01*
X60195Y-45553D02*
X60133Y-45615D01*
X60133Y-45615D02*
X60133Y-45916D01*
X60133Y-45916D02*
X60357Y-45916D01*
X60357Y-45916D02*
X60357Y-45615D01*
X60357Y-45615D02*
X60295Y-45553D01*
X60295Y-45553D02*
X60295Y-45165D01*
X60295Y-45165D02*
X60933Y-45165D01*
X60933Y-45165D02*
X60995Y-45227D01*
X60995Y-45227D02*
X60994Y-45414D01*
X60994Y-45414D02*
X60956Y-45506D01*
X60956Y-45506D02*
X60886Y-45576D01*
X60886Y-45576D02*
X60795Y-45614D01*
X60795Y-45614D02*
X60357Y-45615D01*
X60357Y-45615D02*
X60357Y-45916D01*
X60357Y-45916D02*
X62318Y-45916D01*
M02*
