M48
;DRILL file {PCBnew (20090216-final)} date Mon 01 Feb 2010 05:23:26 PM PST
;FORMAT={2:4/ absolute / inch / suppress trailing zeros}
R,T
VER,1
FMAT,2
INCH,LZ
TCST,OFF
ICI,OFF
ATC,ON
T1C0.040
T2C0.043
T3C0.048
T4C0.051
T5C0.100
T6C0.129
T7C0.220
%
M47
G05
M72
T1
X051Y-0465
X051Y-0475
X057Y-0465
X057Y-0475
X062Y-0355
X062Y-0365
X066Y-0355
X066Y-0365
T2
X0535Y-056
X0535Y-057
X0545Y-056
X0545Y-057
X064Y-044
X064Y-046
T3
X051Y-036
X053Y-036
X054Y-036
X055Y-036
X056Y-036
X057Y-036
T4
X06252Y-05618
X064Y-05618
X06548Y-05618
T5
X06144Y-055
X06183Y-05224
X06617Y-05224
X06656Y-055
T6
X046Y-03
X046Y-056
X072Y-03
X072Y-056
T7
X052Y-0385
T0
M30
