G04 (created by PCBnew (20090216-final)) date Mon 01 Feb 2010 05:23:16 PM PST*
G01*
G70*
G90*
%MOIN*%
G04 Gerber Fmt 3.4, Leading zero omitted, Abs format*
%FSLAX34Y34*%
G04 APERTURE LIST*
%ADD10C,0.009000*%
%ADD11C,0.078000*%
%ADD12C,0.260000*%
%ADD13C,0.080000*%
%ADD14C,0.140000*%
%ADD15C,0.060000*%
%ADD16C,0.073000*%
%ADD17R,0.073000X0.073000*%
%ADD18C,0.053000*%
%ADD19R,0.098000X0.055000*%
%ADD20R,0.102000X0.063000*%
%ADD21C,0.150000*%
%ADD22C,0.032000*%
%ADD23C,0.010000*%
%ADD24R,0.050000X0.100000*%
%ADD25R,0.055000X0.098000*%
%ADD26R,0.035000X0.085000*%
%ADD27C,0.015000*%
%ADD28C,0.012000*%
G04 APERTURE END LIST*
G54D10*
X74000Y-28000D02*
X44000Y-28000D01*
X74000Y-58000D02*
X74000Y-28000D01*
X44000Y-58000D02*
X74000Y-58000D01*
X44000Y-28000D02*
X44000Y-58000D01*
G54D27*
X68300Y-38500D02*
X68300Y-39400D01*
X68300Y-39400D02*
X69700Y-39400D01*
X69700Y-39400D02*
X69700Y-38500D01*
X68300Y-37500D02*
X68300Y-36600D01*
X68300Y-36600D02*
X69700Y-36600D01*
X69700Y-36600D02*
X69700Y-37500D01*
X58300Y-38500D02*
X58300Y-39400D01*
X58300Y-39400D02*
X59700Y-39400D01*
X59700Y-39400D02*
X59700Y-38500D01*
X58300Y-37500D02*
X58300Y-36600D01*
X58300Y-36600D02*
X59700Y-36600D01*
X59700Y-36600D02*
X59700Y-37500D01*
X48300Y-38500D02*
X48300Y-39400D01*
X48300Y-39400D02*
X49700Y-39400D01*
X49700Y-39400D02*
X49700Y-38500D01*
X48300Y-37500D02*
X48300Y-36600D01*
X48300Y-36600D02*
X49700Y-36600D01*
X49700Y-36600D02*
X49700Y-37500D01*
X70000Y-54500D02*
X69750Y-54750D01*
X70000Y-54250D02*
X69500Y-54750D01*
X69000Y-51500D02*
X69000Y-51250D01*
X69500Y-52000D02*
X68500Y-52000D01*
X68500Y-51500D02*
X69500Y-51500D01*
X69500Y-51500D02*
X69000Y-52000D01*
X69000Y-52000D02*
X68500Y-51500D01*
X70000Y-54000D02*
X69250Y-54750D01*
X70000Y-51250D02*
X70000Y-54750D01*
X70000Y-54750D02*
X68000Y-54750D01*
X68000Y-54750D02*
X68000Y-51250D01*
X68000Y-51250D02*
X70000Y-51250D01*
X70000Y-44500D02*
X69750Y-44750D01*
X70000Y-44250D02*
X69500Y-44750D01*
X69000Y-41500D02*
X69000Y-41250D01*
X69500Y-42000D02*
X68500Y-42000D01*
X68500Y-41500D02*
X69500Y-41500D01*
X69500Y-41500D02*
X69000Y-42000D01*
X69000Y-42000D02*
X68500Y-41500D01*
X70000Y-44000D02*
X69250Y-44750D01*
X70000Y-41250D02*
X70000Y-44750D01*
X70000Y-44750D02*
X68000Y-44750D01*
X68000Y-44750D02*
X68000Y-41250D01*
X68000Y-41250D02*
X70000Y-41250D01*
X70000Y-34500D02*
X69750Y-34750D01*
X70000Y-34250D02*
X69500Y-34750D01*
X69000Y-31500D02*
X69000Y-31250D01*
X69500Y-32000D02*
X68500Y-32000D01*
X68500Y-31500D02*
X69500Y-31500D01*
X69500Y-31500D02*
X69000Y-32000D01*
X69000Y-32000D02*
X68500Y-31500D01*
X70000Y-34000D02*
X69250Y-34750D01*
X70000Y-31250D02*
X70000Y-34750D01*
X70000Y-34750D02*
X68000Y-34750D01*
X68000Y-34750D02*
X68000Y-31250D01*
X68000Y-31250D02*
X70000Y-31250D01*
X60000Y-54500D02*
X59750Y-54750D01*
X60000Y-54250D02*
X59500Y-54750D01*
X59000Y-51500D02*
X59000Y-51250D01*
X59500Y-52000D02*
X58500Y-52000D01*
X58500Y-51500D02*
X59500Y-51500D01*
X59500Y-51500D02*
X59000Y-52000D01*
X59000Y-52000D02*
X58500Y-51500D01*
X60000Y-54000D02*
X59250Y-54750D01*
X60000Y-51250D02*
X60000Y-54750D01*
X60000Y-54750D02*
X58000Y-54750D01*
X58000Y-54750D02*
X58000Y-51250D01*
X58000Y-51250D02*
X60000Y-51250D01*
X60000Y-44500D02*
X59750Y-44750D01*
X60000Y-44250D02*
X59500Y-44750D01*
X59000Y-41500D02*
X59000Y-41250D01*
X59500Y-42000D02*
X58500Y-42000D01*
X58500Y-41500D02*
X59500Y-41500D01*
X59500Y-41500D02*
X59000Y-42000D01*
X59000Y-42000D02*
X58500Y-41500D01*
X60000Y-44000D02*
X59250Y-44750D01*
X60000Y-41250D02*
X60000Y-44750D01*
X60000Y-44750D02*
X58000Y-44750D01*
X58000Y-44750D02*
X58000Y-41250D01*
X58000Y-41250D02*
X60000Y-41250D01*
X60000Y-34500D02*
X59750Y-34750D01*
X60000Y-34250D02*
X59500Y-34750D01*
X59000Y-31500D02*
X59000Y-31250D01*
X59500Y-32000D02*
X58500Y-32000D01*
X58500Y-31500D02*
X59500Y-31500D01*
X59500Y-31500D02*
X59000Y-32000D01*
X59000Y-32000D02*
X58500Y-31500D01*
X60000Y-34000D02*
X59250Y-34750D01*
X60000Y-31250D02*
X60000Y-34750D01*
X60000Y-34750D02*
X58000Y-34750D01*
X58000Y-34750D02*
X58000Y-31250D01*
X58000Y-31250D02*
X60000Y-31250D01*
X50000Y-54500D02*
X49750Y-54750D01*
X50000Y-54250D02*
X49500Y-54750D01*
X49000Y-51500D02*
X49000Y-51250D01*
X49500Y-52000D02*
X48500Y-52000D01*
X48500Y-51500D02*
X49500Y-51500D01*
X49500Y-51500D02*
X49000Y-52000D01*
X49000Y-52000D02*
X48500Y-51500D01*
X50000Y-54000D02*
X49250Y-54750D01*
X50000Y-51250D02*
X50000Y-54750D01*
X50000Y-54750D02*
X48000Y-54750D01*
X48000Y-54750D02*
X48000Y-51250D01*
X48000Y-51250D02*
X50000Y-51250D01*
X50000Y-44500D02*
X49750Y-44750D01*
X50000Y-44250D02*
X49500Y-44750D01*
X49000Y-41500D02*
X49000Y-41250D01*
X49500Y-42000D02*
X48500Y-42000D01*
X48500Y-41500D02*
X49500Y-41500D01*
X49500Y-41500D02*
X49000Y-42000D01*
X49000Y-42000D02*
X48500Y-41500D01*
X50000Y-44000D02*
X49250Y-44750D01*
X50000Y-41250D02*
X50000Y-44750D01*
X50000Y-44750D02*
X48000Y-44750D01*
X48000Y-44750D02*
X48000Y-41250D01*
X48000Y-41250D02*
X50000Y-41250D01*
X50000Y-34500D02*
X49750Y-34750D01*
X50000Y-34250D02*
X49500Y-34750D01*
X49000Y-31500D02*
X49000Y-31250D01*
X49500Y-32000D02*
X48500Y-32000D01*
X48500Y-31500D02*
X49500Y-31500D01*
X49500Y-31500D02*
X49000Y-32000D01*
X49000Y-32000D02*
X48500Y-31500D01*
X50000Y-34000D02*
X49250Y-34750D01*
X50000Y-31250D02*
X50000Y-34750D01*
X50000Y-34750D02*
X48000Y-34750D01*
X48000Y-34750D02*
X48000Y-31250D01*
X48000Y-31250D02*
X50000Y-31250D01*
G54D28*
X68100Y-37380D02*
X67500Y-37380D01*
X67500Y-37380D02*
X67500Y-37780D01*
X67500Y-37780D02*
X67567Y-37847D01*
X67567Y-37847D02*
X67767Y-37847D01*
X67767Y-37847D02*
X67834Y-37780D01*
X67834Y-37780D02*
X67834Y-37380D01*
X67834Y-37580D02*
X68100Y-37847D01*
X68100Y-38500D02*
X67500Y-38500D01*
X67500Y-38500D02*
X67967Y-38166D01*
X67967Y-38166D02*
X67967Y-38633D01*
X70500Y-37414D02*
X70500Y-37680D01*
X70500Y-37547D02*
X69900Y-37547D01*
X69967Y-37547D02*
X70100Y-37414D01*
X70500Y-38066D02*
X69900Y-38533D01*
X70434Y-38066D02*
X69967Y-38066D01*
X69967Y-38066D02*
X69900Y-38133D01*
X69900Y-38133D02*
X69900Y-38466D01*
X69900Y-38466D02*
X69967Y-38533D01*
X69967Y-38533D02*
X70434Y-38533D01*
X70434Y-38533D02*
X70500Y-38466D01*
X70500Y-38466D02*
X70500Y-38133D01*
X70500Y-38133D02*
X70434Y-38066D01*
X58100Y-37380D02*
X57500Y-37380D01*
X57500Y-37380D02*
X57500Y-37780D01*
X57500Y-37780D02*
X57567Y-37847D01*
X57567Y-37847D02*
X57767Y-37847D01*
X57767Y-37847D02*
X57834Y-37780D01*
X57834Y-37780D02*
X57834Y-37380D01*
X57834Y-37580D02*
X58100Y-37847D01*
X57500Y-38166D02*
X57500Y-38633D01*
X57500Y-38633D02*
X57567Y-38633D01*
X57567Y-38633D02*
X57767Y-38366D01*
X57767Y-38366D02*
X57767Y-38566D01*
X57767Y-38566D02*
X57834Y-38633D01*
X57834Y-38633D02*
X58034Y-38633D01*
X58034Y-38633D02*
X58100Y-38566D01*
X58100Y-38566D02*
X58100Y-38233D01*
X58100Y-38233D02*
X58034Y-38166D01*
X60500Y-37414D02*
X60500Y-37680D01*
X60500Y-37547D02*
X59900Y-37547D01*
X59967Y-37547D02*
X60100Y-37414D01*
X60500Y-38066D02*
X59900Y-38533D01*
X60434Y-38066D02*
X59967Y-38066D01*
X59967Y-38066D02*
X59900Y-38133D01*
X59900Y-38133D02*
X59900Y-38466D01*
X59900Y-38466D02*
X59967Y-38533D01*
X59967Y-38533D02*
X60434Y-38533D01*
X60434Y-38533D02*
X60500Y-38466D01*
X60500Y-38466D02*
X60500Y-38133D01*
X60500Y-38133D02*
X60434Y-38066D01*
X48100Y-37380D02*
X47500Y-37380D01*
X47500Y-37380D02*
X47500Y-37780D01*
X47500Y-37780D02*
X47567Y-37847D01*
X47567Y-37847D02*
X47767Y-37847D01*
X47767Y-37847D02*
X47834Y-37780D01*
X47834Y-37780D02*
X47834Y-37380D01*
X47834Y-37580D02*
X48100Y-37847D01*
X48100Y-38633D02*
X48100Y-38166D01*
X48100Y-38166D02*
X47900Y-38166D01*
X47900Y-38166D02*
X47834Y-38233D01*
X47834Y-38233D02*
X47834Y-38566D01*
X47834Y-38566D02*
X47767Y-38633D01*
X47767Y-38633D02*
X47567Y-38633D01*
X47567Y-38633D02*
X47500Y-38566D01*
X47500Y-38566D02*
X47500Y-38233D01*
X47500Y-38233D02*
X47567Y-38166D01*
X50500Y-37414D02*
X50500Y-37680D01*
X50500Y-37547D02*
X49900Y-37547D01*
X49967Y-37547D02*
X50100Y-37414D01*
X50500Y-38066D02*
X49900Y-38533D01*
X50434Y-38066D02*
X49967Y-38066D01*
X49967Y-38066D02*
X49900Y-38133D01*
X49900Y-38133D02*
X49900Y-38466D01*
X49900Y-38466D02*
X49967Y-38533D01*
X49967Y-38533D02*
X50434Y-38533D01*
X50434Y-38533D02*
X50500Y-38466D01*
X50500Y-38466D02*
X50500Y-38133D01*
X50500Y-38133D02*
X50434Y-38066D01*
X70046Y-51050D02*
X70046Y-50450D01*
X70113Y-50450D02*
X69713Y-50450D01*
X69713Y-50450D02*
X69646Y-50517D01*
X69646Y-50517D02*
X69646Y-50984D01*
X69646Y-50984D02*
X69713Y-51050D01*
X69713Y-51050D02*
X70113Y-51050D01*
X69193Y-51050D02*
X68927Y-51050D01*
X69060Y-51050D02*
X69060Y-50450D01*
X69060Y-50517D02*
X69193Y-50650D01*
X68541Y-51050D02*
X68074Y-50450D01*
X68541Y-50984D02*
X68541Y-50517D01*
X68541Y-50517D02*
X68474Y-50450D01*
X68474Y-50450D02*
X68141Y-50450D01*
X68141Y-50450D02*
X68074Y-50517D01*
X68074Y-50517D02*
X68074Y-50984D01*
X68074Y-50984D02*
X68141Y-51050D01*
X68141Y-51050D02*
X68474Y-51050D01*
X68474Y-51050D02*
X68541Y-50984D01*
X70113Y-54950D02*
X70113Y-55550D01*
X70113Y-55550D02*
X69579Y-55550D01*
X68860Y-55550D02*
X69327Y-55550D01*
X69327Y-55550D02*
X69327Y-54950D01*
X69327Y-54950D02*
X68860Y-54950D01*
X69327Y-55217D02*
X69060Y-55217D01*
X68474Y-55550D02*
X68474Y-54950D01*
X68541Y-54950D02*
X68141Y-54950D01*
X68141Y-54950D02*
X68074Y-55017D01*
X68074Y-55017D02*
X68074Y-55484D01*
X68074Y-55484D02*
X68141Y-55550D01*
X68141Y-55550D02*
X68541Y-55550D01*
X69653Y-41050D02*
X69653Y-40450D01*
X69720Y-40450D02*
X69320Y-40450D01*
X69320Y-40450D02*
X69253Y-40517D01*
X69253Y-40517D02*
X69253Y-40984D01*
X69253Y-40984D02*
X69320Y-41050D01*
X69320Y-41050D02*
X69720Y-41050D01*
X68867Y-41050D02*
X68534Y-41050D01*
X68534Y-41050D02*
X68467Y-40984D01*
X68467Y-40984D02*
X68467Y-40517D01*
X68467Y-40517D02*
X68534Y-40450D01*
X68534Y-40450D02*
X68867Y-40450D01*
X68867Y-40450D02*
X68934Y-40517D01*
X68934Y-40517D02*
X68934Y-40717D01*
X68934Y-40717D02*
X68867Y-40784D01*
X68867Y-40784D02*
X68534Y-40784D01*
X68534Y-40784D02*
X68467Y-40717D01*
X70113Y-44950D02*
X70113Y-45550D01*
X70113Y-45550D02*
X69579Y-45550D01*
X68860Y-45550D02*
X69327Y-45550D01*
X69327Y-45550D02*
X69327Y-44950D01*
X69327Y-44950D02*
X68860Y-44950D01*
X69327Y-45217D02*
X69060Y-45217D01*
X68474Y-45550D02*
X68474Y-44950D01*
X68541Y-44950D02*
X68141Y-44950D01*
X68141Y-44950D02*
X68074Y-45017D01*
X68074Y-45017D02*
X68074Y-45484D01*
X68074Y-45484D02*
X68141Y-45550D01*
X68141Y-45550D02*
X68541Y-45550D01*
X69653Y-31050D02*
X69653Y-30450D01*
X69720Y-30450D02*
X69320Y-30450D01*
X69320Y-30450D02*
X69253Y-30517D01*
X69253Y-30517D02*
X69253Y-30984D01*
X69253Y-30984D02*
X69320Y-31050D01*
X69320Y-31050D02*
X69720Y-31050D01*
X68867Y-31050D02*
X68934Y-30984D01*
X68934Y-30984D02*
X68934Y-30784D01*
X68934Y-30784D02*
X68867Y-30717D01*
X68867Y-30717D02*
X68534Y-30717D01*
X68534Y-30717D02*
X68467Y-30650D01*
X68467Y-30650D02*
X68467Y-30517D01*
X68467Y-30517D02*
X68534Y-30450D01*
X68534Y-30450D02*
X68867Y-30450D01*
X68867Y-30450D02*
X68934Y-30517D01*
X68934Y-30517D02*
X68934Y-30650D01*
X68934Y-30650D02*
X68867Y-30717D01*
X68534Y-30717D02*
X68467Y-30784D01*
X68467Y-30784D02*
X68467Y-30984D01*
X68467Y-30984D02*
X68534Y-31050D01*
X68534Y-31050D02*
X68867Y-31050D01*
X70113Y-34950D02*
X70113Y-35550D01*
X70113Y-35550D02*
X69579Y-35550D01*
X68860Y-35550D02*
X69327Y-35550D01*
X69327Y-35550D02*
X69327Y-34950D01*
X69327Y-34950D02*
X68860Y-34950D01*
X69327Y-35217D02*
X69060Y-35217D01*
X68474Y-35550D02*
X68474Y-34950D01*
X68541Y-34950D02*
X68141Y-34950D01*
X68141Y-34950D02*
X68074Y-35017D01*
X68074Y-35017D02*
X68074Y-35484D01*
X68074Y-35484D02*
X68141Y-35550D01*
X68141Y-35550D02*
X68541Y-35550D01*
X59653Y-51050D02*
X59653Y-50450D01*
X59720Y-50450D02*
X59320Y-50450D01*
X59320Y-50450D02*
X59253Y-50517D01*
X59253Y-50517D02*
X59253Y-50984D01*
X59253Y-50984D02*
X59320Y-51050D01*
X59320Y-51050D02*
X59720Y-51050D01*
X58934Y-50450D02*
X58467Y-50450D01*
X58467Y-50450D02*
X58934Y-51050D01*
X60113Y-54950D02*
X60113Y-55550D01*
X60113Y-55550D02*
X59579Y-55550D01*
X58860Y-55550D02*
X59327Y-55550D01*
X59327Y-55550D02*
X59327Y-54950D01*
X59327Y-54950D02*
X58860Y-54950D01*
X59327Y-55217D02*
X59060Y-55217D01*
X58474Y-55550D02*
X58474Y-54950D01*
X58541Y-54950D02*
X58141Y-54950D01*
X58141Y-54950D02*
X58074Y-55017D01*
X58074Y-55017D02*
X58074Y-55484D01*
X58074Y-55484D02*
X58141Y-55550D01*
X58141Y-55550D02*
X58541Y-55550D01*
X59653Y-41050D02*
X59653Y-40450D01*
X59720Y-40450D02*
X59320Y-40450D01*
X59320Y-40450D02*
X59253Y-40517D01*
X59253Y-40517D02*
X59253Y-40984D01*
X59253Y-40984D02*
X59320Y-41050D01*
X59320Y-41050D02*
X59720Y-41050D01*
X58467Y-40517D02*
X58534Y-40450D01*
X58534Y-40450D02*
X58867Y-40450D01*
X58867Y-40450D02*
X58934Y-40517D01*
X58934Y-40517D02*
X58934Y-40984D01*
X58934Y-40984D02*
X58867Y-41050D01*
X58867Y-41050D02*
X58534Y-41050D01*
X58534Y-41050D02*
X58467Y-40984D01*
X58467Y-40984D02*
X58467Y-40784D01*
X58467Y-40784D02*
X58534Y-40717D01*
X58534Y-40717D02*
X58867Y-40717D01*
X58867Y-40717D02*
X58934Y-40784D01*
X60113Y-44950D02*
X60113Y-45550D01*
X60113Y-45550D02*
X59579Y-45550D01*
X58860Y-45550D02*
X59327Y-45550D01*
X59327Y-45550D02*
X59327Y-44950D01*
X59327Y-44950D02*
X58860Y-44950D01*
X59327Y-45217D02*
X59060Y-45217D01*
X58474Y-45550D02*
X58474Y-44950D01*
X58541Y-44950D02*
X58141Y-44950D01*
X58141Y-44950D02*
X58074Y-45017D01*
X58074Y-45017D02*
X58074Y-45484D01*
X58074Y-45484D02*
X58141Y-45550D01*
X58141Y-45550D02*
X58541Y-45550D01*
X59653Y-31050D02*
X59653Y-30450D01*
X59720Y-30450D02*
X59320Y-30450D01*
X59320Y-30450D02*
X59253Y-30517D01*
X59253Y-30517D02*
X59253Y-30984D01*
X59253Y-30984D02*
X59320Y-31050D01*
X59320Y-31050D02*
X59720Y-31050D01*
X58934Y-30917D02*
X58934Y-30984D01*
X58934Y-30984D02*
X58867Y-31050D01*
X58867Y-31050D02*
X58534Y-31050D01*
X58534Y-31050D02*
X58467Y-30984D01*
X58467Y-30984D02*
X58467Y-30784D01*
X58467Y-30784D02*
X58600Y-30650D01*
X58600Y-30650D02*
X58934Y-30650D01*
X58934Y-30650D02*
X58934Y-30450D01*
X58934Y-30450D02*
X58467Y-30450D01*
X60113Y-34950D02*
X60113Y-35550D01*
X60113Y-35550D02*
X59579Y-35550D01*
X58860Y-35550D02*
X59327Y-35550D01*
X59327Y-35550D02*
X59327Y-34950D01*
X59327Y-34950D02*
X58860Y-34950D01*
X59327Y-35217D02*
X59060Y-35217D01*
X58474Y-35550D02*
X58474Y-34950D01*
X58541Y-34950D02*
X58141Y-34950D01*
X58141Y-34950D02*
X58074Y-35017D01*
X58074Y-35017D02*
X58074Y-35484D01*
X58074Y-35484D02*
X58141Y-35550D01*
X58141Y-35550D02*
X58541Y-35550D01*
X49653Y-51050D02*
X49653Y-50450D01*
X49720Y-50450D02*
X49320Y-50450D01*
X49320Y-50450D02*
X49253Y-50517D01*
X49253Y-50517D02*
X49253Y-50984D01*
X49253Y-50984D02*
X49320Y-51050D01*
X49320Y-51050D02*
X49720Y-51050D01*
X48600Y-51050D02*
X48600Y-50450D01*
X48600Y-50450D02*
X48934Y-50917D01*
X48934Y-50917D02*
X48467Y-50917D01*
X50113Y-54950D02*
X50113Y-55550D01*
X50113Y-55550D02*
X49579Y-55550D01*
X48860Y-55550D02*
X49327Y-55550D01*
X49327Y-55550D02*
X49327Y-54950D01*
X49327Y-54950D02*
X48860Y-54950D01*
X49327Y-55217D02*
X49060Y-55217D01*
X48474Y-55550D02*
X48474Y-54950D01*
X48541Y-54950D02*
X48141Y-54950D01*
X48141Y-54950D02*
X48074Y-55017D01*
X48074Y-55017D02*
X48074Y-55484D01*
X48074Y-55484D02*
X48141Y-55550D01*
X48141Y-55550D02*
X48541Y-55550D01*
X49653Y-41050D02*
X49653Y-40450D01*
X49720Y-40450D02*
X49320Y-40450D01*
X49320Y-40450D02*
X49253Y-40517D01*
X49253Y-40517D02*
X49253Y-40984D01*
X49253Y-40984D02*
X49320Y-41050D01*
X49320Y-41050D02*
X49720Y-41050D01*
X48934Y-40450D02*
X48467Y-40450D01*
X48467Y-40450D02*
X48467Y-40517D01*
X48467Y-40517D02*
X48734Y-40717D01*
X48734Y-40717D02*
X48534Y-40717D01*
X48534Y-40717D02*
X48467Y-40784D01*
X48467Y-40784D02*
X48467Y-40984D01*
X48467Y-40984D02*
X48534Y-41050D01*
X48534Y-41050D02*
X48867Y-41050D01*
X48867Y-41050D02*
X48934Y-40984D01*
X50113Y-44950D02*
X50113Y-45550D01*
X50113Y-45550D02*
X49579Y-45550D01*
X48860Y-45550D02*
X49327Y-45550D01*
X49327Y-45550D02*
X49327Y-44950D01*
X49327Y-44950D02*
X48860Y-44950D01*
X49327Y-45217D02*
X49060Y-45217D01*
X48474Y-45550D02*
X48474Y-44950D01*
X48541Y-44950D02*
X48141Y-44950D01*
X48141Y-44950D02*
X48074Y-45017D01*
X48074Y-45017D02*
X48074Y-45484D01*
X48074Y-45484D02*
X48141Y-45550D01*
X48141Y-45550D02*
X48541Y-45550D01*
X49653Y-31050D02*
X49653Y-30450D01*
X49720Y-30450D02*
X49320Y-30450D01*
X49320Y-30450D02*
X49253Y-30517D01*
X49253Y-30517D02*
X49253Y-30984D01*
X49253Y-30984D02*
X49320Y-31050D01*
X49320Y-31050D02*
X49720Y-31050D01*
X48467Y-31050D02*
X48934Y-31050D01*
X48934Y-31050D02*
X48934Y-30850D01*
X48934Y-30850D02*
X48867Y-30784D01*
X48867Y-30784D02*
X48534Y-30784D01*
X48534Y-30784D02*
X48467Y-30717D01*
X48467Y-30717D02*
X48467Y-30517D01*
X48467Y-30517D02*
X48534Y-30450D01*
X48534Y-30450D02*
X48867Y-30450D01*
X48867Y-30450D02*
X48934Y-30517D01*
X50113Y-34950D02*
X50113Y-35550D01*
X50113Y-35550D02*
X49579Y-35550D01*
X48860Y-35550D02*
X49327Y-35550D01*
X49327Y-35550D02*
X49327Y-34950D01*
X49327Y-34950D02*
X48860Y-34950D01*
X49327Y-35217D02*
X49060Y-35217D01*
X48474Y-35550D02*
X48474Y-34950D01*
X48541Y-34950D02*
X48141Y-34950D01*
X48141Y-34950D02*
X48074Y-35017D01*
X48074Y-35017D02*
X48074Y-35484D01*
X48074Y-35484D02*
X48141Y-35550D01*
X48141Y-35550D02*
X48541Y-35550D01*
M02*
