G04 (created by PCBnew (20090216-final)) date Mon 01 Feb 2010 05:23:16 PM PST*
G01*
G70*
G90*
%MOIN*%
G04 Gerber Fmt 3.4, Leading zero omitted, Abs format*
%FSLAX34Y34*%
G04 APERTURE LIST*
%ADD10C,0.009000*%
%ADD11C,0.078000*%
%ADD12C,0.260000*%
%ADD13C,0.080000*%
%ADD14C,0.140000*%
%ADD15C,0.060000*%
%ADD16C,0.073000*%
%ADD17R,0.073000X0.073000*%
%ADD18C,0.053000*%
%ADD19R,0.098000X0.055000*%
%ADD20R,0.102000X0.063000*%
%ADD21C,0.150000*%
%ADD22C,0.032000*%
%ADD23C,0.010000*%
G04 APERTURE END LIST*
G54D10*
X74000Y-28000D02*
X44000Y-28000D01*
X74000Y-58000D02*
X74000Y-28000D01*
X44000Y-58000D02*
X74000Y-58000D01*
X44000Y-28000D02*
X44000Y-58000D01*
G54D11*
X54000Y-36000D03*
X55000Y-36000D03*
X56000Y-36000D03*
X57000Y-36000D03*
X53000Y-36000D03*
X51000Y-36000D03*
G54D12*
X52000Y-38500D03*
G54D13*
X62520Y-56180D03*
X64000Y-56180D03*
X65480Y-56180D03*
G54D14*
X61440Y-55000D03*
X66560Y-55000D03*
X61830Y-52240D03*
X66170Y-52240D03*
G54D15*
X66000Y-36500D03*
X66000Y-35500D03*
X62000Y-35500D03*
X62000Y-36500D03*
X51000Y-46500D03*
X51000Y-47500D03*
X57000Y-47500D03*
X57000Y-46500D03*
G54D16*
X54500Y-56000D03*
G54D17*
X53500Y-56000D03*
G54D18*
X53500Y-57000D03*
X54500Y-57000D03*
G54D19*
X69000Y-37040D03*
X69000Y-38960D03*
X59000Y-37040D03*
X59000Y-38960D03*
X49000Y-37040D03*
X49000Y-38960D03*
G54D20*
X69000Y-52450D03*
X69000Y-53550D03*
X69000Y-42450D03*
X69000Y-43550D03*
X69000Y-32450D03*
X69000Y-33550D03*
X59000Y-52450D03*
X59000Y-53550D03*
X59000Y-42450D03*
X59000Y-43550D03*
X59000Y-32450D03*
X59000Y-33550D03*
X49000Y-52450D03*
X49000Y-53550D03*
X49000Y-42450D03*
X49000Y-43550D03*
X49000Y-32450D03*
X49000Y-33550D03*
G54D13*
X64000Y-44000D03*
X64000Y-46000D03*
G54D21*
X46000Y-30000D03*
X72000Y-30000D03*
X46000Y-56000D03*
X72000Y-56000D03*
G54D22*
X64000Y-46000D02*
X64000Y-56180D01*
X63276Y-55424D02*
X62520Y-56180D01*
X63276Y-44724D02*
X63276Y-55424D01*
X64000Y-44000D02*
X63276Y-44724D01*
X56000Y-53550D02*
X56000Y-36000D01*
X49000Y-53550D02*
X56000Y-53550D01*
X56000Y-53550D02*
X59000Y-53550D01*
X61839Y-57047D02*
X59000Y-54208D01*
X66528Y-57047D02*
X61839Y-57047D01*
X69000Y-54575D02*
X66528Y-57047D01*
X69000Y-53550D02*
X69000Y-54575D01*
X59000Y-53550D02*
X59000Y-54208D01*
X57000Y-47500D02*
X57000Y-46500D01*
X53000Y-35358D02*
X53000Y-36000D01*
X53092Y-35266D02*
X53000Y-35358D01*
X57613Y-35266D02*
X53092Y-35266D01*
X57725Y-35378D02*
X57613Y-35266D01*
X57725Y-45775D02*
X57725Y-35378D01*
X57000Y-46500D02*
X57725Y-45775D01*
X50124Y-36876D02*
X51000Y-36000D01*
X50124Y-45624D02*
X50124Y-36876D01*
X51000Y-46500D02*
X50124Y-45624D01*
X49000Y-32450D02*
X59000Y-32450D01*
X66000Y-35500D02*
X66000Y-36500D01*
X69000Y-32450D02*
X68147Y-32450D01*
X66000Y-32792D02*
X66000Y-35500D01*
X65658Y-32450D02*
X66000Y-32792D01*
X59000Y-32450D02*
X65658Y-32450D01*
X67805Y-32792D02*
X68147Y-32450D01*
X66000Y-32792D02*
X67805Y-32792D01*
X69000Y-33550D02*
X69000Y-37040D01*
X69000Y-42450D02*
X69000Y-38960D01*
X59000Y-33550D02*
X59000Y-37040D01*
X59000Y-42450D02*
X59000Y-38960D01*
X49000Y-33550D02*
X49000Y-37040D01*
X49000Y-42450D02*
X49000Y-38960D01*
X69000Y-43550D02*
X69000Y-52450D01*
X59000Y-43550D02*
X59000Y-52450D01*
X49000Y-43550D02*
X49000Y-52450D01*
G54D23*
X44245Y-57685D02*
X73755Y-57685D01*
X44245Y-57605D02*
X73755Y-57605D01*
X44245Y-57525D02*
X73755Y-57525D01*
X66588Y-57445D02*
X73755Y-57445D01*
X54771Y-57445D02*
X61778Y-57445D01*
X53771Y-57445D02*
X54229Y-57445D01*
X44245Y-57445D02*
X53229Y-57445D01*
X66776Y-57365D02*
X73755Y-57365D01*
X54863Y-57365D02*
X61591Y-57365D01*
X53863Y-57365D02*
X54137Y-57365D01*
X44245Y-57365D02*
X53137Y-57365D01*
X66870Y-57285D02*
X73755Y-57285D01*
X54938Y-57285D02*
X61497Y-57285D01*
X53938Y-57285D02*
X54060Y-57285D01*
X44245Y-57285D02*
X53060Y-57285D01*
X66950Y-57205D02*
X73755Y-57205D01*
X54972Y-57205D02*
X61417Y-57205D01*
X53972Y-57205D02*
X54027Y-57205D01*
X44245Y-57205D02*
X53027Y-57205D01*
X67030Y-57125D02*
X73755Y-57125D01*
X55005Y-57125D02*
X61337Y-57125D01*
X44245Y-57125D02*
X52994Y-57125D01*
X67110Y-57045D02*
X73755Y-57045D01*
X55015Y-57045D02*
X61257Y-57045D01*
X44245Y-57045D02*
X52985Y-57045D01*
X72282Y-56965D02*
X73755Y-56965D01*
X67190Y-56965D02*
X71716Y-56965D01*
X55015Y-56965D02*
X61177Y-56965D01*
X46282Y-56965D02*
X52985Y-56965D01*
X44245Y-56965D02*
X45716Y-56965D01*
X72476Y-56885D02*
X73755Y-56885D01*
X67270Y-56885D02*
X71524Y-56885D01*
X55010Y-56885D02*
X61097Y-56885D01*
X46476Y-56885D02*
X52991Y-56885D01*
X44245Y-56885D02*
X45524Y-56885D01*
X72609Y-56805D02*
X73755Y-56805D01*
X67350Y-56805D02*
X71391Y-56805D01*
X54977Y-56805D02*
X61017Y-56805D01*
X46609Y-56805D02*
X53024Y-56805D01*
X44245Y-56805D02*
X45391Y-56805D01*
X72689Y-56725D02*
X73755Y-56725D01*
X67430Y-56725D02*
X71311Y-56725D01*
X54944Y-56725D02*
X60937Y-56725D01*
X46689Y-56725D02*
X53057Y-56725D01*
X44245Y-56725D02*
X45311Y-56725D01*
X72769Y-56645D02*
X73755Y-56645D01*
X67510Y-56645D02*
X71231Y-56645D01*
X54873Y-56645D02*
X60857Y-56645D01*
X46769Y-56645D02*
X53127Y-56645D01*
X44245Y-56645D02*
X45231Y-56645D01*
X72847Y-56565D02*
X73755Y-56565D01*
X67590Y-56565D02*
X71151Y-56565D01*
X66012Y-56565D02*
X66430Y-56565D01*
X64533Y-56565D02*
X64947Y-56565D01*
X54793Y-56565D02*
X60777Y-56565D01*
X46847Y-56565D02*
X52983Y-56565D01*
X44245Y-56565D02*
X45151Y-56565D01*
X72881Y-56485D02*
X73755Y-56485D01*
X67670Y-56485D02*
X71118Y-56485D01*
X66056Y-56485D02*
X66510Y-56485D01*
X64576Y-56485D02*
X64903Y-56485D01*
X54884Y-56485D02*
X60697Y-56485D01*
X46881Y-56485D02*
X52915Y-56485D01*
X44245Y-56485D02*
X45118Y-56485D01*
X72914Y-56405D02*
X73755Y-56405D01*
X67750Y-56405D02*
X71085Y-56405D01*
X66089Y-56405D02*
X66590Y-56405D01*
X64609Y-56405D02*
X64870Y-56405D01*
X54964Y-56405D02*
X60617Y-56405D01*
X46914Y-56405D02*
X52886Y-56405D01*
X44245Y-56405D02*
X45085Y-56405D01*
X72947Y-56325D02*
X73755Y-56325D01*
X67830Y-56325D02*
X71052Y-56325D01*
X66122Y-56325D02*
X66670Y-56325D01*
X64642Y-56325D02*
X64837Y-56325D01*
X55030Y-56325D02*
X60537Y-56325D01*
X46947Y-56325D02*
X52886Y-56325D01*
X44245Y-56325D02*
X45052Y-56325D01*
X72981Y-56245D02*
X73755Y-56245D01*
X67910Y-56245D02*
X71019Y-56245D01*
X66129Y-56245D02*
X66750Y-56245D01*
X64649Y-56245D02*
X64831Y-56245D01*
X55064Y-56245D02*
X60457Y-56245D01*
X46981Y-56245D02*
X52886Y-56245D01*
X44245Y-56245D02*
X45019Y-56245D01*
X73000Y-56165D02*
X73755Y-56165D01*
X67990Y-56165D02*
X71000Y-56165D01*
X66129Y-56165D02*
X66830Y-56165D01*
X64649Y-56165D02*
X64831Y-56165D01*
X55097Y-56165D02*
X60377Y-56165D01*
X47000Y-56165D02*
X52886Y-56165D01*
X44245Y-56165D02*
X45000Y-56165D01*
X73000Y-56085D02*
X73755Y-56085D01*
X68070Y-56085D02*
X71000Y-56085D01*
X66129Y-56085D02*
X66910Y-56085D01*
X64649Y-56085D02*
X64831Y-56085D01*
X55115Y-56085D02*
X60297Y-56085D01*
X47000Y-56085D02*
X52886Y-56085D01*
X44245Y-56085D02*
X45000Y-56085D01*
X73000Y-56005D02*
X73755Y-56005D01*
X68150Y-56005D02*
X71000Y-56005D01*
X66110Y-56005D02*
X66990Y-56005D01*
X64630Y-56005D02*
X64851Y-56005D01*
X55115Y-56005D02*
X60217Y-56005D01*
X47000Y-56005D02*
X52886Y-56005D01*
X44245Y-56005D02*
X45000Y-56005D01*
X73000Y-55925D02*
X73755Y-55925D01*
X68230Y-55925D02*
X71000Y-55925D01*
X66808Y-55925D02*
X67070Y-55925D01*
X66077Y-55925D02*
X66309Y-55925D01*
X64597Y-55925D02*
X64884Y-55925D01*
X55115Y-55925D02*
X60137Y-55925D01*
X47000Y-55925D02*
X52886Y-55925D01*
X44245Y-55925D02*
X45000Y-55925D01*
X73000Y-55845D02*
X73755Y-55845D01*
X68310Y-55845D02*
X71000Y-55845D01*
X67002Y-55845D02*
X67150Y-55845D01*
X66044Y-55845D02*
X66117Y-55845D01*
X64564Y-55845D02*
X64917Y-55845D01*
X55102Y-55845D02*
X60057Y-55845D01*
X47000Y-55845D02*
X52886Y-55845D01*
X44245Y-55845D02*
X45000Y-55845D01*
X72985Y-55765D02*
X73755Y-55765D01*
X68390Y-55765D02*
X71015Y-55765D01*
X67138Y-55765D02*
X67230Y-55765D01*
X64503Y-55765D02*
X64977Y-55765D01*
X55068Y-55765D02*
X59977Y-55765D01*
X46985Y-55765D02*
X52886Y-55765D01*
X44245Y-55765D02*
X45015Y-55765D01*
X72952Y-55685D02*
X73755Y-55685D01*
X68470Y-55685D02*
X71048Y-55685D01*
X67218Y-55685D02*
X67310Y-55685D01*
X64423Y-55685D02*
X65057Y-55685D01*
X55035Y-55685D02*
X59897Y-55685D01*
X46952Y-55685D02*
X52886Y-55685D01*
X44245Y-55685D02*
X45048Y-55685D01*
X72919Y-55605D02*
X73755Y-55605D01*
X68550Y-55605D02*
X71082Y-55605D01*
X67298Y-55605D02*
X67390Y-55605D01*
X65788Y-55605D02*
X65821Y-55605D01*
X64410Y-55605D02*
X65173Y-55605D01*
X62177Y-55605D02*
X62211Y-55605D01*
X54975Y-55605D02*
X59817Y-55605D01*
X46919Y-55605D02*
X52886Y-55605D01*
X44245Y-55605D02*
X45082Y-55605D01*
X72886Y-55525D02*
X73755Y-55525D01*
X68630Y-55525D02*
X71115Y-55525D01*
X67370Y-55525D02*
X67470Y-55525D01*
X64410Y-55525D02*
X65749Y-55525D01*
X62250Y-55525D02*
X62595Y-55525D01*
X54895Y-55525D02*
X59737Y-55525D01*
X54089Y-55525D02*
X54105Y-55525D01*
X46886Y-55525D02*
X52912Y-55525D01*
X44245Y-55525D02*
X45115Y-55525D01*
X72853Y-55445D02*
X73755Y-55445D01*
X68710Y-55445D02*
X71148Y-55445D01*
X67404Y-55445D02*
X67550Y-55445D01*
X64410Y-55445D02*
X65716Y-55445D01*
X62284Y-55445D02*
X62675Y-55445D01*
X54768Y-55445D02*
X59657Y-55445D01*
X54027Y-55445D02*
X54234Y-55445D01*
X46853Y-55445D02*
X52973Y-55445D01*
X44245Y-55445D02*
X45148Y-55445D01*
X72779Y-55365D02*
X73755Y-55365D01*
X68790Y-55365D02*
X71221Y-55365D01*
X67437Y-55365D02*
X67630Y-55365D01*
X64410Y-55365D02*
X65683Y-55365D01*
X62317Y-55365D02*
X62755Y-55365D01*
X46779Y-55365D02*
X59577Y-55365D01*
X44245Y-55365D02*
X45221Y-55365D01*
X72699Y-55285D02*
X73755Y-55285D01*
X68870Y-55285D02*
X71301Y-55285D01*
X67470Y-55285D02*
X67710Y-55285D01*
X64410Y-55285D02*
X65650Y-55285D01*
X62350Y-55285D02*
X62835Y-55285D01*
X46699Y-55285D02*
X59497Y-55285D01*
X44245Y-55285D02*
X45301Y-55285D01*
X72619Y-55205D02*
X73755Y-55205D01*
X68950Y-55205D02*
X71381Y-55205D01*
X67503Y-55205D02*
X67790Y-55205D01*
X64410Y-55205D02*
X65617Y-55205D01*
X62383Y-55205D02*
X62866Y-55205D01*
X46619Y-55205D02*
X59417Y-55205D01*
X44245Y-55205D02*
X45381Y-55205D01*
X72500Y-55125D02*
X73755Y-55125D01*
X69030Y-55125D02*
X71500Y-55125D01*
X67510Y-55125D02*
X67870Y-55125D01*
X64410Y-55125D02*
X65610Y-55125D01*
X62390Y-55125D02*
X62866Y-55125D01*
X46500Y-55125D02*
X59337Y-55125D01*
X44245Y-55125D02*
X45500Y-55125D01*
X72308Y-55045D02*
X73755Y-55045D01*
X69110Y-55045D02*
X71692Y-55045D01*
X67510Y-55045D02*
X67950Y-55045D01*
X64410Y-55045D02*
X65610Y-55045D01*
X62390Y-55045D02*
X62866Y-55045D01*
X60417Y-55045D02*
X60490Y-55045D01*
X46308Y-55045D02*
X59257Y-55045D01*
X44245Y-55045D02*
X45692Y-55045D01*
X69190Y-54965D02*
X73755Y-54965D01*
X67510Y-54965D02*
X68030Y-54965D01*
X64410Y-54965D02*
X65610Y-54965D01*
X62390Y-54965D02*
X62866Y-54965D01*
X60337Y-54965D02*
X60490Y-54965D01*
X44245Y-54965D02*
X59177Y-54965D01*
X69270Y-54885D02*
X73755Y-54885D01*
X67510Y-54885D02*
X68110Y-54885D01*
X64410Y-54885D02*
X65610Y-54885D01*
X62390Y-54885D02*
X62866Y-54885D01*
X60257Y-54885D02*
X60490Y-54885D01*
X44245Y-54885D02*
X59097Y-54885D01*
X69329Y-54805D02*
X73755Y-54805D01*
X67508Y-54805D02*
X68190Y-54805D01*
X64410Y-54805D02*
X65613Y-54805D01*
X62388Y-54805D02*
X62866Y-54805D01*
X60177Y-54805D02*
X60493Y-54805D01*
X44245Y-54805D02*
X59017Y-54805D01*
X69380Y-54725D02*
X73755Y-54725D01*
X67475Y-54725D02*
X68270Y-54725D01*
X64410Y-54725D02*
X65646Y-54725D01*
X62355Y-54725D02*
X62866Y-54725D01*
X60097Y-54725D02*
X60526Y-54725D01*
X44245Y-54725D02*
X58937Y-54725D01*
X69396Y-54645D02*
X73755Y-54645D01*
X67442Y-54645D02*
X68350Y-54645D01*
X64410Y-54645D02*
X65679Y-54645D01*
X62322Y-54645D02*
X62866Y-54645D01*
X60017Y-54645D02*
X60559Y-54645D01*
X44245Y-54645D02*
X58857Y-54645D01*
X69410Y-54565D02*
X73755Y-54565D01*
X67409Y-54565D02*
X68430Y-54565D01*
X64410Y-54565D02*
X65712Y-54565D01*
X62289Y-54565D02*
X62866Y-54565D01*
X59937Y-54565D02*
X60592Y-54565D01*
X44245Y-54565D02*
X58777Y-54565D01*
X69410Y-54485D02*
X73755Y-54485D01*
X67376Y-54485D02*
X68510Y-54485D01*
X64410Y-54485D02*
X65746Y-54485D01*
X62256Y-54485D02*
X62866Y-54485D01*
X59857Y-54485D02*
X60626Y-54485D01*
X44245Y-54485D02*
X58701Y-54485D01*
X69410Y-54405D02*
X73755Y-54405D01*
X67309Y-54405D02*
X68590Y-54405D01*
X64410Y-54405D02*
X65811Y-54405D01*
X62189Y-54405D02*
X62866Y-54405D01*
X59777Y-54405D02*
X60692Y-54405D01*
X44245Y-54405D02*
X58647Y-54405D01*
X69410Y-54325D02*
X73755Y-54325D01*
X67229Y-54325D02*
X68590Y-54325D01*
X64410Y-54325D02*
X65891Y-54325D01*
X62109Y-54325D02*
X62866Y-54325D01*
X59697Y-54325D02*
X60772Y-54325D01*
X44245Y-54325D02*
X58613Y-54325D01*
X69410Y-54245D02*
X73755Y-54245D01*
X67149Y-54245D02*
X68590Y-54245D01*
X64410Y-54245D02*
X65971Y-54245D01*
X62029Y-54245D02*
X62866Y-54245D01*
X59617Y-54245D02*
X60852Y-54245D01*
X44245Y-54245D02*
X58597Y-54245D01*
X69410Y-54165D02*
X73755Y-54165D01*
X67027Y-54165D02*
X68590Y-54165D01*
X64410Y-54165D02*
X66094Y-54165D01*
X61907Y-54165D02*
X62866Y-54165D01*
X59537Y-54165D02*
X60974Y-54165D01*
X44245Y-54165D02*
X58590Y-54165D01*
X69629Y-54085D02*
X73755Y-54085D01*
X66835Y-54085D02*
X68370Y-54085D01*
X64410Y-54085D02*
X66288Y-54085D01*
X61715Y-54085D02*
X62866Y-54085D01*
X59629Y-54085D02*
X61168Y-54085D01*
X49629Y-54085D02*
X58370Y-54085D01*
X44245Y-54085D02*
X48370Y-54085D01*
X69721Y-54005D02*
X73755Y-54005D01*
X64410Y-54005D02*
X68278Y-54005D01*
X59721Y-54005D02*
X62866Y-54005D01*
X49721Y-54005D02*
X58278Y-54005D01*
X44245Y-54005D02*
X48278Y-54005D01*
X69754Y-53925D02*
X73755Y-53925D01*
X64410Y-53925D02*
X68245Y-53925D01*
X59754Y-53925D02*
X62866Y-53925D01*
X44245Y-53925D02*
X48245Y-53925D01*
X69759Y-53845D02*
X73755Y-53845D01*
X64410Y-53845D02*
X68241Y-53845D01*
X59759Y-53845D02*
X62866Y-53845D01*
X44245Y-53845D02*
X48241Y-53845D01*
X69759Y-53765D02*
X73755Y-53765D01*
X64410Y-53765D02*
X68241Y-53765D01*
X59759Y-53765D02*
X62866Y-53765D01*
X44245Y-53765D02*
X48241Y-53765D01*
X69759Y-53685D02*
X73755Y-53685D01*
X64410Y-53685D02*
X68241Y-53685D01*
X59759Y-53685D02*
X62866Y-53685D01*
X44245Y-53685D02*
X48241Y-53685D01*
X69759Y-53605D02*
X73755Y-53605D01*
X64410Y-53605D02*
X68241Y-53605D01*
X59759Y-53605D02*
X62866Y-53605D01*
X44245Y-53605D02*
X48241Y-53605D01*
X69759Y-53525D02*
X73755Y-53525D01*
X64410Y-53525D02*
X68241Y-53525D01*
X59759Y-53525D02*
X62866Y-53525D01*
X44245Y-53525D02*
X48241Y-53525D01*
X69759Y-53445D02*
X73755Y-53445D01*
X64410Y-53445D02*
X68241Y-53445D01*
X59759Y-53445D02*
X62866Y-53445D01*
X44245Y-53445D02*
X48241Y-53445D01*
X69759Y-53365D02*
X73755Y-53365D01*
X64410Y-53365D02*
X68241Y-53365D01*
X59759Y-53365D02*
X62866Y-53365D01*
X44245Y-53365D02*
X48241Y-53365D01*
X69759Y-53285D02*
X73755Y-53285D01*
X64410Y-53285D02*
X68241Y-53285D01*
X59759Y-53285D02*
X62866Y-53285D01*
X44245Y-53285D02*
X48241Y-53285D01*
X69759Y-53205D02*
X73755Y-53205D01*
X64410Y-53205D02*
X68241Y-53205D01*
X59759Y-53205D02*
X62866Y-53205D01*
X44245Y-53205D02*
X48241Y-53205D01*
X69734Y-53125D02*
X73755Y-53125D01*
X66515Y-53125D02*
X68267Y-53125D01*
X64410Y-53125D02*
X65823Y-53125D01*
X62175Y-53125D02*
X62866Y-53125D01*
X59734Y-53125D02*
X61483Y-53125D01*
X56410Y-53125D02*
X58266Y-53125D01*
X49734Y-53125D02*
X55590Y-53125D01*
X44245Y-53125D02*
X48267Y-53125D01*
X69672Y-53045D02*
X73755Y-53045D01*
X66708Y-53045D02*
X68328Y-53045D01*
X64410Y-53045D02*
X65631Y-53045D01*
X62368Y-53045D02*
X62866Y-53045D01*
X59672Y-53045D02*
X61291Y-53045D01*
X56410Y-53045D02*
X58328Y-53045D01*
X49672Y-53045D02*
X55590Y-53045D01*
X44245Y-53045D02*
X48328Y-53045D01*
X69662Y-52965D02*
X73755Y-52965D01*
X66788Y-52965D02*
X68338Y-52965D01*
X64410Y-52965D02*
X65551Y-52965D01*
X62448Y-52965D02*
X62866Y-52965D01*
X59662Y-52965D02*
X61211Y-52965D01*
X56410Y-52965D02*
X58338Y-52965D01*
X49662Y-52965D02*
X55590Y-52965D01*
X44245Y-52965D02*
X48338Y-52965D01*
X69729Y-52885D02*
X73755Y-52885D01*
X66868Y-52885D02*
X68270Y-52885D01*
X64410Y-52885D02*
X65471Y-52885D01*
X62528Y-52885D02*
X62866Y-52885D01*
X59729Y-52885D02*
X61131Y-52885D01*
X56410Y-52885D02*
X58270Y-52885D01*
X49729Y-52885D02*
X55590Y-52885D01*
X44245Y-52885D02*
X48270Y-52885D01*
X69759Y-52805D02*
X73755Y-52805D01*
X66948Y-52805D02*
X68241Y-52805D01*
X64410Y-52805D02*
X65391Y-52805D01*
X62608Y-52805D02*
X62866Y-52805D01*
X59759Y-52805D02*
X61051Y-52805D01*
X56410Y-52805D02*
X58241Y-52805D01*
X49759Y-52805D02*
X55590Y-52805D01*
X44245Y-52805D02*
X48241Y-52805D01*
X69759Y-52725D02*
X73755Y-52725D01*
X66997Y-52725D02*
X68241Y-52725D01*
X64410Y-52725D02*
X65342Y-52725D01*
X62657Y-52725D02*
X62866Y-52725D01*
X59759Y-52725D02*
X61002Y-52725D01*
X56410Y-52725D02*
X58241Y-52725D01*
X49759Y-52725D02*
X55590Y-52725D01*
X44245Y-52725D02*
X48241Y-52725D01*
X69759Y-52645D02*
X73755Y-52645D01*
X67030Y-52645D02*
X68241Y-52645D01*
X64410Y-52645D02*
X65309Y-52645D01*
X62690Y-52645D02*
X62866Y-52645D01*
X59759Y-52645D02*
X60969Y-52645D01*
X56410Y-52645D02*
X58241Y-52645D01*
X49759Y-52645D02*
X55590Y-52645D01*
X44245Y-52645D02*
X48241Y-52645D01*
X69759Y-52565D02*
X73755Y-52565D01*
X67063Y-52565D02*
X68241Y-52565D01*
X64410Y-52565D02*
X65276Y-52565D01*
X62723Y-52565D02*
X62866Y-52565D01*
X59759Y-52565D02*
X60936Y-52565D01*
X56410Y-52565D02*
X58241Y-52565D01*
X49759Y-52565D02*
X55590Y-52565D01*
X44245Y-52565D02*
X48241Y-52565D01*
X69759Y-52485D02*
X73755Y-52485D01*
X67097Y-52485D02*
X68241Y-52485D01*
X64410Y-52485D02*
X65243Y-52485D01*
X62757Y-52485D02*
X62866Y-52485D01*
X59759Y-52485D02*
X60903Y-52485D01*
X56410Y-52485D02*
X58241Y-52485D01*
X49759Y-52485D02*
X55590Y-52485D01*
X44245Y-52485D02*
X48241Y-52485D01*
X69759Y-52405D02*
X73755Y-52405D01*
X67120Y-52405D02*
X68241Y-52405D01*
X64410Y-52405D02*
X65220Y-52405D01*
X62780Y-52405D02*
X62866Y-52405D01*
X59759Y-52405D02*
X60880Y-52405D01*
X56410Y-52405D02*
X58241Y-52405D01*
X49759Y-52405D02*
X55590Y-52405D01*
X44245Y-52405D02*
X48241Y-52405D01*
X69759Y-52325D02*
X73755Y-52325D01*
X67120Y-52325D02*
X68241Y-52325D01*
X64410Y-52325D02*
X65220Y-52325D01*
X62780Y-52325D02*
X62866Y-52325D01*
X59759Y-52325D02*
X60880Y-52325D01*
X56410Y-52325D02*
X58241Y-52325D01*
X49759Y-52325D02*
X55590Y-52325D01*
X44245Y-52325D02*
X48241Y-52325D01*
X69759Y-52245D02*
X73755Y-52245D01*
X67120Y-52245D02*
X68241Y-52245D01*
X64410Y-52245D02*
X65220Y-52245D01*
X62780Y-52245D02*
X62866Y-52245D01*
X59759Y-52245D02*
X60880Y-52245D01*
X56410Y-52245D02*
X58241Y-52245D01*
X49759Y-52245D02*
X55590Y-52245D01*
X44245Y-52245D02*
X48241Y-52245D01*
X69759Y-52165D02*
X73755Y-52165D01*
X67120Y-52165D02*
X68241Y-52165D01*
X64410Y-52165D02*
X65220Y-52165D01*
X62780Y-52165D02*
X62866Y-52165D01*
X59759Y-52165D02*
X60880Y-52165D01*
X56410Y-52165D02*
X58241Y-52165D01*
X49759Y-52165D02*
X55590Y-52165D01*
X44245Y-52165D02*
X48241Y-52165D01*
X69759Y-52085D02*
X73755Y-52085D01*
X67120Y-52085D02*
X68241Y-52085D01*
X64410Y-52085D02*
X65220Y-52085D01*
X62780Y-52085D02*
X62866Y-52085D01*
X59759Y-52085D02*
X60880Y-52085D01*
X56410Y-52085D02*
X58241Y-52085D01*
X49759Y-52085D02*
X55590Y-52085D01*
X44245Y-52085D02*
X48241Y-52085D01*
X69726Y-52005D02*
X73755Y-52005D01*
X67101Y-52005D02*
X68275Y-52005D01*
X64410Y-52005D02*
X65239Y-52005D01*
X62761Y-52005D02*
X62866Y-52005D01*
X59726Y-52005D02*
X60899Y-52005D01*
X56410Y-52005D02*
X58275Y-52005D01*
X49726Y-52005D02*
X55590Y-52005D01*
X44245Y-52005D02*
X48275Y-52005D01*
X69652Y-51925D02*
X73755Y-51925D01*
X67068Y-51925D02*
X68348Y-51925D01*
X64410Y-51925D02*
X65272Y-51925D01*
X62728Y-51925D02*
X62866Y-51925D01*
X59652Y-51925D02*
X60932Y-51925D01*
X56410Y-51925D02*
X58348Y-51925D01*
X49652Y-51925D02*
X55590Y-51925D01*
X44245Y-51925D02*
X48348Y-51925D01*
X69410Y-51845D02*
X73755Y-51845D01*
X67035Y-51845D02*
X68590Y-51845D01*
X64410Y-51845D02*
X65306Y-51845D01*
X62695Y-51845D02*
X62866Y-51845D01*
X59410Y-51845D02*
X60966Y-51845D01*
X56410Y-51845D02*
X58590Y-51845D01*
X49410Y-51845D02*
X55590Y-51845D01*
X44245Y-51845D02*
X48590Y-51845D01*
X69410Y-51765D02*
X73755Y-51765D01*
X67002Y-51765D02*
X68590Y-51765D01*
X64410Y-51765D02*
X65339Y-51765D01*
X62662Y-51765D02*
X62866Y-51765D01*
X59410Y-51765D02*
X60999Y-51765D01*
X56410Y-51765D02*
X58590Y-51765D01*
X49410Y-51765D02*
X55590Y-51765D01*
X44245Y-51765D02*
X48590Y-51765D01*
X69410Y-51685D02*
X73755Y-51685D01*
X66959Y-51685D02*
X68590Y-51685D01*
X64410Y-51685D02*
X65382Y-51685D01*
X62619Y-51685D02*
X62866Y-51685D01*
X59410Y-51685D02*
X61042Y-51685D01*
X56410Y-51685D02*
X58590Y-51685D01*
X49410Y-51685D02*
X55590Y-51685D01*
X44245Y-51685D02*
X48590Y-51685D01*
X69410Y-51605D02*
X73755Y-51605D01*
X66879Y-51605D02*
X68590Y-51605D01*
X64410Y-51605D02*
X65462Y-51605D01*
X62539Y-51605D02*
X62866Y-51605D01*
X59410Y-51605D02*
X61122Y-51605D01*
X56410Y-51605D02*
X58590Y-51605D01*
X49410Y-51605D02*
X55590Y-51605D01*
X44245Y-51605D02*
X48590Y-51605D01*
X69410Y-51525D02*
X73755Y-51525D01*
X66799Y-51525D02*
X68590Y-51525D01*
X64410Y-51525D02*
X65542Y-51525D01*
X62459Y-51525D02*
X62866Y-51525D01*
X59410Y-51525D02*
X61202Y-51525D01*
X56410Y-51525D02*
X58590Y-51525D01*
X49410Y-51525D02*
X55590Y-51525D01*
X44245Y-51525D02*
X48590Y-51525D01*
X69410Y-51445D02*
X73755Y-51445D01*
X66719Y-51445D02*
X68590Y-51445D01*
X64410Y-51445D02*
X65622Y-51445D01*
X62379Y-51445D02*
X62866Y-51445D01*
X59410Y-51445D02*
X61282Y-51445D01*
X56410Y-51445D02*
X58590Y-51445D01*
X49410Y-51445D02*
X55590Y-51445D01*
X44245Y-51445D02*
X48590Y-51445D01*
X69410Y-51365D02*
X73755Y-51365D01*
X66541Y-51365D02*
X68590Y-51365D01*
X64410Y-51365D02*
X65801Y-51365D01*
X62201Y-51365D02*
X62866Y-51365D01*
X59410Y-51365D02*
X61461Y-51365D01*
X56410Y-51365D02*
X58590Y-51365D01*
X49410Y-51365D02*
X55590Y-51365D01*
X44245Y-51365D02*
X48590Y-51365D01*
X69410Y-51285D02*
X73755Y-51285D01*
X64410Y-51285D02*
X68590Y-51285D01*
X59410Y-51285D02*
X62866Y-51285D01*
X56410Y-51285D02*
X58590Y-51285D01*
X49410Y-51285D02*
X55590Y-51285D01*
X44245Y-51285D02*
X48590Y-51285D01*
X69410Y-51205D02*
X73755Y-51205D01*
X64410Y-51205D02*
X68590Y-51205D01*
X59410Y-51205D02*
X62866Y-51205D01*
X56410Y-51205D02*
X58590Y-51205D01*
X49410Y-51205D02*
X55590Y-51205D01*
X44245Y-51205D02*
X48590Y-51205D01*
X69410Y-51125D02*
X73755Y-51125D01*
X64410Y-51125D02*
X68590Y-51125D01*
X59410Y-51125D02*
X62866Y-51125D01*
X56410Y-51125D02*
X58590Y-51125D01*
X49410Y-51125D02*
X55590Y-51125D01*
X44245Y-51125D02*
X48590Y-51125D01*
X69410Y-51045D02*
X73755Y-51045D01*
X64410Y-51045D02*
X68590Y-51045D01*
X59410Y-51045D02*
X62866Y-51045D01*
X56410Y-51045D02*
X58590Y-51045D01*
X49410Y-51045D02*
X55590Y-51045D01*
X44245Y-51045D02*
X48590Y-51045D01*
X69410Y-50965D02*
X73755Y-50965D01*
X64410Y-50965D02*
X68590Y-50965D01*
X59410Y-50965D02*
X62866Y-50965D01*
X56410Y-50965D02*
X58590Y-50965D01*
X49410Y-50965D02*
X55590Y-50965D01*
X44245Y-50965D02*
X48590Y-50965D01*
X69410Y-50885D02*
X73755Y-50885D01*
X64410Y-50885D02*
X68590Y-50885D01*
X59410Y-50885D02*
X62866Y-50885D01*
X56410Y-50885D02*
X58590Y-50885D01*
X49410Y-50885D02*
X55590Y-50885D01*
X44245Y-50885D02*
X48590Y-50885D01*
X69410Y-50805D02*
X73755Y-50805D01*
X64410Y-50805D02*
X68590Y-50805D01*
X59410Y-50805D02*
X62866Y-50805D01*
X56410Y-50805D02*
X58590Y-50805D01*
X49410Y-50805D02*
X55590Y-50805D01*
X44245Y-50805D02*
X48590Y-50805D01*
X69410Y-50725D02*
X73755Y-50725D01*
X64410Y-50725D02*
X68590Y-50725D01*
X59410Y-50725D02*
X62866Y-50725D01*
X56410Y-50725D02*
X58590Y-50725D01*
X49410Y-50725D02*
X55590Y-50725D01*
X44245Y-50725D02*
X48590Y-50725D01*
X69410Y-50645D02*
X73755Y-50645D01*
X64410Y-50645D02*
X68590Y-50645D01*
X59410Y-50645D02*
X62866Y-50645D01*
X56410Y-50645D02*
X58590Y-50645D01*
X49410Y-50645D02*
X55590Y-50645D01*
X44245Y-50645D02*
X48590Y-50645D01*
X69410Y-50565D02*
X73755Y-50565D01*
X64410Y-50565D02*
X68590Y-50565D01*
X59410Y-50565D02*
X62866Y-50565D01*
X56410Y-50565D02*
X58590Y-50565D01*
X49410Y-50565D02*
X55590Y-50565D01*
X44245Y-50565D02*
X48590Y-50565D01*
X69410Y-50485D02*
X73755Y-50485D01*
X64410Y-50485D02*
X68590Y-50485D01*
X59410Y-50485D02*
X62866Y-50485D01*
X56410Y-50485D02*
X58590Y-50485D01*
X49410Y-50485D02*
X55590Y-50485D01*
X44245Y-50485D02*
X48590Y-50485D01*
X69410Y-50405D02*
X73755Y-50405D01*
X64410Y-50405D02*
X68590Y-50405D01*
X59410Y-50405D02*
X62866Y-50405D01*
X56410Y-50405D02*
X58590Y-50405D01*
X49410Y-50405D02*
X55590Y-50405D01*
X44245Y-50405D02*
X48590Y-50405D01*
X69410Y-50325D02*
X73755Y-50325D01*
X64410Y-50325D02*
X68590Y-50325D01*
X59410Y-50325D02*
X62866Y-50325D01*
X56410Y-50325D02*
X58590Y-50325D01*
X49410Y-50325D02*
X55590Y-50325D01*
X44245Y-50325D02*
X48590Y-50325D01*
X69410Y-50245D02*
X73755Y-50245D01*
X64410Y-50245D02*
X68590Y-50245D01*
X59410Y-50245D02*
X62866Y-50245D01*
X56410Y-50245D02*
X58590Y-50245D01*
X49410Y-50245D02*
X55590Y-50245D01*
X44245Y-50245D02*
X48590Y-50245D01*
X69410Y-50165D02*
X73755Y-50165D01*
X64410Y-50165D02*
X68590Y-50165D01*
X59410Y-50165D02*
X62866Y-50165D01*
X56410Y-50165D02*
X58590Y-50165D01*
X49410Y-50165D02*
X55590Y-50165D01*
X44245Y-50165D02*
X48590Y-50165D01*
X69410Y-50085D02*
X73755Y-50085D01*
X64410Y-50085D02*
X68590Y-50085D01*
X59410Y-50085D02*
X62866Y-50085D01*
X56410Y-50085D02*
X58590Y-50085D01*
X49410Y-50085D02*
X55590Y-50085D01*
X44245Y-50085D02*
X48590Y-50085D01*
X69410Y-50005D02*
X73755Y-50005D01*
X64410Y-50005D02*
X68590Y-50005D01*
X59410Y-50005D02*
X62866Y-50005D01*
X56410Y-50005D02*
X58590Y-50005D01*
X49410Y-50005D02*
X55590Y-50005D01*
X44245Y-50005D02*
X48590Y-50005D01*
X69410Y-49925D02*
X73755Y-49925D01*
X64410Y-49925D02*
X68590Y-49925D01*
X59410Y-49925D02*
X62866Y-49925D01*
X56410Y-49925D02*
X58590Y-49925D01*
X49410Y-49925D02*
X55590Y-49925D01*
X44245Y-49925D02*
X48590Y-49925D01*
X69410Y-49845D02*
X73755Y-49845D01*
X64410Y-49845D02*
X68590Y-49845D01*
X59410Y-49845D02*
X62866Y-49845D01*
X56410Y-49845D02*
X58590Y-49845D01*
X49410Y-49845D02*
X55590Y-49845D01*
X44245Y-49845D02*
X48590Y-49845D01*
X69410Y-49765D02*
X73755Y-49765D01*
X64410Y-49765D02*
X68590Y-49765D01*
X59410Y-49765D02*
X62866Y-49765D01*
X56410Y-49765D02*
X58590Y-49765D01*
X49410Y-49765D02*
X55590Y-49765D01*
X44245Y-49765D02*
X48590Y-49765D01*
X69410Y-49685D02*
X73755Y-49685D01*
X64410Y-49685D02*
X68590Y-49685D01*
X59410Y-49685D02*
X62866Y-49685D01*
X56410Y-49685D02*
X58590Y-49685D01*
X49410Y-49685D02*
X55590Y-49685D01*
X44245Y-49685D02*
X48590Y-49685D01*
X69410Y-49605D02*
X73755Y-49605D01*
X64410Y-49605D02*
X68590Y-49605D01*
X59410Y-49605D02*
X62866Y-49605D01*
X56410Y-49605D02*
X58590Y-49605D01*
X49410Y-49605D02*
X55590Y-49605D01*
X44245Y-49605D02*
X48590Y-49605D01*
X69410Y-49525D02*
X73755Y-49525D01*
X64410Y-49525D02*
X68590Y-49525D01*
X59410Y-49525D02*
X62866Y-49525D01*
X56410Y-49525D02*
X58590Y-49525D01*
X49410Y-49525D02*
X55590Y-49525D01*
X44245Y-49525D02*
X48590Y-49525D01*
X69410Y-49445D02*
X73755Y-49445D01*
X64410Y-49445D02*
X68590Y-49445D01*
X59410Y-49445D02*
X62866Y-49445D01*
X56410Y-49445D02*
X58590Y-49445D01*
X49410Y-49445D02*
X55590Y-49445D01*
X44245Y-49445D02*
X48590Y-49445D01*
X69410Y-49365D02*
X73755Y-49365D01*
X64410Y-49365D02*
X68590Y-49365D01*
X59410Y-49365D02*
X62866Y-49365D01*
X56410Y-49365D02*
X58590Y-49365D01*
X49410Y-49365D02*
X55590Y-49365D01*
X44245Y-49365D02*
X48590Y-49365D01*
X69410Y-49285D02*
X73755Y-49285D01*
X64410Y-49285D02*
X68590Y-49285D01*
X59410Y-49285D02*
X62866Y-49285D01*
X56410Y-49285D02*
X58590Y-49285D01*
X49410Y-49285D02*
X55590Y-49285D01*
X44245Y-49285D02*
X48590Y-49285D01*
X69410Y-49205D02*
X73755Y-49205D01*
X64410Y-49205D02*
X68590Y-49205D01*
X59410Y-49205D02*
X62866Y-49205D01*
X56410Y-49205D02*
X58590Y-49205D01*
X49410Y-49205D02*
X55590Y-49205D01*
X44245Y-49205D02*
X48590Y-49205D01*
X69410Y-49125D02*
X73755Y-49125D01*
X64410Y-49125D02*
X68590Y-49125D01*
X59410Y-49125D02*
X62866Y-49125D01*
X56410Y-49125D02*
X58590Y-49125D01*
X49410Y-49125D02*
X55590Y-49125D01*
X44245Y-49125D02*
X48590Y-49125D01*
X69410Y-49045D02*
X73755Y-49045D01*
X64410Y-49045D02*
X68590Y-49045D01*
X59410Y-49045D02*
X62866Y-49045D01*
X56410Y-49045D02*
X58590Y-49045D01*
X49410Y-49045D02*
X55590Y-49045D01*
X44245Y-49045D02*
X48590Y-49045D01*
X69410Y-48965D02*
X73755Y-48965D01*
X64410Y-48965D02*
X68590Y-48965D01*
X59410Y-48965D02*
X62866Y-48965D01*
X56410Y-48965D02*
X58590Y-48965D01*
X49410Y-48965D02*
X55590Y-48965D01*
X44245Y-48965D02*
X48590Y-48965D01*
X69410Y-48885D02*
X73755Y-48885D01*
X64410Y-48885D02*
X68590Y-48885D01*
X59410Y-48885D02*
X62866Y-48885D01*
X56410Y-48885D02*
X58590Y-48885D01*
X49410Y-48885D02*
X55590Y-48885D01*
X44245Y-48885D02*
X48590Y-48885D01*
X69410Y-48805D02*
X73755Y-48805D01*
X64410Y-48805D02*
X68590Y-48805D01*
X59410Y-48805D02*
X62866Y-48805D01*
X56410Y-48805D02*
X58590Y-48805D01*
X49410Y-48805D02*
X55590Y-48805D01*
X44245Y-48805D02*
X48590Y-48805D01*
X69410Y-48725D02*
X73755Y-48725D01*
X64410Y-48725D02*
X68590Y-48725D01*
X59410Y-48725D02*
X62866Y-48725D01*
X56410Y-48725D02*
X58590Y-48725D01*
X49410Y-48725D02*
X55590Y-48725D01*
X44245Y-48725D02*
X48590Y-48725D01*
X69410Y-48645D02*
X73755Y-48645D01*
X64410Y-48645D02*
X68590Y-48645D01*
X59410Y-48645D02*
X62866Y-48645D01*
X56410Y-48645D02*
X58590Y-48645D01*
X49410Y-48645D02*
X55590Y-48645D01*
X44245Y-48645D02*
X48590Y-48645D01*
X69410Y-48565D02*
X73755Y-48565D01*
X64410Y-48565D02*
X68590Y-48565D01*
X59410Y-48565D02*
X62866Y-48565D01*
X56410Y-48565D02*
X58590Y-48565D01*
X49410Y-48565D02*
X55590Y-48565D01*
X44245Y-48565D02*
X48590Y-48565D01*
X69410Y-48485D02*
X73755Y-48485D01*
X64410Y-48485D02*
X68590Y-48485D01*
X59410Y-48485D02*
X62866Y-48485D01*
X56410Y-48485D02*
X58590Y-48485D01*
X49410Y-48485D02*
X55590Y-48485D01*
X44245Y-48485D02*
X48590Y-48485D01*
X69410Y-48405D02*
X73755Y-48405D01*
X64410Y-48405D02*
X68590Y-48405D01*
X59410Y-48405D02*
X62866Y-48405D01*
X56410Y-48405D02*
X58590Y-48405D01*
X49410Y-48405D02*
X55590Y-48405D01*
X44245Y-48405D02*
X48590Y-48405D01*
X69410Y-48325D02*
X73755Y-48325D01*
X64410Y-48325D02*
X68590Y-48325D01*
X59410Y-48325D02*
X62866Y-48325D01*
X56410Y-48325D02*
X58590Y-48325D01*
X49410Y-48325D02*
X55590Y-48325D01*
X44245Y-48325D02*
X48590Y-48325D01*
X69410Y-48245D02*
X73755Y-48245D01*
X64410Y-48245D02*
X68590Y-48245D01*
X59410Y-48245D02*
X62866Y-48245D01*
X56410Y-48245D02*
X58590Y-48245D01*
X49410Y-48245D02*
X55590Y-48245D01*
X44245Y-48245D02*
X48590Y-48245D01*
X69410Y-48165D02*
X73755Y-48165D01*
X64410Y-48165D02*
X68590Y-48165D01*
X59410Y-48165D02*
X62866Y-48165D01*
X56410Y-48165D02*
X58590Y-48165D01*
X49410Y-48165D02*
X55590Y-48165D01*
X44245Y-48165D02*
X48590Y-48165D01*
X69410Y-48085D02*
X73755Y-48085D01*
X64410Y-48085D02*
X68590Y-48085D01*
X59410Y-48085D02*
X62866Y-48085D01*
X56410Y-48085D02*
X58590Y-48085D01*
X49410Y-48085D02*
X55590Y-48085D01*
X44245Y-48085D02*
X48590Y-48085D01*
X69410Y-48005D02*
X73755Y-48005D01*
X64410Y-48005D02*
X68590Y-48005D01*
X59410Y-48005D02*
X62866Y-48005D01*
X57214Y-48005D02*
X58590Y-48005D01*
X56410Y-48005D02*
X56785Y-48005D01*
X51200Y-48005D02*
X55590Y-48005D01*
X49410Y-48005D02*
X50812Y-48005D01*
X44245Y-48005D02*
X48590Y-48005D01*
X69410Y-47925D02*
X73755Y-47925D01*
X64410Y-47925D02*
X68590Y-47925D01*
X59410Y-47925D02*
X62866Y-47925D01*
X57351Y-47925D02*
X58590Y-47925D01*
X56410Y-47925D02*
X56649Y-47925D01*
X51294Y-47925D02*
X55590Y-47925D01*
X49410Y-47925D02*
X50705Y-47925D01*
X44245Y-47925D02*
X48590Y-47925D01*
X69410Y-47845D02*
X73755Y-47845D01*
X64410Y-47845D02*
X68590Y-47845D01*
X59410Y-47845D02*
X62866Y-47845D01*
X57431Y-47845D02*
X58590Y-47845D01*
X56410Y-47845D02*
X56569Y-47845D01*
X51275Y-47845D02*
X55590Y-47845D01*
X49410Y-47845D02*
X50726Y-47845D01*
X44245Y-47845D02*
X48590Y-47845D01*
X69410Y-47765D02*
X73755Y-47765D01*
X64410Y-47765D02*
X68590Y-47765D01*
X59410Y-47765D02*
X62866Y-47765D01*
X57484Y-47765D02*
X58590Y-47765D01*
X56410Y-47765D02*
X56515Y-47765D01*
X51477Y-47765D02*
X55590Y-47765D01*
X51195Y-47765D02*
X51335Y-47765D01*
X50664Y-47765D02*
X50806Y-47765D01*
X49410Y-47765D02*
X50521Y-47765D01*
X44245Y-47765D02*
X48590Y-47765D01*
X69410Y-47685D02*
X73755Y-47685D01*
X64410Y-47685D02*
X68590Y-47685D01*
X59410Y-47685D02*
X62866Y-47685D01*
X57517Y-47685D02*
X58590Y-47685D01*
X56410Y-47685D02*
X56482Y-47685D01*
X51505Y-47685D02*
X55590Y-47685D01*
X51115Y-47685D02*
X51255Y-47685D01*
X50744Y-47685D02*
X50886Y-47685D01*
X49410Y-47685D02*
X50488Y-47685D01*
X44245Y-47685D02*
X48590Y-47685D01*
X69410Y-47605D02*
X73755Y-47605D01*
X64410Y-47605D02*
X68590Y-47605D01*
X59410Y-47605D02*
X62866Y-47605D01*
X57549Y-47605D02*
X58590Y-47605D01*
X56410Y-47605D02*
X56451Y-47605D01*
X51533Y-47605D02*
X55590Y-47605D01*
X51035Y-47605D02*
X51175Y-47605D01*
X50824Y-47605D02*
X50966Y-47605D01*
X49410Y-47605D02*
X50466Y-47605D01*
X44245Y-47605D02*
X48590Y-47605D01*
X69410Y-47525D02*
X73755Y-47525D01*
X64410Y-47525D02*
X68590Y-47525D01*
X59410Y-47525D02*
X62866Y-47525D01*
X57549Y-47525D02*
X58590Y-47525D01*
X56410Y-47525D02*
X56451Y-47525D01*
X51541Y-47525D02*
X55590Y-47525D01*
X50904Y-47525D02*
X51095Y-47525D01*
X49410Y-47525D02*
X50462Y-47525D01*
X44245Y-47525D02*
X48590Y-47525D01*
X69410Y-47445D02*
X73755Y-47445D01*
X64410Y-47445D02*
X68590Y-47445D01*
X59410Y-47445D02*
X62866Y-47445D01*
X57549Y-47445D02*
X58590Y-47445D01*
X56410Y-47445D02*
X56451Y-47445D01*
X51537Y-47445D02*
X55590Y-47445D01*
X50875Y-47445D02*
X51126Y-47445D01*
X49410Y-47445D02*
X50458Y-47445D01*
X44245Y-47445D02*
X48590Y-47445D01*
X69410Y-47365D02*
X73755Y-47365D01*
X64410Y-47365D02*
X68590Y-47365D01*
X59410Y-47365D02*
X62866Y-47365D01*
X57539Y-47365D02*
X58590Y-47365D01*
X56410Y-47365D02*
X56462Y-47365D01*
X51532Y-47365D02*
X55590Y-47365D01*
X51064Y-47365D02*
X51206Y-47365D01*
X50795Y-47365D02*
X50935Y-47365D01*
X49410Y-47365D02*
X50477Y-47365D01*
X44245Y-47365D02*
X48590Y-47365D01*
X69410Y-47285D02*
X73755Y-47285D01*
X64410Y-47285D02*
X68590Y-47285D01*
X59410Y-47285D02*
X62866Y-47285D01*
X57505Y-47285D02*
X58590Y-47285D01*
X56410Y-47285D02*
X56496Y-47285D01*
X51499Y-47285D02*
X55590Y-47285D01*
X51144Y-47285D02*
X51286Y-47285D01*
X50715Y-47285D02*
X50855Y-47285D01*
X49410Y-47285D02*
X50505Y-47285D01*
X44245Y-47285D02*
X48590Y-47285D01*
X69410Y-47205D02*
X73755Y-47205D01*
X64410Y-47205D02*
X68590Y-47205D01*
X59410Y-47205D02*
X62866Y-47205D01*
X57472Y-47205D02*
X58590Y-47205D01*
X56410Y-47205D02*
X56529Y-47205D01*
X51424Y-47205D02*
X55590Y-47205D01*
X51224Y-47205D02*
X51366Y-47205D01*
X50635Y-47205D02*
X50775Y-47205D01*
X49410Y-47205D02*
X50577Y-47205D01*
X44245Y-47205D02*
X48590Y-47205D01*
X69410Y-47125D02*
X73755Y-47125D01*
X64410Y-47125D02*
X68590Y-47125D01*
X59410Y-47125D02*
X62866Y-47125D01*
X57410Y-47125D02*
X58590Y-47125D01*
X56410Y-47125D02*
X56590Y-47125D01*
X51304Y-47125D02*
X55590Y-47125D01*
X49410Y-47125D02*
X50695Y-47125D01*
X44245Y-47125D02*
X48590Y-47125D01*
X69410Y-47045D02*
X73755Y-47045D01*
X64410Y-47045D02*
X68590Y-47045D01*
X59410Y-47045D02*
X62866Y-47045D01*
X57410Y-47045D02*
X58590Y-47045D01*
X56410Y-47045D02*
X56590Y-47045D01*
X51286Y-47045D02*
X55590Y-47045D01*
X49410Y-47045D02*
X50715Y-47045D01*
X44245Y-47045D02*
X48590Y-47045D01*
X69410Y-46965D02*
X73755Y-46965D01*
X64410Y-46965D02*
X68590Y-46965D01*
X59410Y-46965D02*
X62866Y-46965D01*
X57410Y-46965D02*
X58590Y-46965D01*
X56410Y-46965D02*
X56590Y-46965D01*
X51283Y-46965D02*
X55590Y-46965D01*
X49410Y-46965D02*
X50716Y-46965D01*
X44245Y-46965D02*
X48590Y-46965D01*
X69410Y-46885D02*
X73755Y-46885D01*
X64410Y-46885D02*
X68590Y-46885D01*
X59410Y-46885D02*
X62866Y-46885D01*
X57410Y-46885D02*
X58590Y-46885D01*
X56410Y-46885D02*
X56590Y-46885D01*
X51305Y-46885D02*
X55590Y-46885D01*
X49410Y-46885D02*
X50694Y-46885D01*
X44245Y-46885D02*
X48590Y-46885D01*
X69410Y-46805D02*
X73755Y-46805D01*
X64410Y-46805D02*
X68590Y-46805D01*
X59410Y-46805D02*
X62866Y-46805D01*
X57467Y-46805D02*
X58590Y-46805D01*
X56410Y-46805D02*
X56532Y-46805D01*
X51388Y-46805D02*
X55590Y-46805D01*
X51235Y-46805D02*
X51375Y-46805D01*
X50624Y-46805D02*
X50766Y-46805D01*
X49410Y-46805D02*
X50611Y-46805D01*
X44245Y-46805D02*
X48590Y-46805D01*
X69410Y-46725D02*
X73755Y-46725D01*
X64410Y-46725D02*
X68590Y-46725D01*
X59410Y-46725D02*
X62866Y-46725D01*
X57500Y-46725D02*
X58590Y-46725D01*
X56410Y-46725D02*
X56499Y-46725D01*
X51491Y-46725D02*
X55590Y-46725D01*
X51155Y-46725D02*
X51295Y-46725D01*
X50704Y-46725D02*
X50846Y-46725D01*
X49410Y-46725D02*
X50505Y-46725D01*
X44245Y-46725D02*
X48590Y-46725D01*
X69410Y-46645D02*
X73755Y-46645D01*
X64410Y-46645D02*
X68590Y-46645D01*
X59410Y-46645D02*
X62866Y-46645D01*
X57534Y-46645D02*
X58590Y-46645D01*
X56410Y-46645D02*
X56465Y-46645D01*
X51519Y-46645D02*
X55590Y-46645D01*
X51075Y-46645D02*
X51215Y-46645D01*
X50784Y-46645D02*
X50926Y-46645D01*
X49410Y-46645D02*
X50472Y-46645D01*
X44245Y-46645D02*
X48590Y-46645D01*
X69410Y-46565D02*
X73755Y-46565D01*
X64410Y-46565D02*
X68590Y-46565D01*
X59410Y-46565D02*
X62866Y-46565D01*
X57549Y-46565D02*
X58590Y-46565D01*
X56410Y-46565D02*
X56451Y-46565D01*
X51543Y-46565D02*
X55590Y-46565D01*
X50864Y-46565D02*
X51135Y-46565D01*
X49410Y-46565D02*
X50464Y-46565D01*
X44245Y-46565D02*
X48590Y-46565D01*
X69410Y-46485D02*
X73755Y-46485D01*
X64433Y-46485D02*
X68590Y-46485D01*
X59410Y-46485D02*
X62866Y-46485D01*
X57595Y-46485D02*
X58590Y-46485D01*
X56410Y-46485D02*
X56451Y-46485D01*
X51539Y-46485D02*
X55590Y-46485D01*
X50915Y-46485D02*
X51086Y-46485D01*
X49410Y-46485D02*
X50460Y-46485D01*
X44245Y-46485D02*
X48590Y-46485D01*
X69410Y-46405D02*
X73755Y-46405D01*
X64513Y-46405D02*
X68590Y-46405D01*
X59410Y-46405D02*
X62866Y-46405D01*
X57675Y-46405D02*
X58590Y-46405D01*
X56410Y-46405D02*
X56451Y-46405D01*
X51535Y-46405D02*
X55590Y-46405D01*
X51024Y-46405D02*
X51166Y-46405D01*
X50835Y-46405D02*
X50975Y-46405D01*
X49410Y-46405D02*
X50463Y-46405D01*
X44245Y-46405D02*
X48590Y-46405D01*
X69410Y-46325D02*
X73755Y-46325D01*
X64567Y-46325D02*
X68590Y-46325D01*
X59410Y-46325D02*
X62866Y-46325D01*
X57755Y-46325D02*
X58590Y-46325D01*
X56410Y-46325D02*
X56479Y-46325D01*
X51516Y-46325D02*
X55590Y-46325D01*
X51104Y-46325D02*
X51246Y-46325D01*
X50755Y-46325D02*
X50895Y-46325D01*
X49410Y-46325D02*
X50491Y-46325D01*
X44245Y-46325D02*
X48590Y-46325D01*
X69410Y-46245D02*
X73755Y-46245D01*
X64600Y-46245D02*
X68590Y-46245D01*
X59410Y-46245D02*
X62866Y-46245D01*
X57835Y-46245D02*
X58590Y-46245D01*
X56410Y-46245D02*
X56512Y-46245D01*
X51483Y-46245D02*
X55590Y-46245D01*
X51184Y-46245D02*
X51326Y-46245D01*
X50675Y-46245D02*
X50815Y-46245D01*
X49410Y-46245D02*
X50519Y-46245D01*
X44245Y-46245D02*
X48590Y-46245D01*
X69410Y-46165D02*
X73755Y-46165D01*
X64634Y-46165D02*
X68590Y-46165D01*
X59410Y-46165D02*
X62866Y-46165D01*
X57915Y-46165D02*
X58590Y-46165D01*
X56410Y-46165D02*
X56559Y-46165D01*
X51264Y-46165D02*
X55590Y-46165D01*
X49410Y-46165D02*
X50735Y-46165D01*
X44245Y-46165D02*
X48590Y-46165D01*
X69410Y-46085D02*
X73755Y-46085D01*
X64649Y-46085D02*
X68590Y-46085D01*
X59410Y-46085D02*
X62866Y-46085D01*
X57995Y-46085D02*
X58590Y-46085D01*
X56410Y-46085D02*
X56639Y-46085D01*
X51298Y-46085D02*
X55590Y-46085D01*
X49410Y-46085D02*
X50703Y-46085D01*
X44245Y-46085D02*
X48590Y-46085D01*
X69410Y-46005D02*
X73755Y-46005D01*
X64649Y-46005D02*
X68590Y-46005D01*
X59410Y-46005D02*
X62866Y-46005D01*
X58055Y-46005D02*
X58590Y-46005D01*
X56410Y-46005D02*
X56762Y-46005D01*
X51216Y-46005D02*
X55590Y-46005D01*
X49410Y-46005D02*
X50776Y-46005D01*
X44245Y-46005D02*
X48590Y-46005D01*
X69410Y-45925D02*
X73755Y-45925D01*
X64649Y-45925D02*
X68590Y-45925D01*
X59410Y-45925D02*
X62866Y-45925D01*
X58105Y-45925D02*
X58590Y-45925D01*
X56410Y-45925D02*
X56995Y-45925D01*
X49410Y-45925D02*
X55590Y-45925D01*
X44245Y-45925D02*
X48590Y-45925D01*
X69410Y-45845D02*
X73755Y-45845D01*
X64639Y-45845D02*
X68590Y-45845D01*
X59410Y-45845D02*
X62866Y-45845D01*
X58121Y-45845D02*
X58590Y-45845D01*
X56410Y-45845D02*
X57075Y-45845D01*
X49410Y-45845D02*
X55590Y-45845D01*
X44245Y-45845D02*
X48590Y-45845D01*
X69410Y-45765D02*
X73755Y-45765D01*
X64606Y-45765D02*
X68590Y-45765D01*
X59410Y-45765D02*
X62866Y-45765D01*
X58135Y-45765D02*
X58590Y-45765D01*
X56410Y-45765D02*
X57155Y-45765D01*
X49410Y-45765D02*
X55590Y-45765D01*
X44245Y-45765D02*
X48590Y-45765D01*
X69410Y-45685D02*
X73755Y-45685D01*
X64572Y-45685D02*
X68590Y-45685D01*
X59410Y-45685D02*
X62866Y-45685D01*
X58135Y-45685D02*
X58590Y-45685D01*
X56410Y-45685D02*
X57235Y-45685D01*
X49410Y-45685D02*
X55590Y-45685D01*
X44245Y-45685D02*
X48590Y-45685D01*
X69410Y-45605D02*
X73755Y-45605D01*
X64523Y-45605D02*
X68590Y-45605D01*
X59410Y-45605D02*
X62866Y-45605D01*
X58135Y-45605D02*
X58590Y-45605D01*
X56410Y-45605D02*
X57315Y-45605D01*
X49410Y-45605D02*
X55590Y-45605D01*
X44245Y-45605D02*
X48590Y-45605D01*
X69410Y-45525D02*
X73755Y-45525D01*
X64443Y-45525D02*
X68590Y-45525D01*
X59410Y-45525D02*
X62866Y-45525D01*
X58135Y-45525D02*
X58590Y-45525D01*
X56410Y-45525D02*
X57315Y-45525D01*
X49410Y-45525D02*
X55590Y-45525D01*
X44245Y-45525D02*
X48590Y-45525D01*
X69410Y-45445D02*
X73755Y-45445D01*
X64356Y-45445D02*
X68590Y-45445D01*
X59410Y-45445D02*
X62866Y-45445D01*
X58135Y-45445D02*
X58590Y-45445D01*
X56410Y-45445D02*
X57315Y-45445D01*
X49410Y-45445D02*
X55590Y-45445D01*
X44245Y-45445D02*
X48590Y-45445D01*
X69410Y-45365D02*
X73755Y-45365D01*
X64163Y-45365D02*
X68590Y-45365D01*
X63686Y-45365D02*
X63837Y-45365D01*
X59410Y-45365D02*
X62866Y-45365D01*
X58135Y-45365D02*
X58590Y-45365D01*
X56410Y-45365D02*
X57315Y-45365D01*
X49410Y-45365D02*
X55590Y-45365D01*
X44245Y-45365D02*
X48590Y-45365D01*
X69410Y-45285D02*
X73755Y-45285D01*
X63686Y-45285D02*
X68590Y-45285D01*
X59410Y-45285D02*
X62866Y-45285D01*
X58135Y-45285D02*
X58590Y-45285D01*
X56410Y-45285D02*
X57315Y-45285D01*
X49410Y-45285D02*
X55590Y-45285D01*
X44245Y-45285D02*
X48590Y-45285D01*
X69410Y-45205D02*
X73755Y-45205D01*
X63686Y-45205D02*
X68590Y-45205D01*
X59410Y-45205D02*
X62866Y-45205D01*
X58135Y-45205D02*
X58590Y-45205D01*
X56410Y-45205D02*
X57315Y-45205D01*
X49410Y-45205D02*
X55590Y-45205D01*
X44245Y-45205D02*
X48590Y-45205D01*
X69410Y-45125D02*
X73755Y-45125D01*
X63686Y-45125D02*
X68590Y-45125D01*
X59410Y-45125D02*
X62866Y-45125D01*
X58135Y-45125D02*
X58590Y-45125D01*
X56410Y-45125D02*
X57315Y-45125D01*
X49410Y-45125D02*
X55590Y-45125D01*
X44245Y-45125D02*
X48590Y-45125D01*
X69410Y-45045D02*
X73755Y-45045D01*
X63686Y-45045D02*
X68590Y-45045D01*
X59410Y-45045D02*
X62866Y-45045D01*
X58135Y-45045D02*
X58590Y-45045D01*
X56410Y-45045D02*
X57315Y-45045D01*
X49410Y-45045D02*
X55590Y-45045D01*
X44245Y-45045D02*
X48590Y-45045D01*
X69410Y-44965D02*
X73755Y-44965D01*
X63686Y-44965D02*
X68590Y-44965D01*
X59410Y-44965D02*
X62866Y-44965D01*
X58135Y-44965D02*
X58590Y-44965D01*
X56410Y-44965D02*
X57315Y-44965D01*
X49410Y-44965D02*
X55590Y-44965D01*
X44245Y-44965D02*
X48590Y-44965D01*
X69410Y-44885D02*
X73755Y-44885D01*
X63694Y-44885D02*
X68590Y-44885D01*
X59410Y-44885D02*
X62866Y-44885D01*
X58135Y-44885D02*
X58590Y-44885D01*
X56410Y-44885D02*
X57315Y-44885D01*
X49410Y-44885D02*
X55590Y-44885D01*
X44245Y-44885D02*
X48590Y-44885D01*
X69410Y-44805D02*
X73755Y-44805D01*
X63774Y-44805D02*
X68590Y-44805D01*
X59410Y-44805D02*
X62866Y-44805D01*
X58135Y-44805D02*
X58590Y-44805D01*
X56410Y-44805D02*
X57315Y-44805D01*
X49410Y-44805D02*
X55590Y-44805D01*
X44245Y-44805D02*
X48590Y-44805D01*
X69410Y-44725D02*
X73755Y-44725D01*
X63854Y-44725D02*
X68590Y-44725D01*
X59410Y-44725D02*
X62866Y-44725D01*
X58135Y-44725D02*
X58590Y-44725D01*
X56410Y-44725D02*
X57315Y-44725D01*
X49410Y-44725D02*
X55590Y-44725D01*
X44245Y-44725D02*
X48590Y-44725D01*
X69410Y-44645D02*
X73755Y-44645D01*
X64138Y-44645D02*
X68590Y-44645D01*
X59410Y-44645D02*
X62882Y-44645D01*
X58135Y-44645D02*
X58590Y-44645D01*
X56410Y-44645D02*
X57315Y-44645D01*
X49410Y-44645D02*
X55590Y-44645D01*
X44245Y-44645D02*
X48590Y-44645D01*
X69410Y-44565D02*
X73755Y-44565D01*
X64331Y-44565D02*
X68590Y-44565D01*
X59410Y-44565D02*
X62899Y-44565D01*
X58135Y-44565D02*
X58590Y-44565D01*
X56410Y-44565D02*
X57315Y-44565D01*
X49410Y-44565D02*
X55590Y-44565D01*
X44245Y-44565D02*
X48590Y-44565D01*
X69410Y-44485D02*
X73755Y-44485D01*
X64433Y-44485D02*
X68590Y-44485D01*
X59410Y-44485D02*
X62952Y-44485D01*
X58135Y-44485D02*
X58590Y-44485D01*
X56410Y-44485D02*
X57315Y-44485D01*
X49410Y-44485D02*
X55590Y-44485D01*
X44245Y-44485D02*
X48590Y-44485D01*
X69410Y-44405D02*
X73755Y-44405D01*
X64513Y-44405D02*
X68590Y-44405D01*
X59410Y-44405D02*
X63015Y-44405D01*
X58135Y-44405D02*
X58590Y-44405D01*
X56410Y-44405D02*
X57315Y-44405D01*
X49410Y-44405D02*
X55590Y-44405D01*
X44245Y-44405D02*
X48590Y-44405D01*
X69410Y-44325D02*
X73755Y-44325D01*
X64567Y-44325D02*
X68590Y-44325D01*
X59410Y-44325D02*
X63095Y-44325D01*
X58135Y-44325D02*
X58590Y-44325D01*
X56410Y-44325D02*
X57315Y-44325D01*
X49410Y-44325D02*
X55590Y-44325D01*
X44245Y-44325D02*
X48590Y-44325D01*
X69410Y-44245D02*
X73755Y-44245D01*
X64600Y-44245D02*
X68590Y-44245D01*
X59410Y-44245D02*
X63175Y-44245D01*
X58135Y-44245D02*
X58590Y-44245D01*
X56410Y-44245D02*
X57315Y-44245D01*
X49410Y-44245D02*
X55590Y-44245D01*
X44245Y-44245D02*
X48590Y-44245D01*
X69410Y-44165D02*
X73755Y-44165D01*
X64634Y-44165D02*
X68590Y-44165D01*
X59410Y-44165D02*
X63255Y-44165D01*
X58135Y-44165D02*
X58590Y-44165D01*
X56410Y-44165D02*
X57315Y-44165D01*
X49410Y-44165D02*
X55590Y-44165D01*
X44245Y-44165D02*
X48590Y-44165D01*
X69629Y-44085D02*
X73755Y-44085D01*
X64649Y-44085D02*
X68370Y-44085D01*
X59629Y-44085D02*
X63335Y-44085D01*
X58135Y-44085D02*
X58370Y-44085D01*
X56410Y-44085D02*
X57315Y-44085D01*
X49629Y-44085D02*
X55590Y-44085D01*
X44245Y-44085D02*
X48370Y-44085D01*
X69721Y-44005D02*
X73755Y-44005D01*
X64649Y-44005D02*
X68278Y-44005D01*
X59721Y-44005D02*
X63351Y-44005D01*
X58135Y-44005D02*
X58278Y-44005D01*
X56410Y-44005D02*
X57315Y-44005D01*
X49721Y-44005D02*
X55590Y-44005D01*
X44245Y-44005D02*
X48278Y-44005D01*
X69754Y-43925D02*
X73755Y-43925D01*
X64649Y-43925D02*
X68245Y-43925D01*
X59754Y-43925D02*
X63351Y-43925D01*
X58135Y-43925D02*
X58245Y-43925D01*
X56410Y-43925D02*
X57315Y-43925D01*
X49754Y-43925D02*
X55590Y-43925D01*
X44245Y-43925D02*
X48245Y-43925D01*
X69759Y-43845D02*
X73755Y-43845D01*
X64639Y-43845D02*
X68241Y-43845D01*
X59759Y-43845D02*
X63362Y-43845D01*
X58135Y-43845D02*
X58241Y-43845D01*
X56410Y-43845D02*
X57315Y-43845D01*
X49759Y-43845D02*
X55590Y-43845D01*
X44245Y-43845D02*
X48241Y-43845D01*
X69759Y-43765D02*
X73755Y-43765D01*
X64606Y-43765D02*
X68241Y-43765D01*
X59759Y-43765D02*
X63395Y-43765D01*
X58135Y-43765D02*
X58241Y-43765D01*
X56410Y-43765D02*
X57315Y-43765D01*
X49759Y-43765D02*
X55590Y-43765D01*
X44245Y-43765D02*
X48241Y-43765D01*
X69759Y-43685D02*
X73755Y-43685D01*
X64572Y-43685D02*
X68241Y-43685D01*
X59759Y-43685D02*
X63429Y-43685D01*
X58135Y-43685D02*
X58241Y-43685D01*
X56410Y-43685D02*
X57315Y-43685D01*
X49759Y-43685D02*
X55590Y-43685D01*
X44245Y-43685D02*
X48241Y-43685D01*
X69759Y-43605D02*
X73755Y-43605D01*
X64523Y-43605D02*
X68241Y-43605D01*
X59759Y-43605D02*
X63477Y-43605D01*
X58135Y-43605D02*
X58241Y-43605D01*
X56410Y-43605D02*
X57315Y-43605D01*
X49759Y-43605D02*
X55590Y-43605D01*
X44245Y-43605D02*
X48241Y-43605D01*
X69759Y-43525D02*
X73755Y-43525D01*
X64443Y-43525D02*
X68241Y-43525D01*
X59759Y-43525D02*
X63557Y-43525D01*
X58135Y-43525D02*
X58241Y-43525D01*
X56410Y-43525D02*
X57315Y-43525D01*
X49759Y-43525D02*
X55590Y-43525D01*
X44245Y-43525D02*
X48241Y-43525D01*
X69759Y-43445D02*
X73755Y-43445D01*
X64356Y-43445D02*
X68241Y-43445D01*
X59759Y-43445D02*
X63645Y-43445D01*
X58135Y-43445D02*
X58241Y-43445D01*
X56410Y-43445D02*
X57315Y-43445D01*
X49759Y-43445D02*
X55590Y-43445D01*
X44245Y-43445D02*
X48241Y-43445D01*
X69759Y-43365D02*
X73755Y-43365D01*
X64163Y-43365D02*
X68241Y-43365D01*
X59759Y-43365D02*
X63838Y-43365D01*
X58135Y-43365D02*
X58241Y-43365D01*
X56410Y-43365D02*
X57315Y-43365D01*
X49759Y-43365D02*
X55590Y-43365D01*
X44245Y-43365D02*
X48241Y-43365D01*
X69759Y-43285D02*
X73755Y-43285D01*
X59759Y-43285D02*
X68241Y-43285D01*
X58135Y-43285D02*
X58241Y-43285D01*
X56410Y-43285D02*
X57315Y-43285D01*
X49759Y-43285D02*
X55590Y-43285D01*
X44245Y-43285D02*
X48241Y-43285D01*
X69759Y-43205D02*
X73755Y-43205D01*
X59759Y-43205D02*
X68241Y-43205D01*
X58135Y-43205D02*
X58241Y-43205D01*
X56410Y-43205D02*
X57315Y-43205D01*
X49759Y-43205D02*
X55590Y-43205D01*
X44245Y-43205D02*
X48241Y-43205D01*
X69734Y-43125D02*
X73755Y-43125D01*
X59734Y-43125D02*
X68267Y-43125D01*
X58135Y-43125D02*
X58267Y-43125D01*
X56410Y-43125D02*
X57315Y-43125D01*
X49734Y-43125D02*
X55590Y-43125D01*
X44245Y-43125D02*
X48267Y-43125D01*
X69672Y-43045D02*
X73755Y-43045D01*
X59672Y-43045D02*
X68328Y-43045D01*
X58135Y-43045D02*
X58328Y-43045D01*
X56410Y-43045D02*
X57315Y-43045D01*
X49672Y-43045D02*
X55590Y-43045D01*
X44245Y-43045D02*
X48328Y-43045D01*
X69662Y-42965D02*
X73755Y-42965D01*
X59662Y-42965D02*
X68338Y-42965D01*
X58135Y-42965D02*
X58338Y-42965D01*
X56410Y-42965D02*
X57315Y-42965D01*
X49662Y-42965D02*
X55590Y-42965D01*
X44245Y-42965D02*
X48338Y-42965D01*
X69729Y-42885D02*
X73755Y-42885D01*
X59729Y-42885D02*
X68270Y-42885D01*
X58135Y-42885D02*
X58270Y-42885D01*
X56410Y-42885D02*
X57315Y-42885D01*
X49729Y-42885D02*
X55590Y-42885D01*
X44245Y-42885D02*
X48270Y-42885D01*
X69759Y-42805D02*
X73755Y-42805D01*
X59759Y-42805D02*
X68241Y-42805D01*
X58135Y-42805D02*
X58241Y-42805D01*
X56410Y-42805D02*
X57315Y-42805D01*
X49759Y-42805D02*
X55590Y-42805D01*
X44245Y-42805D02*
X48241Y-42805D01*
X69759Y-42725D02*
X73755Y-42725D01*
X59759Y-42725D02*
X68241Y-42725D01*
X58135Y-42725D02*
X58241Y-42725D01*
X56410Y-42725D02*
X57315Y-42725D01*
X49759Y-42725D02*
X55590Y-42725D01*
X44245Y-42725D02*
X48241Y-42725D01*
X69759Y-42645D02*
X73755Y-42645D01*
X59759Y-42645D02*
X68241Y-42645D01*
X58135Y-42645D02*
X58241Y-42645D01*
X56410Y-42645D02*
X57315Y-42645D01*
X49759Y-42645D02*
X55590Y-42645D01*
X44245Y-42645D02*
X48241Y-42645D01*
X69759Y-42565D02*
X73755Y-42565D01*
X59759Y-42565D02*
X68241Y-42565D01*
X58135Y-42565D02*
X58241Y-42565D01*
X56410Y-42565D02*
X57315Y-42565D01*
X49759Y-42565D02*
X55590Y-42565D01*
X44245Y-42565D02*
X48241Y-42565D01*
X69759Y-42485D02*
X73755Y-42485D01*
X59759Y-42485D02*
X68241Y-42485D01*
X58135Y-42485D02*
X58241Y-42485D01*
X56410Y-42485D02*
X57315Y-42485D01*
X49759Y-42485D02*
X55590Y-42485D01*
X44245Y-42485D02*
X48241Y-42485D01*
X69759Y-42405D02*
X73755Y-42405D01*
X59759Y-42405D02*
X68241Y-42405D01*
X58135Y-42405D02*
X58241Y-42405D01*
X56410Y-42405D02*
X57315Y-42405D01*
X49759Y-42405D02*
X55590Y-42405D01*
X44245Y-42405D02*
X48241Y-42405D01*
X69759Y-42325D02*
X73755Y-42325D01*
X59759Y-42325D02*
X68241Y-42325D01*
X58135Y-42325D02*
X58241Y-42325D01*
X56410Y-42325D02*
X57315Y-42325D01*
X49759Y-42325D02*
X55590Y-42325D01*
X44245Y-42325D02*
X48241Y-42325D01*
X69759Y-42245D02*
X73755Y-42245D01*
X59759Y-42245D02*
X68241Y-42245D01*
X58135Y-42245D02*
X58241Y-42245D01*
X56410Y-42245D02*
X57315Y-42245D01*
X49759Y-42245D02*
X55590Y-42245D01*
X44245Y-42245D02*
X48241Y-42245D01*
X69759Y-42165D02*
X73755Y-42165D01*
X59759Y-42165D02*
X68241Y-42165D01*
X58135Y-42165D02*
X58241Y-42165D01*
X56410Y-42165D02*
X57315Y-42165D01*
X49759Y-42165D02*
X55590Y-42165D01*
X44245Y-42165D02*
X48241Y-42165D01*
X69759Y-42085D02*
X73755Y-42085D01*
X59759Y-42085D02*
X68241Y-42085D01*
X58135Y-42085D02*
X58241Y-42085D01*
X56410Y-42085D02*
X57315Y-42085D01*
X49759Y-42085D02*
X55590Y-42085D01*
X44245Y-42085D02*
X48241Y-42085D01*
X69726Y-42005D02*
X73755Y-42005D01*
X59726Y-42005D02*
X68275Y-42005D01*
X58135Y-42005D02*
X58275Y-42005D01*
X56410Y-42005D02*
X57315Y-42005D01*
X49726Y-42005D02*
X55590Y-42005D01*
X44245Y-42005D02*
X48275Y-42005D01*
X69652Y-41925D02*
X73755Y-41925D01*
X59652Y-41925D02*
X68348Y-41925D01*
X58135Y-41925D02*
X58348Y-41925D01*
X56410Y-41925D02*
X57315Y-41925D01*
X49652Y-41925D02*
X55590Y-41925D01*
X44245Y-41925D02*
X48348Y-41925D01*
X69410Y-41845D02*
X73755Y-41845D01*
X59410Y-41845D02*
X68590Y-41845D01*
X58135Y-41845D02*
X58590Y-41845D01*
X56410Y-41845D02*
X57315Y-41845D01*
X49410Y-41845D02*
X55590Y-41845D01*
X44245Y-41845D02*
X48590Y-41845D01*
X69410Y-41765D02*
X73755Y-41765D01*
X59410Y-41765D02*
X68590Y-41765D01*
X58135Y-41765D02*
X58590Y-41765D01*
X56410Y-41765D02*
X57315Y-41765D01*
X49410Y-41765D02*
X55590Y-41765D01*
X44245Y-41765D02*
X48590Y-41765D01*
X69410Y-41685D02*
X73755Y-41685D01*
X59410Y-41685D02*
X68590Y-41685D01*
X58135Y-41685D02*
X58590Y-41685D01*
X56410Y-41685D02*
X57315Y-41685D01*
X49410Y-41685D02*
X55590Y-41685D01*
X44245Y-41685D02*
X48590Y-41685D01*
X69410Y-41605D02*
X73755Y-41605D01*
X59410Y-41605D02*
X68590Y-41605D01*
X58135Y-41605D02*
X58590Y-41605D01*
X56410Y-41605D02*
X57315Y-41605D01*
X49410Y-41605D02*
X55590Y-41605D01*
X44245Y-41605D02*
X48590Y-41605D01*
X69410Y-41525D02*
X73755Y-41525D01*
X59410Y-41525D02*
X68590Y-41525D01*
X58135Y-41525D02*
X58590Y-41525D01*
X56410Y-41525D02*
X57315Y-41525D01*
X49410Y-41525D02*
X55590Y-41525D01*
X44245Y-41525D02*
X48590Y-41525D01*
X69410Y-41445D02*
X73755Y-41445D01*
X59410Y-41445D02*
X68590Y-41445D01*
X58135Y-41445D02*
X58590Y-41445D01*
X56410Y-41445D02*
X57315Y-41445D01*
X49410Y-41445D02*
X55590Y-41445D01*
X44245Y-41445D02*
X48590Y-41445D01*
X69410Y-41365D02*
X73755Y-41365D01*
X59410Y-41365D02*
X68590Y-41365D01*
X58135Y-41365D02*
X58590Y-41365D01*
X56410Y-41365D02*
X57315Y-41365D01*
X49410Y-41365D02*
X55590Y-41365D01*
X44245Y-41365D02*
X48590Y-41365D01*
X69410Y-41285D02*
X73755Y-41285D01*
X59410Y-41285D02*
X68590Y-41285D01*
X58135Y-41285D02*
X58590Y-41285D01*
X56410Y-41285D02*
X57315Y-41285D01*
X49410Y-41285D02*
X55590Y-41285D01*
X44245Y-41285D02*
X48590Y-41285D01*
X69410Y-41205D02*
X73755Y-41205D01*
X59410Y-41205D02*
X68590Y-41205D01*
X58135Y-41205D02*
X58590Y-41205D01*
X56410Y-41205D02*
X57315Y-41205D01*
X49410Y-41205D02*
X55590Y-41205D01*
X44245Y-41205D02*
X48590Y-41205D01*
X69410Y-41125D02*
X73755Y-41125D01*
X59410Y-41125D02*
X68590Y-41125D01*
X58135Y-41125D02*
X58590Y-41125D01*
X56410Y-41125D02*
X57315Y-41125D01*
X49410Y-41125D02*
X55590Y-41125D01*
X44245Y-41125D02*
X48590Y-41125D01*
X69410Y-41045D02*
X73755Y-41045D01*
X59410Y-41045D02*
X68590Y-41045D01*
X58135Y-41045D02*
X58590Y-41045D01*
X56410Y-41045D02*
X57315Y-41045D01*
X49410Y-41045D02*
X55590Y-41045D01*
X44245Y-41045D02*
X48590Y-41045D01*
X69410Y-40965D02*
X73755Y-40965D01*
X59410Y-40965D02*
X68590Y-40965D01*
X58135Y-40965D02*
X58590Y-40965D01*
X56410Y-40965D02*
X57315Y-40965D01*
X49410Y-40965D02*
X55590Y-40965D01*
X44245Y-40965D02*
X48590Y-40965D01*
X69410Y-40885D02*
X73755Y-40885D01*
X59410Y-40885D02*
X68590Y-40885D01*
X58135Y-40885D02*
X58590Y-40885D01*
X56410Y-40885D02*
X57315Y-40885D01*
X49410Y-40885D02*
X55590Y-40885D01*
X44245Y-40885D02*
X48590Y-40885D01*
X69410Y-40805D02*
X73755Y-40805D01*
X59410Y-40805D02*
X68590Y-40805D01*
X58135Y-40805D02*
X58590Y-40805D01*
X56410Y-40805D02*
X57315Y-40805D01*
X49410Y-40805D02*
X55590Y-40805D01*
X44245Y-40805D02*
X48590Y-40805D01*
X69410Y-40725D02*
X73755Y-40725D01*
X59410Y-40725D02*
X68590Y-40725D01*
X58135Y-40725D02*
X58590Y-40725D01*
X56410Y-40725D02*
X57315Y-40725D01*
X49410Y-40725D02*
X55590Y-40725D01*
X44245Y-40725D02*
X48590Y-40725D01*
X69410Y-40645D02*
X73755Y-40645D01*
X59410Y-40645D02*
X68590Y-40645D01*
X58135Y-40645D02*
X58590Y-40645D01*
X56410Y-40645D02*
X57315Y-40645D01*
X49410Y-40645D02*
X55590Y-40645D01*
X44245Y-40645D02*
X48590Y-40645D01*
X69410Y-40565D02*
X73755Y-40565D01*
X59410Y-40565D02*
X68590Y-40565D01*
X58135Y-40565D02*
X58590Y-40565D01*
X56410Y-40565D02*
X57315Y-40565D01*
X49410Y-40565D02*
X55590Y-40565D01*
X44245Y-40565D02*
X48590Y-40565D01*
X69410Y-40485D02*
X73755Y-40485D01*
X59410Y-40485D02*
X68590Y-40485D01*
X58135Y-40485D02*
X58590Y-40485D01*
X56410Y-40485D02*
X57315Y-40485D01*
X49410Y-40485D02*
X55590Y-40485D01*
X44245Y-40485D02*
X48590Y-40485D01*
X69410Y-40405D02*
X73755Y-40405D01*
X59410Y-40405D02*
X68590Y-40405D01*
X58135Y-40405D02*
X58590Y-40405D01*
X56410Y-40405D02*
X57315Y-40405D01*
X49410Y-40405D02*
X55590Y-40405D01*
X44245Y-40405D02*
X48590Y-40405D01*
X69410Y-40325D02*
X73755Y-40325D01*
X59410Y-40325D02*
X68590Y-40325D01*
X58135Y-40325D02*
X58590Y-40325D01*
X56410Y-40325D02*
X57315Y-40325D01*
X49410Y-40325D02*
X55590Y-40325D01*
X44245Y-40325D02*
X48590Y-40325D01*
X69410Y-40245D02*
X73755Y-40245D01*
X59410Y-40245D02*
X68590Y-40245D01*
X58135Y-40245D02*
X58590Y-40245D01*
X56410Y-40245D02*
X57315Y-40245D01*
X49410Y-40245D02*
X55590Y-40245D01*
X44245Y-40245D02*
X48590Y-40245D01*
X69410Y-40165D02*
X73755Y-40165D01*
X59410Y-40165D02*
X68590Y-40165D01*
X58135Y-40165D02*
X58590Y-40165D01*
X56410Y-40165D02*
X57315Y-40165D01*
X49410Y-40165D02*
X55590Y-40165D01*
X44245Y-40165D02*
X48590Y-40165D01*
X69410Y-40085D02*
X73755Y-40085D01*
X59410Y-40085D02*
X68590Y-40085D01*
X58135Y-40085D02*
X58590Y-40085D01*
X56410Y-40085D02*
X57315Y-40085D01*
X49410Y-40085D02*
X55590Y-40085D01*
X44245Y-40085D02*
X48590Y-40085D01*
X69410Y-40005D02*
X73755Y-40005D01*
X59410Y-40005D02*
X68590Y-40005D01*
X58135Y-40005D02*
X58590Y-40005D01*
X56410Y-40005D02*
X57315Y-40005D01*
X52416Y-40005D02*
X55590Y-40005D01*
X49410Y-40005D02*
X51583Y-40005D01*
X44245Y-40005D02*
X48590Y-40005D01*
X69410Y-39925D02*
X73755Y-39925D01*
X59410Y-39925D02*
X68590Y-39925D01*
X58135Y-39925D02*
X58590Y-39925D01*
X56410Y-39925D02*
X57315Y-39925D01*
X52610Y-39925D02*
X55590Y-39925D01*
X49410Y-39925D02*
X51391Y-39925D01*
X44245Y-39925D02*
X48590Y-39925D01*
X69410Y-39845D02*
X73755Y-39845D01*
X59410Y-39845D02*
X68590Y-39845D01*
X58135Y-39845D02*
X58590Y-39845D01*
X56410Y-39845D02*
X57315Y-39845D01*
X52804Y-39845D02*
X55590Y-39845D01*
X49410Y-39845D02*
X51198Y-39845D01*
X44245Y-39845D02*
X48590Y-39845D01*
X69410Y-39765D02*
X73755Y-39765D01*
X59410Y-39765D02*
X68590Y-39765D01*
X58135Y-39765D02*
X58590Y-39765D01*
X56410Y-39765D02*
X57315Y-39765D01*
X52927Y-39765D02*
X55590Y-39765D01*
X49410Y-39765D02*
X51073Y-39765D01*
X44245Y-39765D02*
X48590Y-39765D01*
X69410Y-39685D02*
X73755Y-39685D01*
X59410Y-39685D02*
X68590Y-39685D01*
X58135Y-39685D02*
X58590Y-39685D01*
X56410Y-39685D02*
X57315Y-39685D01*
X53007Y-39685D02*
X55590Y-39685D01*
X49410Y-39685D02*
X50993Y-39685D01*
X44245Y-39685D02*
X48590Y-39685D01*
X69410Y-39605D02*
X73755Y-39605D01*
X59410Y-39605D02*
X68590Y-39605D01*
X58135Y-39605D02*
X58590Y-39605D01*
X56410Y-39605D02*
X57315Y-39605D01*
X53087Y-39605D02*
X55590Y-39605D01*
X49410Y-39605D02*
X50913Y-39605D01*
X44245Y-39605D02*
X48590Y-39605D01*
X69410Y-39525D02*
X73755Y-39525D01*
X59410Y-39525D02*
X68590Y-39525D01*
X58135Y-39525D02*
X58590Y-39525D01*
X56410Y-39525D02*
X57315Y-39525D01*
X53167Y-39525D02*
X55590Y-39525D01*
X49410Y-39525D02*
X50833Y-39525D01*
X44245Y-39525D02*
X48590Y-39525D01*
X69632Y-39445D02*
X73755Y-39445D01*
X59632Y-39445D02*
X68368Y-39445D01*
X58135Y-39445D02*
X58368Y-39445D01*
X56410Y-39445D02*
X57315Y-39445D01*
X53247Y-39445D02*
X55590Y-39445D01*
X49632Y-39445D02*
X50753Y-39445D01*
X44245Y-39445D02*
X48368Y-39445D01*
X69705Y-39365D02*
X73755Y-39365D01*
X59705Y-39365D02*
X68294Y-39365D01*
X58135Y-39365D02*
X58294Y-39365D01*
X56410Y-39365D02*
X57315Y-39365D01*
X53318Y-39365D02*
X55590Y-39365D01*
X49705Y-39365D02*
X50680Y-39365D01*
X44245Y-39365D02*
X48294Y-39365D01*
X69739Y-39285D02*
X73755Y-39285D01*
X59739Y-39285D02*
X68261Y-39285D01*
X58135Y-39285D02*
X58261Y-39285D01*
X56410Y-39285D02*
X57315Y-39285D01*
X53351Y-39285D02*
X55590Y-39285D01*
X49739Y-39285D02*
X50647Y-39285D01*
X44245Y-39285D02*
X48261Y-39285D01*
X69739Y-39205D02*
X73755Y-39205D01*
X59739Y-39205D02*
X68261Y-39205D01*
X58135Y-39205D02*
X58261Y-39205D01*
X56410Y-39205D02*
X57315Y-39205D01*
X53385Y-39205D02*
X55590Y-39205D01*
X49739Y-39205D02*
X50614Y-39205D01*
X44245Y-39205D02*
X48261Y-39205D01*
X69739Y-39125D02*
X73755Y-39125D01*
X59739Y-39125D02*
X68261Y-39125D01*
X58135Y-39125D02*
X58261Y-39125D01*
X56410Y-39125D02*
X57315Y-39125D01*
X53418Y-39125D02*
X55590Y-39125D01*
X49739Y-39125D02*
X50581Y-39125D01*
X44245Y-39125D02*
X48261Y-39125D01*
X69739Y-39045D02*
X73755Y-39045D01*
X59739Y-39045D02*
X68261Y-39045D01*
X58135Y-39045D02*
X58261Y-39045D01*
X56410Y-39045D02*
X57315Y-39045D01*
X53451Y-39045D02*
X55590Y-39045D01*
X49739Y-39045D02*
X50548Y-39045D01*
X44245Y-39045D02*
X48261Y-39045D01*
X69739Y-38965D02*
X73755Y-38965D01*
X59739Y-38965D02*
X68261Y-38965D01*
X58135Y-38965D02*
X58261Y-38965D01*
X56410Y-38965D02*
X57315Y-38965D01*
X53484Y-38965D02*
X55590Y-38965D01*
X49739Y-38965D02*
X50515Y-38965D01*
X44245Y-38965D02*
X48261Y-38965D01*
X69739Y-38885D02*
X73755Y-38885D01*
X59739Y-38885D02*
X68261Y-38885D01*
X58135Y-38885D02*
X58261Y-38885D01*
X56410Y-38885D02*
X57315Y-38885D01*
X53517Y-38885D02*
X55590Y-38885D01*
X49739Y-38885D02*
X50482Y-38885D01*
X44245Y-38885D02*
X48261Y-38885D01*
X69739Y-38805D02*
X73755Y-38805D01*
X59739Y-38805D02*
X68261Y-38805D01*
X58135Y-38805D02*
X58261Y-38805D01*
X56410Y-38805D02*
X57315Y-38805D01*
X53549Y-38805D02*
X55590Y-38805D01*
X49739Y-38805D02*
X50451Y-38805D01*
X44245Y-38805D02*
X48261Y-38805D01*
X69739Y-38725D02*
X73755Y-38725D01*
X59739Y-38725D02*
X68261Y-38725D01*
X58135Y-38725D02*
X58261Y-38725D01*
X56410Y-38725D02*
X57315Y-38725D01*
X53549Y-38725D02*
X55590Y-38725D01*
X49739Y-38725D02*
X50451Y-38725D01*
X44245Y-38725D02*
X48261Y-38725D01*
X69739Y-38645D02*
X73755Y-38645D01*
X59739Y-38645D02*
X68261Y-38645D01*
X58135Y-38645D02*
X58261Y-38645D01*
X56410Y-38645D02*
X57315Y-38645D01*
X53549Y-38645D02*
X55590Y-38645D01*
X49739Y-38645D02*
X50451Y-38645D01*
X44245Y-38645D02*
X48261Y-38645D01*
X69710Y-38565D02*
X73755Y-38565D01*
X59710Y-38565D02*
X68291Y-38565D01*
X58135Y-38565D02*
X58291Y-38565D01*
X56410Y-38565D02*
X57315Y-38565D01*
X53549Y-38565D02*
X55590Y-38565D01*
X49710Y-38565D02*
X50451Y-38565D01*
X44245Y-38565D02*
X48291Y-38565D01*
X69642Y-38485D02*
X73755Y-38485D01*
X59642Y-38485D02*
X68358Y-38485D01*
X58135Y-38485D02*
X58358Y-38485D01*
X56410Y-38485D02*
X57315Y-38485D01*
X53549Y-38485D02*
X55590Y-38485D01*
X49642Y-38485D02*
X50451Y-38485D01*
X44245Y-38485D02*
X48358Y-38485D01*
X68461Y-38405D02*
X73755Y-38405D01*
X58135Y-38405D02*
X68460Y-38405D01*
X56410Y-38405D02*
X57315Y-38405D01*
X53549Y-38405D02*
X55590Y-38405D01*
X44245Y-38405D02*
X50451Y-38405D01*
X68461Y-38325D02*
X73755Y-38325D01*
X58135Y-38325D02*
X68460Y-38325D01*
X56410Y-38325D02*
X57315Y-38325D01*
X53549Y-38325D02*
X55590Y-38325D01*
X44245Y-38325D02*
X50451Y-38325D01*
X68461Y-38245D02*
X73755Y-38245D01*
X58135Y-38245D02*
X68460Y-38245D01*
X56410Y-38245D02*
X57315Y-38245D01*
X53549Y-38245D02*
X55590Y-38245D01*
X44245Y-38245D02*
X50451Y-38245D01*
X68461Y-38165D02*
X73755Y-38165D01*
X58135Y-38165D02*
X68460Y-38165D01*
X56410Y-38165D02*
X57315Y-38165D01*
X53539Y-38165D02*
X55590Y-38165D01*
X44245Y-38165D02*
X50462Y-38165D01*
X68461Y-38085D02*
X73755Y-38085D01*
X58135Y-38085D02*
X68460Y-38085D01*
X56410Y-38085D02*
X57315Y-38085D01*
X53506Y-38085D02*
X55590Y-38085D01*
X44245Y-38085D02*
X50495Y-38085D01*
X68461Y-38005D02*
X73755Y-38005D01*
X58135Y-38005D02*
X68460Y-38005D01*
X56410Y-38005D02*
X57315Y-38005D01*
X53473Y-38005D02*
X55590Y-38005D01*
X44245Y-38005D02*
X50528Y-38005D01*
X68461Y-37925D02*
X73755Y-37925D01*
X58135Y-37925D02*
X68460Y-37925D01*
X56410Y-37925D02*
X57315Y-37925D01*
X53440Y-37925D02*
X55590Y-37925D01*
X44245Y-37925D02*
X50561Y-37925D01*
X68461Y-37845D02*
X73755Y-37845D01*
X58135Y-37845D02*
X68460Y-37845D01*
X56410Y-37845D02*
X57315Y-37845D01*
X53407Y-37845D02*
X55590Y-37845D01*
X44245Y-37845D02*
X50595Y-37845D01*
X68461Y-37765D02*
X73755Y-37765D01*
X58135Y-37765D02*
X68460Y-37765D01*
X56410Y-37765D02*
X57315Y-37765D01*
X53374Y-37765D02*
X55590Y-37765D01*
X44245Y-37765D02*
X50628Y-37765D01*
X68461Y-37685D02*
X73755Y-37685D01*
X58135Y-37685D02*
X68460Y-37685D01*
X56410Y-37685D02*
X57315Y-37685D01*
X53341Y-37685D02*
X55590Y-37685D01*
X44245Y-37685D02*
X50661Y-37685D01*
X68461Y-37605D02*
X73755Y-37605D01*
X58135Y-37605D02*
X68460Y-37605D01*
X56410Y-37605D02*
X57315Y-37605D01*
X53297Y-37605D02*
X55590Y-37605D01*
X44245Y-37605D02*
X50703Y-37605D01*
X69632Y-37525D02*
X73755Y-37525D01*
X59632Y-37525D02*
X68368Y-37525D01*
X58135Y-37525D02*
X58368Y-37525D01*
X56410Y-37525D02*
X57315Y-37525D01*
X53217Y-37525D02*
X55590Y-37525D01*
X49632Y-37525D02*
X50783Y-37525D01*
X44245Y-37525D02*
X48368Y-37525D01*
X69705Y-37445D02*
X73755Y-37445D01*
X59705Y-37445D02*
X68294Y-37445D01*
X58135Y-37445D02*
X58294Y-37445D01*
X56410Y-37445D02*
X57315Y-37445D01*
X53137Y-37445D02*
X55590Y-37445D01*
X49705Y-37445D02*
X50863Y-37445D01*
X44245Y-37445D02*
X48294Y-37445D01*
X69739Y-37365D02*
X73755Y-37365D01*
X59739Y-37365D02*
X68261Y-37365D01*
X58135Y-37365D02*
X58261Y-37365D01*
X56410Y-37365D02*
X57315Y-37365D01*
X53057Y-37365D02*
X55590Y-37365D01*
X49739Y-37365D02*
X50943Y-37365D01*
X44245Y-37365D02*
X48261Y-37365D01*
X69739Y-37285D02*
X73755Y-37285D01*
X59739Y-37285D02*
X68261Y-37285D01*
X58135Y-37285D02*
X58261Y-37285D01*
X56410Y-37285D02*
X57315Y-37285D01*
X52977Y-37285D02*
X55590Y-37285D01*
X49739Y-37285D02*
X51023Y-37285D01*
X44245Y-37285D02*
X48261Y-37285D01*
X69739Y-37205D02*
X73755Y-37205D01*
X59739Y-37205D02*
X68261Y-37205D01*
X58135Y-37205D02*
X58261Y-37205D01*
X56410Y-37205D02*
X57315Y-37205D01*
X52897Y-37205D02*
X55590Y-37205D01*
X49739Y-37205D02*
X51103Y-37205D01*
X44245Y-37205D02*
X48261Y-37205D01*
X69739Y-37125D02*
X73755Y-37125D01*
X59739Y-37125D02*
X68261Y-37125D01*
X58135Y-37125D02*
X58261Y-37125D01*
X56410Y-37125D02*
X57315Y-37125D01*
X52730Y-37125D02*
X55590Y-37125D01*
X49739Y-37125D02*
X51268Y-37125D01*
X44245Y-37125D02*
X48261Y-37125D01*
X69739Y-37045D02*
X73755Y-37045D01*
X66118Y-37045D02*
X68261Y-37045D01*
X62118Y-37045D02*
X65881Y-37045D01*
X59739Y-37045D02*
X61881Y-37045D01*
X58135Y-37045D02*
X58261Y-37045D01*
X56410Y-37045D02*
X57315Y-37045D01*
X52537Y-37045D02*
X55590Y-37045D01*
X49739Y-37045D02*
X51462Y-37045D01*
X44245Y-37045D02*
X48261Y-37045D01*
X69739Y-36965D02*
X73755Y-36965D01*
X66311Y-36965D02*
X68261Y-36965D01*
X62311Y-36965D02*
X65689Y-36965D01*
X59739Y-36965D02*
X61689Y-36965D01*
X58135Y-36965D02*
X58261Y-36965D01*
X56410Y-36965D02*
X57315Y-36965D01*
X52344Y-36965D02*
X55590Y-36965D01*
X49739Y-36965D02*
X51657Y-36965D01*
X44245Y-36965D02*
X48261Y-36965D01*
X69739Y-36885D02*
X73755Y-36885D01*
X66391Y-36885D02*
X68261Y-36885D01*
X62391Y-36885D02*
X65609Y-36885D01*
X59739Y-36885D02*
X61609Y-36885D01*
X58135Y-36885D02*
X58261Y-36885D01*
X56410Y-36885D02*
X57315Y-36885D01*
X49739Y-36885D02*
X55590Y-36885D01*
X44245Y-36885D02*
X48261Y-36885D01*
X69739Y-36805D02*
X73755Y-36805D01*
X66467Y-36805D02*
X68261Y-36805D01*
X62467Y-36805D02*
X65532Y-36805D01*
X59739Y-36805D02*
X61532Y-36805D01*
X58135Y-36805D02*
X58261Y-36805D01*
X56410Y-36805D02*
X57315Y-36805D01*
X49739Y-36805D02*
X55590Y-36805D01*
X44245Y-36805D02*
X48261Y-36805D01*
X69739Y-36725D02*
X73755Y-36725D01*
X66500Y-36725D02*
X68261Y-36725D01*
X62500Y-36725D02*
X65499Y-36725D01*
X59739Y-36725D02*
X61499Y-36725D01*
X58135Y-36725D02*
X58261Y-36725D01*
X56410Y-36725D02*
X57315Y-36725D01*
X49739Y-36725D02*
X55590Y-36725D01*
X44245Y-36725D02*
X48261Y-36725D01*
X69710Y-36645D02*
X73755Y-36645D01*
X66534Y-36645D02*
X68291Y-36645D01*
X62534Y-36645D02*
X65465Y-36645D01*
X59710Y-36645D02*
X61465Y-36645D01*
X58135Y-36645D02*
X58291Y-36645D01*
X56410Y-36645D02*
X57315Y-36645D01*
X49710Y-36645D02*
X55590Y-36645D01*
X44245Y-36645D02*
X48291Y-36645D01*
X69642Y-36565D02*
X73755Y-36565D01*
X66549Y-36565D02*
X68358Y-36565D01*
X62549Y-36565D02*
X65451Y-36565D01*
X59642Y-36565D02*
X61451Y-36565D01*
X58135Y-36565D02*
X58358Y-36565D01*
X57307Y-36565D02*
X57315Y-36565D01*
X56410Y-36565D02*
X56692Y-36565D01*
X55308Y-36565D02*
X55590Y-36565D01*
X54308Y-36565D02*
X54692Y-36565D01*
X53308Y-36565D02*
X53692Y-36565D01*
X51286Y-36565D02*
X52692Y-36565D01*
X49642Y-36565D02*
X50719Y-36565D01*
X44245Y-36565D02*
X48358Y-36565D01*
X69410Y-36485D02*
X73755Y-36485D01*
X66549Y-36485D02*
X68590Y-36485D01*
X62549Y-36485D02*
X65451Y-36485D01*
X59410Y-36485D02*
X61451Y-36485D01*
X58135Y-36485D02*
X58590Y-36485D01*
X56419Y-36485D02*
X56580Y-36485D01*
X55420Y-36485D02*
X55580Y-36485D01*
X54420Y-36485D02*
X54580Y-36485D01*
X53419Y-36485D02*
X53580Y-36485D01*
X51355Y-36485D02*
X52580Y-36485D01*
X49410Y-36485D02*
X50644Y-36485D01*
X44245Y-36485D02*
X48590Y-36485D01*
X69410Y-36405D02*
X73755Y-36405D01*
X66549Y-36405D02*
X68590Y-36405D01*
X62549Y-36405D02*
X65451Y-36405D01*
X59410Y-36405D02*
X61451Y-36405D01*
X58135Y-36405D02*
X58590Y-36405D01*
X56499Y-36405D02*
X56500Y-36405D01*
X55500Y-36405D02*
X55500Y-36405D01*
X54500Y-36405D02*
X54500Y-36405D01*
X53498Y-36405D02*
X53500Y-36405D01*
X51334Y-36405D02*
X52500Y-36405D01*
X49410Y-36405D02*
X50666Y-36405D01*
X44245Y-36405D02*
X48590Y-36405D01*
X69410Y-36325D02*
X73755Y-36325D01*
X66522Y-36325D02*
X68590Y-36325D01*
X62522Y-36325D02*
X65479Y-36325D01*
X59410Y-36325D02*
X61479Y-36325D01*
X58135Y-36325D02*
X58590Y-36325D01*
X51548Y-36325D02*
X52441Y-36325D01*
X51254Y-36325D02*
X51396Y-36325D01*
X50604Y-36325D02*
X50746Y-36325D01*
X49410Y-36325D02*
X50451Y-36325D01*
X44245Y-36325D02*
X48590Y-36325D01*
X69410Y-36245D02*
X73755Y-36245D01*
X66489Y-36245D02*
X68590Y-36245D01*
X62489Y-36245D02*
X65512Y-36245D01*
X59410Y-36245D02*
X61512Y-36245D01*
X58135Y-36245D02*
X58590Y-36245D01*
X51578Y-36245D02*
X52408Y-36245D01*
X51174Y-36245D02*
X51316Y-36245D01*
X50684Y-36245D02*
X50826Y-36245D01*
X49410Y-36245D02*
X50417Y-36245D01*
X44245Y-36245D02*
X48590Y-36245D01*
X69410Y-36165D02*
X73755Y-36165D01*
X66441Y-36165D02*
X68590Y-36165D01*
X62441Y-36165D02*
X65559Y-36165D01*
X59410Y-36165D02*
X61559Y-36165D01*
X58135Y-36165D02*
X58590Y-36165D01*
X51607Y-36165D02*
X52375Y-36165D01*
X51094Y-36165D02*
X51236Y-36165D01*
X50764Y-36165D02*
X50906Y-36165D01*
X49410Y-36165D02*
X50383Y-36165D01*
X44245Y-36165D02*
X48590Y-36165D01*
X69410Y-36085D02*
X73755Y-36085D01*
X66410Y-36085D02*
X68590Y-36085D01*
X62361Y-36085D02*
X65590Y-36085D01*
X59410Y-36085D02*
X61639Y-36085D01*
X58135Y-36085D02*
X58590Y-36085D01*
X51632Y-36085D02*
X52360Y-36085D01*
X51014Y-36085D02*
X51156Y-36085D01*
X50844Y-36085D02*
X50986Y-36085D01*
X49410Y-36085D02*
X50374Y-36085D01*
X44245Y-36085D02*
X48590Y-36085D01*
X69410Y-36005D02*
X73755Y-36005D01*
X66410Y-36005D02*
X68590Y-36005D01*
X62239Y-36005D02*
X65590Y-36005D01*
X59410Y-36005D02*
X61759Y-36005D01*
X58135Y-36005D02*
X58590Y-36005D01*
X51629Y-36005D02*
X52360Y-36005D01*
X50924Y-36005D02*
X51076Y-36005D01*
X49410Y-36005D02*
X50371Y-36005D01*
X44245Y-36005D02*
X48590Y-36005D01*
X69410Y-35925D02*
X73755Y-35925D01*
X66410Y-35925D02*
X68590Y-35925D01*
X62351Y-35925D02*
X65590Y-35925D01*
X59410Y-35925D02*
X61649Y-35925D01*
X58135Y-35925D02*
X58590Y-35925D01*
X51626Y-35925D02*
X52360Y-35925D01*
X51004Y-35925D02*
X51146Y-35925D01*
X50854Y-35925D02*
X50996Y-35925D01*
X49410Y-35925D02*
X50368Y-35925D01*
X44245Y-35925D02*
X48590Y-35925D01*
X69410Y-35845D02*
X73755Y-35845D01*
X66431Y-35845D02*
X68590Y-35845D01*
X62431Y-35845D02*
X65569Y-35845D01*
X59410Y-35845D02*
X61569Y-35845D01*
X58135Y-35845D02*
X58590Y-35845D01*
X51621Y-35845D02*
X52372Y-35845D01*
X51084Y-35845D02*
X51226Y-35845D01*
X50774Y-35845D02*
X50916Y-35845D01*
X49410Y-35845D02*
X50389Y-35845D01*
X44245Y-35845D02*
X48590Y-35845D01*
X69410Y-35765D02*
X73755Y-35765D01*
X66484Y-35765D02*
X68590Y-35765D01*
X62484Y-35765D02*
X65515Y-35765D01*
X59410Y-35765D02*
X61515Y-35765D01*
X58135Y-35765D02*
X58590Y-35765D01*
X51587Y-35765D02*
X52405Y-35765D01*
X51164Y-35765D02*
X51306Y-35765D01*
X50694Y-35765D02*
X50836Y-35765D01*
X49410Y-35765D02*
X50419Y-35765D01*
X44245Y-35765D02*
X48590Y-35765D01*
X69410Y-35685D02*
X73755Y-35685D01*
X66517Y-35685D02*
X68590Y-35685D01*
X62517Y-35685D02*
X65482Y-35685D01*
X59410Y-35685D02*
X61482Y-35685D01*
X58135Y-35685D02*
X58590Y-35685D01*
X51554Y-35685D02*
X52438Y-35685D01*
X51244Y-35685D02*
X51386Y-35685D01*
X50614Y-35685D02*
X50756Y-35685D01*
X49410Y-35685D02*
X50448Y-35685D01*
X44245Y-35685D02*
X48590Y-35685D01*
X69410Y-35605D02*
X73755Y-35605D01*
X66549Y-35605D02*
X68590Y-35605D01*
X62549Y-35605D02*
X65451Y-35605D01*
X59410Y-35605D02*
X61451Y-35605D01*
X58135Y-35605D02*
X58590Y-35605D01*
X51324Y-35605D02*
X52490Y-35605D01*
X49410Y-35605D02*
X50676Y-35605D01*
X44245Y-35605D02*
X48590Y-35605D01*
X69410Y-35525D02*
X73755Y-35525D01*
X66549Y-35525D02*
X68590Y-35525D01*
X62549Y-35525D02*
X65451Y-35525D01*
X59410Y-35525D02*
X61451Y-35525D01*
X58135Y-35525D02*
X58590Y-35525D01*
X51360Y-35525D02*
X52570Y-35525D01*
X49410Y-35525D02*
X50641Y-35525D01*
X44245Y-35525D02*
X48590Y-35525D01*
X69410Y-35445D02*
X73755Y-35445D01*
X66549Y-35445D02*
X68590Y-35445D01*
X62549Y-35445D02*
X65451Y-35445D01*
X59410Y-35445D02*
X61451Y-35445D01*
X58135Y-35445D02*
X58590Y-35445D01*
X51308Y-35445D02*
X52590Y-35445D01*
X49410Y-35445D02*
X50690Y-35445D01*
X44245Y-35445D02*
X48590Y-35445D01*
X69410Y-35365D02*
X73755Y-35365D01*
X66539Y-35365D02*
X68590Y-35365D01*
X62539Y-35365D02*
X65462Y-35365D01*
X59410Y-35365D02*
X61462Y-35365D01*
X58133Y-35365D02*
X58590Y-35365D01*
X49410Y-35365D02*
X52590Y-35365D01*
X44245Y-35365D02*
X48590Y-35365D01*
X69410Y-35285D02*
X73755Y-35285D01*
X66505Y-35285D02*
X68590Y-35285D01*
X62505Y-35285D02*
X65496Y-35285D01*
X59410Y-35285D02*
X61496Y-35285D01*
X58117Y-35285D02*
X58590Y-35285D01*
X49410Y-35285D02*
X52605Y-35285D01*
X44245Y-35285D02*
X48590Y-35285D01*
X69410Y-35205D02*
X73755Y-35205D01*
X66472Y-35205D02*
X68590Y-35205D01*
X62472Y-35205D02*
X65529Y-35205D01*
X59410Y-35205D02*
X61529Y-35205D01*
X58094Y-35205D02*
X58590Y-35205D01*
X49410Y-35205D02*
X52621Y-35205D01*
X44245Y-35205D02*
X48590Y-35205D01*
X69410Y-35125D02*
X73755Y-35125D01*
X66410Y-35125D02*
X68590Y-35125D01*
X62401Y-35125D02*
X65590Y-35125D01*
X59410Y-35125D02*
X61599Y-35125D01*
X58040Y-35125D02*
X58590Y-35125D01*
X49410Y-35125D02*
X52672Y-35125D01*
X44245Y-35125D02*
X48590Y-35125D01*
X69410Y-35045D02*
X73755Y-35045D01*
X66410Y-35045D02*
X68590Y-35045D01*
X62321Y-35045D02*
X65590Y-35045D01*
X59410Y-35045D02*
X61679Y-35045D01*
X57972Y-35045D02*
X58590Y-35045D01*
X49410Y-35045D02*
X52733Y-35045D01*
X44245Y-35045D02*
X48590Y-35045D01*
X69410Y-34965D02*
X73755Y-34965D01*
X66410Y-34965D02*
X68590Y-34965D01*
X62143Y-34965D02*
X65590Y-34965D01*
X59410Y-34965D02*
X61858Y-34965D01*
X57887Y-34965D02*
X58590Y-34965D01*
X49410Y-34965D02*
X52819Y-34965D01*
X44245Y-34965D02*
X48590Y-34965D01*
X69410Y-34885D02*
X73755Y-34885D01*
X66410Y-34885D02*
X68590Y-34885D01*
X59410Y-34885D02*
X65590Y-34885D01*
X57760Y-34885D02*
X58590Y-34885D01*
X49410Y-34885D02*
X52946Y-34885D01*
X44245Y-34885D02*
X48590Y-34885D01*
X69410Y-34805D02*
X73755Y-34805D01*
X66410Y-34805D02*
X68590Y-34805D01*
X59410Y-34805D02*
X65590Y-34805D01*
X49410Y-34805D02*
X58590Y-34805D01*
X44245Y-34805D02*
X48590Y-34805D01*
X69410Y-34725D02*
X73755Y-34725D01*
X66410Y-34725D02*
X68590Y-34725D01*
X59410Y-34725D02*
X65590Y-34725D01*
X49410Y-34725D02*
X58590Y-34725D01*
X44245Y-34725D02*
X48590Y-34725D01*
X69410Y-34645D02*
X73755Y-34645D01*
X66410Y-34645D02*
X68590Y-34645D01*
X59410Y-34645D02*
X65590Y-34645D01*
X49410Y-34645D02*
X58590Y-34645D01*
X44245Y-34645D02*
X48590Y-34645D01*
X69410Y-34565D02*
X73755Y-34565D01*
X66410Y-34565D02*
X68590Y-34565D01*
X59410Y-34565D02*
X65590Y-34565D01*
X49410Y-34565D02*
X58590Y-34565D01*
X44245Y-34565D02*
X48590Y-34565D01*
X69410Y-34485D02*
X73755Y-34485D01*
X66410Y-34485D02*
X68590Y-34485D01*
X59410Y-34485D02*
X65590Y-34485D01*
X49410Y-34485D02*
X58590Y-34485D01*
X44245Y-34485D02*
X48590Y-34485D01*
X69410Y-34405D02*
X73755Y-34405D01*
X66410Y-34405D02*
X68590Y-34405D01*
X59410Y-34405D02*
X65590Y-34405D01*
X49410Y-34405D02*
X58590Y-34405D01*
X44245Y-34405D02*
X48590Y-34405D01*
X69410Y-34325D02*
X73755Y-34325D01*
X66410Y-34325D02*
X68590Y-34325D01*
X59410Y-34325D02*
X65590Y-34325D01*
X49410Y-34325D02*
X58590Y-34325D01*
X44245Y-34325D02*
X48590Y-34325D01*
X69410Y-34245D02*
X73755Y-34245D01*
X66410Y-34245D02*
X68590Y-34245D01*
X59410Y-34245D02*
X65590Y-34245D01*
X49410Y-34245D02*
X58590Y-34245D01*
X44245Y-34245D02*
X48590Y-34245D01*
X69410Y-34165D02*
X73755Y-34165D01*
X66410Y-34165D02*
X68590Y-34165D01*
X59410Y-34165D02*
X65590Y-34165D01*
X49410Y-34165D02*
X58590Y-34165D01*
X44245Y-34165D02*
X48590Y-34165D01*
X69629Y-34085D02*
X73755Y-34085D01*
X66410Y-34085D02*
X68370Y-34085D01*
X59629Y-34085D02*
X65590Y-34085D01*
X49629Y-34085D02*
X58370Y-34085D01*
X44245Y-34085D02*
X48370Y-34085D01*
X69721Y-34005D02*
X73755Y-34005D01*
X66410Y-34005D02*
X68278Y-34005D01*
X59721Y-34005D02*
X65590Y-34005D01*
X49721Y-34005D02*
X58278Y-34005D01*
X44245Y-34005D02*
X48278Y-34005D01*
X69754Y-33925D02*
X73755Y-33925D01*
X66410Y-33925D02*
X68245Y-33925D01*
X59754Y-33925D02*
X65590Y-33925D01*
X49754Y-33925D02*
X58245Y-33925D01*
X44245Y-33925D02*
X48245Y-33925D01*
X69759Y-33845D02*
X73755Y-33845D01*
X66410Y-33845D02*
X68241Y-33845D01*
X59759Y-33845D02*
X65590Y-33845D01*
X49759Y-33845D02*
X58241Y-33845D01*
X44245Y-33845D02*
X48241Y-33845D01*
X69759Y-33765D02*
X73755Y-33765D01*
X66410Y-33765D02*
X68241Y-33765D01*
X59759Y-33765D02*
X65590Y-33765D01*
X49759Y-33765D02*
X58241Y-33765D01*
X44245Y-33765D02*
X48241Y-33765D01*
X69759Y-33685D02*
X73755Y-33685D01*
X66410Y-33685D02*
X68241Y-33685D01*
X59759Y-33685D02*
X65590Y-33685D01*
X49759Y-33685D02*
X58241Y-33685D01*
X44245Y-33685D02*
X48241Y-33685D01*
X69759Y-33605D02*
X73755Y-33605D01*
X66410Y-33605D02*
X68241Y-33605D01*
X59759Y-33605D02*
X65590Y-33605D01*
X49759Y-33605D02*
X58241Y-33605D01*
X44245Y-33605D02*
X48241Y-33605D01*
X69759Y-33525D02*
X73755Y-33525D01*
X66410Y-33525D02*
X68241Y-33525D01*
X59759Y-33525D02*
X65590Y-33525D01*
X49759Y-33525D02*
X58241Y-33525D01*
X44245Y-33525D02*
X48241Y-33525D01*
X69759Y-33445D02*
X73755Y-33445D01*
X66410Y-33445D02*
X68241Y-33445D01*
X59759Y-33445D02*
X65590Y-33445D01*
X49759Y-33445D02*
X58241Y-33445D01*
X44245Y-33445D02*
X48241Y-33445D01*
X69759Y-33365D02*
X73755Y-33365D01*
X66410Y-33365D02*
X68241Y-33365D01*
X59759Y-33365D02*
X65590Y-33365D01*
X49759Y-33365D02*
X58241Y-33365D01*
X44245Y-33365D02*
X48241Y-33365D01*
X69759Y-33285D02*
X73755Y-33285D01*
X66410Y-33285D02*
X68241Y-33285D01*
X59759Y-33285D02*
X65590Y-33285D01*
X49759Y-33285D02*
X58241Y-33285D01*
X44245Y-33285D02*
X48241Y-33285D01*
X69759Y-33205D02*
X73755Y-33205D01*
X66410Y-33205D02*
X68241Y-33205D01*
X59759Y-33205D02*
X65590Y-33205D01*
X49759Y-33205D02*
X58241Y-33205D01*
X44245Y-33205D02*
X48241Y-33205D01*
X69734Y-33125D02*
X73755Y-33125D01*
X68030Y-33125D02*
X68267Y-33125D01*
X59734Y-33125D02*
X65590Y-33125D01*
X49734Y-33125D02*
X58267Y-33125D01*
X44245Y-33125D02*
X48267Y-33125D01*
X69672Y-33045D02*
X73755Y-33045D01*
X68131Y-33045D02*
X68328Y-33045D01*
X59672Y-33045D02*
X65590Y-33045D01*
X49672Y-33045D02*
X58328Y-33045D01*
X44245Y-33045D02*
X48328Y-33045D01*
X69662Y-32965D02*
X73755Y-32965D01*
X68210Y-32965D02*
X68338Y-32965D01*
X59662Y-32965D02*
X65590Y-32965D01*
X49662Y-32965D02*
X58338Y-32965D01*
X44245Y-32965D02*
X48338Y-32965D01*
X69729Y-32885D02*
X73755Y-32885D01*
X59729Y-32885D02*
X65513Y-32885D01*
X49729Y-32885D02*
X58270Y-32885D01*
X44245Y-32885D02*
X48270Y-32885D01*
X69759Y-32805D02*
X73755Y-32805D01*
X44245Y-32805D02*
X48241Y-32805D01*
X69759Y-32725D02*
X73755Y-32725D01*
X44245Y-32725D02*
X48241Y-32725D01*
X69759Y-32645D02*
X73755Y-32645D01*
X44245Y-32645D02*
X48241Y-32645D01*
X69759Y-32565D02*
X73755Y-32565D01*
X44245Y-32565D02*
X48241Y-32565D01*
X69759Y-32485D02*
X73755Y-32485D01*
X44245Y-32485D02*
X48241Y-32485D01*
X69759Y-32405D02*
X73755Y-32405D01*
X44245Y-32405D02*
X48241Y-32405D01*
X69759Y-32325D02*
X73755Y-32325D01*
X66113Y-32325D02*
X67692Y-32325D01*
X44245Y-32325D02*
X48241Y-32325D01*
X69759Y-32245D02*
X73755Y-32245D01*
X66033Y-32245D02*
X67772Y-32245D01*
X44245Y-32245D02*
X48241Y-32245D01*
X69759Y-32165D02*
X73755Y-32165D01*
X65953Y-32165D02*
X67852Y-32165D01*
X44245Y-32165D02*
X48241Y-32165D01*
X69759Y-32085D02*
X73755Y-32085D01*
X65836Y-32085D02*
X67970Y-32085D01*
X44245Y-32085D02*
X48241Y-32085D01*
X69726Y-32005D02*
X73755Y-32005D01*
X59726Y-32005D02*
X68275Y-32005D01*
X49726Y-32005D02*
X58275Y-32005D01*
X44245Y-32005D02*
X48275Y-32005D01*
X69652Y-31925D02*
X73755Y-31925D01*
X59652Y-31925D02*
X68348Y-31925D01*
X49652Y-31925D02*
X58348Y-31925D01*
X44245Y-31925D02*
X48348Y-31925D01*
X44245Y-31845D02*
X73755Y-31845D01*
X44245Y-31765D02*
X73755Y-31765D01*
X44245Y-31685D02*
X73755Y-31685D01*
X44245Y-31605D02*
X73755Y-31605D01*
X44245Y-31525D02*
X73755Y-31525D01*
X44245Y-31445D02*
X73755Y-31445D01*
X44245Y-31365D02*
X73755Y-31365D01*
X44245Y-31285D02*
X73755Y-31285D01*
X44245Y-31205D02*
X73755Y-31205D01*
X44245Y-31125D02*
X73755Y-31125D01*
X44245Y-31045D02*
X73755Y-31045D01*
X72282Y-30965D02*
X73755Y-30965D01*
X46282Y-30965D02*
X71716Y-30965D01*
X44245Y-30965D02*
X45716Y-30965D01*
X72476Y-30885D02*
X73755Y-30885D01*
X46476Y-30885D02*
X71524Y-30885D01*
X44245Y-30885D02*
X45524Y-30885D01*
X72609Y-30805D02*
X73755Y-30805D01*
X46609Y-30805D02*
X71391Y-30805D01*
X44245Y-30805D02*
X45391Y-30805D01*
X72689Y-30725D02*
X73755Y-30725D01*
X46689Y-30725D02*
X71311Y-30725D01*
X44245Y-30725D02*
X45311Y-30725D01*
X72769Y-30645D02*
X73755Y-30645D01*
X46769Y-30645D02*
X71231Y-30645D01*
X44245Y-30645D02*
X45231Y-30645D01*
X72847Y-30565D02*
X73755Y-30565D01*
X46847Y-30565D02*
X71151Y-30565D01*
X44245Y-30565D02*
X45151Y-30565D01*
X72881Y-30485D02*
X73755Y-30485D01*
X46881Y-30485D02*
X71118Y-30485D01*
X44245Y-30485D02*
X45118Y-30485D01*
X72914Y-30405D02*
X73755Y-30405D01*
X46914Y-30405D02*
X71085Y-30405D01*
X44245Y-30405D02*
X45085Y-30405D01*
X72947Y-30325D02*
X73755Y-30325D01*
X46947Y-30325D02*
X71052Y-30325D01*
X44245Y-30325D02*
X45052Y-30325D01*
X72981Y-30245D02*
X73755Y-30245D01*
X46981Y-30245D02*
X71019Y-30245D01*
X44245Y-30245D02*
X45019Y-30245D01*
X73000Y-30165D02*
X73755Y-30165D01*
X47000Y-30165D02*
X71000Y-30165D01*
X44245Y-30165D02*
X45000Y-30165D01*
X73000Y-30085D02*
X73755Y-30085D01*
X47000Y-30085D02*
X71000Y-30085D01*
X44245Y-30085D02*
X45000Y-30085D01*
X73000Y-30005D02*
X73755Y-30005D01*
X47000Y-30005D02*
X71000Y-30005D01*
X44245Y-30005D02*
X45000Y-30005D01*
X73000Y-29925D02*
X73755Y-29925D01*
X47000Y-29925D02*
X71000Y-29925D01*
X44245Y-29925D02*
X45000Y-29925D01*
X73000Y-29845D02*
X73755Y-29845D01*
X47000Y-29845D02*
X71000Y-29845D01*
X44245Y-29845D02*
X45000Y-29845D01*
X72985Y-29765D02*
X73755Y-29765D01*
X46985Y-29765D02*
X71015Y-29765D01*
X44245Y-29765D02*
X45015Y-29765D01*
X72952Y-29685D02*
X73755Y-29685D01*
X46952Y-29685D02*
X71048Y-29685D01*
X44245Y-29685D02*
X45048Y-29685D01*
X72919Y-29605D02*
X73755Y-29605D01*
X46919Y-29605D02*
X71082Y-29605D01*
X44245Y-29605D02*
X45082Y-29605D01*
X72886Y-29525D02*
X73755Y-29525D01*
X46886Y-29525D02*
X71115Y-29525D01*
X44245Y-29525D02*
X45115Y-29525D01*
X72853Y-29445D02*
X73755Y-29445D01*
X46853Y-29445D02*
X71148Y-29445D01*
X44245Y-29445D02*
X45148Y-29445D01*
X72779Y-29365D02*
X73755Y-29365D01*
X46779Y-29365D02*
X71221Y-29365D01*
X44245Y-29365D02*
X45221Y-29365D01*
X72699Y-29285D02*
X73755Y-29285D01*
X46699Y-29285D02*
X71301Y-29285D01*
X44245Y-29285D02*
X45301Y-29285D01*
X72619Y-29205D02*
X73755Y-29205D01*
X46619Y-29205D02*
X71381Y-29205D01*
X44245Y-29205D02*
X45381Y-29205D01*
X72500Y-29125D02*
X73755Y-29125D01*
X46500Y-29125D02*
X71500Y-29125D01*
X44245Y-29125D02*
X45500Y-29125D01*
X72308Y-29045D02*
X73755Y-29045D01*
X46308Y-29045D02*
X71694Y-29045D01*
X44245Y-29045D02*
X45694Y-29045D01*
X44245Y-28965D02*
X73755Y-28965D01*
X44245Y-28885D02*
X73755Y-28885D01*
X44245Y-28805D02*
X73755Y-28805D01*
X44245Y-28725D02*
X73755Y-28725D01*
X44245Y-28645D02*
X73755Y-28645D01*
X44245Y-28565D02*
X73755Y-28565D01*
X44245Y-28485D02*
X73755Y-28485D01*
X44245Y-28405D02*
X73755Y-28405D01*
X44245Y-28325D02*
X73755Y-28325D01*
X44245Y-28245D02*
X73755Y-28245D01*
X73755Y-57755D02*
X73755Y-28245D01*
X73755Y-28245D02*
X44245Y-28245D01*
X44245Y-28245D02*
X44245Y-57755D01*
X44245Y-57755D02*
X45800Y-57755D01*
X45800Y-57755D02*
X45800Y-57000D01*
X45800Y-57000D02*
X45433Y-56847D01*
X45433Y-56847D02*
X45152Y-56566D01*
X45152Y-56566D02*
X45000Y-56198D01*
X45000Y-56198D02*
X45000Y-55800D01*
X45000Y-55800D02*
X45153Y-55433D01*
X45153Y-55433D02*
X45434Y-55152D01*
X45434Y-55152D02*
X45800Y-55000D01*
X45800Y-55000D02*
X45800Y-31000D01*
X45800Y-31000D02*
X45433Y-30847D01*
X45433Y-30847D02*
X45152Y-30566D01*
X45152Y-30566D02*
X45000Y-30198D01*
X45000Y-30198D02*
X45000Y-29800D01*
X45000Y-29800D02*
X45153Y-29433D01*
X45153Y-29433D02*
X45434Y-29152D01*
X45434Y-29152D02*
X45802Y-29000D01*
X45802Y-29000D02*
X46200Y-29000D01*
X46200Y-29000D02*
X46567Y-29153D01*
X46567Y-29153D02*
X46848Y-29434D01*
X46848Y-29434D02*
X47000Y-29802D01*
X47000Y-29802D02*
X47000Y-30200D01*
X47000Y-30200D02*
X46847Y-30567D01*
X46847Y-30567D02*
X46566Y-30848D01*
X46566Y-30848D02*
X46198Y-31000D01*
X46198Y-31000D02*
X45800Y-31000D01*
X45800Y-31000D02*
X45800Y-55000D01*
X45800Y-55000D02*
X46200Y-55000D01*
X46200Y-55000D02*
X46567Y-55153D01*
X46567Y-55153D02*
X46848Y-55434D01*
X46848Y-55434D02*
X47000Y-55802D01*
X47000Y-55802D02*
X47000Y-56200D01*
X47000Y-56200D02*
X46847Y-56567D01*
X46847Y-56567D02*
X46566Y-56848D01*
X46566Y-56848D02*
X46198Y-57000D01*
X46198Y-57000D02*
X45800Y-57000D01*
X45800Y-57000D02*
X45800Y-57755D01*
X45800Y-57755D02*
X54397Y-57755D01*
X54397Y-57755D02*
X54397Y-57515D01*
X54397Y-57515D02*
X54208Y-57436D01*
X54208Y-57436D02*
X54063Y-57291D01*
X54063Y-57291D02*
X54000Y-57138D01*
X54000Y-57138D02*
X53936Y-57292D01*
X53936Y-57292D02*
X53791Y-57437D01*
X53791Y-57437D02*
X53602Y-57515D01*
X53602Y-57515D02*
X53397Y-57515D01*
X53397Y-57515D02*
X53208Y-57436D01*
X53208Y-57436D02*
X53063Y-57291D01*
X53063Y-57291D02*
X52985Y-57102D01*
X52985Y-57102D02*
X52985Y-56897D01*
X52985Y-56897D02*
X53064Y-56708D01*
X53064Y-56708D02*
X53158Y-56614D01*
X53158Y-56614D02*
X53085Y-56614D01*
X53085Y-56614D02*
X52994Y-56576D01*
X52994Y-56576D02*
X52924Y-56506D01*
X52924Y-56506D02*
X52886Y-56414D01*
X52886Y-56414D02*
X52886Y-55585D01*
X52886Y-55585D02*
X52924Y-55494D01*
X52924Y-55494D02*
X52994Y-55424D01*
X52994Y-55424D02*
X53086Y-55386D01*
X53086Y-55386D02*
X53915Y-55386D01*
X53915Y-55386D02*
X54006Y-55424D01*
X54006Y-55424D02*
X54076Y-55494D01*
X54076Y-55494D02*
X54093Y-55536D01*
X54093Y-55536D02*
X54152Y-55479D01*
X54152Y-55479D02*
X54378Y-55385D01*
X54378Y-55385D02*
X54623Y-55385D01*
X54623Y-55385D02*
X54849Y-55479D01*
X54849Y-55479D02*
X55021Y-55652D01*
X55021Y-55652D02*
X55115Y-55878D01*
X55115Y-55878D02*
X55115Y-56123D01*
X55115Y-56123D02*
X55021Y-56349D01*
X55021Y-56349D02*
X54848Y-56521D01*
X54848Y-56521D02*
X54768Y-56554D01*
X54768Y-56554D02*
X54792Y-56564D01*
X54792Y-56564D02*
X54937Y-56709D01*
X54937Y-56709D02*
X55015Y-56898D01*
X55015Y-56898D02*
X55015Y-57103D01*
X55015Y-57103D02*
X54936Y-57292D01*
X54936Y-57292D02*
X54791Y-57437D01*
X54791Y-57437D02*
X54602Y-57515D01*
X54602Y-57515D02*
X54397Y-57515D01*
X54397Y-57515D02*
X54397Y-57755D01*
X54397Y-57755D02*
X61839Y-57755D01*
X61839Y-57755D02*
X61839Y-57457D01*
X61839Y-57457D02*
X61682Y-57426D01*
X61682Y-57426D02*
X61548Y-57336D01*
X61548Y-57336D02*
X58710Y-54498D01*
X58710Y-54498D02*
X58621Y-54365D01*
X58621Y-54365D02*
X58590Y-54208D01*
X58590Y-54208D02*
X58590Y-54114D01*
X58590Y-54114D02*
X58440Y-54114D01*
X58440Y-54114D02*
X58349Y-54076D01*
X58349Y-54076D02*
X58279Y-54006D01*
X58279Y-54006D02*
X58260Y-53960D01*
X58260Y-53960D02*
X49740Y-53960D01*
X49740Y-53960D02*
X49721Y-54006D01*
X49721Y-54006D02*
X49651Y-54076D01*
X49651Y-54076D02*
X49559Y-54114D01*
X49559Y-54114D02*
X48440Y-54114D01*
X48440Y-54114D02*
X48349Y-54076D01*
X48349Y-54076D02*
X48279Y-54006D01*
X48279Y-54006D02*
X48241Y-53914D01*
X48241Y-53914D02*
X48241Y-53185D01*
X48241Y-53185D02*
X48279Y-53094D01*
X48279Y-53094D02*
X48349Y-53024D01*
X48349Y-53024D02*
X48406Y-53000D01*
X48406Y-53000D02*
X48349Y-52976D01*
X48349Y-52976D02*
X48279Y-52906D01*
X48279Y-52906D02*
X48241Y-52814D01*
X48241Y-52814D02*
X48241Y-52085D01*
X48241Y-52085D02*
X48279Y-51994D01*
X48279Y-51994D02*
X48349Y-51924D01*
X48349Y-51924D02*
X48441Y-51886D01*
X48441Y-51886D02*
X48590Y-51886D01*
X48590Y-51886D02*
X48590Y-44114D01*
X48590Y-44114D02*
X48440Y-44114D01*
X48440Y-44114D02*
X48349Y-44076D01*
X48349Y-44076D02*
X48279Y-44006D01*
X48279Y-44006D02*
X48241Y-43914D01*
X48241Y-43914D02*
X48241Y-43185D01*
X48241Y-43185D02*
X48279Y-43094D01*
X48279Y-43094D02*
X48349Y-43024D01*
X48349Y-43024D02*
X48406Y-43000D01*
X48406Y-43000D02*
X48349Y-42976D01*
X48349Y-42976D02*
X48279Y-42906D01*
X48279Y-42906D02*
X48241Y-42814D01*
X48241Y-42814D02*
X48241Y-42085D01*
X48241Y-42085D02*
X48279Y-41994D01*
X48279Y-41994D02*
X48349Y-41924D01*
X48349Y-41924D02*
X48441Y-41886D01*
X48441Y-41886D02*
X48590Y-41886D01*
X48590Y-41886D02*
X48590Y-39484D01*
X48590Y-39484D02*
X48460Y-39484D01*
X48460Y-39484D02*
X48369Y-39446D01*
X48369Y-39446D02*
X48299Y-39376D01*
X48299Y-39376D02*
X48261Y-39284D01*
X48261Y-39284D02*
X48261Y-38635D01*
X48261Y-38635D02*
X48299Y-38544D01*
X48299Y-38544D02*
X48369Y-38474D01*
X48369Y-38474D02*
X48461Y-38436D01*
X48461Y-38436D02*
X49540Y-38436D01*
X49540Y-38436D02*
X49631Y-38474D01*
X49631Y-38474D02*
X49701Y-38544D01*
X49701Y-38544D02*
X49739Y-38636D01*
X49739Y-38636D02*
X49739Y-39285D01*
X49739Y-39285D02*
X49701Y-39376D01*
X49701Y-39376D02*
X49631Y-39446D01*
X49631Y-39446D02*
X49539Y-39484D01*
X49539Y-39484D02*
X49410Y-39484D01*
X49410Y-39484D02*
X49410Y-41886D01*
X49410Y-41886D02*
X49560Y-41886D01*
X49560Y-41886D02*
X49651Y-41924D01*
X49651Y-41924D02*
X49721Y-41994D01*
X49721Y-41994D02*
X49759Y-42086D01*
X49759Y-42086D02*
X49759Y-42815D01*
X49759Y-42815D02*
X49721Y-42906D01*
X49721Y-42906D02*
X49651Y-42976D01*
X49651Y-42976D02*
X49593Y-42999D01*
X49593Y-42999D02*
X49651Y-43024D01*
X49651Y-43024D02*
X49721Y-43094D01*
X49721Y-43094D02*
X49759Y-43186D01*
X49759Y-43186D02*
X49759Y-43915D01*
X49759Y-43915D02*
X49721Y-44006D01*
X49721Y-44006D02*
X49651Y-44076D01*
X49651Y-44076D02*
X49559Y-44114D01*
X49559Y-44114D02*
X49410Y-44114D01*
X49410Y-44114D02*
X49410Y-51886D01*
X49410Y-51886D02*
X49560Y-51886D01*
X49560Y-51886D02*
X49651Y-51924D01*
X49651Y-51924D02*
X49721Y-51994D01*
X49721Y-51994D02*
X49759Y-52086D01*
X49759Y-52086D02*
X49759Y-52815D01*
X49759Y-52815D02*
X49721Y-52906D01*
X49721Y-52906D02*
X49651Y-52976D01*
X49651Y-52976D02*
X49593Y-52999D01*
X49593Y-52999D02*
X49651Y-53024D01*
X49651Y-53024D02*
X49721Y-53094D01*
X49721Y-53094D02*
X49739Y-53140D01*
X49739Y-53140D02*
X50622Y-53140D01*
X50622Y-53140D02*
X50622Y-47808D01*
X50622Y-47808D02*
X50528Y-47781D01*
X50528Y-47781D02*
X50468Y-47634D01*
X50468Y-47634D02*
X50457Y-47421D01*
X50457Y-47421D02*
X50528Y-47219D01*
X50528Y-47219D02*
X50622Y-47192D01*
X50622Y-47192D02*
X50622Y-46808D01*
X50622Y-46808D02*
X50528Y-46781D01*
X50528Y-46781D02*
X50468Y-46634D01*
X50468Y-46634D02*
X50457Y-46421D01*
X50457Y-46421D02*
X50528Y-46219D01*
X50528Y-46219D02*
X50622Y-46192D01*
X50622Y-46192D02*
X50929Y-46500D01*
X50929Y-46500D02*
X50622Y-46808D01*
X50622Y-46808D02*
X50622Y-47192D01*
X50622Y-47192D02*
X50929Y-47500D01*
X50929Y-47500D02*
X50622Y-47808D01*
X50622Y-47808D02*
X50622Y-53140D01*
X50622Y-53140D02*
X50921Y-53140D01*
X50921Y-53140D02*
X50921Y-48043D01*
X50921Y-48043D02*
X50719Y-47972D01*
X50719Y-47972D02*
X50692Y-47878D01*
X50692Y-47878D02*
X51000Y-47571D01*
X51000Y-47571D02*
X51000Y-47429D01*
X51000Y-47429D02*
X50692Y-47122D01*
X50692Y-47122D02*
X50719Y-47028D01*
X50719Y-47028D02*
X50792Y-46997D01*
X50792Y-46997D02*
X50719Y-46972D01*
X50719Y-46972D02*
X50692Y-46878D01*
X50692Y-46878D02*
X51000Y-46571D01*
X51000Y-46571D02*
X51000Y-46429D01*
X51000Y-46429D02*
X50692Y-46122D01*
X50692Y-46122D02*
X50719Y-46028D01*
X50719Y-46028D02*
X50866Y-45968D01*
X50866Y-45968D02*
X51079Y-45957D01*
X51079Y-45957D02*
X51281Y-46028D01*
X51281Y-46028D02*
X51308Y-46122D01*
X51308Y-46122D02*
X51000Y-46429D01*
X51000Y-46429D02*
X51000Y-46571D01*
X51000Y-46571D02*
X51308Y-46878D01*
X51308Y-46878D02*
X51281Y-46972D01*
X51281Y-46972D02*
X51207Y-47002D01*
X51207Y-47002D02*
X51281Y-47028D01*
X51281Y-47028D02*
X51308Y-47122D01*
X51308Y-47122D02*
X51000Y-47429D01*
X51000Y-47429D02*
X51000Y-47571D01*
X51000Y-47571D02*
X51308Y-47878D01*
X51308Y-47878D02*
X51281Y-47972D01*
X51281Y-47972D02*
X51134Y-48032D01*
X51134Y-48032D02*
X50921Y-48043D01*
X50921Y-48043D02*
X50921Y-53140D01*
X50921Y-53140D02*
X51378Y-53140D01*
X51378Y-53140D02*
X51378Y-47808D01*
X51378Y-47808D02*
X51071Y-47500D01*
X51071Y-47500D02*
X51378Y-47192D01*
X51378Y-47192D02*
X51378Y-46808D01*
X51378Y-46808D02*
X51071Y-46500D01*
X51071Y-46500D02*
X51378Y-46192D01*
X51378Y-46192D02*
X51472Y-46219D01*
X51472Y-46219D02*
X51532Y-46366D01*
X51532Y-46366D02*
X51543Y-46579D01*
X51543Y-46579D02*
X51472Y-46781D01*
X51472Y-46781D02*
X51378Y-46808D01*
X51378Y-46808D02*
X51378Y-47192D01*
X51378Y-47192D02*
X51472Y-47219D01*
X51472Y-47219D02*
X51532Y-47366D01*
X51532Y-47366D02*
X51543Y-47579D01*
X51543Y-47579D02*
X51472Y-47781D01*
X51472Y-47781D02*
X51378Y-47808D01*
X51378Y-47808D02*
X51378Y-53140D01*
X51378Y-53140D02*
X52307Y-53140D01*
X52307Y-53140D02*
X52307Y-40050D01*
X52307Y-40050D02*
X51690Y-40049D01*
X51690Y-40049D02*
X51121Y-39813D01*
X51121Y-39813D02*
X50685Y-39377D01*
X50685Y-39377D02*
X50450Y-38807D01*
X50450Y-38807D02*
X50451Y-38190D01*
X50451Y-38190D02*
X50558Y-37932D01*
X50558Y-37932D02*
X50558Y-36371D01*
X50558Y-36371D02*
X50455Y-36334D01*
X50455Y-36334D02*
X50377Y-36149D01*
X50377Y-36149D02*
X50368Y-35900D01*
X50368Y-35900D02*
X50455Y-35666D01*
X50455Y-35666D02*
X50558Y-35629D01*
X50558Y-35629D02*
X50929Y-36000D01*
X50929Y-36000D02*
X50558Y-36371D01*
X50558Y-36371D02*
X50558Y-37932D01*
X50558Y-37932D02*
X50687Y-37621D01*
X50687Y-37621D02*
X50900Y-37407D01*
X50900Y-37407D02*
X50900Y-36632D01*
X50900Y-36632D02*
X50666Y-36545D01*
X50666Y-36545D02*
X50629Y-36442D01*
X50629Y-36442D02*
X51000Y-36071D01*
X51000Y-36071D02*
X51000Y-35929D01*
X51000Y-35929D02*
X50629Y-35558D01*
X50629Y-35558D02*
X50666Y-35455D01*
X50666Y-35455D02*
X50851Y-35377D01*
X50851Y-35377D02*
X51100Y-35368D01*
X51100Y-35368D02*
X51334Y-35455D01*
X51334Y-35455D02*
X51371Y-35558D01*
X51371Y-35558D02*
X51000Y-35929D01*
X51000Y-35929D02*
X51000Y-36071D01*
X51000Y-36071D02*
X51371Y-36442D01*
X51371Y-36442D02*
X51334Y-36545D01*
X51334Y-36545D02*
X51149Y-36623D01*
X51149Y-36623D02*
X50900Y-36632D01*
X50900Y-36632D02*
X50900Y-37407D01*
X50900Y-37407D02*
X51123Y-37185D01*
X51123Y-37185D02*
X51442Y-37053D01*
X51442Y-37053D02*
X51442Y-36371D01*
X51442Y-36371D02*
X51071Y-36000D01*
X51071Y-36000D02*
X51442Y-35629D01*
X51442Y-35629D02*
X51545Y-35666D01*
X51545Y-35666D02*
X51623Y-35851D01*
X51623Y-35851D02*
X51632Y-36100D01*
X51632Y-36100D02*
X51545Y-36334D01*
X51545Y-36334D02*
X51442Y-36371D01*
X51442Y-36371D02*
X51442Y-37053D01*
X51442Y-37053D02*
X51693Y-36950D01*
X51693Y-36950D02*
X52310Y-36951D01*
X52310Y-36951D02*
X52879Y-37187D01*
X52879Y-37187D02*
X53315Y-37623D01*
X53315Y-37623D02*
X53550Y-38193D01*
X53550Y-38193D02*
X53549Y-38810D01*
X53549Y-38810D02*
X53313Y-39379D01*
X53313Y-39379D02*
X52877Y-39815D01*
X52877Y-39815D02*
X52307Y-40050D01*
X52307Y-40050D02*
X52307Y-53140D01*
X52307Y-53140D02*
X55590Y-53140D01*
X55590Y-53140D02*
X55590Y-36495D01*
X55590Y-36495D02*
X55500Y-36405D01*
X55500Y-36405D02*
X55362Y-36543D01*
X55362Y-36543D02*
X55127Y-36640D01*
X55127Y-36640D02*
X54872Y-36640D01*
X54872Y-36640D02*
X54637Y-36542D01*
X54637Y-36542D02*
X54500Y-36405D01*
X54500Y-36405D02*
X54362Y-36543D01*
X54362Y-36543D02*
X54127Y-36640D01*
X54127Y-36640D02*
X53872Y-36640D01*
X53872Y-36640D02*
X53637Y-36542D01*
X53637Y-36542D02*
X53499Y-36404D01*
X53499Y-36404D02*
X53362Y-36543D01*
X53362Y-36543D02*
X53127Y-36640D01*
X53127Y-36640D02*
X52872Y-36640D01*
X52872Y-36640D02*
X52637Y-36542D01*
X52637Y-36542D02*
X52457Y-36362D01*
X52457Y-36362D02*
X52360Y-36127D01*
X52360Y-36127D02*
X52360Y-35872D01*
X52360Y-35872D02*
X52458Y-35637D01*
X52458Y-35637D02*
X52590Y-35505D01*
X52590Y-35505D02*
X52590Y-35358D01*
X52590Y-35358D02*
X52621Y-35201D01*
X52621Y-35201D02*
X52710Y-35068D01*
X52710Y-35068D02*
X52802Y-34976D01*
X52802Y-34976D02*
X52935Y-34887D01*
X52935Y-34887D02*
X53092Y-34856D01*
X53092Y-34856D02*
X57613Y-34856D01*
X57613Y-34856D02*
X57770Y-34887D01*
X57770Y-34887D02*
X57903Y-34976D01*
X57903Y-34976D02*
X58015Y-35088D01*
X58015Y-35088D02*
X58104Y-35221D01*
X58104Y-35221D02*
X58135Y-35378D01*
X58135Y-35378D02*
X58135Y-45775D01*
X58135Y-45775D02*
X58104Y-45932D01*
X58104Y-45932D02*
X58015Y-46065D01*
X58015Y-46065D02*
X57549Y-46531D01*
X57549Y-46531D02*
X57549Y-46609D01*
X57549Y-46609D02*
X57465Y-46811D01*
X57465Y-46811D02*
X57410Y-46866D01*
X57410Y-46866D02*
X57410Y-47134D01*
X57410Y-47134D02*
X57465Y-47189D01*
X57465Y-47189D02*
X57549Y-47391D01*
X57549Y-47391D02*
X57549Y-47609D01*
X57549Y-47609D02*
X57465Y-47811D01*
X57465Y-47811D02*
X57311Y-47965D01*
X57311Y-47965D02*
X57109Y-48049D01*
X57109Y-48049D02*
X56891Y-48049D01*
X56891Y-48049D02*
X56689Y-47965D01*
X56689Y-47965D02*
X56535Y-47811D01*
X56535Y-47811D02*
X56451Y-47609D01*
X56451Y-47609D02*
X56451Y-47391D01*
X56451Y-47391D02*
X56535Y-47189D01*
X56535Y-47189D02*
X56590Y-47134D01*
X56590Y-47134D02*
X56590Y-46866D01*
X56590Y-46866D02*
X56535Y-46811D01*
X56535Y-46811D02*
X56451Y-46609D01*
X56451Y-46609D02*
X56451Y-46391D01*
X56451Y-46391D02*
X56535Y-46189D01*
X56535Y-46189D02*
X56689Y-46035D01*
X56689Y-46035D02*
X56891Y-45951D01*
X56891Y-45951D02*
X56969Y-45951D01*
X56969Y-45951D02*
X57315Y-45605D01*
X57315Y-45605D02*
X57315Y-36562D01*
X57315Y-36562D02*
X57127Y-36640D01*
X57127Y-36640D02*
X56872Y-36640D01*
X56872Y-36640D02*
X56637Y-36542D01*
X56637Y-36542D02*
X56500Y-36404D01*
X56500Y-36404D02*
X56410Y-36495D01*
X56410Y-36495D02*
X56410Y-53140D01*
X56410Y-53140D02*
X58259Y-53140D01*
X58259Y-53140D02*
X58279Y-53094D01*
X58279Y-53094D02*
X58349Y-53024D01*
X58349Y-53024D02*
X58406Y-53000D01*
X58406Y-53000D02*
X58349Y-52976D01*
X58349Y-52976D02*
X58279Y-52906D01*
X58279Y-52906D02*
X58241Y-52814D01*
X58241Y-52814D02*
X58241Y-52085D01*
X58241Y-52085D02*
X58279Y-51994D01*
X58279Y-51994D02*
X58349Y-51924D01*
X58349Y-51924D02*
X58441Y-51886D01*
X58441Y-51886D02*
X58590Y-51886D01*
X58590Y-51886D02*
X58590Y-44114D01*
X58590Y-44114D02*
X58440Y-44114D01*
X58440Y-44114D02*
X58349Y-44076D01*
X58349Y-44076D02*
X58279Y-44006D01*
X58279Y-44006D02*
X58241Y-43914D01*
X58241Y-43914D02*
X58241Y-43185D01*
X58241Y-43185D02*
X58279Y-43094D01*
X58279Y-43094D02*
X58349Y-43024D01*
X58349Y-43024D02*
X58406Y-43000D01*
X58406Y-43000D02*
X58349Y-42976D01*
X58349Y-42976D02*
X58279Y-42906D01*
X58279Y-42906D02*
X58241Y-42814D01*
X58241Y-42814D02*
X58241Y-42085D01*
X58241Y-42085D02*
X58279Y-41994D01*
X58279Y-41994D02*
X58349Y-41924D01*
X58349Y-41924D02*
X58441Y-41886D01*
X58441Y-41886D02*
X58590Y-41886D01*
X58590Y-41886D02*
X58590Y-39484D01*
X58590Y-39484D02*
X58460Y-39484D01*
X58460Y-39484D02*
X58369Y-39446D01*
X58369Y-39446D02*
X58299Y-39376D01*
X58299Y-39376D02*
X58261Y-39284D01*
X58261Y-39284D02*
X58261Y-38635D01*
X58261Y-38635D02*
X58299Y-38544D01*
X58299Y-38544D02*
X58369Y-38474D01*
X58369Y-38474D02*
X58461Y-38436D01*
X58461Y-38436D02*
X59540Y-38436D01*
X59540Y-38436D02*
X59631Y-38474D01*
X59631Y-38474D02*
X59701Y-38544D01*
X59701Y-38544D02*
X59739Y-38636D01*
X59739Y-38636D02*
X59739Y-39285D01*
X59739Y-39285D02*
X59701Y-39376D01*
X59701Y-39376D02*
X59631Y-39446D01*
X59631Y-39446D02*
X59539Y-39484D01*
X59539Y-39484D02*
X59410Y-39484D01*
X59410Y-39484D02*
X59410Y-41886D01*
X59410Y-41886D02*
X59560Y-41886D01*
X59560Y-41886D02*
X59651Y-41924D01*
X59651Y-41924D02*
X59721Y-41994D01*
X59721Y-41994D02*
X59759Y-42086D01*
X59759Y-42086D02*
X59759Y-42815D01*
X59759Y-42815D02*
X59721Y-42906D01*
X59721Y-42906D02*
X59651Y-42976D01*
X59651Y-42976D02*
X59593Y-42999D01*
X59593Y-42999D02*
X59651Y-43024D01*
X59651Y-43024D02*
X59721Y-43094D01*
X59721Y-43094D02*
X59759Y-43186D01*
X59759Y-43186D02*
X59759Y-43915D01*
X59759Y-43915D02*
X59721Y-44006D01*
X59721Y-44006D02*
X59651Y-44076D01*
X59651Y-44076D02*
X59559Y-44114D01*
X59559Y-44114D02*
X59410Y-44114D01*
X59410Y-44114D02*
X59410Y-51886D01*
X59410Y-51886D02*
X59560Y-51886D01*
X59560Y-51886D02*
X59651Y-51924D01*
X59651Y-51924D02*
X59721Y-51994D01*
X59721Y-51994D02*
X59759Y-52086D01*
X59759Y-52086D02*
X59759Y-52815D01*
X59759Y-52815D02*
X59721Y-52906D01*
X59721Y-52906D02*
X59651Y-52976D01*
X59651Y-52976D02*
X59593Y-52999D01*
X59593Y-52999D02*
X59651Y-53024D01*
X59651Y-53024D02*
X59721Y-53094D01*
X59721Y-53094D02*
X59759Y-53186D01*
X59759Y-53186D02*
X59759Y-53915D01*
X59759Y-53915D02*
X59721Y-54006D01*
X59721Y-54006D02*
X59651Y-54076D01*
X59651Y-54076D02*
X59559Y-54114D01*
X59559Y-54114D02*
X59486Y-54114D01*
X59486Y-54114D02*
X60490Y-55118D01*
X60490Y-55118D02*
X60490Y-54810D01*
X60490Y-54810D02*
X60635Y-54461D01*
X60635Y-54461D02*
X60903Y-54194D01*
X60903Y-54194D02*
X61252Y-54050D01*
X61252Y-54050D02*
X61630Y-54050D01*
X61630Y-54050D02*
X61640Y-54054D01*
X61640Y-54054D02*
X61640Y-53190D01*
X61640Y-53190D02*
X61291Y-53045D01*
X61291Y-53045D02*
X61024Y-52777D01*
X61024Y-52777D02*
X60880Y-52428D01*
X60880Y-52428D02*
X60880Y-52050D01*
X60880Y-52050D02*
X61025Y-51701D01*
X61025Y-51701D02*
X61293Y-51434D01*
X61293Y-51434D02*
X61642Y-51290D01*
X61642Y-51290D02*
X61891Y-51290D01*
X61891Y-51290D02*
X61891Y-37049D01*
X61891Y-37049D02*
X61689Y-36965D01*
X61689Y-36965D02*
X61535Y-36811D01*
X61535Y-36811D02*
X61451Y-36609D01*
X61451Y-36609D02*
X61451Y-36391D01*
X61451Y-36391D02*
X61535Y-36189D01*
X61535Y-36189D02*
X61689Y-36035D01*
X61689Y-36035D02*
X61773Y-35999D01*
X61773Y-35999D02*
X61689Y-35965D01*
X61689Y-35965D02*
X61535Y-35811D01*
X61535Y-35811D02*
X61451Y-35609D01*
X61451Y-35609D02*
X61451Y-35391D01*
X61451Y-35391D02*
X61535Y-35189D01*
X61535Y-35189D02*
X61689Y-35035D01*
X61689Y-35035D02*
X61891Y-34951D01*
X61891Y-34951D02*
X62109Y-34951D01*
X62109Y-34951D02*
X62311Y-35035D01*
X62311Y-35035D02*
X62465Y-35189D01*
X62465Y-35189D02*
X62549Y-35391D01*
X62549Y-35391D02*
X62549Y-35609D01*
X62549Y-35609D02*
X62465Y-35811D01*
X62465Y-35811D02*
X62311Y-35965D01*
X62311Y-35965D02*
X62226Y-36000D01*
X62226Y-36000D02*
X62311Y-36035D01*
X62311Y-36035D02*
X62465Y-36189D01*
X62465Y-36189D02*
X62549Y-36391D01*
X62549Y-36391D02*
X62549Y-36609D01*
X62549Y-36609D02*
X62465Y-36811D01*
X62465Y-36811D02*
X62311Y-36965D01*
X62311Y-36965D02*
X62109Y-37049D01*
X62109Y-37049D02*
X61891Y-37049D01*
X61891Y-37049D02*
X61891Y-51290D01*
X61891Y-51290D02*
X62020Y-51290D01*
X62020Y-51290D02*
X62369Y-51435D01*
X62369Y-51435D02*
X62636Y-51703D01*
X62636Y-51703D02*
X62780Y-52052D01*
X62780Y-52052D02*
X62780Y-52430D01*
X62780Y-52430D02*
X62635Y-52779D01*
X62635Y-52779D02*
X62367Y-53046D01*
X62367Y-53046D02*
X62018Y-53190D01*
X62018Y-53190D02*
X61640Y-53190D01*
X61640Y-53190D02*
X61640Y-54054D01*
X61640Y-54054D02*
X61979Y-54195D01*
X61979Y-54195D02*
X62246Y-54463D01*
X62246Y-54463D02*
X62390Y-54812D01*
X62390Y-54812D02*
X62390Y-55190D01*
X62390Y-55190D02*
X62245Y-55539D01*
X62245Y-55539D02*
X62154Y-55628D01*
X62154Y-55628D02*
X62391Y-55531D01*
X62391Y-55531D02*
X62588Y-55531D01*
X62588Y-55531D02*
X62866Y-55254D01*
X62866Y-55254D02*
X62866Y-44724D01*
X62866Y-44724D02*
X62897Y-44567D01*
X62897Y-44567D02*
X62986Y-44434D01*
X62986Y-44434D02*
X63351Y-44069D01*
X63351Y-44069D02*
X63351Y-43871D01*
X63351Y-43871D02*
X63450Y-43632D01*
X63450Y-43632D02*
X63632Y-43450D01*
X63632Y-43450D02*
X63871Y-43351D01*
X63871Y-43351D02*
X64129Y-43351D01*
X64129Y-43351D02*
X64368Y-43450D01*
X64368Y-43450D02*
X64550Y-43632D01*
X64550Y-43632D02*
X64649Y-43871D01*
X64649Y-43871D02*
X64649Y-44129D01*
X64649Y-44129D02*
X64550Y-44368D01*
X64550Y-44368D02*
X64368Y-44550D01*
X64368Y-44550D02*
X64129Y-44649D01*
X64129Y-44649D02*
X63930Y-44649D01*
X63930Y-44649D02*
X63686Y-44894D01*
X63686Y-44894D02*
X63686Y-45427D01*
X63686Y-45427D02*
X63871Y-45351D01*
X63871Y-45351D02*
X64129Y-45351D01*
X64129Y-45351D02*
X64368Y-45450D01*
X64368Y-45450D02*
X64550Y-45632D01*
X64550Y-45632D02*
X64649Y-45871D01*
X64649Y-45871D02*
X64649Y-46129D01*
X64649Y-46129D02*
X64550Y-46368D01*
X64550Y-46368D02*
X64410Y-46508D01*
X64410Y-46508D02*
X64410Y-55672D01*
X64410Y-55672D02*
X64550Y-55812D01*
X64550Y-55812D02*
X64649Y-56051D01*
X64649Y-56051D02*
X64649Y-56309D01*
X64649Y-56309D02*
X64550Y-56548D01*
X64550Y-56548D02*
X64461Y-56637D01*
X64461Y-56637D02*
X65019Y-56637D01*
X65019Y-56637D02*
X64930Y-56548D01*
X64930Y-56548D02*
X64831Y-56309D01*
X64831Y-56309D02*
X64831Y-56051D01*
X64831Y-56051D02*
X64930Y-55812D01*
X64930Y-55812D02*
X65112Y-55630D01*
X65112Y-55630D02*
X65351Y-55531D01*
X65351Y-55531D02*
X65609Y-55531D01*
X65609Y-55531D02*
X65845Y-55629D01*
X65845Y-55629D02*
X65754Y-55537D01*
X65754Y-55537D02*
X65610Y-55188D01*
X65610Y-55188D02*
X65610Y-54810D01*
X65610Y-54810D02*
X65755Y-54461D01*
X65755Y-54461D02*
X65980Y-54236D01*
X65980Y-54236D02*
X65980Y-53190D01*
X65980Y-53190D02*
X65631Y-53045D01*
X65631Y-53045D02*
X65364Y-52777D01*
X65364Y-52777D02*
X65220Y-52428D01*
X65220Y-52428D02*
X65220Y-52050D01*
X65220Y-52050D02*
X65365Y-51701D01*
X65365Y-51701D02*
X65633Y-51434D01*
X65633Y-51434D02*
X65982Y-51290D01*
X65982Y-51290D02*
X66360Y-51290D01*
X66360Y-51290D02*
X66709Y-51435D01*
X66709Y-51435D02*
X66976Y-51703D01*
X66976Y-51703D02*
X67120Y-52052D01*
X67120Y-52052D02*
X67120Y-52430D01*
X67120Y-52430D02*
X66975Y-52779D01*
X66975Y-52779D02*
X66707Y-53046D01*
X66707Y-53046D02*
X66358Y-53190D01*
X66358Y-53190D02*
X65980Y-53190D01*
X65980Y-53190D02*
X65980Y-54236D01*
X65980Y-54236D02*
X66023Y-54194D01*
X66023Y-54194D02*
X66372Y-54050D01*
X66372Y-54050D02*
X66750Y-54050D01*
X66750Y-54050D02*
X67099Y-54195D01*
X67099Y-54195D02*
X67366Y-54463D01*
X67366Y-54463D02*
X67510Y-54812D01*
X67510Y-54812D02*
X67510Y-55190D01*
X67510Y-55190D02*
X67365Y-55539D01*
X67365Y-55539D02*
X67097Y-55806D01*
X67097Y-55806D02*
X66748Y-55950D01*
X66748Y-55950D02*
X66370Y-55950D01*
X66370Y-55950D02*
X66024Y-55806D01*
X66024Y-55806D02*
X66030Y-55812D01*
X66030Y-55812D02*
X66129Y-56051D01*
X66129Y-56051D02*
X66129Y-56309D01*
X66129Y-56309D02*
X66030Y-56548D01*
X66030Y-56548D02*
X65940Y-56637D01*
X65940Y-56637D02*
X66358Y-56637D01*
X66358Y-56637D02*
X68590Y-54405D01*
X68590Y-54405D02*
X68590Y-54114D01*
X68590Y-54114D02*
X68440Y-54114D01*
X68440Y-54114D02*
X68349Y-54076D01*
X68349Y-54076D02*
X68279Y-54006D01*
X68279Y-54006D02*
X68241Y-53914D01*
X68241Y-53914D02*
X68241Y-53185D01*
X68241Y-53185D02*
X68279Y-53094D01*
X68279Y-53094D02*
X68349Y-53024D01*
X68349Y-53024D02*
X68406Y-53000D01*
X68406Y-53000D02*
X68349Y-52976D01*
X68349Y-52976D02*
X68279Y-52906D01*
X68279Y-52906D02*
X68241Y-52814D01*
X68241Y-52814D02*
X68241Y-52085D01*
X68241Y-52085D02*
X68279Y-51994D01*
X68279Y-51994D02*
X68349Y-51924D01*
X68349Y-51924D02*
X68441Y-51886D01*
X68441Y-51886D02*
X68590Y-51886D01*
X68590Y-51886D02*
X68590Y-44114D01*
X68590Y-44114D02*
X68440Y-44114D01*
X68440Y-44114D02*
X68349Y-44076D01*
X68349Y-44076D02*
X68279Y-44006D01*
X68279Y-44006D02*
X68241Y-43914D01*
X68241Y-43914D02*
X68241Y-43185D01*
X68241Y-43185D02*
X68279Y-43094D01*
X68279Y-43094D02*
X68349Y-43024D01*
X68349Y-43024D02*
X68406Y-43000D01*
X68406Y-43000D02*
X68349Y-42976D01*
X68349Y-42976D02*
X68279Y-42906D01*
X68279Y-42906D02*
X68241Y-42814D01*
X68241Y-42814D02*
X68241Y-42085D01*
X68241Y-42085D02*
X68279Y-41994D01*
X68279Y-41994D02*
X68349Y-41924D01*
X68349Y-41924D02*
X68441Y-41886D01*
X68441Y-41886D02*
X68590Y-41886D01*
X68590Y-41886D02*
X68590Y-39484D01*
X68590Y-39484D02*
X68460Y-39484D01*
X68460Y-39484D02*
X68369Y-39446D01*
X68369Y-39446D02*
X68299Y-39376D01*
X68299Y-39376D02*
X68261Y-39284D01*
X68261Y-39284D02*
X68261Y-38635D01*
X68261Y-38635D02*
X68299Y-38544D01*
X68299Y-38544D02*
X68369Y-38474D01*
X68369Y-38474D02*
X68460Y-38436D01*
X68460Y-38436D02*
X68460Y-37564D01*
X68460Y-37564D02*
X68369Y-37526D01*
X68369Y-37526D02*
X68299Y-37456D01*
X68299Y-37456D02*
X68261Y-37364D01*
X68261Y-37364D02*
X68261Y-36715D01*
X68261Y-36715D02*
X68299Y-36624D01*
X68299Y-36624D02*
X68369Y-36554D01*
X68369Y-36554D02*
X68461Y-36516D01*
X68461Y-36516D02*
X68590Y-36516D01*
X68590Y-36516D02*
X68590Y-34114D01*
X68590Y-34114D02*
X68440Y-34114D01*
X68440Y-34114D02*
X68349Y-34076D01*
X68349Y-34076D02*
X68279Y-34006D01*
X68279Y-34006D02*
X68241Y-33914D01*
X68241Y-33914D02*
X68241Y-33185D01*
X68241Y-33185D02*
X68279Y-33094D01*
X68279Y-33094D02*
X68349Y-33024D01*
X68349Y-33024D02*
X68406Y-33000D01*
X68406Y-33000D02*
X68349Y-32976D01*
X68349Y-32976D02*
X68279Y-32906D01*
X68279Y-32906D02*
X68276Y-32899D01*
X68276Y-32899D02*
X68095Y-33082D01*
X68095Y-33082D02*
X67962Y-33171D01*
X67962Y-33171D02*
X67805Y-33202D01*
X67805Y-33202D02*
X66410Y-33202D01*
X66410Y-33202D02*
X66410Y-35134D01*
X66410Y-35134D02*
X66465Y-35189D01*
X66465Y-35189D02*
X66549Y-35391D01*
X66549Y-35391D02*
X66549Y-35609D01*
X66549Y-35609D02*
X66465Y-35811D01*
X66465Y-35811D02*
X66410Y-35866D01*
X66410Y-35866D02*
X66410Y-36134D01*
X66410Y-36134D02*
X66465Y-36189D01*
X66465Y-36189D02*
X66549Y-36391D01*
X66549Y-36391D02*
X66549Y-36609D01*
X66549Y-36609D02*
X66465Y-36811D01*
X66465Y-36811D02*
X66311Y-36965D01*
X66311Y-36965D02*
X66109Y-37049D01*
X66109Y-37049D02*
X65891Y-37049D01*
X65891Y-37049D02*
X65689Y-36965D01*
X65689Y-36965D02*
X65535Y-36811D01*
X65535Y-36811D02*
X65451Y-36609D01*
X65451Y-36609D02*
X65451Y-36391D01*
X65451Y-36391D02*
X65535Y-36189D01*
X65535Y-36189D02*
X65590Y-36134D01*
X65590Y-36134D02*
X65590Y-35866D01*
X65590Y-35866D02*
X65535Y-35811D01*
X65535Y-35811D02*
X65451Y-35609D01*
X65451Y-35609D02*
X65451Y-35391D01*
X65451Y-35391D02*
X65535Y-35189D01*
X65535Y-35189D02*
X65590Y-35134D01*
X65590Y-35134D02*
X65590Y-32961D01*
X65590Y-32961D02*
X65488Y-32860D01*
X65488Y-32860D02*
X59740Y-32860D01*
X59740Y-32860D02*
X59721Y-32906D01*
X59721Y-32906D02*
X59651Y-32976D01*
X59651Y-32976D02*
X59593Y-32999D01*
X59593Y-32999D02*
X59651Y-33024D01*
X59651Y-33024D02*
X59721Y-33094D01*
X59721Y-33094D02*
X59759Y-33186D01*
X59759Y-33186D02*
X59759Y-33915D01*
X59759Y-33915D02*
X59721Y-34006D01*
X59721Y-34006D02*
X59651Y-34076D01*
X59651Y-34076D02*
X59559Y-34114D01*
X59559Y-34114D02*
X59410Y-34114D01*
X59410Y-34114D02*
X59410Y-36516D01*
X59410Y-36516D02*
X59540Y-36516D01*
X59540Y-36516D02*
X59631Y-36554D01*
X59631Y-36554D02*
X59701Y-36624D01*
X59701Y-36624D02*
X59739Y-36716D01*
X59739Y-36716D02*
X59739Y-37365D01*
X59739Y-37365D02*
X59701Y-37456D01*
X59701Y-37456D02*
X59631Y-37526D01*
X59631Y-37526D02*
X59539Y-37564D01*
X59539Y-37564D02*
X58460Y-37564D01*
X58460Y-37564D02*
X58369Y-37526D01*
X58369Y-37526D02*
X58299Y-37456D01*
X58299Y-37456D02*
X58261Y-37364D01*
X58261Y-37364D02*
X58261Y-36715D01*
X58261Y-36715D02*
X58299Y-36624D01*
X58299Y-36624D02*
X58369Y-36554D01*
X58369Y-36554D02*
X58461Y-36516D01*
X58461Y-36516D02*
X58590Y-36516D01*
X58590Y-36516D02*
X58590Y-34114D01*
X58590Y-34114D02*
X58440Y-34114D01*
X58440Y-34114D02*
X58349Y-34076D01*
X58349Y-34076D02*
X58279Y-34006D01*
X58279Y-34006D02*
X58241Y-33914D01*
X58241Y-33914D02*
X58241Y-33185D01*
X58241Y-33185D02*
X58279Y-33094D01*
X58279Y-33094D02*
X58349Y-33024D01*
X58349Y-33024D02*
X58406Y-33000D01*
X58406Y-33000D02*
X58349Y-32976D01*
X58349Y-32976D02*
X58279Y-32906D01*
X58279Y-32906D02*
X58259Y-32859D01*
X58259Y-32859D02*
X49740Y-32860D01*
X49740Y-32860D02*
X49721Y-32906D01*
X49721Y-32906D02*
X49651Y-32976D01*
X49651Y-32976D02*
X49593Y-32999D01*
X49593Y-32999D02*
X49651Y-33024D01*
X49651Y-33024D02*
X49721Y-33094D01*
X49721Y-33094D02*
X49759Y-33186D01*
X49759Y-33186D02*
X49759Y-33915D01*
X49759Y-33915D02*
X49721Y-34006D01*
X49721Y-34006D02*
X49651Y-34076D01*
X49651Y-34076D02*
X49559Y-34114D01*
X49559Y-34114D02*
X49410Y-34114D01*
X49410Y-34114D02*
X49410Y-36516D01*
X49410Y-36516D02*
X49540Y-36516D01*
X49540Y-36516D02*
X49631Y-36554D01*
X49631Y-36554D02*
X49701Y-36624D01*
X49701Y-36624D02*
X49739Y-36716D01*
X49739Y-36716D02*
X49739Y-37365D01*
X49739Y-37365D02*
X49701Y-37456D01*
X49701Y-37456D02*
X49631Y-37526D01*
X49631Y-37526D02*
X49539Y-37564D01*
X49539Y-37564D02*
X48460Y-37564D01*
X48460Y-37564D02*
X48369Y-37526D01*
X48369Y-37526D02*
X48299Y-37456D01*
X48299Y-37456D02*
X48261Y-37364D01*
X48261Y-37364D02*
X48261Y-36715D01*
X48261Y-36715D02*
X48299Y-36624D01*
X48299Y-36624D02*
X48369Y-36554D01*
X48369Y-36554D02*
X48461Y-36516D01*
X48461Y-36516D02*
X48590Y-36516D01*
X48590Y-36516D02*
X48590Y-34114D01*
X48590Y-34114D02*
X48440Y-34114D01*
X48440Y-34114D02*
X48349Y-34076D01*
X48349Y-34076D02*
X48279Y-34006D01*
X48279Y-34006D02*
X48241Y-33914D01*
X48241Y-33914D02*
X48241Y-33185D01*
X48241Y-33185D02*
X48279Y-33094D01*
X48279Y-33094D02*
X48349Y-33024D01*
X48349Y-33024D02*
X48406Y-33000D01*
X48406Y-33000D02*
X48349Y-32976D01*
X48349Y-32976D02*
X48279Y-32906D01*
X48279Y-32906D02*
X48241Y-32814D01*
X48241Y-32814D02*
X48241Y-32085D01*
X48241Y-32085D02*
X48279Y-31994D01*
X48279Y-31994D02*
X48349Y-31924D01*
X48349Y-31924D02*
X48441Y-31886D01*
X48441Y-31886D02*
X49560Y-31886D01*
X49560Y-31886D02*
X49651Y-31924D01*
X49651Y-31924D02*
X49721Y-31994D01*
X49721Y-31994D02*
X49740Y-32040D01*
X49740Y-32040D02*
X58259Y-32040D01*
X58259Y-32040D02*
X58279Y-31994D01*
X58279Y-31994D02*
X58349Y-31924D01*
X58349Y-31924D02*
X58441Y-31886D01*
X58441Y-31886D02*
X59560Y-31886D01*
X59560Y-31886D02*
X59651Y-31924D01*
X59651Y-31924D02*
X59721Y-31994D01*
X59721Y-31994D02*
X59740Y-32040D01*
X59740Y-32040D02*
X65658Y-32040D01*
X65658Y-32040D02*
X65815Y-32071D01*
X65815Y-32071D02*
X65948Y-32160D01*
X65948Y-32160D02*
X66169Y-32382D01*
X66169Y-32382D02*
X67635Y-32382D01*
X67635Y-32382D02*
X67857Y-32160D01*
X67857Y-32160D02*
X67990Y-32071D01*
X67990Y-32071D02*
X68147Y-32040D01*
X68147Y-32040D02*
X68259Y-32040D01*
X68259Y-32040D02*
X68279Y-31994D01*
X68279Y-31994D02*
X68349Y-31924D01*
X68349Y-31924D02*
X68441Y-31886D01*
X68441Y-31886D02*
X69560Y-31886D01*
X69560Y-31886D02*
X69651Y-31924D01*
X69651Y-31924D02*
X69721Y-31994D01*
X69721Y-31994D02*
X69759Y-32086D01*
X69759Y-32086D02*
X69759Y-32815D01*
X69759Y-32815D02*
X69721Y-32906D01*
X69721Y-32906D02*
X69651Y-32976D01*
X69651Y-32976D02*
X69593Y-32999D01*
X69593Y-32999D02*
X69651Y-33024D01*
X69651Y-33024D02*
X69721Y-33094D01*
X69721Y-33094D02*
X69759Y-33186D01*
X69759Y-33186D02*
X69759Y-33915D01*
X69759Y-33915D02*
X69721Y-34006D01*
X69721Y-34006D02*
X69651Y-34076D01*
X69651Y-34076D02*
X69559Y-34114D01*
X69559Y-34114D02*
X69410Y-34114D01*
X69410Y-34114D02*
X69410Y-36516D01*
X69410Y-36516D02*
X69540Y-36516D01*
X69540Y-36516D02*
X69631Y-36554D01*
X69631Y-36554D02*
X69701Y-36624D01*
X69701Y-36624D02*
X69739Y-36716D01*
X69739Y-36716D02*
X69739Y-37365D01*
X69739Y-37365D02*
X69701Y-37456D01*
X69701Y-37456D02*
X69631Y-37526D01*
X69631Y-37526D02*
X69539Y-37564D01*
X69539Y-37564D02*
X68460Y-37564D01*
X68460Y-37564D02*
X68461Y-38436D01*
X68461Y-38436D02*
X69540Y-38436D01*
X69540Y-38436D02*
X69631Y-38474D01*
X69631Y-38474D02*
X69701Y-38544D01*
X69701Y-38544D02*
X69739Y-38636D01*
X69739Y-38636D02*
X69739Y-39285D01*
X69739Y-39285D02*
X69701Y-39376D01*
X69701Y-39376D02*
X69631Y-39446D01*
X69631Y-39446D02*
X69539Y-39484D01*
X69539Y-39484D02*
X69410Y-39484D01*
X69410Y-39484D02*
X69410Y-41886D01*
X69410Y-41886D02*
X69560Y-41886D01*
X69560Y-41886D02*
X69651Y-41924D01*
X69651Y-41924D02*
X69721Y-41994D01*
X69721Y-41994D02*
X69759Y-42086D01*
X69759Y-42086D02*
X69759Y-42815D01*
X69759Y-42815D02*
X69721Y-42906D01*
X69721Y-42906D02*
X69651Y-42976D01*
X69651Y-42976D02*
X69593Y-42999D01*
X69593Y-42999D02*
X69651Y-43024D01*
X69651Y-43024D02*
X69721Y-43094D01*
X69721Y-43094D02*
X69759Y-43186D01*
X69759Y-43186D02*
X69759Y-43915D01*
X69759Y-43915D02*
X69721Y-44006D01*
X69721Y-44006D02*
X69651Y-44076D01*
X69651Y-44076D02*
X69559Y-44114D01*
X69559Y-44114D02*
X69410Y-44114D01*
X69410Y-44114D02*
X69410Y-51886D01*
X69410Y-51886D02*
X69560Y-51886D01*
X69560Y-51886D02*
X69651Y-51924D01*
X69651Y-51924D02*
X69721Y-51994D01*
X69721Y-51994D02*
X69759Y-52086D01*
X69759Y-52086D02*
X69759Y-52815D01*
X69759Y-52815D02*
X69721Y-52906D01*
X69721Y-52906D02*
X69651Y-52976D01*
X69651Y-52976D02*
X69593Y-52999D01*
X69593Y-52999D02*
X69651Y-53024D01*
X69651Y-53024D02*
X69721Y-53094D01*
X69721Y-53094D02*
X69759Y-53186D01*
X69759Y-53186D02*
X69759Y-53915D01*
X69759Y-53915D02*
X69721Y-54006D01*
X69721Y-54006D02*
X69651Y-54076D01*
X69651Y-54076D02*
X69559Y-54114D01*
X69559Y-54114D02*
X69410Y-54114D01*
X69410Y-54114D02*
X69410Y-54575D01*
X69410Y-54575D02*
X69379Y-54732D01*
X69379Y-54732D02*
X69289Y-54866D01*
X69289Y-54866D02*
X66818Y-57337D01*
X66818Y-57337D02*
X66685Y-57426D01*
X66685Y-57426D02*
X66528Y-57457D01*
X66528Y-57457D02*
X61839Y-57457D01*
X61839Y-57457D02*
X61839Y-57755D01*
X61839Y-57755D02*
X71800Y-57755D01*
X71800Y-57755D02*
X71800Y-57000D01*
X71800Y-57000D02*
X71433Y-56847D01*
X71433Y-56847D02*
X71152Y-56566D01*
X71152Y-56566D02*
X71000Y-56198D01*
X71000Y-56198D02*
X71000Y-55800D01*
X71000Y-55800D02*
X71153Y-55433D01*
X71153Y-55433D02*
X71434Y-55152D01*
X71434Y-55152D02*
X71800Y-55000D01*
X71800Y-55000D02*
X71800Y-31000D01*
X71800Y-31000D02*
X71433Y-30847D01*
X71433Y-30847D02*
X71152Y-30566D01*
X71152Y-30566D02*
X71000Y-30198D01*
X71000Y-30198D02*
X71000Y-29800D01*
X71000Y-29800D02*
X71153Y-29433D01*
X71153Y-29433D02*
X71434Y-29152D01*
X71434Y-29152D02*
X71802Y-29000D01*
X71802Y-29000D02*
X72200Y-29000D01*
X72200Y-29000D02*
X72567Y-29153D01*
X72567Y-29153D02*
X72848Y-29434D01*
X72848Y-29434D02*
X73000Y-29802D01*
X73000Y-29802D02*
X73000Y-30200D01*
X73000Y-30200D02*
X72847Y-30567D01*
X72847Y-30567D02*
X72566Y-30848D01*
X72566Y-30848D02*
X72198Y-31000D01*
X72198Y-31000D02*
X71800Y-31000D01*
X71800Y-31000D02*
X71800Y-55000D01*
X71800Y-55000D02*
X72200Y-55000D01*
X72200Y-55000D02*
X72567Y-55153D01*
X72567Y-55153D02*
X72848Y-55434D01*
X72848Y-55434D02*
X73000Y-55802D01*
X73000Y-55802D02*
X73000Y-56200D01*
X73000Y-56200D02*
X72847Y-56567D01*
X72847Y-56567D02*
X72566Y-56848D01*
X72566Y-56848D02*
X72198Y-57000D01*
X72198Y-57000D02*
X71800Y-57000D01*
X71800Y-57000D02*
X71800Y-57755D01*
X71800Y-57755D02*
X73755Y-57755D01*
M02*
