G04 (created by PCBNEW-RS274X (20100406 SVN-R2509)-final) date Tue 04 May 2010 03:45:42 PM PDT*
G01*
G70*
G90*
%MOIN*%
G04 Gerber Fmt 3.4, Leading zero omitted, Abs format*
%FSLAX34Y34*%
G04 APERTURE LIST*
%ADD10C,0.001000*%
%ADD11C,0.009000*%
%ADD12R,0.050000X0.050000*%
%ADD13C,0.050000*%
%ADD14R,0.070000X0.040000*%
%ADD15C,0.073000*%
%ADD16R,0.073000X0.073000*%
%ADD17C,0.010000*%
G04 APERTURE END LIST*
G54D10*
G54D11*
X71000Y-28500D02*
X46000Y-28500D01*
X71000Y-53500D02*
X71000Y-28500D01*
X46000Y-53500D02*
X71000Y-53500D01*
X46000Y-28500D02*
X46000Y-53500D01*
G54D12*
X61000Y-39500D03*
G54D13*
X61000Y-40500D03*
X61000Y-41500D03*
X61000Y-42500D03*
G54D14*
X60200Y-39500D03*
X61800Y-40500D03*
X60200Y-41500D03*
X61800Y-42500D03*
G54D12*
X56000Y-39500D03*
G54D13*
X56000Y-40500D03*
X56000Y-41500D03*
X56000Y-42500D03*
G54D14*
X55200Y-39500D03*
X56800Y-40500D03*
X55200Y-41500D03*
X56800Y-42500D03*
G54D15*
X63500Y-41000D03*
X63500Y-42000D03*
G54D16*
X63500Y-40000D03*
G54D17*
X46145Y-28645D02*
X70855Y-28645D01*
X46145Y-28725D02*
X70855Y-28725D01*
X46145Y-28805D02*
X70855Y-28805D01*
X46145Y-28885D02*
X70855Y-28885D01*
X46145Y-28965D02*
X70855Y-28965D01*
X46145Y-29045D02*
X70855Y-29045D01*
X46145Y-29125D02*
X70855Y-29125D01*
X46145Y-29205D02*
X70855Y-29205D01*
X46145Y-29285D02*
X70855Y-29285D01*
X46145Y-29365D02*
X70855Y-29365D01*
X46145Y-29445D02*
X70855Y-29445D01*
X46145Y-29525D02*
X70855Y-29525D01*
X46145Y-29605D02*
X70855Y-29605D01*
X46145Y-29685D02*
X70855Y-29685D01*
X46145Y-29765D02*
X70855Y-29765D01*
X46145Y-29845D02*
X70855Y-29845D01*
X46145Y-29925D02*
X70855Y-29925D01*
X46145Y-30005D02*
X70855Y-30005D01*
X46145Y-30085D02*
X70855Y-30085D01*
X46145Y-30165D02*
X70855Y-30165D01*
X46145Y-30245D02*
X70855Y-30245D01*
X46145Y-30325D02*
X70855Y-30325D01*
X46145Y-30405D02*
X70855Y-30405D01*
X46145Y-30485D02*
X70855Y-30485D01*
X46145Y-30565D02*
X70855Y-30565D01*
X46145Y-30645D02*
X70855Y-30645D01*
X46145Y-30725D02*
X70855Y-30725D01*
X46145Y-30805D02*
X70855Y-30805D01*
X46145Y-30885D02*
X70855Y-30885D01*
X46145Y-30965D02*
X70855Y-30965D01*
X46145Y-31045D02*
X70855Y-31045D01*
X46145Y-31125D02*
X70855Y-31125D01*
X46145Y-31205D02*
X70855Y-31205D01*
X46145Y-31285D02*
X70855Y-31285D01*
X46145Y-31365D02*
X70855Y-31365D01*
X46145Y-31445D02*
X70855Y-31445D01*
X46145Y-31525D02*
X70855Y-31525D01*
X46145Y-31605D02*
X70855Y-31605D01*
X46145Y-31685D02*
X70855Y-31685D01*
X46145Y-31765D02*
X70855Y-31765D01*
X46145Y-31845D02*
X70855Y-31845D01*
X46145Y-31925D02*
X70855Y-31925D01*
X46145Y-32005D02*
X70855Y-32005D01*
X46145Y-32085D02*
X70855Y-32085D01*
X46145Y-32165D02*
X70855Y-32165D01*
X46145Y-32245D02*
X70855Y-32245D01*
X46145Y-32325D02*
X70855Y-32325D01*
X46145Y-32405D02*
X70855Y-32405D01*
X46145Y-32485D02*
X70855Y-32485D01*
X46145Y-32565D02*
X70855Y-32565D01*
X46145Y-32645D02*
X70855Y-32645D01*
X46145Y-32725D02*
X70855Y-32725D01*
X46145Y-32805D02*
X70855Y-32805D01*
X46145Y-32885D02*
X70855Y-32885D01*
X46145Y-32965D02*
X70855Y-32965D01*
X46145Y-33045D02*
X70855Y-33045D01*
X46145Y-33125D02*
X70855Y-33125D01*
X46145Y-33205D02*
X70855Y-33205D01*
X46145Y-33285D02*
X70855Y-33285D01*
X46145Y-33365D02*
X70855Y-33365D01*
X46145Y-33445D02*
X70855Y-33445D01*
X46145Y-33525D02*
X70855Y-33525D01*
X46145Y-33605D02*
X70855Y-33605D01*
X46145Y-33685D02*
X70855Y-33685D01*
X46145Y-33765D02*
X70855Y-33765D01*
X46145Y-33845D02*
X70855Y-33845D01*
X46145Y-33925D02*
X70855Y-33925D01*
X46145Y-34005D02*
X70855Y-34005D01*
X46145Y-34085D02*
X70855Y-34085D01*
X46145Y-34165D02*
X70855Y-34165D01*
X46145Y-34245D02*
X70855Y-34245D01*
X46145Y-34325D02*
X70855Y-34325D01*
X46145Y-34405D02*
X70855Y-34405D01*
X46145Y-34485D02*
X70855Y-34485D01*
X46145Y-34565D02*
X70855Y-34565D01*
X46145Y-34645D02*
X70855Y-34645D01*
X46145Y-34725D02*
X70855Y-34725D01*
X46145Y-34805D02*
X70855Y-34805D01*
X46145Y-34885D02*
X70855Y-34885D01*
X46145Y-34965D02*
X70855Y-34965D01*
X46145Y-35045D02*
X70855Y-35045D01*
X46145Y-35125D02*
X70855Y-35125D01*
X46145Y-35205D02*
X70855Y-35205D01*
X46145Y-35285D02*
X70855Y-35285D01*
X46145Y-35365D02*
X70855Y-35365D01*
X46145Y-35445D02*
X70855Y-35445D01*
X46145Y-35525D02*
X70855Y-35525D01*
X46145Y-35605D02*
X70855Y-35605D01*
X46145Y-35685D02*
X70855Y-35685D01*
X46145Y-35765D02*
X70855Y-35765D01*
X46145Y-35845D02*
X70855Y-35845D01*
X46145Y-35925D02*
X70855Y-35925D01*
X46145Y-36005D02*
X70855Y-36005D01*
X46145Y-36085D02*
X70855Y-36085D01*
X46145Y-36165D02*
X70855Y-36165D01*
X46145Y-36245D02*
X70855Y-36245D01*
X46145Y-36325D02*
X70855Y-36325D01*
X46145Y-36405D02*
X70855Y-36405D01*
X46145Y-36485D02*
X70855Y-36485D01*
X46145Y-36565D02*
X70855Y-36565D01*
X46145Y-36645D02*
X70855Y-36645D01*
X46145Y-36725D02*
X70855Y-36725D01*
X46145Y-36805D02*
X70855Y-36805D01*
X46145Y-36885D02*
X70855Y-36885D01*
X46145Y-36965D02*
X70855Y-36965D01*
X46145Y-37045D02*
X70855Y-37045D01*
X46145Y-37125D02*
X70855Y-37125D01*
X46145Y-37205D02*
X70855Y-37205D01*
X46145Y-37285D02*
X70855Y-37285D01*
X46145Y-37365D02*
X70855Y-37365D01*
X46145Y-37445D02*
X70855Y-37445D01*
X46145Y-37525D02*
X70855Y-37525D01*
X46145Y-37605D02*
X70855Y-37605D01*
X46145Y-37685D02*
X70855Y-37685D01*
X46145Y-37765D02*
X70855Y-37765D01*
X46145Y-37845D02*
X70855Y-37845D01*
X46145Y-37925D02*
X70855Y-37925D01*
X46145Y-38005D02*
X70855Y-38005D01*
X46145Y-38085D02*
X70855Y-38085D01*
X46145Y-38165D02*
X70855Y-38165D01*
X46145Y-38245D02*
X70855Y-38245D01*
X46145Y-38325D02*
X70855Y-38325D01*
X46145Y-38405D02*
X70855Y-38405D01*
X46145Y-38485D02*
X70855Y-38485D01*
X46145Y-38565D02*
X70855Y-38565D01*
X46145Y-38645D02*
X70855Y-38645D01*
X46145Y-38725D02*
X70855Y-38725D01*
X46145Y-38805D02*
X70855Y-38805D01*
X46145Y-38885D02*
X70855Y-38885D01*
X46145Y-38965D02*
X70855Y-38965D01*
X46145Y-39045D02*
X55603Y-39045D01*
X55933Y-39045D02*
X56067Y-39045D01*
X56397Y-39045D02*
X60603Y-39045D01*
X60933Y-39045D02*
X61067Y-39045D01*
X61397Y-39045D02*
X70855Y-39045D01*
X46145Y-39125D02*
X55533Y-39125D01*
X55950Y-39125D02*
X56050Y-39125D01*
X56468Y-39125D02*
X60533Y-39125D01*
X60950Y-39125D02*
X61050Y-39125D01*
X61468Y-39125D02*
X70855Y-39125D01*
X46145Y-39205D02*
X54734Y-39205D01*
X55950Y-39205D02*
X56050Y-39205D01*
X56500Y-39205D02*
X59734Y-39205D01*
X60950Y-39205D02*
X61050Y-39205D01*
X61500Y-39205D02*
X70855Y-39205D01*
X46145Y-39285D02*
X54701Y-39285D01*
X55950Y-39285D02*
X56050Y-39285D01*
X56500Y-39285D02*
X59701Y-39285D01*
X60950Y-39285D02*
X61050Y-39285D01*
X61500Y-39285D02*
X70855Y-39285D01*
X46145Y-39365D02*
X54701Y-39365D01*
X55950Y-39365D02*
X56050Y-39365D01*
X56500Y-39365D02*
X59701Y-39365D01*
X60950Y-39365D02*
X61050Y-39365D01*
X61500Y-39365D02*
X70855Y-39365D01*
X46145Y-39445D02*
X54701Y-39445D01*
X55950Y-39445D02*
X56050Y-39445D01*
X56443Y-39445D02*
X59701Y-39445D01*
X60950Y-39445D02*
X61050Y-39445D01*
X61443Y-39445D02*
X70855Y-39445D01*
X46145Y-39525D02*
X54701Y-39525D01*
X55950Y-39525D02*
X59701Y-39525D01*
X60950Y-39525D02*
X63034Y-39525D01*
X63966Y-39525D02*
X70855Y-39525D01*
X46145Y-39605D02*
X54701Y-39605D01*
X55950Y-39605D02*
X56050Y-39605D01*
X56493Y-39605D02*
X59701Y-39605D01*
X60950Y-39605D02*
X61050Y-39605D01*
X61493Y-39605D02*
X62987Y-39605D01*
X64014Y-39605D02*
X70855Y-39605D01*
X46145Y-39685D02*
X54701Y-39685D01*
X55950Y-39685D02*
X56050Y-39685D01*
X56499Y-39685D02*
X59701Y-39685D01*
X60950Y-39685D02*
X61050Y-39685D01*
X61499Y-39685D02*
X62986Y-39685D01*
X64014Y-39685D02*
X70855Y-39685D01*
X46145Y-39765D02*
X54715Y-39765D01*
X55950Y-39765D02*
X56050Y-39765D01*
X56499Y-39765D02*
X59715Y-39765D01*
X60950Y-39765D02*
X61050Y-39765D01*
X61499Y-39765D02*
X62986Y-39765D01*
X64014Y-39765D02*
X70855Y-39765D01*
X46145Y-39845D02*
X54811Y-39845D01*
X55950Y-39845D02*
X56050Y-39845D01*
X56480Y-39845D02*
X59811Y-39845D01*
X60950Y-39845D02*
X61050Y-39845D01*
X61480Y-39845D02*
X62986Y-39845D01*
X64014Y-39845D02*
X70855Y-39845D01*
X46145Y-39925D02*
X55573Y-39925D01*
X55950Y-39925D02*
X56050Y-39925D01*
X56427Y-39925D02*
X60573Y-39925D01*
X60950Y-39925D02*
X61050Y-39925D01*
X61427Y-39925D02*
X62986Y-39925D01*
X64014Y-39925D02*
X70855Y-39925D01*
X46145Y-40005D02*
X56068Y-40005D01*
X56068Y-40005D02*
X61068Y-40005D01*
X61068Y-40005D02*
X62986Y-40005D01*
X64014Y-40005D02*
X70855Y-40005D01*
X46145Y-40085D02*
X55745Y-40085D01*
X56256Y-40085D02*
X60745Y-40085D01*
X61256Y-40085D02*
X62986Y-40085D01*
X64014Y-40085D02*
X70855Y-40085D01*
X46145Y-40165D02*
X55736Y-40165D01*
X56264Y-40165D02*
X56387Y-40165D01*
X57214Y-40165D02*
X60736Y-40165D01*
X61264Y-40165D02*
X61387Y-40165D01*
X62214Y-40165D02*
X62986Y-40165D01*
X64014Y-40165D02*
X70855Y-40165D01*
X46145Y-40245D02*
X55583Y-40245D01*
X55674Y-40245D02*
X55816Y-40245D01*
X56184Y-40245D02*
X56311Y-40245D01*
X57289Y-40245D02*
X60583Y-40245D01*
X60674Y-40245D02*
X60816Y-40245D01*
X61184Y-40245D02*
X61311Y-40245D01*
X62289Y-40245D02*
X62986Y-40245D01*
X64014Y-40245D02*
X70855Y-40245D01*
X46145Y-40325D02*
X55543Y-40325D01*
X55754Y-40325D02*
X55896Y-40325D01*
X56104Y-40325D02*
X56246Y-40325D01*
X57299Y-40325D02*
X60543Y-40325D01*
X60754Y-40325D02*
X60896Y-40325D01*
X61104Y-40325D02*
X61246Y-40325D01*
X62299Y-40325D02*
X62986Y-40325D01*
X64014Y-40325D02*
X70855Y-40325D01*
X46145Y-40405D02*
X55515Y-40405D01*
X55834Y-40405D02*
X55976Y-40405D01*
X56024Y-40405D02*
X56166Y-40405D01*
X57299Y-40405D02*
X60515Y-40405D01*
X60834Y-40405D02*
X60976Y-40405D01*
X61024Y-40405D02*
X61166Y-40405D01*
X62299Y-40405D02*
X62990Y-40405D01*
X64009Y-40405D02*
X70855Y-40405D01*
X46145Y-40485D02*
X55508Y-40485D01*
X55914Y-40485D02*
X56086Y-40485D01*
X57299Y-40485D02*
X60508Y-40485D01*
X60914Y-40485D02*
X61086Y-40485D01*
X62299Y-40485D02*
X63044Y-40485D01*
X63956Y-40485D02*
X70855Y-40485D01*
X46145Y-40565D02*
X55513Y-40565D01*
X55864Y-40565D02*
X56136Y-40565D01*
X57299Y-40565D02*
X60513Y-40565D01*
X60864Y-40565D02*
X61136Y-40565D01*
X62299Y-40565D02*
X63150Y-40565D01*
X63851Y-40565D02*
X70855Y-40565D01*
X46145Y-40645D02*
X55524Y-40645D01*
X55784Y-40645D02*
X55926Y-40645D01*
X56074Y-40645D02*
X56216Y-40645D01*
X57299Y-40645D02*
X60524Y-40645D01*
X60784Y-40645D02*
X60926Y-40645D01*
X61074Y-40645D02*
X61216Y-40645D01*
X62299Y-40645D02*
X63215Y-40645D01*
X63784Y-40645D02*
X70855Y-40645D01*
X46145Y-40725D02*
X55557Y-40725D01*
X55704Y-40725D02*
X55846Y-40725D01*
X56154Y-40725D02*
X56296Y-40725D01*
X57299Y-40725D02*
X60557Y-40725D01*
X60704Y-40725D02*
X60846Y-40725D01*
X61154Y-40725D02*
X61296Y-40725D01*
X62299Y-40725D02*
X62959Y-40725D01*
X63155Y-40725D02*
X63295Y-40725D01*
X63704Y-40725D02*
X63846Y-40725D01*
X64044Y-40725D02*
X70855Y-40725D01*
X46145Y-40805D02*
X55766Y-40805D01*
X56234Y-40805D02*
X56344Y-40805D01*
X57256Y-40805D02*
X60766Y-40805D01*
X61234Y-40805D02*
X61344Y-40805D01*
X62256Y-40805D02*
X62930Y-40805D01*
X63235Y-40805D02*
X63375Y-40805D01*
X63624Y-40805D02*
X63766Y-40805D01*
X64077Y-40805D02*
X70855Y-40805D01*
X46145Y-40885D02*
X55737Y-40885D01*
X56262Y-40885D02*
X60737Y-40885D01*
X61262Y-40885D02*
X62901Y-40885D01*
X63315Y-40885D02*
X63455Y-40885D01*
X63544Y-40885D02*
X63686Y-40885D01*
X64099Y-40885D02*
X70855Y-40885D01*
X46145Y-40965D02*
X55845Y-40965D01*
X56170Y-40965D02*
X60845Y-40965D01*
X61170Y-40965D02*
X62895Y-40965D01*
X63395Y-40965D02*
X63606Y-40965D01*
X64102Y-40965D02*
X70855Y-40965D01*
X46145Y-41045D02*
X55806Y-41045D01*
X56183Y-41045D02*
X60806Y-41045D01*
X61183Y-41045D02*
X62898Y-41045D01*
X63384Y-41045D02*
X63615Y-41045D01*
X64105Y-41045D02*
X70855Y-41045D01*
X46145Y-41125D02*
X55736Y-41125D01*
X56265Y-41125D02*
X60736Y-41125D01*
X61265Y-41125D02*
X62902Y-41125D01*
X63304Y-41125D02*
X63446Y-41125D01*
X63555Y-41125D02*
X63695Y-41125D01*
X64096Y-41125D02*
X70855Y-41125D01*
X46145Y-41205D02*
X54734Y-41205D01*
X55666Y-41205D02*
X55776Y-41205D01*
X56224Y-41205D02*
X59734Y-41205D01*
X60667Y-41205D02*
X60776Y-41205D01*
X61224Y-41205D02*
X62927Y-41205D01*
X63224Y-41205D02*
X63366Y-41205D01*
X63635Y-41205D02*
X63775Y-41205D01*
X64066Y-41205D02*
X70855Y-41205D01*
X46145Y-41285D02*
X54701Y-41285D01*
X55714Y-41285D02*
X55856Y-41285D01*
X56144Y-41285D02*
X56286Y-41285D01*
X56447Y-41285D02*
X59701Y-41285D01*
X60714Y-41285D02*
X60856Y-41285D01*
X61144Y-41285D02*
X61286Y-41285D01*
X61447Y-41285D02*
X62960Y-41285D01*
X63144Y-41285D02*
X63286Y-41285D01*
X63715Y-41285D02*
X63855Y-41285D01*
X64037Y-41285D02*
X70855Y-41285D01*
X46145Y-41365D02*
X54701Y-41365D01*
X55794Y-41365D02*
X55936Y-41365D01*
X56064Y-41365D02*
X56206Y-41365D01*
X56480Y-41365D02*
X59701Y-41365D01*
X60794Y-41365D02*
X60936Y-41365D01*
X61064Y-41365D02*
X61206Y-41365D01*
X61480Y-41365D02*
X63206Y-41365D01*
X63795Y-41365D02*
X70855Y-41365D01*
X46145Y-41445D02*
X54701Y-41445D01*
X55874Y-41445D02*
X56126Y-41445D01*
X56488Y-41445D02*
X59701Y-41445D01*
X60874Y-41445D02*
X61126Y-41445D01*
X61488Y-41445D02*
X63153Y-41445D01*
X63846Y-41445D02*
X70855Y-41445D01*
X46145Y-41525D02*
X54701Y-41525D01*
X55903Y-41525D02*
X56096Y-41525D01*
X56493Y-41525D02*
X59701Y-41525D01*
X60903Y-41525D02*
X61096Y-41525D01*
X61493Y-41525D02*
X63180Y-41525D01*
X63820Y-41525D02*
X70855Y-41525D01*
X46145Y-41605D02*
X54701Y-41605D01*
X55823Y-41605D02*
X55966Y-41605D01*
X56034Y-41605D02*
X56176Y-41605D01*
X56482Y-41605D02*
X59701Y-41605D01*
X60823Y-41605D02*
X60966Y-41605D01*
X61034Y-41605D02*
X61176Y-41605D01*
X61482Y-41605D02*
X63167Y-41605D01*
X63833Y-41605D02*
X70855Y-41605D01*
X46145Y-41685D02*
X54701Y-41685D01*
X55743Y-41685D02*
X55886Y-41685D01*
X56114Y-41685D02*
X56256Y-41685D01*
X56454Y-41685D02*
X59701Y-41685D01*
X60743Y-41685D02*
X60886Y-41685D01*
X61114Y-41685D02*
X61256Y-41685D01*
X61454Y-41685D02*
X63087Y-41685D01*
X63913Y-41685D02*
X70855Y-41685D01*
X46145Y-41765D02*
X54715Y-41765D01*
X55684Y-41765D02*
X55806Y-41765D01*
X56194Y-41765D02*
X56336Y-41765D01*
X56373Y-41765D02*
X59715Y-41765D01*
X60684Y-41765D02*
X60806Y-41765D01*
X61194Y-41765D02*
X61336Y-41765D01*
X61373Y-41765D02*
X63041Y-41765D01*
X63961Y-41765D02*
X70855Y-41765D01*
X46145Y-41845D02*
X54811Y-41845D01*
X55589Y-41845D02*
X55728Y-41845D01*
X56271Y-41845D02*
X59811Y-41845D01*
X60589Y-41845D02*
X60728Y-41845D01*
X61271Y-41845D02*
X63007Y-41845D01*
X63994Y-41845D02*
X70855Y-41845D01*
X46145Y-41925D02*
X55746Y-41925D01*
X56253Y-41925D02*
X60746Y-41925D01*
X61253Y-41925D02*
X62985Y-41925D01*
X64015Y-41925D02*
X70855Y-41925D01*
X46145Y-42005D02*
X56068Y-42005D01*
X56068Y-42005D02*
X61068Y-42005D01*
X61068Y-42005D02*
X62985Y-42005D01*
X64015Y-42005D02*
X70855Y-42005D01*
X46145Y-42085D02*
X55745Y-42085D01*
X56256Y-42085D02*
X60745Y-42085D01*
X61256Y-42085D02*
X62985Y-42085D01*
X64015Y-42085D02*
X70855Y-42085D01*
X46145Y-42165D02*
X55736Y-42165D01*
X56264Y-42165D02*
X56387Y-42165D01*
X57214Y-42165D02*
X60736Y-42165D01*
X61264Y-42165D02*
X61387Y-42165D01*
X62214Y-42165D02*
X63011Y-42165D01*
X63989Y-42165D02*
X70855Y-42165D01*
X46145Y-42245D02*
X55583Y-42245D01*
X55674Y-42245D02*
X55816Y-42245D01*
X56184Y-42245D02*
X56311Y-42245D01*
X57289Y-42245D02*
X60583Y-42245D01*
X60674Y-42245D02*
X60816Y-42245D01*
X61184Y-42245D02*
X61311Y-42245D01*
X62289Y-42245D02*
X63044Y-42245D01*
X63955Y-42245D02*
X70855Y-42245D01*
X46145Y-42325D02*
X55543Y-42325D01*
X55754Y-42325D02*
X55896Y-42325D01*
X56104Y-42325D02*
X56246Y-42325D01*
X57299Y-42325D02*
X60543Y-42325D01*
X60754Y-42325D02*
X60896Y-42325D01*
X61104Y-42325D02*
X61246Y-42325D01*
X62299Y-42325D02*
X63097Y-42325D01*
X63903Y-42325D02*
X70855Y-42325D01*
X46145Y-42405D02*
X55515Y-42405D01*
X55834Y-42405D02*
X55976Y-42405D01*
X56024Y-42405D02*
X56166Y-42405D01*
X57299Y-42405D02*
X60515Y-42405D01*
X60834Y-42405D02*
X60976Y-42405D01*
X61024Y-42405D02*
X61166Y-42405D01*
X62299Y-42405D02*
X63177Y-42405D01*
X63823Y-42405D02*
X70855Y-42405D01*
X46145Y-42485D02*
X55508Y-42485D01*
X55914Y-42485D02*
X56086Y-42485D01*
X57299Y-42485D02*
X60508Y-42485D01*
X60914Y-42485D02*
X61086Y-42485D01*
X62299Y-42485D02*
X63325Y-42485D01*
X63674Y-42485D02*
X70855Y-42485D01*
X46145Y-42565D02*
X55513Y-42565D01*
X55864Y-42565D02*
X56136Y-42565D01*
X57299Y-42565D02*
X60513Y-42565D01*
X60864Y-42565D02*
X61136Y-42565D01*
X62299Y-42565D02*
X70855Y-42565D01*
X46145Y-42645D02*
X55524Y-42645D01*
X55784Y-42645D02*
X55926Y-42645D01*
X56074Y-42645D02*
X56216Y-42645D01*
X57299Y-42645D02*
X60524Y-42645D01*
X60784Y-42645D02*
X60926Y-42645D01*
X61074Y-42645D02*
X61216Y-42645D01*
X62299Y-42645D02*
X70855Y-42645D01*
X46145Y-42725D02*
X55557Y-42725D01*
X55704Y-42725D02*
X55846Y-42725D01*
X56154Y-42725D02*
X56296Y-42725D01*
X57299Y-42725D02*
X60557Y-42725D01*
X60704Y-42725D02*
X60846Y-42725D01*
X61154Y-42725D02*
X61296Y-42725D01*
X62299Y-42725D02*
X70855Y-42725D01*
X46145Y-42805D02*
X55766Y-42805D01*
X56234Y-42805D02*
X56344Y-42805D01*
X57256Y-42805D02*
X60766Y-42805D01*
X61234Y-42805D02*
X61344Y-42805D01*
X62256Y-42805D02*
X70855Y-42805D01*
X46145Y-42885D02*
X55737Y-42885D01*
X56262Y-42885D02*
X60737Y-42885D01*
X61262Y-42885D02*
X70855Y-42885D01*
X46145Y-42965D02*
X55845Y-42965D01*
X56170Y-42965D02*
X60845Y-42965D01*
X61170Y-42965D02*
X70855Y-42965D01*
X46145Y-43045D02*
X70855Y-43045D01*
X46145Y-43125D02*
X70855Y-43125D01*
X46145Y-43205D02*
X70855Y-43205D01*
X46145Y-43285D02*
X70855Y-43285D01*
X46145Y-43365D02*
X70855Y-43365D01*
X46145Y-43445D02*
X70855Y-43445D01*
X46145Y-43525D02*
X70855Y-43525D01*
X46145Y-43605D02*
X70855Y-43605D01*
X46145Y-43685D02*
X70855Y-43685D01*
X46145Y-43765D02*
X70855Y-43765D01*
X46145Y-43845D02*
X70855Y-43845D01*
X46145Y-43925D02*
X70855Y-43925D01*
X46145Y-44005D02*
X70855Y-44005D01*
X46145Y-44085D02*
X70855Y-44085D01*
X46145Y-44165D02*
X70855Y-44165D01*
X46145Y-44245D02*
X70855Y-44245D01*
X46145Y-44325D02*
X70855Y-44325D01*
X46145Y-44405D02*
X70855Y-44405D01*
X46145Y-44485D02*
X70855Y-44485D01*
X46145Y-44565D02*
X70855Y-44565D01*
X46145Y-44645D02*
X70855Y-44645D01*
X46145Y-44725D02*
X70855Y-44725D01*
X46145Y-44805D02*
X70855Y-44805D01*
X46145Y-44885D02*
X70855Y-44885D01*
X46145Y-44965D02*
X70855Y-44965D01*
X46145Y-45045D02*
X70855Y-45045D01*
X46145Y-45125D02*
X70855Y-45125D01*
X46145Y-45205D02*
X70855Y-45205D01*
X46145Y-45285D02*
X70855Y-45285D01*
X46145Y-45365D02*
X70855Y-45365D01*
X46145Y-45445D02*
X70855Y-45445D01*
X46145Y-45525D02*
X70855Y-45525D01*
X46145Y-45605D02*
X70855Y-45605D01*
X46145Y-45685D02*
X70855Y-45685D01*
X46145Y-45765D02*
X70855Y-45765D01*
X46145Y-45845D02*
X70855Y-45845D01*
X46145Y-45925D02*
X70855Y-45925D01*
X46145Y-46005D02*
X70855Y-46005D01*
X46145Y-46085D02*
X70855Y-46085D01*
X46145Y-46165D02*
X70855Y-46165D01*
X46145Y-46245D02*
X70855Y-46245D01*
X46145Y-46325D02*
X70855Y-46325D01*
X46145Y-46405D02*
X70855Y-46405D01*
X46145Y-46485D02*
X70855Y-46485D01*
X46145Y-46565D02*
X70855Y-46565D01*
X46145Y-46645D02*
X70855Y-46645D01*
X46145Y-46725D02*
X70855Y-46725D01*
X46145Y-46805D02*
X70855Y-46805D01*
X46145Y-46885D02*
X70855Y-46885D01*
X46145Y-46965D02*
X70855Y-46965D01*
X46145Y-47045D02*
X70855Y-47045D01*
X46145Y-47125D02*
X70855Y-47125D01*
X46145Y-47205D02*
X70855Y-47205D01*
X46145Y-47285D02*
X70855Y-47285D01*
X46145Y-47365D02*
X70855Y-47365D01*
X46145Y-47445D02*
X70855Y-47445D01*
X46145Y-47525D02*
X70855Y-47525D01*
X46145Y-47605D02*
X70855Y-47605D01*
X46145Y-47685D02*
X70855Y-47685D01*
X46145Y-47765D02*
X70855Y-47765D01*
X46145Y-47845D02*
X70855Y-47845D01*
X46145Y-47925D02*
X70855Y-47925D01*
X46145Y-48005D02*
X70855Y-48005D01*
X46145Y-48085D02*
X70855Y-48085D01*
X46145Y-48165D02*
X70855Y-48165D01*
X46145Y-48245D02*
X70855Y-48245D01*
X46145Y-48325D02*
X70855Y-48325D01*
X46145Y-48405D02*
X70855Y-48405D01*
X46145Y-48485D02*
X70855Y-48485D01*
X46145Y-48565D02*
X70855Y-48565D01*
X46145Y-48645D02*
X70855Y-48645D01*
X46145Y-48725D02*
X70855Y-48725D01*
X46145Y-48805D02*
X70855Y-48805D01*
X46145Y-48885D02*
X70855Y-48885D01*
X46145Y-48965D02*
X70855Y-48965D01*
X46145Y-49045D02*
X70855Y-49045D01*
X46145Y-49125D02*
X70855Y-49125D01*
X46145Y-49205D02*
X70855Y-49205D01*
X46145Y-49285D02*
X70855Y-49285D01*
X46145Y-49365D02*
X70855Y-49365D01*
X46145Y-49445D02*
X70855Y-49445D01*
X46145Y-49525D02*
X70855Y-49525D01*
X46145Y-49605D02*
X70855Y-49605D01*
X46145Y-49685D02*
X70855Y-49685D01*
X46145Y-49765D02*
X70855Y-49765D01*
X46145Y-49845D02*
X70855Y-49845D01*
X46145Y-49925D02*
X70855Y-49925D01*
X46145Y-50005D02*
X70855Y-50005D01*
X46145Y-50085D02*
X70855Y-50085D01*
X46145Y-50165D02*
X70855Y-50165D01*
X46145Y-50245D02*
X70855Y-50245D01*
X46145Y-50325D02*
X70855Y-50325D01*
X46145Y-50405D02*
X70855Y-50405D01*
X46145Y-50485D02*
X70855Y-50485D01*
X46145Y-50565D02*
X70855Y-50565D01*
X46145Y-50645D02*
X70855Y-50645D01*
X46145Y-50725D02*
X70855Y-50725D01*
X46145Y-50805D02*
X70855Y-50805D01*
X46145Y-50885D02*
X70855Y-50885D01*
X46145Y-50965D02*
X70855Y-50965D01*
X46145Y-51045D02*
X70855Y-51045D01*
X46145Y-51125D02*
X70855Y-51125D01*
X46145Y-51205D02*
X70855Y-51205D01*
X46145Y-51285D02*
X70855Y-51285D01*
X46145Y-51365D02*
X70855Y-51365D01*
X46145Y-51445D02*
X70855Y-51445D01*
X46145Y-51525D02*
X70855Y-51525D01*
X46145Y-51605D02*
X70855Y-51605D01*
X46145Y-51685D02*
X70855Y-51685D01*
X46145Y-51765D02*
X70855Y-51765D01*
X46145Y-51845D02*
X70855Y-51845D01*
X46145Y-51925D02*
X70855Y-51925D01*
X46145Y-52005D02*
X70855Y-52005D01*
X46145Y-52085D02*
X70855Y-52085D01*
X46145Y-52165D02*
X70855Y-52165D01*
X46145Y-52245D02*
X70855Y-52245D01*
X46145Y-52325D02*
X70855Y-52325D01*
X46145Y-52405D02*
X70855Y-52405D01*
X46145Y-52485D02*
X70855Y-52485D01*
X46145Y-52565D02*
X70855Y-52565D01*
X46145Y-52645D02*
X70855Y-52645D01*
X46145Y-52725D02*
X70855Y-52725D01*
X46145Y-52805D02*
X70855Y-52805D01*
X46145Y-52885D02*
X70855Y-52885D01*
X46145Y-52965D02*
X70855Y-52965D01*
X46145Y-53045D02*
X70855Y-53045D01*
X46145Y-53125D02*
X70855Y-53125D01*
X46145Y-53205D02*
X70855Y-53205D01*
X46145Y-53285D02*
X70855Y-53285D01*
X70855Y-53355D02*
X70855Y-28645D01*
X46145Y-28645D01*
X46145Y-53355D01*
X54821Y-53355D01*
X54821Y-41849D01*
X54766Y-41827D01*
X54724Y-41785D01*
X54701Y-41730D01*
X54701Y-41271D01*
X54723Y-41216D01*
X54765Y-41174D01*
X54820Y-41151D01*
X55579Y-41151D01*
X55634Y-41173D01*
X55657Y-41196D01*
X55657Y-40772D01*
X55569Y-40752D01*
X55517Y-40627D01*
X55505Y-40432D01*
X55569Y-40248D01*
X55657Y-40228D01*
X55929Y-40500D01*
X55657Y-40772D01*
X55657Y-41196D01*
X55676Y-41215D01*
X55699Y-41270D01*
X55929Y-41500D01*
X55698Y-41730D01*
X55677Y-41784D01*
X55635Y-41826D01*
X55580Y-41849D01*
X54821Y-41849D01*
X54821Y-53355D01*
X55657Y-53355D01*
X55657Y-42772D01*
X55569Y-42752D01*
X55517Y-42627D01*
X55505Y-42432D01*
X55569Y-42248D01*
X55657Y-42228D01*
X55929Y-42500D01*
X55657Y-42772D01*
X55657Y-53355D01*
X55932Y-53355D01*
X55932Y-42995D01*
X55748Y-42931D01*
X55728Y-42843D01*
X56000Y-42571D01*
X56000Y-42429D01*
X55728Y-42157D01*
X55748Y-42069D01*
X55873Y-42017D01*
X55932Y-42013D01*
X55932Y-41995D01*
X55748Y-41931D01*
X55728Y-41843D01*
X56000Y-41571D01*
X56000Y-41429D01*
X55728Y-41157D01*
X55748Y-41069D01*
X55873Y-41017D01*
X55932Y-41013D01*
X55932Y-40995D01*
X55748Y-40931D01*
X55728Y-40843D01*
X56000Y-40571D01*
X56000Y-40429D01*
X55728Y-40157D01*
X55748Y-40069D01*
X55873Y-40017D01*
X55888Y-40016D01*
X55888Y-40000D01*
X55799Y-39999D01*
X55700Y-39999D01*
X55609Y-39961D01*
X55539Y-39891D01*
X55521Y-39849D01*
X54821Y-39849D01*
X54766Y-39827D01*
X54724Y-39785D01*
X54701Y-39730D01*
X54701Y-39271D01*
X54723Y-39216D01*
X54765Y-39174D01*
X54820Y-39151D01*
X55521Y-39151D01*
X55539Y-39109D01*
X55609Y-39039D01*
X55700Y-39001D01*
X55799Y-39001D01*
X55888Y-39000D01*
X55950Y-39062D01*
X55950Y-39450D01*
X55950Y-39550D01*
X55950Y-39938D01*
X55888Y-40000D01*
X55888Y-40016D01*
X56068Y-40005D01*
X56112Y-40020D01*
X56112Y-40000D01*
X56050Y-39938D01*
X56050Y-39550D01*
X56050Y-39450D01*
X56050Y-39062D01*
X56112Y-39000D01*
X56201Y-39001D01*
X56300Y-39001D01*
X56391Y-39039D01*
X56461Y-39109D01*
X56499Y-39201D01*
X56500Y-39388D01*
X56438Y-39450D01*
X56050Y-39450D01*
X56050Y-39550D01*
X56438Y-39550D01*
X56500Y-39612D01*
X56499Y-39799D01*
X56461Y-39891D01*
X56391Y-39961D01*
X56300Y-39999D01*
X56201Y-39999D01*
X56112Y-40000D01*
X56112Y-40020D01*
X56252Y-40069D01*
X56272Y-40157D01*
X56000Y-40429D01*
X56000Y-40571D01*
X56272Y-40843D01*
X56252Y-40931D01*
X56127Y-40983D01*
X55932Y-40995D01*
X55932Y-41013D01*
X56068Y-41005D01*
X56252Y-41069D01*
X56272Y-41157D01*
X56000Y-41429D01*
X56000Y-41571D01*
X56272Y-41843D01*
X56252Y-41931D01*
X56127Y-41983D01*
X55932Y-41995D01*
X55932Y-42013D01*
X56068Y-42005D01*
X56252Y-42069D01*
X56272Y-42157D01*
X56000Y-42429D01*
X56000Y-42571D01*
X56272Y-42843D01*
X56252Y-42931D01*
X56127Y-42983D01*
X55932Y-42995D01*
X55932Y-53355D01*
X56421Y-53355D01*
X56421Y-42849D01*
X56366Y-42827D01*
X56324Y-42785D01*
X56301Y-42730D01*
X56071Y-42500D01*
X56301Y-42269D01*
X56323Y-42216D01*
X56343Y-42196D01*
X56343Y-41772D01*
X56071Y-41500D01*
X56343Y-41228D01*
X56421Y-41245D01*
X56421Y-40849D01*
X56366Y-40827D01*
X56324Y-40785D01*
X56301Y-40730D01*
X56071Y-40500D01*
X56301Y-40269D01*
X56323Y-40216D01*
X56365Y-40174D01*
X56420Y-40151D01*
X57179Y-40151D01*
X57234Y-40173D01*
X57276Y-40215D01*
X57299Y-40270D01*
X57299Y-40729D01*
X57277Y-40784D01*
X57235Y-40826D01*
X57180Y-40849D01*
X56421Y-40849D01*
X56421Y-41245D01*
X56431Y-41248D01*
X56483Y-41373D01*
X56495Y-41568D01*
X56431Y-41752D01*
X56421Y-41754D01*
X56343Y-41772D01*
X56343Y-42196D01*
X56365Y-42174D01*
X56420Y-42151D01*
X57179Y-42151D01*
X57234Y-42173D01*
X57276Y-42215D01*
X57299Y-42270D01*
X57299Y-42729D01*
X57277Y-42784D01*
X57235Y-42826D01*
X57180Y-42849D01*
X56421Y-42849D01*
X56421Y-53355D01*
X59821Y-53355D01*
X59821Y-41849D01*
X59766Y-41827D01*
X59724Y-41785D01*
X59701Y-41730D01*
X59701Y-41271D01*
X59723Y-41216D01*
X59765Y-41174D01*
X59820Y-41151D01*
X60579Y-41151D01*
X60634Y-41173D01*
X60657Y-41195D01*
X60657Y-40772D01*
X60569Y-40752D01*
X60517Y-40627D01*
X60505Y-40432D01*
X60569Y-40248D01*
X60657Y-40228D01*
X60929Y-40500D01*
X60657Y-40772D01*
X60657Y-41195D01*
X60676Y-41215D01*
X60699Y-41270D01*
X60929Y-41500D01*
X60698Y-41730D01*
X60677Y-41784D01*
X60635Y-41826D01*
X60580Y-41849D01*
X59821Y-41849D01*
X59821Y-53355D01*
X60657Y-53355D01*
X60657Y-42772D01*
X60569Y-42752D01*
X60517Y-42627D01*
X60505Y-42432D01*
X60569Y-42248D01*
X60657Y-42228D01*
X60929Y-42500D01*
X60657Y-42772D01*
X60657Y-53355D01*
X60932Y-53355D01*
X60932Y-42995D01*
X60748Y-42931D01*
X60728Y-42843D01*
X61000Y-42571D01*
X61000Y-42429D01*
X60728Y-42157D01*
X60748Y-42069D01*
X60873Y-42017D01*
X60932Y-42013D01*
X60932Y-41995D01*
X60748Y-41931D01*
X60728Y-41843D01*
X61000Y-41571D01*
X61000Y-41429D01*
X60728Y-41157D01*
X60748Y-41069D01*
X60873Y-41017D01*
X60932Y-41013D01*
X60932Y-40995D01*
X60748Y-40931D01*
X60728Y-40843D01*
X61000Y-40571D01*
X61000Y-40429D01*
X60728Y-40157D01*
X60748Y-40069D01*
X60873Y-40017D01*
X60888Y-40016D01*
X60888Y-40000D01*
X60799Y-39999D01*
X60700Y-39999D01*
X60609Y-39961D01*
X60539Y-39891D01*
X60521Y-39849D01*
X59821Y-39849D01*
X59766Y-39827D01*
X59724Y-39785D01*
X59701Y-39730D01*
X59701Y-39271D01*
X59723Y-39216D01*
X59765Y-39174D01*
X59820Y-39151D01*
X60521Y-39151D01*
X60539Y-39109D01*
X60609Y-39039D01*
X60700Y-39001D01*
X60799Y-39001D01*
X60888Y-39000D01*
X60950Y-39062D01*
X60950Y-39450D01*
X60950Y-39550D01*
X60950Y-39938D01*
X60888Y-40000D01*
X60888Y-40016D01*
X61068Y-40005D01*
X61112Y-40020D01*
X61112Y-40000D01*
X61050Y-39938D01*
X61050Y-39550D01*
X61050Y-39450D01*
X61050Y-39062D01*
X61112Y-39000D01*
X61201Y-39001D01*
X61300Y-39001D01*
X61391Y-39039D01*
X61461Y-39109D01*
X61499Y-39201D01*
X61500Y-39388D01*
X61438Y-39450D01*
X61050Y-39450D01*
X61050Y-39550D01*
X61438Y-39550D01*
X61500Y-39612D01*
X61499Y-39799D01*
X61461Y-39891D01*
X61391Y-39961D01*
X61300Y-39999D01*
X61201Y-39999D01*
X61112Y-40000D01*
X61112Y-40020D01*
X61252Y-40069D01*
X61272Y-40157D01*
X61000Y-40429D01*
X61000Y-40571D01*
X61272Y-40843D01*
X61252Y-40931D01*
X61127Y-40983D01*
X60932Y-40995D01*
X60932Y-41013D01*
X61068Y-41005D01*
X61252Y-41069D01*
X61272Y-41157D01*
X61000Y-41429D01*
X61000Y-41571D01*
X61272Y-41843D01*
X61252Y-41931D01*
X61127Y-41983D01*
X60932Y-41995D01*
X60932Y-42013D01*
X61068Y-42005D01*
X61252Y-42069D01*
X61272Y-42157D01*
X61000Y-42429D01*
X61000Y-42571D01*
X61272Y-42843D01*
X61252Y-42931D01*
X61127Y-42983D01*
X60932Y-42995D01*
X60932Y-53355D01*
X61421Y-53355D01*
X61421Y-42849D01*
X61366Y-42827D01*
X61324Y-42785D01*
X61301Y-42730D01*
X61071Y-42500D01*
X61301Y-42269D01*
X61323Y-42216D01*
X61343Y-42196D01*
X61343Y-41772D01*
X61071Y-41500D01*
X61343Y-41228D01*
X61421Y-41245D01*
X61421Y-40849D01*
X61366Y-40827D01*
X61324Y-40785D01*
X61301Y-40730D01*
X61071Y-40500D01*
X61301Y-40269D01*
X61323Y-40216D01*
X61365Y-40174D01*
X61420Y-40151D01*
X62179Y-40151D01*
X62234Y-40173D01*
X62276Y-40215D01*
X62299Y-40270D01*
X62299Y-40729D01*
X62277Y-40784D01*
X62235Y-40826D01*
X62180Y-40849D01*
X61421Y-40849D01*
X61421Y-41245D01*
X61431Y-41248D01*
X61483Y-41373D01*
X61495Y-41568D01*
X61431Y-41752D01*
X61421Y-41754D01*
X61343Y-41772D01*
X61343Y-42196D01*
X61365Y-42174D01*
X61420Y-42151D01*
X62179Y-42151D01*
X62234Y-42173D01*
X62276Y-42215D01*
X62299Y-42270D01*
X62299Y-42729D01*
X62277Y-42784D01*
X62235Y-42826D01*
X62180Y-42849D01*
X61421Y-42849D01*
X61421Y-53355D01*
X63397Y-53355D01*
X63397Y-42515D01*
X63208Y-42436D01*
X63063Y-42291D01*
X62985Y-42102D01*
X62985Y-41897D01*
X63064Y-41708D01*
X63076Y-41696D01*
X63076Y-41354D01*
X62975Y-41320D01*
X62903Y-41144D01*
X62893Y-40905D01*
X62975Y-40680D01*
X63076Y-40646D01*
X63106Y-40676D01*
X63429Y-41000D01*
X63106Y-41323D01*
X63076Y-41354D01*
X63076Y-41696D01*
X63209Y-41563D01*
X63244Y-41548D01*
X63180Y-41525D01*
X63146Y-41424D01*
X63500Y-41071D01*
X63500Y-40929D01*
X63146Y-40576D01*
X63166Y-40514D01*
X63106Y-40514D01*
X63051Y-40492D01*
X63009Y-40450D01*
X62986Y-40395D01*
X62986Y-39606D01*
X63008Y-39551D01*
X63050Y-39509D01*
X63105Y-39486D01*
X63894Y-39486D01*
X63949Y-39508D01*
X63991Y-39550D01*
X64014Y-39605D01*
X64014Y-40394D01*
X63992Y-40449D01*
X63950Y-40491D01*
X63895Y-40514D01*
X63833Y-40514D01*
X63854Y-40576D01*
X63500Y-40929D01*
X63500Y-41071D01*
X63854Y-41424D01*
X63820Y-41525D01*
X63758Y-41550D01*
X63792Y-41564D01*
X63924Y-41696D01*
X63924Y-41354D01*
X63571Y-41000D01*
X63924Y-40646D01*
X64025Y-40680D01*
X64097Y-40856D01*
X64107Y-41095D01*
X64025Y-41320D01*
X63924Y-41354D01*
X63924Y-41696D01*
X63937Y-41709D01*
X64015Y-41898D01*
X64015Y-42103D01*
X63936Y-42292D01*
X63791Y-42437D01*
X63602Y-42515D01*
X63397Y-42515D01*
X63397Y-53355D01*
X70855Y-53355D01*
M02*
