G04 (created by PCBNEW-RS274X (20100406 SVN-R2509)-final) date Tue 04 May 2010 03:45:42 PM PDT*
G01*
G70*
G90*
%MOIN*%
G04 Gerber Fmt 3.4, Leading zero omitted, Abs format*
%FSLAX34Y34*%
G04 APERTURE LIST*
%ADD10C,0.001000*%
%ADD11C,0.009000*%
%ADD12R,0.108000X0.069000*%
%ADD13R,0.056000X0.056000*%
%ADD14C,0.056000*%
%ADD15C,0.079000*%
%ADD16R,0.079000X0.079000*%
G04 APERTURE END LIST*
G54D10*
G54D11*
X71000Y-28500D02*
X46000Y-28500D01*
X71000Y-53500D02*
X71000Y-28500D01*
X46000Y-53500D02*
X71000Y-53500D01*
X46000Y-28500D02*
X46000Y-53500D01*
G54D12*
X69750Y-51700D03*
X69750Y-52800D03*
X69750Y-49200D03*
X69750Y-50300D03*
X69750Y-46700D03*
X69750Y-47800D03*
X69750Y-44200D03*
X69750Y-45300D03*
X69750Y-41700D03*
X69750Y-42800D03*
X69750Y-39200D03*
X69750Y-40300D03*
X69750Y-36700D03*
X69750Y-37800D03*
X69750Y-34200D03*
X69750Y-35300D03*
X69750Y-31700D03*
X69750Y-32800D03*
X69750Y-29200D03*
X69750Y-30300D03*
X67250Y-51700D03*
X67250Y-52800D03*
X67250Y-49200D03*
X67250Y-50300D03*
X67250Y-46700D03*
X67250Y-47800D03*
X67250Y-44200D03*
X67250Y-45300D03*
X67250Y-41700D03*
X67250Y-42800D03*
X67250Y-39200D03*
X67250Y-40300D03*
X67250Y-36700D03*
X67250Y-37800D03*
X67250Y-34200D03*
X67250Y-35300D03*
X67250Y-31700D03*
X67250Y-32800D03*
X67250Y-29200D03*
X67250Y-30300D03*
X64750Y-51700D03*
X64750Y-52800D03*
X64750Y-49200D03*
X64750Y-50300D03*
X64750Y-46700D03*
X64750Y-47800D03*
X64750Y-44200D03*
X64750Y-45300D03*
X64750Y-41700D03*
X64750Y-42800D03*
X64750Y-39200D03*
X64750Y-40300D03*
X64750Y-36700D03*
X64750Y-37800D03*
X64750Y-34200D03*
X64750Y-35300D03*
X64750Y-31700D03*
X64750Y-32800D03*
X64750Y-29200D03*
X64750Y-30300D03*
X62250Y-51700D03*
X62250Y-52800D03*
X62250Y-49200D03*
X62250Y-50300D03*
X62250Y-46700D03*
X62250Y-47800D03*
X62250Y-44200D03*
X62250Y-45300D03*
X62250Y-41700D03*
X62250Y-42800D03*
X62250Y-39200D03*
X62250Y-40300D03*
X62250Y-36700D03*
X62250Y-37800D03*
X62250Y-34200D03*
X62250Y-35300D03*
X62250Y-31700D03*
X62250Y-32800D03*
X62250Y-29200D03*
X62250Y-30300D03*
X59750Y-51700D03*
X59750Y-52800D03*
X59750Y-49200D03*
X59750Y-50300D03*
X59750Y-46700D03*
X59750Y-47800D03*
X59750Y-44200D03*
X59750Y-45300D03*
X59750Y-41700D03*
X59750Y-42800D03*
X59750Y-39200D03*
X59750Y-40300D03*
X59750Y-36700D03*
X59750Y-37800D03*
X59750Y-34200D03*
X59750Y-35300D03*
X59750Y-31700D03*
X59750Y-32800D03*
X59750Y-29200D03*
X59750Y-30300D03*
X57250Y-51700D03*
X57250Y-52800D03*
X57250Y-49200D03*
X57250Y-50300D03*
X57250Y-46700D03*
X57250Y-47800D03*
X57250Y-44200D03*
X57250Y-45300D03*
X57250Y-41700D03*
X57250Y-42800D03*
X57250Y-39200D03*
X57250Y-40300D03*
X57250Y-36700D03*
X57250Y-37800D03*
X57250Y-34200D03*
X57250Y-35300D03*
X57250Y-31700D03*
X57250Y-32800D03*
X57250Y-29200D03*
X57250Y-30300D03*
X54750Y-51700D03*
X54750Y-52800D03*
X54750Y-49200D03*
X54750Y-50300D03*
X54750Y-46700D03*
X54750Y-47800D03*
X54750Y-44200D03*
X54750Y-45300D03*
X54750Y-41700D03*
X54750Y-42800D03*
X54750Y-39200D03*
X54750Y-40300D03*
X54750Y-36700D03*
X54750Y-37800D03*
X54750Y-34200D03*
X54750Y-35300D03*
X54750Y-31700D03*
X54750Y-32800D03*
X54750Y-29200D03*
X54750Y-30300D03*
X52250Y-51700D03*
X52250Y-52800D03*
X52250Y-49200D03*
X52250Y-50300D03*
X52250Y-46700D03*
X52250Y-47800D03*
X52250Y-44200D03*
X52250Y-45300D03*
X52250Y-41700D03*
X52250Y-42800D03*
X52250Y-39200D03*
X52250Y-40300D03*
X52250Y-36700D03*
X52250Y-37800D03*
X52250Y-34200D03*
X52250Y-35300D03*
X52250Y-31700D03*
X52250Y-32800D03*
X52250Y-29200D03*
X52250Y-30300D03*
X49750Y-51700D03*
X49750Y-52800D03*
X49750Y-49200D03*
X49750Y-50300D03*
X49750Y-46700D03*
X49750Y-47800D03*
X49750Y-44200D03*
X49750Y-45300D03*
X49750Y-41700D03*
X49750Y-42800D03*
X49750Y-39200D03*
X49750Y-40300D03*
X49750Y-36700D03*
X49750Y-37800D03*
X49750Y-34200D03*
X49750Y-35300D03*
X49750Y-31700D03*
X49750Y-32800D03*
X49750Y-29200D03*
X49750Y-30300D03*
X47250Y-51700D03*
X47250Y-52800D03*
X47250Y-49200D03*
X47250Y-50300D03*
X47250Y-46700D03*
X47250Y-47800D03*
X47250Y-44200D03*
X47250Y-45300D03*
X47250Y-41700D03*
X47250Y-42800D03*
X47250Y-39200D03*
X47250Y-40300D03*
X47250Y-36700D03*
X47250Y-37800D03*
X47250Y-34200D03*
X47250Y-35300D03*
X47250Y-31700D03*
X47250Y-32800D03*
X47250Y-29200D03*
X47250Y-30300D03*
G54D13*
X61000Y-39500D03*
G54D14*
X61000Y-40500D03*
X61000Y-41500D03*
X61000Y-42500D03*
G54D13*
X56000Y-39500D03*
G54D14*
X56000Y-40500D03*
X56000Y-41500D03*
X56000Y-42500D03*
G54D15*
X63500Y-41000D03*
X63500Y-42000D03*
G54D16*
X63500Y-40000D03*
M02*
