G04 (created by PCBNEW-RS274X (20100406 SVN-R2509)-final) date Tue 04 May 2010 03:45:42 PM PDT*
G01*
G70*
G90*
%MOIN*%
G04 Gerber Fmt 3.4, Leading zero omitted, Abs format*
%FSLAX34Y34*%
G04 APERTURE LIST*
%ADD10C,0.001000*%
%ADD11C,0.009000*%
%ADD12C,0.015000*%
G04 APERTURE END LIST*
G54D10*
G54D11*
X71000Y-28500D02*
X46000Y-28500D01*
X71000Y-53500D02*
X71000Y-28500D01*
X46000Y-53500D02*
X71000Y-53500D01*
X46000Y-28500D02*
X46000Y-53500D01*
G54D12*
X68650Y-52850D02*
X69050Y-53350D01*
X68650Y-51150D02*
X68650Y-53350D01*
X68650Y-53350D02*
X70850Y-53350D01*
X70850Y-53350D02*
X70850Y-51150D01*
X70850Y-51150D02*
X68650Y-51150D01*
X68650Y-50350D02*
X69050Y-50850D01*
X68650Y-48650D02*
X68650Y-50850D01*
X68650Y-50850D02*
X70850Y-50850D01*
X70850Y-50850D02*
X70850Y-48650D01*
X70850Y-48650D02*
X68650Y-48650D01*
X68650Y-47850D02*
X69050Y-48350D01*
X68650Y-46150D02*
X68650Y-48350D01*
X68650Y-48350D02*
X70850Y-48350D01*
X70850Y-48350D02*
X70850Y-46150D01*
X70850Y-46150D02*
X68650Y-46150D01*
X68650Y-45350D02*
X69050Y-45850D01*
X68650Y-43650D02*
X68650Y-45850D01*
X68650Y-45850D02*
X70850Y-45850D01*
X70850Y-45850D02*
X70850Y-43650D01*
X70850Y-43650D02*
X68650Y-43650D01*
X68650Y-42850D02*
X69050Y-43350D01*
X68650Y-41150D02*
X68650Y-43350D01*
X68650Y-43350D02*
X70850Y-43350D01*
X70850Y-43350D02*
X70850Y-41150D01*
X70850Y-41150D02*
X68650Y-41150D01*
X68650Y-40350D02*
X69050Y-40850D01*
X68650Y-38650D02*
X68650Y-40850D01*
X68650Y-40850D02*
X70850Y-40850D01*
X70850Y-40850D02*
X70850Y-38650D01*
X70850Y-38650D02*
X68650Y-38650D01*
X68650Y-37850D02*
X69050Y-38350D01*
X68650Y-36150D02*
X68650Y-38350D01*
X68650Y-38350D02*
X70850Y-38350D01*
X70850Y-38350D02*
X70850Y-36150D01*
X70850Y-36150D02*
X68650Y-36150D01*
X68650Y-35350D02*
X69050Y-35850D01*
X68650Y-33650D02*
X68650Y-35850D01*
X68650Y-35850D02*
X70850Y-35850D01*
X70850Y-35850D02*
X70850Y-33650D01*
X70850Y-33650D02*
X68650Y-33650D01*
X68650Y-32850D02*
X69050Y-33350D01*
X68650Y-31150D02*
X68650Y-33350D01*
X68650Y-33350D02*
X70850Y-33350D01*
X70850Y-33350D02*
X70850Y-31150D01*
X70850Y-31150D02*
X68650Y-31150D01*
X68650Y-30350D02*
X69050Y-30850D01*
X68650Y-28650D02*
X68650Y-30850D01*
X68650Y-30850D02*
X70850Y-30850D01*
X70850Y-30850D02*
X70850Y-28650D01*
X70850Y-28650D02*
X68650Y-28650D01*
X66150Y-52850D02*
X66550Y-53350D01*
X66150Y-51150D02*
X66150Y-53350D01*
X66150Y-53350D02*
X68350Y-53350D01*
X68350Y-53350D02*
X68350Y-51150D01*
X68350Y-51150D02*
X66150Y-51150D01*
X66150Y-50350D02*
X66550Y-50850D01*
X66150Y-48650D02*
X66150Y-50850D01*
X66150Y-50850D02*
X68350Y-50850D01*
X68350Y-50850D02*
X68350Y-48650D01*
X68350Y-48650D02*
X66150Y-48650D01*
X66150Y-47850D02*
X66550Y-48350D01*
X66150Y-46150D02*
X66150Y-48350D01*
X66150Y-48350D02*
X68350Y-48350D01*
X68350Y-48350D02*
X68350Y-46150D01*
X68350Y-46150D02*
X66150Y-46150D01*
X66150Y-45350D02*
X66550Y-45850D01*
X66150Y-43650D02*
X66150Y-45850D01*
X66150Y-45850D02*
X68350Y-45850D01*
X68350Y-45850D02*
X68350Y-43650D01*
X68350Y-43650D02*
X66150Y-43650D01*
X66150Y-42850D02*
X66550Y-43350D01*
X66150Y-41150D02*
X66150Y-43350D01*
X66150Y-43350D02*
X68350Y-43350D01*
X68350Y-43350D02*
X68350Y-41150D01*
X68350Y-41150D02*
X66150Y-41150D01*
X66150Y-40350D02*
X66550Y-40850D01*
X66150Y-38650D02*
X66150Y-40850D01*
X66150Y-40850D02*
X68350Y-40850D01*
X68350Y-40850D02*
X68350Y-38650D01*
X68350Y-38650D02*
X66150Y-38650D01*
X66150Y-37850D02*
X66550Y-38350D01*
X66150Y-36150D02*
X66150Y-38350D01*
X66150Y-38350D02*
X68350Y-38350D01*
X68350Y-38350D02*
X68350Y-36150D01*
X68350Y-36150D02*
X66150Y-36150D01*
X66150Y-35350D02*
X66550Y-35850D01*
X66150Y-33650D02*
X66150Y-35850D01*
X66150Y-35850D02*
X68350Y-35850D01*
X68350Y-35850D02*
X68350Y-33650D01*
X68350Y-33650D02*
X66150Y-33650D01*
X66150Y-32850D02*
X66550Y-33350D01*
X66150Y-31150D02*
X66150Y-33350D01*
X66150Y-33350D02*
X68350Y-33350D01*
X68350Y-33350D02*
X68350Y-31150D01*
X68350Y-31150D02*
X66150Y-31150D01*
X66150Y-30350D02*
X66550Y-30850D01*
X66150Y-28650D02*
X66150Y-30850D01*
X66150Y-30850D02*
X68350Y-30850D01*
X68350Y-30850D02*
X68350Y-28650D01*
X68350Y-28650D02*
X66150Y-28650D01*
X63650Y-52850D02*
X64050Y-53350D01*
X63650Y-51150D02*
X63650Y-53350D01*
X63650Y-53350D02*
X65850Y-53350D01*
X65850Y-53350D02*
X65850Y-51150D01*
X65850Y-51150D02*
X63650Y-51150D01*
X63650Y-50350D02*
X64050Y-50850D01*
X63650Y-48650D02*
X63650Y-50850D01*
X63650Y-50850D02*
X65850Y-50850D01*
X65850Y-50850D02*
X65850Y-48650D01*
X65850Y-48650D02*
X63650Y-48650D01*
X63650Y-47850D02*
X64050Y-48350D01*
X63650Y-46150D02*
X63650Y-48350D01*
X63650Y-48350D02*
X65850Y-48350D01*
X65850Y-48350D02*
X65850Y-46150D01*
X65850Y-46150D02*
X63650Y-46150D01*
X63650Y-45350D02*
X64050Y-45850D01*
X63650Y-43650D02*
X63650Y-45850D01*
X63650Y-45850D02*
X65850Y-45850D01*
X65850Y-45850D02*
X65850Y-43650D01*
X65850Y-43650D02*
X63650Y-43650D01*
X63650Y-42850D02*
X64050Y-43350D01*
X63650Y-41150D02*
X63650Y-43350D01*
X63650Y-43350D02*
X65850Y-43350D01*
X65850Y-43350D02*
X65850Y-41150D01*
X65850Y-41150D02*
X63650Y-41150D01*
X63650Y-40350D02*
X64050Y-40850D01*
X63650Y-38650D02*
X63650Y-40850D01*
X63650Y-40850D02*
X65850Y-40850D01*
X65850Y-40850D02*
X65850Y-38650D01*
X65850Y-38650D02*
X63650Y-38650D01*
X63650Y-37850D02*
X64050Y-38350D01*
X63650Y-36150D02*
X63650Y-38350D01*
X63650Y-38350D02*
X65850Y-38350D01*
X65850Y-38350D02*
X65850Y-36150D01*
X65850Y-36150D02*
X63650Y-36150D01*
X63650Y-35350D02*
X64050Y-35850D01*
X63650Y-33650D02*
X63650Y-35850D01*
X63650Y-35850D02*
X65850Y-35850D01*
X65850Y-35850D02*
X65850Y-33650D01*
X65850Y-33650D02*
X63650Y-33650D01*
X63650Y-32850D02*
X64050Y-33350D01*
X63650Y-31150D02*
X63650Y-33350D01*
X63650Y-33350D02*
X65850Y-33350D01*
X65850Y-33350D02*
X65850Y-31150D01*
X65850Y-31150D02*
X63650Y-31150D01*
X63650Y-30350D02*
X64050Y-30850D01*
X63650Y-28650D02*
X63650Y-30850D01*
X63650Y-30850D02*
X65850Y-30850D01*
X65850Y-30850D02*
X65850Y-28650D01*
X65850Y-28650D02*
X63650Y-28650D01*
X61150Y-52850D02*
X61550Y-53350D01*
X61150Y-51150D02*
X61150Y-53350D01*
X61150Y-53350D02*
X63350Y-53350D01*
X63350Y-53350D02*
X63350Y-51150D01*
X63350Y-51150D02*
X61150Y-51150D01*
X61150Y-50350D02*
X61550Y-50850D01*
X61150Y-48650D02*
X61150Y-50850D01*
X61150Y-50850D02*
X63350Y-50850D01*
X63350Y-50850D02*
X63350Y-48650D01*
X63350Y-48650D02*
X61150Y-48650D01*
X61150Y-47850D02*
X61550Y-48350D01*
X61150Y-46150D02*
X61150Y-48350D01*
X61150Y-48350D02*
X63350Y-48350D01*
X63350Y-48350D02*
X63350Y-46150D01*
X63350Y-46150D02*
X61150Y-46150D01*
X61150Y-45350D02*
X61550Y-45850D01*
X61150Y-43650D02*
X61150Y-45850D01*
X61150Y-45850D02*
X63350Y-45850D01*
X63350Y-45850D02*
X63350Y-43650D01*
X63350Y-43650D02*
X61150Y-43650D01*
X61150Y-42850D02*
X61550Y-43350D01*
X61150Y-41150D02*
X61150Y-43350D01*
X61150Y-43350D02*
X63350Y-43350D01*
X63350Y-43350D02*
X63350Y-41150D01*
X63350Y-41150D02*
X61150Y-41150D01*
X61150Y-40350D02*
X61550Y-40850D01*
X61150Y-38650D02*
X61150Y-40850D01*
X61150Y-40850D02*
X63350Y-40850D01*
X63350Y-40850D02*
X63350Y-38650D01*
X63350Y-38650D02*
X61150Y-38650D01*
X61150Y-37850D02*
X61550Y-38350D01*
X61150Y-36150D02*
X61150Y-38350D01*
X61150Y-38350D02*
X63350Y-38350D01*
X63350Y-38350D02*
X63350Y-36150D01*
X63350Y-36150D02*
X61150Y-36150D01*
X61150Y-35350D02*
X61550Y-35850D01*
X61150Y-33650D02*
X61150Y-35850D01*
X61150Y-35850D02*
X63350Y-35850D01*
X63350Y-35850D02*
X63350Y-33650D01*
X63350Y-33650D02*
X61150Y-33650D01*
X61150Y-32850D02*
X61550Y-33350D01*
X61150Y-31150D02*
X61150Y-33350D01*
X61150Y-33350D02*
X63350Y-33350D01*
X63350Y-33350D02*
X63350Y-31150D01*
X63350Y-31150D02*
X61150Y-31150D01*
X61150Y-30350D02*
X61550Y-30850D01*
X61150Y-28650D02*
X61150Y-30850D01*
X61150Y-30850D02*
X63350Y-30850D01*
X63350Y-30850D02*
X63350Y-28650D01*
X63350Y-28650D02*
X61150Y-28650D01*
X58650Y-52850D02*
X59050Y-53350D01*
X58650Y-51150D02*
X58650Y-53350D01*
X58650Y-53350D02*
X60850Y-53350D01*
X60850Y-53350D02*
X60850Y-51150D01*
X60850Y-51150D02*
X58650Y-51150D01*
X58650Y-50350D02*
X59050Y-50850D01*
X58650Y-48650D02*
X58650Y-50850D01*
X58650Y-50850D02*
X60850Y-50850D01*
X60850Y-50850D02*
X60850Y-48650D01*
X60850Y-48650D02*
X58650Y-48650D01*
X58650Y-47850D02*
X59050Y-48350D01*
X58650Y-46150D02*
X58650Y-48350D01*
X58650Y-48350D02*
X60850Y-48350D01*
X60850Y-48350D02*
X60850Y-46150D01*
X60850Y-46150D02*
X58650Y-46150D01*
X58650Y-45350D02*
X59050Y-45850D01*
X58650Y-43650D02*
X58650Y-45850D01*
X58650Y-45850D02*
X60850Y-45850D01*
X60850Y-45850D02*
X60850Y-43650D01*
X60850Y-43650D02*
X58650Y-43650D01*
X58650Y-42850D02*
X59050Y-43350D01*
X58650Y-41150D02*
X58650Y-43350D01*
X58650Y-43350D02*
X60850Y-43350D01*
X60850Y-43350D02*
X60850Y-41150D01*
X60850Y-41150D02*
X58650Y-41150D01*
X58650Y-40350D02*
X59050Y-40850D01*
X58650Y-38650D02*
X58650Y-40850D01*
X58650Y-40850D02*
X60850Y-40850D01*
X60850Y-40850D02*
X60850Y-38650D01*
X60850Y-38650D02*
X58650Y-38650D01*
X58650Y-37850D02*
X59050Y-38350D01*
X58650Y-36150D02*
X58650Y-38350D01*
X58650Y-38350D02*
X60850Y-38350D01*
X60850Y-38350D02*
X60850Y-36150D01*
X60850Y-36150D02*
X58650Y-36150D01*
X58650Y-35350D02*
X59050Y-35850D01*
X58650Y-33650D02*
X58650Y-35850D01*
X58650Y-35850D02*
X60850Y-35850D01*
X60850Y-35850D02*
X60850Y-33650D01*
X60850Y-33650D02*
X58650Y-33650D01*
X58650Y-32850D02*
X59050Y-33350D01*
X58650Y-31150D02*
X58650Y-33350D01*
X58650Y-33350D02*
X60850Y-33350D01*
X60850Y-33350D02*
X60850Y-31150D01*
X60850Y-31150D02*
X58650Y-31150D01*
X58650Y-30350D02*
X59050Y-30850D01*
X58650Y-28650D02*
X58650Y-30850D01*
X58650Y-30850D02*
X60850Y-30850D01*
X60850Y-30850D02*
X60850Y-28650D01*
X60850Y-28650D02*
X58650Y-28650D01*
X56150Y-52850D02*
X56550Y-53350D01*
X56150Y-51150D02*
X56150Y-53350D01*
X56150Y-53350D02*
X58350Y-53350D01*
X58350Y-53350D02*
X58350Y-51150D01*
X58350Y-51150D02*
X56150Y-51150D01*
X56150Y-50350D02*
X56550Y-50850D01*
X56150Y-48650D02*
X56150Y-50850D01*
X56150Y-50850D02*
X58350Y-50850D01*
X58350Y-50850D02*
X58350Y-48650D01*
X58350Y-48650D02*
X56150Y-48650D01*
X56150Y-47850D02*
X56550Y-48350D01*
X56150Y-46150D02*
X56150Y-48350D01*
X56150Y-48350D02*
X58350Y-48350D01*
X58350Y-48350D02*
X58350Y-46150D01*
X58350Y-46150D02*
X56150Y-46150D01*
X56150Y-45350D02*
X56550Y-45850D01*
X56150Y-43650D02*
X56150Y-45850D01*
X56150Y-45850D02*
X58350Y-45850D01*
X58350Y-45850D02*
X58350Y-43650D01*
X58350Y-43650D02*
X56150Y-43650D01*
X56150Y-42850D02*
X56550Y-43350D01*
X56150Y-41150D02*
X56150Y-43350D01*
X56150Y-43350D02*
X58350Y-43350D01*
X58350Y-43350D02*
X58350Y-41150D01*
X58350Y-41150D02*
X56150Y-41150D01*
X56150Y-40350D02*
X56550Y-40850D01*
X56150Y-38650D02*
X56150Y-40850D01*
X56150Y-40850D02*
X58350Y-40850D01*
X58350Y-40850D02*
X58350Y-38650D01*
X58350Y-38650D02*
X56150Y-38650D01*
X56150Y-37850D02*
X56550Y-38350D01*
X56150Y-36150D02*
X56150Y-38350D01*
X56150Y-38350D02*
X58350Y-38350D01*
X58350Y-38350D02*
X58350Y-36150D01*
X58350Y-36150D02*
X56150Y-36150D01*
X56150Y-35350D02*
X56550Y-35850D01*
X56150Y-33650D02*
X56150Y-35850D01*
X56150Y-35850D02*
X58350Y-35850D01*
X58350Y-35850D02*
X58350Y-33650D01*
X58350Y-33650D02*
X56150Y-33650D01*
X56150Y-32850D02*
X56550Y-33350D01*
X56150Y-31150D02*
X56150Y-33350D01*
X56150Y-33350D02*
X58350Y-33350D01*
X58350Y-33350D02*
X58350Y-31150D01*
X58350Y-31150D02*
X56150Y-31150D01*
X56150Y-30350D02*
X56550Y-30850D01*
X56150Y-28650D02*
X56150Y-30850D01*
X56150Y-30850D02*
X58350Y-30850D01*
X58350Y-30850D02*
X58350Y-28650D01*
X58350Y-28650D02*
X56150Y-28650D01*
X53650Y-52850D02*
X54050Y-53350D01*
X53650Y-51150D02*
X53650Y-53350D01*
X53650Y-53350D02*
X55850Y-53350D01*
X55850Y-53350D02*
X55850Y-51150D01*
X55850Y-51150D02*
X53650Y-51150D01*
X53650Y-50350D02*
X54050Y-50850D01*
X53650Y-48650D02*
X53650Y-50850D01*
X53650Y-50850D02*
X55850Y-50850D01*
X55850Y-50850D02*
X55850Y-48650D01*
X55850Y-48650D02*
X53650Y-48650D01*
X53650Y-47850D02*
X54050Y-48350D01*
X53650Y-46150D02*
X53650Y-48350D01*
X53650Y-48350D02*
X55850Y-48350D01*
X55850Y-48350D02*
X55850Y-46150D01*
X55850Y-46150D02*
X53650Y-46150D01*
X53650Y-45350D02*
X54050Y-45850D01*
X53650Y-43650D02*
X53650Y-45850D01*
X53650Y-45850D02*
X55850Y-45850D01*
X55850Y-45850D02*
X55850Y-43650D01*
X55850Y-43650D02*
X53650Y-43650D01*
X53650Y-42850D02*
X54050Y-43350D01*
X53650Y-41150D02*
X53650Y-43350D01*
X53650Y-43350D02*
X55850Y-43350D01*
X55850Y-43350D02*
X55850Y-41150D01*
X55850Y-41150D02*
X53650Y-41150D01*
X53650Y-40350D02*
X54050Y-40850D01*
X53650Y-38650D02*
X53650Y-40850D01*
X53650Y-40850D02*
X55850Y-40850D01*
X55850Y-40850D02*
X55850Y-38650D01*
X55850Y-38650D02*
X53650Y-38650D01*
X53650Y-37850D02*
X54050Y-38350D01*
X53650Y-36150D02*
X53650Y-38350D01*
X53650Y-38350D02*
X55850Y-38350D01*
X55850Y-38350D02*
X55850Y-36150D01*
X55850Y-36150D02*
X53650Y-36150D01*
X53650Y-35350D02*
X54050Y-35850D01*
X53650Y-33650D02*
X53650Y-35850D01*
X53650Y-35850D02*
X55850Y-35850D01*
X55850Y-35850D02*
X55850Y-33650D01*
X55850Y-33650D02*
X53650Y-33650D01*
X53650Y-32850D02*
X54050Y-33350D01*
X53650Y-31150D02*
X53650Y-33350D01*
X53650Y-33350D02*
X55850Y-33350D01*
X55850Y-33350D02*
X55850Y-31150D01*
X55850Y-31150D02*
X53650Y-31150D01*
X53650Y-30350D02*
X54050Y-30850D01*
X53650Y-28650D02*
X53650Y-30850D01*
X53650Y-30850D02*
X55850Y-30850D01*
X55850Y-30850D02*
X55850Y-28650D01*
X55850Y-28650D02*
X53650Y-28650D01*
X51150Y-52850D02*
X51550Y-53350D01*
X51150Y-51150D02*
X51150Y-53350D01*
X51150Y-53350D02*
X53350Y-53350D01*
X53350Y-53350D02*
X53350Y-51150D01*
X53350Y-51150D02*
X51150Y-51150D01*
X51150Y-50350D02*
X51550Y-50850D01*
X51150Y-48650D02*
X51150Y-50850D01*
X51150Y-50850D02*
X53350Y-50850D01*
X53350Y-50850D02*
X53350Y-48650D01*
X53350Y-48650D02*
X51150Y-48650D01*
X51150Y-47850D02*
X51550Y-48350D01*
X51150Y-46150D02*
X51150Y-48350D01*
X51150Y-48350D02*
X53350Y-48350D01*
X53350Y-48350D02*
X53350Y-46150D01*
X53350Y-46150D02*
X51150Y-46150D01*
X51150Y-45350D02*
X51550Y-45850D01*
X51150Y-43650D02*
X51150Y-45850D01*
X51150Y-45850D02*
X53350Y-45850D01*
X53350Y-45850D02*
X53350Y-43650D01*
X53350Y-43650D02*
X51150Y-43650D01*
X51150Y-42850D02*
X51550Y-43350D01*
X51150Y-41150D02*
X51150Y-43350D01*
X51150Y-43350D02*
X53350Y-43350D01*
X53350Y-43350D02*
X53350Y-41150D01*
X53350Y-41150D02*
X51150Y-41150D01*
X51150Y-40350D02*
X51550Y-40850D01*
X51150Y-38650D02*
X51150Y-40850D01*
X51150Y-40850D02*
X53350Y-40850D01*
X53350Y-40850D02*
X53350Y-38650D01*
X53350Y-38650D02*
X51150Y-38650D01*
X51150Y-37850D02*
X51550Y-38350D01*
X51150Y-36150D02*
X51150Y-38350D01*
X51150Y-38350D02*
X53350Y-38350D01*
X53350Y-38350D02*
X53350Y-36150D01*
X53350Y-36150D02*
X51150Y-36150D01*
X51150Y-35350D02*
X51550Y-35850D01*
X51150Y-33650D02*
X51150Y-35850D01*
X51150Y-35850D02*
X53350Y-35850D01*
X53350Y-35850D02*
X53350Y-33650D01*
X53350Y-33650D02*
X51150Y-33650D01*
X51150Y-32850D02*
X51550Y-33350D01*
X51150Y-31150D02*
X51150Y-33350D01*
X51150Y-33350D02*
X53350Y-33350D01*
X53350Y-33350D02*
X53350Y-31150D01*
X53350Y-31150D02*
X51150Y-31150D01*
X51150Y-30350D02*
X51550Y-30850D01*
X51150Y-28650D02*
X51150Y-30850D01*
X51150Y-30850D02*
X53350Y-30850D01*
X53350Y-30850D02*
X53350Y-28650D01*
X53350Y-28650D02*
X51150Y-28650D01*
X48650Y-52850D02*
X49050Y-53350D01*
X48650Y-51150D02*
X48650Y-53350D01*
X48650Y-53350D02*
X50850Y-53350D01*
X50850Y-53350D02*
X50850Y-51150D01*
X50850Y-51150D02*
X48650Y-51150D01*
X48650Y-50350D02*
X49050Y-50850D01*
X48650Y-48650D02*
X48650Y-50850D01*
X48650Y-50850D02*
X50850Y-50850D01*
X50850Y-50850D02*
X50850Y-48650D01*
X50850Y-48650D02*
X48650Y-48650D01*
X48650Y-47850D02*
X49050Y-48350D01*
X48650Y-46150D02*
X48650Y-48350D01*
X48650Y-48350D02*
X50850Y-48350D01*
X50850Y-48350D02*
X50850Y-46150D01*
X50850Y-46150D02*
X48650Y-46150D01*
X48650Y-45350D02*
X49050Y-45850D01*
X48650Y-43650D02*
X48650Y-45850D01*
X48650Y-45850D02*
X50850Y-45850D01*
X50850Y-45850D02*
X50850Y-43650D01*
X50850Y-43650D02*
X48650Y-43650D01*
X48650Y-42850D02*
X49050Y-43350D01*
X48650Y-41150D02*
X48650Y-43350D01*
X48650Y-43350D02*
X50850Y-43350D01*
X50850Y-43350D02*
X50850Y-41150D01*
X50850Y-41150D02*
X48650Y-41150D01*
X48650Y-40350D02*
X49050Y-40850D01*
X48650Y-38650D02*
X48650Y-40850D01*
X48650Y-40850D02*
X50850Y-40850D01*
X50850Y-40850D02*
X50850Y-38650D01*
X50850Y-38650D02*
X48650Y-38650D01*
X48650Y-37850D02*
X49050Y-38350D01*
X48650Y-36150D02*
X48650Y-38350D01*
X48650Y-38350D02*
X50850Y-38350D01*
X50850Y-38350D02*
X50850Y-36150D01*
X50850Y-36150D02*
X48650Y-36150D01*
X48650Y-35350D02*
X49050Y-35850D01*
X48650Y-33650D02*
X48650Y-35850D01*
X48650Y-35850D02*
X50850Y-35850D01*
X50850Y-35850D02*
X50850Y-33650D01*
X50850Y-33650D02*
X48650Y-33650D01*
X48650Y-32850D02*
X49050Y-33350D01*
X48650Y-31150D02*
X48650Y-33350D01*
X48650Y-33350D02*
X50850Y-33350D01*
X50850Y-33350D02*
X50850Y-31150D01*
X50850Y-31150D02*
X48650Y-31150D01*
X48650Y-30350D02*
X49050Y-30850D01*
X48650Y-28650D02*
X48650Y-30850D01*
X48650Y-30850D02*
X50850Y-30850D01*
X50850Y-30850D02*
X50850Y-28650D01*
X50850Y-28650D02*
X48650Y-28650D01*
X46150Y-52850D02*
X46550Y-53350D01*
X46150Y-51150D02*
X46150Y-53350D01*
X46150Y-53350D02*
X48350Y-53350D01*
X48350Y-53350D02*
X48350Y-51150D01*
X48350Y-51150D02*
X46150Y-51150D01*
X46150Y-50350D02*
X46550Y-50850D01*
X46150Y-48650D02*
X46150Y-50850D01*
X46150Y-50850D02*
X48350Y-50850D01*
X48350Y-50850D02*
X48350Y-48650D01*
X48350Y-48650D02*
X46150Y-48650D01*
X46150Y-47850D02*
X46550Y-48350D01*
X46150Y-46150D02*
X46150Y-48350D01*
X46150Y-48350D02*
X48350Y-48350D01*
X48350Y-48350D02*
X48350Y-46150D01*
X48350Y-46150D02*
X46150Y-46150D01*
X46150Y-45350D02*
X46550Y-45850D01*
X46150Y-43650D02*
X46150Y-45850D01*
X46150Y-45850D02*
X48350Y-45850D01*
X48350Y-45850D02*
X48350Y-43650D01*
X48350Y-43650D02*
X46150Y-43650D01*
X46150Y-42850D02*
X46550Y-43350D01*
X46150Y-41150D02*
X46150Y-43350D01*
X46150Y-43350D02*
X48350Y-43350D01*
X48350Y-43350D02*
X48350Y-41150D01*
X48350Y-41150D02*
X46150Y-41150D01*
X46150Y-40350D02*
X46550Y-40850D01*
X46150Y-38650D02*
X46150Y-40850D01*
X46150Y-40850D02*
X48350Y-40850D01*
X48350Y-40850D02*
X48350Y-38650D01*
X48350Y-38650D02*
X46150Y-38650D01*
X46150Y-37850D02*
X46550Y-38350D01*
X46150Y-36150D02*
X46150Y-38350D01*
X46150Y-38350D02*
X48350Y-38350D01*
X48350Y-38350D02*
X48350Y-36150D01*
X48350Y-36150D02*
X46150Y-36150D01*
X46150Y-35350D02*
X46550Y-35850D01*
X46150Y-33650D02*
X46150Y-35850D01*
X46150Y-35850D02*
X48350Y-35850D01*
X48350Y-35850D02*
X48350Y-33650D01*
X48350Y-33650D02*
X46150Y-33650D01*
X46150Y-32850D02*
X46550Y-33350D01*
X46150Y-31150D02*
X46150Y-33350D01*
X46150Y-33350D02*
X48350Y-33350D01*
X48350Y-33350D02*
X48350Y-31150D01*
X48350Y-31150D02*
X46150Y-31150D01*
X46150Y-30350D02*
X46550Y-30850D01*
X46150Y-28650D02*
X46150Y-30850D01*
X46150Y-30850D02*
X48350Y-30850D01*
X48350Y-30850D02*
X48350Y-28650D01*
X48350Y-28650D02*
X46150Y-28650D01*
M02*
