G04 (created by PCBnew (20090216-final)) date Fri 26 Feb 2010 04:38:52 PM PST*
G01*
G70*
G90*
%MOIN*%
G04 Gerber Fmt 3.4, Leading zero omitted, Abs format*
%FSLAX34Y34*%
G04 APERTURE LIST*
%ADD10C,0.009000*%
%ADD11C,0.073000*%
%ADD12R,0.073000X0.073000*%
%ADD13C,0.053000*%
%ADD14R,0.050000X0.100000*%
%ADD15R,0.035000X0.085000*%
%ADD16C,0.080000*%
%ADD17C,0.078000*%
%ADD18C,0.260000*%
%ADD19C,0.140000*%
%ADD20C,0.150000*%
%ADD21C,0.086000*%
%ADD22C,0.077800*%
%ADD23C,0.006000*%
%ADD24R,0.055000X0.098000*%
%ADD25R,0.070000X0.135000*%
%ADD26C,0.009000*%
%ADD27C,0.005000*%
%ADD28C,0.015000*%
%ADD29C,0.010000*%
%ADD30C,0.012000*%
%ADD31C,0.093000*%
%ADD32R,0.093000X0.093000*%
%ADD33R,0.070000X0.120000*%
%ADD34R,0.055000X0.105000*%
%ADD35C,0.100000*%
%ADD36C,0.098000*%
%ADD37C,0.280000*%
%ADD38C,0.160000*%
%ADD39C,0.170000*%
%ADD40R,0.075000X0.118000*%
%ADD41R,0.090000X0.155000*%
%ADD42C,0.079000*%
%ADD43R,0.079000X0.079000*%
%ADD44C,0.059000*%
%ADD45R,0.056000X0.106000*%
%ADD46R,0.041000X0.091000*%
%ADD47C,0.086000*%
%ADD48C,0.084000*%
%ADD49C,0.266000*%
%ADD50C,0.146000*%
%ADD51C,0.156000*%
%ADD52R,0.061000X0.104000*%
%ADD53R,0.076000X0.141000*%
G04 APERTURE END LIST*
G54D10*
X64000Y-31000D02*
X51500Y-31000D01*
X64000Y-61000D02*
X64000Y-31000D01*
X51500Y-61000D02*
X64000Y-61000D01*
X51500Y-31000D02*
X51500Y-61000D01*
G54D42*
X57250Y-32750D03*
G54D43*
X58250Y-32750D03*
G54D44*
X58250Y-31750D03*
X57250Y-31750D03*
G54D45*
X58350Y-39750D03*
X57150Y-39750D03*
G54D46*
X57250Y-37250D03*
X57250Y-34750D03*
X58250Y-37250D03*
X58250Y-34750D03*
G54D47*
X62750Y-50500D03*
X62750Y-52500D03*
G54D48*
X56250Y-43500D03*
X57250Y-43500D03*
X58250Y-43500D03*
X59250Y-43500D03*
X55250Y-43500D03*
X53250Y-43500D03*
G54D49*
X54250Y-46000D03*
G54D42*
X62750Y-46000D03*
X62750Y-47000D03*
G54D43*
X62750Y-45000D03*
G54D47*
X56270Y-58500D03*
X57750Y-58500D03*
X59230Y-58500D03*
G54D50*
X55190Y-59680D03*
X60310Y-59680D03*
X55250Y-54560D03*
X60250Y-54560D03*
G54D51*
X62750Y-36000D03*
X52750Y-36000D03*
X52750Y-56000D03*
X62750Y-56000D03*
X52750Y-32250D03*
X62750Y-32250D03*
X52750Y-59750D03*
X62750Y-59750D03*
M02*
