G04 (created by PCBnew (20090216-final)) date Fri 26 Feb 2010 04:38:52 PM PST*
G01*
G70*
G90*
%MOIN*%
G04 Gerber Fmt 3.4, Leading zero omitted, Abs format*
%FSLAX34Y34*%
G04 APERTURE LIST*
%ADD10C,0.009000*%
%ADD11C,0.073000*%
%ADD12R,0.073000X0.073000*%
%ADD13C,0.053000*%
%ADD14R,0.050000X0.100000*%
%ADD15R,0.035000X0.085000*%
%ADD16C,0.080000*%
%ADD17C,0.078000*%
%ADD18C,0.260000*%
%ADD19C,0.140000*%
%ADD20C,0.150000*%
%ADD21C,0.086000*%
%ADD22C,0.077800*%
%ADD23C,0.006000*%
%ADD24R,0.055000X0.098000*%
%ADD25R,0.070000X0.135000*%
%ADD26C,0.009000*%
%ADD27C,0.005000*%
%ADD28C,0.015000*%
%ADD29C,0.010000*%
%ADD30C,0.012000*%
%ADD31C,0.093000*%
%ADD32R,0.093000X0.093000*%
%ADD33R,0.070000X0.120000*%
%ADD34R,0.055000X0.105000*%
%ADD35C,0.100000*%
%ADD36C,0.098000*%
%ADD37C,0.280000*%
%ADD38C,0.160000*%
%ADD39C,0.170000*%
%ADD40R,0.075000X0.118000*%
%ADD41R,0.090000X0.155000*%
%ADD42C,0.079000*%
%ADD43R,0.079000X0.079000*%
%ADD44C,0.059000*%
%ADD45R,0.056000X0.106000*%
%ADD46R,0.041000X0.091000*%
%ADD47C,0.086000*%
%ADD48C,0.084000*%
%ADD49C,0.266000*%
%ADD50C,0.146000*%
%ADD51C,0.156000*%
%ADD52R,0.061000X0.104000*%
%ADD53R,0.076000X0.141000*%
G04 APERTURE END LIST*
G54D10*
X64000Y-31000D02*
X51500Y-31000D01*
X64000Y-61000D02*
X64000Y-31000D01*
X51500Y-61000D02*
X64000Y-61000D01*
X51500Y-31000D02*
X51500Y-61000D01*
G54D11*
X57250Y-32750D03*
G54D12*
X58250Y-32750D03*
G54D13*
X58250Y-31750D03*
X57250Y-31750D03*
G54D24*
X58710Y-39750D03*
X56790Y-39750D03*
G54D25*
X52750Y-39750D03*
X62750Y-39750D03*
G54D16*
X62750Y-50500D03*
X62750Y-52500D03*
G54D17*
X56250Y-43500D03*
X57250Y-43500D03*
X58250Y-43500D03*
X59250Y-43500D03*
X55250Y-43500D03*
X53250Y-43500D03*
G54D18*
X54250Y-46000D03*
G54D11*
X62750Y-46000D03*
X62750Y-47000D03*
G54D12*
X62750Y-45000D03*
G54D16*
X56270Y-58500D03*
X57750Y-58500D03*
X59230Y-58500D03*
G54D19*
X55190Y-59680D03*
X60310Y-59680D03*
X55250Y-54560D03*
X60250Y-54560D03*
G54D20*
X62750Y-36000D03*
X52750Y-36000D03*
X52750Y-56000D03*
X62750Y-56000D03*
X52750Y-32250D03*
X62750Y-32250D03*
X52750Y-59750D03*
X62750Y-59750D03*
G54D21*
X62750Y-45000D02*
X62750Y-39750D01*
X58710Y-39750D02*
X59845Y-39750D01*
X62750Y-39750D02*
X59845Y-39750D01*
X52750Y-39750D02*
X53960Y-39750D01*
X59250Y-42210D02*
X56790Y-39750D01*
X59250Y-43500D02*
X59250Y-42210D01*
X56790Y-39750D02*
X53960Y-39750D01*
X61901Y-50500D02*
X62750Y-50500D01*
X56270Y-56131D02*
X61901Y-50500D01*
X56270Y-58500D02*
X56270Y-56131D01*
G54D29*
X51645Y-60825D02*
X63855Y-60825D01*
X51645Y-60745D02*
X63855Y-60745D01*
X51645Y-60665D02*
X63855Y-60665D01*
X63085Y-60585D02*
X63855Y-60585D01*
X53085Y-60585D02*
X62414Y-60585D01*
X51645Y-60585D02*
X52414Y-60585D01*
X63267Y-60505D02*
X63855Y-60505D01*
X60538Y-60505D02*
X62232Y-60505D01*
X55418Y-60505D02*
X60080Y-60505D01*
X53267Y-60505D02*
X54960Y-60505D01*
X51645Y-60505D02*
X52232Y-60505D01*
X63347Y-60425D02*
X63855Y-60425D01*
X60731Y-60425D02*
X62152Y-60425D01*
X55611Y-60425D02*
X59888Y-60425D01*
X53347Y-60425D02*
X54768Y-60425D01*
X51645Y-60425D02*
X52152Y-60425D01*
X63427Y-60345D02*
X63855Y-60345D01*
X60846Y-60345D02*
X62072Y-60345D01*
X55726Y-60345D02*
X59773Y-60345D01*
X53427Y-60345D02*
X54653Y-60345D01*
X51645Y-60345D02*
X52072Y-60345D01*
X63507Y-60265D02*
X63855Y-60265D01*
X60926Y-60265D02*
X61992Y-60265D01*
X55806Y-60265D02*
X59693Y-60265D01*
X53507Y-60265D02*
X54573Y-60265D01*
X51645Y-60265D02*
X51992Y-60265D01*
X63543Y-60185D02*
X63855Y-60185D01*
X61006Y-60185D02*
X61956Y-60185D01*
X55886Y-60185D02*
X59613Y-60185D01*
X53543Y-60185D02*
X54493Y-60185D01*
X51645Y-60185D02*
X51956Y-60185D01*
X63577Y-60105D02*
X63855Y-60105D01*
X61053Y-60105D02*
X61923Y-60105D01*
X55933Y-60105D02*
X59566Y-60105D01*
X53577Y-60105D02*
X54446Y-60105D01*
X51645Y-60105D02*
X51923Y-60105D01*
X63610Y-60025D02*
X63855Y-60025D01*
X61087Y-60025D02*
X61890Y-60025D01*
X55967Y-60025D02*
X59533Y-60025D01*
X53610Y-60025D02*
X54413Y-60025D01*
X51645Y-60025D02*
X51890Y-60025D01*
X63643Y-59945D02*
X63855Y-59945D01*
X61120Y-59945D02*
X61857Y-59945D01*
X56000Y-59945D02*
X59500Y-59945D01*
X53643Y-59945D02*
X54380Y-59945D01*
X51645Y-59945D02*
X51857Y-59945D01*
X63650Y-59865D02*
X63855Y-59865D01*
X61153Y-59865D02*
X61850Y-59865D01*
X56033Y-59865D02*
X59467Y-59865D01*
X53650Y-59865D02*
X54347Y-59865D01*
X51645Y-59865D02*
X51850Y-59865D01*
X63650Y-59785D02*
X63855Y-59785D01*
X61160Y-59785D02*
X61850Y-59785D01*
X56040Y-59785D02*
X59460Y-59785D01*
X53650Y-59785D02*
X54340Y-59785D01*
X51645Y-59785D02*
X51850Y-59785D01*
X63650Y-59705D02*
X63855Y-59705D01*
X61160Y-59705D02*
X61850Y-59705D01*
X56040Y-59705D02*
X59460Y-59705D01*
X53650Y-59705D02*
X54340Y-59705D01*
X51645Y-59705D02*
X51850Y-59705D01*
X63650Y-59625D02*
X63855Y-59625D01*
X61160Y-59625D02*
X61850Y-59625D01*
X56040Y-59625D02*
X59460Y-59625D01*
X53650Y-59625D02*
X54340Y-59625D01*
X51645Y-59625D02*
X51850Y-59625D01*
X63639Y-59545D02*
X63855Y-59545D01*
X61160Y-59545D02*
X61861Y-59545D01*
X56040Y-59545D02*
X59460Y-59545D01*
X53639Y-59545D02*
X54340Y-59545D01*
X51645Y-59545D02*
X51861Y-59545D01*
X63606Y-59465D02*
X63855Y-59465D01*
X61141Y-59465D02*
X61894Y-59465D01*
X56021Y-59465D02*
X59479Y-59465D01*
X53606Y-59465D02*
X54359Y-59465D01*
X51645Y-59465D02*
X51894Y-59465D01*
X63573Y-59385D02*
X63855Y-59385D01*
X61108Y-59385D02*
X61928Y-59385D01*
X55988Y-59385D02*
X59513Y-59385D01*
X53573Y-59385D02*
X54393Y-59385D01*
X51645Y-59385D02*
X51928Y-59385D01*
X63540Y-59305D02*
X63855Y-59305D01*
X61075Y-59305D02*
X61961Y-59305D01*
X55955Y-59305D02*
X59546Y-59305D01*
X53540Y-59305D02*
X54426Y-59305D01*
X51645Y-59305D02*
X51961Y-59305D01*
X63498Y-59225D02*
X63855Y-59225D01*
X61042Y-59225D02*
X62003Y-59225D01*
X55922Y-59225D02*
X59579Y-59225D01*
X53498Y-59225D02*
X54459Y-59225D01*
X51645Y-59225D02*
X52003Y-59225D01*
X63418Y-59145D02*
X63855Y-59145D01*
X60977Y-59145D02*
X62083Y-59145D01*
X55857Y-59145D02*
X59644Y-59145D01*
X53418Y-59145D02*
X54524Y-59145D01*
X51645Y-59145D02*
X52083Y-59145D01*
X63338Y-59065D02*
X63855Y-59065D01*
X60897Y-59065D02*
X62163Y-59065D01*
X56345Y-59065D02*
X59724Y-59065D01*
X55777Y-59065D02*
X56194Y-59065D01*
X53338Y-59065D02*
X54604Y-59065D01*
X51645Y-59065D02*
X52163Y-59065D01*
X63254Y-58985D02*
X63855Y-58985D01*
X60817Y-58985D02*
X62246Y-58985D01*
X59492Y-58985D02*
X59804Y-58985D01*
X58012Y-58985D02*
X58967Y-58985D01*
X56568Y-58985D02*
X57487Y-58985D01*
X55697Y-58985D02*
X55971Y-58985D01*
X53254Y-58985D02*
X54684Y-58985D01*
X51645Y-58985D02*
X52246Y-58985D01*
X63062Y-58905D02*
X63855Y-58905D01*
X60660Y-58905D02*
X62438Y-58905D01*
X59601Y-58905D02*
X59960Y-58905D01*
X58121Y-58905D02*
X58859Y-58905D01*
X56683Y-58905D02*
X57379Y-58905D01*
X55540Y-58905D02*
X55856Y-58905D01*
X53062Y-58905D02*
X54841Y-58905D01*
X51645Y-58905D02*
X52438Y-58905D01*
X59681Y-58825D02*
X63855Y-58825D01*
X58201Y-58825D02*
X58779Y-58825D01*
X56736Y-58825D02*
X57299Y-58825D01*
X51645Y-58825D02*
X55803Y-58825D01*
X59722Y-58745D02*
X63855Y-58745D01*
X58242Y-58745D02*
X58737Y-58745D01*
X56790Y-58745D02*
X57257Y-58745D01*
X51645Y-58745D02*
X55749Y-58745D01*
X59755Y-58665D02*
X63855Y-58665D01*
X58275Y-58665D02*
X58704Y-58665D01*
X56817Y-58665D02*
X57224Y-58665D01*
X51645Y-58665D02*
X55722Y-58665D01*
X59779Y-58585D02*
X63855Y-58585D01*
X58299Y-58585D02*
X58681Y-58585D01*
X56833Y-58585D02*
X57201Y-58585D01*
X51645Y-58585D02*
X55706Y-58585D01*
X59779Y-58505D02*
X63855Y-58505D01*
X58299Y-58505D02*
X58681Y-58505D01*
X56849Y-58505D02*
X57201Y-58505D01*
X51645Y-58505D02*
X55690Y-58505D01*
X59779Y-58425D02*
X63855Y-58425D01*
X58299Y-58425D02*
X58681Y-58425D01*
X56850Y-58425D02*
X57201Y-58425D01*
X51645Y-58425D02*
X55690Y-58425D01*
X59760Y-58345D02*
X63855Y-58345D01*
X58280Y-58345D02*
X58701Y-58345D01*
X56850Y-58345D02*
X57221Y-58345D01*
X51645Y-58345D02*
X55690Y-58345D01*
X59727Y-58265D02*
X63855Y-58265D01*
X58247Y-58265D02*
X58734Y-58265D01*
X56850Y-58265D02*
X57254Y-58265D01*
X51645Y-58265D02*
X55690Y-58265D01*
X59691Y-58185D02*
X63855Y-58185D01*
X58211Y-58185D02*
X58769Y-58185D01*
X56850Y-58185D02*
X57289Y-58185D01*
X51645Y-58185D02*
X55690Y-58185D01*
X59611Y-58105D02*
X63855Y-58105D01*
X58131Y-58105D02*
X58849Y-58105D01*
X56850Y-58105D02*
X57369Y-58105D01*
X51645Y-58105D02*
X55690Y-58105D01*
X59517Y-58025D02*
X63855Y-58025D01*
X58037Y-58025D02*
X58944Y-58025D01*
X56850Y-58025D02*
X57464Y-58025D01*
X51645Y-58025D02*
X55690Y-58025D01*
X56850Y-57945D02*
X63855Y-57945D01*
X51645Y-57945D02*
X55690Y-57945D01*
X56850Y-57865D02*
X63855Y-57865D01*
X51645Y-57865D02*
X55690Y-57865D01*
X56850Y-57785D02*
X63855Y-57785D01*
X51645Y-57785D02*
X55690Y-57785D01*
X56850Y-57705D02*
X63855Y-57705D01*
X51645Y-57705D02*
X55690Y-57705D01*
X56850Y-57625D02*
X63855Y-57625D01*
X51645Y-57625D02*
X55690Y-57625D01*
X56850Y-57545D02*
X63855Y-57545D01*
X51645Y-57545D02*
X55690Y-57545D01*
X56850Y-57465D02*
X63855Y-57465D01*
X51645Y-57465D02*
X55690Y-57465D01*
X56850Y-57385D02*
X63855Y-57385D01*
X51645Y-57385D02*
X55690Y-57385D01*
X56850Y-57305D02*
X63855Y-57305D01*
X51645Y-57305D02*
X55690Y-57305D01*
X56850Y-57225D02*
X63855Y-57225D01*
X51645Y-57225D02*
X55690Y-57225D01*
X56850Y-57145D02*
X63855Y-57145D01*
X51645Y-57145D02*
X55690Y-57145D01*
X56850Y-57065D02*
X63855Y-57065D01*
X51645Y-57065D02*
X55690Y-57065D01*
X56850Y-56985D02*
X63855Y-56985D01*
X51645Y-56985D02*
X55690Y-56985D01*
X56850Y-56905D02*
X63855Y-56905D01*
X51645Y-56905D02*
X55690Y-56905D01*
X63109Y-56825D02*
X63855Y-56825D01*
X56850Y-56825D02*
X62390Y-56825D01*
X53109Y-56825D02*
X55690Y-56825D01*
X51645Y-56825D02*
X52390Y-56825D01*
X63277Y-56745D02*
X63855Y-56745D01*
X56850Y-56745D02*
X62222Y-56745D01*
X53277Y-56745D02*
X55690Y-56745D01*
X51645Y-56745D02*
X52222Y-56745D01*
X63357Y-56665D02*
X63855Y-56665D01*
X56850Y-56665D02*
X62142Y-56665D01*
X53357Y-56665D02*
X55690Y-56665D01*
X51645Y-56665D02*
X52142Y-56665D01*
X63437Y-56585D02*
X63855Y-56585D01*
X56850Y-56585D02*
X62062Y-56585D01*
X53437Y-56585D02*
X55690Y-56585D01*
X51645Y-56585D02*
X52062Y-56585D01*
X63514Y-56505D02*
X63855Y-56505D01*
X56850Y-56505D02*
X61985Y-56505D01*
X53514Y-56505D02*
X55690Y-56505D01*
X51645Y-56505D02*
X51985Y-56505D01*
X63547Y-56425D02*
X63855Y-56425D01*
X56850Y-56425D02*
X61952Y-56425D01*
X53547Y-56425D02*
X55690Y-56425D01*
X51645Y-56425D02*
X51952Y-56425D01*
X63581Y-56345D02*
X63855Y-56345D01*
X56875Y-56345D02*
X61919Y-56345D01*
X53581Y-56345D02*
X55690Y-56345D01*
X51645Y-56345D02*
X51919Y-56345D01*
X63614Y-56265D02*
X63855Y-56265D01*
X56955Y-56265D02*
X61886Y-56265D01*
X53614Y-56265D02*
X55690Y-56265D01*
X51645Y-56265D02*
X51886Y-56265D01*
X63647Y-56185D02*
X63855Y-56185D01*
X57035Y-56185D02*
X61852Y-56185D01*
X53647Y-56185D02*
X55690Y-56185D01*
X51645Y-56185D02*
X51852Y-56185D01*
X63650Y-56105D02*
X63855Y-56105D01*
X57115Y-56105D02*
X61850Y-56105D01*
X53650Y-56105D02*
X55696Y-56105D01*
X51645Y-56105D02*
X51850Y-56105D01*
X63650Y-56025D02*
X63855Y-56025D01*
X57195Y-56025D02*
X61850Y-56025D01*
X53650Y-56025D02*
X55712Y-56025D01*
X51645Y-56025D02*
X51850Y-56025D01*
X63650Y-55945D02*
X63855Y-55945D01*
X57275Y-55945D02*
X61850Y-55945D01*
X53650Y-55945D02*
X55727Y-55945D01*
X51645Y-55945D02*
X51850Y-55945D01*
X63650Y-55865D02*
X63855Y-55865D01*
X57355Y-55865D02*
X61850Y-55865D01*
X53650Y-55865D02*
X55764Y-55865D01*
X51645Y-55865D02*
X51850Y-55865D01*
X63635Y-55785D02*
X63855Y-55785D01*
X57435Y-55785D02*
X61865Y-55785D01*
X53635Y-55785D02*
X55818Y-55785D01*
X51645Y-55785D02*
X51865Y-55785D01*
X63602Y-55705D02*
X63855Y-55705D01*
X57515Y-55705D02*
X61898Y-55705D01*
X53602Y-55705D02*
X55876Y-55705D01*
X51645Y-55705D02*
X51898Y-55705D01*
X63569Y-55625D02*
X63855Y-55625D01*
X57595Y-55625D02*
X61932Y-55625D01*
X53569Y-55625D02*
X55956Y-55625D01*
X51645Y-55625D02*
X51932Y-55625D01*
X63536Y-55545D02*
X63855Y-55545D01*
X57675Y-55545D02*
X61965Y-55545D01*
X53536Y-55545D02*
X56036Y-55545D01*
X51645Y-55545D02*
X51965Y-55545D01*
X63488Y-55465D02*
X63855Y-55465D01*
X57755Y-55465D02*
X62013Y-55465D01*
X53488Y-55465D02*
X56116Y-55465D01*
X51645Y-55465D02*
X52013Y-55465D01*
X63408Y-55385D02*
X63855Y-55385D01*
X60478Y-55385D02*
X62093Y-55385D01*
X57835Y-55385D02*
X60020Y-55385D01*
X55478Y-55385D02*
X56196Y-55385D01*
X53408Y-55385D02*
X55020Y-55385D01*
X51645Y-55385D02*
X52093Y-55385D01*
X63328Y-55305D02*
X63855Y-55305D01*
X60671Y-55305D02*
X62173Y-55305D01*
X57915Y-55305D02*
X59828Y-55305D01*
X55671Y-55305D02*
X56276Y-55305D01*
X53328Y-55305D02*
X54828Y-55305D01*
X51645Y-55305D02*
X52173Y-55305D01*
X63230Y-55225D02*
X63855Y-55225D01*
X60786Y-55225D02*
X62270Y-55225D01*
X57995Y-55225D02*
X59713Y-55225D01*
X55786Y-55225D02*
X56356Y-55225D01*
X53230Y-55225D02*
X54713Y-55225D01*
X51645Y-55225D02*
X52270Y-55225D01*
X63038Y-55145D02*
X63855Y-55145D01*
X60866Y-55145D02*
X62464Y-55145D01*
X58075Y-55145D02*
X59633Y-55145D01*
X55866Y-55145D02*
X56436Y-55145D01*
X53038Y-55145D02*
X54633Y-55145D01*
X51645Y-55145D02*
X52464Y-55145D01*
X60946Y-55065D02*
X63855Y-55065D01*
X58155Y-55065D02*
X59553Y-55065D01*
X55946Y-55065D02*
X56516Y-55065D01*
X51645Y-55065D02*
X54553Y-55065D01*
X60993Y-54985D02*
X63855Y-54985D01*
X58235Y-54985D02*
X59506Y-54985D01*
X55993Y-54985D02*
X56596Y-54985D01*
X51645Y-54985D02*
X54506Y-54985D01*
X61027Y-54905D02*
X63855Y-54905D01*
X58315Y-54905D02*
X59473Y-54905D01*
X56027Y-54905D02*
X56676Y-54905D01*
X51645Y-54905D02*
X54473Y-54905D01*
X61060Y-54825D02*
X63855Y-54825D01*
X58395Y-54825D02*
X59440Y-54825D01*
X56060Y-54825D02*
X56756Y-54825D01*
X51645Y-54825D02*
X54440Y-54825D01*
X61093Y-54745D02*
X63855Y-54745D01*
X58475Y-54745D02*
X59407Y-54745D01*
X56093Y-54745D02*
X56836Y-54745D01*
X51645Y-54745D02*
X54407Y-54745D01*
X61100Y-54665D02*
X63855Y-54665D01*
X58555Y-54665D02*
X59400Y-54665D01*
X56100Y-54665D02*
X56916Y-54665D01*
X51645Y-54665D02*
X54400Y-54665D01*
X61100Y-54585D02*
X63855Y-54585D01*
X58635Y-54585D02*
X59400Y-54585D01*
X56100Y-54585D02*
X56996Y-54585D01*
X51645Y-54585D02*
X54400Y-54585D01*
X61100Y-54505D02*
X63855Y-54505D01*
X58715Y-54505D02*
X59400Y-54505D01*
X56100Y-54505D02*
X57076Y-54505D01*
X51645Y-54505D02*
X54400Y-54505D01*
X61100Y-54425D02*
X63855Y-54425D01*
X58795Y-54425D02*
X59400Y-54425D01*
X56100Y-54425D02*
X57156Y-54425D01*
X51645Y-54425D02*
X54400Y-54425D01*
X61081Y-54345D02*
X63855Y-54345D01*
X58875Y-54345D02*
X59419Y-54345D01*
X56081Y-54345D02*
X57236Y-54345D01*
X51645Y-54345D02*
X54419Y-54345D01*
X61048Y-54265D02*
X63855Y-54265D01*
X58955Y-54265D02*
X59453Y-54265D01*
X56048Y-54265D02*
X57316Y-54265D01*
X51645Y-54265D02*
X54453Y-54265D01*
X61015Y-54185D02*
X63855Y-54185D01*
X59035Y-54185D02*
X59486Y-54185D01*
X56015Y-54185D02*
X57396Y-54185D01*
X51645Y-54185D02*
X54486Y-54185D01*
X60982Y-54105D02*
X63855Y-54105D01*
X59115Y-54105D02*
X59519Y-54105D01*
X55982Y-54105D02*
X57476Y-54105D01*
X51645Y-54105D02*
X54519Y-54105D01*
X60917Y-54025D02*
X63855Y-54025D01*
X59195Y-54025D02*
X59584Y-54025D01*
X55917Y-54025D02*
X57556Y-54025D01*
X51645Y-54025D02*
X54584Y-54025D01*
X60837Y-53945D02*
X63855Y-53945D01*
X59275Y-53945D02*
X59664Y-53945D01*
X55837Y-53945D02*
X57636Y-53945D01*
X51645Y-53945D02*
X54664Y-53945D01*
X60757Y-53865D02*
X63855Y-53865D01*
X59355Y-53865D02*
X59744Y-53865D01*
X55757Y-53865D02*
X57716Y-53865D01*
X51645Y-53865D02*
X54744Y-53865D01*
X60600Y-53785D02*
X63855Y-53785D01*
X59435Y-53785D02*
X59901Y-53785D01*
X55600Y-53785D02*
X57796Y-53785D01*
X51645Y-53785D02*
X54901Y-53785D01*
X59515Y-53705D02*
X63855Y-53705D01*
X51645Y-53705D02*
X57876Y-53705D01*
X59595Y-53625D02*
X63855Y-53625D01*
X51645Y-53625D02*
X57956Y-53625D01*
X59675Y-53545D02*
X63855Y-53545D01*
X51645Y-53545D02*
X58036Y-53545D01*
X59755Y-53465D02*
X63855Y-53465D01*
X51645Y-53465D02*
X58116Y-53465D01*
X59835Y-53385D02*
X63855Y-53385D01*
X51645Y-53385D02*
X58196Y-53385D01*
X59915Y-53305D02*
X63855Y-53305D01*
X51645Y-53305D02*
X58276Y-53305D01*
X59995Y-53225D02*
X63855Y-53225D01*
X51645Y-53225D02*
X58356Y-53225D01*
X60075Y-53145D02*
X63855Y-53145D01*
X51645Y-53145D02*
X58436Y-53145D01*
X60155Y-53065D02*
X63855Y-53065D01*
X51645Y-53065D02*
X58516Y-53065D01*
X63012Y-52985D02*
X63855Y-52985D01*
X60235Y-52985D02*
X62487Y-52985D01*
X51645Y-52985D02*
X58596Y-52985D01*
X63121Y-52905D02*
X63855Y-52905D01*
X60315Y-52905D02*
X62379Y-52905D01*
X51645Y-52905D02*
X58676Y-52905D01*
X63201Y-52825D02*
X63855Y-52825D01*
X60395Y-52825D02*
X62299Y-52825D01*
X51645Y-52825D02*
X58756Y-52825D01*
X63242Y-52745D02*
X63855Y-52745D01*
X60475Y-52745D02*
X62257Y-52745D01*
X51645Y-52745D02*
X58836Y-52745D01*
X63275Y-52665D02*
X63855Y-52665D01*
X60555Y-52665D02*
X62224Y-52665D01*
X51645Y-52665D02*
X58916Y-52665D01*
X63299Y-52585D02*
X63855Y-52585D01*
X60635Y-52585D02*
X62201Y-52585D01*
X51645Y-52585D02*
X58996Y-52585D01*
X63299Y-52505D02*
X63855Y-52505D01*
X60715Y-52505D02*
X62201Y-52505D01*
X51645Y-52505D02*
X59076Y-52505D01*
X63299Y-52425D02*
X63855Y-52425D01*
X60795Y-52425D02*
X62201Y-52425D01*
X51645Y-52425D02*
X59156Y-52425D01*
X63280Y-52345D02*
X63855Y-52345D01*
X60875Y-52345D02*
X62221Y-52345D01*
X51645Y-52345D02*
X59236Y-52345D01*
X63247Y-52265D02*
X63855Y-52265D01*
X60955Y-52265D02*
X62254Y-52265D01*
X51645Y-52265D02*
X59316Y-52265D01*
X63211Y-52185D02*
X63855Y-52185D01*
X61035Y-52185D02*
X62289Y-52185D01*
X51645Y-52185D02*
X59396Y-52185D01*
X63131Y-52105D02*
X63855Y-52105D01*
X61115Y-52105D02*
X62369Y-52105D01*
X51645Y-52105D02*
X59476Y-52105D01*
X63037Y-52025D02*
X63855Y-52025D01*
X61195Y-52025D02*
X62464Y-52025D01*
X51645Y-52025D02*
X59556Y-52025D01*
X61275Y-51945D02*
X63855Y-51945D01*
X51645Y-51945D02*
X59636Y-51945D01*
X61355Y-51865D02*
X63855Y-51865D01*
X51645Y-51865D02*
X59716Y-51865D01*
X61435Y-51785D02*
X63855Y-51785D01*
X51645Y-51785D02*
X59796Y-51785D01*
X61515Y-51705D02*
X63855Y-51705D01*
X51645Y-51705D02*
X59876Y-51705D01*
X61595Y-51625D02*
X63855Y-51625D01*
X51645Y-51625D02*
X59956Y-51625D01*
X61675Y-51545D02*
X63855Y-51545D01*
X51645Y-51545D02*
X60036Y-51545D01*
X61755Y-51465D02*
X63855Y-51465D01*
X51645Y-51465D02*
X60116Y-51465D01*
X61835Y-51385D02*
X63855Y-51385D01*
X51645Y-51385D02*
X60196Y-51385D01*
X61915Y-51305D02*
X63855Y-51305D01*
X51645Y-51305D02*
X60276Y-51305D01*
X61995Y-51225D02*
X63855Y-51225D01*
X51645Y-51225D02*
X60356Y-51225D01*
X62075Y-51145D02*
X63855Y-51145D01*
X51645Y-51145D02*
X60436Y-51145D01*
X62825Y-51065D02*
X63855Y-51065D01*
X51645Y-51065D02*
X60516Y-51065D01*
X63048Y-50985D02*
X63855Y-50985D01*
X51645Y-50985D02*
X60596Y-50985D01*
X63163Y-50905D02*
X63855Y-50905D01*
X51645Y-50905D02*
X60676Y-50905D01*
X63216Y-50825D02*
X63855Y-50825D01*
X51645Y-50825D02*
X60756Y-50825D01*
X63270Y-50745D02*
X63855Y-50745D01*
X51645Y-50745D02*
X60836Y-50745D01*
X63297Y-50665D02*
X63855Y-50665D01*
X51645Y-50665D02*
X60916Y-50665D01*
X63313Y-50585D02*
X63855Y-50585D01*
X51645Y-50585D02*
X60996Y-50585D01*
X63329Y-50505D02*
X63855Y-50505D01*
X51645Y-50505D02*
X61076Y-50505D01*
X63316Y-50425D02*
X63855Y-50425D01*
X51645Y-50425D02*
X61156Y-50425D01*
X63300Y-50345D02*
X63855Y-50345D01*
X51645Y-50345D02*
X61236Y-50345D01*
X63278Y-50265D02*
X63855Y-50265D01*
X51645Y-50265D02*
X61316Y-50265D01*
X63224Y-50185D02*
X63855Y-50185D01*
X51645Y-50185D02*
X61396Y-50185D01*
X63171Y-50105D02*
X63855Y-50105D01*
X51645Y-50105D02*
X61476Y-50105D01*
X63064Y-50025D02*
X63855Y-50025D01*
X51645Y-50025D02*
X61588Y-50025D01*
X62877Y-49945D02*
X63855Y-49945D01*
X51645Y-49945D02*
X61775Y-49945D01*
X51645Y-49865D02*
X63855Y-49865D01*
X51645Y-49785D02*
X63855Y-49785D01*
X51645Y-49705D02*
X63855Y-49705D01*
X51645Y-49625D02*
X63855Y-49625D01*
X51645Y-49545D02*
X63855Y-49545D01*
X51645Y-49465D02*
X63855Y-49465D01*
X51645Y-49385D02*
X63855Y-49385D01*
X51645Y-49305D02*
X63855Y-49305D01*
X51645Y-49225D02*
X63855Y-49225D01*
X51645Y-49145D02*
X63855Y-49145D01*
X51645Y-49065D02*
X63855Y-49065D01*
X51645Y-48985D02*
X63855Y-48985D01*
X51645Y-48905D02*
X63855Y-48905D01*
X51645Y-48825D02*
X63855Y-48825D01*
X51645Y-48745D02*
X63855Y-48745D01*
X51645Y-48665D02*
X63855Y-48665D01*
X51645Y-48585D02*
X63855Y-48585D01*
X51645Y-48505D02*
X63855Y-48505D01*
X51645Y-48425D02*
X63855Y-48425D01*
X51645Y-48345D02*
X63855Y-48345D01*
X51645Y-48265D02*
X63855Y-48265D01*
X51645Y-48185D02*
X63855Y-48185D01*
X51645Y-48105D02*
X63855Y-48105D01*
X51645Y-48025D02*
X63855Y-48025D01*
X51645Y-47945D02*
X63855Y-47945D01*
X51645Y-47865D02*
X63855Y-47865D01*
X51645Y-47785D02*
X63855Y-47785D01*
X51645Y-47705D02*
X63855Y-47705D01*
X51645Y-47625D02*
X63855Y-47625D01*
X51645Y-47545D02*
X63855Y-47545D01*
X62973Y-47465D02*
X63855Y-47465D01*
X51645Y-47465D02*
X62527Y-47465D01*
X63093Y-47385D02*
X63855Y-47385D01*
X54694Y-47385D02*
X62407Y-47385D01*
X51645Y-47385D02*
X53805Y-47385D01*
X63173Y-47305D02*
X63855Y-47305D01*
X54888Y-47305D02*
X62327Y-47305D01*
X51645Y-47305D02*
X53613Y-47305D01*
X63214Y-47225D02*
X63855Y-47225D01*
X55075Y-47225D02*
X62285Y-47225D01*
X51645Y-47225D02*
X53425Y-47225D01*
X63247Y-47145D02*
X63855Y-47145D01*
X55155Y-47145D02*
X62252Y-47145D01*
X51645Y-47145D02*
X53345Y-47145D01*
X63265Y-47065D02*
X63855Y-47065D01*
X55235Y-47065D02*
X62235Y-47065D01*
X51645Y-47065D02*
X53265Y-47065D01*
X63265Y-46985D02*
X63855Y-46985D01*
X55315Y-46985D02*
X62235Y-46985D01*
X51645Y-46985D02*
X53185Y-46985D01*
X63265Y-46905D02*
X63855Y-46905D01*
X55395Y-46905D02*
X62235Y-46905D01*
X51645Y-46905D02*
X53105Y-46905D01*
X63235Y-46825D02*
X63855Y-46825D01*
X55475Y-46825D02*
X62266Y-46825D01*
X51645Y-46825D02*
X53025Y-46825D01*
X63202Y-46745D02*
X63855Y-46745D01*
X55509Y-46745D02*
X62299Y-46745D01*
X51645Y-46745D02*
X52989Y-46745D01*
X63144Y-46665D02*
X63855Y-46665D01*
X55543Y-46665D02*
X62357Y-46665D01*
X51645Y-46665D02*
X52956Y-46665D01*
X63064Y-46585D02*
X63855Y-46585D01*
X55576Y-46585D02*
X62437Y-46585D01*
X51645Y-46585D02*
X52923Y-46585D01*
X63076Y-46505D02*
X63855Y-46505D01*
X55609Y-46505D02*
X62423Y-46505D01*
X51645Y-46505D02*
X52889Y-46505D01*
X63103Y-46425D02*
X63855Y-46425D01*
X55642Y-46425D02*
X62396Y-46425D01*
X51645Y-46425D02*
X52856Y-46425D01*
X63200Y-46345D02*
X63855Y-46345D01*
X63025Y-46345D02*
X63165Y-46345D01*
X62334Y-46345D02*
X62476Y-46345D01*
X55676Y-46345D02*
X62299Y-46345D01*
X51645Y-46345D02*
X52823Y-46345D01*
X63295Y-46265D02*
X63855Y-46265D01*
X62945Y-46265D02*
X63085Y-46265D01*
X62414Y-46265D02*
X62556Y-46265D01*
X55699Y-46265D02*
X62202Y-46265D01*
X51645Y-46265D02*
X52801Y-46265D01*
X63324Y-46185D02*
X63855Y-46185D01*
X62865Y-46185D02*
X63005Y-46185D01*
X62494Y-46185D02*
X62636Y-46185D01*
X55699Y-46185D02*
X62169Y-46185D01*
X51645Y-46185D02*
X52801Y-46185D01*
X63353Y-46105D02*
X63855Y-46105D01*
X62785Y-46105D02*
X62925Y-46105D01*
X62574Y-46105D02*
X62716Y-46105D01*
X55699Y-46105D02*
X62151Y-46105D01*
X51645Y-46105D02*
X52801Y-46105D01*
X63355Y-46025D02*
X63855Y-46025D01*
X62654Y-46025D02*
X62845Y-46025D01*
X55699Y-46025D02*
X62148Y-46025D01*
X51645Y-46025D02*
X52801Y-46025D01*
X63351Y-45945D02*
X63855Y-45945D01*
X62625Y-45945D02*
X62876Y-45945D01*
X55699Y-45945D02*
X62144Y-45945D01*
X51645Y-45945D02*
X52801Y-45945D01*
X63348Y-45865D02*
X63855Y-45865D01*
X62814Y-45865D02*
X62956Y-45865D01*
X62545Y-45865D02*
X62685Y-45865D01*
X55699Y-45865D02*
X62158Y-45865D01*
X51645Y-45865D02*
X52801Y-45865D01*
X63318Y-45785D02*
X63855Y-45785D01*
X62894Y-45785D02*
X63036Y-45785D01*
X62465Y-45785D02*
X62605Y-45785D01*
X55699Y-45785D02*
X62187Y-45785D01*
X51645Y-45785D02*
X52801Y-45785D01*
X63286Y-45705D02*
X63855Y-45705D01*
X62974Y-45705D02*
X63116Y-45705D01*
X62385Y-45705D02*
X62525Y-45705D01*
X55697Y-45705D02*
X62216Y-45705D01*
X51645Y-45705D02*
X52804Y-45705D01*
X63054Y-45625D02*
X63855Y-45625D01*
X55664Y-45625D02*
X62445Y-45625D01*
X51645Y-45625D02*
X52837Y-45625D01*
X63094Y-45545D02*
X63855Y-45545D01*
X55631Y-45545D02*
X62406Y-45545D01*
X51645Y-45545D02*
X52870Y-45545D01*
X63226Y-45465D02*
X63855Y-45465D01*
X55598Y-45465D02*
X62274Y-45465D01*
X51645Y-45465D02*
X52903Y-45465D01*
X63264Y-45385D02*
X63855Y-45385D01*
X55565Y-45385D02*
X62236Y-45385D01*
X51645Y-45385D02*
X52936Y-45385D01*
X63264Y-45305D02*
X63855Y-45305D01*
X55532Y-45305D02*
X62236Y-45305D01*
X51645Y-45305D02*
X52970Y-45305D01*
X63283Y-45225D02*
X63855Y-45225D01*
X55499Y-45225D02*
X62216Y-45225D01*
X51645Y-45225D02*
X53003Y-45225D01*
X63301Y-45145D02*
X63855Y-45145D01*
X55445Y-45145D02*
X62198Y-45145D01*
X51645Y-45145D02*
X53055Y-45145D01*
X63317Y-45065D02*
X63855Y-45065D01*
X55365Y-45065D02*
X62182Y-45065D01*
X51645Y-45065D02*
X53135Y-45065D01*
X63330Y-44985D02*
X63855Y-44985D01*
X55285Y-44985D02*
X62170Y-44985D01*
X51645Y-44985D02*
X53215Y-44985D01*
X63330Y-44905D02*
X63855Y-44905D01*
X55205Y-44905D02*
X62170Y-44905D01*
X51645Y-44905D02*
X53295Y-44905D01*
X63330Y-44825D02*
X63855Y-44825D01*
X55125Y-44825D02*
X62170Y-44825D01*
X51645Y-44825D02*
X53375Y-44825D01*
X63330Y-44745D02*
X63855Y-44745D01*
X55008Y-44745D02*
X62170Y-44745D01*
X51645Y-44745D02*
X53491Y-44745D01*
X63330Y-44665D02*
X63855Y-44665D01*
X54815Y-44665D02*
X62170Y-44665D01*
X51645Y-44665D02*
X53683Y-44665D01*
X63330Y-44585D02*
X63855Y-44585D01*
X54622Y-44585D02*
X62170Y-44585D01*
X51645Y-44585D02*
X53878Y-44585D01*
X63330Y-44505D02*
X63855Y-44505D01*
X51645Y-44505D02*
X62170Y-44505D01*
X63330Y-44425D02*
X63855Y-44425D01*
X51645Y-44425D02*
X62170Y-44425D01*
X63330Y-44345D02*
X63855Y-44345D01*
X51645Y-44345D02*
X62170Y-44345D01*
X63330Y-44265D02*
X63855Y-44265D01*
X51645Y-44265D02*
X62170Y-44265D01*
X63330Y-44185D02*
X63855Y-44185D01*
X51645Y-44185D02*
X62170Y-44185D01*
X63330Y-44105D02*
X63855Y-44105D01*
X53441Y-44105D02*
X62170Y-44105D01*
X51645Y-44105D02*
X53077Y-44105D01*
X63330Y-44025D02*
X63855Y-44025D01*
X59488Y-44025D02*
X62170Y-44025D01*
X58393Y-44025D02*
X59011Y-44025D01*
X57393Y-44025D02*
X58106Y-44025D01*
X56393Y-44025D02*
X57106Y-44025D01*
X55393Y-44025D02*
X56106Y-44025D01*
X53591Y-44025D02*
X55106Y-44025D01*
X51645Y-44025D02*
X52908Y-44025D01*
X63330Y-43945D02*
X63855Y-43945D01*
X59607Y-43945D02*
X62170Y-43945D01*
X58568Y-43945D02*
X58892Y-43945D01*
X57568Y-43945D02*
X57931Y-43945D01*
X56568Y-43945D02*
X56931Y-43945D01*
X55568Y-43945D02*
X55931Y-43945D01*
X53619Y-43945D02*
X54931Y-43945D01*
X51645Y-43945D02*
X52880Y-43945D01*
X63330Y-43865D02*
X63855Y-43865D01*
X59690Y-43865D02*
X62170Y-43865D01*
X58648Y-43865D02*
X58809Y-43865D01*
X57648Y-43865D02*
X57851Y-43865D01*
X56648Y-43865D02*
X56851Y-43865D01*
X55648Y-43865D02*
X55851Y-43865D01*
X53708Y-43865D02*
X54851Y-43865D01*
X53544Y-43865D02*
X53686Y-43865D01*
X52814Y-43865D02*
X52956Y-43865D01*
X51645Y-43865D02*
X52791Y-43865D01*
X63330Y-43785D02*
X63855Y-43785D01*
X59743Y-43785D02*
X62170Y-43785D01*
X58715Y-43785D02*
X58756Y-43785D01*
X57715Y-43785D02*
X57783Y-43785D01*
X56715Y-43785D02*
X56783Y-43785D01*
X55715Y-43785D02*
X55783Y-43785D01*
X53813Y-43785D02*
X54783Y-43785D01*
X53464Y-43785D02*
X53606Y-43785D01*
X52894Y-43785D02*
X53036Y-43785D01*
X51645Y-43785D02*
X52684Y-43785D01*
X63330Y-43705D02*
X63855Y-43705D01*
X59789Y-43705D02*
X62170Y-43705D01*
X57748Y-43705D02*
X57749Y-43705D01*
X56748Y-43705D02*
X56749Y-43705D01*
X55748Y-43705D02*
X55749Y-43705D01*
X53842Y-43705D02*
X54750Y-43705D01*
X53384Y-43705D02*
X53526Y-43705D01*
X52974Y-43705D02*
X53116Y-43705D01*
X51645Y-43705D02*
X52650Y-43705D01*
X63330Y-43625D02*
X63855Y-43625D01*
X59805Y-43625D02*
X62170Y-43625D01*
X53872Y-43625D02*
X54717Y-43625D01*
X53304Y-43625D02*
X53446Y-43625D01*
X53054Y-43625D02*
X53196Y-43625D01*
X51645Y-43625D02*
X52626Y-43625D01*
X63330Y-43545D02*
X63855Y-43545D01*
X59821Y-43545D02*
X62170Y-43545D01*
X53881Y-43545D02*
X54710Y-43545D01*
X53134Y-43545D02*
X53366Y-43545D01*
X51645Y-43545D02*
X52623Y-43545D01*
X63330Y-43465D02*
X63855Y-43465D01*
X59830Y-43465D02*
X62170Y-43465D01*
X53878Y-43465D02*
X54710Y-43465D01*
X53144Y-43465D02*
X53356Y-43465D01*
X51645Y-43465D02*
X52620Y-43465D01*
X63330Y-43385D02*
X63855Y-43385D01*
X59830Y-43385D02*
X62170Y-43385D01*
X53875Y-43385D02*
X54713Y-43385D01*
X53294Y-43385D02*
X53436Y-43385D01*
X53064Y-43385D02*
X53206Y-43385D01*
X51645Y-43385D02*
X52624Y-43385D01*
X63330Y-43305D02*
X63855Y-43305D01*
X59830Y-43305D02*
X62170Y-43305D01*
X53854Y-43305D02*
X54747Y-43305D01*
X53374Y-43305D02*
X53516Y-43305D01*
X52984Y-43305D02*
X53126Y-43305D01*
X51645Y-43305D02*
X52654Y-43305D01*
X63330Y-43225D02*
X63855Y-43225D01*
X59830Y-43225D02*
X62170Y-43225D01*
X57721Y-43225D02*
X57780Y-43225D01*
X56721Y-43225D02*
X56780Y-43225D01*
X55721Y-43225D02*
X55780Y-43225D01*
X53820Y-43225D02*
X54781Y-43225D01*
X53454Y-43225D02*
X53596Y-43225D01*
X52904Y-43225D02*
X53046Y-43225D01*
X51645Y-43225D02*
X52684Y-43225D01*
X63330Y-43145D02*
X63855Y-43145D01*
X59830Y-43145D02*
X62170Y-43145D01*
X58659Y-43145D02*
X58670Y-43145D01*
X57659Y-43145D02*
X57842Y-43145D01*
X56659Y-43145D02*
X56842Y-43145D01*
X55659Y-43145D02*
X55842Y-43145D01*
X53737Y-43145D02*
X54842Y-43145D01*
X53534Y-43145D02*
X53676Y-43145D01*
X52824Y-43145D02*
X52966Y-43145D01*
X51645Y-43145D02*
X52764Y-43145D01*
X63330Y-43065D02*
X63855Y-43065D01*
X59830Y-43065D02*
X62170Y-43065D01*
X58579Y-43065D02*
X58670Y-43065D01*
X57579Y-43065D02*
X57922Y-43065D01*
X56579Y-43065D02*
X56922Y-43065D01*
X55579Y-43065D02*
X55922Y-43065D01*
X53614Y-43065D02*
X54922Y-43065D01*
X51645Y-43065D02*
X52886Y-43065D01*
X63330Y-42985D02*
X63855Y-42985D01*
X59830Y-42985D02*
X62170Y-42985D01*
X58418Y-42985D02*
X58670Y-42985D01*
X57418Y-42985D02*
X58083Y-42985D01*
X56418Y-42985D02*
X57083Y-42985D01*
X55418Y-42985D02*
X56083Y-42985D01*
X53595Y-42985D02*
X55083Y-42985D01*
X51645Y-42985D02*
X52906Y-42985D01*
X63330Y-42905D02*
X63855Y-42905D01*
X59830Y-42905D02*
X62170Y-42905D01*
X53450Y-42905D02*
X58670Y-42905D01*
X51645Y-42905D02*
X53035Y-42905D01*
X63330Y-42825D02*
X63855Y-42825D01*
X59830Y-42825D02*
X62170Y-42825D01*
X51645Y-42825D02*
X58670Y-42825D01*
X63330Y-42745D02*
X63855Y-42745D01*
X59830Y-42745D02*
X62170Y-42745D01*
X51645Y-42745D02*
X58670Y-42745D01*
X63330Y-42665D02*
X63855Y-42665D01*
X59830Y-42665D02*
X62170Y-42665D01*
X51645Y-42665D02*
X58670Y-42665D01*
X63330Y-42585D02*
X63855Y-42585D01*
X59830Y-42585D02*
X62170Y-42585D01*
X51645Y-42585D02*
X58670Y-42585D01*
X63330Y-42505D02*
X63855Y-42505D01*
X59830Y-42505D02*
X62170Y-42505D01*
X51645Y-42505D02*
X58670Y-42505D01*
X63330Y-42425D02*
X63855Y-42425D01*
X59830Y-42425D02*
X62170Y-42425D01*
X51645Y-42425D02*
X58644Y-42425D01*
X63330Y-42345D02*
X63855Y-42345D01*
X59830Y-42345D02*
X62170Y-42345D01*
X51645Y-42345D02*
X58564Y-42345D01*
X63330Y-42265D02*
X63855Y-42265D01*
X59830Y-42265D02*
X62170Y-42265D01*
X51645Y-42265D02*
X58484Y-42265D01*
X63330Y-42185D02*
X63855Y-42185D01*
X59826Y-42185D02*
X62170Y-42185D01*
X51645Y-42185D02*
X58404Y-42185D01*
X63330Y-42105D02*
X63855Y-42105D01*
X59810Y-42105D02*
X62170Y-42105D01*
X51645Y-42105D02*
X58324Y-42105D01*
X63330Y-42025D02*
X63855Y-42025D01*
X59794Y-42025D02*
X62170Y-42025D01*
X51645Y-42025D02*
X58244Y-42025D01*
X63330Y-41945D02*
X63855Y-41945D01*
X59758Y-41945D02*
X62170Y-41945D01*
X51645Y-41945D02*
X58164Y-41945D01*
X63330Y-41865D02*
X63855Y-41865D01*
X59704Y-41865D02*
X62170Y-41865D01*
X51645Y-41865D02*
X58084Y-41865D01*
X63330Y-41785D02*
X63855Y-41785D01*
X59645Y-41785D02*
X62170Y-41785D01*
X51645Y-41785D02*
X58004Y-41785D01*
X63330Y-41705D02*
X63855Y-41705D01*
X59565Y-41705D02*
X62170Y-41705D01*
X51645Y-41705D02*
X57924Y-41705D01*
X63330Y-41625D02*
X63855Y-41625D01*
X59485Y-41625D02*
X62170Y-41625D01*
X51645Y-41625D02*
X57844Y-41625D01*
X63330Y-41545D02*
X63855Y-41545D01*
X59405Y-41545D02*
X62170Y-41545D01*
X51645Y-41545D02*
X57764Y-41545D01*
X63330Y-41465D02*
X63855Y-41465D01*
X59325Y-41465D02*
X62170Y-41465D01*
X51645Y-41465D02*
X57684Y-41465D01*
X63330Y-41385D02*
X63855Y-41385D01*
X59245Y-41385D02*
X62170Y-41385D01*
X51645Y-41385D02*
X57604Y-41385D01*
X63330Y-41305D02*
X63855Y-41305D01*
X59165Y-41305D02*
X62170Y-41305D01*
X51645Y-41305D02*
X57524Y-41305D01*
X63330Y-41225D02*
X63855Y-41225D01*
X59085Y-41225D02*
X62170Y-41225D01*
X51645Y-41225D02*
X57444Y-41225D01*
X63330Y-41145D02*
X63855Y-41145D01*
X59005Y-41145D02*
X62170Y-41145D01*
X51645Y-41145D02*
X57364Y-41145D01*
X63330Y-41065D02*
X63855Y-41065D01*
X58925Y-41065D02*
X62170Y-41065D01*
X51645Y-41065D02*
X57284Y-41065D01*
X63330Y-40985D02*
X63855Y-40985D01*
X58845Y-40985D02*
X62170Y-40985D01*
X51645Y-40985D02*
X57204Y-40985D01*
X63330Y-40905D02*
X63855Y-40905D01*
X58765Y-40905D02*
X62170Y-40905D01*
X51645Y-40905D02*
X57124Y-40905D01*
X63330Y-40825D02*
X63855Y-40825D01*
X58685Y-40825D02*
X62170Y-40825D01*
X51645Y-40825D02*
X57044Y-40825D01*
X63330Y-40745D02*
X63855Y-40745D01*
X58605Y-40745D02*
X62170Y-40745D01*
X51645Y-40745D02*
X56964Y-40745D01*
X63330Y-40665D02*
X63855Y-40665D01*
X58525Y-40665D02*
X62170Y-40665D01*
X51645Y-40665D02*
X56884Y-40665D01*
X63330Y-40585D02*
X63855Y-40585D01*
X58445Y-40585D02*
X62170Y-40585D01*
X51645Y-40585D02*
X56804Y-40585D01*
X63330Y-40505D02*
X63855Y-40505D01*
X58365Y-40505D02*
X62170Y-40505D01*
X53228Y-40505D02*
X56724Y-40505D01*
X51645Y-40505D02*
X52271Y-40505D01*
X63330Y-40425D02*
X63855Y-40425D01*
X58285Y-40425D02*
X62170Y-40425D01*
X53249Y-40425D02*
X56644Y-40425D01*
X51645Y-40425D02*
X52251Y-40425D01*
X63330Y-40345D02*
X63855Y-40345D01*
X59091Y-40345D02*
X62170Y-40345D01*
X58205Y-40345D02*
X58329Y-40345D01*
X53249Y-40345D02*
X56408Y-40345D01*
X51645Y-40345D02*
X52251Y-40345D01*
X63330Y-40265D02*
X63855Y-40265D01*
X58125Y-40265D02*
X58286Y-40265D01*
X51645Y-40265D02*
X52251Y-40265D01*
X63330Y-40185D02*
X63855Y-40185D01*
X58045Y-40185D02*
X58286Y-40185D01*
X51645Y-40185D02*
X52251Y-40185D01*
X63330Y-40105D02*
X63855Y-40105D01*
X57965Y-40105D02*
X58263Y-40105D01*
X51645Y-40105D02*
X52251Y-40105D01*
X63330Y-40025D02*
X63855Y-40025D01*
X57885Y-40025D02*
X58209Y-40025D01*
X51645Y-40025D02*
X52249Y-40025D01*
X63330Y-39945D02*
X63855Y-39945D01*
X57805Y-39945D02*
X58168Y-39945D01*
X51645Y-39945D02*
X52208Y-39945D01*
X63330Y-39865D02*
X63855Y-39865D01*
X57725Y-39865D02*
X58152Y-39865D01*
X51645Y-39865D02*
X52192Y-39865D01*
X63330Y-39785D02*
X63855Y-39785D01*
X57645Y-39785D02*
X58136Y-39785D01*
X51645Y-39785D02*
X52176Y-39785D01*
X63322Y-39705D02*
X63855Y-39705D01*
X57565Y-39705D02*
X58139Y-39705D01*
X51645Y-39705D02*
X52179Y-39705D01*
X63306Y-39625D02*
X63855Y-39625D01*
X57485Y-39625D02*
X58155Y-39625D01*
X51645Y-39625D02*
X52195Y-39625D01*
X63290Y-39545D02*
X63855Y-39545D01*
X57405Y-39545D02*
X58171Y-39545D01*
X51645Y-39545D02*
X52211Y-39545D01*
X63249Y-39465D02*
X63855Y-39465D01*
X57325Y-39465D02*
X58216Y-39465D01*
X51645Y-39465D02*
X52251Y-39465D01*
X63249Y-39385D02*
X63855Y-39385D01*
X57245Y-39385D02*
X58270Y-39385D01*
X51645Y-39385D02*
X52251Y-39385D01*
X63249Y-39305D02*
X63855Y-39305D01*
X57214Y-39305D02*
X58286Y-39305D01*
X51645Y-39305D02*
X52251Y-39305D01*
X63249Y-39225D02*
X63855Y-39225D01*
X57212Y-39225D02*
X58289Y-39225D01*
X51645Y-39225D02*
X52251Y-39225D01*
X63249Y-39145D02*
X63855Y-39145D01*
X59081Y-39145D02*
X62251Y-39145D01*
X57161Y-39145D02*
X58339Y-39145D01*
X53249Y-39145D02*
X56419Y-39145D01*
X51645Y-39145D02*
X52251Y-39145D01*
X63249Y-39065D02*
X63855Y-39065D01*
X53249Y-39065D02*
X62251Y-39065D01*
X51645Y-39065D02*
X52251Y-39065D01*
X63221Y-38985D02*
X63855Y-38985D01*
X53221Y-38985D02*
X62279Y-38985D01*
X51645Y-38985D02*
X52279Y-38985D01*
X51645Y-38905D02*
X63855Y-38905D01*
X51645Y-38825D02*
X63855Y-38825D01*
X51645Y-38745D02*
X63855Y-38745D01*
X51645Y-38665D02*
X63855Y-38665D01*
X51645Y-38585D02*
X63855Y-38585D01*
X51645Y-38505D02*
X63855Y-38505D01*
X51645Y-38425D02*
X63855Y-38425D01*
X51645Y-38345D02*
X63855Y-38345D01*
X51645Y-38265D02*
X63855Y-38265D01*
X51645Y-38185D02*
X63855Y-38185D01*
X51645Y-38105D02*
X63855Y-38105D01*
X51645Y-38025D02*
X63855Y-38025D01*
X51645Y-37945D02*
X63855Y-37945D01*
X51645Y-37865D02*
X63855Y-37865D01*
X51645Y-37785D02*
X63855Y-37785D01*
X51645Y-37705D02*
X63855Y-37705D01*
X51645Y-37625D02*
X63855Y-37625D01*
X51645Y-37545D02*
X63855Y-37545D01*
X51645Y-37465D02*
X63855Y-37465D01*
X51645Y-37385D02*
X63855Y-37385D01*
X51645Y-37305D02*
X63855Y-37305D01*
X51645Y-37225D02*
X63855Y-37225D01*
X51645Y-37145D02*
X63855Y-37145D01*
X51645Y-37065D02*
X63855Y-37065D01*
X51645Y-36985D02*
X63855Y-36985D01*
X51645Y-36905D02*
X63855Y-36905D01*
X63109Y-36825D02*
X63855Y-36825D01*
X53109Y-36825D02*
X62390Y-36825D01*
X51645Y-36825D02*
X52390Y-36825D01*
X63277Y-36745D02*
X63855Y-36745D01*
X53277Y-36745D02*
X62222Y-36745D01*
X51645Y-36745D02*
X52222Y-36745D01*
X63357Y-36665D02*
X63855Y-36665D01*
X53357Y-36665D02*
X62142Y-36665D01*
X51645Y-36665D02*
X52142Y-36665D01*
X63437Y-36585D02*
X63855Y-36585D01*
X53437Y-36585D02*
X62062Y-36585D01*
X51645Y-36585D02*
X52062Y-36585D01*
X63514Y-36505D02*
X63855Y-36505D01*
X53514Y-36505D02*
X61985Y-36505D01*
X51645Y-36505D02*
X51985Y-36505D01*
X63547Y-36425D02*
X63855Y-36425D01*
X53547Y-36425D02*
X61952Y-36425D01*
X51645Y-36425D02*
X51952Y-36425D01*
X63581Y-36345D02*
X63855Y-36345D01*
X53581Y-36345D02*
X61919Y-36345D01*
X51645Y-36345D02*
X51919Y-36345D01*
X63614Y-36265D02*
X63855Y-36265D01*
X53614Y-36265D02*
X61886Y-36265D01*
X51645Y-36265D02*
X51886Y-36265D01*
X63647Y-36185D02*
X63855Y-36185D01*
X53647Y-36185D02*
X61852Y-36185D01*
X51645Y-36185D02*
X51852Y-36185D01*
X63650Y-36105D02*
X63855Y-36105D01*
X53650Y-36105D02*
X61850Y-36105D01*
X51645Y-36105D02*
X51850Y-36105D01*
X63650Y-36025D02*
X63855Y-36025D01*
X53650Y-36025D02*
X61850Y-36025D01*
X51645Y-36025D02*
X51850Y-36025D01*
X63650Y-35945D02*
X63855Y-35945D01*
X53650Y-35945D02*
X61850Y-35945D01*
X51645Y-35945D02*
X51850Y-35945D01*
X63650Y-35865D02*
X63855Y-35865D01*
X53650Y-35865D02*
X61850Y-35865D01*
X51645Y-35865D02*
X51850Y-35865D01*
X63635Y-35785D02*
X63855Y-35785D01*
X53635Y-35785D02*
X61865Y-35785D01*
X51645Y-35785D02*
X51865Y-35785D01*
X63602Y-35705D02*
X63855Y-35705D01*
X53602Y-35705D02*
X61898Y-35705D01*
X51645Y-35705D02*
X51898Y-35705D01*
X63569Y-35625D02*
X63855Y-35625D01*
X53569Y-35625D02*
X61932Y-35625D01*
X51645Y-35625D02*
X51932Y-35625D01*
X63536Y-35545D02*
X63855Y-35545D01*
X53536Y-35545D02*
X61965Y-35545D01*
X51645Y-35545D02*
X51965Y-35545D01*
X63488Y-35465D02*
X63855Y-35465D01*
X53488Y-35465D02*
X62013Y-35465D01*
X51645Y-35465D02*
X52013Y-35465D01*
X63408Y-35385D02*
X63855Y-35385D01*
X53408Y-35385D02*
X62093Y-35385D01*
X51645Y-35385D02*
X52093Y-35385D01*
X63328Y-35305D02*
X63855Y-35305D01*
X53328Y-35305D02*
X62173Y-35305D01*
X51645Y-35305D02*
X52173Y-35305D01*
X63230Y-35225D02*
X63855Y-35225D01*
X53230Y-35225D02*
X62270Y-35225D01*
X51645Y-35225D02*
X52270Y-35225D01*
X63038Y-35145D02*
X63855Y-35145D01*
X53038Y-35145D02*
X62462Y-35145D01*
X51645Y-35145D02*
X52462Y-35145D01*
X51645Y-35065D02*
X63855Y-35065D01*
X51645Y-34985D02*
X63855Y-34985D01*
X51645Y-34905D02*
X63855Y-34905D01*
X51645Y-34825D02*
X63855Y-34825D01*
X51645Y-34745D02*
X63855Y-34745D01*
X51645Y-34665D02*
X63855Y-34665D01*
X51645Y-34585D02*
X63855Y-34585D01*
X51645Y-34505D02*
X63855Y-34505D01*
X51645Y-34425D02*
X63855Y-34425D01*
X51645Y-34345D02*
X63855Y-34345D01*
X51645Y-34265D02*
X63855Y-34265D01*
X51645Y-34185D02*
X63855Y-34185D01*
X51645Y-34105D02*
X63855Y-34105D01*
X51645Y-34025D02*
X63855Y-34025D01*
X51645Y-33945D02*
X63855Y-33945D01*
X51645Y-33865D02*
X63855Y-33865D01*
X51645Y-33785D02*
X63855Y-33785D01*
X51645Y-33705D02*
X63855Y-33705D01*
X51645Y-33625D02*
X63855Y-33625D01*
X51645Y-33545D02*
X63855Y-33545D01*
X51645Y-33465D02*
X63855Y-33465D01*
X51645Y-33385D02*
X63855Y-33385D01*
X51645Y-33305D02*
X63855Y-33305D01*
X58716Y-33225D02*
X63855Y-33225D01*
X57448Y-33225D02*
X57784Y-33225D01*
X51645Y-33225D02*
X57051Y-33225D01*
X62940Y-33145D02*
X63855Y-33145D01*
X58763Y-33145D02*
X62558Y-33145D01*
X57583Y-33145D02*
X57736Y-33145D01*
X52940Y-33145D02*
X56917Y-33145D01*
X51645Y-33145D02*
X52558Y-33145D01*
X63133Y-33065D02*
X63855Y-33065D01*
X58764Y-33065D02*
X62366Y-33065D01*
X57663Y-33065D02*
X57736Y-33065D01*
X53133Y-33065D02*
X56837Y-33065D01*
X51645Y-33065D02*
X52366Y-33065D01*
X63287Y-32985D02*
X63855Y-32985D01*
X58764Y-32985D02*
X62212Y-32985D01*
X57709Y-32985D02*
X57736Y-32985D01*
X53287Y-32985D02*
X56789Y-32985D01*
X51645Y-32985D02*
X52212Y-32985D01*
X63367Y-32905D02*
X63855Y-32905D01*
X58764Y-32905D02*
X62132Y-32905D01*
X53367Y-32905D02*
X56756Y-32905D01*
X51645Y-32905D02*
X52132Y-32905D01*
X63447Y-32825D02*
X63855Y-32825D01*
X58764Y-32825D02*
X62052Y-32825D01*
X53447Y-32825D02*
X56735Y-32825D01*
X51645Y-32825D02*
X52052Y-32825D01*
X63518Y-32745D02*
X63855Y-32745D01*
X58764Y-32745D02*
X61981Y-32745D01*
X53518Y-32745D02*
X56735Y-32745D01*
X51645Y-32745D02*
X51981Y-32745D01*
X63552Y-32665D02*
X63855Y-32665D01*
X58764Y-32665D02*
X61948Y-32665D01*
X53552Y-32665D02*
X56735Y-32665D01*
X51645Y-32665D02*
X51948Y-32665D01*
X63585Y-32585D02*
X63855Y-32585D01*
X58764Y-32585D02*
X61914Y-32585D01*
X53585Y-32585D02*
X56761Y-32585D01*
X51645Y-32585D02*
X51914Y-32585D01*
X63618Y-32505D02*
X63855Y-32505D01*
X58764Y-32505D02*
X61881Y-32505D01*
X57707Y-32505D02*
X57736Y-32505D01*
X53618Y-32505D02*
X56795Y-32505D01*
X51645Y-32505D02*
X51881Y-32505D01*
X63650Y-32425D02*
X63855Y-32425D01*
X58764Y-32425D02*
X61850Y-32425D01*
X57653Y-32425D02*
X57736Y-32425D01*
X53650Y-32425D02*
X56847Y-32425D01*
X51645Y-32425D02*
X51850Y-32425D01*
X63650Y-32345D02*
X63855Y-32345D01*
X58760Y-32345D02*
X61850Y-32345D01*
X57573Y-32345D02*
X57741Y-32345D01*
X53650Y-32345D02*
X56927Y-32345D01*
X51645Y-32345D02*
X51850Y-32345D01*
X63650Y-32265D02*
X63855Y-32265D01*
X58706Y-32265D02*
X61850Y-32265D01*
X57425Y-32265D02*
X57794Y-32265D01*
X53650Y-32265D02*
X57076Y-32265D01*
X51645Y-32265D02*
X51850Y-32265D01*
X63650Y-32185D02*
X63855Y-32185D01*
X53650Y-32185D02*
X61850Y-32185D01*
X51645Y-32185D02*
X51850Y-32185D01*
X63650Y-32105D02*
X63855Y-32105D01*
X58477Y-32105D02*
X61850Y-32105D01*
X57477Y-32105D02*
X58024Y-32105D01*
X53650Y-32105D02*
X57024Y-32105D01*
X51645Y-32105D02*
X51850Y-32105D01*
X63631Y-32025D02*
X63855Y-32025D01*
X58561Y-32025D02*
X61869Y-32025D01*
X57561Y-32025D02*
X57938Y-32025D01*
X53631Y-32025D02*
X56938Y-32025D01*
X51645Y-32025D02*
X51869Y-32025D01*
X63598Y-31945D02*
X63855Y-31945D01*
X58617Y-31945D02*
X61903Y-31945D01*
X57617Y-31945D02*
X57881Y-31945D01*
X53598Y-31945D02*
X56881Y-31945D01*
X51645Y-31945D02*
X51903Y-31945D01*
X63565Y-31865D02*
X63855Y-31865D01*
X58651Y-31865D02*
X61936Y-31865D01*
X57651Y-31865D02*
X57848Y-31865D01*
X53565Y-31865D02*
X56848Y-31865D01*
X51645Y-31865D02*
X51936Y-31865D01*
X63532Y-31785D02*
X63855Y-31785D01*
X58665Y-31785D02*
X61969Y-31785D01*
X57665Y-31785D02*
X57835Y-31785D01*
X53532Y-31785D02*
X56835Y-31785D01*
X51645Y-31785D02*
X51969Y-31785D01*
X63478Y-31705D02*
X63855Y-31705D01*
X58665Y-31705D02*
X62023Y-31705D01*
X57665Y-31705D02*
X57835Y-31705D01*
X53478Y-31705D02*
X56835Y-31705D01*
X51645Y-31705D02*
X52023Y-31705D01*
X63398Y-31625D02*
X63855Y-31625D01*
X58648Y-31625D02*
X62103Y-31625D01*
X57648Y-31625D02*
X57853Y-31625D01*
X53398Y-31625D02*
X56853Y-31625D01*
X51645Y-31625D02*
X52103Y-31625D01*
X63318Y-31545D02*
X63855Y-31545D01*
X58615Y-31545D02*
X62183Y-31545D01*
X57615Y-31545D02*
X57887Y-31545D01*
X53318Y-31545D02*
X56887Y-31545D01*
X51645Y-31545D02*
X52183Y-31545D01*
X63206Y-31465D02*
X63855Y-31465D01*
X58552Y-31465D02*
X62295Y-31465D01*
X57552Y-31465D02*
X57949Y-31465D01*
X53206Y-31465D02*
X56949Y-31465D01*
X51645Y-31465D02*
X52295Y-31465D01*
X63014Y-31385D02*
X63855Y-31385D01*
X58452Y-31385D02*
X62488Y-31385D01*
X57452Y-31385D02*
X58047Y-31385D01*
X53014Y-31385D02*
X57047Y-31385D01*
X51645Y-31385D02*
X52488Y-31385D01*
X51645Y-31305D02*
X63855Y-31305D01*
X51645Y-31225D02*
X63855Y-31225D01*
X51645Y-31145D02*
X63855Y-31145D01*
X63855Y-60855D02*
X63855Y-31145D01*
X63855Y-31145D02*
X51645Y-31145D01*
X51645Y-31145D02*
X51645Y-60855D01*
X51645Y-60855D02*
X52570Y-60855D01*
X52570Y-60855D02*
X52570Y-60650D01*
X52570Y-60650D02*
X52239Y-60512D01*
X52239Y-60512D02*
X51987Y-60259D01*
X51987Y-60259D02*
X51850Y-59928D01*
X51850Y-59928D02*
X51850Y-59570D01*
X51850Y-59570D02*
X51988Y-59239D01*
X51988Y-59239D02*
X52241Y-58987D01*
X52241Y-58987D02*
X52570Y-58850D01*
X52570Y-58850D02*
X52570Y-56900D01*
X52570Y-56900D02*
X52239Y-56762D01*
X52239Y-56762D02*
X51987Y-56509D01*
X51987Y-56509D02*
X51850Y-56178D01*
X51850Y-56178D02*
X51850Y-55820D01*
X51850Y-55820D02*
X51988Y-55489D01*
X51988Y-55489D02*
X52241Y-55237D01*
X52241Y-55237D02*
X52572Y-55100D01*
X52572Y-55100D02*
X52930Y-55100D01*
X52930Y-55100D02*
X53261Y-55238D01*
X53261Y-55238D02*
X53513Y-55491D01*
X53513Y-55491D02*
X53650Y-55822D01*
X53650Y-55822D02*
X53650Y-56180D01*
X53650Y-56180D02*
X53512Y-56511D01*
X53512Y-56511D02*
X53259Y-56763D01*
X53259Y-56763D02*
X52928Y-56900D01*
X52928Y-56900D02*
X52570Y-56900D01*
X52570Y-56900D02*
X52570Y-58850D01*
X52570Y-58850D02*
X52930Y-58850D01*
X52930Y-58850D02*
X53261Y-58988D01*
X53261Y-58988D02*
X53513Y-59241D01*
X53513Y-59241D02*
X53650Y-59572D01*
X53650Y-59572D02*
X53650Y-59930D01*
X53650Y-59930D02*
X53512Y-60261D01*
X53512Y-60261D02*
X53259Y-60513D01*
X53259Y-60513D02*
X52928Y-60650D01*
X52928Y-60650D02*
X52570Y-60650D01*
X52570Y-60650D02*
X52570Y-60855D01*
X52570Y-60855D02*
X55020Y-60855D01*
X55020Y-60855D02*
X55020Y-60530D01*
X55020Y-60530D02*
X54708Y-60400D01*
X54708Y-60400D02*
X54469Y-60160D01*
X54469Y-60160D02*
X54340Y-59848D01*
X54340Y-59848D02*
X54340Y-59510D01*
X54340Y-59510D02*
X54470Y-59198D01*
X54470Y-59198D02*
X54710Y-58959D01*
X54710Y-58959D02*
X55022Y-58830D01*
X55022Y-58830D02*
X55080Y-58830D01*
X55080Y-58830D02*
X55080Y-55410D01*
X55080Y-55410D02*
X54768Y-55280D01*
X54768Y-55280D02*
X54529Y-55040D01*
X54529Y-55040D02*
X54400Y-54728D01*
X54400Y-54728D02*
X54400Y-54390D01*
X54400Y-54390D02*
X54530Y-54078D01*
X54530Y-54078D02*
X54537Y-54071D01*
X54537Y-54071D02*
X54537Y-47450D01*
X54537Y-47450D02*
X53960Y-47449D01*
X53960Y-47449D02*
X53428Y-47228D01*
X53428Y-47228D02*
X53020Y-46820D01*
X53020Y-46820D02*
X52800Y-46287D01*
X52800Y-46287D02*
X52801Y-45710D01*
X52801Y-45710D02*
X52808Y-45693D01*
X52808Y-45693D02*
X52808Y-43871D01*
X52808Y-43871D02*
X52705Y-43834D01*
X52705Y-43834D02*
X52627Y-43649D01*
X52627Y-43649D02*
X52618Y-43400D01*
X52618Y-43400D02*
X52705Y-43166D01*
X52705Y-43166D02*
X52808Y-43129D01*
X52808Y-43129D02*
X53179Y-43500D01*
X53179Y-43500D02*
X52808Y-43871D01*
X52808Y-43871D02*
X52808Y-45693D01*
X52808Y-45693D02*
X53022Y-45178D01*
X53022Y-45178D02*
X53150Y-45049D01*
X53150Y-45049D02*
X53150Y-44132D01*
X53150Y-44132D02*
X52916Y-44045D01*
X52916Y-44045D02*
X52879Y-43942D01*
X52879Y-43942D02*
X53250Y-43571D01*
X53250Y-43571D02*
X53250Y-43429D01*
X53250Y-43429D02*
X52879Y-43058D01*
X52879Y-43058D02*
X52916Y-42955D01*
X52916Y-42955D02*
X53101Y-42877D01*
X53101Y-42877D02*
X53350Y-42868D01*
X53350Y-42868D02*
X53584Y-42955D01*
X53584Y-42955D02*
X53621Y-43058D01*
X53621Y-43058D02*
X53250Y-43429D01*
X53250Y-43429D02*
X53250Y-43571D01*
X53250Y-43571D02*
X53621Y-43942D01*
X53621Y-43942D02*
X53584Y-44045D01*
X53584Y-44045D02*
X53399Y-44123D01*
X53399Y-44123D02*
X53150Y-44132D01*
X53150Y-44132D02*
X53150Y-45049D01*
X53150Y-45049D02*
X53430Y-44770D01*
X53430Y-44770D02*
X53692Y-44661D01*
X53692Y-44661D02*
X53692Y-43871D01*
X53692Y-43871D02*
X53321Y-43500D01*
X53321Y-43500D02*
X53692Y-43129D01*
X53692Y-43129D02*
X53795Y-43166D01*
X53795Y-43166D02*
X53873Y-43351D01*
X53873Y-43351D02*
X53882Y-43600D01*
X53882Y-43600D02*
X53795Y-43834D01*
X53795Y-43834D02*
X53692Y-43871D01*
X53692Y-43871D02*
X53692Y-44661D01*
X53692Y-44661D02*
X53963Y-44550D01*
X53963Y-44550D02*
X54540Y-44551D01*
X54540Y-44551D02*
X55072Y-44772D01*
X55072Y-44772D02*
X55480Y-45180D01*
X55480Y-45180D02*
X55700Y-45713D01*
X55700Y-45713D02*
X55699Y-46290D01*
X55699Y-46290D02*
X55478Y-46822D01*
X55478Y-46822D02*
X55070Y-47230D01*
X55070Y-47230D02*
X54537Y-47450D01*
X54537Y-47450D02*
X54537Y-54071D01*
X54537Y-54071D02*
X54770Y-53839D01*
X54770Y-53839D02*
X55082Y-53710D01*
X55082Y-53710D02*
X55420Y-53710D01*
X55420Y-53710D02*
X55732Y-53840D01*
X55732Y-53840D02*
X55971Y-54080D01*
X55971Y-54080D02*
X56100Y-54392D01*
X56100Y-54392D02*
X56100Y-54730D01*
X56100Y-54730D02*
X55970Y-55042D01*
X55970Y-55042D02*
X55730Y-55281D01*
X55730Y-55281D02*
X55418Y-55410D01*
X55418Y-55410D02*
X55080Y-55410D01*
X55080Y-55410D02*
X55080Y-58830D01*
X55080Y-58830D02*
X55360Y-58830D01*
X55360Y-58830D02*
X55672Y-58960D01*
X55672Y-58960D02*
X55911Y-59200D01*
X55911Y-59200D02*
X56040Y-59512D01*
X56040Y-59512D02*
X56040Y-59850D01*
X56040Y-59850D02*
X55910Y-60162D01*
X55910Y-60162D02*
X55670Y-60401D01*
X55670Y-60401D02*
X55358Y-60530D01*
X55358Y-60530D02*
X55020Y-60530D01*
X55020Y-60530D02*
X55020Y-60855D01*
X55020Y-60855D02*
X56270Y-60855D01*
X56270Y-60855D02*
X56270Y-59080D01*
X56270Y-59080D02*
X56048Y-59036D01*
X56048Y-59036D02*
X55860Y-58910D01*
X55860Y-58910D02*
X55734Y-58722D01*
X55734Y-58722D02*
X55690Y-58500D01*
X55690Y-58500D02*
X55690Y-56131D01*
X55690Y-56131D02*
X55734Y-55909D01*
X55734Y-55909D02*
X55860Y-55721D01*
X55860Y-55721D02*
X59250Y-52330D01*
X59250Y-52330D02*
X59250Y-44080D01*
X59250Y-44080D02*
X59028Y-44036D01*
X59028Y-44036D02*
X58840Y-43910D01*
X58840Y-43910D02*
X58731Y-43747D01*
X58731Y-43747D02*
X58707Y-43806D01*
X58707Y-43806D02*
X58556Y-43958D01*
X58556Y-43958D02*
X58357Y-44040D01*
X58357Y-44040D02*
X58142Y-44040D01*
X58142Y-44040D02*
X57944Y-43957D01*
X57944Y-43957D02*
X57792Y-43806D01*
X57792Y-43806D02*
X57749Y-43703D01*
X57749Y-43703D02*
X57707Y-43806D01*
X57707Y-43806D02*
X57556Y-43958D01*
X57556Y-43958D02*
X57357Y-44040D01*
X57357Y-44040D02*
X57142Y-44040D01*
X57142Y-44040D02*
X56944Y-43957D01*
X56944Y-43957D02*
X56792Y-43806D01*
X56792Y-43806D02*
X56749Y-43703D01*
X56749Y-43703D02*
X56707Y-43806D01*
X56707Y-43806D02*
X56556Y-43958D01*
X56556Y-43958D02*
X56357Y-44040D01*
X56357Y-44040D02*
X56142Y-44040D01*
X56142Y-44040D02*
X55944Y-43957D01*
X55944Y-43957D02*
X55792Y-43806D01*
X55792Y-43806D02*
X55749Y-43703D01*
X55749Y-43703D02*
X55707Y-43806D01*
X55707Y-43806D02*
X55556Y-43958D01*
X55556Y-43958D02*
X55357Y-44040D01*
X55357Y-44040D02*
X55142Y-44040D01*
X55142Y-44040D02*
X54944Y-43957D01*
X54944Y-43957D02*
X54792Y-43806D01*
X54792Y-43806D02*
X54710Y-43607D01*
X54710Y-43607D02*
X54710Y-43392D01*
X54710Y-43392D02*
X54793Y-43194D01*
X54793Y-43194D02*
X54944Y-43042D01*
X54944Y-43042D02*
X55143Y-42960D01*
X55143Y-42960D02*
X55358Y-42960D01*
X55358Y-42960D02*
X55556Y-43043D01*
X55556Y-43043D02*
X55708Y-43194D01*
X55708Y-43194D02*
X55750Y-43296D01*
X55750Y-43296D02*
X55793Y-43194D01*
X55793Y-43194D02*
X55944Y-43042D01*
X55944Y-43042D02*
X56143Y-42960D01*
X56143Y-42960D02*
X56358Y-42960D01*
X56358Y-42960D02*
X56556Y-43043D01*
X56556Y-43043D02*
X56708Y-43194D01*
X56708Y-43194D02*
X56750Y-43296D01*
X56750Y-43296D02*
X56793Y-43194D01*
X56793Y-43194D02*
X56944Y-43042D01*
X56944Y-43042D02*
X57143Y-42960D01*
X57143Y-42960D02*
X57358Y-42960D01*
X57358Y-42960D02*
X57556Y-43043D01*
X57556Y-43043D02*
X57708Y-43194D01*
X57708Y-43194D02*
X57750Y-43296D01*
X57750Y-43296D02*
X57793Y-43194D01*
X57793Y-43194D02*
X57944Y-43042D01*
X57944Y-43042D02*
X58143Y-42960D01*
X58143Y-42960D02*
X58358Y-42960D01*
X58358Y-42960D02*
X58556Y-43043D01*
X58556Y-43043D02*
X58670Y-43156D01*
X58670Y-43156D02*
X58670Y-42450D01*
X58670Y-42450D02*
X56608Y-40389D01*
X56608Y-40389D02*
X56486Y-40389D01*
X56486Y-40389D02*
X56431Y-40367D01*
X56431Y-40367D02*
X56393Y-40330D01*
X56393Y-40330D02*
X53249Y-40330D01*
X53249Y-40330D02*
X53249Y-40454D01*
X53249Y-40454D02*
X53227Y-40509D01*
X53227Y-40509D02*
X53185Y-40551D01*
X53185Y-40551D02*
X53130Y-40574D01*
X53130Y-40574D02*
X52371Y-40574D01*
X52371Y-40574D02*
X52316Y-40552D01*
X52316Y-40552D02*
X52274Y-40510D01*
X52274Y-40510D02*
X52251Y-40455D01*
X52251Y-40455D02*
X52251Y-40027D01*
X52251Y-40027D02*
X52214Y-39972D01*
X52214Y-39972D02*
X52170Y-39750D01*
X52170Y-39750D02*
X52214Y-39528D01*
X52214Y-39528D02*
X52251Y-39472D01*
X52251Y-39472D02*
X52251Y-39046D01*
X52251Y-39046D02*
X52273Y-38991D01*
X52273Y-38991D02*
X52315Y-38949D01*
X52315Y-38949D02*
X52370Y-38926D01*
X52370Y-38926D02*
X52570Y-38926D01*
X52570Y-38926D02*
X52570Y-36900D01*
X52570Y-36900D02*
X52239Y-36762D01*
X52239Y-36762D02*
X51987Y-36509D01*
X51987Y-36509D02*
X51850Y-36178D01*
X51850Y-36178D02*
X51850Y-35820D01*
X51850Y-35820D02*
X51988Y-35489D01*
X51988Y-35489D02*
X52241Y-35237D01*
X52241Y-35237D02*
X52570Y-35100D01*
X52570Y-35100D02*
X52570Y-33150D01*
X52570Y-33150D02*
X52239Y-33012D01*
X52239Y-33012D02*
X51987Y-32759D01*
X51987Y-32759D02*
X51850Y-32428D01*
X51850Y-32428D02*
X51850Y-32070D01*
X51850Y-32070D02*
X51988Y-31739D01*
X51988Y-31739D02*
X52241Y-31487D01*
X52241Y-31487D02*
X52572Y-31350D01*
X52572Y-31350D02*
X52930Y-31350D01*
X52930Y-31350D02*
X53261Y-31488D01*
X53261Y-31488D02*
X53513Y-31741D01*
X53513Y-31741D02*
X53650Y-32072D01*
X53650Y-32072D02*
X53650Y-32430D01*
X53650Y-32430D02*
X53512Y-32761D01*
X53512Y-32761D02*
X53259Y-33013D01*
X53259Y-33013D02*
X52928Y-33150D01*
X52928Y-33150D02*
X52570Y-33150D01*
X52570Y-33150D02*
X52570Y-35100D01*
X52570Y-35100D02*
X52930Y-35100D01*
X52930Y-35100D02*
X53261Y-35238D01*
X53261Y-35238D02*
X53513Y-35491D01*
X53513Y-35491D02*
X53650Y-35822D01*
X53650Y-35822D02*
X53650Y-36180D01*
X53650Y-36180D02*
X53512Y-36511D01*
X53512Y-36511D02*
X53259Y-36763D01*
X53259Y-36763D02*
X52928Y-36900D01*
X52928Y-36900D02*
X52570Y-36900D01*
X52570Y-36900D02*
X52570Y-38926D01*
X52570Y-38926D02*
X53129Y-38926D01*
X53129Y-38926D02*
X53184Y-38948D01*
X53184Y-38948D02*
X53226Y-38990D01*
X53226Y-38990D02*
X53249Y-39045D01*
X53249Y-39045D02*
X53249Y-39170D01*
X53249Y-39170D02*
X56393Y-39170D01*
X56393Y-39170D02*
X56430Y-39134D01*
X56430Y-39134D02*
X56485Y-39111D01*
X56485Y-39111D02*
X57094Y-39111D01*
X57094Y-39111D02*
X57147Y-39132D01*
X57147Y-39132D02*
X57147Y-33265D01*
X57147Y-33265D02*
X56958Y-33186D01*
X56958Y-33186D02*
X56813Y-33041D01*
X56813Y-33041D02*
X56735Y-32852D01*
X56735Y-32852D02*
X56735Y-32647D01*
X56735Y-32647D02*
X56814Y-32458D01*
X56814Y-32458D02*
X56959Y-32313D01*
X56959Y-32313D02*
X57148Y-32235D01*
X57148Y-32235D02*
X57167Y-32235D01*
X57167Y-32235D02*
X57167Y-32165D01*
X57167Y-32165D02*
X57015Y-32101D01*
X57015Y-32101D02*
X56898Y-31985D01*
X56898Y-31985D02*
X56835Y-31832D01*
X56835Y-31832D02*
X56835Y-31667D01*
X56835Y-31667D02*
X56899Y-31515D01*
X56899Y-31515D02*
X57015Y-31398D01*
X57015Y-31398D02*
X57168Y-31335D01*
X57168Y-31335D02*
X57333Y-31335D01*
X57333Y-31335D02*
X57485Y-31399D01*
X57485Y-31399D02*
X57602Y-31515D01*
X57602Y-31515D02*
X57665Y-31668D01*
X57665Y-31668D02*
X57665Y-31833D01*
X57665Y-31833D02*
X57601Y-31985D01*
X57601Y-31985D02*
X57485Y-32102D01*
X57485Y-32102D02*
X57332Y-32165D01*
X57332Y-32165D02*
X57167Y-32165D01*
X57167Y-32165D02*
X57167Y-32235D01*
X57167Y-32235D02*
X57353Y-32235D01*
X57353Y-32235D02*
X57542Y-32314D01*
X57542Y-32314D02*
X57687Y-32459D01*
X57687Y-32459D02*
X57736Y-32577D01*
X57736Y-32577D02*
X57736Y-32356D01*
X57736Y-32356D02*
X57758Y-32301D01*
X57758Y-32301D02*
X57800Y-32259D01*
X57800Y-32259D02*
X57855Y-32236D01*
X57855Y-32236D02*
X58167Y-32236D01*
X58167Y-32236D02*
X58167Y-32165D01*
X58167Y-32165D02*
X58015Y-32101D01*
X58015Y-32101D02*
X57898Y-31985D01*
X57898Y-31985D02*
X57835Y-31832D01*
X57835Y-31832D02*
X57835Y-31667D01*
X57835Y-31667D02*
X57899Y-31515D01*
X57899Y-31515D02*
X58015Y-31398D01*
X58015Y-31398D02*
X58168Y-31335D01*
X58168Y-31335D02*
X58333Y-31335D01*
X58333Y-31335D02*
X58485Y-31399D01*
X58485Y-31399D02*
X58602Y-31515D01*
X58602Y-31515D02*
X58665Y-31668D01*
X58665Y-31668D02*
X58665Y-31833D01*
X58665Y-31833D02*
X58601Y-31985D01*
X58601Y-31985D02*
X58485Y-32102D01*
X58485Y-32102D02*
X58332Y-32165D01*
X58332Y-32165D02*
X58167Y-32165D01*
X58167Y-32165D02*
X58167Y-32236D01*
X58167Y-32236D02*
X58644Y-32236D01*
X58644Y-32236D02*
X58699Y-32258D01*
X58699Y-32258D02*
X58741Y-32300D01*
X58741Y-32300D02*
X58764Y-32355D01*
X58764Y-32355D02*
X58764Y-33144D01*
X58764Y-33144D02*
X58742Y-33199D01*
X58742Y-33199D02*
X58700Y-33241D01*
X58700Y-33241D02*
X58645Y-33264D01*
X58645Y-33264D02*
X57856Y-33264D01*
X57856Y-33264D02*
X57801Y-33242D01*
X57801Y-33242D02*
X57759Y-33200D01*
X57759Y-33200D02*
X57736Y-33145D01*
X57736Y-33145D02*
X57736Y-32922D01*
X57736Y-32922D02*
X57686Y-33042D01*
X57686Y-33042D02*
X57541Y-33187D01*
X57541Y-33187D02*
X57352Y-33265D01*
X57352Y-33265D02*
X57147Y-33265D01*
X57147Y-33265D02*
X57147Y-39132D01*
X57147Y-39132D02*
X57191Y-39175D01*
X57191Y-39175D02*
X57214Y-39230D01*
X57214Y-39230D02*
X57214Y-39354D01*
X57214Y-39354D02*
X59660Y-41800D01*
X59660Y-41800D02*
X59786Y-41988D01*
X59786Y-41988D02*
X59830Y-42210D01*
X59830Y-42210D02*
X59830Y-43500D01*
X59830Y-43500D02*
X59786Y-43722D01*
X59786Y-43722D02*
X59660Y-43910D01*
X59660Y-43910D02*
X59472Y-44036D01*
X59472Y-44036D02*
X59250Y-44080D01*
X59250Y-44080D02*
X59250Y-52330D01*
X59250Y-52330D02*
X61491Y-50090D01*
X61491Y-50090D02*
X61679Y-49964D01*
X61679Y-49964D02*
X61901Y-49920D01*
X61901Y-49920D02*
X62647Y-49920D01*
X62647Y-49920D02*
X62647Y-47515D01*
X62647Y-47515D02*
X62458Y-47436D01*
X62458Y-47436D02*
X62313Y-47291D01*
X62313Y-47291D02*
X62235Y-47102D01*
X62235Y-47102D02*
X62235Y-46897D01*
X62235Y-46897D02*
X62314Y-46708D01*
X62314Y-46708D02*
X62326Y-46696D01*
X62326Y-46696D02*
X62326Y-46354D01*
X62326Y-46354D02*
X62225Y-46320D01*
X62225Y-46320D02*
X62153Y-46144D01*
X62153Y-46144D02*
X62143Y-45905D01*
X62143Y-45905D02*
X62225Y-45680D01*
X62225Y-45680D02*
X62326Y-45646D01*
X62326Y-45646D02*
X62679Y-46000D01*
X62679Y-46000D02*
X62326Y-46354D01*
X62326Y-46354D02*
X62326Y-46696D01*
X62326Y-46696D02*
X62459Y-46563D01*
X62459Y-46563D02*
X62494Y-46548D01*
X62494Y-46548D02*
X62430Y-46525D01*
X62430Y-46525D02*
X62396Y-46424D01*
X62396Y-46424D02*
X62750Y-46071D01*
X62750Y-46071D02*
X62750Y-45929D01*
X62750Y-45929D02*
X62396Y-45576D01*
X62396Y-45576D02*
X62416Y-45514D01*
X62416Y-45514D02*
X62356Y-45514D01*
X62356Y-45514D02*
X62301Y-45492D01*
X62301Y-45492D02*
X62259Y-45450D01*
X62259Y-45450D02*
X62236Y-45395D01*
X62236Y-45395D02*
X62236Y-45254D01*
X62236Y-45254D02*
X62214Y-45222D01*
X62214Y-45222D02*
X62170Y-45000D01*
X62170Y-45000D02*
X62170Y-40330D01*
X62170Y-40330D02*
X59106Y-40330D01*
X59106Y-40330D02*
X59070Y-40366D01*
X59070Y-40366D02*
X59015Y-40389D01*
X59015Y-40389D02*
X58406Y-40389D01*
X58406Y-40389D02*
X58351Y-40367D01*
X58351Y-40367D02*
X58309Y-40325D01*
X58309Y-40325D02*
X58286Y-40270D01*
X58286Y-40270D02*
X58286Y-40139D01*
X58286Y-40139D02*
X58174Y-39972D01*
X58174Y-39972D02*
X58130Y-39750D01*
X58130Y-39750D02*
X58174Y-39528D01*
X58174Y-39528D02*
X58286Y-39360D01*
X58286Y-39360D02*
X58286Y-39231D01*
X58286Y-39231D02*
X58308Y-39176D01*
X58308Y-39176D02*
X58350Y-39134D01*
X58350Y-39134D02*
X58405Y-39111D01*
X58405Y-39111D02*
X59014Y-39111D01*
X59014Y-39111D02*
X59069Y-39133D01*
X59069Y-39133D02*
X59106Y-39170D01*
X59106Y-39170D02*
X62251Y-39170D01*
X62251Y-39170D02*
X62251Y-39046D01*
X62251Y-39046D02*
X62273Y-38991D01*
X62273Y-38991D02*
X62315Y-38949D01*
X62315Y-38949D02*
X62370Y-38926D01*
X62370Y-38926D02*
X62570Y-38926D01*
X62570Y-38926D02*
X62570Y-36900D01*
X62570Y-36900D02*
X62239Y-36762D01*
X62239Y-36762D02*
X61987Y-36509D01*
X61987Y-36509D02*
X61850Y-36178D01*
X61850Y-36178D02*
X61850Y-35820D01*
X61850Y-35820D02*
X61988Y-35489D01*
X61988Y-35489D02*
X62241Y-35237D01*
X62241Y-35237D02*
X62570Y-35100D01*
X62570Y-35100D02*
X62570Y-33150D01*
X62570Y-33150D02*
X62239Y-33012D01*
X62239Y-33012D02*
X61987Y-32759D01*
X61987Y-32759D02*
X61850Y-32428D01*
X61850Y-32428D02*
X61850Y-32070D01*
X61850Y-32070D02*
X61988Y-31739D01*
X61988Y-31739D02*
X62241Y-31487D01*
X62241Y-31487D02*
X62572Y-31350D01*
X62572Y-31350D02*
X62930Y-31350D01*
X62930Y-31350D02*
X63261Y-31488D01*
X63261Y-31488D02*
X63513Y-31741D01*
X63513Y-31741D02*
X63650Y-32072D01*
X63650Y-32072D02*
X63650Y-32430D01*
X63650Y-32430D02*
X63512Y-32761D01*
X63512Y-32761D02*
X63259Y-33013D01*
X63259Y-33013D02*
X62928Y-33150D01*
X62928Y-33150D02*
X62570Y-33150D01*
X62570Y-33150D02*
X62570Y-35100D01*
X62570Y-35100D02*
X62930Y-35100D01*
X62930Y-35100D02*
X63261Y-35238D01*
X63261Y-35238D02*
X63513Y-35491D01*
X63513Y-35491D02*
X63650Y-35822D01*
X63650Y-35822D02*
X63650Y-36180D01*
X63650Y-36180D02*
X63512Y-36511D01*
X63512Y-36511D02*
X63259Y-36763D01*
X63259Y-36763D02*
X62928Y-36900D01*
X62928Y-36900D02*
X62570Y-36900D01*
X62570Y-36900D02*
X62570Y-38926D01*
X62570Y-38926D02*
X63129Y-38926D01*
X63129Y-38926D02*
X63184Y-38948D01*
X63184Y-38948D02*
X63226Y-38990D01*
X63226Y-38990D02*
X63249Y-39045D01*
X63249Y-39045D02*
X63249Y-39472D01*
X63249Y-39472D02*
X63286Y-39528D01*
X63286Y-39528D02*
X63330Y-39750D01*
X63330Y-39750D02*
X63330Y-45000D01*
X63330Y-45000D02*
X63286Y-45222D01*
X63286Y-45222D02*
X63264Y-45254D01*
X63264Y-45254D02*
X63264Y-45394D01*
X63264Y-45394D02*
X63242Y-45449D01*
X63242Y-45449D02*
X63200Y-45491D01*
X63200Y-45491D02*
X63145Y-45514D01*
X63145Y-45514D02*
X63083Y-45514D01*
X63083Y-45514D02*
X63104Y-45576D01*
X63104Y-45576D02*
X62750Y-45929D01*
X62750Y-45929D02*
X62750Y-46071D01*
X62750Y-46071D02*
X63104Y-46424D01*
X63104Y-46424D02*
X63070Y-46525D01*
X63070Y-46525D02*
X63008Y-46550D01*
X63008Y-46550D02*
X63042Y-46564D01*
X63042Y-46564D02*
X63174Y-46695D01*
X63174Y-46695D02*
X63174Y-46354D01*
X63174Y-46354D02*
X62821Y-46000D01*
X62821Y-46000D02*
X63174Y-45646D01*
X63174Y-45646D02*
X63275Y-45680D01*
X63275Y-45680D02*
X63347Y-45856D01*
X63347Y-45856D02*
X63357Y-46095D01*
X63357Y-46095D02*
X63275Y-46320D01*
X63275Y-46320D02*
X63174Y-46354D01*
X63174Y-46354D02*
X63174Y-46695D01*
X63174Y-46695D02*
X63187Y-46709D01*
X63187Y-46709D02*
X63265Y-46898D01*
X63265Y-46898D02*
X63265Y-47103D01*
X63265Y-47103D02*
X63186Y-47292D01*
X63186Y-47292D02*
X63041Y-47437D01*
X63041Y-47437D02*
X62852Y-47515D01*
X62852Y-47515D02*
X62647Y-47515D01*
X62647Y-47515D02*
X62647Y-49920D01*
X62647Y-49920D02*
X62750Y-49920D01*
X62750Y-49920D02*
X62972Y-49964D01*
X62972Y-49964D02*
X63160Y-50090D01*
X63160Y-50090D02*
X63286Y-50278D01*
X63286Y-50278D02*
X63330Y-50500D01*
X63330Y-50500D02*
X63286Y-50722D01*
X63286Y-50722D02*
X63160Y-50910D01*
X63160Y-50910D02*
X62972Y-51036D01*
X62972Y-51036D02*
X62750Y-51080D01*
X62750Y-51080D02*
X62140Y-51080D01*
X62140Y-51080D02*
X56850Y-56371D01*
X56850Y-56371D02*
X56850Y-58500D01*
X56850Y-58500D02*
X56806Y-58722D01*
X56806Y-58722D02*
X56680Y-58910D01*
X56680Y-58910D02*
X56492Y-59036D01*
X56492Y-59036D02*
X56270Y-59080D01*
X56270Y-59080D02*
X56270Y-60855D01*
X56270Y-60855D02*
X57641Y-60855D01*
X57641Y-60855D02*
X57641Y-59049D01*
X57641Y-59049D02*
X57439Y-58965D01*
X57439Y-58965D02*
X57285Y-58811D01*
X57285Y-58811D02*
X57201Y-58609D01*
X57201Y-58609D02*
X57201Y-58391D01*
X57201Y-58391D02*
X57285Y-58189D01*
X57285Y-58189D02*
X57439Y-58035D01*
X57439Y-58035D02*
X57641Y-57951D01*
X57641Y-57951D02*
X57859Y-57951D01*
X57859Y-57951D02*
X58061Y-58035D01*
X58061Y-58035D02*
X58215Y-58189D01*
X58215Y-58189D02*
X58299Y-58391D01*
X58299Y-58391D02*
X58299Y-58609D01*
X58299Y-58609D02*
X58215Y-58811D01*
X58215Y-58811D02*
X58061Y-58965D01*
X58061Y-58965D02*
X57859Y-59049D01*
X57859Y-59049D02*
X57641Y-59049D01*
X57641Y-59049D02*
X57641Y-60855D01*
X57641Y-60855D02*
X59121Y-60855D01*
X59121Y-60855D02*
X59121Y-59049D01*
X59121Y-59049D02*
X58919Y-58965D01*
X58919Y-58965D02*
X58765Y-58811D01*
X58765Y-58811D02*
X58681Y-58609D01*
X58681Y-58609D02*
X58681Y-58391D01*
X58681Y-58391D02*
X58765Y-58189D01*
X58765Y-58189D02*
X58919Y-58035D01*
X58919Y-58035D02*
X59121Y-57951D01*
X59121Y-57951D02*
X59339Y-57951D01*
X59339Y-57951D02*
X59541Y-58035D01*
X59541Y-58035D02*
X59695Y-58189D01*
X59695Y-58189D02*
X59779Y-58391D01*
X59779Y-58391D02*
X59779Y-58609D01*
X59779Y-58609D02*
X59695Y-58811D01*
X59695Y-58811D02*
X59541Y-58965D01*
X59541Y-58965D02*
X59339Y-59049D01*
X59339Y-59049D02*
X59121Y-59049D01*
X59121Y-59049D02*
X59121Y-60855D01*
X59121Y-60855D02*
X60140Y-60855D01*
X60140Y-60855D02*
X60140Y-60530D01*
X60140Y-60530D02*
X59828Y-60400D01*
X59828Y-60400D02*
X59589Y-60160D01*
X59589Y-60160D02*
X59460Y-59848D01*
X59460Y-59848D02*
X59460Y-59510D01*
X59460Y-59510D02*
X59590Y-59198D01*
X59590Y-59198D02*
X59830Y-58959D01*
X59830Y-58959D02*
X60080Y-58855D01*
X60080Y-58855D02*
X60080Y-55410D01*
X60080Y-55410D02*
X59768Y-55280D01*
X59768Y-55280D02*
X59529Y-55040D01*
X59529Y-55040D02*
X59400Y-54728D01*
X59400Y-54728D02*
X59400Y-54390D01*
X59400Y-54390D02*
X59530Y-54078D01*
X59530Y-54078D02*
X59770Y-53839D01*
X59770Y-53839D02*
X60082Y-53710D01*
X60082Y-53710D02*
X60420Y-53710D01*
X60420Y-53710D02*
X60732Y-53840D01*
X60732Y-53840D02*
X60971Y-54080D01*
X60971Y-54080D02*
X61100Y-54392D01*
X61100Y-54392D02*
X61100Y-54730D01*
X61100Y-54730D02*
X60970Y-55042D01*
X60970Y-55042D02*
X60730Y-55281D01*
X60730Y-55281D02*
X60418Y-55410D01*
X60418Y-55410D02*
X60080Y-55410D01*
X60080Y-55410D02*
X60080Y-58855D01*
X60080Y-58855D02*
X60142Y-58830D01*
X60142Y-58830D02*
X60480Y-58830D01*
X60480Y-58830D02*
X60792Y-58960D01*
X60792Y-58960D02*
X61031Y-59200D01*
X61031Y-59200D02*
X61160Y-59512D01*
X61160Y-59512D02*
X61160Y-59850D01*
X61160Y-59850D02*
X61030Y-60162D01*
X61030Y-60162D02*
X60790Y-60401D01*
X60790Y-60401D02*
X60478Y-60530D01*
X60478Y-60530D02*
X60140Y-60530D01*
X60140Y-60530D02*
X60140Y-60855D01*
X60140Y-60855D02*
X62570Y-60855D01*
X62570Y-60855D02*
X62570Y-60650D01*
X62570Y-60650D02*
X62239Y-60512D01*
X62239Y-60512D02*
X61987Y-60259D01*
X61987Y-60259D02*
X61850Y-59928D01*
X61850Y-59928D02*
X61850Y-59570D01*
X61850Y-59570D02*
X61988Y-59239D01*
X61988Y-59239D02*
X62241Y-58987D01*
X62241Y-58987D02*
X62570Y-58850D01*
X62570Y-58850D02*
X62570Y-56900D01*
X62570Y-56900D02*
X62239Y-56762D01*
X62239Y-56762D02*
X61987Y-56509D01*
X61987Y-56509D02*
X61850Y-56178D01*
X61850Y-56178D02*
X61850Y-55820D01*
X61850Y-55820D02*
X61988Y-55489D01*
X61988Y-55489D02*
X62241Y-55237D01*
X62241Y-55237D02*
X62572Y-55100D01*
X62572Y-55100D02*
X62641Y-55100D01*
X62641Y-55100D02*
X62641Y-53049D01*
X62641Y-53049D02*
X62439Y-52965D01*
X62439Y-52965D02*
X62285Y-52811D01*
X62285Y-52811D02*
X62201Y-52609D01*
X62201Y-52609D02*
X62201Y-52391D01*
X62201Y-52391D02*
X62285Y-52189D01*
X62285Y-52189D02*
X62439Y-52035D01*
X62439Y-52035D02*
X62641Y-51951D01*
X62641Y-51951D02*
X62859Y-51951D01*
X62859Y-51951D02*
X63061Y-52035D01*
X63061Y-52035D02*
X63215Y-52189D01*
X63215Y-52189D02*
X63299Y-52391D01*
X63299Y-52391D02*
X63299Y-52609D01*
X63299Y-52609D02*
X63215Y-52811D01*
X63215Y-52811D02*
X63061Y-52965D01*
X63061Y-52965D02*
X62859Y-53049D01*
X62859Y-53049D02*
X62641Y-53049D01*
X62641Y-53049D02*
X62641Y-55100D01*
X62641Y-55100D02*
X62930Y-55100D01*
X62930Y-55100D02*
X63261Y-55238D01*
X63261Y-55238D02*
X63513Y-55491D01*
X63513Y-55491D02*
X63650Y-55822D01*
X63650Y-55822D02*
X63650Y-56180D01*
X63650Y-56180D02*
X63512Y-56511D01*
X63512Y-56511D02*
X63259Y-56763D01*
X63259Y-56763D02*
X62928Y-56900D01*
X62928Y-56900D02*
X62570Y-56900D01*
X62570Y-56900D02*
X62570Y-58850D01*
X62570Y-58850D02*
X62930Y-58850D01*
X62930Y-58850D02*
X63261Y-58988D01*
X63261Y-58988D02*
X63513Y-59241D01*
X63513Y-59241D02*
X63650Y-59572D01*
X63650Y-59572D02*
X63650Y-59930D01*
X63650Y-59930D02*
X63512Y-60261D01*
X63512Y-60261D02*
X63259Y-60513D01*
X63259Y-60513D02*
X62928Y-60650D01*
X62928Y-60650D02*
X62570Y-60650D01*
X62570Y-60650D02*
X62570Y-60855D01*
X62570Y-60855D02*
X63855Y-60855D01*
M02*
