G04 (created by PCBnew (20090216-final)) date Fri 26 Feb 2010 04:38:52 PM PST*
G01*
G70*
G90*
%MOIN*%
G04 Gerber Fmt 3.4, Leading zero omitted, Abs format*
%FSLAX34Y34*%
G04 APERTURE LIST*
%ADD10C,0.009000*%
%ADD11C,0.073000*%
%ADD12R,0.073000X0.073000*%
%ADD13C,0.053000*%
%ADD14R,0.050000X0.100000*%
%ADD15R,0.035000X0.085000*%
%ADD16C,0.080000*%
%ADD17C,0.078000*%
%ADD18C,0.260000*%
%ADD19C,0.140000*%
%ADD20C,0.150000*%
%ADD21C,0.086000*%
%ADD22C,0.077800*%
%ADD23C,0.006000*%
%ADD24R,0.055000X0.098000*%
%ADD25R,0.070000X0.135000*%
%ADD26C,0.009000*%
%ADD27C,0.005000*%
%ADD28C,0.015000*%
%ADD29C,0.010000*%
%ADD30C,0.012000*%
%ADD31C,0.093000*%
%ADD32R,0.093000X0.093000*%
%ADD33R,0.070000X0.120000*%
%ADD34R,0.055000X0.105000*%
%ADD35C,0.100000*%
%ADD36C,0.098000*%
%ADD37C,0.280000*%
%ADD38C,0.160000*%
%ADD39C,0.170000*%
%ADD40R,0.075000X0.118000*%
%ADD41R,0.090000X0.155000*%
%ADD42C,0.079000*%
%ADD43R,0.079000X0.079000*%
%ADD44C,0.059000*%
%ADD45R,0.056000X0.106000*%
%ADD46R,0.041000X0.091000*%
%ADD47C,0.086000*%
%ADD48C,0.084000*%
%ADD49C,0.266000*%
%ADD50C,0.146000*%
%ADD51C,0.156000*%
%ADD52R,0.061000X0.104000*%
%ADD53R,0.076000X0.141000*%
G04 APERTURE END LIST*
G54D10*
X64000Y-31000D02*
X51500Y-31000D01*
X64000Y-61000D02*
X64000Y-31000D01*
X51500Y-61000D02*
X64000Y-61000D01*
X51500Y-31000D02*
X51500Y-61000D01*
G54D29*
X55618Y-37800D02*
X55618Y-37200D01*
X55618Y-37200D02*
X55929Y-37200D01*
X55618Y-37467D02*
X55796Y-37467D01*
X56162Y-37600D02*
X56473Y-37600D01*
X56473Y-37600D02*
X56473Y-37467D01*
X56473Y-37467D02*
X56429Y-37400D01*
X56429Y-37400D02*
X56206Y-37400D01*
X56206Y-37400D02*
X56162Y-37467D01*
X56162Y-37467D02*
X56162Y-37734D01*
X56162Y-37734D02*
X56206Y-37800D01*
X56206Y-37800D02*
X56429Y-37800D01*
X56429Y-37800D02*
X56473Y-37734D01*
X56706Y-37200D02*
X56706Y-37800D01*
X56706Y-37800D02*
X57017Y-37800D01*
X57017Y-37800D02*
X57017Y-37534D01*
X57017Y-37534D02*
X56973Y-37467D01*
X56973Y-37467D02*
X56706Y-37467D01*
X58105Y-37800D02*
X57794Y-37800D01*
X57794Y-37800D02*
X57794Y-37600D01*
X57794Y-37600D02*
X57838Y-37534D01*
X57838Y-37534D02*
X58061Y-37534D01*
X58061Y-37534D02*
X58105Y-37467D01*
X58105Y-37467D02*
X58105Y-37267D01*
X58105Y-37267D02*
X58061Y-37200D01*
X58061Y-37200D02*
X57838Y-37200D01*
X57838Y-37200D02*
X57794Y-37267D01*
X58338Y-37800D02*
X58649Y-37200D01*
X58338Y-37734D02*
X58338Y-37267D01*
X58338Y-37267D02*
X58382Y-37200D01*
X58382Y-37200D02*
X58605Y-37200D01*
X58605Y-37200D02*
X58649Y-37267D01*
X58649Y-37267D02*
X58649Y-37734D01*
X58649Y-37734D02*
X58605Y-37800D01*
X58605Y-37800D02*
X58382Y-37800D01*
X58382Y-37800D02*
X58338Y-37734D01*
X58971Y-37800D02*
X59149Y-37800D01*
X59060Y-37800D02*
X59060Y-37200D01*
X59060Y-37267D02*
X58971Y-37400D01*
X59426Y-37800D02*
X59737Y-37200D01*
X59426Y-37734D02*
X59426Y-37267D01*
X59426Y-37267D02*
X59470Y-37200D01*
X59470Y-37200D02*
X59693Y-37200D01*
X59693Y-37200D02*
X59737Y-37267D01*
X59737Y-37267D02*
X59737Y-37734D01*
X59737Y-37734D02*
X59693Y-37800D01*
X59693Y-37800D02*
X59470Y-37800D01*
X59470Y-37800D02*
X59426Y-37734D01*
X55890Y-36200D02*
X56068Y-36800D01*
X56068Y-36800D02*
X56246Y-36200D01*
X56434Y-36600D02*
X56745Y-36600D01*
X56745Y-36600D02*
X56745Y-36467D01*
X56745Y-36467D02*
X56701Y-36400D01*
X56701Y-36400D02*
X56478Y-36400D01*
X56478Y-36400D02*
X56434Y-36467D01*
X56434Y-36467D02*
X56434Y-36734D01*
X56434Y-36734D02*
X56478Y-36800D01*
X56478Y-36800D02*
X56701Y-36800D01*
X56701Y-36800D02*
X56745Y-36734D01*
X56978Y-36800D02*
X56978Y-36400D01*
X56978Y-36534D02*
X57067Y-36400D01*
X57067Y-36400D02*
X57200Y-36400D01*
X57200Y-36400D02*
X57289Y-36534D01*
X58155Y-36800D02*
X58333Y-36800D01*
X58244Y-36800D02*
X58244Y-36200D01*
X58244Y-36267D02*
X58155Y-36400D01*
X58743Y-36800D02*
X58743Y-36734D01*
X59243Y-36800D02*
X59421Y-36800D01*
X59332Y-36800D02*
X59332Y-36200D01*
X59332Y-36267D02*
X59243Y-36400D01*
X54025Y-35734D02*
X53981Y-35800D01*
X53981Y-35800D02*
X53758Y-35800D01*
X53758Y-35800D02*
X53714Y-35734D01*
X53714Y-35734D02*
X53714Y-35267D01*
X53714Y-35267D02*
X53758Y-35200D01*
X53758Y-35200D02*
X53981Y-35200D01*
X53981Y-35200D02*
X54025Y-35267D01*
X54258Y-35400D02*
X54258Y-35667D01*
X54258Y-35667D02*
X54347Y-35800D01*
X54347Y-35800D02*
X54480Y-35800D01*
X54480Y-35800D02*
X54569Y-35667D01*
X54569Y-35667D02*
X54569Y-35400D01*
X54802Y-35800D02*
X54802Y-35400D01*
X54802Y-35534D02*
X54891Y-35400D01*
X54891Y-35400D02*
X55024Y-35400D01*
X55024Y-35400D02*
X55113Y-35534D01*
X55346Y-35800D02*
X55346Y-35400D01*
X55346Y-35534D02*
X55435Y-35400D01*
X55435Y-35400D02*
X55568Y-35400D01*
X55568Y-35400D02*
X55657Y-35534D01*
X55890Y-35600D02*
X56201Y-35600D01*
X56201Y-35600D02*
X56201Y-35467D01*
X56201Y-35467D02*
X56157Y-35400D01*
X56157Y-35400D02*
X55934Y-35400D01*
X55934Y-35400D02*
X55890Y-35467D01*
X55890Y-35467D02*
X55890Y-35734D01*
X55890Y-35734D02*
X55934Y-35800D01*
X55934Y-35800D02*
X56157Y-35800D01*
X56157Y-35800D02*
X56201Y-35734D01*
X56434Y-35800D02*
X56434Y-35400D01*
X56434Y-35467D02*
X56478Y-35400D01*
X56478Y-35400D02*
X56656Y-35400D01*
X56656Y-35400D02*
X56701Y-35467D01*
X56701Y-35467D02*
X56701Y-35800D01*
X57245Y-35734D02*
X57200Y-35800D01*
X57200Y-35800D02*
X57067Y-35800D01*
X57067Y-35800D02*
X57022Y-35734D01*
X57022Y-35734D02*
X57022Y-35200D01*
X57022Y-35400D02*
X57156Y-35400D01*
X58377Y-35734D02*
X58333Y-35800D01*
X58333Y-35800D02*
X58110Y-35800D01*
X58110Y-35800D02*
X58066Y-35734D01*
X58066Y-35734D02*
X58066Y-35267D01*
X58066Y-35267D02*
X58110Y-35200D01*
X58110Y-35200D02*
X58333Y-35200D01*
X58333Y-35200D02*
X58377Y-35267D01*
X58654Y-35800D02*
X58610Y-35734D01*
X58610Y-35734D02*
X58610Y-35467D01*
X58610Y-35467D02*
X58654Y-35400D01*
X58654Y-35400D02*
X58877Y-35400D01*
X58877Y-35400D02*
X58921Y-35467D01*
X58921Y-35467D02*
X58921Y-35734D01*
X58921Y-35734D02*
X58877Y-35800D01*
X58877Y-35800D02*
X58654Y-35800D01*
X59154Y-35800D02*
X59154Y-35400D01*
X59154Y-35467D02*
X59198Y-35400D01*
X59198Y-35400D02*
X59376Y-35400D01*
X59376Y-35400D02*
X59421Y-35467D01*
X59421Y-35467D02*
X59421Y-35800D01*
X59965Y-35734D02*
X59920Y-35800D01*
X59920Y-35800D02*
X59787Y-35800D01*
X59787Y-35800D02*
X59742Y-35734D01*
X59742Y-35734D02*
X59742Y-35200D01*
X59742Y-35400D02*
X59876Y-35400D01*
X60242Y-35800D02*
X60242Y-35400D01*
X60242Y-35534D02*
X60331Y-35400D01*
X60331Y-35400D02*
X60464Y-35400D01*
X60464Y-35400D02*
X60553Y-35534D01*
X60830Y-35800D02*
X60786Y-35734D01*
X60786Y-35734D02*
X60786Y-35467D01*
X60786Y-35467D02*
X60830Y-35400D01*
X60830Y-35400D02*
X61053Y-35400D01*
X61053Y-35400D02*
X61097Y-35467D01*
X61097Y-35467D02*
X61097Y-35734D01*
X61097Y-35734D02*
X61053Y-35800D01*
X61053Y-35800D02*
X60830Y-35800D01*
X61419Y-35200D02*
X61463Y-35200D01*
X61463Y-35200D02*
X61463Y-35800D01*
X61419Y-35800D02*
X61508Y-35800D01*
G54D28*
X59000Y-34000D02*
X59000Y-31250D01*
X59000Y-34000D02*
X56500Y-34000D01*
X56500Y-34000D02*
X56500Y-31250D01*
X59000Y-31250D02*
X56500Y-31250D01*
X57250Y-40450D02*
X56350Y-40450D01*
X56350Y-40450D02*
X56350Y-39050D01*
X56350Y-39050D02*
X57250Y-39050D01*
X58250Y-40450D02*
X59150Y-40450D01*
X59150Y-40450D02*
X59150Y-39050D01*
X59150Y-39050D02*
X58250Y-39050D01*
X63150Y-51500D02*
X62350Y-51500D01*
X63150Y-51500D02*
X63141Y-51417D01*
X63141Y-51417D02*
X63115Y-51337D01*
X63115Y-51337D02*
X63074Y-51265D01*
X63074Y-51265D02*
X63018Y-51203D01*
X63018Y-51203D02*
X62950Y-51154D01*
X62950Y-51154D02*
X62874Y-51120D01*
X62874Y-51120D02*
X62792Y-51102D01*
X62792Y-51102D02*
X62750Y-51100D01*
X62750Y-51100D02*
X62667Y-51109D01*
X62667Y-51109D02*
X62587Y-51135D01*
X62587Y-51135D02*
X62515Y-51176D01*
X62515Y-51176D02*
X62453Y-51232D01*
X62453Y-51232D02*
X62404Y-51300D01*
X62404Y-51300D02*
X62370Y-51376D01*
X62370Y-51376D02*
X62352Y-51458D01*
X62352Y-51458D02*
X62350Y-51500D01*
X63750Y-49750D02*
X61750Y-49750D01*
X61750Y-49750D02*
X61750Y-53250D01*
X61750Y-53250D02*
X63750Y-53250D01*
X63750Y-53250D02*
X63750Y-49750D01*
X60250Y-42500D02*
X60250Y-50750D01*
X60250Y-50750D02*
X51750Y-50750D01*
X51750Y-50750D02*
X51750Y-42500D01*
X60250Y-42500D02*
X51750Y-42500D01*
X61500Y-45250D02*
X62000Y-45000D01*
X62000Y-45000D02*
X61500Y-44750D01*
X61500Y-44750D02*
X61500Y-45250D01*
X61250Y-47750D02*
X61250Y-44250D01*
X61250Y-44250D02*
X62000Y-44250D01*
X61250Y-47750D02*
X62000Y-47750D01*
X62000Y-47750D02*
X63500Y-47750D01*
X63500Y-47750D02*
X63500Y-44250D01*
X63500Y-44250D02*
X62000Y-44250D01*
X62000Y-44250D02*
X62000Y-47750D01*
X54000Y-52000D02*
X54000Y-60750D01*
X54000Y-60750D02*
X61500Y-60750D01*
X61500Y-60750D02*
X61500Y-52000D01*
X61500Y-52000D02*
X54000Y-52000D01*
X59014Y-54550D02*
X58989Y-54795D01*
X58989Y-54795D02*
X58918Y-55031D01*
X58918Y-55031D02*
X58802Y-55249D01*
X58802Y-55249D02*
X58646Y-55440D01*
X58646Y-55440D02*
X58456Y-55597D01*
X58456Y-55597D02*
X58239Y-55715D01*
X58239Y-55715D02*
X58004Y-55788D01*
X58004Y-55788D02*
X57758Y-55813D01*
X57758Y-55813D02*
X57514Y-55791D01*
X57514Y-55791D02*
X57277Y-55721D01*
X57277Y-55721D02*
X57058Y-55607D01*
X57058Y-55607D02*
X56866Y-55453D01*
X56866Y-55453D02*
X56708Y-55264D01*
X56708Y-55264D02*
X56589Y-55047D01*
X56589Y-55047D02*
X56514Y-54812D01*
X56514Y-54812D02*
X56487Y-54567D01*
X56487Y-54567D02*
X56507Y-54322D01*
X56507Y-54322D02*
X56575Y-54085D01*
X56575Y-54085D02*
X56688Y-53866D01*
X56688Y-53866D02*
X56841Y-53672D01*
X56841Y-53672D02*
X57029Y-53513D01*
X57029Y-53513D02*
X57244Y-53392D01*
X57244Y-53392D02*
X57479Y-53316D01*
X57479Y-53316D02*
X57724Y-53287D01*
X57724Y-53287D02*
X57969Y-53306D01*
X57969Y-53306D02*
X58207Y-53372D01*
X58207Y-53372D02*
X58427Y-53483D01*
X58427Y-53483D02*
X58621Y-53635D01*
X58621Y-53635D02*
X58782Y-53822D01*
X58782Y-53822D02*
X58904Y-54036D01*
X58904Y-54036D02*
X58982Y-54270D01*
X58982Y-54270D02*
X59013Y-54515D01*
X59013Y-54515D02*
X59014Y-54550D01*
G54D30*
X56300Y-33220D02*
X55700Y-33220D01*
X55700Y-33220D02*
X55700Y-32820D01*
X55700Y-32820D02*
X55767Y-32753D01*
X55767Y-32753D02*
X55967Y-32753D01*
X55967Y-32753D02*
X56034Y-32820D01*
X56034Y-32820D02*
X56034Y-33220D01*
X56300Y-32300D02*
X56300Y-32034D01*
X56300Y-32167D02*
X55700Y-32167D01*
X55767Y-32167D02*
X55900Y-32300D01*
X56318Y-34800D02*
X55851Y-34800D01*
X55851Y-34800D02*
X55851Y-34600D01*
X55851Y-34600D02*
X55918Y-34534D01*
X55918Y-34534D02*
X56251Y-34534D01*
X56251Y-34534D02*
X56318Y-34467D01*
X56318Y-34467D02*
X56318Y-34267D01*
X56318Y-34267D02*
X56251Y-34200D01*
X56251Y-34200D02*
X55918Y-34200D01*
X55918Y-34200D02*
X55851Y-34267D01*
X56971Y-34800D02*
X56971Y-34200D01*
X56971Y-34200D02*
X56637Y-34667D01*
X56637Y-34667D02*
X57104Y-34667D01*
X57423Y-34200D02*
X57690Y-34800D01*
X57690Y-34800D02*
X57957Y-34200D01*
X58276Y-34800D02*
X58276Y-34200D01*
X58209Y-34200D02*
X58609Y-34200D01*
X58609Y-34200D02*
X58676Y-34267D01*
X58676Y-34267D02*
X58676Y-34734D01*
X58676Y-34734D02*
X58609Y-34800D01*
X58609Y-34800D02*
X58209Y-34800D01*
X59462Y-34734D02*
X59395Y-34800D01*
X59395Y-34800D02*
X59062Y-34800D01*
X59062Y-34800D02*
X58995Y-34734D01*
X58995Y-34734D02*
X58995Y-34267D01*
X58995Y-34267D02*
X59062Y-34200D01*
X59062Y-34200D02*
X59395Y-34200D01*
X59395Y-34200D02*
X59462Y-34267D01*
X57030Y-38800D02*
X57030Y-38200D01*
X57030Y-38200D02*
X57430Y-38200D01*
X57430Y-38200D02*
X57497Y-38267D01*
X57497Y-38267D02*
X57497Y-38467D01*
X57497Y-38467D02*
X57430Y-38534D01*
X57430Y-38534D02*
X57030Y-38534D01*
X57230Y-38534D02*
X57497Y-38800D01*
X57950Y-38800D02*
X58216Y-38800D01*
X58083Y-38800D02*
X58083Y-38200D01*
X58083Y-38267D02*
X57950Y-38400D01*
X56637Y-41300D02*
X57104Y-40700D01*
X56637Y-41234D02*
X56637Y-40767D01*
X56637Y-40767D02*
X56704Y-40700D01*
X56704Y-40700D02*
X57037Y-40700D01*
X57037Y-40700D02*
X57104Y-40767D01*
X57104Y-40767D02*
X57104Y-41234D01*
X57104Y-41234D02*
X57037Y-41300D01*
X57037Y-41300D02*
X56704Y-41300D01*
X56704Y-41300D02*
X56637Y-41234D01*
X57623Y-41300D02*
X57623Y-41234D01*
X58343Y-41300D02*
X58609Y-41300D01*
X58476Y-41300D02*
X58476Y-40700D01*
X58476Y-40767D02*
X58343Y-40900D01*
X52137Y-40700D02*
X52671Y-40700D01*
X52404Y-40700D02*
X52404Y-41300D01*
X52923Y-41300D02*
X52923Y-40700D01*
X52923Y-40700D02*
X53323Y-40700D01*
X53323Y-40700D02*
X53390Y-40767D01*
X53390Y-40767D02*
X53390Y-40967D01*
X53390Y-40967D02*
X53323Y-41034D01*
X53323Y-41034D02*
X52923Y-41034D01*
X54176Y-41300D02*
X53709Y-41300D01*
X53709Y-41300D02*
X53709Y-41100D01*
X53709Y-41100D02*
X53776Y-41034D01*
X53776Y-41034D02*
X54109Y-41034D01*
X54109Y-41034D02*
X54176Y-40967D01*
X54176Y-40967D02*
X54176Y-40767D01*
X54176Y-40767D02*
X54109Y-40700D01*
X54109Y-40700D02*
X53776Y-40700D01*
X53776Y-40700D02*
X53709Y-40767D01*
X53984Y-39896D02*
X54050Y-39963D01*
X54050Y-39963D02*
X54050Y-40296D01*
X54050Y-40296D02*
X53984Y-40363D01*
X53984Y-40363D02*
X53517Y-40363D01*
X53517Y-40363D02*
X53450Y-40296D01*
X53450Y-40296D02*
X53450Y-39963D01*
X53450Y-39963D02*
X53517Y-39896D01*
X53984Y-39577D02*
X54050Y-39510D01*
X54050Y-39510D02*
X54050Y-39177D01*
X54050Y-39177D02*
X53984Y-39110D01*
X53984Y-39110D02*
X53784Y-39110D01*
X53784Y-39110D02*
X53717Y-39177D01*
X53717Y-39177D02*
X53717Y-39510D01*
X53717Y-39510D02*
X53650Y-39577D01*
X53650Y-39577D02*
X53517Y-39577D01*
X53517Y-39577D02*
X53450Y-39510D01*
X53450Y-39510D02*
X53450Y-39177D01*
X53450Y-39177D02*
X53517Y-39110D01*
X53784Y-38791D02*
X53784Y-38391D01*
X53984Y-38591D02*
X53584Y-38591D01*
X61137Y-40700D02*
X61671Y-40700D01*
X61404Y-40700D02*
X61404Y-41300D01*
X61923Y-41300D02*
X61923Y-40700D01*
X61923Y-40700D02*
X62323Y-40700D01*
X62323Y-40700D02*
X62390Y-40767D01*
X62390Y-40767D02*
X62390Y-40967D01*
X62390Y-40967D02*
X62323Y-41034D01*
X62323Y-41034D02*
X61923Y-41034D01*
X62843Y-41300D02*
X63109Y-41300D01*
X62976Y-41300D02*
X62976Y-40700D01*
X62976Y-40767D02*
X62843Y-40900D01*
X61984Y-39896D02*
X62050Y-39963D01*
X62050Y-39963D02*
X62050Y-40296D01*
X62050Y-40296D02*
X61984Y-40363D01*
X61984Y-40363D02*
X61517Y-40363D01*
X61517Y-40363D02*
X61450Y-40296D01*
X61450Y-40296D02*
X61450Y-39963D01*
X61450Y-39963D02*
X61517Y-39896D01*
X61984Y-39577D02*
X62050Y-39510D01*
X62050Y-39510D02*
X62050Y-39177D01*
X62050Y-39177D02*
X61984Y-39110D01*
X61984Y-39110D02*
X61784Y-39110D01*
X61784Y-39110D02*
X61717Y-39177D01*
X61717Y-39177D02*
X61717Y-39510D01*
X61717Y-39510D02*
X61650Y-39577D01*
X61650Y-39577D02*
X61517Y-39577D01*
X61517Y-39577D02*
X61450Y-39510D01*
X61450Y-39510D02*
X61450Y-39177D01*
X61450Y-39177D02*
X61517Y-39110D01*
X61784Y-38724D02*
X61784Y-38391D01*
X61484Y-51613D02*
X61550Y-51546D01*
X61550Y-51546D02*
X61550Y-51213D01*
X61550Y-51213D02*
X61484Y-51146D01*
X61484Y-51146D02*
X61284Y-51146D01*
X61284Y-51146D02*
X61217Y-51213D01*
X61217Y-51213D02*
X61217Y-51546D01*
X61217Y-51546D02*
X61150Y-51613D01*
X61150Y-51613D02*
X61017Y-51613D01*
X61017Y-51613D02*
X60950Y-51546D01*
X60950Y-51546D02*
X60950Y-51213D01*
X60950Y-51213D02*
X61017Y-51146D01*
X60950Y-50827D02*
X61550Y-50693D01*
X61550Y-50693D02*
X61350Y-50560D01*
X61350Y-50560D02*
X61550Y-50427D01*
X61550Y-50427D02*
X60950Y-50293D01*
X61550Y-49907D02*
X61550Y-49641D01*
X61550Y-49774D02*
X60950Y-49774D01*
X61017Y-49774D02*
X61150Y-49907D01*
X62097Y-49550D02*
X62030Y-49484D01*
X62030Y-49484D02*
X62030Y-49017D01*
X62030Y-49017D02*
X62097Y-48950D01*
X62097Y-48950D02*
X62430Y-48950D01*
X62430Y-48950D02*
X62497Y-49017D01*
X62497Y-49017D02*
X62497Y-49484D01*
X62497Y-49484D02*
X62430Y-49550D01*
X62430Y-49550D02*
X62097Y-49550D01*
X62816Y-49550D02*
X62816Y-48950D01*
X62816Y-48950D02*
X63283Y-49550D01*
X63283Y-49550D02*
X63283Y-48950D01*
X61854Y-54100D02*
X61787Y-54034D01*
X61787Y-54034D02*
X61787Y-53567D01*
X61787Y-53567D02*
X61854Y-53500D01*
X61854Y-53500D02*
X62187Y-53500D01*
X62187Y-53500D02*
X62254Y-53567D01*
X62254Y-53567D02*
X62254Y-54034D01*
X62254Y-54034D02*
X62187Y-54100D01*
X62187Y-54100D02*
X61854Y-54100D01*
X62573Y-54100D02*
X62573Y-53500D01*
X62573Y-53500D02*
X63040Y-53500D01*
X62573Y-53767D02*
X62840Y-53767D01*
X63359Y-54100D02*
X63359Y-53500D01*
X63359Y-53500D02*
X63826Y-53500D01*
X63359Y-53767D02*
X63626Y-53767D01*
X58137Y-42300D02*
X58137Y-41700D01*
X58137Y-41700D02*
X58537Y-41700D01*
X58537Y-41700D02*
X58604Y-41767D01*
X58604Y-41767D02*
X58604Y-41900D01*
X58604Y-41900D02*
X58537Y-41967D01*
X58537Y-41967D02*
X58137Y-41967D01*
X58537Y-41967D02*
X58604Y-42100D01*
X58604Y-42100D02*
X58604Y-42234D01*
X58604Y-42234D02*
X58537Y-42300D01*
X58537Y-42300D02*
X58137Y-42300D01*
X58923Y-42300D02*
X58923Y-41700D01*
X58923Y-41700D02*
X59323Y-41700D01*
X59323Y-41700D02*
X59390Y-41767D01*
X59390Y-41767D02*
X59390Y-41967D01*
X59390Y-41967D02*
X59323Y-42034D01*
X59323Y-42034D02*
X58923Y-42034D01*
X59843Y-42300D02*
X60109Y-42300D01*
X59976Y-42300D02*
X59976Y-41700D01*
X59976Y-41767D02*
X59843Y-41900D01*
X52922Y-51550D02*
X52922Y-50950D01*
X52922Y-50950D02*
X53322Y-50950D01*
X53322Y-50950D02*
X53389Y-51017D01*
X53389Y-51017D02*
X53389Y-51150D01*
X53389Y-51150D02*
X53322Y-51217D01*
X53322Y-51217D02*
X52922Y-51217D01*
X53322Y-51217D02*
X53389Y-51350D01*
X53389Y-51350D02*
X53389Y-51484D01*
X53389Y-51484D02*
X53322Y-51550D01*
X53322Y-51550D02*
X52922Y-51550D01*
X53708Y-50950D02*
X53708Y-51484D01*
X53708Y-51484D02*
X53775Y-51550D01*
X53775Y-51550D02*
X54108Y-51550D01*
X54108Y-51550D02*
X54175Y-51484D01*
X54175Y-51484D02*
X54175Y-50950D01*
X54961Y-51484D02*
X54894Y-51550D01*
X54894Y-51550D02*
X54561Y-51550D01*
X54561Y-51550D02*
X54494Y-51484D01*
X54494Y-51484D02*
X54494Y-51017D01*
X54494Y-51017D02*
X54561Y-50950D01*
X54561Y-50950D02*
X54894Y-50950D01*
X54894Y-50950D02*
X54961Y-51017D01*
X55280Y-51550D02*
X55280Y-50950D01*
X55680Y-50950D02*
X55280Y-51217D01*
X55280Y-51217D02*
X55747Y-51550D01*
X56066Y-51550D02*
X56066Y-50950D01*
X56066Y-50950D02*
X56466Y-50950D01*
X56466Y-50950D02*
X56533Y-51017D01*
X56533Y-51017D02*
X56533Y-51217D01*
X56533Y-51217D02*
X56466Y-51284D01*
X56466Y-51284D02*
X56066Y-51284D01*
X56852Y-50950D02*
X56852Y-51484D01*
X56852Y-51484D02*
X56919Y-51550D01*
X56919Y-51550D02*
X57252Y-51550D01*
X57252Y-51550D02*
X57319Y-51484D01*
X57319Y-51484D02*
X57319Y-50950D01*
X58105Y-51484D02*
X58038Y-51550D01*
X58038Y-51550D02*
X57705Y-51550D01*
X57705Y-51550D02*
X57638Y-51484D01*
X57638Y-51484D02*
X57638Y-51017D01*
X57638Y-51017D02*
X57705Y-50950D01*
X57705Y-50950D02*
X58038Y-50950D01*
X58038Y-50950D02*
X58105Y-51017D01*
X58424Y-51550D02*
X58424Y-50950D01*
X58824Y-50950D02*
X58424Y-51217D01*
X58424Y-51217D02*
X58891Y-51550D01*
X61780Y-43800D02*
X61780Y-43200D01*
X62180Y-43200D02*
X61780Y-43467D01*
X61780Y-43467D02*
X62247Y-43800D01*
X62700Y-43800D02*
X62966Y-43800D01*
X62833Y-43800D02*
X62833Y-43200D01*
X62833Y-43267D02*
X62700Y-43400D01*
X60984Y-46646D02*
X61050Y-46713D01*
X61050Y-46713D02*
X61050Y-47046D01*
X61050Y-47046D02*
X60984Y-47113D01*
X60984Y-47113D02*
X60517Y-47113D01*
X60517Y-47113D02*
X60450Y-47046D01*
X60450Y-47046D02*
X60450Y-46713D01*
X60450Y-46713D02*
X60517Y-46646D01*
X60984Y-45860D02*
X61050Y-45927D01*
X61050Y-45927D02*
X61050Y-46260D01*
X61050Y-46260D02*
X60984Y-46327D01*
X60984Y-46327D02*
X60517Y-46327D01*
X60517Y-46327D02*
X60450Y-46260D01*
X60450Y-46260D02*
X60450Y-45927D01*
X60450Y-45927D02*
X60517Y-45860D01*
X61050Y-45541D02*
X60450Y-45541D01*
X60450Y-45541D02*
X60450Y-45141D01*
X60450Y-45141D02*
X60517Y-45074D01*
X60517Y-45074D02*
X60650Y-45074D01*
X60650Y-45074D02*
X60717Y-45141D01*
X60717Y-45141D02*
X60717Y-45541D01*
X60717Y-45141D02*
X60850Y-45074D01*
X60850Y-45074D02*
X60984Y-45074D01*
X60984Y-45074D02*
X61050Y-45141D01*
X61050Y-45141D02*
X61050Y-45541D01*
X53800Y-54863D02*
X53200Y-54863D01*
X53200Y-54863D02*
X53200Y-54463D01*
X53200Y-54463D02*
X53267Y-54396D01*
X53267Y-54396D02*
X53467Y-54396D01*
X53467Y-54396D02*
X53534Y-54463D01*
X53534Y-54463D02*
X53534Y-54863D01*
X53534Y-54663D02*
X53800Y-54396D01*
X53200Y-54077D02*
X53800Y-53810D01*
X53800Y-53810D02*
X53200Y-53543D01*
X53800Y-53157D02*
X53800Y-52891D01*
X53800Y-53024D02*
X53200Y-53024D01*
X53267Y-53024D02*
X53400Y-53157D01*
X57030Y-56917D02*
X57030Y-56984D01*
X57030Y-56984D02*
X57097Y-57050D01*
X57097Y-57050D02*
X57430Y-57050D01*
X57430Y-57050D02*
X57497Y-56984D01*
X57497Y-56984D02*
X57497Y-56784D01*
X57497Y-56784D02*
X57364Y-56650D01*
X57364Y-56650D02*
X57030Y-56650D01*
X57030Y-56650D02*
X57030Y-56450D01*
X57030Y-56450D02*
X57497Y-56450D01*
X57883Y-57050D02*
X57883Y-56450D01*
X57883Y-56850D02*
X57950Y-56850D01*
X57950Y-56850D02*
X58283Y-56650D01*
X57950Y-56850D02*
X58283Y-57050D01*
M02*
