M48
;DRILL file {PCBnew (20090216-final)} date Fri 26 Feb 2010 04:38:57 PM PST
;FORMAT={2:4/ absolute / inch / suppress trailing zeros}
R,T
VER,1
FMAT,2
INCH,LZ
TCST,OFF
ICI,OFF
ATC,ON
T1C0.043
T2C0.048
T3C0.051
T4C0.100
T5C0.106
T6C0.129
T7C0.220
%
M47
G05
M72
T1
X05725Y-03175
X05725Y-03275
X05825Y-03175
X05825Y-03275
X06275Y-045
X06275Y-046
X06275Y-047
X06275Y-0505
X06275Y-0525
T2
X05325Y-0435
X05525Y-0435
X05625Y-0435
X05725Y-0435
X05825Y-0435
X05925Y-0435
T3
X05627Y-0585
X05775Y-0585
X05923Y-0585
T4
X05519Y-05968
X06031Y-05968
T5
X05525Y-05456
X06025Y-05456
T6
X05275Y-03225
X05275Y-036
X05275Y-056
X05275Y-05975
X06275Y-03225
X06275Y-036
X06275Y-056
X06275Y-05975
T7
X05425Y-046
T0
M30
