G04 (created by PCBnew (20090216-final)) date Wed 10 Feb 2010 11:55:03 AM PST*
G01*
G70*
G90*
%MOIN*%
G04 Gerber Fmt 3.4, Leading zero omitted, Abs format*
%FSLAX34Y34*%
G04 APERTURE LIST*
%ADD10C,0.009000*%
%ADD11C,0.150000*%
%ADD12C,0.260000*%
%ADD13C,0.060000*%
%ADD14C,0.080000*%
%ADD15C,0.045000*%
%ADD16C,0.240000*%
%ADD17C,0.086000*%
%ADD18C,0.010000*%
%ADD19R,0.102000X0.063000*%
%ADD20C,0.012000*%
%ADD21C,0.015000*%
%ADD22C,0.170000*%
%ADD23C,0.280000*%
%ADD24C,0.100000*%
%ADD25R,0.122000X0.083000*%
%ADD26C,0.156000*%
%ADD27C,0.266000*%
%ADD28C,0.066000*%
%ADD29C,0.086000*%
%ADD30R,0.108000X0.069000*%
G04 APERTURE END LIST*
G54D10*
X160000Y-45000D02*
X60000Y-45000D01*
X160000Y-145000D02*
X160000Y-45000D01*
X60000Y-145000D02*
X160000Y-145000D01*
X60000Y-45000D02*
X60000Y-145000D01*
G54D30*
X155000Y-139450D03*
X155000Y-140550D03*
X155000Y-129450D03*
X155000Y-130550D03*
X155000Y-119450D03*
X155000Y-120550D03*
X155000Y-108450D03*
X155000Y-109550D03*
X155000Y-99450D03*
X155000Y-100550D03*
X155000Y-89450D03*
X155000Y-90550D03*
X155000Y-79450D03*
X155000Y-80550D03*
X155000Y-69450D03*
X155000Y-70550D03*
X155000Y-59450D03*
X155000Y-60550D03*
X155000Y-49450D03*
X155000Y-50550D03*
X145000Y-139450D03*
X145000Y-140550D03*
X145000Y-129450D03*
X145000Y-130550D03*
X145000Y-119450D03*
X145000Y-120550D03*
X145000Y-108450D03*
X145000Y-109550D03*
X145000Y-99450D03*
X145000Y-100550D03*
X145000Y-89450D03*
X145000Y-90550D03*
X145000Y-79450D03*
X145000Y-80550D03*
X145000Y-69450D03*
X145000Y-70550D03*
X145000Y-59450D03*
X145000Y-60550D03*
X145000Y-49450D03*
X145000Y-50550D03*
X135000Y-139450D03*
X135000Y-140550D03*
X135000Y-129450D03*
X135000Y-130550D03*
X135000Y-119450D03*
X135000Y-120550D03*
X135000Y-108450D03*
X135000Y-109550D03*
X135000Y-99450D03*
X135000Y-100550D03*
X135000Y-89450D03*
X135000Y-90550D03*
X135000Y-79450D03*
X135000Y-80550D03*
X135000Y-69450D03*
X135000Y-70550D03*
X135000Y-59450D03*
X135000Y-60550D03*
X135000Y-49450D03*
X135000Y-50550D03*
X125000Y-139450D03*
X125000Y-140550D03*
X125000Y-129450D03*
X125000Y-130550D03*
X125000Y-119450D03*
X125000Y-120550D03*
X125000Y-108450D03*
X125000Y-109550D03*
X125000Y-99450D03*
X125000Y-100550D03*
X125000Y-89450D03*
X125000Y-90550D03*
X125000Y-79450D03*
X125000Y-80550D03*
X125000Y-69450D03*
X125000Y-70550D03*
X125000Y-59450D03*
X125000Y-60550D03*
X125000Y-49450D03*
X125000Y-50550D03*
X115000Y-139450D03*
X115000Y-140550D03*
X115000Y-129450D03*
X115000Y-130550D03*
X115000Y-119450D03*
X115000Y-120550D03*
X115000Y-108450D03*
X115000Y-109550D03*
X115000Y-99450D03*
X115000Y-100550D03*
X115000Y-89450D03*
X115000Y-90550D03*
X115000Y-79450D03*
X115000Y-80550D03*
X115000Y-69450D03*
X115000Y-70550D03*
X115000Y-59450D03*
X115000Y-60550D03*
X115000Y-49450D03*
X115000Y-50550D03*
X105000Y-139450D03*
X105000Y-140550D03*
X105000Y-129450D03*
X105000Y-130550D03*
X105000Y-119450D03*
X105000Y-120550D03*
X105000Y-108450D03*
X105000Y-109550D03*
X105000Y-99450D03*
X105000Y-100550D03*
X105000Y-89450D03*
X105000Y-90550D03*
X105000Y-79450D03*
X105000Y-80550D03*
X105000Y-69450D03*
X105000Y-70550D03*
X105000Y-59450D03*
X105000Y-60550D03*
X105000Y-49450D03*
X105000Y-50550D03*
X95000Y-139450D03*
X95000Y-140550D03*
X95000Y-129450D03*
X95000Y-130550D03*
X95000Y-119450D03*
X95000Y-120550D03*
X95000Y-108450D03*
X95000Y-109550D03*
X95000Y-99450D03*
X95000Y-100550D03*
X95000Y-89450D03*
X95000Y-90550D03*
X95000Y-79450D03*
X95000Y-80550D03*
X95000Y-69450D03*
X95000Y-70550D03*
X95000Y-59450D03*
X95000Y-60550D03*
X95000Y-49450D03*
X95000Y-50550D03*
X85000Y-139450D03*
X85000Y-140550D03*
X85000Y-129450D03*
X85000Y-130550D03*
X85000Y-119450D03*
X85000Y-120550D03*
X85000Y-108450D03*
X85000Y-109550D03*
X85000Y-99450D03*
X85000Y-100550D03*
X85000Y-89450D03*
X85000Y-90550D03*
X85000Y-79450D03*
X85000Y-80550D03*
X85000Y-69450D03*
X85000Y-70550D03*
X85000Y-59450D03*
X85000Y-60550D03*
X85000Y-49450D03*
X85000Y-50550D03*
X75000Y-139450D03*
X75000Y-140550D03*
X75000Y-129450D03*
X75000Y-130550D03*
X75000Y-119450D03*
X75000Y-120550D03*
X75000Y-108450D03*
X75000Y-109550D03*
X75000Y-99450D03*
X75000Y-100550D03*
X75000Y-89450D03*
X75000Y-90550D03*
X75000Y-79450D03*
X75000Y-80550D03*
X75000Y-69450D03*
X75000Y-70550D03*
X75000Y-59450D03*
X75000Y-60550D03*
X75000Y-49450D03*
X75000Y-50550D03*
X65000Y-139450D03*
X65000Y-140550D03*
X65000Y-129450D03*
X65000Y-130550D03*
X65000Y-119450D03*
X65000Y-120550D03*
X65000Y-109450D03*
X65000Y-110550D03*
X65000Y-99450D03*
X65000Y-100550D03*
X65000Y-89450D03*
X65000Y-90550D03*
X65000Y-79450D03*
X65000Y-80550D03*
X65000Y-69450D03*
X65000Y-70550D03*
X65000Y-59450D03*
X65000Y-60550D03*
X65000Y-49450D03*
X65000Y-50550D03*
G54D26*
X61500Y-46500D03*
X158500Y-46500D03*
X61500Y-143500D03*
X158500Y-143500D03*
X110000Y-143500D03*
X158500Y-95000D03*
X61500Y-95000D03*
X110000Y-46500D03*
X70000Y-55000D03*
X150000Y-55000D03*
X70000Y-135000D03*
X150000Y-135000D03*
X100000Y-85000D03*
X120000Y-85000D03*
X100000Y-105000D03*
X120000Y-105000D03*
G54D27*
X110000Y-65000D03*
G54D28*
X107500Y-69500D03*
X107500Y-70500D03*
X113000Y-75000D03*
X112000Y-75000D03*
X113000Y-55000D03*
X112000Y-55000D03*
G54D29*
X112500Y-60000D03*
X112500Y-61000D03*
X112500Y-62000D03*
X112500Y-63000D03*
X112500Y-64000D03*
X112500Y-66000D03*
X111000Y-57250D03*
X109000Y-57250D03*
M02*
