G04 (created by PCBnew (20090216-final)) date Wed 10 Feb 2010 11:55:03 AM PST*
G01*
G70*
G90*
%MOIN*%
G04 Gerber Fmt 3.4, Leading zero omitted, Abs format*
%FSLAX34Y34*%
G04 APERTURE LIST*
%ADD10C,0.009000*%
%ADD11C,0.150000*%
%ADD12C,0.260000*%
%ADD13C,0.060000*%
%ADD14C,0.080000*%
%ADD15C,0.045000*%
%ADD16C,0.240000*%
%ADD17C,0.086000*%
%ADD18C,0.010000*%
%ADD19R,0.102000X0.063000*%
%ADD20C,0.012000*%
%ADD21C,0.015000*%
%ADD22C,0.170000*%
%ADD23C,0.280000*%
%ADD24C,0.100000*%
%ADD25R,0.122000X0.083000*%
G04 APERTURE END LIST*
G54D10*
X160000Y-45000D02*
X60000Y-45000D01*
X160000Y-145000D02*
X160000Y-45000D01*
X60000Y-145000D02*
X160000Y-145000D01*
X60000Y-45000D02*
X60000Y-145000D01*
G54D20*
X133078Y-53400D02*
X133078Y-52600D01*
X133078Y-52600D02*
X132611Y-52600D01*
X133078Y-52956D02*
X132811Y-52956D01*
X132292Y-53134D02*
X131825Y-53134D01*
X131825Y-53134D02*
X131825Y-52956D01*
X131825Y-52956D02*
X131892Y-52867D01*
X131892Y-52867D02*
X132225Y-52867D01*
X132225Y-52867D02*
X132292Y-52956D01*
X132292Y-52956D02*
X132292Y-53312D01*
X132292Y-53312D02*
X132225Y-53400D01*
X132225Y-53400D02*
X131892Y-53400D01*
X131892Y-53400D02*
X131825Y-53312D01*
X131506Y-52600D02*
X131506Y-53400D01*
X131506Y-53400D02*
X131039Y-53400D01*
X131039Y-53400D02*
X131039Y-53045D01*
X131039Y-53045D02*
X131106Y-52956D01*
X131106Y-52956D02*
X131506Y-52956D01*
X129467Y-53400D02*
X129934Y-53400D01*
X129934Y-53400D02*
X129934Y-53134D01*
X129934Y-53134D02*
X129867Y-53045D01*
X129867Y-53045D02*
X129534Y-53045D01*
X129534Y-53045D02*
X129467Y-52956D01*
X129467Y-52956D02*
X129467Y-52689D01*
X129467Y-52689D02*
X129534Y-52600D01*
X129534Y-52600D02*
X129867Y-52600D01*
X129867Y-52600D02*
X129934Y-52689D01*
X129148Y-53400D02*
X128681Y-52600D01*
X129148Y-53312D02*
X129148Y-52689D01*
X129148Y-52689D02*
X129081Y-52600D01*
X129081Y-52600D02*
X128748Y-52600D01*
X128748Y-52600D02*
X128681Y-52689D01*
X128681Y-52689D02*
X128681Y-53312D01*
X128681Y-53312D02*
X128748Y-53400D01*
X128748Y-53400D02*
X129081Y-53400D01*
X129081Y-53400D02*
X129148Y-53312D01*
X128228Y-53400D02*
X127962Y-53400D01*
X128095Y-53400D02*
X128095Y-52600D01*
X128095Y-52689D02*
X128228Y-52867D01*
X127576Y-53400D02*
X127109Y-52600D01*
X127576Y-53312D02*
X127576Y-52689D01*
X127576Y-52689D02*
X127509Y-52600D01*
X127509Y-52600D02*
X127176Y-52600D01*
X127176Y-52600D02*
X127109Y-52689D01*
X127109Y-52689D02*
X127109Y-53312D01*
X127109Y-53312D02*
X127176Y-53400D01*
X127176Y-53400D02*
X127509Y-53400D01*
X127509Y-53400D02*
X127576Y-53312D01*
X134257Y-51100D02*
X133990Y-51900D01*
X133990Y-51900D02*
X133723Y-51100D01*
X133471Y-51634D02*
X133004Y-51634D01*
X133004Y-51634D02*
X133004Y-51456D01*
X133004Y-51456D02*
X133071Y-51367D01*
X133071Y-51367D02*
X133404Y-51367D01*
X133404Y-51367D02*
X133471Y-51456D01*
X133471Y-51456D02*
X133471Y-51812D01*
X133471Y-51812D02*
X133404Y-51900D01*
X133404Y-51900D02*
X133071Y-51900D01*
X133071Y-51900D02*
X133004Y-51812D01*
X132685Y-51900D02*
X132685Y-51367D01*
X132685Y-51545D02*
X132551Y-51367D01*
X132551Y-51367D02*
X132351Y-51367D01*
X132351Y-51367D02*
X132218Y-51545D01*
X131899Y-51812D02*
X131832Y-51900D01*
X131832Y-51900D02*
X131499Y-51900D01*
X131499Y-51900D02*
X131432Y-51812D01*
X131432Y-51812D02*
X131432Y-51723D01*
X131432Y-51723D02*
X131499Y-51634D01*
X131499Y-51634D02*
X131832Y-51634D01*
X131832Y-51634D02*
X131899Y-51545D01*
X131899Y-51545D02*
X131899Y-51456D01*
X131899Y-51456D02*
X131832Y-51367D01*
X131832Y-51367D02*
X131499Y-51367D01*
X131499Y-51367D02*
X131432Y-51456D01*
X130913Y-51100D02*
X130913Y-51189D01*
X130913Y-51456D02*
X130913Y-51812D01*
X130913Y-51812D02*
X130846Y-51900D01*
X130846Y-51900D02*
X130779Y-51900D01*
X130260Y-51900D02*
X130327Y-51812D01*
X130327Y-51812D02*
X130327Y-51456D01*
X130327Y-51456D02*
X130260Y-51367D01*
X130260Y-51367D02*
X129927Y-51367D01*
X129927Y-51367D02*
X129860Y-51456D01*
X129860Y-51456D02*
X129860Y-51812D01*
X129860Y-51812D02*
X129927Y-51900D01*
X129927Y-51900D02*
X130260Y-51900D01*
X129541Y-51900D02*
X129541Y-51367D01*
X129541Y-51456D02*
X129474Y-51367D01*
X129474Y-51367D02*
X129207Y-51367D01*
X129207Y-51367D02*
X129141Y-51456D01*
X129141Y-51456D02*
X129141Y-51900D01*
X127835Y-51900D02*
X127569Y-51900D01*
X127702Y-51900D02*
X127702Y-51100D01*
X127702Y-51189D02*
X127835Y-51367D01*
X126983Y-51900D02*
X126983Y-51812D01*
X126263Y-51900D02*
X125997Y-51900D01*
X126130Y-51900D02*
X126130Y-51100D01*
X126130Y-51189D02*
X126263Y-51367D01*
X135829Y-49600D02*
X135829Y-50400D01*
X135829Y-50400D02*
X135295Y-50400D01*
X134576Y-50400D02*
X135043Y-50400D01*
X135043Y-50400D02*
X135043Y-49600D01*
X135043Y-49600D02*
X134576Y-49600D01*
X135043Y-49956D02*
X134776Y-49956D01*
X134190Y-50400D02*
X134190Y-49600D01*
X134257Y-49600D02*
X133857Y-49600D01*
X133857Y-49600D02*
X133790Y-49689D01*
X133790Y-49689D02*
X133790Y-50312D01*
X133790Y-50312D02*
X133857Y-50400D01*
X133857Y-50400D02*
X134257Y-50400D01*
X132685Y-50400D02*
X132685Y-49778D01*
X132685Y-49778D02*
X132551Y-49600D01*
X132551Y-49600D02*
X132351Y-49600D01*
X132351Y-49600D02*
X132218Y-49778D01*
X132218Y-49778D02*
X132218Y-50400D01*
X132685Y-49956D02*
X132218Y-49956D01*
X131899Y-50400D02*
X131899Y-49867D01*
X131899Y-50045D02*
X131765Y-49867D01*
X131765Y-49867D02*
X131565Y-49867D01*
X131565Y-49867D02*
X131432Y-50045D01*
X131113Y-50400D02*
X131113Y-49867D01*
X131113Y-50045D02*
X130979Y-49867D01*
X130979Y-49867D02*
X130779Y-49867D01*
X130779Y-49867D02*
X130646Y-50045D01*
X130327Y-49867D02*
X129927Y-49867D01*
X129927Y-49867D02*
X129860Y-49956D01*
X129860Y-49956D02*
X129860Y-50400D01*
X129860Y-50400D02*
X130260Y-50400D01*
X130260Y-50400D02*
X130327Y-50312D01*
X130327Y-50312D02*
X130327Y-50223D01*
X130327Y-50223D02*
X130260Y-50134D01*
X130260Y-50134D02*
X129860Y-50134D01*
X129541Y-49867D02*
X129541Y-50223D01*
X129541Y-50223D02*
X129407Y-50400D01*
X129407Y-50400D02*
X129207Y-50400D01*
X129207Y-50400D02*
X129074Y-50223D01*
X129074Y-49867D02*
X129074Y-50577D01*
X129074Y-50577D02*
X129141Y-50666D01*
X129141Y-50666D02*
X129474Y-50666D01*
X129474Y-50666D02*
X129541Y-50577D01*
X127835Y-50400D02*
X127569Y-50400D01*
X127702Y-50400D02*
X127702Y-49600D01*
X127702Y-49689D02*
X127835Y-49867D01*
X127183Y-50400D02*
X126716Y-49600D01*
X127183Y-50312D02*
X127183Y-49689D01*
X127183Y-49689D02*
X127116Y-49600D01*
X127116Y-49600D02*
X126783Y-49600D01*
X126783Y-49600D02*
X126716Y-49689D01*
X126716Y-49689D02*
X126716Y-50312D01*
X126716Y-50312D02*
X126783Y-50400D01*
X126783Y-50400D02*
X127116Y-50400D01*
X127116Y-50400D02*
X127183Y-50312D01*
X126397Y-50400D02*
X125930Y-49867D01*
X126397Y-49867D02*
X125930Y-50400D01*
X125477Y-50400D02*
X125211Y-50400D01*
X125344Y-50400D02*
X125344Y-49600D01*
X125344Y-49689D02*
X125477Y-49867D01*
X124825Y-50400D02*
X124358Y-49600D01*
X124825Y-50312D02*
X124825Y-49689D01*
X124825Y-49689D02*
X124758Y-49600D01*
X124758Y-49600D02*
X124425Y-49600D01*
X124425Y-49600D02*
X124358Y-49689D01*
X124358Y-49689D02*
X124358Y-50312D01*
X124358Y-50312D02*
X124425Y-50400D01*
X124425Y-50400D02*
X124758Y-50400D01*
X124758Y-50400D02*
X124825Y-50312D01*
G54D21*
X114500Y-51000D02*
X114476Y-51242D01*
X114476Y-51242D02*
X114405Y-51476D01*
X114405Y-51476D02*
X114291Y-51691D01*
X114291Y-51691D02*
X114136Y-51880D01*
X114136Y-51880D02*
X113948Y-52036D01*
X113948Y-52036D02*
X113734Y-52152D01*
X113734Y-52152D02*
X113501Y-52224D01*
X113501Y-52224D02*
X113258Y-52249D01*
X113258Y-52249D02*
X113016Y-52227D01*
X113016Y-52227D02*
X112782Y-52158D01*
X112782Y-52158D02*
X112566Y-52045D01*
X112566Y-52045D02*
X112376Y-51893D01*
X112376Y-51893D02*
X112219Y-51706D01*
X112219Y-51706D02*
X112102Y-51492D01*
X112102Y-51492D02*
X112028Y-51259D01*
X112028Y-51259D02*
X112001Y-51017D01*
X112001Y-51017D02*
X112021Y-50775D01*
X112021Y-50775D02*
X112088Y-50540D01*
X112088Y-50540D02*
X112200Y-50323D01*
X112200Y-50323D02*
X112351Y-50132D01*
X112351Y-50132D02*
X112537Y-49974D01*
X112537Y-49974D02*
X112750Y-49855D01*
X112750Y-49855D02*
X112982Y-49780D01*
X112982Y-49780D02*
X113224Y-49751D01*
X113224Y-49751D02*
X113467Y-49769D01*
X113467Y-49769D02*
X113702Y-49835D01*
X113702Y-49835D02*
X113919Y-49945D01*
X113919Y-49945D02*
X114112Y-50095D01*
X114112Y-50095D02*
X114271Y-50280D01*
X114271Y-50280D02*
X114391Y-50492D01*
X114391Y-50492D02*
X114468Y-50724D01*
X114468Y-50724D02*
X114499Y-50966D01*
X114499Y-50966D02*
X114500Y-51000D01*
X116750Y-53500D02*
X109750Y-53500D01*
X109750Y-53500D02*
X109750Y-46250D01*
X109750Y-46250D02*
X116750Y-46250D01*
X116750Y-46250D02*
X116750Y-53500D01*
X106250Y-48500D02*
X103750Y-48500D01*
X103750Y-48500D02*
X103750Y-46250D01*
X103750Y-46250D02*
X106250Y-46250D01*
X106250Y-46250D02*
X106250Y-48500D01*
X113500Y-54500D02*
X113500Y-55500D01*
X113500Y-55500D02*
X111500Y-55500D01*
X111500Y-55500D02*
X111500Y-54500D01*
X111500Y-54500D02*
X113500Y-54500D01*
X113500Y-74500D02*
X113500Y-75500D01*
X113500Y-75500D02*
X111500Y-75500D01*
X111500Y-75500D02*
X111500Y-74500D01*
X111500Y-74500D02*
X113500Y-74500D01*
X108000Y-69000D02*
X108000Y-71000D01*
X108000Y-71000D02*
X107000Y-71000D01*
X107000Y-71000D02*
X107000Y-69000D01*
X107000Y-69000D02*
X108000Y-69000D01*
X117500Y-46000D02*
X117500Y-76000D01*
X117500Y-76000D02*
X102500Y-76000D01*
X102500Y-76000D02*
X102500Y-46000D01*
X102500Y-46000D02*
X117500Y-46000D01*
G54D20*
X111113Y-45800D02*
X111113Y-45200D01*
X111113Y-45200D02*
X110713Y-45200D01*
X110713Y-45200D02*
X110646Y-45267D01*
X110646Y-45267D02*
X110646Y-45467D01*
X110646Y-45467D02*
X110713Y-45534D01*
X110713Y-45534D02*
X111113Y-45534D01*
X110327Y-45800D02*
X110327Y-45200D01*
X110327Y-45200D02*
X109927Y-45200D01*
X109927Y-45200D02*
X109860Y-45267D01*
X109860Y-45267D02*
X109860Y-45400D01*
X109860Y-45400D02*
X109927Y-45467D01*
X109927Y-45467D02*
X110327Y-45467D01*
X109927Y-45467D02*
X109860Y-45600D01*
X109860Y-45600D02*
X109860Y-45734D01*
X109860Y-45734D02*
X109927Y-45800D01*
X109927Y-45800D02*
X110327Y-45800D01*
X109407Y-45800D02*
X109141Y-45800D01*
X109274Y-45800D02*
X109274Y-45200D01*
X109274Y-45267D02*
X109407Y-45400D01*
X113864Y-76800D02*
X113864Y-76200D01*
X113864Y-76200D02*
X113464Y-76200D01*
X113464Y-76200D02*
X113397Y-76267D01*
X113397Y-76267D02*
X113397Y-76467D01*
X113397Y-76467D02*
X113464Y-76534D01*
X113464Y-76534D02*
X113864Y-76534D01*
X113011Y-76800D02*
X113078Y-76734D01*
X113078Y-76734D02*
X113078Y-76267D01*
X113078Y-76267D02*
X113011Y-76200D01*
X113011Y-76200D02*
X112678Y-76200D01*
X112678Y-76200D02*
X112611Y-76267D01*
X112611Y-76267D02*
X112611Y-76734D01*
X112611Y-76734D02*
X112678Y-76800D01*
X112678Y-76800D02*
X113011Y-76800D01*
X112292Y-76200D02*
X112158Y-76800D01*
X112158Y-76800D02*
X112025Y-76600D01*
X112025Y-76600D02*
X111892Y-76800D01*
X111892Y-76800D02*
X111758Y-76200D01*
X111039Y-76800D02*
X111506Y-76800D01*
X111506Y-76800D02*
X111506Y-76200D01*
X111506Y-76200D02*
X111039Y-76200D01*
X111506Y-76467D02*
X111239Y-76467D01*
X110720Y-76800D02*
X110720Y-76200D01*
X110720Y-76200D02*
X110320Y-76200D01*
X110320Y-76200D02*
X110253Y-76267D01*
X110253Y-76267D02*
X110253Y-76467D01*
X110253Y-76467D02*
X110320Y-76534D01*
X110320Y-76534D02*
X110720Y-76534D01*
X110520Y-76534D02*
X110253Y-76800D01*
X109934Y-76800D02*
X109934Y-76200D01*
X109934Y-76200D02*
X109534Y-76200D01*
X109534Y-76200D02*
X109467Y-76267D01*
X109467Y-76267D02*
X109467Y-76400D01*
X109467Y-76400D02*
X109534Y-76467D01*
X109534Y-76467D02*
X109934Y-76467D01*
X109534Y-76467D02*
X109467Y-76600D01*
X109467Y-76600D02*
X109467Y-76734D01*
X109467Y-76734D02*
X109534Y-76800D01*
X109534Y-76800D02*
X109934Y-76800D01*
X109081Y-76800D02*
X109148Y-76734D01*
X109148Y-76734D02*
X109148Y-76267D01*
X109148Y-76267D02*
X109081Y-76200D01*
X109081Y-76200D02*
X108748Y-76200D01*
X108748Y-76200D02*
X108681Y-76267D01*
X108681Y-76267D02*
X108681Y-76734D01*
X108681Y-76734D02*
X108748Y-76800D01*
X108748Y-76800D02*
X109081Y-76800D01*
X108362Y-76800D02*
X108362Y-76334D01*
X108362Y-76334D02*
X108228Y-76200D01*
X108228Y-76200D02*
X108028Y-76200D01*
X108028Y-76200D02*
X107895Y-76334D01*
X107895Y-76334D02*
X107895Y-76800D01*
X108362Y-76467D02*
X107895Y-76467D01*
X107576Y-76800D02*
X107576Y-76200D01*
X107576Y-76200D02*
X107176Y-76200D01*
X107176Y-76200D02*
X107109Y-76267D01*
X107109Y-76267D02*
X107109Y-76467D01*
X107109Y-76467D02*
X107176Y-76534D01*
X107176Y-76534D02*
X107576Y-76534D01*
X107376Y-76534D02*
X107109Y-76800D01*
X106723Y-76800D02*
X106723Y-76200D01*
X106790Y-76200D02*
X106390Y-76200D01*
X106390Y-76200D02*
X106323Y-76267D01*
X106323Y-76267D02*
X106323Y-76734D01*
X106323Y-76734D02*
X106390Y-76800D01*
X106390Y-76800D02*
X106790Y-76800D01*
X106213Y-69767D02*
X106213Y-69700D01*
X106213Y-69700D02*
X106546Y-69700D01*
X106546Y-69700D02*
X106613Y-69767D01*
X106613Y-69767D02*
X106613Y-70234D01*
X106613Y-70234D02*
X106546Y-70300D01*
X106546Y-70300D02*
X106213Y-70300D01*
X106213Y-70300D02*
X106146Y-70234D01*
X106146Y-70234D02*
X106146Y-70034D01*
X106146Y-70034D02*
X106346Y-70034D01*
X105827Y-70300D02*
X105827Y-69700D01*
X105827Y-69700D02*
X105360Y-70300D01*
X105360Y-70300D02*
X105360Y-69700D01*
X104974Y-70300D02*
X104974Y-69700D01*
X105041Y-69700D02*
X104641Y-69700D01*
X104641Y-69700D02*
X104574Y-69767D01*
X104574Y-69767D02*
X104574Y-70234D01*
X104574Y-70234D02*
X104641Y-70300D01*
X104641Y-70300D02*
X105041Y-70300D01*
X111006Y-74700D02*
X111006Y-75300D01*
X111006Y-75300D02*
X110472Y-75300D01*
X109753Y-75300D02*
X110220Y-75300D01*
X110220Y-75300D02*
X110220Y-74700D01*
X110220Y-74700D02*
X109753Y-74700D01*
X110220Y-74967D02*
X109953Y-74967D01*
X109367Y-75300D02*
X109367Y-74700D01*
X109434Y-74700D02*
X109034Y-74700D01*
X109034Y-74700D02*
X108967Y-74767D01*
X108967Y-74767D02*
X108967Y-75234D01*
X108967Y-75234D02*
X109034Y-75300D01*
X109034Y-75300D02*
X109434Y-75300D01*
X108581Y-75034D02*
X108248Y-75034D01*
X111006Y-54700D02*
X111006Y-55300D01*
X111006Y-55300D02*
X110472Y-55300D01*
X109753Y-55300D02*
X110220Y-55300D01*
X110220Y-55300D02*
X110220Y-54700D01*
X110220Y-54700D02*
X109753Y-54700D01*
X110220Y-54967D02*
X109953Y-54967D01*
X109367Y-55300D02*
X109367Y-54700D01*
X109434Y-54700D02*
X109034Y-54700D01*
X109034Y-54700D02*
X108967Y-54767D01*
X108967Y-54767D02*
X108967Y-55234D01*
X108967Y-55234D02*
X109034Y-55300D01*
X109034Y-55300D02*
X109434Y-55300D01*
X108648Y-55034D02*
X108248Y-55034D01*
X108448Y-55234D02*
X108448Y-54834D01*
M02*
