M48
;DRILL file {PCBnew (20090216-final)} date Wed 10 Feb 2010 11:55:08 AM PST
;FORMAT={2:4/ absolute / inch / suppress trailing zeros}
R,T
VER,1
FMAT,2
INCH,LZ
TCST,OFF
ICI,OFF
ATC,ON
T1C0.025
T2C0.040
T3C0.060
T4C0.129
T5C0.220
%
M47
G05
M72
T1
X0615Y-07
X07Y-075
X08Y-075
X09Y-075
X1Y-075
X1125Y-085
X12Y-075
X13Y-075
X14Y-075
X15Y-075
X1585Y-07
T2
X1075Y-0695
X1075Y-0705
X112Y-055
X112Y-075
X113Y-055
X113Y-075
T3
X109Y-05725
X111Y-05725
X1125Y-06
X1125Y-061
X1125Y-062
X1125Y-063
X1125Y-064
X1125Y-066
T4
X0615Y-0465
X0615Y-095
X0615Y-1435
X07Y-055
X07Y-135
X1Y-085
X1Y-105
X11Y-0465
X11Y-1435
X12Y-085
X12Y-105
X15Y-055
X15Y-135
X1585Y-0465
X1585Y-095
X1585Y-1435
T5
X11Y-065
T0
M30
