M48
;DRILL file {PCBnew (20090216-final)} date Mon 08 Feb 2010 05:47:28 PM PST
;FORMAT={2:4/ absolute / inch / suppress trailing zeros}
R,T
VER,1
FMAT,2
INCH,LZ
TCST,OFF
ICI,OFF
ATC,ON
T1C0.040
T2C0.043
T3C0.048
T4C0.051
T5C0.106
T6C0.220
%
M47
G05
M72
T1
X0555Y-0355
X0555Y-0555
X0565Y-0355
X0565Y-0555
X061Y-05
X061Y-051
T2
X0575Y-03775
X0595Y-03775
X063Y-0275
X063Y-0285
X064Y-0275
X064Y-0285
T3
X056Y-0405
X056Y-0415
X056Y-0425
X056Y-0435
X056Y-0445
X056Y-0465
T4
X05377Y-02756
X05525Y-02756
X05673Y-02756
T5
X05275Y-0315
X05775Y-0315
T6
X0585Y-0455
T0
M30
