G04 (created by PCBnew (20090216-final)) date Mon 08 Feb 2010 05:47:22 PM PST*
G01*
G70*
G90*
%MOIN*%
G04 Gerber Fmt 3.4, Leading zero omitted, Abs format*
%FSLAX34Y34*%
G04 APERTURE LIST*
%ADD10C,0.009000*%
%ADD11C,0.080000*%
%ADD12C,0.073000*%
%ADD13R,0.073000X0.073000*%
%ADD14C,0.053000*%
%ADD15C,0.078000*%
%ADD16C,0.260000*%
%ADD17C,0.140000*%
%ADD18C,0.086000*%
%ADD19C,0.010000*%
%ADD20R,0.050000X0.100000*%
%ADD21R,0.098000X0.055000*%
%ADD22R,0.135000X0.070000*%
%ADD23R,0.035000X0.085000*%
%ADD24C,0.015000*%
%ADD25C,0.005000*%
%ADD26C,0.012000*%
%ADD27C,0.086000*%
%ADD28C,0.079000*%
%ADD29R,0.079000X0.079000*%
%ADD30C,0.059000*%
%ADD31C,0.084000*%
%ADD32C,0.266000*%
%ADD33C,0.146000*%
%ADD34R,0.056000X0.106000*%
%ADD35R,0.104000X0.061000*%
%ADD36R,0.141000X0.076000*%
%ADD37R,0.041000X0.091000*%
G04 APERTURE END LIST*
G54D10*
X66000Y-26500D02*
X51000Y-26500D01*
X66000Y-56500D02*
X66000Y-26500D01*
X51000Y-56500D02*
X66000Y-56500D01*
X51000Y-26500D02*
X51000Y-56500D01*
G54D11*
X61000Y-51000D03*
X61000Y-50000D03*
X55500Y-55500D03*
X56500Y-55500D03*
X55500Y-35500D03*
X56500Y-35500D03*
G54D12*
X63000Y-28500D03*
G54D13*
X64000Y-28500D03*
G54D14*
X64000Y-27500D03*
X63000Y-27500D03*
G54D20*
X62900Y-37000D03*
X64100Y-37000D03*
G54D21*
X53000Y-38540D03*
X53000Y-40460D03*
G54D22*
X53000Y-41750D03*
X53000Y-37250D03*
G54D23*
X64000Y-34250D03*
X64000Y-31750D03*
X63000Y-34250D03*
X63000Y-31750D03*
G54D11*
X59500Y-37750D03*
X57500Y-37750D03*
G54D15*
X56000Y-43500D03*
X56000Y-42500D03*
X56000Y-41500D03*
X56000Y-40500D03*
X56000Y-44500D03*
X56000Y-46500D03*
G54D16*
X58500Y-45500D03*
G54D11*
X56730Y-27560D03*
X55250Y-27560D03*
X53770Y-27560D03*
G54D17*
X57750Y-31500D03*
X52750Y-31500D03*
G54D18*
X64000Y-34250D02*
X64000Y-35535D01*
X64100Y-35635D02*
X64100Y-37000D01*
X64000Y-35535D02*
X64100Y-35635D01*
X64100Y-46900D02*
X61000Y-50000D01*
X64100Y-37000D02*
X64100Y-46900D01*
X61000Y-50000D02*
X61000Y-51000D01*
X54788Y-54788D02*
X55500Y-55500D01*
X54788Y-42038D02*
X54788Y-54788D01*
X55326Y-41500D02*
X54788Y-42038D01*
X56000Y-41500D02*
X55326Y-41500D01*
X55500Y-35500D02*
X54750Y-35500D01*
X54750Y-35500D02*
X53000Y-37250D01*
X53000Y-38540D02*
X53000Y-37250D01*
X63000Y-31750D02*
X63000Y-28500D01*
X64000Y-31750D02*
X64000Y-28500D01*
X56839Y-44500D02*
X56000Y-44500D01*
X62900Y-38439D02*
X56839Y-44500D01*
X62900Y-37000D02*
X62900Y-38439D01*
X63000Y-35540D02*
X63000Y-34250D01*
X62900Y-35640D02*
X63000Y-35540D01*
X62900Y-37000D02*
X62900Y-35640D01*
X53000Y-40500D02*
X56000Y-40500D01*
X53000Y-41750D02*
X53000Y-40500D01*
X53000Y-40500D02*
X53000Y-40460D01*
X56476Y-43500D02*
X56000Y-43500D01*
X57500Y-42476D02*
X56476Y-43500D01*
X57500Y-37750D02*
X57500Y-42476D01*
G54D19*
X51245Y-56185D02*
X65755Y-56185D01*
X56735Y-56105D02*
X65755Y-56105D01*
X55792Y-56105D02*
X56264Y-56105D01*
X51245Y-56105D02*
X55206Y-56105D01*
X56893Y-56025D02*
X65755Y-56025D01*
X55912Y-56025D02*
X56107Y-56025D01*
X51245Y-56025D02*
X55086Y-56025D01*
X56973Y-55945D02*
X65755Y-55945D01*
X56002Y-55945D02*
X56027Y-55945D01*
X51245Y-55945D02*
X54983Y-55945D01*
X57051Y-55865D02*
X65755Y-55865D01*
X51245Y-55865D02*
X54903Y-55865D01*
X57084Y-55785D02*
X65755Y-55785D01*
X51245Y-55785D02*
X54823Y-55785D01*
X57117Y-55705D02*
X65755Y-55705D01*
X51245Y-55705D02*
X54743Y-55705D01*
X57149Y-55625D02*
X65755Y-55625D01*
X51245Y-55625D02*
X54663Y-55625D01*
X57149Y-55545D02*
X65755Y-55545D01*
X51245Y-55545D02*
X54583Y-55545D01*
X57149Y-55465D02*
X65755Y-55465D01*
X51245Y-55465D02*
X54503Y-55465D01*
X57149Y-55385D02*
X65755Y-55385D01*
X51245Y-55385D02*
X54423Y-55385D01*
X57122Y-55305D02*
X65755Y-55305D01*
X51245Y-55305D02*
X54343Y-55305D01*
X57089Y-55225D02*
X65755Y-55225D01*
X51245Y-55225D02*
X54277Y-55225D01*
X57056Y-55145D02*
X65755Y-55145D01*
X51245Y-55145D02*
X54224Y-55145D01*
X56983Y-55065D02*
X65755Y-55065D01*
X56011Y-55065D02*
X56017Y-55065D01*
X51245Y-55065D02*
X54171Y-55065D01*
X56903Y-54985D02*
X65755Y-54985D01*
X55947Y-54985D02*
X56097Y-54985D01*
X51245Y-54985D02*
X54147Y-54985D01*
X56760Y-54905D02*
X65755Y-54905D01*
X55867Y-54905D02*
X56241Y-54905D01*
X51245Y-54905D02*
X54131Y-54905D01*
X55787Y-54825D02*
X65755Y-54825D01*
X51245Y-54825D02*
X54115Y-54825D01*
X55707Y-54745D02*
X65755Y-54745D01*
X51245Y-54745D02*
X54108Y-54745D01*
X55627Y-54665D02*
X65755Y-54665D01*
X51245Y-54665D02*
X54108Y-54665D01*
X55547Y-54585D02*
X65755Y-54585D01*
X51245Y-54585D02*
X54108Y-54585D01*
X55468Y-54505D02*
X65755Y-54505D01*
X51245Y-54505D02*
X54108Y-54505D01*
X55468Y-54425D02*
X65755Y-54425D01*
X51245Y-54425D02*
X54108Y-54425D01*
X55468Y-54345D02*
X65755Y-54345D01*
X51245Y-54345D02*
X54108Y-54345D01*
X55468Y-54265D02*
X65755Y-54265D01*
X51245Y-54265D02*
X54108Y-54265D01*
X55468Y-54185D02*
X65755Y-54185D01*
X51245Y-54185D02*
X54108Y-54185D01*
X55468Y-54105D02*
X65755Y-54105D01*
X51245Y-54105D02*
X54108Y-54105D01*
X55468Y-54025D02*
X65755Y-54025D01*
X51245Y-54025D02*
X54108Y-54025D01*
X55468Y-53945D02*
X65755Y-53945D01*
X51245Y-53945D02*
X54108Y-53945D01*
X55468Y-53865D02*
X65755Y-53865D01*
X51245Y-53865D02*
X54108Y-53865D01*
X55468Y-53785D02*
X65755Y-53785D01*
X51245Y-53785D02*
X54108Y-53785D01*
X55468Y-53705D02*
X65755Y-53705D01*
X51245Y-53705D02*
X54108Y-53705D01*
X55468Y-53625D02*
X65755Y-53625D01*
X51245Y-53625D02*
X54108Y-53625D01*
X55468Y-53545D02*
X65755Y-53545D01*
X51245Y-53545D02*
X54108Y-53545D01*
X55468Y-53465D02*
X65755Y-53465D01*
X51245Y-53465D02*
X54108Y-53465D01*
X55468Y-53385D02*
X65755Y-53385D01*
X51245Y-53385D02*
X54108Y-53385D01*
X55468Y-53305D02*
X65755Y-53305D01*
X51245Y-53305D02*
X54108Y-53305D01*
X55468Y-53225D02*
X65755Y-53225D01*
X51245Y-53225D02*
X54108Y-53225D01*
X55468Y-53145D02*
X65755Y-53145D01*
X51245Y-53145D02*
X54108Y-53145D01*
X55468Y-53065D02*
X65755Y-53065D01*
X51245Y-53065D02*
X54108Y-53065D01*
X55468Y-52985D02*
X65755Y-52985D01*
X51245Y-52985D02*
X54108Y-52985D01*
X55468Y-52905D02*
X65755Y-52905D01*
X51245Y-52905D02*
X54108Y-52905D01*
X55468Y-52825D02*
X65755Y-52825D01*
X51245Y-52825D02*
X54108Y-52825D01*
X55468Y-52745D02*
X65755Y-52745D01*
X51245Y-52745D02*
X54108Y-52745D01*
X55468Y-52665D02*
X65755Y-52665D01*
X51245Y-52665D02*
X54108Y-52665D01*
X55468Y-52585D02*
X65755Y-52585D01*
X51245Y-52585D02*
X54108Y-52585D01*
X55468Y-52505D02*
X65755Y-52505D01*
X51245Y-52505D02*
X54108Y-52505D01*
X55468Y-52425D02*
X65755Y-52425D01*
X51245Y-52425D02*
X54108Y-52425D01*
X55468Y-52345D02*
X65755Y-52345D01*
X51245Y-52345D02*
X54108Y-52345D01*
X55468Y-52265D02*
X65755Y-52265D01*
X51245Y-52265D02*
X54108Y-52265D01*
X55468Y-52185D02*
X65755Y-52185D01*
X51245Y-52185D02*
X54108Y-52185D01*
X55468Y-52105D02*
X65755Y-52105D01*
X51245Y-52105D02*
X54108Y-52105D01*
X55468Y-52025D02*
X65755Y-52025D01*
X51245Y-52025D02*
X54108Y-52025D01*
X55468Y-51945D02*
X65755Y-51945D01*
X51245Y-51945D02*
X54108Y-51945D01*
X55468Y-51865D02*
X65755Y-51865D01*
X51245Y-51865D02*
X54108Y-51865D01*
X55468Y-51785D02*
X65755Y-51785D01*
X51245Y-51785D02*
X54108Y-51785D01*
X55468Y-51705D02*
X65755Y-51705D01*
X51245Y-51705D02*
X54108Y-51705D01*
X61165Y-51625D02*
X65755Y-51625D01*
X55468Y-51625D02*
X60853Y-51625D01*
X51245Y-51625D02*
X54108Y-51625D01*
X61343Y-51545D02*
X65755Y-51545D01*
X55468Y-51545D02*
X60656Y-51545D01*
X51245Y-51545D02*
X54108Y-51545D01*
X61372Y-51465D02*
X65755Y-51465D01*
X55468Y-51465D02*
X60627Y-51465D01*
X51245Y-51465D02*
X54108Y-51465D01*
X61314Y-51385D02*
X65755Y-51385D01*
X55468Y-51385D02*
X60686Y-51385D01*
X51245Y-51385D02*
X54108Y-51385D01*
X61566Y-51305D02*
X65755Y-51305D01*
X61234Y-51305D02*
X61376Y-51305D01*
X60624Y-51305D02*
X60766Y-51305D01*
X55468Y-51305D02*
X60431Y-51305D01*
X51245Y-51305D02*
X54108Y-51305D01*
X61596Y-51225D02*
X65755Y-51225D01*
X61154Y-51225D02*
X61296Y-51225D01*
X60704Y-51225D02*
X60846Y-51225D01*
X55468Y-51225D02*
X60399Y-51225D01*
X51245Y-51225D02*
X54108Y-51225D01*
X61625Y-51145D02*
X65755Y-51145D01*
X61074Y-51145D02*
X61216Y-51145D01*
X60784Y-51145D02*
X60926Y-51145D01*
X55468Y-51145D02*
X60368Y-51145D01*
X51245Y-51145D02*
X54108Y-51145D01*
X61640Y-51065D02*
X65755Y-51065D01*
X60864Y-51065D02*
X61136Y-51065D01*
X55468Y-51065D02*
X60365Y-51065D01*
X51245Y-51065D02*
X54108Y-51065D01*
X61637Y-50985D02*
X65755Y-50985D01*
X60914Y-50985D02*
X61086Y-50985D01*
X55468Y-50985D02*
X60362Y-50985D01*
X51245Y-50985D02*
X54108Y-50985D01*
X61634Y-50905D02*
X65755Y-50905D01*
X61024Y-50905D02*
X61166Y-50905D01*
X60834Y-50905D02*
X60976Y-50905D01*
X55468Y-50905D02*
X60359Y-50905D01*
X51245Y-50905D02*
X54108Y-50905D01*
X61622Y-50825D02*
X65755Y-50825D01*
X61104Y-50825D02*
X61246Y-50825D01*
X60754Y-50825D02*
X60896Y-50825D01*
X55468Y-50825D02*
X60386Y-50825D01*
X51245Y-50825D02*
X54108Y-50825D01*
X61589Y-50745D02*
X65755Y-50745D01*
X61184Y-50745D02*
X61326Y-50745D01*
X60674Y-50745D02*
X60816Y-50745D01*
X55468Y-50745D02*
X60415Y-50745D01*
X51245Y-50745D02*
X54108Y-50745D01*
X61557Y-50665D02*
X65755Y-50665D01*
X61264Y-50665D02*
X61406Y-50665D01*
X60594Y-50665D02*
X60736Y-50665D01*
X55468Y-50665D02*
X60445Y-50665D01*
X51245Y-50665D02*
X54108Y-50665D01*
X61344Y-50585D02*
X65755Y-50585D01*
X55468Y-50585D02*
X60656Y-50585D01*
X51245Y-50585D02*
X54108Y-50585D01*
X61362Y-50505D02*
X65755Y-50505D01*
X55468Y-50505D02*
X60638Y-50505D01*
X51245Y-50505D02*
X54108Y-50505D01*
X61354Y-50425D02*
X65755Y-50425D01*
X55468Y-50425D02*
X60646Y-50425D01*
X51245Y-50425D02*
X54108Y-50425D01*
X61540Y-50345D02*
X65755Y-50345D01*
X61274Y-50345D02*
X61416Y-50345D01*
X60584Y-50345D02*
X60726Y-50345D01*
X55468Y-50345D02*
X60459Y-50345D01*
X51245Y-50345D02*
X54108Y-50345D01*
X61581Y-50265D02*
X65755Y-50265D01*
X61194Y-50265D02*
X61336Y-50265D01*
X60664Y-50265D02*
X60806Y-50265D01*
X55468Y-50265D02*
X60415Y-50265D01*
X51245Y-50265D02*
X54108Y-50265D01*
X61610Y-50185D02*
X65755Y-50185D01*
X61114Y-50185D02*
X61256Y-50185D01*
X60744Y-50185D02*
X60886Y-50185D01*
X55468Y-50185D02*
X60382Y-50185D01*
X51245Y-50185D02*
X54108Y-50185D01*
X61640Y-50105D02*
X65755Y-50105D01*
X61034Y-50105D02*
X61176Y-50105D01*
X60824Y-50105D02*
X60966Y-50105D01*
X55468Y-50105D02*
X60367Y-50105D01*
X51245Y-50105D02*
X54108Y-50105D01*
X61638Y-50025D02*
X65755Y-50025D01*
X60904Y-50025D02*
X61096Y-50025D01*
X55468Y-50025D02*
X60364Y-50025D01*
X51245Y-50025D02*
X54108Y-50025D01*
X61635Y-49945D02*
X65755Y-49945D01*
X60874Y-49945D02*
X61126Y-49945D01*
X55468Y-49945D02*
X60360Y-49945D01*
X51245Y-49945D02*
X54108Y-49945D01*
X61632Y-49865D02*
X65755Y-49865D01*
X61064Y-49865D02*
X61206Y-49865D01*
X60794Y-49865D02*
X60936Y-49865D01*
X55468Y-49865D02*
X60371Y-49865D01*
X51245Y-49865D02*
X54108Y-49865D01*
X61605Y-49785D02*
X65755Y-49785D01*
X61144Y-49785D02*
X61286Y-49785D01*
X60714Y-49785D02*
X60856Y-49785D01*
X55468Y-49785D02*
X60401Y-49785D01*
X51245Y-49785D02*
X54108Y-49785D01*
X61573Y-49705D02*
X65755Y-49705D01*
X61224Y-49705D02*
X61366Y-49705D01*
X60634Y-49705D02*
X60776Y-49705D01*
X55468Y-49705D02*
X60430Y-49705D01*
X51245Y-49705D02*
X54108Y-49705D01*
X61458Y-49625D02*
X65755Y-49625D01*
X61304Y-49625D02*
X61446Y-49625D01*
X60554Y-49625D02*
X60696Y-49625D01*
X55468Y-49625D02*
X60543Y-49625D01*
X51245Y-49625D02*
X54108Y-49625D01*
X61376Y-49545D02*
X65755Y-49545D01*
X55468Y-49545D02*
X60625Y-49545D01*
X51245Y-49545D02*
X54108Y-49545D01*
X61347Y-49465D02*
X65755Y-49465D01*
X55468Y-49465D02*
X60654Y-49465D01*
X51245Y-49465D02*
X54108Y-49465D01*
X61174Y-49385D02*
X65755Y-49385D01*
X55468Y-49385D02*
X60810Y-49385D01*
X51245Y-49385D02*
X54108Y-49385D01*
X55468Y-49305D02*
X65755Y-49305D01*
X51245Y-49305D02*
X54108Y-49305D01*
X55468Y-49225D02*
X65755Y-49225D01*
X51245Y-49225D02*
X54108Y-49225D01*
X55468Y-49145D02*
X65755Y-49145D01*
X51245Y-49145D02*
X54108Y-49145D01*
X55468Y-49065D02*
X65755Y-49065D01*
X51245Y-49065D02*
X54108Y-49065D01*
X55468Y-48985D02*
X65755Y-48985D01*
X51245Y-48985D02*
X54108Y-48985D01*
X55468Y-48905D02*
X65755Y-48905D01*
X51245Y-48905D02*
X54108Y-48905D01*
X55468Y-48825D02*
X65755Y-48825D01*
X51245Y-48825D02*
X54108Y-48825D01*
X55468Y-48745D02*
X65755Y-48745D01*
X51245Y-48745D02*
X54108Y-48745D01*
X55468Y-48665D02*
X65755Y-48665D01*
X51245Y-48665D02*
X54108Y-48665D01*
X55468Y-48585D02*
X65755Y-48585D01*
X51245Y-48585D02*
X54108Y-48585D01*
X55468Y-48505D02*
X65755Y-48505D01*
X51245Y-48505D02*
X54108Y-48505D01*
X55468Y-48425D02*
X65755Y-48425D01*
X51245Y-48425D02*
X54108Y-48425D01*
X55468Y-48345D02*
X65755Y-48345D01*
X51245Y-48345D02*
X54108Y-48345D01*
X55468Y-48265D02*
X65755Y-48265D01*
X51245Y-48265D02*
X54108Y-48265D01*
X55468Y-48185D02*
X65755Y-48185D01*
X51245Y-48185D02*
X54108Y-48185D01*
X55468Y-48105D02*
X65755Y-48105D01*
X51245Y-48105D02*
X54108Y-48105D01*
X55468Y-48025D02*
X65755Y-48025D01*
X51245Y-48025D02*
X54108Y-48025D01*
X55468Y-47945D02*
X65755Y-47945D01*
X51245Y-47945D02*
X54108Y-47945D01*
X55468Y-47865D02*
X65755Y-47865D01*
X51245Y-47865D02*
X54108Y-47865D01*
X55468Y-47785D02*
X65755Y-47785D01*
X51245Y-47785D02*
X54108Y-47785D01*
X55468Y-47705D02*
X65755Y-47705D01*
X51245Y-47705D02*
X54108Y-47705D01*
X55468Y-47625D02*
X65755Y-47625D01*
X51245Y-47625D02*
X54108Y-47625D01*
X55468Y-47545D02*
X65755Y-47545D01*
X51245Y-47545D02*
X54108Y-47545D01*
X55468Y-47465D02*
X65755Y-47465D01*
X51245Y-47465D02*
X54108Y-47465D01*
X55468Y-47385D02*
X65755Y-47385D01*
X51245Y-47385D02*
X54108Y-47385D01*
X55468Y-47305D02*
X65755Y-47305D01*
X51245Y-47305D02*
X54108Y-47305D01*
X55468Y-47225D02*
X65755Y-47225D01*
X51245Y-47225D02*
X54108Y-47225D01*
X55468Y-47145D02*
X65755Y-47145D01*
X51245Y-47145D02*
X54108Y-47145D01*
X56286Y-47065D02*
X65755Y-47065D01*
X55468Y-47065D02*
X55719Y-47065D01*
X51245Y-47065D02*
X54108Y-47065D01*
X58964Y-46985D02*
X65755Y-46985D01*
X56355Y-46985D02*
X58035Y-46985D01*
X55468Y-46985D02*
X55644Y-46985D01*
X51245Y-46985D02*
X54108Y-46985D01*
X59158Y-46905D02*
X65755Y-46905D01*
X56334Y-46905D02*
X57842Y-46905D01*
X55468Y-46905D02*
X55666Y-46905D01*
X51245Y-46905D02*
X54108Y-46905D01*
X59352Y-46825D02*
X65755Y-46825D01*
X56548Y-46825D02*
X57649Y-46825D01*
X56254Y-46825D02*
X56396Y-46825D01*
X55604Y-46825D02*
X55746Y-46825D01*
X51245Y-46825D02*
X54108Y-46825D01*
X59447Y-46745D02*
X65755Y-46745D01*
X56578Y-46745D02*
X57553Y-46745D01*
X56174Y-46745D02*
X56316Y-46745D01*
X55684Y-46745D02*
X55826Y-46745D01*
X51245Y-46745D02*
X54108Y-46745D01*
X59527Y-46665D02*
X65755Y-46665D01*
X56607Y-46665D02*
X57473Y-46665D01*
X56094Y-46665D02*
X56236Y-46665D01*
X55764Y-46665D02*
X55906Y-46665D01*
X51245Y-46665D02*
X54108Y-46665D01*
X59607Y-46585D02*
X65755Y-46585D01*
X56632Y-46585D02*
X57393Y-46585D01*
X56014Y-46585D02*
X56156Y-46585D01*
X55844Y-46585D02*
X55986Y-46585D01*
X51245Y-46585D02*
X54108Y-46585D01*
X59687Y-46505D02*
X65755Y-46505D01*
X56629Y-46505D02*
X57313Y-46505D01*
X55924Y-46505D02*
X56076Y-46505D01*
X51245Y-46505D02*
X54108Y-46505D01*
X59767Y-46425D02*
X65755Y-46425D01*
X56626Y-46425D02*
X57233Y-46425D01*
X56004Y-46425D02*
X56146Y-46425D01*
X55854Y-46425D02*
X55996Y-46425D01*
X51245Y-46425D02*
X54108Y-46425D01*
X59827Y-46345D02*
X65755Y-46345D01*
X56621Y-46345D02*
X57171Y-46345D01*
X56084Y-46345D02*
X56226Y-46345D01*
X55774Y-46345D02*
X55916Y-46345D01*
X51245Y-46345D02*
X54108Y-46345D01*
X59860Y-46265D02*
X65755Y-46265D01*
X56587Y-46265D02*
X57138Y-46265D01*
X56164Y-46265D02*
X56306Y-46265D01*
X55694Y-46265D02*
X55836Y-46265D01*
X51245Y-46265D02*
X54108Y-46265D01*
X59893Y-46185D02*
X65755Y-46185D01*
X56554Y-46185D02*
X57105Y-46185D01*
X56244Y-46185D02*
X56386Y-46185D01*
X55614Y-46185D02*
X55756Y-46185D01*
X51245Y-46185D02*
X54108Y-46185D01*
X59926Y-46105D02*
X65755Y-46105D01*
X56324Y-46105D02*
X57072Y-46105D01*
X55468Y-46105D02*
X55676Y-46105D01*
X51245Y-46105D02*
X54108Y-46105D01*
X59959Y-46025D02*
X65755Y-46025D01*
X56360Y-46025D02*
X57039Y-46025D01*
X55468Y-46025D02*
X55641Y-46025D01*
X51245Y-46025D02*
X54108Y-46025D01*
X59993Y-45945D02*
X65755Y-45945D01*
X56308Y-45945D02*
X57006Y-45945D01*
X55468Y-45945D02*
X55690Y-45945D01*
X51245Y-45945D02*
X54108Y-45945D01*
X60026Y-45865D02*
X65755Y-45865D01*
X55468Y-45865D02*
X56973Y-45865D01*
X51245Y-45865D02*
X54108Y-45865D01*
X60049Y-45785D02*
X65755Y-45785D01*
X55468Y-45785D02*
X56951Y-45785D01*
X51245Y-45785D02*
X54108Y-45785D01*
X60049Y-45705D02*
X65755Y-45705D01*
X55468Y-45705D02*
X56951Y-45705D01*
X51245Y-45705D02*
X54108Y-45705D01*
X60049Y-45625D02*
X65755Y-45625D01*
X55468Y-45625D02*
X56951Y-45625D01*
X51245Y-45625D02*
X54108Y-45625D01*
X60049Y-45545D02*
X65755Y-45545D01*
X55468Y-45545D02*
X56951Y-45545D01*
X51245Y-45545D02*
X54108Y-45545D01*
X60049Y-45465D02*
X65755Y-45465D01*
X55468Y-45465D02*
X56951Y-45465D01*
X51245Y-45465D02*
X54108Y-45465D01*
X60049Y-45385D02*
X65755Y-45385D01*
X55468Y-45385D02*
X56951Y-45385D01*
X51245Y-45385D02*
X54108Y-45385D01*
X60049Y-45305D02*
X65755Y-45305D01*
X55468Y-45305D02*
X56951Y-45305D01*
X51245Y-45305D02*
X54108Y-45305D01*
X60049Y-45225D02*
X65755Y-45225D01*
X55468Y-45225D02*
X56951Y-45225D01*
X51245Y-45225D02*
X54108Y-45225D01*
X60031Y-45145D02*
X65755Y-45145D01*
X55468Y-45145D02*
X55825Y-45145D01*
X51245Y-45145D02*
X54108Y-45145D01*
X59998Y-45065D02*
X65755Y-45065D01*
X55468Y-45065D02*
X55645Y-45065D01*
X51245Y-45065D02*
X54108Y-45065D01*
X59965Y-44985D02*
X65755Y-44985D01*
X55468Y-44985D02*
X55525Y-44985D01*
X51245Y-44985D02*
X54108Y-44985D01*
X59932Y-44905D02*
X65755Y-44905D01*
X55468Y-44905D02*
X55468Y-44905D01*
X51245Y-44905D02*
X54108Y-44905D01*
X59899Y-44825D02*
X65755Y-44825D01*
X51245Y-44825D02*
X54108Y-44825D01*
X59866Y-44745D02*
X65755Y-44745D01*
X51245Y-44745D02*
X54108Y-44745D01*
X59833Y-44665D02*
X65755Y-44665D01*
X51245Y-44665D02*
X54108Y-44665D01*
X59777Y-44585D02*
X65755Y-44585D01*
X51245Y-44585D02*
X54108Y-44585D01*
X59697Y-44505D02*
X65755Y-44505D01*
X51245Y-44505D02*
X54108Y-44505D01*
X59617Y-44425D02*
X65755Y-44425D01*
X51245Y-44425D02*
X54108Y-44425D01*
X59537Y-44345D02*
X65755Y-44345D01*
X51245Y-44345D02*
X54108Y-44345D01*
X59457Y-44265D02*
X65755Y-44265D01*
X51245Y-44265D02*
X54108Y-44265D01*
X59375Y-44185D02*
X65755Y-44185D01*
X51245Y-44185D02*
X54108Y-44185D01*
X59182Y-44105D02*
X65755Y-44105D01*
X51245Y-44105D02*
X54108Y-44105D01*
X58989Y-44025D02*
X65755Y-44025D01*
X51245Y-44025D02*
X54108Y-44025D01*
X58354Y-43945D02*
X65755Y-43945D01*
X51245Y-43945D02*
X54108Y-43945D01*
X58434Y-43865D02*
X65755Y-43865D01*
X51245Y-43865D02*
X54108Y-43865D01*
X58514Y-43785D02*
X65755Y-43785D01*
X51245Y-43785D02*
X54108Y-43785D01*
X58594Y-43705D02*
X65755Y-43705D01*
X51245Y-43705D02*
X54108Y-43705D01*
X58674Y-43625D02*
X65755Y-43625D01*
X51245Y-43625D02*
X54108Y-43625D01*
X58754Y-43545D02*
X65755Y-43545D01*
X51245Y-43545D02*
X54108Y-43545D01*
X58834Y-43465D02*
X65755Y-43465D01*
X51245Y-43465D02*
X54108Y-43465D01*
X58914Y-43385D02*
X65755Y-43385D01*
X51245Y-43385D02*
X54108Y-43385D01*
X58994Y-43305D02*
X65755Y-43305D01*
X51245Y-43305D02*
X54108Y-43305D01*
X59074Y-43225D02*
X65755Y-43225D01*
X51245Y-43225D02*
X54108Y-43225D01*
X59154Y-43145D02*
X65755Y-43145D01*
X51245Y-43145D02*
X54108Y-43145D01*
X59234Y-43065D02*
X65755Y-43065D01*
X51245Y-43065D02*
X54108Y-43065D01*
X59314Y-42985D02*
X65755Y-42985D01*
X51245Y-42985D02*
X54108Y-42985D01*
X59394Y-42905D02*
X65755Y-42905D01*
X51245Y-42905D02*
X54108Y-42905D01*
X59474Y-42825D02*
X65755Y-42825D01*
X51245Y-42825D02*
X54108Y-42825D01*
X59554Y-42745D02*
X65755Y-42745D01*
X51245Y-42745D02*
X54108Y-42745D01*
X59634Y-42665D02*
X65755Y-42665D01*
X51245Y-42665D02*
X54108Y-42665D01*
X59714Y-42585D02*
X65755Y-42585D01*
X51245Y-42585D02*
X54108Y-42585D01*
X59794Y-42505D02*
X65755Y-42505D01*
X51245Y-42505D02*
X54108Y-42505D01*
X59874Y-42425D02*
X65755Y-42425D01*
X53025Y-42425D02*
X54108Y-42425D01*
X51245Y-42425D02*
X52975Y-42425D01*
X59954Y-42345D02*
X65755Y-42345D01*
X56629Y-42345D02*
X56669Y-42345D01*
X53733Y-42345D02*
X54108Y-42345D01*
X51245Y-42345D02*
X52265Y-42345D01*
X60034Y-42265D02*
X65755Y-42265D01*
X56596Y-42265D02*
X56749Y-42265D01*
X53862Y-42265D02*
X54108Y-42265D01*
X51245Y-42265D02*
X52138Y-42265D01*
X60114Y-42185D02*
X65755Y-42185D01*
X58180Y-42185D02*
X58192Y-42185D01*
X56563Y-42185D02*
X56820Y-42185D01*
X53909Y-42185D02*
X54108Y-42185D01*
X51245Y-42185D02*
X52090Y-42185D01*
X60194Y-42105D02*
X65755Y-42105D01*
X58180Y-42105D02*
X58272Y-42105D01*
X56510Y-42105D02*
X56820Y-42105D01*
X53924Y-42105D02*
X54108Y-42105D01*
X51245Y-42105D02*
X52076Y-42105D01*
X60274Y-42025D02*
X65755Y-42025D01*
X58180Y-42025D02*
X58352Y-42025D01*
X56430Y-42025D02*
X56820Y-42025D01*
X53924Y-42025D02*
X54111Y-42025D01*
X51245Y-42025D02*
X52076Y-42025D01*
X60354Y-41945D02*
X65755Y-41945D01*
X58180Y-41945D02*
X58432Y-41945D01*
X56504Y-41945D02*
X56820Y-41945D01*
X53924Y-41945D02*
X54127Y-41945D01*
X51245Y-41945D02*
X52076Y-41945D01*
X60434Y-41865D02*
X65755Y-41865D01*
X58180Y-41865D02*
X58512Y-41865D01*
X56558Y-41865D02*
X56820Y-41865D01*
X53924Y-41865D02*
X54143Y-41865D01*
X51245Y-41865D02*
X52076Y-41865D01*
X60514Y-41785D02*
X65755Y-41785D01*
X58180Y-41785D02*
X58592Y-41785D01*
X56611Y-41785D02*
X56820Y-41785D01*
X53924Y-41785D02*
X54159Y-41785D01*
X51245Y-41785D02*
X52076Y-41785D01*
X60594Y-41705D02*
X65755Y-41705D01*
X58180Y-41705D02*
X58672Y-41705D01*
X56639Y-41705D02*
X56820Y-41705D01*
X53924Y-41705D02*
X54209Y-41705D01*
X51245Y-41705D02*
X52076Y-41705D01*
X60674Y-41625D02*
X65755Y-41625D01*
X58180Y-41625D02*
X58752Y-41625D01*
X56655Y-41625D02*
X56820Y-41625D01*
X53924Y-41625D02*
X54262Y-41625D01*
X51245Y-41625D02*
X52076Y-41625D01*
X60754Y-41545D02*
X65755Y-41545D01*
X58180Y-41545D02*
X58832Y-41545D01*
X56671Y-41545D02*
X56820Y-41545D01*
X53924Y-41545D02*
X54319Y-41545D01*
X51245Y-41545D02*
X52076Y-41545D01*
X60834Y-41465D02*
X65755Y-41465D01*
X58180Y-41465D02*
X58912Y-41465D01*
X56673Y-41465D02*
X56820Y-41465D01*
X53924Y-41465D02*
X54399Y-41465D01*
X51245Y-41465D02*
X52076Y-41465D01*
X60914Y-41385D02*
X65755Y-41385D01*
X58180Y-41385D02*
X58992Y-41385D01*
X56657Y-41385D02*
X56820Y-41385D01*
X53924Y-41385D02*
X54479Y-41385D01*
X51245Y-41385D02*
X52076Y-41385D01*
X60994Y-41305D02*
X65755Y-41305D01*
X58180Y-41305D02*
X59072Y-41305D01*
X56641Y-41305D02*
X56820Y-41305D01*
X53905Y-41305D02*
X54559Y-41305D01*
X51245Y-41305D02*
X52095Y-41305D01*
X61074Y-41225D02*
X65755Y-41225D01*
X58180Y-41225D02*
X59152Y-41225D01*
X56619Y-41225D02*
X56820Y-41225D01*
X53852Y-41225D02*
X54639Y-41225D01*
X51245Y-41225D02*
X52148Y-41225D01*
X61154Y-41145D02*
X65755Y-41145D01*
X58180Y-41145D02*
X59232Y-41145D01*
X56565Y-41145D02*
X56820Y-41145D01*
X51245Y-41145D02*
X52320Y-41145D01*
X61234Y-41065D02*
X65755Y-41065D01*
X58180Y-41065D02*
X59312Y-41065D01*
X56512Y-41065D02*
X56820Y-41065D01*
X51245Y-41065D02*
X52320Y-41065D01*
X61314Y-40985D02*
X65755Y-40985D01*
X58180Y-40985D02*
X59392Y-40985D01*
X56474Y-40985D02*
X56820Y-40985D01*
X51245Y-40985D02*
X52320Y-40985D01*
X61394Y-40905D02*
X65755Y-40905D01*
X58180Y-40905D02*
X59472Y-40905D01*
X56531Y-40905D02*
X56820Y-40905D01*
X51245Y-40905D02*
X52320Y-40905D01*
X61474Y-40825D02*
X65755Y-40825D01*
X58180Y-40825D02*
X59552Y-40825D01*
X56584Y-40825D02*
X56820Y-40825D01*
X51245Y-40825D02*
X52277Y-40825D01*
X61554Y-40745D02*
X65755Y-40745D01*
X58180Y-40745D02*
X59632Y-40745D01*
X56631Y-40745D02*
X56820Y-40745D01*
X51245Y-40745D02*
X52261Y-40745D01*
X61634Y-40665D02*
X65755Y-40665D01*
X58180Y-40665D02*
X59712Y-40665D01*
X56647Y-40665D02*
X56820Y-40665D01*
X51245Y-40665D02*
X52261Y-40665D01*
X61714Y-40585D02*
X65755Y-40585D01*
X58180Y-40585D02*
X59792Y-40585D01*
X56663Y-40585D02*
X56820Y-40585D01*
X51245Y-40585D02*
X52261Y-40585D01*
X61794Y-40505D02*
X65755Y-40505D01*
X58180Y-40505D02*
X59872Y-40505D01*
X56679Y-40505D02*
X56820Y-40505D01*
X51245Y-40505D02*
X52261Y-40505D01*
X61874Y-40425D02*
X65755Y-40425D01*
X58180Y-40425D02*
X59952Y-40425D01*
X56665Y-40425D02*
X56820Y-40425D01*
X51245Y-40425D02*
X52261Y-40425D01*
X61954Y-40345D02*
X65755Y-40345D01*
X58180Y-40345D02*
X60032Y-40345D01*
X56649Y-40345D02*
X56820Y-40345D01*
X51245Y-40345D02*
X52261Y-40345D01*
X62034Y-40265D02*
X65755Y-40265D01*
X58180Y-40265D02*
X60112Y-40265D01*
X56633Y-40265D02*
X56820Y-40265D01*
X51245Y-40265D02*
X52261Y-40265D01*
X62114Y-40185D02*
X65755Y-40185D01*
X58180Y-40185D02*
X60192Y-40185D01*
X56592Y-40185D02*
X56820Y-40185D01*
X51245Y-40185D02*
X52261Y-40185D01*
X62194Y-40105D02*
X65755Y-40105D01*
X58180Y-40105D02*
X60272Y-40105D01*
X56539Y-40105D02*
X56820Y-40105D01*
X51245Y-40105D02*
X52274Y-40105D01*
X62274Y-40025D02*
X65755Y-40025D01*
X58180Y-40025D02*
X60352Y-40025D01*
X56485Y-40025D02*
X56820Y-40025D01*
X51245Y-40025D02*
X52318Y-40025D01*
X62354Y-39945D02*
X65755Y-39945D01*
X58180Y-39945D02*
X60432Y-39945D01*
X56370Y-39945D02*
X56820Y-39945D01*
X51245Y-39945D02*
X52440Y-39945D01*
X62434Y-39865D02*
X65755Y-39865D01*
X58180Y-39865D02*
X60512Y-39865D01*
X56225Y-39865D02*
X56820Y-39865D01*
X51245Y-39865D02*
X52691Y-39865D01*
X62514Y-39785D02*
X65755Y-39785D01*
X58180Y-39785D02*
X60592Y-39785D01*
X53026Y-39785D02*
X56820Y-39785D01*
X51245Y-39785D02*
X52975Y-39785D01*
X62594Y-39705D02*
X65755Y-39705D01*
X58180Y-39705D02*
X60672Y-39705D01*
X51245Y-39705D02*
X56820Y-39705D01*
X62674Y-39625D02*
X65755Y-39625D01*
X58180Y-39625D02*
X60752Y-39625D01*
X51245Y-39625D02*
X56820Y-39625D01*
X62754Y-39545D02*
X65755Y-39545D01*
X58180Y-39545D02*
X60832Y-39545D01*
X51245Y-39545D02*
X56820Y-39545D01*
X62834Y-39465D02*
X65755Y-39465D01*
X58180Y-39465D02*
X60912Y-39465D01*
X51245Y-39465D02*
X56820Y-39465D01*
X62914Y-39385D02*
X65755Y-39385D01*
X58180Y-39385D02*
X60992Y-39385D01*
X51245Y-39385D02*
X56820Y-39385D01*
X62994Y-39305D02*
X65755Y-39305D01*
X58180Y-39305D02*
X61072Y-39305D01*
X51245Y-39305D02*
X56820Y-39305D01*
X63074Y-39225D02*
X65755Y-39225D01*
X58180Y-39225D02*
X61152Y-39225D01*
X51245Y-39225D02*
X56820Y-39225D01*
X63154Y-39145D02*
X65755Y-39145D01*
X58180Y-39145D02*
X61232Y-39145D01*
X53294Y-39145D02*
X56820Y-39145D01*
X51245Y-39145D02*
X52705Y-39145D01*
X63234Y-39065D02*
X65755Y-39065D01*
X58180Y-39065D02*
X61312Y-39065D01*
X53414Y-39065D02*
X56820Y-39065D01*
X51245Y-39065D02*
X52584Y-39065D01*
X63314Y-38985D02*
X65755Y-38985D01*
X58180Y-38985D02*
X61392Y-38985D01*
X53672Y-38985D02*
X56820Y-38985D01*
X51245Y-38985D02*
X52328Y-38985D01*
X63390Y-38905D02*
X65755Y-38905D01*
X58180Y-38905D02*
X61472Y-38905D01*
X53722Y-38905D02*
X56820Y-38905D01*
X51245Y-38905D02*
X52277Y-38905D01*
X63443Y-38825D02*
X65755Y-38825D01*
X58180Y-38825D02*
X61552Y-38825D01*
X53739Y-38825D02*
X56820Y-38825D01*
X51245Y-38825D02*
X52261Y-38825D01*
X63496Y-38745D02*
X65755Y-38745D01*
X58180Y-38745D02*
X61632Y-38745D01*
X53739Y-38745D02*
X56820Y-38745D01*
X51245Y-38745D02*
X52261Y-38745D01*
X63534Y-38665D02*
X65755Y-38665D01*
X58180Y-38665D02*
X61712Y-38665D01*
X53739Y-38665D02*
X56820Y-38665D01*
X51245Y-38665D02*
X52261Y-38665D01*
X63550Y-38585D02*
X65755Y-38585D01*
X58180Y-38585D02*
X61792Y-38585D01*
X53739Y-38585D02*
X56820Y-38585D01*
X51245Y-38585D02*
X52261Y-38585D01*
X63566Y-38505D02*
X65755Y-38505D01*
X58180Y-38505D02*
X61872Y-38505D01*
X53739Y-38505D02*
X56820Y-38505D01*
X51245Y-38505D02*
X52261Y-38505D01*
X63580Y-38425D02*
X65755Y-38425D01*
X58180Y-38425D02*
X61952Y-38425D01*
X53739Y-38425D02*
X56820Y-38425D01*
X51245Y-38425D02*
X52261Y-38425D01*
X63580Y-38345D02*
X65755Y-38345D01*
X59759Y-38345D02*
X62032Y-38345D01*
X58180Y-38345D02*
X59240Y-38345D01*
X53739Y-38345D02*
X56820Y-38345D01*
X51245Y-38345D02*
X52261Y-38345D01*
X63580Y-38265D02*
X65755Y-38265D01*
X59903Y-38265D02*
X62112Y-38265D01*
X58180Y-38265D02*
X59097Y-38265D01*
X53739Y-38265D02*
X56820Y-38265D01*
X51245Y-38265D02*
X52261Y-38265D01*
X63580Y-38185D02*
X65755Y-38185D01*
X59983Y-38185D02*
X62192Y-38185D01*
X58180Y-38185D02*
X59017Y-38185D01*
X53727Y-38185D02*
X56820Y-38185D01*
X51245Y-38185D02*
X52274Y-38185D01*
X63580Y-38105D02*
X65755Y-38105D01*
X60055Y-38105D02*
X62220Y-38105D01*
X58180Y-38105D02*
X58944Y-38105D01*
X53682Y-38105D02*
X56820Y-38105D01*
X51245Y-38105D02*
X52318Y-38105D01*
X63580Y-38025D02*
X65755Y-38025D01*
X60088Y-38025D02*
X62220Y-38025D01*
X58180Y-38025D02*
X58911Y-38025D01*
X53680Y-38025D02*
X56820Y-38025D01*
X51245Y-38025D02*
X52320Y-38025D01*
X63580Y-37945D02*
X65755Y-37945D01*
X60121Y-37945D02*
X62220Y-37945D01*
X58180Y-37945D02*
X58878Y-37945D01*
X53680Y-37945D02*
X56820Y-37945D01*
X51245Y-37945D02*
X52320Y-37945D01*
X63580Y-37865D02*
X65755Y-37865D01*
X60149Y-37865D02*
X62220Y-37865D01*
X58180Y-37865D02*
X58851Y-37865D01*
X53680Y-37865D02*
X56820Y-37865D01*
X51245Y-37865D02*
X52320Y-37865D01*
X63580Y-37785D02*
X65755Y-37785D01*
X60149Y-37785D02*
X62220Y-37785D01*
X58180Y-37785D02*
X58851Y-37785D01*
X53842Y-37785D02*
X56820Y-37785D01*
X51245Y-37785D02*
X52158Y-37785D01*
X64497Y-37705D02*
X65755Y-37705D01*
X64033Y-37705D02*
X64167Y-37705D01*
X63580Y-37705D02*
X63703Y-37705D01*
X60149Y-37705D02*
X62220Y-37705D01*
X58171Y-37705D02*
X58851Y-37705D01*
X53901Y-37705D02*
X56829Y-37705D01*
X51245Y-37705D02*
X52099Y-37705D01*
X64567Y-37625D02*
X65755Y-37625D01*
X64050Y-37625D02*
X64150Y-37625D01*
X63580Y-37625D02*
X63632Y-37625D01*
X60149Y-37625D02*
X62220Y-37625D01*
X58155Y-37625D02*
X58851Y-37625D01*
X53924Y-37625D02*
X56845Y-37625D01*
X51245Y-37625D02*
X52076Y-37625D01*
X64599Y-37545D02*
X65755Y-37545D01*
X64050Y-37545D02*
X64150Y-37545D01*
X63580Y-37545D02*
X63600Y-37545D01*
X60118Y-37545D02*
X62220Y-37545D01*
X58139Y-37545D02*
X58883Y-37545D01*
X53924Y-37545D02*
X56861Y-37545D01*
X51245Y-37545D02*
X52076Y-37545D01*
X64599Y-37465D02*
X65755Y-37465D01*
X64050Y-37465D02*
X64150Y-37465D01*
X63580Y-37465D02*
X63600Y-37465D01*
X60085Y-37465D02*
X62220Y-37465D01*
X58112Y-37465D02*
X58916Y-37465D01*
X53924Y-37465D02*
X56889Y-37465D01*
X51245Y-37465D02*
X52076Y-37465D01*
X64599Y-37385D02*
X65755Y-37385D01*
X64050Y-37385D02*
X64150Y-37385D01*
X63580Y-37385D02*
X63600Y-37385D01*
X60052Y-37385D02*
X62220Y-37385D01*
X58059Y-37385D02*
X58949Y-37385D01*
X53924Y-37385D02*
X56942Y-37385D01*
X51245Y-37385D02*
X52076Y-37385D01*
X64599Y-37305D02*
X65755Y-37305D01*
X64050Y-37305D02*
X64150Y-37305D01*
X63580Y-37305D02*
X63600Y-37305D01*
X59973Y-37305D02*
X62220Y-37305D01*
X58005Y-37305D02*
X59027Y-37305D01*
X53924Y-37305D02*
X56996Y-37305D01*
X51245Y-37305D02*
X52076Y-37305D01*
X64599Y-37225D02*
X65755Y-37225D01*
X64050Y-37225D02*
X64150Y-37225D01*
X63580Y-37225D02*
X63600Y-37225D01*
X59893Y-37225D02*
X62220Y-37225D01*
X57915Y-37225D02*
X59107Y-37225D01*
X53986Y-37225D02*
X57086Y-37225D01*
X51245Y-37225D02*
X52076Y-37225D01*
X64599Y-37145D02*
X65755Y-37145D01*
X64050Y-37145D02*
X64150Y-37145D01*
X63580Y-37145D02*
X63600Y-37145D01*
X59736Y-37145D02*
X62220Y-37145D01*
X57795Y-37145D02*
X59265Y-37145D01*
X54066Y-37145D02*
X57206Y-37145D01*
X51245Y-37145D02*
X52076Y-37145D01*
X64553Y-37065D02*
X65755Y-37065D01*
X64050Y-37065D02*
X64150Y-37065D01*
X63580Y-37065D02*
X63647Y-37065D01*
X54146Y-37065D02*
X62220Y-37065D01*
X51245Y-37065D02*
X52076Y-37065D01*
X63580Y-36985D02*
X65755Y-36985D01*
X54226Y-36985D02*
X62220Y-36985D01*
X51245Y-36985D02*
X52076Y-36985D01*
X64583Y-36905D02*
X65755Y-36905D01*
X64050Y-36905D02*
X64150Y-36905D01*
X63580Y-36905D02*
X63617Y-36905D01*
X54306Y-36905D02*
X62220Y-36905D01*
X51245Y-36905D02*
X52076Y-36905D01*
X64600Y-36825D02*
X65755Y-36825D01*
X64050Y-36825D02*
X64150Y-36825D01*
X63580Y-36825D02*
X63601Y-36825D01*
X54386Y-36825D02*
X62220Y-36825D01*
X51245Y-36825D02*
X52087Y-36825D01*
X64600Y-36745D02*
X65755Y-36745D01*
X64050Y-36745D02*
X64150Y-36745D01*
X63580Y-36745D02*
X63601Y-36745D01*
X54466Y-36745D02*
X62220Y-36745D01*
X51245Y-36745D02*
X52128Y-36745D01*
X64600Y-36665D02*
X65755Y-36665D01*
X64050Y-36665D02*
X64150Y-36665D01*
X63580Y-36665D02*
X63601Y-36665D01*
X54546Y-36665D02*
X62220Y-36665D01*
X51245Y-36665D02*
X52243Y-36665D01*
X64600Y-36585D02*
X65755Y-36585D01*
X64050Y-36585D02*
X64150Y-36585D01*
X63580Y-36585D02*
X63601Y-36585D01*
X54626Y-36585D02*
X62220Y-36585D01*
X51245Y-36585D02*
X52703Y-36585D01*
X64600Y-36505D02*
X65755Y-36505D01*
X64050Y-36505D02*
X64150Y-36505D01*
X63580Y-36505D02*
X63601Y-36505D01*
X54706Y-36505D02*
X62220Y-36505D01*
X51245Y-36505D02*
X52783Y-36505D01*
X64589Y-36425D02*
X65755Y-36425D01*
X64050Y-36425D02*
X64150Y-36425D01*
X63580Y-36425D02*
X63612Y-36425D01*
X54786Y-36425D02*
X62220Y-36425D01*
X51245Y-36425D02*
X52863Y-36425D01*
X64547Y-36345D02*
X65755Y-36345D01*
X64050Y-36345D02*
X64150Y-36345D01*
X63580Y-36345D02*
X63653Y-36345D01*
X54866Y-36345D02*
X62220Y-36345D01*
X51245Y-36345D02*
X52943Y-36345D01*
X64433Y-36265D02*
X65755Y-36265D01*
X64003Y-36265D02*
X64197Y-36265D01*
X63580Y-36265D02*
X63768Y-36265D01*
X54946Y-36265D02*
X62220Y-36265D01*
X51245Y-36265D02*
X53023Y-36265D01*
X63580Y-36185D02*
X65755Y-36185D01*
X55026Y-36185D02*
X62220Y-36185D01*
X51245Y-36185D02*
X53103Y-36185D01*
X63580Y-36105D02*
X65755Y-36105D01*
X56735Y-36105D02*
X62220Y-36105D01*
X55794Y-36105D02*
X56264Y-36105D01*
X51245Y-36105D02*
X53183Y-36105D01*
X63580Y-36025D02*
X65755Y-36025D01*
X56893Y-36025D02*
X62220Y-36025D01*
X55914Y-36025D02*
X56107Y-36025D01*
X51245Y-36025D02*
X53263Y-36025D01*
X63580Y-35945D02*
X65755Y-35945D01*
X56973Y-35945D02*
X62220Y-35945D01*
X56004Y-35945D02*
X56027Y-35945D01*
X51245Y-35945D02*
X53343Y-35945D01*
X63584Y-35865D02*
X65755Y-35865D01*
X57051Y-35865D02*
X62220Y-35865D01*
X51245Y-35865D02*
X53423Y-35865D01*
X63631Y-35785D02*
X65755Y-35785D01*
X57084Y-35785D02*
X62220Y-35785D01*
X51245Y-35785D02*
X53503Y-35785D01*
X63647Y-35705D02*
X65755Y-35705D01*
X57117Y-35705D02*
X62220Y-35705D01*
X51245Y-35705D02*
X53583Y-35705D01*
X63663Y-35625D02*
X65755Y-35625D01*
X57149Y-35625D02*
X62223Y-35625D01*
X51245Y-35625D02*
X53663Y-35625D01*
X63679Y-35545D02*
X65755Y-35545D01*
X57149Y-35545D02*
X62239Y-35545D01*
X51245Y-35545D02*
X53743Y-35545D01*
X63680Y-35465D02*
X65755Y-35465D01*
X57149Y-35465D02*
X62255Y-35465D01*
X51245Y-35465D02*
X53823Y-35465D01*
X63680Y-35385D02*
X65755Y-35385D01*
X57149Y-35385D02*
X62271Y-35385D01*
X51245Y-35385D02*
X53903Y-35385D01*
X63680Y-35305D02*
X65755Y-35305D01*
X57122Y-35305D02*
X62320Y-35305D01*
X51245Y-35305D02*
X53983Y-35305D01*
X63680Y-35225D02*
X65755Y-35225D01*
X57089Y-35225D02*
X62320Y-35225D01*
X51245Y-35225D02*
X54063Y-35225D01*
X63680Y-35145D02*
X65755Y-35145D01*
X57056Y-35145D02*
X62320Y-35145D01*
X51245Y-35145D02*
X54143Y-35145D01*
X63680Y-35065D02*
X65755Y-35065D01*
X56983Y-35065D02*
X62320Y-35065D01*
X56012Y-35065D02*
X56017Y-35065D01*
X51245Y-35065D02*
X54223Y-35065D01*
X63680Y-34985D02*
X65755Y-34985D01*
X56903Y-34985D02*
X62320Y-34985D01*
X55930Y-34985D02*
X56097Y-34985D01*
X51245Y-34985D02*
X54321Y-34985D01*
X64270Y-34905D02*
X65755Y-34905D01*
X63908Y-34905D02*
X64092Y-34905D01*
X63680Y-34905D02*
X63729Y-34905D01*
X56760Y-34905D02*
X62320Y-34905D01*
X55810Y-34905D02*
X56241Y-34905D01*
X51245Y-34905D02*
X54441Y-34905D01*
X64377Y-34825D02*
X65755Y-34825D01*
X63950Y-34825D02*
X64050Y-34825D01*
X55525Y-34825D02*
X62320Y-34825D01*
X51245Y-34825D02*
X54725Y-34825D01*
X64415Y-34745D02*
X65755Y-34745D01*
X63950Y-34745D02*
X64050Y-34745D01*
X51245Y-34745D02*
X62320Y-34745D01*
X64424Y-34665D02*
X65755Y-34665D01*
X63950Y-34665D02*
X64050Y-34665D01*
X51245Y-34665D02*
X62320Y-34665D01*
X64424Y-34585D02*
X65755Y-34585D01*
X63950Y-34585D02*
X64050Y-34585D01*
X51245Y-34585D02*
X62320Y-34585D01*
X64424Y-34505D02*
X65755Y-34505D01*
X63950Y-34505D02*
X64050Y-34505D01*
X51245Y-34505D02*
X62320Y-34505D01*
X64424Y-34425D02*
X65755Y-34425D01*
X63950Y-34425D02*
X64050Y-34425D01*
X51245Y-34425D02*
X62320Y-34425D01*
X64408Y-34345D02*
X65755Y-34345D01*
X63950Y-34345D02*
X64050Y-34345D01*
X51245Y-34345D02*
X62320Y-34345D01*
X63950Y-34265D02*
X65755Y-34265D01*
X51245Y-34265D02*
X62320Y-34265D01*
X64378Y-34185D02*
X65755Y-34185D01*
X63950Y-34185D02*
X64050Y-34185D01*
X51245Y-34185D02*
X62333Y-34185D01*
X64425Y-34105D02*
X65755Y-34105D01*
X63950Y-34105D02*
X64050Y-34105D01*
X51245Y-34105D02*
X62349Y-34105D01*
X64425Y-34025D02*
X65755Y-34025D01*
X63950Y-34025D02*
X64050Y-34025D01*
X51245Y-34025D02*
X62365Y-34025D01*
X64425Y-33945D02*
X65755Y-33945D01*
X63950Y-33945D02*
X64050Y-33945D01*
X51245Y-33945D02*
X62402Y-33945D01*
X64425Y-33865D02*
X65755Y-33865D01*
X63950Y-33865D02*
X64050Y-33865D01*
X63545Y-33865D02*
X63576Y-33865D01*
X51245Y-33865D02*
X62456Y-33865D01*
X64425Y-33785D02*
X65755Y-33785D01*
X63950Y-33785D02*
X64050Y-33785D01*
X63492Y-33785D02*
X63576Y-33785D01*
X51245Y-33785D02*
X62509Y-33785D01*
X64395Y-33705D02*
X65755Y-33705D01*
X63950Y-33705D02*
X64050Y-33705D01*
X63395Y-33705D02*
X63606Y-33705D01*
X51245Y-33705D02*
X62605Y-33705D01*
X64327Y-33625D02*
X65755Y-33625D01*
X63938Y-33625D02*
X64062Y-33625D01*
X63327Y-33625D02*
X63673Y-33625D01*
X51245Y-33625D02*
X62673Y-33625D01*
X51245Y-33545D02*
X65755Y-33545D01*
X51245Y-33465D02*
X65755Y-33465D01*
X51245Y-33385D02*
X65755Y-33385D01*
X51245Y-33305D02*
X65755Y-33305D01*
X51245Y-33225D02*
X65755Y-33225D01*
X51245Y-33145D02*
X65755Y-33145D01*
X51245Y-33065D02*
X65755Y-33065D01*
X51245Y-32985D02*
X65755Y-32985D01*
X51245Y-32905D02*
X65755Y-32905D01*
X51245Y-32825D02*
X65755Y-32825D01*
X51245Y-32745D02*
X65755Y-32745D01*
X51245Y-32665D02*
X65755Y-32665D01*
X51245Y-32585D02*
X65755Y-32585D01*
X51245Y-32505D02*
X65755Y-32505D01*
X64024Y-32425D02*
X65755Y-32425D01*
X63024Y-32425D02*
X63975Y-32425D01*
X57998Y-32425D02*
X62975Y-32425D01*
X52998Y-32425D02*
X57499Y-32425D01*
X51245Y-32425D02*
X52499Y-32425D01*
X64357Y-32345D02*
X65755Y-32345D01*
X63357Y-32345D02*
X63643Y-32345D01*
X58192Y-32345D02*
X62643Y-32345D01*
X53192Y-32345D02*
X57307Y-32345D01*
X51245Y-32345D02*
X52307Y-32345D01*
X64428Y-32265D02*
X65755Y-32265D01*
X63428Y-32265D02*
X63570Y-32265D01*
X58328Y-32265D02*
X62570Y-32265D01*
X53328Y-32265D02*
X57171Y-32265D01*
X51245Y-32265D02*
X52171Y-32265D01*
X64511Y-32185D02*
X65755Y-32185D01*
X58408Y-32185D02*
X62488Y-32185D01*
X53408Y-32185D02*
X57091Y-32185D01*
X51245Y-32185D02*
X52091Y-32185D01*
X64564Y-32105D02*
X65755Y-32105D01*
X58488Y-32105D02*
X62435Y-32105D01*
X53488Y-32105D02*
X57011Y-32105D01*
X51245Y-32105D02*
X52011Y-32105D01*
X64618Y-32025D02*
X65755Y-32025D01*
X58560Y-32025D02*
X62381Y-32025D01*
X53560Y-32025D02*
X56939Y-32025D01*
X51245Y-32025D02*
X51939Y-32025D01*
X64641Y-31945D02*
X65755Y-31945D01*
X58594Y-31945D02*
X62359Y-31945D01*
X53594Y-31945D02*
X56906Y-31945D01*
X51245Y-31945D02*
X51906Y-31945D01*
X64657Y-31865D02*
X65755Y-31865D01*
X58627Y-31865D02*
X62343Y-31865D01*
X53627Y-31865D02*
X56873Y-31865D01*
X51245Y-31865D02*
X51873Y-31865D01*
X64673Y-31785D02*
X65755Y-31785D01*
X58660Y-31785D02*
X62327Y-31785D01*
X53660Y-31785D02*
X56840Y-31785D01*
X51245Y-31785D02*
X51840Y-31785D01*
X64680Y-31705D02*
X65755Y-31705D01*
X58693Y-31705D02*
X62320Y-31705D01*
X53693Y-31705D02*
X56807Y-31705D01*
X51245Y-31705D02*
X51807Y-31705D01*
X64680Y-31625D02*
X65755Y-31625D01*
X58700Y-31625D02*
X62320Y-31625D01*
X53700Y-31625D02*
X56800Y-31625D01*
X51245Y-31625D02*
X51800Y-31625D01*
X64680Y-31545D02*
X65755Y-31545D01*
X58700Y-31545D02*
X62320Y-31545D01*
X53700Y-31545D02*
X56800Y-31545D01*
X51245Y-31545D02*
X51800Y-31545D01*
X64680Y-31465D02*
X65755Y-31465D01*
X58700Y-31465D02*
X62320Y-31465D01*
X53700Y-31465D02*
X56800Y-31465D01*
X51245Y-31465D02*
X51800Y-31465D01*
X64680Y-31385D02*
X65755Y-31385D01*
X58700Y-31385D02*
X62320Y-31385D01*
X53700Y-31385D02*
X56800Y-31385D01*
X51245Y-31385D02*
X51800Y-31385D01*
X64680Y-31305D02*
X65755Y-31305D01*
X58698Y-31305D02*
X62320Y-31305D01*
X53698Y-31305D02*
X56803Y-31305D01*
X51245Y-31305D02*
X51803Y-31305D01*
X64680Y-31225D02*
X65755Y-31225D01*
X58665Y-31225D02*
X62320Y-31225D01*
X53665Y-31225D02*
X56836Y-31225D01*
X51245Y-31225D02*
X51836Y-31225D01*
X64680Y-31145D02*
X65755Y-31145D01*
X58632Y-31145D02*
X62320Y-31145D01*
X53632Y-31145D02*
X56869Y-31145D01*
X51245Y-31145D02*
X51869Y-31145D01*
X64680Y-31065D02*
X65755Y-31065D01*
X58599Y-31065D02*
X62320Y-31065D01*
X53599Y-31065D02*
X56902Y-31065D01*
X51245Y-31065D02*
X51902Y-31065D01*
X64680Y-30985D02*
X65755Y-30985D01*
X58566Y-30985D02*
X62320Y-30985D01*
X53566Y-30985D02*
X56936Y-30985D01*
X51245Y-30985D02*
X51936Y-30985D01*
X64680Y-30905D02*
X65755Y-30905D01*
X58499Y-30905D02*
X62320Y-30905D01*
X53499Y-30905D02*
X57002Y-30905D01*
X51245Y-30905D02*
X52002Y-30905D01*
X64680Y-30825D02*
X65755Y-30825D01*
X58419Y-30825D02*
X62320Y-30825D01*
X53419Y-30825D02*
X57082Y-30825D01*
X51245Y-30825D02*
X52082Y-30825D01*
X64680Y-30745D02*
X65755Y-30745D01*
X58339Y-30745D02*
X62320Y-30745D01*
X53339Y-30745D02*
X57162Y-30745D01*
X51245Y-30745D02*
X52162Y-30745D01*
X64680Y-30665D02*
X65755Y-30665D01*
X58217Y-30665D02*
X62320Y-30665D01*
X53217Y-30665D02*
X57284Y-30665D01*
X51245Y-30665D02*
X52284Y-30665D01*
X64680Y-30585D02*
X65755Y-30585D01*
X58025Y-30585D02*
X62320Y-30585D01*
X53025Y-30585D02*
X57478Y-30585D01*
X51245Y-30585D02*
X52478Y-30585D01*
X64680Y-30505D02*
X65755Y-30505D01*
X51245Y-30505D02*
X62320Y-30505D01*
X64680Y-30425D02*
X65755Y-30425D01*
X51245Y-30425D02*
X62320Y-30425D01*
X64680Y-30345D02*
X65755Y-30345D01*
X51245Y-30345D02*
X62320Y-30345D01*
X64680Y-30265D02*
X65755Y-30265D01*
X51245Y-30265D02*
X62320Y-30265D01*
X64680Y-30185D02*
X65755Y-30185D01*
X51245Y-30185D02*
X62320Y-30185D01*
X64680Y-30105D02*
X65755Y-30105D01*
X51245Y-30105D02*
X62320Y-30105D01*
X64680Y-30025D02*
X65755Y-30025D01*
X51245Y-30025D02*
X62320Y-30025D01*
X64680Y-29945D02*
X65755Y-29945D01*
X51245Y-29945D02*
X62320Y-29945D01*
X64680Y-29865D02*
X65755Y-29865D01*
X51245Y-29865D02*
X62320Y-29865D01*
X64680Y-29785D02*
X65755Y-29785D01*
X51245Y-29785D02*
X62320Y-29785D01*
X64680Y-29705D02*
X65755Y-29705D01*
X51245Y-29705D02*
X62320Y-29705D01*
X64680Y-29625D02*
X65755Y-29625D01*
X51245Y-29625D02*
X62320Y-29625D01*
X64680Y-29545D02*
X65755Y-29545D01*
X51245Y-29545D02*
X62320Y-29545D01*
X64680Y-29465D02*
X65755Y-29465D01*
X51245Y-29465D02*
X62320Y-29465D01*
X64680Y-29385D02*
X65755Y-29385D01*
X51245Y-29385D02*
X62320Y-29385D01*
X64680Y-29305D02*
X65755Y-29305D01*
X51245Y-29305D02*
X62320Y-29305D01*
X64680Y-29225D02*
X65755Y-29225D01*
X51245Y-29225D02*
X62320Y-29225D01*
X64680Y-29145D02*
X65755Y-29145D01*
X51245Y-29145D02*
X62320Y-29145D01*
X64680Y-29065D02*
X65755Y-29065D01*
X51245Y-29065D02*
X62320Y-29065D01*
X64680Y-28985D02*
X65755Y-28985D01*
X51245Y-28985D02*
X62320Y-28985D01*
X64680Y-28905D02*
X65755Y-28905D01*
X51245Y-28905D02*
X62320Y-28905D01*
X64680Y-28825D02*
X65755Y-28825D01*
X51245Y-28825D02*
X62320Y-28825D01*
X64680Y-28745D02*
X65755Y-28745D01*
X51245Y-28745D02*
X62320Y-28745D01*
X64680Y-28665D02*
X65755Y-28665D01*
X51245Y-28665D02*
X62320Y-28665D01*
X64680Y-28585D02*
X65755Y-28585D01*
X51245Y-28585D02*
X62320Y-28585D01*
X64680Y-28505D02*
X65755Y-28505D01*
X51245Y-28505D02*
X62320Y-28505D01*
X64665Y-28425D02*
X65755Y-28425D01*
X51245Y-28425D02*
X62335Y-28425D01*
X64649Y-28345D02*
X65755Y-28345D01*
X51245Y-28345D02*
X62351Y-28345D01*
X64633Y-28265D02*
X65755Y-28265D01*
X51245Y-28265D02*
X62367Y-28265D01*
X64614Y-28185D02*
X65755Y-28185D01*
X56916Y-28185D02*
X62409Y-28185D01*
X55436Y-28185D02*
X56543Y-28185D01*
X53956Y-28185D02*
X55063Y-28185D01*
X51245Y-28185D02*
X53583Y-28185D01*
X64614Y-28105D02*
X65755Y-28105D01*
X57103Y-28105D02*
X62462Y-28105D01*
X55623Y-28105D02*
X56357Y-28105D01*
X54143Y-28105D02*
X54877Y-28105D01*
X51245Y-28105D02*
X53397Y-28105D01*
X64589Y-28025D02*
X65755Y-28025D01*
X57183Y-28025D02*
X62516Y-28025D01*
X55703Y-28025D02*
X56277Y-28025D01*
X54223Y-28025D02*
X54797Y-28025D01*
X51245Y-28025D02*
X53317Y-28025D01*
X64527Y-27945D02*
X65755Y-27945D01*
X57263Y-27945D02*
X62630Y-27945D01*
X55783Y-27945D02*
X56197Y-27945D01*
X54303Y-27945D02*
X54717Y-27945D01*
X51245Y-27945D02*
X53237Y-27945D01*
X64363Y-27865D02*
X65755Y-27865D01*
X57306Y-27865D02*
X62637Y-27865D01*
X55826Y-27865D02*
X56153Y-27865D01*
X54346Y-27865D02*
X54673Y-27865D01*
X51245Y-27865D02*
X53193Y-27865D01*
X64438Y-27785D02*
X65755Y-27785D01*
X57339Y-27785D02*
X62560Y-27785D01*
X55859Y-27785D02*
X56120Y-27785D01*
X54379Y-27785D02*
X54640Y-27785D01*
X51245Y-27785D02*
X53160Y-27785D01*
X64472Y-27705D02*
X65755Y-27705D01*
X57372Y-27705D02*
X62527Y-27705D01*
X55892Y-27705D02*
X56087Y-27705D01*
X54412Y-27705D02*
X54607Y-27705D01*
X51245Y-27705D02*
X53127Y-27705D01*
X64505Y-27625D02*
X65755Y-27625D01*
X57379Y-27625D02*
X62494Y-27625D01*
X55899Y-27625D02*
X56081Y-27625D01*
X54419Y-27625D02*
X54601Y-27625D01*
X51245Y-27625D02*
X53121Y-27625D01*
X64515Y-27545D02*
X65755Y-27545D01*
X57379Y-27545D02*
X62485Y-27545D01*
X55899Y-27545D02*
X56081Y-27545D01*
X54419Y-27545D02*
X54601Y-27545D01*
X51245Y-27545D02*
X53121Y-27545D01*
X64515Y-27465D02*
X65755Y-27465D01*
X57379Y-27465D02*
X62485Y-27465D01*
X55899Y-27465D02*
X56081Y-27465D01*
X54419Y-27465D02*
X54601Y-27465D01*
X51245Y-27465D02*
X53121Y-27465D01*
X64510Y-27385D02*
X65755Y-27385D01*
X57360Y-27385D02*
X62491Y-27385D01*
X55880Y-27385D02*
X56101Y-27385D01*
X54400Y-27385D02*
X54621Y-27385D01*
X51245Y-27385D02*
X53141Y-27385D01*
X64477Y-27305D02*
X65755Y-27305D01*
X63477Y-27305D02*
X63523Y-27305D01*
X57327Y-27305D02*
X62524Y-27305D01*
X55847Y-27305D02*
X56134Y-27305D01*
X54367Y-27305D02*
X54654Y-27305D01*
X51245Y-27305D02*
X53174Y-27305D01*
X64444Y-27225D02*
X65755Y-27225D01*
X63444Y-27225D02*
X63557Y-27225D01*
X57294Y-27225D02*
X62557Y-27225D01*
X55814Y-27225D02*
X56167Y-27225D01*
X54334Y-27225D02*
X54687Y-27225D01*
X51245Y-27225D02*
X53207Y-27225D01*
X64373Y-27145D02*
X65755Y-27145D01*
X63373Y-27145D02*
X63627Y-27145D01*
X57233Y-27145D02*
X62627Y-27145D01*
X55753Y-27145D02*
X56227Y-27145D01*
X54273Y-27145D02*
X54747Y-27145D01*
X51245Y-27145D02*
X53267Y-27145D01*
X64293Y-27065D02*
X65755Y-27065D01*
X63293Y-27065D02*
X63707Y-27065D01*
X57153Y-27065D02*
X62707Y-27065D01*
X55673Y-27065D02*
X56307Y-27065D01*
X54193Y-27065D02*
X54827Y-27065D01*
X51245Y-27065D02*
X53347Y-27065D01*
X64103Y-26985D02*
X65755Y-26985D01*
X63103Y-26985D02*
X63898Y-26985D01*
X57038Y-26985D02*
X62898Y-26985D01*
X55558Y-26985D02*
X56423Y-26985D01*
X54078Y-26985D02*
X54943Y-26985D01*
X51245Y-26985D02*
X53463Y-26985D01*
X51245Y-26905D02*
X65755Y-26905D01*
X51245Y-26825D02*
X65755Y-26825D01*
X51245Y-26745D02*
X65755Y-26745D01*
X65755Y-56255D02*
X65755Y-26745D01*
X65755Y-26745D02*
X51245Y-26745D01*
X51245Y-26745D02*
X51245Y-56255D01*
X51245Y-56255D02*
X55499Y-56255D01*
X55499Y-56255D02*
X55499Y-56180D01*
X55499Y-56180D02*
X55239Y-56127D01*
X55239Y-56127D02*
X55019Y-55980D01*
X55019Y-55980D02*
X54307Y-55269D01*
X54307Y-55269D02*
X54160Y-55048D01*
X54160Y-55048D02*
X54108Y-54788D01*
X54108Y-54788D02*
X54108Y-42038D01*
X54108Y-42038D02*
X54160Y-41778D01*
X54160Y-41778D02*
X54307Y-41557D01*
X54307Y-41557D02*
X54684Y-41180D01*
X54684Y-41180D02*
X53794Y-41180D01*
X53794Y-41180D02*
X53816Y-41189D01*
X53816Y-41189D02*
X53886Y-41259D01*
X53886Y-41259D02*
X53924Y-41351D01*
X53924Y-41351D02*
X53924Y-42150D01*
X53924Y-42150D02*
X53886Y-42241D01*
X53886Y-42241D02*
X53816Y-42311D01*
X53816Y-42311D02*
X53724Y-42349D01*
X53724Y-42349D02*
X53303Y-42349D01*
X53303Y-42349D02*
X53260Y-42378D01*
X53260Y-42378D02*
X53000Y-42430D01*
X53000Y-42430D02*
X52740Y-42378D01*
X52740Y-42378D02*
X52696Y-42349D01*
X52696Y-42349D02*
X52275Y-42349D01*
X52275Y-42349D02*
X52184Y-42311D01*
X52184Y-42311D02*
X52114Y-42241D01*
X52114Y-42241D02*
X52076Y-42149D01*
X52076Y-42149D02*
X52076Y-41350D01*
X52076Y-41350D02*
X52114Y-41259D01*
X52114Y-41259D02*
X52184Y-41189D01*
X52184Y-41189D02*
X52276Y-41151D01*
X52276Y-41151D02*
X52320Y-41151D01*
X52320Y-41151D02*
X52320Y-40897D01*
X52320Y-40897D02*
X52299Y-40876D01*
X52299Y-40876D02*
X52261Y-40784D01*
X52261Y-40784D02*
X52261Y-40135D01*
X52261Y-40135D02*
X52299Y-40044D01*
X52299Y-40044D02*
X52369Y-39974D01*
X52369Y-39974D02*
X52461Y-39936D01*
X52461Y-39936D02*
X52583Y-39936D01*
X52583Y-39936D02*
X52740Y-39832D01*
X52740Y-39832D02*
X53000Y-39780D01*
X53000Y-39780D02*
X53000Y-39220D01*
X53000Y-39220D02*
X52740Y-39168D01*
X52740Y-39168D02*
X52583Y-39064D01*
X52583Y-39064D02*
X52460Y-39064D01*
X52460Y-39064D02*
X52369Y-39026D01*
X52369Y-39026D02*
X52299Y-38956D01*
X52299Y-38956D02*
X52261Y-38864D01*
X52261Y-38864D02*
X52261Y-38215D01*
X52261Y-38215D02*
X52299Y-38124D01*
X52299Y-38124D02*
X52320Y-38103D01*
X52320Y-38103D02*
X52320Y-37849D01*
X52320Y-37849D02*
X52275Y-37849D01*
X52275Y-37849D02*
X52184Y-37811D01*
X52184Y-37811D02*
X52114Y-37741D01*
X52114Y-37741D02*
X52076Y-37649D01*
X52076Y-37649D02*
X52076Y-36850D01*
X52076Y-36850D02*
X52114Y-36759D01*
X52114Y-36759D02*
X52184Y-36689D01*
X52184Y-36689D02*
X52276Y-36651D01*
X52276Y-36651D02*
X52560Y-36651D01*
X52560Y-36651D02*
X52560Y-32450D01*
X52560Y-32450D02*
X52211Y-32305D01*
X52211Y-32305D02*
X51944Y-32037D01*
X51944Y-32037D02*
X51800Y-31688D01*
X51800Y-31688D02*
X51800Y-31310D01*
X51800Y-31310D02*
X51945Y-30961D01*
X51945Y-30961D02*
X52213Y-30694D01*
X52213Y-30694D02*
X52562Y-30550D01*
X52562Y-30550D02*
X52940Y-30550D01*
X52940Y-30550D02*
X53289Y-30695D01*
X53289Y-30695D02*
X53556Y-30963D01*
X53556Y-30963D02*
X53641Y-31169D01*
X53641Y-31169D02*
X53641Y-28209D01*
X53641Y-28209D02*
X53402Y-28110D01*
X53402Y-28110D02*
X53220Y-27928D01*
X53220Y-27928D02*
X53121Y-27689D01*
X53121Y-27689D02*
X53121Y-27431D01*
X53121Y-27431D02*
X53220Y-27192D01*
X53220Y-27192D02*
X53402Y-27010D01*
X53402Y-27010D02*
X53641Y-26911D01*
X53641Y-26911D02*
X53899Y-26911D01*
X53899Y-26911D02*
X54138Y-27010D01*
X54138Y-27010D02*
X54320Y-27192D01*
X54320Y-27192D02*
X54419Y-27431D01*
X54419Y-27431D02*
X54419Y-27689D01*
X54419Y-27689D02*
X54320Y-27928D01*
X54320Y-27928D02*
X54138Y-28110D01*
X54138Y-28110D02*
X53899Y-28209D01*
X53899Y-28209D02*
X53641Y-28209D01*
X53641Y-28209D02*
X53641Y-31169D01*
X53641Y-31169D02*
X53700Y-31312D01*
X53700Y-31312D02*
X53700Y-31690D01*
X53700Y-31690D02*
X53555Y-32039D01*
X53555Y-32039D02*
X53287Y-32306D01*
X53287Y-32306D02*
X52938Y-32450D01*
X52938Y-32450D02*
X52560Y-32450D01*
X52560Y-32450D02*
X52560Y-36651D01*
X52560Y-36651D02*
X52637Y-36651D01*
X52637Y-36651D02*
X54269Y-35019D01*
X54269Y-35019D02*
X54490Y-34872D01*
X54490Y-34872D02*
X54750Y-34820D01*
X54750Y-34820D02*
X55121Y-34820D01*
X55121Y-34820D02*
X55121Y-28209D01*
X55121Y-28209D02*
X54882Y-28110D01*
X54882Y-28110D02*
X54700Y-27928D01*
X54700Y-27928D02*
X54601Y-27689D01*
X54601Y-27689D02*
X54601Y-27431D01*
X54601Y-27431D02*
X54700Y-27192D01*
X54700Y-27192D02*
X54882Y-27010D01*
X54882Y-27010D02*
X55121Y-26911D01*
X55121Y-26911D02*
X55379Y-26911D01*
X55379Y-26911D02*
X55618Y-27010D01*
X55618Y-27010D02*
X55800Y-27192D01*
X55800Y-27192D02*
X55899Y-27431D01*
X55899Y-27431D02*
X55899Y-27689D01*
X55899Y-27689D02*
X55800Y-27928D01*
X55800Y-27928D02*
X55618Y-28110D01*
X55618Y-28110D02*
X55379Y-28209D01*
X55379Y-28209D02*
X55121Y-28209D01*
X55121Y-28209D02*
X55121Y-34820D01*
X55121Y-34820D02*
X55500Y-34820D01*
X55500Y-34820D02*
X55760Y-34872D01*
X55760Y-34872D02*
X55981Y-35019D01*
X55981Y-35019D02*
X56013Y-35068D01*
X56013Y-35068D02*
X56132Y-34950D01*
X56132Y-34950D02*
X56371Y-34851D01*
X56371Y-34851D02*
X56601Y-34851D01*
X56601Y-34851D02*
X56601Y-28209D01*
X56601Y-28209D02*
X56362Y-28110D01*
X56362Y-28110D02*
X56180Y-27928D01*
X56180Y-27928D02*
X56081Y-27689D01*
X56081Y-27689D02*
X56081Y-27431D01*
X56081Y-27431D02*
X56180Y-27192D01*
X56180Y-27192D02*
X56362Y-27010D01*
X56362Y-27010D02*
X56601Y-26911D01*
X56601Y-26911D02*
X56859Y-26911D01*
X56859Y-26911D02*
X57098Y-27010D01*
X57098Y-27010D02*
X57280Y-27192D01*
X57280Y-27192D02*
X57379Y-27431D01*
X57379Y-27431D02*
X57379Y-27689D01*
X57379Y-27689D02*
X57280Y-27928D01*
X57280Y-27928D02*
X57098Y-28110D01*
X57098Y-28110D02*
X56859Y-28209D01*
X56859Y-28209D02*
X56601Y-28209D01*
X56601Y-28209D02*
X56601Y-34851D01*
X56601Y-34851D02*
X56629Y-34851D01*
X56629Y-34851D02*
X56868Y-34950D01*
X56868Y-34950D02*
X57050Y-35132D01*
X57050Y-35132D02*
X57149Y-35371D01*
X57149Y-35371D02*
X57149Y-35629D01*
X57149Y-35629D02*
X57050Y-35868D01*
X57050Y-35868D02*
X56868Y-36050D01*
X56868Y-36050D02*
X56629Y-36149D01*
X56629Y-36149D02*
X56371Y-36149D01*
X56371Y-36149D02*
X56132Y-36050D01*
X56132Y-36050D02*
X56013Y-35931D01*
X56013Y-35931D02*
X55981Y-35981D01*
X55981Y-35981D02*
X55760Y-36128D01*
X55760Y-36128D02*
X55500Y-36180D01*
X55500Y-36180D02*
X55031Y-36180D01*
X55031Y-36180D02*
X53924Y-37287D01*
X53924Y-37287D02*
X53924Y-37650D01*
X53924Y-37650D02*
X53886Y-37741D01*
X53886Y-37741D02*
X53816Y-37811D01*
X53816Y-37811D02*
X53724Y-37849D01*
X53724Y-37849D02*
X53680Y-37849D01*
X53680Y-37849D02*
X53680Y-38103D01*
X53680Y-38103D02*
X53701Y-38124D01*
X53701Y-38124D02*
X53739Y-38216D01*
X53739Y-38216D02*
X53739Y-38865D01*
X53739Y-38865D02*
X53701Y-38956D01*
X53701Y-38956D02*
X53631Y-39026D01*
X53631Y-39026D02*
X53539Y-39064D01*
X53539Y-39064D02*
X53416Y-39064D01*
X53416Y-39064D02*
X53260Y-39168D01*
X53260Y-39168D02*
X53000Y-39220D01*
X53000Y-39220D02*
X53000Y-39780D01*
X53000Y-39780D02*
X53199Y-39819D01*
X53199Y-39819D02*
X56000Y-39820D01*
X56000Y-39820D02*
X56260Y-39872D01*
X56260Y-39872D02*
X56481Y-40019D01*
X56481Y-40019D02*
X56628Y-40240D01*
X56628Y-40240D02*
X56680Y-40500D01*
X56680Y-40500D02*
X56628Y-40760D01*
X56628Y-40760D02*
X56481Y-40981D01*
X56481Y-40981D02*
X56452Y-41000D01*
X56452Y-41000D02*
X56481Y-41019D01*
X56481Y-41019D02*
X56628Y-41240D01*
X56628Y-41240D02*
X56680Y-41500D01*
X56680Y-41500D02*
X56628Y-41760D01*
X56628Y-41760D02*
X56481Y-41981D01*
X56481Y-41981D02*
X56423Y-42018D01*
X56423Y-42018D02*
X56543Y-42138D01*
X56543Y-42138D02*
X56640Y-42374D01*
X56640Y-42374D02*
X56820Y-42194D01*
X56820Y-42194D02*
X56820Y-37750D01*
X56820Y-37750D02*
X56872Y-37490D01*
X56872Y-37490D02*
X57019Y-37269D01*
X57019Y-37269D02*
X57240Y-37122D01*
X57240Y-37122D02*
X57500Y-37070D01*
X57500Y-37070D02*
X57560Y-37081D01*
X57560Y-37081D02*
X57560Y-32450D01*
X57560Y-32450D02*
X57211Y-32305D01*
X57211Y-32305D02*
X56944Y-32037D01*
X56944Y-32037D02*
X56800Y-31688D01*
X56800Y-31688D02*
X56800Y-31310D01*
X56800Y-31310D02*
X56945Y-30961D01*
X56945Y-30961D02*
X57213Y-30694D01*
X57213Y-30694D02*
X57562Y-30550D01*
X57562Y-30550D02*
X57940Y-30550D01*
X57940Y-30550D02*
X58289Y-30695D01*
X58289Y-30695D02*
X58556Y-30963D01*
X58556Y-30963D02*
X58700Y-31312D01*
X58700Y-31312D02*
X58700Y-31690D01*
X58700Y-31690D02*
X58555Y-32039D01*
X58555Y-32039D02*
X58287Y-32306D01*
X58287Y-32306D02*
X57938Y-32450D01*
X57938Y-32450D02*
X57560Y-32450D01*
X57560Y-32450D02*
X57560Y-37081D01*
X57560Y-37081D02*
X57760Y-37122D01*
X57760Y-37122D02*
X57981Y-37269D01*
X57981Y-37269D02*
X58128Y-37490D01*
X58128Y-37490D02*
X58180Y-37750D01*
X58180Y-37750D02*
X58180Y-42197D01*
X58180Y-42197D02*
X59371Y-41006D01*
X59371Y-41006D02*
X59371Y-38399D01*
X59371Y-38399D02*
X59132Y-38300D01*
X59132Y-38300D02*
X58950Y-38118D01*
X58950Y-38118D02*
X58851Y-37879D01*
X58851Y-37879D02*
X58851Y-37621D01*
X58851Y-37621D02*
X58950Y-37382D01*
X58950Y-37382D02*
X59132Y-37200D01*
X59132Y-37200D02*
X59371Y-37101D01*
X59371Y-37101D02*
X59629Y-37101D01*
X59629Y-37101D02*
X59868Y-37200D01*
X59868Y-37200D02*
X60050Y-37382D01*
X60050Y-37382D02*
X60149Y-37621D01*
X60149Y-37621D02*
X60149Y-37879D01*
X60149Y-37879D02*
X60050Y-38118D01*
X60050Y-38118D02*
X59868Y-38300D01*
X59868Y-38300D02*
X59629Y-38399D01*
X59629Y-38399D02*
X59371Y-38399D01*
X59371Y-38399D02*
X59371Y-41006D01*
X59371Y-41006D02*
X62220Y-38157D01*
X62220Y-38157D02*
X62220Y-35640D01*
X62220Y-35640D02*
X62272Y-35380D01*
X62272Y-35380D02*
X62320Y-35307D01*
X62320Y-35307D02*
X62320Y-34250D01*
X62320Y-34250D02*
X62372Y-33990D01*
X62372Y-33990D02*
X62519Y-33769D01*
X62519Y-33769D02*
X62601Y-33714D01*
X62601Y-33714D02*
X62614Y-33684D01*
X62614Y-33684D02*
X62684Y-33614D01*
X62684Y-33614D02*
X62776Y-33576D01*
X62776Y-33576D02*
X62970Y-33576D01*
X62970Y-33576D02*
X63000Y-33570D01*
X63000Y-33570D02*
X63029Y-33576D01*
X63029Y-33576D02*
X63225Y-33576D01*
X63225Y-33576D02*
X63316Y-33614D01*
X63316Y-33614D02*
X63386Y-33684D01*
X63386Y-33684D02*
X63398Y-33714D01*
X63398Y-33714D02*
X63481Y-33769D01*
X63481Y-33769D02*
X63575Y-33911D01*
X63575Y-33911D02*
X63576Y-33776D01*
X63576Y-33776D02*
X63614Y-33684D01*
X63614Y-33684D02*
X63684Y-33614D01*
X63684Y-33614D02*
X63775Y-33576D01*
X63775Y-33576D02*
X63888Y-33575D01*
X63888Y-33575D02*
X63950Y-33637D01*
X63950Y-33637D02*
X63950Y-34200D01*
X63950Y-34200D02*
X63950Y-34300D01*
X63950Y-34300D02*
X63950Y-34863D01*
X63950Y-34863D02*
X63888Y-34925D01*
X63888Y-34925D02*
X63775Y-34924D01*
X63775Y-34924D02*
X63684Y-34886D01*
X63684Y-34886D02*
X63680Y-34882D01*
X63680Y-34882D02*
X63680Y-35540D01*
X63680Y-35540D02*
X63628Y-35801D01*
X63628Y-35801D02*
X63580Y-35872D01*
X63580Y-35872D02*
X63580Y-38439D01*
X63580Y-38439D02*
X63528Y-38700D01*
X63528Y-38700D02*
X63468Y-38787D01*
X63468Y-38787D02*
X63381Y-38920D01*
X63381Y-38920D02*
X63378Y-38921D01*
X63378Y-38921D02*
X58350Y-43950D01*
X58350Y-43950D02*
X58810Y-43951D01*
X58810Y-43951D02*
X59379Y-44187D01*
X59379Y-44187D02*
X59815Y-44623D01*
X59815Y-44623D02*
X60050Y-45193D01*
X60050Y-45193D02*
X60049Y-45810D01*
X60049Y-45810D02*
X59813Y-46379D01*
X59813Y-46379D02*
X59377Y-46815D01*
X59377Y-46815D02*
X58807Y-47050D01*
X58807Y-47050D02*
X58190Y-47049D01*
X58190Y-47049D02*
X57621Y-46813D01*
X57621Y-46813D02*
X57185Y-46377D01*
X57185Y-46377D02*
X56950Y-45807D01*
X56950Y-45807D02*
X56951Y-45190D01*
X56951Y-45190D02*
X56965Y-45154D01*
X56965Y-45154D02*
X56839Y-45180D01*
X56839Y-45180D02*
X56000Y-45180D01*
X56000Y-45180D02*
X55740Y-45128D01*
X55740Y-45128D02*
X55519Y-44981D01*
X55519Y-44981D02*
X55468Y-44904D01*
X55468Y-44904D02*
X55468Y-46161D01*
X55468Y-46161D02*
X55558Y-46129D01*
X55558Y-46129D02*
X55929Y-46500D01*
X55929Y-46500D02*
X55558Y-46871D01*
X55558Y-46871D02*
X55468Y-46838D01*
X55468Y-46838D02*
X55468Y-54506D01*
X55468Y-54506D02*
X55900Y-54938D01*
X55900Y-54938D02*
X55900Y-47132D01*
X55900Y-47132D02*
X55666Y-47045D01*
X55666Y-47045D02*
X55629Y-46942D01*
X55629Y-46942D02*
X56000Y-46571D01*
X56000Y-46571D02*
X56000Y-46429D01*
X56000Y-46429D02*
X55629Y-46058D01*
X55629Y-46058D02*
X55666Y-45955D01*
X55666Y-45955D02*
X55851Y-45877D01*
X55851Y-45877D02*
X56100Y-45868D01*
X56100Y-45868D02*
X56334Y-45955D01*
X56334Y-45955D02*
X56371Y-46058D01*
X56371Y-46058D02*
X56000Y-46429D01*
X56000Y-46429D02*
X56000Y-46571D01*
X56000Y-46571D02*
X56371Y-46942D01*
X56371Y-46942D02*
X56334Y-47045D01*
X56334Y-47045D02*
X56149Y-47123D01*
X56149Y-47123D02*
X55900Y-47132D01*
X55900Y-47132D02*
X55900Y-54938D01*
X55900Y-54938D02*
X55980Y-55019D01*
X55980Y-55019D02*
X56013Y-55068D01*
X56013Y-55068D02*
X56132Y-54950D01*
X56132Y-54950D02*
X56371Y-54851D01*
X56371Y-54851D02*
X56442Y-54851D01*
X56442Y-54851D02*
X56442Y-46871D01*
X56442Y-46871D02*
X56071Y-46500D01*
X56071Y-46500D02*
X56442Y-46129D01*
X56442Y-46129D02*
X56545Y-46166D01*
X56545Y-46166D02*
X56623Y-46351D01*
X56623Y-46351D02*
X56632Y-46600D01*
X56632Y-46600D02*
X56545Y-46834D01*
X56545Y-46834D02*
X56442Y-46871D01*
X56442Y-46871D02*
X56442Y-54851D01*
X56442Y-54851D02*
X56629Y-54851D01*
X56629Y-54851D02*
X56868Y-54950D01*
X56868Y-54950D02*
X57050Y-55132D01*
X57050Y-55132D02*
X57149Y-55371D01*
X57149Y-55371D02*
X57149Y-55629D01*
X57149Y-55629D02*
X57050Y-55868D01*
X57050Y-55868D02*
X56868Y-56050D01*
X56868Y-56050D02*
X56629Y-56149D01*
X56629Y-56149D02*
X56371Y-56149D01*
X56371Y-56149D02*
X56132Y-56050D01*
X56132Y-56050D02*
X56012Y-55930D01*
X56012Y-55930D02*
X55980Y-55980D01*
X55980Y-55980D02*
X55760Y-56127D01*
X55760Y-56127D02*
X55499Y-56180D01*
X55499Y-56180D02*
X55499Y-56255D01*
X55499Y-56255D02*
X60551Y-56255D01*
X60551Y-56255D02*
X60551Y-51378D01*
X60551Y-51378D02*
X60446Y-51340D01*
X60446Y-51340D02*
X60369Y-51151D01*
X60369Y-51151D02*
X60359Y-50897D01*
X60359Y-50897D02*
X60446Y-50660D01*
X60446Y-50660D02*
X60551Y-50622D01*
X60551Y-50622D02*
X60551Y-50378D01*
X60551Y-50378D02*
X60446Y-50340D01*
X60446Y-50340D02*
X60369Y-50151D01*
X60369Y-50151D02*
X60359Y-49897D01*
X60359Y-49897D02*
X60446Y-49660D01*
X60446Y-49660D02*
X60551Y-49622D01*
X60551Y-49622D02*
X60929Y-50000D01*
X60929Y-50000D02*
X60551Y-50378D01*
X60551Y-50378D02*
X60551Y-50622D01*
X60551Y-50622D02*
X60929Y-51000D01*
X60929Y-51000D02*
X60551Y-51378D01*
X60551Y-51378D02*
X60551Y-56255D01*
X60551Y-56255D02*
X60897Y-56255D01*
X60897Y-56255D02*
X60897Y-51641D01*
X60897Y-51641D02*
X60660Y-51554D01*
X60660Y-51554D02*
X60622Y-51449D01*
X60622Y-51449D02*
X61000Y-51071D01*
X61000Y-51071D02*
X61000Y-50929D01*
X61000Y-50929D02*
X60622Y-50551D01*
X60622Y-50551D02*
X60640Y-50499D01*
X60640Y-50499D02*
X60622Y-50449D01*
X60622Y-50449D02*
X61000Y-50071D01*
X61000Y-50071D02*
X61000Y-49929D01*
X61000Y-49929D02*
X60622Y-49551D01*
X60622Y-49551D02*
X60660Y-49446D01*
X60660Y-49446D02*
X60849Y-49369D01*
X60849Y-49369D02*
X61103Y-49359D01*
X61103Y-49359D02*
X61340Y-49446D01*
X61340Y-49446D02*
X61378Y-49551D01*
X61378Y-49551D02*
X61000Y-49929D01*
X61000Y-49929D02*
X61000Y-50071D01*
X61000Y-50071D02*
X61378Y-50449D01*
X61378Y-50449D02*
X61359Y-50499D01*
X61359Y-50499D02*
X61378Y-50551D01*
X61378Y-50551D02*
X61000Y-50929D01*
X61000Y-50929D02*
X61000Y-51071D01*
X61000Y-51071D02*
X61378Y-51449D01*
X61378Y-51449D02*
X61340Y-51554D01*
X61340Y-51554D02*
X61151Y-51631D01*
X61151Y-51631D02*
X60897Y-51641D01*
X60897Y-51641D02*
X60897Y-56255D01*
X60897Y-56255D02*
X61449Y-56255D01*
X61449Y-56255D02*
X61449Y-51378D01*
X61449Y-51378D02*
X61071Y-51000D01*
X61071Y-51000D02*
X61449Y-50622D01*
X61449Y-50622D02*
X61449Y-50378D01*
X61449Y-50378D02*
X61071Y-50000D01*
X61071Y-50000D02*
X61449Y-49622D01*
X61449Y-49622D02*
X61554Y-49660D01*
X61554Y-49660D02*
X61631Y-49849D01*
X61631Y-49849D02*
X61641Y-50103D01*
X61641Y-50103D02*
X61554Y-50340D01*
X61554Y-50340D02*
X61449Y-50378D01*
X61449Y-50378D02*
X61449Y-50622D01*
X61449Y-50622D02*
X61554Y-50660D01*
X61554Y-50660D02*
X61631Y-50849D01*
X61631Y-50849D02*
X61641Y-51103D01*
X61641Y-51103D02*
X61554Y-51340D01*
X61554Y-51340D02*
X61449Y-51378D01*
X61449Y-51378D02*
X61449Y-56255D01*
X61449Y-56255D02*
X63988Y-56255D01*
X63988Y-56255D02*
X63988Y-37750D01*
X63988Y-37750D02*
X63801Y-37749D01*
X63801Y-37749D02*
X63709Y-37711D01*
X63709Y-37711D02*
X63639Y-37641D01*
X63639Y-37641D02*
X63601Y-37550D01*
X63601Y-37550D02*
X63600Y-37112D01*
X63600Y-37112D02*
X63662Y-37050D01*
X63662Y-37050D02*
X64000Y-37050D01*
X64000Y-37050D02*
X64000Y-36950D01*
X64000Y-36950D02*
X63662Y-36950D01*
X63662Y-36950D02*
X63600Y-36888D01*
X63600Y-36888D02*
X63601Y-36450D01*
X63601Y-36450D02*
X63639Y-36359D01*
X63639Y-36359D02*
X63709Y-36289D01*
X63709Y-36289D02*
X63801Y-36251D01*
X63801Y-36251D02*
X63988Y-36250D01*
X63988Y-36250D02*
X64000Y-36262D01*
X64000Y-36262D02*
X64000Y-32430D01*
X64000Y-32430D02*
X63970Y-32424D01*
X63970Y-32424D02*
X63775Y-32424D01*
X63775Y-32424D02*
X63684Y-32386D01*
X63684Y-32386D02*
X63614Y-32316D01*
X63614Y-32316D02*
X63601Y-32285D01*
X63601Y-32285D02*
X63519Y-32231D01*
X63519Y-32231D02*
X63500Y-32202D01*
X63500Y-32202D02*
X63481Y-32231D01*
X63481Y-32231D02*
X63398Y-32285D01*
X63398Y-32285D02*
X63386Y-32316D01*
X63386Y-32316D02*
X63316Y-32386D01*
X63316Y-32386D02*
X63224Y-32424D01*
X63224Y-32424D02*
X63029Y-32424D01*
X63029Y-32424D02*
X63000Y-32430D01*
X63000Y-32430D02*
X62970Y-32424D01*
X62970Y-32424D02*
X62775Y-32424D01*
X62775Y-32424D02*
X62684Y-32386D01*
X62684Y-32386D02*
X62614Y-32316D01*
X62614Y-32316D02*
X62601Y-32285D01*
X62601Y-32285D02*
X62519Y-32231D01*
X62519Y-32231D02*
X62372Y-32010D01*
X62372Y-32010D02*
X62320Y-31750D01*
X62320Y-31750D02*
X62320Y-28500D01*
X62320Y-28500D02*
X62372Y-28240D01*
X62372Y-28240D02*
X62519Y-28019D01*
X62519Y-28019D02*
X62682Y-27910D01*
X62682Y-27910D02*
X62563Y-27791D01*
X62563Y-27791D02*
X62485Y-27602D01*
X62485Y-27602D02*
X62485Y-27397D01*
X62485Y-27397D02*
X62564Y-27208D01*
X62564Y-27208D02*
X62709Y-27063D01*
X62709Y-27063D02*
X62898Y-26985D01*
X62898Y-26985D02*
X63103Y-26985D01*
X63103Y-26985D02*
X63292Y-27064D01*
X63292Y-27064D02*
X63437Y-27209D01*
X63437Y-27209D02*
X63499Y-27361D01*
X63499Y-27361D02*
X63564Y-27208D01*
X63564Y-27208D02*
X63709Y-27063D01*
X63709Y-27063D02*
X63898Y-26985D01*
X63898Y-26985D02*
X64103Y-26985D01*
X64103Y-26985D02*
X64292Y-27064D01*
X64292Y-27064D02*
X64437Y-27209D01*
X64437Y-27209D02*
X64515Y-27398D01*
X64515Y-27398D02*
X64515Y-27603D01*
X64515Y-27603D02*
X64436Y-27792D01*
X64436Y-27792D02*
X64342Y-27886D01*
X64342Y-27886D02*
X64415Y-27886D01*
X64415Y-27886D02*
X64506Y-27924D01*
X64506Y-27924D02*
X64576Y-27994D01*
X64576Y-27994D02*
X64614Y-28086D01*
X64614Y-28086D02*
X64614Y-28218D01*
X64614Y-28218D02*
X64628Y-28240D01*
X64628Y-28240D02*
X64680Y-28500D01*
X64680Y-28500D02*
X64680Y-31750D01*
X64680Y-31750D02*
X64628Y-32010D01*
X64628Y-32010D02*
X64481Y-32231D01*
X64481Y-32231D02*
X64398Y-32285D01*
X64398Y-32285D02*
X64386Y-32316D01*
X64386Y-32316D02*
X64316Y-32386D01*
X64316Y-32386D02*
X64224Y-32424D01*
X64224Y-32424D02*
X64029Y-32424D01*
X64029Y-32424D02*
X64000Y-32430D01*
X64000Y-32430D02*
X64000Y-36262D01*
X64000Y-36262D02*
X64050Y-36312D01*
X64050Y-36312D02*
X64050Y-36950D01*
X64050Y-36950D02*
X64000Y-36950D01*
X64000Y-36950D02*
X64000Y-37050D01*
X64000Y-37050D02*
X64050Y-37050D01*
X64050Y-37050D02*
X64050Y-37688D01*
X64050Y-37688D02*
X63988Y-37750D01*
X63988Y-37750D02*
X63988Y-56255D01*
X63988Y-56255D02*
X64112Y-56255D01*
X64112Y-56255D02*
X64112Y-34925D01*
X64112Y-34925D02*
X64050Y-34863D01*
X64050Y-34863D02*
X64050Y-34300D01*
X64050Y-34300D02*
X64050Y-34200D01*
X64050Y-34200D02*
X64050Y-33637D01*
X64050Y-33637D02*
X64112Y-33575D01*
X64112Y-33575D02*
X64225Y-33576D01*
X64225Y-33576D02*
X64316Y-33614D01*
X64316Y-33614D02*
X64386Y-33684D01*
X64386Y-33684D02*
X64424Y-33776D01*
X64424Y-33776D02*
X64425Y-34138D01*
X64425Y-34138D02*
X64363Y-34200D01*
X64363Y-34200D02*
X64050Y-34200D01*
X64050Y-34200D02*
X64050Y-34300D01*
X64050Y-34300D02*
X64363Y-34300D01*
X64363Y-34300D02*
X64425Y-34362D01*
X64425Y-34362D02*
X64424Y-34724D01*
X64424Y-34724D02*
X64386Y-34816D01*
X64386Y-34816D02*
X64316Y-34886D01*
X64316Y-34886D02*
X64225Y-34924D01*
X64225Y-34924D02*
X64112Y-34925D01*
X64112Y-34925D02*
X64112Y-56255D01*
X64112Y-56255D02*
X64212Y-56255D01*
X64212Y-56255D02*
X64212Y-37750D01*
X64212Y-37750D02*
X64150Y-37688D01*
X64150Y-37688D02*
X64150Y-37050D01*
X64150Y-37050D02*
X64150Y-36950D01*
X64150Y-36950D02*
X64150Y-36312D01*
X64150Y-36312D02*
X64212Y-36250D01*
X64212Y-36250D02*
X64399Y-36251D01*
X64399Y-36251D02*
X64491Y-36289D01*
X64491Y-36289D02*
X64561Y-36359D01*
X64561Y-36359D02*
X64599Y-36450D01*
X64599Y-36450D02*
X64600Y-36888D01*
X64600Y-36888D02*
X64538Y-36950D01*
X64538Y-36950D02*
X64150Y-36950D01*
X64150Y-36950D02*
X64150Y-37050D01*
X64150Y-37050D02*
X64538Y-37050D01*
X64538Y-37050D02*
X64600Y-37112D01*
X64600Y-37112D02*
X64599Y-37550D01*
X64599Y-37550D02*
X64561Y-37641D01*
X64561Y-37641D02*
X64491Y-37711D01*
X64491Y-37711D02*
X64399Y-37749D01*
X64399Y-37749D02*
X64212Y-37750D01*
X64212Y-37750D02*
X64212Y-56255D01*
X64212Y-56255D02*
X65755Y-56255D01*
M02*
