G04 (created by PCBnew (20090216-final)) date Mon 08 Feb 2010 05:47:22 PM PST*
G01*
G70*
G90*
%MOIN*%
G04 Gerber Fmt 3.4, Leading zero omitted, Abs format*
%FSLAX34Y34*%
G04 APERTURE LIST*
%ADD10C,0.009000*%
%ADD11C,0.080000*%
%ADD12C,0.073000*%
%ADD13R,0.073000X0.073000*%
%ADD14C,0.053000*%
%ADD15C,0.078000*%
%ADD16C,0.260000*%
%ADD17C,0.140000*%
%ADD18C,0.086000*%
%ADD19C,0.010000*%
%ADD20R,0.050000X0.100000*%
%ADD21R,0.098000X0.055000*%
%ADD22R,0.135000X0.070000*%
%ADD23R,0.035000X0.085000*%
%ADD24C,0.015000*%
%ADD25C,0.005000*%
%ADD26C,0.012000*%
%ADD27C,0.086000*%
%ADD28C,0.079000*%
%ADD29R,0.079000X0.079000*%
%ADD30C,0.059000*%
%ADD31C,0.084000*%
%ADD32C,0.266000*%
%ADD33C,0.146000*%
%ADD34R,0.056000X0.106000*%
%ADD35R,0.104000X0.061000*%
%ADD36R,0.141000X0.076000*%
%ADD37R,0.041000X0.091000*%
G04 APERTURE END LIST*
G54D10*
X66000Y-26500D02*
X51000Y-26500D01*
X66000Y-56500D02*
X66000Y-26500D01*
X51000Y-56500D02*
X66000Y-56500D01*
X51000Y-26500D02*
X51000Y-56500D01*
G54D11*
X61000Y-51000D03*
X61000Y-50000D03*
X55500Y-55500D03*
X56500Y-55500D03*
X55500Y-35500D03*
X56500Y-35500D03*
G54D12*
X63000Y-28500D03*
G54D13*
X64000Y-28500D03*
G54D14*
X64000Y-27500D03*
X63000Y-27500D03*
G54D11*
X59500Y-37750D03*
X57500Y-37750D03*
G54D15*
X56000Y-43500D03*
X56000Y-42500D03*
X56000Y-41500D03*
X56000Y-40500D03*
X56000Y-44500D03*
X56000Y-46500D03*
G54D16*
X58500Y-45500D03*
G54D11*
X56730Y-27560D03*
X55250Y-27560D03*
X53770Y-27560D03*
G54D17*
X57750Y-31500D03*
X52750Y-31500D03*
G54D18*
X59500Y-50000D02*
X61000Y-50000D01*
X56000Y-46500D02*
X59500Y-50000D01*
X56500Y-55500D02*
X55500Y-55500D01*
X56500Y-35500D02*
X55500Y-35500D01*
X59500Y-30330D02*
X59500Y-37750D01*
X56730Y-27560D02*
X59500Y-30330D01*
X59500Y-39359D02*
X59500Y-37750D01*
X56359Y-42500D02*
X59500Y-39359D01*
X56000Y-42500D02*
X56359Y-42500D01*
X57500Y-33689D02*
X57500Y-37750D01*
X55250Y-31439D02*
X57500Y-33689D01*
X55250Y-27560D02*
X55250Y-31439D01*
G54D19*
X51245Y-56185D02*
X65755Y-56185D01*
X56794Y-56105D02*
X65755Y-56105D01*
X51245Y-56105D02*
X55205Y-56105D01*
X56914Y-56025D02*
X65755Y-56025D01*
X51245Y-56025D02*
X55085Y-56025D01*
X57004Y-55945D02*
X65755Y-55945D01*
X51245Y-55945D02*
X54995Y-55945D01*
X57058Y-55865D02*
X65755Y-55865D01*
X51245Y-55865D02*
X54941Y-55865D01*
X57111Y-55785D02*
X65755Y-55785D01*
X51245Y-55785D02*
X54888Y-55785D01*
X57139Y-55705D02*
X65755Y-55705D01*
X51245Y-55705D02*
X54861Y-55705D01*
X57155Y-55625D02*
X65755Y-55625D01*
X51245Y-55625D02*
X54845Y-55625D01*
X57171Y-55545D02*
X65755Y-55545D01*
X51245Y-55545D02*
X54829Y-55545D01*
X57173Y-55465D02*
X65755Y-55465D01*
X51245Y-55465D02*
X54827Y-55465D01*
X57157Y-55385D02*
X65755Y-55385D01*
X51245Y-55385D02*
X54843Y-55385D01*
X57141Y-55305D02*
X65755Y-55305D01*
X51245Y-55305D02*
X54859Y-55305D01*
X57119Y-55225D02*
X65755Y-55225D01*
X51245Y-55225D02*
X54882Y-55225D01*
X57065Y-55145D02*
X65755Y-55145D01*
X51245Y-55145D02*
X54936Y-55145D01*
X57012Y-55065D02*
X65755Y-55065D01*
X51245Y-55065D02*
X54989Y-55065D01*
X56930Y-54985D02*
X65755Y-54985D01*
X51245Y-54985D02*
X55071Y-54985D01*
X56810Y-54905D02*
X65755Y-54905D01*
X51245Y-54905D02*
X55191Y-54905D01*
X56525Y-54825D02*
X65755Y-54825D01*
X51245Y-54825D02*
X55475Y-54825D01*
X51245Y-54745D02*
X65755Y-54745D01*
X51245Y-54665D02*
X65755Y-54665D01*
X51245Y-54585D02*
X65755Y-54585D01*
X51245Y-54505D02*
X65755Y-54505D01*
X51245Y-54425D02*
X65755Y-54425D01*
X51245Y-54345D02*
X65755Y-54345D01*
X51245Y-54265D02*
X65755Y-54265D01*
X51245Y-54185D02*
X65755Y-54185D01*
X51245Y-54105D02*
X65755Y-54105D01*
X51245Y-54025D02*
X65755Y-54025D01*
X51245Y-53945D02*
X65755Y-53945D01*
X51245Y-53865D02*
X65755Y-53865D01*
X51245Y-53785D02*
X65755Y-53785D01*
X51245Y-53705D02*
X65755Y-53705D01*
X51245Y-53625D02*
X65755Y-53625D01*
X51245Y-53545D02*
X65755Y-53545D01*
X51245Y-53465D02*
X65755Y-53465D01*
X51245Y-53385D02*
X65755Y-53385D01*
X51245Y-53305D02*
X65755Y-53305D01*
X51245Y-53225D02*
X65755Y-53225D01*
X51245Y-53145D02*
X65755Y-53145D01*
X51245Y-53065D02*
X65755Y-53065D01*
X51245Y-52985D02*
X65755Y-52985D01*
X51245Y-52905D02*
X65755Y-52905D01*
X51245Y-52825D02*
X65755Y-52825D01*
X51245Y-52745D02*
X65755Y-52745D01*
X51245Y-52665D02*
X65755Y-52665D01*
X51245Y-52585D02*
X65755Y-52585D01*
X51245Y-52505D02*
X65755Y-52505D01*
X51245Y-52425D02*
X65755Y-52425D01*
X51245Y-52345D02*
X65755Y-52345D01*
X51245Y-52265D02*
X65755Y-52265D01*
X51245Y-52185D02*
X65755Y-52185D01*
X51245Y-52105D02*
X65755Y-52105D01*
X51245Y-52025D02*
X65755Y-52025D01*
X51245Y-51945D02*
X65755Y-51945D01*
X51245Y-51865D02*
X65755Y-51865D01*
X51245Y-51785D02*
X65755Y-51785D01*
X51245Y-51705D02*
X65755Y-51705D01*
X61165Y-51625D02*
X65755Y-51625D01*
X51245Y-51625D02*
X60853Y-51625D01*
X61343Y-51545D02*
X65755Y-51545D01*
X51245Y-51545D02*
X60656Y-51545D01*
X61372Y-51465D02*
X65755Y-51465D01*
X51245Y-51465D02*
X60627Y-51465D01*
X61314Y-51385D02*
X65755Y-51385D01*
X51245Y-51385D02*
X60686Y-51385D01*
X61566Y-51305D02*
X65755Y-51305D01*
X61234Y-51305D02*
X61376Y-51305D01*
X60624Y-51305D02*
X60766Y-51305D01*
X51245Y-51305D02*
X60431Y-51305D01*
X61596Y-51225D02*
X65755Y-51225D01*
X61154Y-51225D02*
X61296Y-51225D01*
X60704Y-51225D02*
X60846Y-51225D01*
X51245Y-51225D02*
X60399Y-51225D01*
X61625Y-51145D02*
X65755Y-51145D01*
X61074Y-51145D02*
X61216Y-51145D01*
X60784Y-51145D02*
X60926Y-51145D01*
X51245Y-51145D02*
X60368Y-51145D01*
X61640Y-51065D02*
X65755Y-51065D01*
X60864Y-51065D02*
X61136Y-51065D01*
X51245Y-51065D02*
X60365Y-51065D01*
X61637Y-50985D02*
X65755Y-50985D01*
X60914Y-50985D02*
X61086Y-50985D01*
X51245Y-50985D02*
X60362Y-50985D01*
X61634Y-50905D02*
X65755Y-50905D01*
X61024Y-50905D02*
X61166Y-50905D01*
X60834Y-50905D02*
X60976Y-50905D01*
X51245Y-50905D02*
X60359Y-50905D01*
X61622Y-50825D02*
X65755Y-50825D01*
X61104Y-50825D02*
X61246Y-50825D01*
X60754Y-50825D02*
X60896Y-50825D01*
X51245Y-50825D02*
X60386Y-50825D01*
X61589Y-50745D02*
X65755Y-50745D01*
X61184Y-50745D02*
X61326Y-50745D01*
X60674Y-50745D02*
X60816Y-50745D01*
X51245Y-50745D02*
X60415Y-50745D01*
X61557Y-50665D02*
X65755Y-50665D01*
X61264Y-50665D02*
X61406Y-50665D01*
X60594Y-50665D02*
X60736Y-50665D01*
X51245Y-50665D02*
X60445Y-50665D01*
X61344Y-50585D02*
X65755Y-50585D01*
X51245Y-50585D02*
X60656Y-50585D01*
X61362Y-50505D02*
X65755Y-50505D01*
X51245Y-50505D02*
X60638Y-50505D01*
X61354Y-50425D02*
X65755Y-50425D01*
X51245Y-50425D02*
X60646Y-50425D01*
X61540Y-50345D02*
X65755Y-50345D01*
X61274Y-50345D02*
X61416Y-50345D01*
X60584Y-50345D02*
X60726Y-50345D01*
X51245Y-50345D02*
X60459Y-50345D01*
X61581Y-50265D02*
X65755Y-50265D01*
X61194Y-50265D02*
X61336Y-50265D01*
X60664Y-50265D02*
X60806Y-50265D01*
X51245Y-50265D02*
X60415Y-50265D01*
X61610Y-50185D02*
X65755Y-50185D01*
X61114Y-50185D02*
X61256Y-50185D01*
X60744Y-50185D02*
X60886Y-50185D01*
X51245Y-50185D02*
X60382Y-50185D01*
X61640Y-50105D02*
X65755Y-50105D01*
X61034Y-50105D02*
X61176Y-50105D01*
X60824Y-50105D02*
X60966Y-50105D01*
X51245Y-50105D02*
X60367Y-50105D01*
X61638Y-50025D02*
X65755Y-50025D01*
X60904Y-50025D02*
X61096Y-50025D01*
X51245Y-50025D02*
X60364Y-50025D01*
X61635Y-49945D02*
X65755Y-49945D01*
X60874Y-49945D02*
X61126Y-49945D01*
X51245Y-49945D02*
X60360Y-49945D01*
X61632Y-49865D02*
X65755Y-49865D01*
X61064Y-49865D02*
X61206Y-49865D01*
X60794Y-49865D02*
X60936Y-49865D01*
X51245Y-49865D02*
X60371Y-49865D01*
X61605Y-49785D02*
X65755Y-49785D01*
X61144Y-49785D02*
X61286Y-49785D01*
X60714Y-49785D02*
X60856Y-49785D01*
X51245Y-49785D02*
X60401Y-49785D01*
X61573Y-49705D02*
X65755Y-49705D01*
X61224Y-49705D02*
X61366Y-49705D01*
X60634Y-49705D02*
X60776Y-49705D01*
X51245Y-49705D02*
X60430Y-49705D01*
X61458Y-49625D02*
X65755Y-49625D01*
X61304Y-49625D02*
X61446Y-49625D01*
X60554Y-49625D02*
X60696Y-49625D01*
X51245Y-49625D02*
X60543Y-49625D01*
X61376Y-49545D02*
X65755Y-49545D01*
X51245Y-49545D02*
X60625Y-49545D01*
X61347Y-49465D02*
X65755Y-49465D01*
X51245Y-49465D02*
X60654Y-49465D01*
X61174Y-49385D02*
X65755Y-49385D01*
X51245Y-49385D02*
X60810Y-49385D01*
X51245Y-49305D02*
X65755Y-49305D01*
X51245Y-49225D02*
X65755Y-49225D01*
X51245Y-49145D02*
X65755Y-49145D01*
X51245Y-49065D02*
X65755Y-49065D01*
X51245Y-48985D02*
X65755Y-48985D01*
X51245Y-48905D02*
X65755Y-48905D01*
X51245Y-48825D02*
X65755Y-48825D01*
X51245Y-48745D02*
X65755Y-48745D01*
X51245Y-48665D02*
X65755Y-48665D01*
X51245Y-48585D02*
X65755Y-48585D01*
X51245Y-48505D02*
X65755Y-48505D01*
X51245Y-48425D02*
X65755Y-48425D01*
X51245Y-48345D02*
X65755Y-48345D01*
X51245Y-48265D02*
X65755Y-48265D01*
X51245Y-48185D02*
X65755Y-48185D01*
X51245Y-48105D02*
X65755Y-48105D01*
X51245Y-48025D02*
X65755Y-48025D01*
X51245Y-47945D02*
X65755Y-47945D01*
X51245Y-47865D02*
X65755Y-47865D01*
X51245Y-47785D02*
X65755Y-47785D01*
X51245Y-47705D02*
X65755Y-47705D01*
X51245Y-47625D02*
X65755Y-47625D01*
X51245Y-47545D02*
X65755Y-47545D01*
X51245Y-47465D02*
X65755Y-47465D01*
X51245Y-47385D02*
X65755Y-47385D01*
X51245Y-47305D02*
X65755Y-47305D01*
X51245Y-47225D02*
X65755Y-47225D01*
X51245Y-47145D02*
X65755Y-47145D01*
X56286Y-47065D02*
X65755Y-47065D01*
X51245Y-47065D02*
X55720Y-47065D01*
X58964Y-46985D02*
X65755Y-46985D01*
X56355Y-46985D02*
X58035Y-46985D01*
X51245Y-46985D02*
X55644Y-46985D01*
X59158Y-46905D02*
X65755Y-46905D01*
X56334Y-46905D02*
X57842Y-46905D01*
X51245Y-46905D02*
X55666Y-46905D01*
X59352Y-46825D02*
X65755Y-46825D01*
X56548Y-46825D02*
X57649Y-46825D01*
X56254Y-46825D02*
X56396Y-46825D01*
X55604Y-46825D02*
X55746Y-46825D01*
X51245Y-46825D02*
X55451Y-46825D01*
X59447Y-46745D02*
X65755Y-46745D01*
X56578Y-46745D02*
X57553Y-46745D01*
X56174Y-46745D02*
X56316Y-46745D01*
X55684Y-46745D02*
X55826Y-46745D01*
X51245Y-46745D02*
X55417Y-46745D01*
X59527Y-46665D02*
X65755Y-46665D01*
X56607Y-46665D02*
X57473Y-46665D01*
X56094Y-46665D02*
X56236Y-46665D01*
X55764Y-46665D02*
X55906Y-46665D01*
X51245Y-46665D02*
X55383Y-46665D01*
X59607Y-46585D02*
X65755Y-46585D01*
X56632Y-46585D02*
X57393Y-46585D01*
X56014Y-46585D02*
X56156Y-46585D01*
X55844Y-46585D02*
X55986Y-46585D01*
X51245Y-46585D02*
X55374Y-46585D01*
X59687Y-46505D02*
X65755Y-46505D01*
X56629Y-46505D02*
X57313Y-46505D01*
X55924Y-46505D02*
X56076Y-46505D01*
X51245Y-46505D02*
X55371Y-46505D01*
X59767Y-46425D02*
X65755Y-46425D01*
X56626Y-46425D02*
X57233Y-46425D01*
X56004Y-46425D02*
X56146Y-46425D01*
X55854Y-46425D02*
X55996Y-46425D01*
X51245Y-46425D02*
X55368Y-46425D01*
X59827Y-46345D02*
X65755Y-46345D01*
X56621Y-46345D02*
X57171Y-46345D01*
X56084Y-46345D02*
X56226Y-46345D01*
X55774Y-46345D02*
X55916Y-46345D01*
X51245Y-46345D02*
X55389Y-46345D01*
X59860Y-46265D02*
X65755Y-46265D01*
X56587Y-46265D02*
X57138Y-46265D01*
X56164Y-46265D02*
X56306Y-46265D01*
X55694Y-46265D02*
X55836Y-46265D01*
X51245Y-46265D02*
X55419Y-46265D01*
X59893Y-46185D02*
X65755Y-46185D01*
X56554Y-46185D02*
X57105Y-46185D01*
X56244Y-46185D02*
X56386Y-46185D01*
X55614Y-46185D02*
X55756Y-46185D01*
X51245Y-46185D02*
X55448Y-46185D01*
X59926Y-46105D02*
X65755Y-46105D01*
X56324Y-46105D02*
X57072Y-46105D01*
X51245Y-46105D02*
X55676Y-46105D01*
X59959Y-46025D02*
X65755Y-46025D01*
X56360Y-46025D02*
X57039Y-46025D01*
X51245Y-46025D02*
X55641Y-46025D01*
X59993Y-45945D02*
X65755Y-45945D01*
X56308Y-45945D02*
X57006Y-45945D01*
X51245Y-45945D02*
X55690Y-45945D01*
X60026Y-45865D02*
X65755Y-45865D01*
X51245Y-45865D02*
X56973Y-45865D01*
X60049Y-45785D02*
X65755Y-45785D01*
X51245Y-45785D02*
X56951Y-45785D01*
X60049Y-45705D02*
X65755Y-45705D01*
X51245Y-45705D02*
X56951Y-45705D01*
X60049Y-45625D02*
X65755Y-45625D01*
X51245Y-45625D02*
X56951Y-45625D01*
X60049Y-45545D02*
X65755Y-45545D01*
X51245Y-45545D02*
X56951Y-45545D01*
X60049Y-45465D02*
X65755Y-45465D01*
X51245Y-45465D02*
X56951Y-45465D01*
X60049Y-45385D02*
X65755Y-45385D01*
X51245Y-45385D02*
X56951Y-45385D01*
X60049Y-45305D02*
X65755Y-45305D01*
X51245Y-45305D02*
X56951Y-45305D01*
X60049Y-45225D02*
X65755Y-45225D01*
X51245Y-45225D02*
X56951Y-45225D01*
X60031Y-45145D02*
X65755Y-45145D01*
X51245Y-45145D02*
X56970Y-45145D01*
X59998Y-45065D02*
X65755Y-45065D01*
X56308Y-45065D02*
X57003Y-45065D01*
X51245Y-45065D02*
X55692Y-45065D01*
X59965Y-44985D02*
X65755Y-44985D01*
X56420Y-44985D02*
X57037Y-44985D01*
X51245Y-44985D02*
X55580Y-44985D01*
X59932Y-44905D02*
X65755Y-44905D01*
X56500Y-44905D02*
X57070Y-44905D01*
X51245Y-44905D02*
X55500Y-44905D01*
X59899Y-44825D02*
X65755Y-44825D01*
X56557Y-44825D02*
X57103Y-44825D01*
X51245Y-44825D02*
X55441Y-44825D01*
X59866Y-44745D02*
X65755Y-44745D01*
X56591Y-44745D02*
X57136Y-44745D01*
X51245Y-44745D02*
X55408Y-44745D01*
X59833Y-44665D02*
X65755Y-44665D01*
X56624Y-44665D02*
X57169Y-44665D01*
X51245Y-44665D02*
X55375Y-44665D01*
X59777Y-44585D02*
X65755Y-44585D01*
X56640Y-44585D02*
X57223Y-44585D01*
X51245Y-44585D02*
X55360Y-44585D01*
X59697Y-44505D02*
X65755Y-44505D01*
X56640Y-44505D02*
X57303Y-44505D01*
X51245Y-44505D02*
X55360Y-44505D01*
X59617Y-44425D02*
X65755Y-44425D01*
X56640Y-44425D02*
X57383Y-44425D01*
X51245Y-44425D02*
X55360Y-44425D01*
X59537Y-44345D02*
X65755Y-44345D01*
X56629Y-44345D02*
X57463Y-44345D01*
X51245Y-44345D02*
X55372Y-44345D01*
X59457Y-44265D02*
X65755Y-44265D01*
X56596Y-44265D02*
X57543Y-44265D01*
X51245Y-44265D02*
X55405Y-44265D01*
X59375Y-44185D02*
X65755Y-44185D01*
X56563Y-44185D02*
X57623Y-44185D01*
X51245Y-44185D02*
X55438Y-44185D01*
X59182Y-44105D02*
X65755Y-44105D01*
X56510Y-44105D02*
X57818Y-44105D01*
X51245Y-44105D02*
X55490Y-44105D01*
X58989Y-44025D02*
X65755Y-44025D01*
X56430Y-44025D02*
X58012Y-44025D01*
X51245Y-44025D02*
X55570Y-44025D01*
X56458Y-43945D02*
X65755Y-43945D01*
X51245Y-43945D02*
X55540Y-43945D01*
X56539Y-43865D02*
X65755Y-43865D01*
X51245Y-43865D02*
X55460Y-43865D01*
X56574Y-43785D02*
X65755Y-43785D01*
X51245Y-43785D02*
X55425Y-43785D01*
X56607Y-43705D02*
X65755Y-43705D01*
X51245Y-43705D02*
X55392Y-43705D01*
X56640Y-43625D02*
X65755Y-43625D01*
X51245Y-43625D02*
X55360Y-43625D01*
X56640Y-43545D02*
X65755Y-43545D01*
X51245Y-43545D02*
X55360Y-43545D01*
X56640Y-43465D02*
X65755Y-43465D01*
X51245Y-43465D02*
X55360Y-43465D01*
X56640Y-43385D02*
X65755Y-43385D01*
X51245Y-43385D02*
X55360Y-43385D01*
X56612Y-43305D02*
X65755Y-43305D01*
X51245Y-43305D02*
X55388Y-43305D01*
X56579Y-43225D02*
X65755Y-43225D01*
X51245Y-43225D02*
X55422Y-43225D01*
X56546Y-43145D02*
X65755Y-43145D01*
X51245Y-43145D02*
X55455Y-43145D01*
X56713Y-43065D02*
X65755Y-43065D01*
X51245Y-43065D02*
X55530Y-43065D01*
X56833Y-42985D02*
X65755Y-42985D01*
X51245Y-42985D02*
X55525Y-42985D01*
X56916Y-42905D02*
X65755Y-42905D01*
X51245Y-42905D02*
X55468Y-42905D01*
X56996Y-42825D02*
X65755Y-42825D01*
X51245Y-42825D02*
X55415Y-42825D01*
X57076Y-42745D02*
X65755Y-42745D01*
X51245Y-42745D02*
X55369Y-42745D01*
X57156Y-42665D02*
X65755Y-42665D01*
X51245Y-42665D02*
X55353Y-42665D01*
X57236Y-42585D02*
X65755Y-42585D01*
X51245Y-42585D02*
X55337Y-42585D01*
X57316Y-42505D02*
X65755Y-42505D01*
X51245Y-42505D02*
X55321Y-42505D01*
X57396Y-42425D02*
X65755Y-42425D01*
X51245Y-42425D02*
X55335Y-42425D01*
X57476Y-42345D02*
X65755Y-42345D01*
X51245Y-42345D02*
X55351Y-42345D01*
X57556Y-42265D02*
X65755Y-42265D01*
X51245Y-42265D02*
X55367Y-42265D01*
X57636Y-42185D02*
X65755Y-42185D01*
X51245Y-42185D02*
X55409Y-42185D01*
X57716Y-42105D02*
X65755Y-42105D01*
X51245Y-42105D02*
X55462Y-42105D01*
X57796Y-42025D02*
X65755Y-42025D01*
X51245Y-42025D02*
X55516Y-42025D01*
X57876Y-41945D02*
X65755Y-41945D01*
X51245Y-41945D02*
X55540Y-41945D01*
X57956Y-41865D02*
X65755Y-41865D01*
X51245Y-41865D02*
X55460Y-41865D01*
X58036Y-41785D02*
X65755Y-41785D01*
X51245Y-41785D02*
X55425Y-41785D01*
X58116Y-41705D02*
X65755Y-41705D01*
X51245Y-41705D02*
X55392Y-41705D01*
X58196Y-41625D02*
X65755Y-41625D01*
X51245Y-41625D02*
X55360Y-41625D01*
X58276Y-41545D02*
X65755Y-41545D01*
X51245Y-41545D02*
X55360Y-41545D01*
X58356Y-41465D02*
X65755Y-41465D01*
X51245Y-41465D02*
X55360Y-41465D01*
X58436Y-41385D02*
X65755Y-41385D01*
X51245Y-41385D02*
X55360Y-41385D01*
X58516Y-41305D02*
X65755Y-41305D01*
X51245Y-41305D02*
X55388Y-41305D01*
X58596Y-41225D02*
X65755Y-41225D01*
X56580Y-41225D02*
X56671Y-41225D01*
X51245Y-41225D02*
X55422Y-41225D01*
X58676Y-41145D02*
X65755Y-41145D01*
X56546Y-41145D02*
X56751Y-41145D01*
X51245Y-41145D02*
X55455Y-41145D01*
X58756Y-41065D02*
X65755Y-41065D01*
X56470Y-41065D02*
X56831Y-41065D01*
X51245Y-41065D02*
X55529Y-41065D01*
X58836Y-40985D02*
X65755Y-40985D01*
X56418Y-40985D02*
X56911Y-40985D01*
X51245Y-40985D02*
X55580Y-40985D01*
X58916Y-40905D02*
X65755Y-40905D01*
X56499Y-40905D02*
X56991Y-40905D01*
X51245Y-40905D02*
X55500Y-40905D01*
X58996Y-40825D02*
X65755Y-40825D01*
X56557Y-40825D02*
X57071Y-40825D01*
X51245Y-40825D02*
X55441Y-40825D01*
X59076Y-40745D02*
X65755Y-40745D01*
X56591Y-40745D02*
X57151Y-40745D01*
X51245Y-40745D02*
X55408Y-40745D01*
X59156Y-40665D02*
X65755Y-40665D01*
X56624Y-40665D02*
X57231Y-40665D01*
X51245Y-40665D02*
X55375Y-40665D01*
X59236Y-40585D02*
X65755Y-40585D01*
X56640Y-40585D02*
X57311Y-40585D01*
X51245Y-40585D02*
X55360Y-40585D01*
X59316Y-40505D02*
X65755Y-40505D01*
X56640Y-40505D02*
X57391Y-40505D01*
X51245Y-40505D02*
X55360Y-40505D01*
X59396Y-40425D02*
X65755Y-40425D01*
X56640Y-40425D02*
X57471Y-40425D01*
X51245Y-40425D02*
X55360Y-40425D01*
X59476Y-40345D02*
X65755Y-40345D01*
X56629Y-40345D02*
X57552Y-40345D01*
X51245Y-40345D02*
X55372Y-40345D01*
X59556Y-40265D02*
X65755Y-40265D01*
X56596Y-40265D02*
X57632Y-40265D01*
X51245Y-40265D02*
X55405Y-40265D01*
X59636Y-40185D02*
X65755Y-40185D01*
X56563Y-40185D02*
X57712Y-40185D01*
X51245Y-40185D02*
X55438Y-40185D01*
X59716Y-40105D02*
X65755Y-40105D01*
X56510Y-40105D02*
X57792Y-40105D01*
X51245Y-40105D02*
X55490Y-40105D01*
X59796Y-40025D02*
X65755Y-40025D01*
X56430Y-40025D02*
X57872Y-40025D01*
X51245Y-40025D02*
X55570Y-40025D01*
X59876Y-39945D02*
X65755Y-39945D01*
X56332Y-39945D02*
X57952Y-39945D01*
X51245Y-39945D02*
X55668Y-39945D01*
X59956Y-39865D02*
X65755Y-39865D01*
X56140Y-39865D02*
X58032Y-39865D01*
X51245Y-39865D02*
X55861Y-39865D01*
X60017Y-39785D02*
X65755Y-39785D01*
X51245Y-39785D02*
X58112Y-39785D01*
X60070Y-39705D02*
X65755Y-39705D01*
X51245Y-39705D02*
X58192Y-39705D01*
X60124Y-39625D02*
X65755Y-39625D01*
X51245Y-39625D02*
X58272Y-39625D01*
X60142Y-39545D02*
X65755Y-39545D01*
X51245Y-39545D02*
X58352Y-39545D01*
X60158Y-39465D02*
X65755Y-39465D01*
X51245Y-39465D02*
X58432Y-39465D01*
X60174Y-39385D02*
X65755Y-39385D01*
X51245Y-39385D02*
X58512Y-39385D01*
X60180Y-39305D02*
X65755Y-39305D01*
X51245Y-39305D02*
X58592Y-39305D01*
X60180Y-39225D02*
X65755Y-39225D01*
X51245Y-39225D02*
X58672Y-39225D01*
X60180Y-39145D02*
X65755Y-39145D01*
X51245Y-39145D02*
X58752Y-39145D01*
X60180Y-39065D02*
X65755Y-39065D01*
X51245Y-39065D02*
X58820Y-39065D01*
X60180Y-38985D02*
X65755Y-38985D01*
X51245Y-38985D02*
X58820Y-38985D01*
X60180Y-38905D02*
X65755Y-38905D01*
X51245Y-38905D02*
X58820Y-38905D01*
X60180Y-38825D02*
X65755Y-38825D01*
X51245Y-38825D02*
X58820Y-38825D01*
X60180Y-38745D02*
X65755Y-38745D01*
X51245Y-38745D02*
X58820Y-38745D01*
X60180Y-38665D02*
X65755Y-38665D01*
X51245Y-38665D02*
X58820Y-38665D01*
X60180Y-38585D02*
X65755Y-38585D01*
X51245Y-38585D02*
X58820Y-38585D01*
X60180Y-38505D02*
X65755Y-38505D01*
X51245Y-38505D02*
X58820Y-38505D01*
X60180Y-38425D02*
X65755Y-38425D01*
X57525Y-38425D02*
X58820Y-38425D01*
X51245Y-38425D02*
X57475Y-38425D01*
X60180Y-38345D02*
X65755Y-38345D01*
X57809Y-38345D02*
X58820Y-38345D01*
X51245Y-38345D02*
X57190Y-38345D01*
X60180Y-38265D02*
X65755Y-38265D01*
X57929Y-38265D02*
X58820Y-38265D01*
X51245Y-38265D02*
X57070Y-38265D01*
X60180Y-38185D02*
X65755Y-38185D01*
X58011Y-38185D02*
X58820Y-38185D01*
X51245Y-38185D02*
X56988Y-38185D01*
X60180Y-38105D02*
X65755Y-38105D01*
X58064Y-38105D02*
X58820Y-38105D01*
X51245Y-38105D02*
X56935Y-38105D01*
X60180Y-38025D02*
X65755Y-38025D01*
X58118Y-38025D02*
X58820Y-38025D01*
X51245Y-38025D02*
X56881Y-38025D01*
X60180Y-37945D02*
X65755Y-37945D01*
X58141Y-37945D02*
X58820Y-37945D01*
X51245Y-37945D02*
X56859Y-37945D01*
X60180Y-37865D02*
X65755Y-37865D01*
X58157Y-37865D02*
X58820Y-37865D01*
X51245Y-37865D02*
X56843Y-37865D01*
X60180Y-37785D02*
X65755Y-37785D01*
X58173Y-37785D02*
X58820Y-37785D01*
X51245Y-37785D02*
X56827Y-37785D01*
X60180Y-37705D02*
X65755Y-37705D01*
X58180Y-37705D02*
X58820Y-37705D01*
X51245Y-37705D02*
X56820Y-37705D01*
X60180Y-37625D02*
X65755Y-37625D01*
X58180Y-37625D02*
X58820Y-37625D01*
X51245Y-37625D02*
X56820Y-37625D01*
X60180Y-37545D02*
X65755Y-37545D01*
X58180Y-37545D02*
X58820Y-37545D01*
X51245Y-37545D02*
X56820Y-37545D01*
X60180Y-37465D02*
X65755Y-37465D01*
X58180Y-37465D02*
X58820Y-37465D01*
X51245Y-37465D02*
X56820Y-37465D01*
X60180Y-37385D02*
X65755Y-37385D01*
X58180Y-37385D02*
X58820Y-37385D01*
X51245Y-37385D02*
X56820Y-37385D01*
X60180Y-37305D02*
X65755Y-37305D01*
X58180Y-37305D02*
X58820Y-37305D01*
X51245Y-37305D02*
X56820Y-37305D01*
X60180Y-37225D02*
X65755Y-37225D01*
X58180Y-37225D02*
X58820Y-37225D01*
X51245Y-37225D02*
X56820Y-37225D01*
X60180Y-37145D02*
X65755Y-37145D01*
X58180Y-37145D02*
X58820Y-37145D01*
X51245Y-37145D02*
X56820Y-37145D01*
X60180Y-37065D02*
X65755Y-37065D01*
X58180Y-37065D02*
X58820Y-37065D01*
X51245Y-37065D02*
X56820Y-37065D01*
X60180Y-36985D02*
X65755Y-36985D01*
X58180Y-36985D02*
X58820Y-36985D01*
X51245Y-36985D02*
X56820Y-36985D01*
X60180Y-36905D02*
X65755Y-36905D01*
X58180Y-36905D02*
X58820Y-36905D01*
X51245Y-36905D02*
X56820Y-36905D01*
X60180Y-36825D02*
X65755Y-36825D01*
X58180Y-36825D02*
X58820Y-36825D01*
X51245Y-36825D02*
X56820Y-36825D01*
X60180Y-36745D02*
X65755Y-36745D01*
X58180Y-36745D02*
X58820Y-36745D01*
X51245Y-36745D02*
X56820Y-36745D01*
X60180Y-36665D02*
X65755Y-36665D01*
X58180Y-36665D02*
X58820Y-36665D01*
X51245Y-36665D02*
X56820Y-36665D01*
X60180Y-36585D02*
X65755Y-36585D01*
X58180Y-36585D02*
X58820Y-36585D01*
X51245Y-36585D02*
X56820Y-36585D01*
X60180Y-36505D02*
X65755Y-36505D01*
X58180Y-36505D02*
X58820Y-36505D01*
X51245Y-36505D02*
X56820Y-36505D01*
X60180Y-36425D02*
X65755Y-36425D01*
X58180Y-36425D02*
X58820Y-36425D01*
X51245Y-36425D02*
X56820Y-36425D01*
X60180Y-36345D02*
X65755Y-36345D01*
X58180Y-36345D02*
X58820Y-36345D01*
X51245Y-36345D02*
X56820Y-36345D01*
X60180Y-36265D02*
X65755Y-36265D01*
X58180Y-36265D02*
X58820Y-36265D01*
X51245Y-36265D02*
X56820Y-36265D01*
X60180Y-36185D02*
X65755Y-36185D01*
X58180Y-36185D02*
X58820Y-36185D01*
X51245Y-36185D02*
X56820Y-36185D01*
X60180Y-36105D02*
X65755Y-36105D01*
X58180Y-36105D02*
X58820Y-36105D01*
X56794Y-36105D02*
X56820Y-36105D01*
X51245Y-36105D02*
X55205Y-36105D01*
X60180Y-36025D02*
X65755Y-36025D01*
X58180Y-36025D02*
X58820Y-36025D01*
X51245Y-36025D02*
X55085Y-36025D01*
X60180Y-35945D02*
X65755Y-35945D01*
X58180Y-35945D02*
X58820Y-35945D01*
X51245Y-35945D02*
X54995Y-35945D01*
X60180Y-35865D02*
X65755Y-35865D01*
X58180Y-35865D02*
X58820Y-35865D01*
X51245Y-35865D02*
X54941Y-35865D01*
X60180Y-35785D02*
X65755Y-35785D01*
X58180Y-35785D02*
X58820Y-35785D01*
X51245Y-35785D02*
X54888Y-35785D01*
X60180Y-35705D02*
X65755Y-35705D01*
X58180Y-35705D02*
X58820Y-35705D01*
X51245Y-35705D02*
X54861Y-35705D01*
X60180Y-35625D02*
X65755Y-35625D01*
X58180Y-35625D02*
X58820Y-35625D01*
X51245Y-35625D02*
X54845Y-35625D01*
X60180Y-35545D02*
X65755Y-35545D01*
X58180Y-35545D02*
X58820Y-35545D01*
X51245Y-35545D02*
X54829Y-35545D01*
X60180Y-35465D02*
X65755Y-35465D01*
X58180Y-35465D02*
X58820Y-35465D01*
X51245Y-35465D02*
X54827Y-35465D01*
X60180Y-35385D02*
X65755Y-35385D01*
X58180Y-35385D02*
X58820Y-35385D01*
X51245Y-35385D02*
X54843Y-35385D01*
X60180Y-35305D02*
X65755Y-35305D01*
X58180Y-35305D02*
X58820Y-35305D01*
X51245Y-35305D02*
X54859Y-35305D01*
X60180Y-35225D02*
X65755Y-35225D01*
X58180Y-35225D02*
X58820Y-35225D01*
X51245Y-35225D02*
X54882Y-35225D01*
X60180Y-35145D02*
X65755Y-35145D01*
X58180Y-35145D02*
X58820Y-35145D01*
X51245Y-35145D02*
X54936Y-35145D01*
X60180Y-35065D02*
X65755Y-35065D01*
X58180Y-35065D02*
X58820Y-35065D01*
X51245Y-35065D02*
X54989Y-35065D01*
X60180Y-34985D02*
X65755Y-34985D01*
X58180Y-34985D02*
X58820Y-34985D01*
X51245Y-34985D02*
X55071Y-34985D01*
X60180Y-34905D02*
X65755Y-34905D01*
X58180Y-34905D02*
X58820Y-34905D01*
X56811Y-34905D02*
X56820Y-34905D01*
X51245Y-34905D02*
X55191Y-34905D01*
X60180Y-34825D02*
X65755Y-34825D01*
X58180Y-34825D02*
X58820Y-34825D01*
X56525Y-34825D02*
X56820Y-34825D01*
X51245Y-34825D02*
X55475Y-34825D01*
X60180Y-34745D02*
X65755Y-34745D01*
X58180Y-34745D02*
X58820Y-34745D01*
X51245Y-34745D02*
X56820Y-34745D01*
X60180Y-34665D02*
X65755Y-34665D01*
X58180Y-34665D02*
X58820Y-34665D01*
X51245Y-34665D02*
X56820Y-34665D01*
X60180Y-34585D02*
X65755Y-34585D01*
X58180Y-34585D02*
X58820Y-34585D01*
X51245Y-34585D02*
X56820Y-34585D01*
X60180Y-34505D02*
X65755Y-34505D01*
X58180Y-34505D02*
X58820Y-34505D01*
X51245Y-34505D02*
X56820Y-34505D01*
X60180Y-34425D02*
X65755Y-34425D01*
X58180Y-34425D02*
X58820Y-34425D01*
X51245Y-34425D02*
X56820Y-34425D01*
X60180Y-34345D02*
X65755Y-34345D01*
X58180Y-34345D02*
X58820Y-34345D01*
X51245Y-34345D02*
X56820Y-34345D01*
X60180Y-34265D02*
X65755Y-34265D01*
X58180Y-34265D02*
X58820Y-34265D01*
X51245Y-34265D02*
X56820Y-34265D01*
X60180Y-34185D02*
X65755Y-34185D01*
X58180Y-34185D02*
X58820Y-34185D01*
X51245Y-34185D02*
X56820Y-34185D01*
X60180Y-34105D02*
X65755Y-34105D01*
X58180Y-34105D02*
X58820Y-34105D01*
X51245Y-34105D02*
X56820Y-34105D01*
X60180Y-34025D02*
X65755Y-34025D01*
X58180Y-34025D02*
X58820Y-34025D01*
X51245Y-34025D02*
X56820Y-34025D01*
X60180Y-33945D02*
X65755Y-33945D01*
X58180Y-33945D02*
X58820Y-33945D01*
X51245Y-33945D02*
X56794Y-33945D01*
X60180Y-33865D02*
X65755Y-33865D01*
X58180Y-33865D02*
X58820Y-33865D01*
X51245Y-33865D02*
X56714Y-33865D01*
X60180Y-33785D02*
X65755Y-33785D01*
X58180Y-33785D02*
X58820Y-33785D01*
X51245Y-33785D02*
X56634Y-33785D01*
X60180Y-33705D02*
X65755Y-33705D01*
X58180Y-33705D02*
X58820Y-33705D01*
X51245Y-33705D02*
X56554Y-33705D01*
X60180Y-33625D02*
X65755Y-33625D01*
X58168Y-33625D02*
X58820Y-33625D01*
X51245Y-33625D02*
X56474Y-33625D01*
X60180Y-33545D02*
X65755Y-33545D01*
X58152Y-33545D02*
X58820Y-33545D01*
X51245Y-33545D02*
X56394Y-33545D01*
X60180Y-33465D02*
X65755Y-33465D01*
X58136Y-33465D02*
X58820Y-33465D01*
X51245Y-33465D02*
X56314Y-33465D01*
X60180Y-33385D02*
X65755Y-33385D01*
X58099Y-33385D02*
X58820Y-33385D01*
X51245Y-33385D02*
X56234Y-33385D01*
X60180Y-33305D02*
X65755Y-33305D01*
X58046Y-33305D02*
X58820Y-33305D01*
X51245Y-33305D02*
X56154Y-33305D01*
X60180Y-33225D02*
X65755Y-33225D01*
X57993Y-33225D02*
X58820Y-33225D01*
X51245Y-33225D02*
X56074Y-33225D01*
X60180Y-33145D02*
X65755Y-33145D01*
X57919Y-33145D02*
X58820Y-33145D01*
X51245Y-33145D02*
X55994Y-33145D01*
X60180Y-33065D02*
X65755Y-33065D01*
X57839Y-33065D02*
X58820Y-33065D01*
X51245Y-33065D02*
X55914Y-33065D01*
X60180Y-32985D02*
X65755Y-32985D01*
X57759Y-32985D02*
X58820Y-32985D01*
X51245Y-32985D02*
X55834Y-32985D01*
X60180Y-32905D02*
X65755Y-32905D01*
X57679Y-32905D02*
X58820Y-32905D01*
X51245Y-32905D02*
X55754Y-32905D01*
X60180Y-32825D02*
X65755Y-32825D01*
X57599Y-32825D02*
X58820Y-32825D01*
X51245Y-32825D02*
X55674Y-32825D01*
X60180Y-32745D02*
X65755Y-32745D01*
X57519Y-32745D02*
X58820Y-32745D01*
X51245Y-32745D02*
X55594Y-32745D01*
X60180Y-32665D02*
X65755Y-32665D01*
X57439Y-32665D02*
X58820Y-32665D01*
X51245Y-32665D02*
X55514Y-32665D01*
X60180Y-32585D02*
X65755Y-32585D01*
X57359Y-32585D02*
X58820Y-32585D01*
X51245Y-32585D02*
X55434Y-32585D01*
X60180Y-32505D02*
X65755Y-32505D01*
X57279Y-32505D02*
X58820Y-32505D01*
X51245Y-32505D02*
X55354Y-32505D01*
X60180Y-32425D02*
X65755Y-32425D01*
X57998Y-32425D02*
X58820Y-32425D01*
X57199Y-32425D02*
X57499Y-32425D01*
X52998Y-32425D02*
X55274Y-32425D01*
X51245Y-32425D02*
X52499Y-32425D01*
X60180Y-32345D02*
X65755Y-32345D01*
X58192Y-32345D02*
X58820Y-32345D01*
X57119Y-32345D02*
X57307Y-32345D01*
X53192Y-32345D02*
X55194Y-32345D01*
X51245Y-32345D02*
X52307Y-32345D01*
X60180Y-32265D02*
X65755Y-32265D01*
X58328Y-32265D02*
X58820Y-32265D01*
X57039Y-32265D02*
X57171Y-32265D01*
X53328Y-32265D02*
X55114Y-32265D01*
X51245Y-32265D02*
X52171Y-32265D01*
X60180Y-32185D02*
X65755Y-32185D01*
X58408Y-32185D02*
X58820Y-32185D01*
X56959Y-32185D02*
X57091Y-32185D01*
X53408Y-32185D02*
X55034Y-32185D01*
X51245Y-32185D02*
X52091Y-32185D01*
X60180Y-32105D02*
X65755Y-32105D01*
X58488Y-32105D02*
X58820Y-32105D01*
X56879Y-32105D02*
X57011Y-32105D01*
X53488Y-32105D02*
X54954Y-32105D01*
X51245Y-32105D02*
X52011Y-32105D01*
X60180Y-32025D02*
X65755Y-32025D01*
X58560Y-32025D02*
X58820Y-32025D01*
X56799Y-32025D02*
X56939Y-32025D01*
X53560Y-32025D02*
X54874Y-32025D01*
X51245Y-32025D02*
X51939Y-32025D01*
X60180Y-31945D02*
X65755Y-31945D01*
X58594Y-31945D02*
X58820Y-31945D01*
X56719Y-31945D02*
X56906Y-31945D01*
X53594Y-31945D02*
X54794Y-31945D01*
X51245Y-31945D02*
X51906Y-31945D01*
X60180Y-31865D02*
X65755Y-31865D01*
X58627Y-31865D02*
X58820Y-31865D01*
X56639Y-31865D02*
X56873Y-31865D01*
X53627Y-31865D02*
X54732Y-31865D01*
X51245Y-31865D02*
X51873Y-31865D01*
X60180Y-31785D02*
X65755Y-31785D01*
X58660Y-31785D02*
X58820Y-31785D01*
X56559Y-31785D02*
X56840Y-31785D01*
X53660Y-31785D02*
X54679Y-31785D01*
X51245Y-31785D02*
X51840Y-31785D01*
X60180Y-31705D02*
X65755Y-31705D01*
X58693Y-31705D02*
X58820Y-31705D01*
X56479Y-31705D02*
X56807Y-31705D01*
X53693Y-31705D02*
X54625Y-31705D01*
X51245Y-31705D02*
X51807Y-31705D01*
X60180Y-31625D02*
X65755Y-31625D01*
X58700Y-31625D02*
X58820Y-31625D01*
X56399Y-31625D02*
X56800Y-31625D01*
X53700Y-31625D02*
X54607Y-31625D01*
X51245Y-31625D02*
X51800Y-31625D01*
X60180Y-31545D02*
X65755Y-31545D01*
X58700Y-31545D02*
X58820Y-31545D01*
X56319Y-31545D02*
X56800Y-31545D01*
X53700Y-31545D02*
X54591Y-31545D01*
X51245Y-31545D02*
X51800Y-31545D01*
X60180Y-31465D02*
X65755Y-31465D01*
X58700Y-31465D02*
X58820Y-31465D01*
X56239Y-31465D02*
X56800Y-31465D01*
X53700Y-31465D02*
X54575Y-31465D01*
X51245Y-31465D02*
X51800Y-31465D01*
X60180Y-31385D02*
X65755Y-31385D01*
X58700Y-31385D02*
X58820Y-31385D01*
X56159Y-31385D02*
X56800Y-31385D01*
X53700Y-31385D02*
X54570Y-31385D01*
X51245Y-31385D02*
X51800Y-31385D01*
X60180Y-31305D02*
X65755Y-31305D01*
X58698Y-31305D02*
X58820Y-31305D01*
X56079Y-31305D02*
X56803Y-31305D01*
X53698Y-31305D02*
X54570Y-31305D01*
X51245Y-31305D02*
X51803Y-31305D01*
X60180Y-31225D02*
X65755Y-31225D01*
X58665Y-31225D02*
X58820Y-31225D01*
X55999Y-31225D02*
X56836Y-31225D01*
X53665Y-31225D02*
X54570Y-31225D01*
X51245Y-31225D02*
X51836Y-31225D01*
X60180Y-31145D02*
X65755Y-31145D01*
X58632Y-31145D02*
X58820Y-31145D01*
X55930Y-31145D02*
X56869Y-31145D01*
X53632Y-31145D02*
X54570Y-31145D01*
X51245Y-31145D02*
X51869Y-31145D01*
X60180Y-31065D02*
X65755Y-31065D01*
X58599Y-31065D02*
X58820Y-31065D01*
X55930Y-31065D02*
X56902Y-31065D01*
X53599Y-31065D02*
X54570Y-31065D01*
X51245Y-31065D02*
X51902Y-31065D01*
X60180Y-30985D02*
X65755Y-30985D01*
X58566Y-30985D02*
X58820Y-30985D01*
X55930Y-30985D02*
X56936Y-30985D01*
X53566Y-30985D02*
X54570Y-30985D01*
X51245Y-30985D02*
X51936Y-30985D01*
X60180Y-30905D02*
X65755Y-30905D01*
X58499Y-30905D02*
X58820Y-30905D01*
X55930Y-30905D02*
X57002Y-30905D01*
X53499Y-30905D02*
X54570Y-30905D01*
X51245Y-30905D02*
X52002Y-30905D01*
X60180Y-30825D02*
X65755Y-30825D01*
X58419Y-30825D02*
X58820Y-30825D01*
X55930Y-30825D02*
X57082Y-30825D01*
X53419Y-30825D02*
X54570Y-30825D01*
X51245Y-30825D02*
X52082Y-30825D01*
X60180Y-30745D02*
X65755Y-30745D01*
X58339Y-30745D02*
X58820Y-30745D01*
X55930Y-30745D02*
X57162Y-30745D01*
X53339Y-30745D02*
X54570Y-30745D01*
X51245Y-30745D02*
X52162Y-30745D01*
X60180Y-30665D02*
X65755Y-30665D01*
X58217Y-30665D02*
X58820Y-30665D01*
X55930Y-30665D02*
X57284Y-30665D01*
X53217Y-30665D02*
X54570Y-30665D01*
X51245Y-30665D02*
X52284Y-30665D01*
X60180Y-30585D02*
X65755Y-30585D01*
X58025Y-30585D02*
X58793Y-30585D01*
X55930Y-30585D02*
X57478Y-30585D01*
X53025Y-30585D02*
X54570Y-30585D01*
X51245Y-30585D02*
X52478Y-30585D01*
X60180Y-30505D02*
X65755Y-30505D01*
X55930Y-30505D02*
X58713Y-30505D01*
X51245Y-30505D02*
X54570Y-30505D01*
X60180Y-30425D02*
X65755Y-30425D01*
X55930Y-30425D02*
X58633Y-30425D01*
X51245Y-30425D02*
X54570Y-30425D01*
X60180Y-30345D02*
X65755Y-30345D01*
X55930Y-30345D02*
X58553Y-30345D01*
X51245Y-30345D02*
X54570Y-30345D01*
X60167Y-30265D02*
X65755Y-30265D01*
X55930Y-30265D02*
X58473Y-30265D01*
X51245Y-30265D02*
X54570Y-30265D01*
X60151Y-30185D02*
X65755Y-30185D01*
X55930Y-30185D02*
X58393Y-30185D01*
X51245Y-30185D02*
X54570Y-30185D01*
X60135Y-30105D02*
X65755Y-30105D01*
X55930Y-30105D02*
X58313Y-30105D01*
X51245Y-30105D02*
X54570Y-30105D01*
X60099Y-30025D02*
X65755Y-30025D01*
X55930Y-30025D02*
X58233Y-30025D01*
X51245Y-30025D02*
X54570Y-30025D01*
X60045Y-29945D02*
X65755Y-29945D01*
X55930Y-29945D02*
X58153Y-29945D01*
X51245Y-29945D02*
X54570Y-29945D01*
X59992Y-29865D02*
X65755Y-29865D01*
X55930Y-29865D02*
X58073Y-29865D01*
X51245Y-29865D02*
X54570Y-29865D01*
X59917Y-29785D02*
X65755Y-29785D01*
X55930Y-29785D02*
X57993Y-29785D01*
X51245Y-29785D02*
X54570Y-29785D01*
X59837Y-29705D02*
X65755Y-29705D01*
X55930Y-29705D02*
X57913Y-29705D01*
X51245Y-29705D02*
X54570Y-29705D01*
X59757Y-29625D02*
X65755Y-29625D01*
X55930Y-29625D02*
X57833Y-29625D01*
X51245Y-29625D02*
X54570Y-29625D01*
X59677Y-29545D02*
X65755Y-29545D01*
X55930Y-29545D02*
X57753Y-29545D01*
X51245Y-29545D02*
X54570Y-29545D01*
X59597Y-29465D02*
X65755Y-29465D01*
X55930Y-29465D02*
X57673Y-29465D01*
X51245Y-29465D02*
X54570Y-29465D01*
X59517Y-29385D02*
X65755Y-29385D01*
X55930Y-29385D02*
X57593Y-29385D01*
X51245Y-29385D02*
X54570Y-29385D01*
X59437Y-29305D02*
X65755Y-29305D01*
X55930Y-29305D02*
X57513Y-29305D01*
X51245Y-29305D02*
X54570Y-29305D01*
X59357Y-29225D02*
X65755Y-29225D01*
X55930Y-29225D02*
X57433Y-29225D01*
X51245Y-29225D02*
X54570Y-29225D01*
X59277Y-29145D02*
X65755Y-29145D01*
X55930Y-29145D02*
X57353Y-29145D01*
X51245Y-29145D02*
X54570Y-29145D01*
X64517Y-29065D02*
X65755Y-29065D01*
X63242Y-29065D02*
X63483Y-29065D01*
X59197Y-29065D02*
X62756Y-29065D01*
X55930Y-29065D02*
X57273Y-29065D01*
X51245Y-29065D02*
X54570Y-29065D01*
X64584Y-28985D02*
X65755Y-28985D01*
X63384Y-28985D02*
X63415Y-28985D01*
X59117Y-28985D02*
X62615Y-28985D01*
X55930Y-28985D02*
X57193Y-28985D01*
X51245Y-28985D02*
X54570Y-28985D01*
X64614Y-28905D02*
X65755Y-28905D01*
X59037Y-28905D02*
X62535Y-28905D01*
X55930Y-28905D02*
X57113Y-28905D01*
X51245Y-28905D02*
X54570Y-28905D01*
X64614Y-28825D02*
X65755Y-28825D01*
X58957Y-28825D02*
X62469Y-28825D01*
X55930Y-28825D02*
X57033Y-28825D01*
X51245Y-28825D02*
X54570Y-28825D01*
X64614Y-28745D02*
X65755Y-28745D01*
X58877Y-28745D02*
X62436Y-28745D01*
X55930Y-28745D02*
X56953Y-28745D01*
X51245Y-28745D02*
X54570Y-28745D01*
X64614Y-28665D02*
X65755Y-28665D01*
X58797Y-28665D02*
X62402Y-28665D01*
X55930Y-28665D02*
X56873Y-28665D01*
X51245Y-28665D02*
X54570Y-28665D01*
X64614Y-28585D02*
X65755Y-28585D01*
X58717Y-28585D02*
X62385Y-28585D01*
X55930Y-28585D02*
X56793Y-28585D01*
X51245Y-28585D02*
X54570Y-28585D01*
X64614Y-28505D02*
X65755Y-28505D01*
X58637Y-28505D02*
X62385Y-28505D01*
X55930Y-28505D02*
X56713Y-28505D01*
X51245Y-28505D02*
X54570Y-28505D01*
X64614Y-28425D02*
X65755Y-28425D01*
X58557Y-28425D02*
X62385Y-28425D01*
X55930Y-28425D02*
X56633Y-28425D01*
X51245Y-28425D02*
X54570Y-28425D01*
X64614Y-28345D02*
X65755Y-28345D01*
X58477Y-28345D02*
X62399Y-28345D01*
X55930Y-28345D02*
X56553Y-28345D01*
X51245Y-28345D02*
X54570Y-28345D01*
X64614Y-28265D02*
X65755Y-28265D01*
X58397Y-28265D02*
X62432Y-28265D01*
X55930Y-28265D02*
X56473Y-28265D01*
X51245Y-28265D02*
X54570Y-28265D01*
X64614Y-28185D02*
X65755Y-28185D01*
X58317Y-28185D02*
X62465Y-28185D01*
X55930Y-28185D02*
X56393Y-28185D01*
X53956Y-28185D02*
X54570Y-28185D01*
X51245Y-28185D02*
X53583Y-28185D01*
X64614Y-28105D02*
X65755Y-28105D01*
X58237Y-28105D02*
X62526Y-28105D01*
X55930Y-28105D02*
X56313Y-28105D01*
X54143Y-28105D02*
X54570Y-28105D01*
X51245Y-28105D02*
X53397Y-28105D01*
X64589Y-28025D02*
X65755Y-28025D01*
X58157Y-28025D02*
X62606Y-28025D01*
X55930Y-28025D02*
X56238Y-28025D01*
X54223Y-28025D02*
X54570Y-28025D01*
X51245Y-28025D02*
X53317Y-28025D01*
X64527Y-27945D02*
X65755Y-27945D01*
X58077Y-27945D02*
X62731Y-27945D01*
X55930Y-27945D02*
X56185Y-27945D01*
X54303Y-27945D02*
X54570Y-27945D01*
X51245Y-27945D02*
X53237Y-27945D01*
X64363Y-27865D02*
X65755Y-27865D01*
X57997Y-27865D02*
X62637Y-27865D01*
X55930Y-27865D02*
X56131Y-27865D01*
X54346Y-27865D02*
X54570Y-27865D01*
X51245Y-27865D02*
X53193Y-27865D01*
X64438Y-27785D02*
X65755Y-27785D01*
X57917Y-27785D02*
X62560Y-27785D01*
X55930Y-27785D02*
X56095Y-27785D01*
X54379Y-27785D02*
X54570Y-27785D01*
X51245Y-27785D02*
X53160Y-27785D01*
X64472Y-27705D02*
X65755Y-27705D01*
X57837Y-27705D02*
X62527Y-27705D01*
X55930Y-27705D02*
X56079Y-27705D01*
X54412Y-27705D02*
X54570Y-27705D01*
X51245Y-27705D02*
X53127Y-27705D01*
X64505Y-27625D02*
X65755Y-27625D01*
X57757Y-27625D02*
X62494Y-27625D01*
X55930Y-27625D02*
X56063Y-27625D01*
X54419Y-27625D02*
X54570Y-27625D01*
X51245Y-27625D02*
X53121Y-27625D01*
X64515Y-27545D02*
X65755Y-27545D01*
X57677Y-27545D02*
X62485Y-27545D01*
X55927Y-27545D02*
X56053Y-27545D01*
X54419Y-27545D02*
X54573Y-27545D01*
X51245Y-27545D02*
X53121Y-27545D01*
X64515Y-27465D02*
X65755Y-27465D01*
X57597Y-27465D02*
X62485Y-27465D01*
X55911Y-27465D02*
X56069Y-27465D01*
X54419Y-27465D02*
X54589Y-27465D01*
X51245Y-27465D02*
X53121Y-27465D01*
X64510Y-27385D02*
X65755Y-27385D01*
X57517Y-27385D02*
X62491Y-27385D01*
X55895Y-27385D02*
X56085Y-27385D01*
X54400Y-27385D02*
X54605Y-27385D01*
X51245Y-27385D02*
X53141Y-27385D01*
X64477Y-27305D02*
X65755Y-27305D01*
X63477Y-27305D02*
X63523Y-27305D01*
X57437Y-27305D02*
X62524Y-27305D01*
X55879Y-27305D02*
X56101Y-27305D01*
X54367Y-27305D02*
X54621Y-27305D01*
X51245Y-27305D02*
X53174Y-27305D01*
X64444Y-27225D02*
X65755Y-27225D01*
X63444Y-27225D02*
X63557Y-27225D01*
X57357Y-27225D02*
X62557Y-27225D01*
X55829Y-27225D02*
X56152Y-27225D01*
X54334Y-27225D02*
X54672Y-27225D01*
X51245Y-27225D02*
X53207Y-27225D01*
X64373Y-27145D02*
X65755Y-27145D01*
X63373Y-27145D02*
X63627Y-27145D01*
X57277Y-27145D02*
X62627Y-27145D01*
X55775Y-27145D02*
X56206Y-27145D01*
X54273Y-27145D02*
X54726Y-27145D01*
X51245Y-27145D02*
X53267Y-27145D01*
X64293Y-27065D02*
X65755Y-27065D01*
X63293Y-27065D02*
X63707Y-27065D01*
X57190Y-27065D02*
X62707Y-27065D01*
X55710Y-27065D02*
X56271Y-27065D01*
X54193Y-27065D02*
X54791Y-27065D01*
X51245Y-27065D02*
X53347Y-27065D01*
X64103Y-26985D02*
X65755Y-26985D01*
X63103Y-26985D02*
X63898Y-26985D01*
X57070Y-26985D02*
X62898Y-26985D01*
X55590Y-26985D02*
X56391Y-26985D01*
X54078Y-26985D02*
X54911Y-26985D01*
X51245Y-26985D02*
X53463Y-26985D01*
X56855Y-26905D02*
X65755Y-26905D01*
X55375Y-26905D02*
X56605Y-26905D01*
X51245Y-26905D02*
X55125Y-26905D01*
X51245Y-26825D02*
X65755Y-26825D01*
X51245Y-26745D02*
X65755Y-26745D01*
X65755Y-56255D02*
X65755Y-26745D01*
X65755Y-26745D02*
X51245Y-26745D01*
X51245Y-26745D02*
X51245Y-56255D01*
X51245Y-56255D02*
X52560Y-56255D01*
X52560Y-56255D02*
X52560Y-32450D01*
X52560Y-32450D02*
X52211Y-32305D01*
X52211Y-32305D02*
X51944Y-32037D01*
X51944Y-32037D02*
X51800Y-31688D01*
X51800Y-31688D02*
X51800Y-31310D01*
X51800Y-31310D02*
X51945Y-30961D01*
X51945Y-30961D02*
X52213Y-30694D01*
X52213Y-30694D02*
X52562Y-30550D01*
X52562Y-30550D02*
X52940Y-30550D01*
X52940Y-30550D02*
X53289Y-30695D01*
X53289Y-30695D02*
X53556Y-30963D01*
X53556Y-30963D02*
X53641Y-31169D01*
X53641Y-31169D02*
X53641Y-28209D01*
X53641Y-28209D02*
X53402Y-28110D01*
X53402Y-28110D02*
X53220Y-27928D01*
X53220Y-27928D02*
X53121Y-27689D01*
X53121Y-27689D02*
X53121Y-27431D01*
X53121Y-27431D02*
X53220Y-27192D01*
X53220Y-27192D02*
X53402Y-27010D01*
X53402Y-27010D02*
X53641Y-26911D01*
X53641Y-26911D02*
X53899Y-26911D01*
X53899Y-26911D02*
X54138Y-27010D01*
X54138Y-27010D02*
X54320Y-27192D01*
X54320Y-27192D02*
X54419Y-27431D01*
X54419Y-27431D02*
X54419Y-27689D01*
X54419Y-27689D02*
X54320Y-27928D01*
X54320Y-27928D02*
X54138Y-28110D01*
X54138Y-28110D02*
X53899Y-28209D01*
X53899Y-28209D02*
X53641Y-28209D01*
X53641Y-28209D02*
X53641Y-31169D01*
X53641Y-31169D02*
X53700Y-31312D01*
X53700Y-31312D02*
X53700Y-31690D01*
X53700Y-31690D02*
X53555Y-32039D01*
X53555Y-32039D02*
X53287Y-32306D01*
X53287Y-32306D02*
X52938Y-32450D01*
X52938Y-32450D02*
X52560Y-32450D01*
X52560Y-32450D02*
X52560Y-56255D01*
X52560Y-56255D02*
X55500Y-56255D01*
X55500Y-56255D02*
X55500Y-56180D01*
X55500Y-56180D02*
X55240Y-56128D01*
X55240Y-56128D02*
X55019Y-55981D01*
X55019Y-55981D02*
X54872Y-55760D01*
X54872Y-55760D02*
X54820Y-55500D01*
X54820Y-55500D02*
X54872Y-55240D01*
X54872Y-55240D02*
X55019Y-55019D01*
X55019Y-55019D02*
X55240Y-54872D01*
X55240Y-54872D02*
X55500Y-54820D01*
X55500Y-54820D02*
X55558Y-54820D01*
X55558Y-54820D02*
X55558Y-46871D01*
X55558Y-46871D02*
X55455Y-46834D01*
X55455Y-46834D02*
X55377Y-46649D01*
X55377Y-46649D02*
X55368Y-46400D01*
X55368Y-46400D02*
X55455Y-46166D01*
X55455Y-46166D02*
X55558Y-46129D01*
X55558Y-46129D02*
X55872Y-46443D01*
X55872Y-46443D02*
X55929Y-46500D01*
X55929Y-46500D02*
X55872Y-46557D01*
X55872Y-46557D02*
X55558Y-46871D01*
X55558Y-46871D02*
X55558Y-54820D01*
X55558Y-54820D02*
X55872Y-54820D01*
X55872Y-54820D02*
X55900Y-54820D01*
X55900Y-54820D02*
X55900Y-47132D01*
X55900Y-47132D02*
X55872Y-47121D01*
X55872Y-47121D02*
X55666Y-47045D01*
X55666Y-47045D02*
X55629Y-46942D01*
X55629Y-46942D02*
X55872Y-46699D01*
X55872Y-46699D02*
X56000Y-46571D01*
X56000Y-46571D02*
X56000Y-46429D01*
X56000Y-46429D02*
X55872Y-46301D01*
X55872Y-46301D02*
X55629Y-46058D01*
X55629Y-46058D02*
X55666Y-45955D01*
X55666Y-45955D02*
X55851Y-45877D01*
X55851Y-45877D02*
X55872Y-45876D01*
X55872Y-45876D02*
X55872Y-45140D01*
X55872Y-45140D02*
X55637Y-45042D01*
X55637Y-45042D02*
X55457Y-44862D01*
X55457Y-44862D02*
X55360Y-44627D01*
X55360Y-44627D02*
X55360Y-44372D01*
X55360Y-44372D02*
X55458Y-44137D01*
X55458Y-44137D02*
X55595Y-44000D01*
X55595Y-44000D02*
X55457Y-43862D01*
X55457Y-43862D02*
X55360Y-43627D01*
X55360Y-43627D02*
X55360Y-43372D01*
X55360Y-43372D02*
X55458Y-43137D01*
X55458Y-43137D02*
X55576Y-43018D01*
X55576Y-43018D02*
X55519Y-42981D01*
X55519Y-42981D02*
X55372Y-42760D01*
X55372Y-42760D02*
X55320Y-42500D01*
X55320Y-42500D02*
X55372Y-42240D01*
X55372Y-42240D02*
X55519Y-42019D01*
X55519Y-42019D02*
X55576Y-41981D01*
X55576Y-41981D02*
X55457Y-41862D01*
X55457Y-41862D02*
X55360Y-41627D01*
X55360Y-41627D02*
X55360Y-41372D01*
X55360Y-41372D02*
X55458Y-41137D01*
X55458Y-41137D02*
X55594Y-40999D01*
X55594Y-40999D02*
X55457Y-40862D01*
X55457Y-40862D02*
X55360Y-40627D01*
X55360Y-40627D02*
X55360Y-40372D01*
X55360Y-40372D02*
X55458Y-40137D01*
X55458Y-40137D02*
X55638Y-39957D01*
X55638Y-39957D02*
X55873Y-39860D01*
X55873Y-39860D02*
X56128Y-39860D01*
X56128Y-39860D02*
X56363Y-39958D01*
X56363Y-39958D02*
X56543Y-40138D01*
X56543Y-40138D02*
X56640Y-40373D01*
X56640Y-40373D02*
X56640Y-40628D01*
X56640Y-40628D02*
X56542Y-40863D01*
X56542Y-40863D02*
X56404Y-40999D01*
X56404Y-40999D02*
X56543Y-41138D01*
X56543Y-41138D02*
X56606Y-41290D01*
X56606Y-41290D02*
X57500Y-40396D01*
X57500Y-40396D02*
X57500Y-38430D01*
X57500Y-38430D02*
X57240Y-38378D01*
X57240Y-38378D02*
X57019Y-38231D01*
X57019Y-38231D02*
X56872Y-38010D01*
X56872Y-38010D02*
X56820Y-37750D01*
X56820Y-37750D02*
X56820Y-36088D01*
X56820Y-36088D02*
X56760Y-36128D01*
X56760Y-36128D02*
X56500Y-36180D01*
X56500Y-36180D02*
X55500Y-36180D01*
X55500Y-36180D02*
X55240Y-36128D01*
X55240Y-36128D02*
X55019Y-35981D01*
X55019Y-35981D02*
X54872Y-35760D01*
X54872Y-35760D02*
X54820Y-35500D01*
X54820Y-35500D02*
X54872Y-35240D01*
X54872Y-35240D02*
X55019Y-35019D01*
X55019Y-35019D02*
X55240Y-34872D01*
X55240Y-34872D02*
X55500Y-34820D01*
X55500Y-34820D02*
X56500Y-34820D01*
X56500Y-34820D02*
X56760Y-34872D01*
X56760Y-34872D02*
X56820Y-34911D01*
X56820Y-34911D02*
X56820Y-33971D01*
X56820Y-33971D02*
X54769Y-31920D01*
X54769Y-31920D02*
X54622Y-31699D01*
X54622Y-31699D02*
X54570Y-31439D01*
X54570Y-31439D02*
X54570Y-27560D01*
X54570Y-27560D02*
X54622Y-27300D01*
X54622Y-27300D02*
X54769Y-27079D01*
X54769Y-27079D02*
X54990Y-26932D01*
X54990Y-26932D02*
X55250Y-26880D01*
X55250Y-26880D02*
X55510Y-26932D01*
X55510Y-26932D02*
X55731Y-27079D01*
X55731Y-27079D02*
X55878Y-27300D01*
X55878Y-27300D02*
X55930Y-27560D01*
X55930Y-27560D02*
X55930Y-31157D01*
X55930Y-31157D02*
X57560Y-32786D01*
X57560Y-32786D02*
X57560Y-32450D01*
X57560Y-32450D02*
X57211Y-32305D01*
X57211Y-32305D02*
X56944Y-32037D01*
X56944Y-32037D02*
X56800Y-31688D01*
X56800Y-31688D02*
X56800Y-31310D01*
X56800Y-31310D02*
X56945Y-30961D01*
X56945Y-30961D02*
X57213Y-30694D01*
X57213Y-30694D02*
X57562Y-30550D01*
X57562Y-30550D02*
X57940Y-30550D01*
X57940Y-30550D02*
X58289Y-30695D01*
X58289Y-30695D02*
X58556Y-30963D01*
X58556Y-30963D02*
X58700Y-31312D01*
X58700Y-31312D02*
X58700Y-31690D01*
X58700Y-31690D02*
X58555Y-32039D01*
X58555Y-32039D02*
X58287Y-32306D01*
X58287Y-32306D02*
X57938Y-32450D01*
X57938Y-32450D02*
X57560Y-32450D01*
X57560Y-32450D02*
X57560Y-32786D01*
X57560Y-32786D02*
X57981Y-33208D01*
X57981Y-33208D02*
X58128Y-33429D01*
X58128Y-33429D02*
X58180Y-33689D01*
X58180Y-33689D02*
X58180Y-37750D01*
X58180Y-37750D02*
X58128Y-38010D01*
X58128Y-38010D02*
X57981Y-38231D01*
X57981Y-38231D02*
X57760Y-38378D01*
X57760Y-38378D02*
X57500Y-38430D01*
X57500Y-38430D02*
X57500Y-40396D01*
X57500Y-40396D02*
X58820Y-39077D01*
X58820Y-39077D02*
X58820Y-30612D01*
X58820Y-30612D02*
X56249Y-28041D01*
X56249Y-28041D02*
X56102Y-27820D01*
X56102Y-27820D02*
X56050Y-27560D01*
X56050Y-27560D02*
X56102Y-27300D01*
X56102Y-27300D02*
X56249Y-27079D01*
X56249Y-27079D02*
X56470Y-26932D01*
X56470Y-26932D02*
X56730Y-26880D01*
X56730Y-26880D02*
X56990Y-26932D01*
X56990Y-26932D02*
X57211Y-27079D01*
X57211Y-27079D02*
X59981Y-29849D01*
X59981Y-29849D02*
X60128Y-30070D01*
X60128Y-30070D02*
X60180Y-30330D01*
X60180Y-30330D02*
X60180Y-39359D01*
X60180Y-39359D02*
X60128Y-39619D01*
X60128Y-39619D02*
X59981Y-39840D01*
X59981Y-39840D02*
X56840Y-42981D01*
X56840Y-42981D02*
X56619Y-43128D01*
X56619Y-43128D02*
X56544Y-43142D01*
X56544Y-43142D02*
X56640Y-43373D01*
X56640Y-43373D02*
X56640Y-43628D01*
X56640Y-43628D02*
X56542Y-43863D01*
X56542Y-43863D02*
X56404Y-43999D01*
X56404Y-43999D02*
X56543Y-44138D01*
X56543Y-44138D02*
X56640Y-44373D01*
X56640Y-44373D02*
X56640Y-44628D01*
X56640Y-44628D02*
X56542Y-44863D01*
X56542Y-44863D02*
X56362Y-45043D01*
X56362Y-45043D02*
X56127Y-45140D01*
X56127Y-45140D02*
X55872Y-45140D01*
X55872Y-45140D02*
X55872Y-45876D01*
X55872Y-45876D02*
X56100Y-45868D01*
X56100Y-45868D02*
X56334Y-45955D01*
X56334Y-45955D02*
X56371Y-46058D01*
X56371Y-46058D02*
X56000Y-46429D01*
X56000Y-46429D02*
X56000Y-46571D01*
X56000Y-46571D02*
X56371Y-46942D01*
X56371Y-46942D02*
X56334Y-47045D01*
X56334Y-47045D02*
X56149Y-47123D01*
X56149Y-47123D02*
X55900Y-47132D01*
X55900Y-47132D02*
X55900Y-54820D01*
X55900Y-54820D02*
X56442Y-54820D01*
X56442Y-54820D02*
X56442Y-46871D01*
X56442Y-46871D02*
X56071Y-46500D01*
X56071Y-46500D02*
X56442Y-46129D01*
X56442Y-46129D02*
X56545Y-46166D01*
X56545Y-46166D02*
X56623Y-46351D01*
X56623Y-46351D02*
X56632Y-46600D01*
X56632Y-46600D02*
X56545Y-46834D01*
X56545Y-46834D02*
X56442Y-46871D01*
X56442Y-46871D02*
X56442Y-54820D01*
X56442Y-54820D02*
X56500Y-54820D01*
X56500Y-54820D02*
X56760Y-54872D01*
X56760Y-54872D02*
X56981Y-55019D01*
X56981Y-55019D02*
X57128Y-55240D01*
X57128Y-55240D02*
X57180Y-55500D01*
X57180Y-55500D02*
X57128Y-55760D01*
X57128Y-55760D02*
X56981Y-55981D01*
X56981Y-55981D02*
X56760Y-56128D01*
X56760Y-56128D02*
X56500Y-56180D01*
X56500Y-56180D02*
X55500Y-56180D01*
X55500Y-56180D02*
X55500Y-56255D01*
X55500Y-56255D02*
X58807Y-56255D01*
X58807Y-56255D02*
X58807Y-47050D01*
X58807Y-47050D02*
X58190Y-47049D01*
X58190Y-47049D02*
X57621Y-46813D01*
X57621Y-46813D02*
X57185Y-46377D01*
X57185Y-46377D02*
X56950Y-45807D01*
X56950Y-45807D02*
X56951Y-45190D01*
X56951Y-45190D02*
X57187Y-44621D01*
X57187Y-44621D02*
X57623Y-44185D01*
X57623Y-44185D02*
X58193Y-43950D01*
X58193Y-43950D02*
X58810Y-43951D01*
X58810Y-43951D02*
X59379Y-44187D01*
X59379Y-44187D02*
X59815Y-44623D01*
X59815Y-44623D02*
X60050Y-45193D01*
X60050Y-45193D02*
X60049Y-45810D01*
X60049Y-45810D02*
X59813Y-46379D01*
X59813Y-46379D02*
X59377Y-46815D01*
X59377Y-46815D02*
X58807Y-47050D01*
X58807Y-47050D02*
X58807Y-56255D01*
X58807Y-56255D02*
X60551Y-56255D01*
X60551Y-56255D02*
X60551Y-51378D01*
X60551Y-51378D02*
X60446Y-51340D01*
X60446Y-51340D02*
X60369Y-51151D01*
X60369Y-51151D02*
X60359Y-50897D01*
X60359Y-50897D02*
X60446Y-50660D01*
X60446Y-50660D02*
X60551Y-50622D01*
X60551Y-50622D02*
X60551Y-50378D01*
X60551Y-50378D02*
X60446Y-50340D01*
X60446Y-50340D02*
X60369Y-50151D01*
X60369Y-50151D02*
X60359Y-49897D01*
X60359Y-49897D02*
X60446Y-49660D01*
X60446Y-49660D02*
X60551Y-49622D01*
X60551Y-49622D02*
X60929Y-50000D01*
X60929Y-50000D02*
X60551Y-50378D01*
X60551Y-50378D02*
X60551Y-50622D01*
X60551Y-50622D02*
X60929Y-51000D01*
X60929Y-51000D02*
X60551Y-51378D01*
X60551Y-51378D02*
X60551Y-56255D01*
X60551Y-56255D02*
X60897Y-56255D01*
X60897Y-56255D02*
X60897Y-51641D01*
X60897Y-51641D02*
X60660Y-51554D01*
X60660Y-51554D02*
X60622Y-51449D01*
X60622Y-51449D02*
X61000Y-51071D01*
X61000Y-51071D02*
X61000Y-50929D01*
X61000Y-50929D02*
X60622Y-50551D01*
X60622Y-50551D02*
X60640Y-50499D01*
X60640Y-50499D02*
X60622Y-50449D01*
X60622Y-50449D02*
X61000Y-50071D01*
X61000Y-50071D02*
X61000Y-49929D01*
X61000Y-49929D02*
X60622Y-49551D01*
X60622Y-49551D02*
X60660Y-49446D01*
X60660Y-49446D02*
X60849Y-49369D01*
X60849Y-49369D02*
X61103Y-49359D01*
X61103Y-49359D02*
X61340Y-49446D01*
X61340Y-49446D02*
X61378Y-49551D01*
X61378Y-49551D02*
X61000Y-49929D01*
X61000Y-49929D02*
X61000Y-50071D01*
X61000Y-50071D02*
X61378Y-50449D01*
X61378Y-50449D02*
X61359Y-50499D01*
X61359Y-50499D02*
X61378Y-50551D01*
X61378Y-50551D02*
X61000Y-50929D01*
X61000Y-50929D02*
X61000Y-51071D01*
X61000Y-51071D02*
X61378Y-51449D01*
X61378Y-51449D02*
X61340Y-51554D01*
X61340Y-51554D02*
X61151Y-51631D01*
X61151Y-51631D02*
X60897Y-51641D01*
X60897Y-51641D02*
X60897Y-56255D01*
X60897Y-56255D02*
X61449Y-56255D01*
X61449Y-56255D02*
X61449Y-51378D01*
X61449Y-51378D02*
X61071Y-51000D01*
X61071Y-51000D02*
X61449Y-50622D01*
X61449Y-50622D02*
X61449Y-50378D01*
X61449Y-50378D02*
X61071Y-50000D01*
X61071Y-50000D02*
X61449Y-49622D01*
X61449Y-49622D02*
X61554Y-49660D01*
X61554Y-49660D02*
X61631Y-49849D01*
X61631Y-49849D02*
X61641Y-50103D01*
X61641Y-50103D02*
X61554Y-50340D01*
X61554Y-50340D02*
X61449Y-50378D01*
X61449Y-50378D02*
X61449Y-50622D01*
X61449Y-50622D02*
X61554Y-50660D01*
X61554Y-50660D02*
X61631Y-50849D01*
X61631Y-50849D02*
X61641Y-51103D01*
X61641Y-51103D02*
X61554Y-51340D01*
X61554Y-51340D02*
X61449Y-51378D01*
X61449Y-51378D02*
X61449Y-56255D01*
X61449Y-56255D02*
X62877Y-56255D01*
X62877Y-56255D02*
X62877Y-29115D01*
X62877Y-29115D02*
X62651Y-29021D01*
X62651Y-29021D02*
X62479Y-28848D01*
X62479Y-28848D02*
X62385Y-28622D01*
X62385Y-28622D02*
X62385Y-28377D01*
X62385Y-28377D02*
X62479Y-28151D01*
X62479Y-28151D02*
X62652Y-27979D01*
X62652Y-27979D02*
X62731Y-27945D01*
X62731Y-27945D02*
X62708Y-27936D01*
X62708Y-27936D02*
X62563Y-27791D01*
X62563Y-27791D02*
X62485Y-27602D01*
X62485Y-27602D02*
X62485Y-27397D01*
X62485Y-27397D02*
X62564Y-27208D01*
X62564Y-27208D02*
X62709Y-27063D01*
X62709Y-27063D02*
X62898Y-26985D01*
X62898Y-26985D02*
X63103Y-26985D01*
X63103Y-26985D02*
X63292Y-27064D01*
X63292Y-27064D02*
X63437Y-27209D01*
X63437Y-27209D02*
X63499Y-27361D01*
X63499Y-27361D02*
X63564Y-27208D01*
X63564Y-27208D02*
X63709Y-27063D01*
X63709Y-27063D02*
X63898Y-26985D01*
X63898Y-26985D02*
X64103Y-26985D01*
X64103Y-26985D02*
X64292Y-27064D01*
X64292Y-27064D02*
X64437Y-27209D01*
X64437Y-27209D02*
X64515Y-27398D01*
X64515Y-27398D02*
X64515Y-27603D01*
X64515Y-27603D02*
X64436Y-27792D01*
X64436Y-27792D02*
X64342Y-27886D01*
X64342Y-27886D02*
X64415Y-27886D01*
X64415Y-27886D02*
X64506Y-27924D01*
X64506Y-27924D02*
X64576Y-27994D01*
X64576Y-27994D02*
X64614Y-28086D01*
X64614Y-28086D02*
X64614Y-28915D01*
X64614Y-28915D02*
X64576Y-29006D01*
X64576Y-29006D02*
X64506Y-29076D01*
X64506Y-29076D02*
X64414Y-29114D01*
X64414Y-29114D02*
X63585Y-29114D01*
X63585Y-29114D02*
X63494Y-29076D01*
X63494Y-29076D02*
X63424Y-29006D01*
X63424Y-29006D02*
X63406Y-28963D01*
X63406Y-28963D02*
X63348Y-29021D01*
X63348Y-29021D02*
X63122Y-29115D01*
X63122Y-29115D02*
X62877Y-29115D01*
X62877Y-29115D02*
X62877Y-56255D01*
X62877Y-56255D02*
X65755Y-56255D01*
M02*
