M48
;DRILL file {PCBnew (20100406 SVN-R2509)-final} date Tue 04 May 2010 02:57:52 PM PDT
;FORMAT={2:4/ absolute / inch / suppress trailing zeros}
R,T
VER,1
FMAT,2
INCH,LZ
TCST,OFF
ICI,OFF
ATC,ON
T1C0.040
%
M47
G05
M72
T1
X0556Y-0375
X0556Y-0385
X0556Y-0395
X0556Y-0405
X0556Y-0415
X0556Y-0425
X0556Y-0435
X0556Y-0445
X057Y-0385
X057Y-0435
X058Y-0385
X058Y-0435
X059Y-0385
X059Y-0435
X06Y-0385
X06Y-0435
X06225Y-0375
X06225Y-0385
X06225Y-0395
X06225Y-0405
X06225Y-0415
X06225Y-0425
X06225Y-0435
X06225Y-0445
T0
M30
