G04 (created by PCBNEW-RS274X (20100406 SVN-R2509)-final) date Tue 04 May 2010 02:57:58 PM PDT*
G01*
G70*
G90*
%MOIN*%
G04 Gerber Fmt 3.4, Leading zero omitted, Abs format*
%FSLAX34Y34*%
G04 APERTURE LIST*
%ADD10C,0.001000*%
%ADD11C,0.009000*%
%ADD12R,0.060000X0.060000*%
%ADD13C,0.060000*%
%ADD14R,0.050000X0.050000*%
%ADD15C,0.050000*%
%ADD16C,0.040000*%
%ADD17C,0.010000*%
G04 APERTURE END LIST*
G54D10*
G54D11*
X64750Y-36750D02*
X52250Y-36750D01*
X64750Y-45250D02*
X64750Y-36750D01*
X52250Y-45250D02*
X64750Y-45250D01*
X52250Y-36750D02*
X52250Y-45250D01*
G54D12*
X62250Y-44500D03*
G54D13*
X62250Y-43500D03*
X62250Y-42500D03*
X62250Y-41500D03*
X62250Y-40500D03*
X62250Y-39500D03*
X62250Y-38500D03*
X62250Y-37500D03*
G54D12*
X55600Y-44500D03*
G54D13*
X55600Y-43500D03*
X55600Y-42500D03*
X55600Y-41500D03*
X55600Y-40500D03*
X55600Y-39500D03*
X55600Y-38500D03*
X55600Y-37500D03*
G54D14*
X57000Y-43500D03*
G54D15*
X58000Y-43500D03*
X59000Y-43500D03*
X60000Y-43500D03*
G54D14*
X57000Y-38500D03*
G54D15*
X58000Y-38500D03*
X59000Y-38500D03*
X60000Y-38500D03*
G54D16*
X55600Y-44500D02*
X62250Y-44500D01*
X55600Y-43500D02*
X55750Y-43500D01*
X61250Y-43500D02*
X62250Y-43500D01*
X60500Y-42750D02*
X61250Y-43500D01*
X56500Y-42750D02*
X60500Y-42750D01*
X55750Y-43500D02*
X56500Y-42750D01*
X55600Y-42500D02*
X55750Y-42500D01*
X61250Y-42500D02*
X62250Y-42500D01*
X60750Y-42000D02*
X61250Y-42500D01*
X56250Y-42000D02*
X60750Y-42000D01*
X55750Y-42500D02*
X56250Y-42000D01*
X55600Y-39500D02*
X55750Y-39500D01*
X61250Y-39500D02*
X62250Y-39500D01*
X60750Y-40000D02*
X61250Y-39500D01*
X56250Y-40000D02*
X60750Y-40000D01*
X55750Y-39500D02*
X56250Y-40000D01*
X55600Y-38500D02*
X55750Y-38500D01*
X61250Y-38500D02*
X62250Y-38500D01*
X60500Y-39250D02*
X61250Y-38500D01*
X56500Y-39250D02*
X60500Y-39250D01*
X55750Y-38500D02*
X56500Y-39250D01*
X55600Y-37500D02*
X62250Y-37500D01*
G54D17*
X52395Y-36895D02*
X64605Y-36895D01*
X52395Y-36975D02*
X64605Y-36975D01*
X52395Y-37055D02*
X55502Y-37055D01*
X55700Y-37055D02*
X62152Y-37055D01*
X62350Y-37055D02*
X64605Y-37055D01*
X52395Y-37135D02*
X55330Y-37135D01*
X55870Y-37135D02*
X61980Y-37135D01*
X62520Y-37135D02*
X64605Y-37135D01*
X52395Y-37215D02*
X55250Y-37215D01*
X62600Y-37215D02*
X64605Y-37215D01*
X52395Y-37295D02*
X55200Y-37295D01*
X62652Y-37295D02*
X64605Y-37295D01*
X52395Y-37375D02*
X55166Y-37375D01*
X62685Y-37375D02*
X64605Y-37375D01*
X52395Y-37455D02*
X55151Y-37455D01*
X62699Y-37455D02*
X64605Y-37455D01*
X52395Y-37535D02*
X55151Y-37535D01*
X62699Y-37535D02*
X64605Y-37535D01*
X52395Y-37615D02*
X55161Y-37615D01*
X62688Y-37615D02*
X64605Y-37615D01*
X52395Y-37695D02*
X55194Y-37695D01*
X62655Y-37695D02*
X64605Y-37695D01*
X52395Y-37775D02*
X55240Y-37775D01*
X62610Y-37775D02*
X64605Y-37775D01*
X52395Y-37855D02*
X55320Y-37855D01*
X55879Y-37855D02*
X61970Y-37855D01*
X62530Y-37855D02*
X64605Y-37855D01*
X52395Y-37935D02*
X55476Y-37935D01*
X55722Y-37935D02*
X62126Y-37935D01*
X62372Y-37935D02*
X64605Y-37935D01*
X52395Y-38015D02*
X56668Y-38015D01*
X56903Y-38015D02*
X57097Y-38015D01*
X57333Y-38015D02*
X57906Y-38015D01*
X58097Y-38015D02*
X58906Y-38015D01*
X59097Y-38015D02*
X59906Y-38015D01*
X60097Y-38015D02*
X64605Y-38015D01*
X52395Y-38095D02*
X55405Y-38095D01*
X55796Y-38095D02*
X56553Y-38095D01*
X56950Y-38095D02*
X57050Y-38095D01*
X57447Y-38095D02*
X57743Y-38095D01*
X58258Y-38095D02*
X58743Y-38095D01*
X59258Y-38095D02*
X59743Y-38095D01*
X60258Y-38095D02*
X62054Y-38095D01*
X62446Y-38095D02*
X64605Y-38095D01*
X52395Y-38175D02*
X55290Y-38175D01*
X55910Y-38175D02*
X56512Y-38175D01*
X56950Y-38175D02*
X57050Y-38175D01*
X57489Y-38175D02*
X57746Y-38175D01*
X58254Y-38175D02*
X58746Y-38175D01*
X59254Y-38175D02*
X59746Y-38175D01*
X60254Y-38175D02*
X61126Y-38175D01*
X62560Y-38175D02*
X64605Y-38175D01*
X52395Y-38255D02*
X55216Y-38255D01*
X55999Y-38255D02*
X56501Y-38255D01*
X56950Y-38255D02*
X57050Y-38255D01*
X57499Y-38255D02*
X57567Y-38255D01*
X57684Y-38255D02*
X57826Y-38255D01*
X58174Y-38255D02*
X58316Y-38255D01*
X58434Y-38255D02*
X58567Y-38255D01*
X58684Y-38255D02*
X58826Y-38255D01*
X59174Y-38255D02*
X59316Y-38255D01*
X59434Y-38255D02*
X59567Y-38255D01*
X59684Y-38255D02*
X59826Y-38255D01*
X60174Y-38255D02*
X60316Y-38255D01*
X60434Y-38255D02*
X61000Y-38255D01*
X62635Y-38255D02*
X64605Y-38255D01*
X52395Y-38335D02*
X55183Y-38335D01*
X56079Y-38335D02*
X56501Y-38335D01*
X56950Y-38335D02*
X57050Y-38335D01*
X57500Y-38335D02*
X57539Y-38335D01*
X57764Y-38335D02*
X57906Y-38335D01*
X58094Y-38335D02*
X58236Y-38335D01*
X58468Y-38335D02*
X58539Y-38335D01*
X58764Y-38335D02*
X58906Y-38335D01*
X59094Y-38335D02*
X59236Y-38335D01*
X59468Y-38335D02*
X59539Y-38335D01*
X59764Y-38335D02*
X59906Y-38335D01*
X60094Y-38335D02*
X60236Y-38335D01*
X60468Y-38335D02*
X60920Y-38335D01*
X62668Y-38335D02*
X64605Y-38335D01*
X52395Y-38415D02*
X55151Y-38415D01*
X56159Y-38415D02*
X56527Y-38415D01*
X56950Y-38415D02*
X57050Y-38415D01*
X57473Y-38415D02*
X57511Y-38415D01*
X57844Y-38415D02*
X57986Y-38415D01*
X58014Y-38415D02*
X58156Y-38415D01*
X58486Y-38415D02*
X58511Y-38415D01*
X58844Y-38415D02*
X58986Y-38415D01*
X59014Y-38415D02*
X59156Y-38415D01*
X59486Y-38415D02*
X59511Y-38415D01*
X59844Y-38415D02*
X59986Y-38415D01*
X60014Y-38415D02*
X60156Y-38415D01*
X60486Y-38415D02*
X60840Y-38415D01*
X62699Y-38415D02*
X64605Y-38415D01*
X52395Y-38495D02*
X55151Y-38495D01*
X56239Y-38495D02*
X57508Y-38495D01*
X57924Y-38495D02*
X58076Y-38495D01*
X58491Y-38495D02*
X58508Y-38495D01*
X58924Y-38495D02*
X59076Y-38495D01*
X59491Y-38495D02*
X59508Y-38495D01*
X59924Y-38495D02*
X60076Y-38495D01*
X60491Y-38495D02*
X60760Y-38495D01*
X62699Y-38495D02*
X64605Y-38495D01*
X52395Y-38575D02*
X55151Y-38575D01*
X56319Y-38575D02*
X56537Y-38575D01*
X57463Y-38575D02*
X57513Y-38575D01*
X57854Y-38575D02*
X57996Y-38575D01*
X58004Y-38575D02*
X58146Y-38575D01*
X58492Y-38575D02*
X58513Y-38575D01*
X58854Y-38575D02*
X58996Y-38575D01*
X59004Y-38575D02*
X59146Y-38575D01*
X59492Y-38575D02*
X59513Y-38575D01*
X59854Y-38575D02*
X59996Y-38575D01*
X60004Y-38575D02*
X60146Y-38575D01*
X60492Y-38575D02*
X60680Y-38575D01*
X62699Y-38575D02*
X64605Y-38575D01*
X52395Y-38655D02*
X55178Y-38655D01*
X56399Y-38655D02*
X56500Y-38655D01*
X57499Y-38655D02*
X57528Y-38655D01*
X57774Y-38655D02*
X57916Y-38655D01*
X58084Y-38655D02*
X58226Y-38655D01*
X58464Y-38655D02*
X58528Y-38655D01*
X58774Y-38655D02*
X58916Y-38655D01*
X59084Y-38655D02*
X59226Y-38655D01*
X59464Y-38655D02*
X59528Y-38655D01*
X59774Y-38655D02*
X59916Y-38655D01*
X60084Y-38655D02*
X60226Y-38655D01*
X60464Y-38655D02*
X60600Y-38655D01*
X62671Y-38655D02*
X64605Y-38655D01*
X52395Y-38735D02*
X55211Y-38735D01*
X56479Y-38735D02*
X56501Y-38735D01*
X57499Y-38735D02*
X57561Y-38735D01*
X57694Y-38735D02*
X57836Y-38735D01*
X58164Y-38735D02*
X58306Y-38735D01*
X58436Y-38735D02*
X58561Y-38735D01*
X58694Y-38735D02*
X58836Y-38735D01*
X59164Y-38735D02*
X59306Y-38735D01*
X59436Y-38735D02*
X59561Y-38735D01*
X59694Y-38735D02*
X59836Y-38735D01*
X60164Y-38735D02*
X60306Y-38735D01*
X60436Y-38735D02*
X60520Y-38735D01*
X62638Y-38735D02*
X64605Y-38735D01*
X52395Y-38815D02*
X55280Y-38815D01*
X57492Y-38815D02*
X57756Y-38815D01*
X58244Y-38815D02*
X58756Y-38815D01*
X59244Y-38815D02*
X59756Y-38815D01*
X60244Y-38815D02*
X60440Y-38815D01*
X62570Y-38815D02*
X64605Y-38815D01*
X52395Y-38895D02*
X55380Y-38895D01*
X57457Y-38895D02*
X57738Y-38895D01*
X58260Y-38895D02*
X58738Y-38895D01*
X59260Y-38895D02*
X59738Y-38895D01*
X60260Y-38895D02*
X60360Y-38895D01*
X61349Y-38895D02*
X62030Y-38895D01*
X62470Y-38895D02*
X64605Y-38895D01*
X52395Y-38975D02*
X55730Y-38975D01*
X61269Y-38975D02*
X64605Y-38975D01*
X52395Y-39055D02*
X55502Y-39055D01*
X55700Y-39055D02*
X55810Y-39055D01*
X61189Y-39055D02*
X62152Y-39055D01*
X62350Y-39055D02*
X64605Y-39055D01*
X52395Y-39135D02*
X55330Y-39135D01*
X55870Y-39135D02*
X55890Y-39135D01*
X61109Y-39135D02*
X61980Y-39135D01*
X62520Y-39135D02*
X64605Y-39135D01*
X52395Y-39215D02*
X55250Y-39215D01*
X55950Y-39215D02*
X55970Y-39215D01*
X61029Y-39215D02*
X61059Y-39215D01*
X62600Y-39215D02*
X64605Y-39215D01*
X52395Y-39295D02*
X55200Y-39295D01*
X56039Y-39295D02*
X56050Y-39295D01*
X60949Y-39295D02*
X60960Y-39295D01*
X62652Y-39295D02*
X64605Y-39295D01*
X52395Y-39375D02*
X55166Y-39375D01*
X56119Y-39375D02*
X56130Y-39375D01*
X60869Y-39375D02*
X60880Y-39375D01*
X62685Y-39375D02*
X64605Y-39375D01*
X52395Y-39455D02*
X55151Y-39455D01*
X56199Y-39455D02*
X56210Y-39455D01*
X60789Y-39455D02*
X60800Y-39455D01*
X62699Y-39455D02*
X64605Y-39455D01*
X52395Y-39535D02*
X55151Y-39535D01*
X56279Y-39535D02*
X56309Y-39535D01*
X60690Y-39535D02*
X60720Y-39535D01*
X62699Y-39535D02*
X64605Y-39535D01*
X52395Y-39615D02*
X55161Y-39615D01*
X56359Y-39615D02*
X60640Y-39615D01*
X62688Y-39615D02*
X64605Y-39615D01*
X52395Y-39695D02*
X55194Y-39695D01*
X62655Y-39695D02*
X64605Y-39695D01*
X52395Y-39775D02*
X55240Y-39775D01*
X62610Y-39775D02*
X64605Y-39775D01*
X52395Y-39855D02*
X55320Y-39855D01*
X61389Y-39855D02*
X61970Y-39855D01*
X62530Y-39855D02*
X64605Y-39855D01*
X52395Y-39935D02*
X55476Y-39935D01*
X61309Y-39935D02*
X62126Y-39935D01*
X62372Y-39935D02*
X64605Y-39935D01*
X52395Y-40015D02*
X55770Y-40015D01*
X61229Y-40015D02*
X64605Y-40015D01*
X52395Y-40095D02*
X55405Y-40095D01*
X55796Y-40095D02*
X55850Y-40095D01*
X61149Y-40095D02*
X62055Y-40095D01*
X62446Y-40095D02*
X64605Y-40095D01*
X52395Y-40175D02*
X55290Y-40175D01*
X55910Y-40175D02*
X55930Y-40175D01*
X61069Y-40175D02*
X61940Y-40175D01*
X62560Y-40175D02*
X64605Y-40175D01*
X52395Y-40255D02*
X55216Y-40255D01*
X55985Y-40255D02*
X56014Y-40255D01*
X60985Y-40255D02*
X61866Y-40255D01*
X62635Y-40255D02*
X64605Y-40255D01*
X52395Y-40335D02*
X55183Y-40335D01*
X56018Y-40335D02*
X56175Y-40335D01*
X60824Y-40335D02*
X61833Y-40335D01*
X62668Y-40335D02*
X64605Y-40335D01*
X52395Y-40415D02*
X55151Y-40415D01*
X56049Y-40415D02*
X61801Y-40415D01*
X62699Y-40415D02*
X64605Y-40415D01*
X52395Y-40495D02*
X55151Y-40495D01*
X56049Y-40495D02*
X61801Y-40495D01*
X62699Y-40495D02*
X64605Y-40495D01*
X52395Y-40575D02*
X55151Y-40575D01*
X56049Y-40575D02*
X61801Y-40575D01*
X62699Y-40575D02*
X64605Y-40575D01*
X52395Y-40655D02*
X55178Y-40655D01*
X56021Y-40655D02*
X61828Y-40655D01*
X62671Y-40655D02*
X64605Y-40655D01*
X52395Y-40735D02*
X55211Y-40735D01*
X55988Y-40735D02*
X61861Y-40735D01*
X62638Y-40735D02*
X64605Y-40735D01*
X52395Y-40815D02*
X55280Y-40815D01*
X55920Y-40815D02*
X61930Y-40815D01*
X62570Y-40815D02*
X64605Y-40815D01*
X52395Y-40895D02*
X55380Y-40895D01*
X55820Y-40895D02*
X62030Y-40895D01*
X62470Y-40895D02*
X64605Y-40895D01*
X52395Y-40975D02*
X64605Y-40975D01*
X52395Y-41055D02*
X55501Y-41055D01*
X55700Y-41055D02*
X62151Y-41055D01*
X62350Y-41055D02*
X64605Y-41055D01*
X52395Y-41135D02*
X55330Y-41135D01*
X55870Y-41135D02*
X61980Y-41135D01*
X62520Y-41135D02*
X64605Y-41135D01*
X52395Y-41215D02*
X55250Y-41215D01*
X55950Y-41215D02*
X61900Y-41215D01*
X62600Y-41215D02*
X64605Y-41215D01*
X52395Y-41295D02*
X55200Y-41295D01*
X56002Y-41295D02*
X61850Y-41295D01*
X62652Y-41295D02*
X64605Y-41295D01*
X52395Y-41375D02*
X55166Y-41375D01*
X56035Y-41375D02*
X61816Y-41375D01*
X62685Y-41375D02*
X64605Y-41375D01*
X52395Y-41455D02*
X55151Y-41455D01*
X56049Y-41455D02*
X61801Y-41455D01*
X62699Y-41455D02*
X64605Y-41455D01*
X52395Y-41535D02*
X55151Y-41535D01*
X56049Y-41535D02*
X61801Y-41535D01*
X62699Y-41535D02*
X64605Y-41535D01*
X52395Y-41615D02*
X55161Y-41615D01*
X56038Y-41615D02*
X61811Y-41615D01*
X62688Y-41615D02*
X64605Y-41615D01*
X52395Y-41695D02*
X55194Y-41695D01*
X56005Y-41695D02*
X56089Y-41695D01*
X60911Y-41695D02*
X61844Y-41695D01*
X62655Y-41695D02*
X64605Y-41695D01*
X52395Y-41775D02*
X55240Y-41775D01*
X55960Y-41775D02*
X55980Y-41775D01*
X61019Y-41775D02*
X61890Y-41775D01*
X62610Y-41775D02*
X64605Y-41775D01*
X52395Y-41855D02*
X55320Y-41855D01*
X55880Y-41855D02*
X55900Y-41855D01*
X61099Y-41855D02*
X61970Y-41855D01*
X62530Y-41855D02*
X64605Y-41855D01*
X52395Y-41935D02*
X55476Y-41935D01*
X55722Y-41935D02*
X55820Y-41935D01*
X61179Y-41935D02*
X62126Y-41935D01*
X62372Y-41935D02*
X64605Y-41935D01*
X52395Y-42015D02*
X55740Y-42015D01*
X61259Y-42015D02*
X64605Y-42015D01*
X52395Y-42095D02*
X55404Y-42095D01*
X61339Y-42095D02*
X62054Y-42095D01*
X62446Y-42095D02*
X64605Y-42095D01*
X52395Y-42175D02*
X55290Y-42175D01*
X62560Y-42175D02*
X64605Y-42175D01*
X52395Y-42255D02*
X55216Y-42255D01*
X62635Y-42255D02*
X64605Y-42255D01*
X52395Y-42335D02*
X55183Y-42335D01*
X62668Y-42335D02*
X64605Y-42335D01*
X52395Y-42415D02*
X55151Y-42415D01*
X56328Y-42415D02*
X56426Y-42415D01*
X60575Y-42415D02*
X60670Y-42415D01*
X62699Y-42415D02*
X64605Y-42415D01*
X52395Y-42495D02*
X55151Y-42495D01*
X56248Y-42495D02*
X56264Y-42495D01*
X60736Y-42495D02*
X60750Y-42495D01*
X62699Y-42495D02*
X64605Y-42495D01*
X52395Y-42575D02*
X55151Y-42575D01*
X56168Y-42575D02*
X56180Y-42575D01*
X60819Y-42575D02*
X60830Y-42575D01*
X62699Y-42575D02*
X64605Y-42575D01*
X52395Y-42655D02*
X55178Y-42655D01*
X56088Y-42655D02*
X56100Y-42655D01*
X60899Y-42655D02*
X60910Y-42655D01*
X62671Y-42655D02*
X64605Y-42655D01*
X52395Y-42735D02*
X55211Y-42735D01*
X56008Y-42735D02*
X56020Y-42735D01*
X60979Y-42735D02*
X60990Y-42735D01*
X62638Y-42735D02*
X64605Y-42735D01*
X52395Y-42815D02*
X55280Y-42815D01*
X55919Y-42815D02*
X55940Y-42815D01*
X61059Y-42815D02*
X61104Y-42815D01*
X62570Y-42815D02*
X64605Y-42815D01*
X52395Y-42895D02*
X55380Y-42895D01*
X55820Y-42895D02*
X55860Y-42895D01*
X61139Y-42895D02*
X62030Y-42895D01*
X62470Y-42895D02*
X64605Y-42895D01*
X52395Y-42975D02*
X55780Y-42975D01*
X61219Y-42975D02*
X64605Y-42975D01*
X52395Y-43055D02*
X55502Y-43055D01*
X61299Y-43055D02*
X62151Y-43055D01*
X62350Y-43055D02*
X64605Y-43055D01*
X52395Y-43135D02*
X55330Y-43135D01*
X57472Y-43135D02*
X57733Y-43135D01*
X58267Y-43135D02*
X58733Y-43135D01*
X59267Y-43135D02*
X59733Y-43135D01*
X60267Y-43135D02*
X60390Y-43135D01*
X61379Y-43135D02*
X61980Y-43135D01*
X62520Y-43135D02*
X64605Y-43135D01*
X52395Y-43215D02*
X55250Y-43215D01*
X57499Y-43215D02*
X57786Y-43215D01*
X58214Y-43215D02*
X58786Y-43215D01*
X59214Y-43215D02*
X59786Y-43215D01*
X60214Y-43215D02*
X60470Y-43215D01*
X62600Y-43215D02*
X64605Y-43215D01*
X52395Y-43295D02*
X55200Y-43295D01*
X56449Y-43295D02*
X56501Y-43295D01*
X57499Y-43295D02*
X57553Y-43295D01*
X57724Y-43295D02*
X57866Y-43295D01*
X58134Y-43295D02*
X58276Y-43295D01*
X58451Y-43295D02*
X58553Y-43295D01*
X58724Y-43295D02*
X58866Y-43295D01*
X59134Y-43295D02*
X59276Y-43295D01*
X59451Y-43295D02*
X59553Y-43295D01*
X59724Y-43295D02*
X59866Y-43295D01*
X60134Y-43295D02*
X60276Y-43295D01*
X60451Y-43295D02*
X60550Y-43295D01*
X62652Y-43295D02*
X64605Y-43295D01*
X52395Y-43375D02*
X55166Y-43375D01*
X56369Y-43375D02*
X56501Y-43375D01*
X57500Y-43375D02*
X57525Y-43375D01*
X57804Y-43375D02*
X57946Y-43375D01*
X58054Y-43375D02*
X58196Y-43375D01*
X58484Y-43375D02*
X58525Y-43375D01*
X58804Y-43375D02*
X58946Y-43375D01*
X59054Y-43375D02*
X59196Y-43375D01*
X59484Y-43375D02*
X59525Y-43375D01*
X59804Y-43375D02*
X59946Y-43375D01*
X60054Y-43375D02*
X60196Y-43375D01*
X60484Y-43375D02*
X60630Y-43375D01*
X62685Y-43375D02*
X64605Y-43375D01*
X52395Y-43455D02*
X55151Y-43455D01*
X56289Y-43455D02*
X57506Y-43455D01*
X57884Y-43455D02*
X58116Y-43455D01*
X58489Y-43455D02*
X58506Y-43455D01*
X58884Y-43455D02*
X59116Y-43455D01*
X59489Y-43455D02*
X59506Y-43455D01*
X59884Y-43455D02*
X60116Y-43455D01*
X60489Y-43455D02*
X60710Y-43455D01*
X62699Y-43455D02*
X64605Y-43455D01*
X52395Y-43535D02*
X55151Y-43535D01*
X56209Y-43535D02*
X57511Y-43535D01*
X57894Y-43535D02*
X58106Y-43535D01*
X58493Y-43535D02*
X58511Y-43535D01*
X58894Y-43535D02*
X59106Y-43535D01*
X59493Y-43535D02*
X59511Y-43535D01*
X59894Y-43535D02*
X60106Y-43535D01*
X60493Y-43535D02*
X60790Y-43535D01*
X62699Y-43535D02*
X64605Y-43535D01*
X52395Y-43615D02*
X55161Y-43615D01*
X56129Y-43615D02*
X56500Y-43615D01*
X56950Y-43615D02*
X57050Y-43615D01*
X57499Y-43615D02*
X57516Y-43615D01*
X57814Y-43615D02*
X57956Y-43615D01*
X58044Y-43615D02*
X58186Y-43615D01*
X58478Y-43615D02*
X58516Y-43615D01*
X58814Y-43615D02*
X58956Y-43615D01*
X59044Y-43615D02*
X59186Y-43615D01*
X59478Y-43615D02*
X59516Y-43615D01*
X59814Y-43615D02*
X59956Y-43615D01*
X60044Y-43615D02*
X60186Y-43615D01*
X60478Y-43615D02*
X60870Y-43615D01*
X62688Y-43615D02*
X64605Y-43615D01*
X52395Y-43695D02*
X55194Y-43695D01*
X56049Y-43695D02*
X56500Y-43695D01*
X56950Y-43695D02*
X57050Y-43695D01*
X57499Y-43695D02*
X57545Y-43695D01*
X57734Y-43695D02*
X57876Y-43695D01*
X58124Y-43695D02*
X58266Y-43695D01*
X58450Y-43695D02*
X58545Y-43695D01*
X58734Y-43695D02*
X58876Y-43695D01*
X59124Y-43695D02*
X59266Y-43695D01*
X59450Y-43695D02*
X59545Y-43695D01*
X59734Y-43695D02*
X59876Y-43695D01*
X60124Y-43695D02*
X60266Y-43695D01*
X60450Y-43695D02*
X60950Y-43695D01*
X62655Y-43695D02*
X64605Y-43695D01*
X52395Y-43775D02*
X55240Y-43775D01*
X55959Y-43775D02*
X56501Y-43775D01*
X56950Y-43775D02*
X57050Y-43775D01*
X57499Y-43775D02*
X57796Y-43775D01*
X58204Y-43775D02*
X58796Y-43775D01*
X59204Y-43775D02*
X59796Y-43775D01*
X60204Y-43775D02*
X61044Y-43775D01*
X62610Y-43775D02*
X64605Y-43775D01*
X52395Y-43855D02*
X55320Y-43855D01*
X55879Y-43855D02*
X56523Y-43855D01*
X56950Y-43855D02*
X57050Y-43855D01*
X57476Y-43855D02*
X57730Y-43855D01*
X58269Y-43855D02*
X58730Y-43855D01*
X59269Y-43855D02*
X59730Y-43855D01*
X60269Y-43855D02*
X61970Y-43855D01*
X62530Y-43855D02*
X64605Y-43855D01*
X52395Y-43935D02*
X55476Y-43935D01*
X55722Y-43935D02*
X56583Y-43935D01*
X56950Y-43935D02*
X57050Y-43935D01*
X57417Y-43935D02*
X57759Y-43935D01*
X58242Y-43935D02*
X58759Y-43935D01*
X59242Y-43935D02*
X59759Y-43935D01*
X60242Y-43935D02*
X62126Y-43935D01*
X62372Y-43935D02*
X64605Y-43935D01*
X52395Y-44015D02*
X64605Y-44015D01*
X52395Y-44095D02*
X55194Y-44095D01*
X56006Y-44095D02*
X61844Y-44095D01*
X62656Y-44095D02*
X64605Y-44095D01*
X52395Y-44175D02*
X55151Y-44175D01*
X62699Y-44175D02*
X64605Y-44175D01*
X52395Y-44255D02*
X55151Y-44255D01*
X62699Y-44255D02*
X64605Y-44255D01*
X52395Y-44335D02*
X55151Y-44335D01*
X62699Y-44335D02*
X64605Y-44335D01*
X52395Y-44415D02*
X55151Y-44415D01*
X62699Y-44415D02*
X64605Y-44415D01*
X52395Y-44495D02*
X55151Y-44495D01*
X62699Y-44495D02*
X64605Y-44495D01*
X52395Y-44575D02*
X55151Y-44575D01*
X62699Y-44575D02*
X64605Y-44575D01*
X52395Y-44655D02*
X55151Y-44655D01*
X62699Y-44655D02*
X64605Y-44655D01*
X52395Y-44735D02*
X55151Y-44735D01*
X62699Y-44735D02*
X64605Y-44735D01*
X52395Y-44815D02*
X55151Y-44815D01*
X62699Y-44815D02*
X64605Y-44815D01*
X52395Y-44895D02*
X55184Y-44895D01*
X56016Y-44895D02*
X61834Y-44895D01*
X62666Y-44895D02*
X64605Y-44895D01*
X52395Y-44975D02*
X64605Y-44975D01*
X52395Y-45055D02*
X64605Y-45055D01*
X64605Y-45105D02*
X64605Y-36895D01*
X52395Y-36895D01*
X52395Y-45105D01*
X61921Y-45105D01*
X61921Y-44949D01*
X61866Y-44927D01*
X61824Y-44885D01*
X61809Y-44850D01*
X56040Y-44850D01*
X56027Y-44884D01*
X55985Y-44926D01*
X55930Y-44949D01*
X55271Y-44949D01*
X55216Y-44927D01*
X55174Y-44885D01*
X55151Y-44830D01*
X55151Y-44171D01*
X55173Y-44116D01*
X55215Y-44074D01*
X55270Y-44051D01*
X55929Y-44051D01*
X55984Y-44073D01*
X56026Y-44115D01*
X56040Y-44150D01*
X56888Y-44150D01*
X56888Y-44000D01*
X56701Y-43999D01*
X56609Y-43961D01*
X56539Y-43891D01*
X56501Y-43800D01*
X56501Y-43701D01*
X56500Y-43612D01*
X56562Y-43550D01*
X56950Y-43550D01*
X56950Y-43938D01*
X56888Y-44000D01*
X56888Y-44150D01*
X57112Y-44150D01*
X57112Y-44000D01*
X57050Y-43938D01*
X57050Y-43550D01*
X57438Y-43550D01*
X57500Y-43612D01*
X57499Y-43701D01*
X57499Y-43800D01*
X57461Y-43891D01*
X57391Y-43961D01*
X57299Y-43999D01*
X57112Y-44000D01*
X57112Y-44150D01*
X57657Y-44150D01*
X57657Y-43772D01*
X57569Y-43752D01*
X57517Y-43627D01*
X57505Y-43432D01*
X57569Y-43248D01*
X57657Y-43228D01*
X57929Y-43500D01*
X57657Y-43772D01*
X57657Y-44150D01*
X57932Y-44150D01*
X57932Y-43995D01*
X57748Y-43931D01*
X57728Y-43843D01*
X58000Y-43571D01*
X58272Y-43843D01*
X58252Y-43931D01*
X58127Y-43983D01*
X57932Y-43995D01*
X57932Y-44150D01*
X58343Y-44150D01*
X58343Y-43772D01*
X58071Y-43500D01*
X58343Y-43228D01*
X58431Y-43248D01*
X58483Y-43373D01*
X58495Y-43568D01*
X58431Y-43752D01*
X58343Y-43772D01*
X58343Y-44150D01*
X58657Y-44150D01*
X58657Y-43772D01*
X58569Y-43752D01*
X58517Y-43627D01*
X58505Y-43432D01*
X58569Y-43248D01*
X58657Y-43228D01*
X58929Y-43500D01*
X58657Y-43772D01*
X58657Y-44150D01*
X58932Y-44150D01*
X58932Y-43995D01*
X58748Y-43931D01*
X58728Y-43843D01*
X59000Y-43571D01*
X59272Y-43843D01*
X59252Y-43931D01*
X59127Y-43983D01*
X58932Y-43995D01*
X58932Y-44150D01*
X59343Y-44150D01*
X59343Y-43772D01*
X59071Y-43500D01*
X59343Y-43228D01*
X59431Y-43248D01*
X59483Y-43373D01*
X59495Y-43568D01*
X59431Y-43752D01*
X59343Y-43772D01*
X59343Y-44150D01*
X59657Y-44150D01*
X59657Y-43772D01*
X59569Y-43752D01*
X59517Y-43627D01*
X59505Y-43432D01*
X59569Y-43248D01*
X59657Y-43228D01*
X59929Y-43500D01*
X59657Y-43772D01*
X59657Y-44150D01*
X59932Y-44150D01*
X59932Y-43995D01*
X59748Y-43931D01*
X59728Y-43843D01*
X60000Y-43571D01*
X60272Y-43843D01*
X60252Y-43931D01*
X60127Y-43983D01*
X59932Y-43995D01*
X59932Y-44150D01*
X60343Y-44150D01*
X60343Y-43772D01*
X60071Y-43500D01*
X60343Y-43228D01*
X60431Y-43248D01*
X60483Y-43373D01*
X60495Y-43568D01*
X60431Y-43752D01*
X60343Y-43772D01*
X60343Y-44150D01*
X61809Y-44150D01*
X61823Y-44116D01*
X61865Y-44074D01*
X61920Y-44051D01*
X62160Y-44051D01*
X62160Y-43949D01*
X61995Y-43880D01*
X61965Y-43849D01*
X61250Y-43850D01*
X61116Y-43823D01*
X61002Y-43747D01*
X60355Y-43100D01*
X60259Y-43100D01*
X60272Y-43157D01*
X60000Y-43429D01*
X59728Y-43157D01*
X59740Y-43100D01*
X59259Y-43100D01*
X59272Y-43157D01*
X59000Y-43429D01*
X58728Y-43157D01*
X58740Y-43100D01*
X58259Y-43100D01*
X58272Y-43157D01*
X58000Y-43429D01*
X57728Y-43157D01*
X57740Y-43100D01*
X57452Y-43099D01*
X57461Y-43109D01*
X57499Y-43200D01*
X57499Y-43299D01*
X57500Y-43388D01*
X57438Y-43450D01*
X57050Y-43450D01*
X56950Y-43450D01*
X56562Y-43450D01*
X56500Y-43388D01*
X56501Y-43299D01*
X56501Y-43243D01*
X55997Y-43747D01*
X55969Y-43765D01*
X55854Y-43881D01*
X55689Y-43949D01*
X55510Y-43949D01*
X55345Y-43880D01*
X55219Y-43754D01*
X55151Y-43589D01*
X55151Y-43410D01*
X55220Y-43245D01*
X55346Y-43119D01*
X55511Y-43051D01*
X55690Y-43051D01*
X55700Y-43055D01*
X56252Y-42503D01*
X56366Y-42427D01*
X56500Y-42400D01*
X60500Y-42400D01*
X60634Y-42427D01*
X60747Y-42503D01*
X61394Y-43150D01*
X61965Y-43150D01*
X61996Y-43119D01*
X62160Y-43051D01*
X62160Y-42949D01*
X61995Y-42880D01*
X61964Y-42849D01*
X61250Y-42850D01*
X61116Y-42823D01*
X61002Y-42747D01*
X60605Y-42350D01*
X56394Y-42349D01*
X55997Y-42747D01*
X55969Y-42765D01*
X55854Y-42881D01*
X55689Y-42949D01*
X55510Y-42949D01*
X55345Y-42880D01*
X55219Y-42754D01*
X55151Y-42589D01*
X55151Y-42410D01*
X55220Y-42245D01*
X55346Y-42119D01*
X55510Y-42051D01*
X55510Y-41949D01*
X55345Y-41880D01*
X55219Y-41754D01*
X55151Y-41589D01*
X55151Y-41410D01*
X55220Y-41245D01*
X55346Y-41119D01*
X55510Y-41051D01*
X55510Y-40949D01*
X55345Y-40880D01*
X55219Y-40754D01*
X55151Y-40589D01*
X55151Y-40410D01*
X55220Y-40245D01*
X55346Y-40119D01*
X55511Y-40051D01*
X55690Y-40051D01*
X55855Y-40120D01*
X55981Y-40246D01*
X56049Y-40411D01*
X56049Y-40590D01*
X55980Y-40755D01*
X55854Y-40881D01*
X55689Y-40949D01*
X55510Y-40949D01*
X55510Y-41051D01*
X55690Y-41051D01*
X55855Y-41120D01*
X55981Y-41246D01*
X56049Y-41411D01*
X56049Y-41590D01*
X55980Y-41755D01*
X55854Y-41881D01*
X55689Y-41949D01*
X55510Y-41949D01*
X55510Y-42051D01*
X55690Y-42051D01*
X55700Y-42055D01*
X56002Y-41753D01*
X56116Y-41677D01*
X56250Y-41650D01*
X56250Y-40350D01*
X56116Y-40323D01*
X56002Y-40247D01*
X55700Y-39944D01*
X55689Y-39949D01*
X55510Y-39949D01*
X55345Y-39880D01*
X55219Y-39754D01*
X55151Y-39589D01*
X55151Y-39410D01*
X55220Y-39245D01*
X55346Y-39119D01*
X55511Y-39051D01*
X55690Y-39051D01*
X55855Y-39120D01*
X55969Y-39234D01*
X55997Y-39253D01*
X56394Y-39650D01*
X56500Y-39650D01*
X56500Y-39600D01*
X56366Y-39573D01*
X56252Y-39497D01*
X55700Y-38944D01*
X55689Y-38949D01*
X55510Y-38949D01*
X55345Y-38880D01*
X55219Y-38754D01*
X55151Y-38589D01*
X55151Y-38410D01*
X55220Y-38245D01*
X55346Y-38119D01*
X55511Y-38051D01*
X55690Y-38051D01*
X55855Y-38120D01*
X55969Y-38234D01*
X55997Y-38253D01*
X56501Y-38757D01*
X56501Y-38701D01*
X56500Y-38612D01*
X56562Y-38550D01*
X56562Y-38450D01*
X56500Y-38388D01*
X56501Y-38299D01*
X56501Y-38200D01*
X56539Y-38109D01*
X56609Y-38039D01*
X56701Y-38001D01*
X56888Y-38000D01*
X56950Y-38062D01*
X56950Y-38450D01*
X56562Y-38450D01*
X56562Y-38550D01*
X56950Y-38550D01*
X57050Y-38550D01*
X57050Y-38450D01*
X57050Y-38062D01*
X57112Y-38000D01*
X57299Y-38001D01*
X57391Y-38039D01*
X57461Y-38109D01*
X57499Y-38200D01*
X57499Y-38299D01*
X57500Y-38388D01*
X57438Y-38450D01*
X57050Y-38450D01*
X57050Y-38550D01*
X57438Y-38550D01*
X57500Y-38612D01*
X57499Y-38701D01*
X57499Y-38800D01*
X57461Y-38891D01*
X57452Y-38900D01*
X57657Y-38900D01*
X57657Y-38772D01*
X57569Y-38752D01*
X57517Y-38627D01*
X57505Y-38432D01*
X57569Y-38248D01*
X57657Y-38228D01*
X57929Y-38500D01*
X57657Y-38772D01*
X57657Y-38900D01*
X57740Y-38900D01*
X57728Y-38843D01*
X58000Y-38571D01*
X58000Y-38429D01*
X57728Y-38157D01*
X57748Y-38069D01*
X57873Y-38017D01*
X58068Y-38005D01*
X58252Y-38069D01*
X58272Y-38157D01*
X58000Y-38429D01*
X58000Y-38571D01*
X58272Y-38843D01*
X58259Y-38900D01*
X58343Y-38900D01*
X58343Y-38772D01*
X58071Y-38500D01*
X58343Y-38228D01*
X58431Y-38248D01*
X58483Y-38373D01*
X58495Y-38568D01*
X58431Y-38752D01*
X58343Y-38772D01*
X58343Y-38900D01*
X58657Y-38900D01*
X58657Y-38772D01*
X58569Y-38752D01*
X58517Y-38627D01*
X58505Y-38432D01*
X58569Y-38248D01*
X58657Y-38228D01*
X58929Y-38500D01*
X58657Y-38772D01*
X58657Y-38900D01*
X58740Y-38900D01*
X58728Y-38843D01*
X59000Y-38571D01*
X59000Y-38429D01*
X58728Y-38157D01*
X58748Y-38069D01*
X58873Y-38017D01*
X59068Y-38005D01*
X59252Y-38069D01*
X59272Y-38157D01*
X59000Y-38429D01*
X59000Y-38571D01*
X59272Y-38843D01*
X59259Y-38900D01*
X59343Y-38900D01*
X59343Y-38772D01*
X59071Y-38500D01*
X59343Y-38228D01*
X59431Y-38248D01*
X59483Y-38373D01*
X59495Y-38568D01*
X59431Y-38752D01*
X59343Y-38772D01*
X59343Y-38900D01*
X59657Y-38900D01*
X59657Y-38772D01*
X59569Y-38752D01*
X59517Y-38627D01*
X59505Y-38432D01*
X59569Y-38248D01*
X59657Y-38228D01*
X59929Y-38500D01*
X59657Y-38772D01*
X59657Y-38900D01*
X59740Y-38900D01*
X59728Y-38843D01*
X60000Y-38571D01*
X60000Y-38429D01*
X59728Y-38157D01*
X59748Y-38069D01*
X59873Y-38017D01*
X60068Y-38005D01*
X60252Y-38069D01*
X60272Y-38157D01*
X60000Y-38429D01*
X60000Y-38571D01*
X60272Y-38843D01*
X60259Y-38900D01*
X60343Y-38900D01*
X60343Y-38772D01*
X60071Y-38500D01*
X60343Y-38228D01*
X60431Y-38248D01*
X60483Y-38373D01*
X60495Y-38568D01*
X60431Y-38752D01*
X60343Y-38772D01*
X60343Y-38900D01*
X60355Y-38900D01*
X61002Y-38253D01*
X61116Y-38177D01*
X61250Y-38150D01*
X61965Y-38150D01*
X61996Y-38119D01*
X62160Y-38051D01*
X62160Y-37949D01*
X61995Y-37880D01*
X61965Y-37850D01*
X55884Y-37850D01*
X55854Y-37881D01*
X55689Y-37949D01*
X55510Y-37949D01*
X55345Y-37880D01*
X55219Y-37754D01*
X55151Y-37589D01*
X55151Y-37410D01*
X55220Y-37245D01*
X55346Y-37119D01*
X55511Y-37051D01*
X55690Y-37051D01*
X55855Y-37120D01*
X55885Y-37150D01*
X61964Y-37150D01*
X61996Y-37119D01*
X62161Y-37051D01*
X62340Y-37051D01*
X62505Y-37120D01*
X62631Y-37246D01*
X62699Y-37411D01*
X62699Y-37590D01*
X62630Y-37755D01*
X62504Y-37881D01*
X62339Y-37949D01*
X62160Y-37949D01*
X62160Y-38051D01*
X62340Y-38051D01*
X62505Y-38120D01*
X62631Y-38246D01*
X62699Y-38411D01*
X62699Y-38590D01*
X62630Y-38755D01*
X62504Y-38881D01*
X62339Y-38949D01*
X62160Y-38949D01*
X61995Y-38880D01*
X61965Y-38849D01*
X61394Y-38850D01*
X60747Y-39497D01*
X60634Y-39573D01*
X60500Y-39600D01*
X56500Y-39600D01*
X56500Y-39650D01*
X60605Y-39650D01*
X61002Y-39253D01*
X61116Y-39177D01*
X61250Y-39150D01*
X61965Y-39150D01*
X61996Y-39119D01*
X62161Y-39051D01*
X62340Y-39051D01*
X62505Y-39120D01*
X62631Y-39246D01*
X62699Y-39411D01*
X62699Y-39590D01*
X62630Y-39755D01*
X62504Y-39881D01*
X62339Y-39949D01*
X62160Y-39949D01*
X61995Y-39880D01*
X61964Y-39849D01*
X61394Y-39850D01*
X60997Y-40247D01*
X60884Y-40323D01*
X60750Y-40350D01*
X56250Y-40350D01*
X56250Y-41650D01*
X60750Y-41650D01*
X60884Y-41677D01*
X60997Y-41753D01*
X61394Y-42150D01*
X61964Y-42150D01*
X61996Y-42119D01*
X62160Y-42051D01*
X62160Y-41949D01*
X61995Y-41880D01*
X61869Y-41754D01*
X61801Y-41589D01*
X61801Y-41410D01*
X61870Y-41245D01*
X61996Y-41119D01*
X62160Y-41051D01*
X62160Y-40949D01*
X61995Y-40880D01*
X61869Y-40754D01*
X61801Y-40589D01*
X61801Y-40410D01*
X61870Y-40245D01*
X61996Y-40119D01*
X62161Y-40051D01*
X62340Y-40051D01*
X62505Y-40120D01*
X62631Y-40246D01*
X62699Y-40411D01*
X62699Y-40590D01*
X62630Y-40755D01*
X62504Y-40881D01*
X62339Y-40949D01*
X62160Y-40949D01*
X62160Y-41051D01*
X62340Y-41051D01*
X62505Y-41120D01*
X62631Y-41246D01*
X62699Y-41411D01*
X62699Y-41590D01*
X62630Y-41755D01*
X62504Y-41881D01*
X62339Y-41949D01*
X62160Y-41949D01*
X62160Y-42051D01*
X62340Y-42051D01*
X62505Y-42120D01*
X62631Y-42246D01*
X62699Y-42411D01*
X62699Y-42590D01*
X62630Y-42755D01*
X62504Y-42881D01*
X62339Y-42949D01*
X62160Y-42949D01*
X62160Y-43051D01*
X62340Y-43051D01*
X62505Y-43120D01*
X62631Y-43246D01*
X62699Y-43411D01*
X62699Y-43590D01*
X62630Y-43755D01*
X62504Y-43881D01*
X62339Y-43949D01*
X62160Y-43949D01*
X62160Y-44051D01*
X62579Y-44051D01*
X62634Y-44073D01*
X62676Y-44115D01*
X62699Y-44170D01*
X62699Y-44829D01*
X62677Y-44884D01*
X62635Y-44926D01*
X62580Y-44949D01*
X61921Y-44949D01*
X61921Y-45105D01*
X64605Y-45105D01*
M02*
