G04 (created by PCBNEW-RS274X (20100406 SVN-R2509)-final) date Tue 04 May 2010 02:57:58 PM PDT*
G01*
G70*
G90*
%MOIN*%
G04 Gerber Fmt 3.4, Leading zero omitted, Abs format*
%FSLAX34Y34*%
G04 APERTURE LIST*
%ADD10C,0.001000*%
%ADD11C,0.009000*%
%ADD12C,0.010000*%
G04 APERTURE END LIST*
G54D10*
G54D11*
X64750Y-36750D02*
X52250Y-36750D01*
X64750Y-45250D02*
X64750Y-36750D01*
X52250Y-45250D02*
X64750Y-45250D01*
X52250Y-36750D02*
X52250Y-45250D01*
G54D12*
X64074Y-38916D02*
X63274Y-38916D01*
X63845Y-39116D01*
X63274Y-39316D01*
X64074Y-39316D01*
X63845Y-39573D02*
X63845Y-39859D01*
X64074Y-39516D02*
X63274Y-39716D01*
X64074Y-39916D01*
X63693Y-40230D02*
X64074Y-40230D01*
X63274Y-40030D02*
X63693Y-40230D01*
X63274Y-40430D01*
X63350Y-41058D02*
X63312Y-41087D01*
X63274Y-41144D01*
X63274Y-41287D01*
X63312Y-41344D01*
X63350Y-41373D01*
X63426Y-41401D01*
X63502Y-41401D01*
X63617Y-41373D01*
X64074Y-41030D01*
X64074Y-41401D01*
X63274Y-41772D02*
X63274Y-41829D01*
X63312Y-41886D01*
X63350Y-41915D01*
X63426Y-41944D01*
X63579Y-41972D01*
X63769Y-41972D01*
X63921Y-41944D01*
X63998Y-41915D01*
X64036Y-41886D01*
X64074Y-41829D01*
X64074Y-41772D01*
X64036Y-41715D01*
X63998Y-41686D01*
X63921Y-41658D01*
X63769Y-41629D01*
X63579Y-41629D01*
X63426Y-41658D01*
X63350Y-41686D01*
X63312Y-41715D01*
X63274Y-41772D01*
X64074Y-42543D02*
X64074Y-42200D01*
X64074Y-42372D02*
X63274Y-42372D01*
X63388Y-42315D01*
X63464Y-42257D01*
X63502Y-42200D01*
X63274Y-42914D02*
X63274Y-42971D01*
X63312Y-43028D01*
X63350Y-43057D01*
X63426Y-43086D01*
X63579Y-43114D01*
X63769Y-43114D01*
X63921Y-43086D01*
X63998Y-43057D01*
X64036Y-43028D01*
X64074Y-42971D01*
X64074Y-42914D01*
X64036Y-42857D01*
X63998Y-42828D01*
X63921Y-42800D01*
X63769Y-42771D01*
X63579Y-42771D01*
X63426Y-42800D01*
X63350Y-42828D01*
X63312Y-42857D01*
X63274Y-42914D01*
X54024Y-39536D02*
X54824Y-39736D01*
X54024Y-39936D01*
X54405Y-40136D02*
X54405Y-40336D01*
X54824Y-40422D02*
X54824Y-40136D01*
X54024Y-40136D01*
X54024Y-40422D01*
X54824Y-41022D02*
X54443Y-40822D01*
X54824Y-40679D02*
X54024Y-40679D01*
X54024Y-40907D01*
X54062Y-40965D01*
X54100Y-40993D01*
X54176Y-41022D01*
X54290Y-41022D01*
X54367Y-40993D01*
X54405Y-40965D01*
X54443Y-40907D01*
X54443Y-40679D01*
X54824Y-42050D02*
X54824Y-41707D01*
X54824Y-41879D02*
X54024Y-41879D01*
X54138Y-41822D01*
X54214Y-41764D01*
X54252Y-41707D01*
X54748Y-42307D02*
X54786Y-42335D01*
X54824Y-42307D01*
X54786Y-42278D01*
X54748Y-42307D01*
X54824Y-42307D01*
X54024Y-42707D02*
X54024Y-42764D01*
X54062Y-42821D01*
X54100Y-42850D01*
X54176Y-42879D01*
X54329Y-42907D01*
X54519Y-42907D01*
X54671Y-42879D01*
X54748Y-42850D01*
X54786Y-42821D01*
X54824Y-42764D01*
X54824Y-42707D01*
X54786Y-42650D01*
X54748Y-42621D01*
X54671Y-42593D01*
X54519Y-42564D01*
X54329Y-42564D01*
X54176Y-42593D01*
X54100Y-42621D01*
X54062Y-42650D01*
X54024Y-42707D01*
X53574Y-36928D02*
X52774Y-36928D01*
X52774Y-37071D01*
X52812Y-37156D01*
X52888Y-37214D01*
X52964Y-37242D01*
X53117Y-37271D01*
X53231Y-37271D01*
X53383Y-37242D01*
X53460Y-37214D01*
X53536Y-37156D01*
X53574Y-37071D01*
X53574Y-36928D01*
X52774Y-37528D02*
X53421Y-37528D01*
X53498Y-37556D01*
X53536Y-37585D01*
X53574Y-37642D01*
X53574Y-37756D01*
X53536Y-37814D01*
X53498Y-37842D01*
X53421Y-37871D01*
X52774Y-37871D01*
X53574Y-38157D02*
X52774Y-38157D01*
X53345Y-38357D01*
X52774Y-38557D01*
X53574Y-38557D01*
X53574Y-38843D02*
X52774Y-38843D01*
X53345Y-39043D01*
X52774Y-39243D01*
X53574Y-39243D01*
X53193Y-39643D02*
X53574Y-39643D01*
X52774Y-39443D02*
X53193Y-39643D01*
X52774Y-39843D01*
X53574Y-40786D02*
X53574Y-40500D01*
X52774Y-40500D01*
X53155Y-40986D02*
X53155Y-41186D01*
X53574Y-41272D02*
X53574Y-40986D01*
X52774Y-40986D01*
X52774Y-41272D01*
X53574Y-41529D02*
X52774Y-41529D01*
X52774Y-41672D01*
X52812Y-41757D01*
X52888Y-41815D01*
X52964Y-41843D01*
X53117Y-41872D01*
X53231Y-41872D01*
X53383Y-41843D01*
X53460Y-41815D01*
X53536Y-41757D01*
X53574Y-41672D01*
X53574Y-41529D01*
X53574Y-42586D02*
X52774Y-42586D01*
X52774Y-42814D01*
X52812Y-42872D01*
X52850Y-42900D01*
X52926Y-42929D01*
X53040Y-42929D01*
X53117Y-42900D01*
X53155Y-42872D01*
X53193Y-42814D01*
X53193Y-42586D01*
X53345Y-43157D02*
X53345Y-43443D01*
X53574Y-43100D02*
X52774Y-43300D01*
X53574Y-43500D01*
X53574Y-43700D02*
X52774Y-43700D01*
X53574Y-44043D01*
X52774Y-44043D01*
X53155Y-44329D02*
X53155Y-44529D01*
X53574Y-44615D02*
X53574Y-44329D01*
X52774Y-44329D01*
X52774Y-44615D01*
X53574Y-45158D02*
X53574Y-44872D01*
X52774Y-44872D01*
M02*
