G04 (created by PCBnew (20090216-final)) date Thu 25 Feb 2010 04:01:50 PM PST*
G01*
G70*
G90*
%MOIN*%
G04 Gerber Fmt 3.4, Leading zero omitted, Abs format*
%FSLAX34Y34*%
G04 APERTURE LIST*
%ADD10C,0.009000*%
%ADD11C,0.060000*%
%ADD12R,0.060000X0.060000*%
%ADD13R,0.125000X0.060000*%
%ADD14C,0.060000*%
%ADD15C,0.010000*%
%ADD16R,0.102000X0.063000*%
%ADD17C,0.005000*%
%ADD18C,0.009000*%
%ADD19C,0.015000*%
%ADD20C,0.080000*%
%ADD21R,0.080000X0.080000*%
%ADD22R,0.145000X0.080000*%
%ADD23R,0.122000X0.083000*%
%ADD24C,0.066000*%
%ADD25R,0.066000X0.066000*%
%ADD26R,0.131000X0.066000*%
%ADD27R,0.108000X0.069000*%
G04 APERTURE END LIST*
G54D10*
X64750Y-34750D02*
X52250Y-34750D01*
X64750Y-47250D02*
X64750Y-34750D01*
X52250Y-47250D02*
X64750Y-47250D01*
X52250Y-34750D02*
X52250Y-47250D01*
G54D24*
X59750Y-35500D03*
X59750Y-36500D03*
X59750Y-37500D03*
G54D25*
X62250Y-37500D03*
G54D24*
X62250Y-38500D03*
X62250Y-39500D03*
X62250Y-40500D03*
X62250Y-41500D03*
X62250Y-42500D03*
X62250Y-43500D03*
X62250Y-44500D03*
G54D27*
X63500Y-45450D03*
X63500Y-46550D03*
X63500Y-42950D03*
X63500Y-44050D03*
X63500Y-40450D03*
X63500Y-41550D03*
X63500Y-37950D03*
X63500Y-39050D03*
X63500Y-35450D03*
X63500Y-36550D03*
X61000Y-45450D03*
X61000Y-46550D03*
X61000Y-42950D03*
X61000Y-44050D03*
X61000Y-40450D03*
X61000Y-41550D03*
X61000Y-37950D03*
X61000Y-39050D03*
X61000Y-35450D03*
X61000Y-36550D03*
X58500Y-45450D03*
X58500Y-46550D03*
X58500Y-42950D03*
X58500Y-44050D03*
X58500Y-40450D03*
X58500Y-41550D03*
X58500Y-37950D03*
X58500Y-39050D03*
X58500Y-35450D03*
X58500Y-36550D03*
X56000Y-45450D03*
X56000Y-46550D03*
X56000Y-42950D03*
X56000Y-44050D03*
X56000Y-40450D03*
X56000Y-41550D03*
X56000Y-37950D03*
X56000Y-39050D03*
X56000Y-35450D03*
X56000Y-36550D03*
X53500Y-45450D03*
X53500Y-46550D03*
X53500Y-42950D03*
X53500Y-44050D03*
X53500Y-40450D03*
X53500Y-41550D03*
X53500Y-37950D03*
X53500Y-39050D03*
X53500Y-35450D03*
X53500Y-36550D03*
M02*
