G04 (created by PCBnew (20090216-final)) date Thu 25 Feb 2010 04:01:50 PM PST*
G01*
G70*
G90*
%MOIN*%
G04 Gerber Fmt 3.4, Leading zero omitted, Abs format*
%FSLAX34Y34*%
G04 APERTURE LIST*
%ADD10C,0.012000*%
%ADD11C,0.060000*%
%ADD12R,0.060000X0.060000*%
%ADD13R,0.125000X0.060000*%
%ADD14C,0.060000*%
%ADD15C,0.010000*%
%ADD16R,0.102000X0.063000*%
%ADD17C,0.005000*%
%ADD18C,0.009000*%
%ADD19C,0.015000*%
%ADD20C,0.080000*%
%ADD21R,0.080000X0.080000*%
%ADD22R,0.145000X0.080000*%
%ADD23R,0.122000X0.083000*%
G04 APERTURE END LIST*
G54D10*
X60150Y-38422D02*
X59350Y-38422D01*
X59350Y-38422D02*
X59350Y-38889D01*
X59706Y-38422D02*
X59706Y-38689D01*
X60150Y-39675D02*
X60150Y-39208D01*
X60150Y-39208D02*
X59350Y-39208D01*
X59350Y-39208D02*
X59350Y-39675D01*
X59706Y-39208D02*
X59706Y-39475D01*
X60150Y-39994D02*
X59350Y-39994D01*
X59350Y-39994D02*
X59350Y-40394D01*
X59350Y-40394D02*
X59439Y-40461D01*
X59439Y-40461D02*
X59617Y-40461D01*
X59617Y-40461D02*
X59706Y-40394D01*
X59706Y-40394D02*
X59706Y-39994D01*
X59706Y-40394D02*
X59884Y-40461D01*
X59884Y-40461D02*
X60062Y-40461D01*
X60062Y-40461D02*
X60150Y-40394D01*
X60150Y-40394D02*
X60150Y-39994D01*
X60150Y-42033D02*
X60150Y-41566D01*
X60150Y-41566D02*
X59884Y-41566D01*
X59884Y-41566D02*
X59795Y-41633D01*
X59795Y-41633D02*
X59795Y-41966D01*
X59795Y-41966D02*
X59706Y-42033D01*
X59706Y-42033D02*
X59439Y-42033D01*
X59439Y-42033D02*
X59350Y-41966D01*
X59350Y-41966D02*
X59350Y-41633D01*
X59350Y-41633D02*
X59439Y-41566D01*
X60150Y-42352D02*
X59350Y-42819D01*
X60062Y-42352D02*
X59439Y-42352D01*
X59439Y-42352D02*
X59350Y-42419D01*
X59350Y-42419D02*
X59350Y-42752D01*
X59350Y-42752D02*
X59439Y-42819D01*
X59439Y-42819D02*
X60062Y-42819D01*
X60062Y-42819D02*
X60150Y-42752D01*
X60150Y-42752D02*
X60150Y-42419D01*
X60150Y-42419D02*
X60062Y-42352D01*
X60150Y-43272D02*
X60150Y-43538D01*
X60150Y-43405D02*
X59350Y-43405D01*
X59439Y-43405D02*
X59617Y-43272D01*
X60150Y-43924D02*
X59350Y-44391D01*
X60062Y-43924D02*
X59439Y-43924D01*
X59439Y-43924D02*
X59350Y-43991D01*
X59350Y-43991D02*
X59350Y-44324D01*
X59350Y-44324D02*
X59439Y-44391D01*
X59439Y-44391D02*
X60062Y-44391D01*
X60062Y-44391D02*
X60150Y-44324D01*
X60150Y-44324D02*
X60150Y-43991D01*
X60150Y-43991D02*
X60062Y-43924D01*
X57935Y-35100D02*
X57668Y-35900D01*
X57668Y-35900D02*
X57401Y-35100D01*
X56682Y-35900D02*
X57149Y-35900D01*
X57149Y-35900D02*
X57149Y-35100D01*
X57149Y-35100D02*
X56682Y-35100D01*
X57149Y-35456D02*
X56882Y-35456D01*
X56363Y-35900D02*
X56363Y-35100D01*
X56363Y-35100D02*
X55963Y-35100D01*
X55963Y-35100D02*
X55896Y-35189D01*
X55896Y-35189D02*
X55896Y-35456D01*
X55896Y-35456D02*
X55963Y-35545D01*
X55963Y-35545D02*
X56363Y-35545D01*
X56163Y-35545D02*
X55896Y-35900D01*
X54657Y-35900D02*
X54391Y-35900D01*
X54524Y-35900D02*
X54524Y-35100D01*
X54524Y-35189D02*
X54657Y-35367D01*
X53805Y-35900D02*
X53805Y-35812D01*
X53219Y-35900D02*
X52752Y-35100D01*
X53219Y-35812D02*
X53219Y-35189D01*
X53219Y-35189D02*
X53152Y-35100D01*
X53152Y-35100D02*
X52819Y-35100D01*
X52819Y-35100D02*
X52752Y-35189D01*
X52752Y-35189D02*
X52752Y-35812D01*
X52752Y-35812D02*
X52819Y-35900D01*
X52819Y-35900D02*
X53152Y-35900D01*
X53152Y-35900D02*
X53219Y-35812D01*
X63083Y-46400D02*
X62816Y-46400D01*
X62950Y-46400D02*
X62950Y-45600D01*
X63083Y-45600D02*
X62816Y-45600D01*
X62364Y-46400D02*
X62364Y-45600D01*
X62364Y-45600D02*
X61964Y-45600D01*
X61964Y-45600D02*
X61897Y-45689D01*
X61897Y-45689D02*
X61897Y-45956D01*
X61897Y-45956D02*
X61964Y-46045D01*
X61964Y-46045D02*
X62364Y-46045D01*
X62164Y-46045D02*
X61897Y-46400D01*
X60792Y-45600D02*
X60792Y-46400D01*
X60792Y-46400D02*
X60258Y-46400D01*
X59539Y-46400D02*
X60006Y-46400D01*
X60006Y-46400D02*
X60006Y-45600D01*
X60006Y-45600D02*
X59539Y-45600D01*
X60006Y-45956D02*
X59739Y-45956D01*
X59153Y-46400D02*
X59153Y-45600D01*
X59220Y-45600D02*
X58820Y-45600D01*
X58820Y-45600D02*
X58753Y-45689D01*
X58753Y-45689D02*
X58753Y-46312D01*
X58753Y-46312D02*
X58820Y-46400D01*
X58820Y-46400D02*
X59220Y-46400D01*
X57648Y-46400D02*
X57648Y-45600D01*
X57648Y-45600D02*
X57248Y-45600D01*
X57248Y-45600D02*
X57181Y-45689D01*
X57181Y-45689D02*
X57181Y-45956D01*
X57181Y-45956D02*
X57248Y-46045D01*
X57248Y-46045D02*
X57648Y-46045D01*
X56862Y-46400D02*
X56862Y-45778D01*
X56862Y-45778D02*
X56728Y-45600D01*
X56728Y-45600D02*
X56528Y-45600D01*
X56528Y-45600D02*
X56395Y-45778D01*
X56395Y-45778D02*
X56395Y-46400D01*
X56862Y-45956D02*
X56395Y-45956D01*
X56076Y-46400D02*
X56076Y-45600D01*
X56076Y-45600D02*
X55609Y-46400D01*
X55609Y-46400D02*
X55609Y-45600D01*
X54823Y-46400D02*
X55290Y-46400D01*
X55290Y-46400D02*
X55290Y-45600D01*
X55290Y-45600D02*
X54823Y-45600D01*
X55290Y-45956D02*
X55023Y-45956D01*
X54504Y-45600D02*
X54504Y-46400D01*
X54504Y-46400D02*
X53970Y-46400D01*
G54D18*
X64750Y-34750D02*
X52250Y-34750D01*
X64750Y-47250D02*
X64750Y-34750D01*
X52250Y-47250D02*
X64750Y-47250D01*
X52250Y-34750D02*
X52250Y-47250D01*
G54D19*
X59250Y-35000D02*
X60250Y-35000D01*
X60250Y-35000D02*
X60250Y-38000D01*
X60250Y-38000D02*
X59250Y-38000D01*
X59250Y-38000D02*
X59250Y-35000D01*
X62750Y-44500D02*
X63750Y-44500D01*
X62750Y-43500D02*
X63750Y-43500D01*
X62750Y-42500D02*
X63750Y-42500D01*
X62750Y-41500D02*
X63750Y-41500D01*
X62750Y-40500D02*
X63750Y-40500D01*
X62750Y-39500D02*
X63750Y-39500D01*
X62750Y-38500D02*
X63750Y-38500D01*
X62750Y-37500D02*
X63750Y-37500D01*
X61750Y-37000D02*
X62750Y-37000D01*
X62750Y-37000D02*
X62750Y-45000D01*
X62750Y-45000D02*
X61750Y-45000D01*
X61750Y-45000D02*
X61750Y-37000D01*
X54970Y-36900D02*
X52320Y-36900D01*
X52320Y-36900D02*
X52320Y-45100D01*
X52320Y-45100D02*
X54970Y-45100D01*
X54970Y-44500D02*
X55820Y-44500D01*
X54970Y-43500D02*
X55820Y-43500D01*
X54970Y-42500D02*
X55820Y-42500D01*
X54970Y-41500D02*
X55820Y-41500D01*
X54970Y-40500D02*
X55820Y-40500D01*
X54970Y-39500D02*
X55820Y-39500D01*
X54970Y-38500D02*
X55820Y-38500D01*
X54970Y-37500D02*
X55820Y-37500D01*
X54970Y-36900D02*
X54970Y-45100D01*
G54D10*
X58984Y-35711D02*
X59050Y-35644D01*
X59050Y-35644D02*
X59050Y-35311D01*
X59050Y-35311D02*
X58984Y-35244D01*
X58984Y-35244D02*
X58517Y-35244D01*
X58517Y-35244D02*
X58450Y-35311D01*
X58450Y-35311D02*
X58450Y-35644D01*
X58450Y-35644D02*
X58517Y-35711D01*
X58984Y-36497D02*
X59050Y-36430D01*
X59050Y-36430D02*
X59050Y-36097D01*
X59050Y-36097D02*
X58984Y-36030D01*
X58984Y-36030D02*
X58517Y-36030D01*
X58517Y-36030D02*
X58450Y-36097D01*
X58450Y-36097D02*
X58450Y-36430D01*
X58450Y-36430D02*
X58517Y-36497D01*
X59050Y-36816D02*
X58450Y-36816D01*
X58450Y-36816D02*
X58450Y-37216D01*
X58450Y-37216D02*
X58517Y-37283D01*
X58517Y-37283D02*
X58650Y-37283D01*
X58650Y-37283D02*
X58717Y-37216D01*
X58717Y-37216D02*
X58717Y-36816D01*
X58717Y-37216D02*
X58850Y-37283D01*
X58850Y-37283D02*
X58984Y-37283D01*
X58984Y-37283D02*
X59050Y-37216D01*
X59050Y-37216D02*
X59050Y-36816D01*
X59050Y-37736D02*
X59050Y-38002D01*
X59050Y-37869D02*
X58450Y-37869D01*
X58517Y-37869D02*
X58650Y-37736D01*
X61550Y-40280D02*
X60950Y-40280D01*
X60950Y-40280D02*
X60950Y-40680D01*
X60950Y-40680D02*
X61017Y-40747D01*
X61017Y-40747D02*
X61217Y-40747D01*
X61217Y-40747D02*
X61284Y-40680D01*
X61284Y-40680D02*
X61284Y-40280D01*
X61550Y-41533D02*
X61550Y-41066D01*
X61550Y-41066D02*
X61350Y-41066D01*
X61350Y-41066D02*
X61284Y-41133D01*
X61284Y-41133D02*
X61284Y-41466D01*
X61284Y-41466D02*
X61217Y-41533D01*
X61217Y-41533D02*
X61017Y-41533D01*
X61017Y-41533D02*
X60950Y-41466D01*
X60950Y-41466D02*
X60950Y-41133D01*
X60950Y-41133D02*
X61017Y-41066D01*
X58300Y-40280D02*
X57700Y-40280D01*
X57700Y-40280D02*
X57700Y-40680D01*
X57700Y-40680D02*
X57767Y-40747D01*
X57767Y-40747D02*
X57967Y-40747D01*
X57967Y-40747D02*
X58034Y-40680D01*
X58034Y-40680D02*
X58034Y-40280D01*
X58300Y-41200D02*
X58300Y-41466D01*
X58300Y-41333D02*
X57700Y-41333D01*
X57767Y-41333D02*
X57900Y-41200D01*
M02*
