G04 (created by PCBnew (20090216-final)) date Thu 25 Feb 2010 04:01:50 PM PST*
G01*
G70*
G90*
%MOIN*%
G04 Gerber Fmt 3.4, Leading zero omitted, Abs format*
%FSLAX34Y34*%
G04 APERTURE LIST*
%ADD10C,0.009000*%
%ADD11C,0.060000*%
%ADD12R,0.060000X0.060000*%
%ADD13R,0.125000X0.060000*%
%ADD14C,0.060000*%
%ADD15C,0.010000*%
%ADD16R,0.102000X0.063000*%
%ADD17C,0.005000*%
%ADD18C,0.009000*%
%ADD19C,0.015000*%
%ADD20C,0.080000*%
%ADD21R,0.080000X0.080000*%
%ADD22R,0.145000X0.080000*%
%ADD23R,0.122000X0.083000*%
G04 APERTURE END LIST*
G54D10*
X64750Y-34750D02*
X52250Y-34750D01*
X64750Y-47250D02*
X64750Y-34750D01*
X52250Y-47250D02*
X64750Y-47250D01*
X52250Y-34750D02*
X52250Y-47250D01*
G54D19*
X62400Y-46600D02*
X62800Y-47100D01*
X62400Y-44900D02*
X62400Y-47100D01*
X62400Y-47100D02*
X64600Y-47100D01*
X64600Y-47100D02*
X64600Y-44900D01*
X64600Y-44900D02*
X62400Y-44900D01*
X62400Y-44100D02*
X62800Y-44600D01*
X62400Y-42400D02*
X62400Y-44600D01*
X62400Y-44600D02*
X64600Y-44600D01*
X64600Y-44600D02*
X64600Y-42400D01*
X64600Y-42400D02*
X62400Y-42400D01*
X62400Y-41600D02*
X62800Y-42100D01*
X62400Y-39900D02*
X62400Y-42100D01*
X62400Y-42100D02*
X64600Y-42100D01*
X64600Y-42100D02*
X64600Y-39900D01*
X64600Y-39900D02*
X62400Y-39900D01*
X62400Y-39100D02*
X62800Y-39600D01*
X62400Y-37400D02*
X62400Y-39600D01*
X62400Y-39600D02*
X64600Y-39600D01*
X64600Y-39600D02*
X64600Y-37400D01*
X64600Y-37400D02*
X62400Y-37400D01*
X62400Y-36600D02*
X62800Y-37100D01*
X62400Y-34900D02*
X62400Y-37100D01*
X62400Y-37100D02*
X64600Y-37100D01*
X64600Y-37100D02*
X64600Y-34900D01*
X64600Y-34900D02*
X62400Y-34900D01*
X59900Y-46600D02*
X60300Y-47100D01*
X59900Y-44900D02*
X59900Y-47100D01*
X59900Y-47100D02*
X62100Y-47100D01*
X62100Y-47100D02*
X62100Y-44900D01*
X62100Y-44900D02*
X59900Y-44900D01*
X59900Y-44100D02*
X60300Y-44600D01*
X59900Y-42400D02*
X59900Y-44600D01*
X59900Y-44600D02*
X62100Y-44600D01*
X62100Y-44600D02*
X62100Y-42400D01*
X62100Y-42400D02*
X59900Y-42400D01*
X59900Y-41600D02*
X60300Y-42100D01*
X59900Y-39900D02*
X59900Y-42100D01*
X59900Y-42100D02*
X62100Y-42100D01*
X62100Y-42100D02*
X62100Y-39900D01*
X62100Y-39900D02*
X59900Y-39900D01*
X59900Y-39100D02*
X60300Y-39600D01*
X59900Y-37400D02*
X59900Y-39600D01*
X59900Y-39600D02*
X62100Y-39600D01*
X62100Y-39600D02*
X62100Y-37400D01*
X62100Y-37400D02*
X59900Y-37400D01*
X59900Y-36600D02*
X60300Y-37100D01*
X59900Y-34900D02*
X59900Y-37100D01*
X59900Y-37100D02*
X62100Y-37100D01*
X62100Y-37100D02*
X62100Y-34900D01*
X62100Y-34900D02*
X59900Y-34900D01*
X57400Y-46600D02*
X57800Y-47100D01*
X57400Y-44900D02*
X57400Y-47100D01*
X57400Y-47100D02*
X59600Y-47100D01*
X59600Y-47100D02*
X59600Y-44900D01*
X59600Y-44900D02*
X57400Y-44900D01*
X57400Y-44100D02*
X57800Y-44600D01*
X57400Y-42400D02*
X57400Y-44600D01*
X57400Y-44600D02*
X59600Y-44600D01*
X59600Y-44600D02*
X59600Y-42400D01*
X59600Y-42400D02*
X57400Y-42400D01*
X57400Y-41600D02*
X57800Y-42100D01*
X57400Y-39900D02*
X57400Y-42100D01*
X57400Y-42100D02*
X59600Y-42100D01*
X59600Y-42100D02*
X59600Y-39900D01*
X59600Y-39900D02*
X57400Y-39900D01*
X57400Y-39100D02*
X57800Y-39600D01*
X57400Y-37400D02*
X57400Y-39600D01*
X57400Y-39600D02*
X59600Y-39600D01*
X59600Y-39600D02*
X59600Y-37400D01*
X59600Y-37400D02*
X57400Y-37400D01*
X57400Y-36600D02*
X57800Y-37100D01*
X57400Y-34900D02*
X57400Y-37100D01*
X57400Y-37100D02*
X59600Y-37100D01*
X59600Y-37100D02*
X59600Y-34900D01*
X59600Y-34900D02*
X57400Y-34900D01*
X54900Y-46600D02*
X55300Y-47100D01*
X54900Y-44900D02*
X54900Y-47100D01*
X54900Y-47100D02*
X57100Y-47100D01*
X57100Y-47100D02*
X57100Y-44900D01*
X57100Y-44900D02*
X54900Y-44900D01*
X54900Y-44100D02*
X55300Y-44600D01*
X54900Y-42400D02*
X54900Y-44600D01*
X54900Y-44600D02*
X57100Y-44600D01*
X57100Y-44600D02*
X57100Y-42400D01*
X57100Y-42400D02*
X54900Y-42400D01*
X54900Y-41600D02*
X55300Y-42100D01*
X54900Y-39900D02*
X54900Y-42100D01*
X54900Y-42100D02*
X57100Y-42100D01*
X57100Y-42100D02*
X57100Y-39900D01*
X57100Y-39900D02*
X54900Y-39900D01*
X54900Y-39100D02*
X55300Y-39600D01*
X54900Y-37400D02*
X54900Y-39600D01*
X54900Y-39600D02*
X57100Y-39600D01*
X57100Y-39600D02*
X57100Y-37400D01*
X57100Y-37400D02*
X54900Y-37400D01*
X54900Y-36600D02*
X55300Y-37100D01*
X54900Y-34900D02*
X54900Y-37100D01*
X54900Y-37100D02*
X57100Y-37100D01*
X57100Y-37100D02*
X57100Y-34900D01*
X57100Y-34900D02*
X54900Y-34900D01*
X52400Y-46600D02*
X52800Y-47100D01*
X52400Y-44900D02*
X52400Y-47100D01*
X52400Y-47100D02*
X54600Y-47100D01*
X54600Y-47100D02*
X54600Y-44900D01*
X54600Y-44900D02*
X52400Y-44900D01*
X52400Y-44100D02*
X52800Y-44600D01*
X52400Y-42400D02*
X52400Y-44600D01*
X52400Y-44600D02*
X54600Y-44600D01*
X54600Y-44600D02*
X54600Y-42400D01*
X54600Y-42400D02*
X52400Y-42400D01*
X52400Y-41600D02*
X52800Y-42100D01*
X52400Y-39900D02*
X52400Y-42100D01*
X52400Y-42100D02*
X54600Y-42100D01*
X54600Y-42100D02*
X54600Y-39900D01*
X54600Y-39900D02*
X52400Y-39900D01*
X52400Y-39100D02*
X52800Y-39600D01*
X52400Y-37400D02*
X52400Y-39600D01*
X52400Y-39600D02*
X54600Y-39600D01*
X54600Y-39600D02*
X54600Y-37400D01*
X54600Y-37400D02*
X52400Y-37400D01*
X52400Y-36600D02*
X52800Y-37100D01*
X52400Y-34900D02*
X52400Y-37100D01*
X52400Y-37100D02*
X54600Y-37100D01*
X54600Y-37100D02*
X54600Y-34900D01*
X54600Y-34900D02*
X52400Y-34900D01*
M02*
